solid OpenSCAD_Model
  facet normal 0 0 -1
    outer loop
      vertex 59.0476 0 0
      vertex 58.6004 0.894394 0
      vertex 69.2587 5.10559 0
    endloop
  endfacet
  facet normal -0 0 -1
    outer loop
      vertex 69.2587 5.10559 0
      vertex 58.6004 0.894394 0
      vertex 68.8115 6 0
    endloop
  endfacet
  facet normal 0 0 -1
    outer loop
      vertex 5.38269 3.92389 0
      vertex 0 6 0
      vertex 68.8115 6 0
    endloop
  endfacet
  facet normal 0 -0 -1
    outer loop
      vertex 5.55559 2.16849 0
      vertex 56.8115 0 0
      vertex 5.38269 2.0761 0
    endloop
  endfacet
  facet normal 0 -0 -1
    outer loop
      vertex 4.80489 2.0192 0
      vertex 5 2 0
      vertex 0 0 0
    endloop
  endfacet
  facet normal 0 -0 -1
    outer loop
      vertex 4.61729 2.0761 0
      vertex 4.80489 2.0192 0
      vertex 0 0 0
    endloop
  endfacet
  facet normal 0 -0 -1
    outer loop
      vertex 4.4444 2.16849 0
      vertex 4.61729 2.0761 0
      vertex 0 0 0
    endloop
  endfacet
  facet normal 0 -0 -1
    outer loop
      vertex 4.16849 2.4444 0
      vertex 4.29289 2.29289 0
      vertex 0 0 0
    endloop
  endfacet
  facet normal 0 -0 -1
    outer loop
      vertex 4.29289 2.29289 0
      vertex 4.4444 2.16849 0
      vertex 0 0 0
    endloop
  endfacet
  facet normal 0 -0 -1
    outer loop
      vertex 4.0761 2.61729 0
      vertex 4.16849 2.4444 0
      vertex 0 0 0
    endloop
  endfacet
  facet normal 0 -0 -1
    outer loop
      vertex 4.0192 2.80489 0
      vertex 4.0761 2.61729 0
      vertex 0 0 0
    endloop
  endfacet
  facet normal 0 -0 -1
    outer loop
      vertex 4 3 0
      vertex 4.0192 2.80489 0
      vertex 0 0 0
    endloop
  endfacet
  facet normal 0 0 -1
    outer loop
      vertex 58.6004 0.894394 0
      vertex 5.38269 3.92389 0
      vertex 68.8115 6 0
    endloop
  endfacet
  facet normal 0 0 -1
    outer loop
      vertex 0 6 0
      vertex 4 3 0
      vertex 0 0 0
    endloop
  endfacet
  facet normal 0 0 -1
    outer loop
      vertex 0 6 0
      vertex 4.0192 3.1951 0
      vertex 4 3 0
    endloop
  endfacet
  facet normal -0 0 -1
    outer loop
      vertex 4.0761 3.38269 0
      vertex 4.0192 3.1951 0
      vertex 0 6 0
    endloop
  endfacet
  facet normal -0 0 -1
    outer loop
      vertex 4.16849 3.55559 0
      vertex 4.0761 3.38269 0
      vertex 0 6 0
    endloop
  endfacet
  facet normal 0 0 -1
    outer loop
      vertex 5.1951 3.98079 0
      vertex 0 6 0
      vertex 5.38269 3.92389 0
    endloop
  endfacet
  facet normal -0 0 -1
    outer loop
      vertex 4.29289 3.70709 0
      vertex 4.16849 3.55559 0
      vertex 0 6 0
    endloop
  endfacet
  facet normal -0 0 -1
    outer loop
      vertex 4.4444 3.8315 0
      vertex 4.29289 3.70709 0
      vertex 0 6 0
    endloop
  endfacet
  facet normal -0 0 -1
    outer loop
      vertex 4.61729 3.92389 0
      vertex 4.4444 3.8315 0
      vertex 0 6 0
    endloop
  endfacet
  facet normal -0 0 -1
    outer loop
      vertex 4.80489 3.98079 0
      vertex 4.61729 3.92389 0
      vertex 0 6 0
    endloop
  endfacet
  facet normal 0 0 -1
    outer loop
      vertex 5.1951 3.98079 0
      vertex 5 4 0
      vertex 0 6 0
    endloop
  endfacet
  facet normal -0 0 -1
    outer loop
      vertex 5 4 0
      vertex 4.80489 3.98079 0
      vertex 0 6 0
    endloop
  endfacet
  facet normal 0 0 -1
    outer loop
      vertex 58.6004 0.894394 0
      vertex 5.55559 3.8315 0
      vertex 5.38269 3.92389 0
    endloop
  endfacet
  facet normal -0 0 -1
    outer loop
      vertex 58.6004 0.894394 0
      vertex 56.8115 0 0
      vertex 5.55559 3.8315 0
    endloop
  endfacet
  facet normal 0 0 -1
    outer loop
      vertex 5.55559 3.8315 0
      vertex 56.8115 0 0
      vertex 5.70709 3.70709 0
    endloop
  endfacet
  facet normal 0 0 -1
    outer loop
      vertex 5.70709 3.70709 0
      vertex 56.8115 0 0
      vertex 5.8315 3.55559 0
    endloop
  endfacet
  facet normal 0 0 -1
    outer loop
      vertex 5.8315 3.55559 0
      vertex 56.8115 0 0
      vertex 5.92389 3.38269 0
    endloop
  endfacet
  facet normal 0 0 -1
    outer loop
      vertex 5.92389 3.38269 0
      vertex 56.8115 0 0
      vertex 5.98079 3.1951 0
    endloop
  endfacet
  facet normal 0 0 -1
    outer loop
      vertex 5.98079 3.1951 0
      vertex 56.8115 0 0
      vertex 6 3 0
    endloop
  endfacet
  facet normal 0 -0 -1
    outer loop
      vertex 6 3 0
      vertex 56.8115 0 0
      vertex 5.98079 2.80489 0
    endloop
  endfacet
  facet normal 0 -0 -1
    outer loop
      vertex 5.98079 2.80489 0
      vertex 56.8115 0 0
      vertex 5.92389 2.61729 0
    endloop
  endfacet
  facet normal 0 -0 -1
    outer loop
      vertex 5.92389 2.61729 0
      vertex 56.8115 0 0
      vertex 5.8315 2.4444 0
    endloop
  endfacet
  facet normal 0 -0 -1
    outer loop
      vertex 5.8315 2.4444 0
      vertex 56.8115 0 0
      vertex 5.70709 2.29289 0
    endloop
  endfacet
  facet normal 0 -0 -1
    outer loop
      vertex 5.70709 2.29289 0
      vertex 56.8115 0 0
      vertex 5.55559 2.16849 0
    endloop
  endfacet
  facet normal 0 0 -1
    outer loop
      vertex 5.38269 2.0761 0
      vertex 0 0 0
      vertex 5.1951 2.0192 0
    endloop
  endfacet
  facet normal 0 -0 -1
    outer loop
      vertex 5.38269 2.0761 0
      vertex 56.8115 0 0
      vertex 0 0 0
    endloop
  endfacet
  facet normal 0 0 -1
    outer loop
      vertex 5.1951 2.0192 0
      vertex 0 0 0
      vertex 5 2 0
    endloop
  endfacet
  facet normal 0 0 1
    outer loop
      vertex 69.2587 5.10559 6
      vertex 58.6004 0.894394 6
      vertex 59.0476 0 6
    endloop
  endfacet
  facet normal 0 0 1
    outer loop
      vertex 68.8115 6 6
      vertex 58.6004 0.894394 6
      vertex 69.2587 5.10559 6
    endloop
  endfacet
  facet normal 0 0 1
    outer loop
      vertex 68.8115 6 6
      vertex 0 6 6
      vertex 5.38269 3.92389 6
    endloop
  endfacet
  facet normal -0 0 1
    outer loop
      vertex 5.38269 2.0761 6
      vertex 56.8115 0 6
      vertex 5.55559 2.16849 6
    endloop
  endfacet
  facet normal 0 0 1
    outer loop
      vertex 0 0 6
      vertex 5 2 6
      vertex 4.80489 2.0192 6
    endloop
  endfacet
  facet normal 0 0 1
    outer loop
      vertex 0 0 6
      vertex 4.80489 2.0192 6
      vertex 4.61729 2.0761 6
    endloop
  endfacet
  facet normal 0 0 1
    outer loop
      vertex 0 0 6
      vertex 4.61729 2.0761 6
      vertex 4.4444 2.16849 6
    endloop
  endfacet
  facet normal 0 0 1
    outer loop
      vertex 0 0 6
      vertex 4.29289 2.29289 6
      vertex 4.16849 2.4444 6
    endloop
  endfacet
  facet normal 0 0 1
    outer loop
      vertex 0 0 6
      vertex 4.4444 2.16849 6
      vertex 4.29289 2.29289 6
    endloop
  endfacet
  facet normal 0 0 1
    outer loop
      vertex 0 0 6
      vertex 4.16849 2.4444 6
      vertex 4.0761 2.61729 6
    endloop
  endfacet
  facet normal 0 0 1
    outer loop
      vertex 0 0 6
      vertex 4.0761 2.61729 6
      vertex 4.0192 2.80489 6
    endloop
  endfacet
  facet normal 0 0 1
    outer loop
      vertex 0 0 6
      vertex 4.0192 2.80489 6
      vertex 4 3 6
    endloop
  endfacet
  facet normal 0 0 1
    outer loop
      vertex 68.8115 6 6
      vertex 5.38269 3.92389 6
      vertex 58.6004 0.894394 6
    endloop
  endfacet
  facet normal 0 0 1
    outer loop
      vertex 0 0 6
      vertex 4 3 6
      vertex 0 6 6
    endloop
  endfacet
  facet normal 0 -0 1
    outer loop
      vertex 4 3 6
      vertex 4.0192 3.1951 6
      vertex 0 6 6
    endloop
  endfacet
  facet normal 0 0 1
    outer loop
      vertex 0 6 6
      vertex 4.0192 3.1951 6
      vertex 4.0761 3.38269 6
    endloop
  endfacet
  facet normal 0 0 1
    outer loop
      vertex 0 6 6
      vertex 4.0761 3.38269 6
      vertex 4.16849 3.55559 6
    endloop
  endfacet
  facet normal 0 0 1
    outer loop
      vertex 5.38269 3.92389 6
      vertex 0 6 6
      vertex 5.1951 3.98079 6
    endloop
  endfacet
  facet normal 0 0 1
    outer loop
      vertex 0 6 6
      vertex 4.16849 3.55559 6
      vertex 4.29289 3.70709 6
    endloop
  endfacet
  facet normal 0 0 1
    outer loop
      vertex 0 6 6
      vertex 4.29289 3.70709 6
      vertex 4.4444 3.8315 6
    endloop
  endfacet
  facet normal 0 0 1
    outer loop
      vertex 0 6 6
      vertex 4.4444 3.8315 6
      vertex 4.61729 3.92389 6
    endloop
  endfacet
  facet normal 0 0 1
    outer loop
      vertex 0 6 6
      vertex 4.61729 3.92389 6
      vertex 4.80489 3.98079 6
    endloop
  endfacet
  facet normal 0 0 1
    outer loop
      vertex 0 6 6
      vertex 5 4 6
      vertex 5.1951 3.98079 6
    endloop
  endfacet
  facet normal 0 0 1
    outer loop
      vertex 0 6 6
      vertex 4.80489 3.98079 6
      vertex 5 4 6
    endloop
  endfacet
  facet normal 0 0 1
    outer loop
      vertex 5.38269 3.92389 6
      vertex 5.55559 3.8315 6
      vertex 58.6004 0.894394 6
    endloop
  endfacet
  facet normal 0 0 1
    outer loop
      vertex 5.55559 3.8315 6
      vertex 56.8115 0 6
      vertex 58.6004 0.894394 6
    endloop
  endfacet
  facet normal -0 -0 1
    outer loop
      vertex 5.70709 3.70709 6
      vertex 56.8115 0 6
      vertex 5.55559 3.8315 6
    endloop
  endfacet
  facet normal -0 -0 1
    outer loop
      vertex 5.8315 3.55559 6
      vertex 56.8115 0 6
      vertex 5.70709 3.70709 6
    endloop
  endfacet
  facet normal -0 -0 1
    outer loop
      vertex 5.92389 3.38269 6
      vertex 56.8115 0 6
      vertex 5.8315 3.55559 6
    endloop
  endfacet
  facet normal -0 -0 1
    outer loop
      vertex 5.98079 3.1951 6
      vertex 56.8115 0 6
      vertex 5.92389 3.38269 6
    endloop
  endfacet
  facet normal -0 -0 1
    outer loop
      vertex 6 3 6
      vertex 56.8115 0 6
      vertex 5.98079 3.1951 6
    endloop
  endfacet
  facet normal -0 0 1
    outer loop
      vertex 5.98079 2.80489 6
      vertex 56.8115 0 6
      vertex 6 3 6
    endloop
  endfacet
  facet normal -0 0 1
    outer loop
      vertex 5.92389 2.61729 6
      vertex 56.8115 0 6
      vertex 5.98079 2.80489 6
    endloop
  endfacet
  facet normal -0 0 1
    outer loop
      vertex 5.8315 2.4444 6
      vertex 56.8115 0 6
      vertex 5.92389 2.61729 6
    endloop
  endfacet
  facet normal -0 0 1
    outer loop
      vertex 5.70709 2.29289 6
      vertex 56.8115 0 6
      vertex 5.8315 2.4444 6
    endloop
  endfacet
  facet normal -0 0 1
    outer loop
      vertex 5.55559 2.16849 6
      vertex 56.8115 0 6
      vertex 5.70709 2.29289 6
    endloop
  endfacet
  facet normal -0 0 1
    outer loop
      vertex 5.1951 2.0192 6
      vertex 0 0 6
      vertex 5.38269 2.0761 6
    endloop
  endfacet
  facet normal 0 0 1
    outer loop
      vertex 0 0 6
      vertex 56.8115 0 6
      vertex 5.38269 2.0761 6
    endloop
  endfacet
  facet normal -0 0 1
    outer loop
      vertex 5 2 6
      vertex 0 0 6
      vertex 5.1951 2.0192 6
    endloop
  endfacet
  facet normal -0.894426 -0.447216 0
    outer loop
      vertex 59.0476 0 0
      vertex 58.6004 0.894394 6
      vertex 58.6004 0.894394 0
    endloop
  endfacet
  facet normal -0.894426 -0.447216 0
    outer loop
      vertex 59.0476 0 0
      vertex 59.0476 0 6
      vertex 58.6004 0.894394 6
    endloop
  endfacet
  facet normal 0.447216 -0.894426 0
    outer loop
      vertex 69.2587 5.10559 0
      vertex 59.0476 0 6
      vertex 59.0476 0 0
    endloop
  endfacet
  facet normal 0.447216 -0.894426 0
    outer loop
      vertex 69.2587 5.10559 0
      vertex 69.2587 5.10559 6
      vertex 59.0476 0 6
    endloop
  endfacet
  facet normal 0.894429 0.44721 0
    outer loop
      vertex 68.8115 6 0
      vertex 69.2587 5.10559 6
      vertex 69.2587 5.10559 0
    endloop
  endfacet
  facet normal 0.894429 0.44721 -0
    outer loop
      vertex 68.8115 6 0
      vertex 68.8115 6 6
      vertex 69.2587 5.10559 6
    endloop
  endfacet
  facet normal 0 1 0
    outer loop
      vertex 0 6 0
      vertex 68.8115 6 6
      vertex 68.8115 6 0
    endloop
  endfacet
  facet normal 0 1 0
    outer loop
      vertex 0 6 0
      vertex 0 6 6
      vertex 68.8115 6 6
    endloop
  endfacet
  facet normal -1 0 0
    outer loop
      vertex 0 0 0
      vertex 0 6 6
      vertex 0 6 0
    endloop
  endfacet
  facet normal -1 0 0
    outer loop
      vertex 0 0 0
      vertex 0 0 6
      vertex 0 6 6
    endloop
  endfacet
  facet normal 0 -1 0
    outer loop
      vertex 56.8115 0 0
      vertex 0 0 6
      vertex 0 0 0
    endloop
  endfacet
  facet normal 0 -1 0
    outer loop
      vertex 56.8115 0 0
      vertex 56.8115 0 6
      vertex 0 0 6
    endloop
  endfacet
  facet normal 0.447191 -0.894438 0
    outer loop
      vertex 58.6004 0.894394 0
      vertex 56.8115 0 6
      vertex 56.8115 0 0
    endloop
  endfacet
  facet normal 0.447191 -0.894438 0
    outer loop
      vertex 58.6004 0.894394 0
      vertex 58.6004 0.894394 6
      vertex 56.8115 0 6
    endloop
  endfacet
  facet normal 0.290248 0.956951 -0
    outer loop
      vertex 4.61729 2.0761 0
      vertex 4.61729 2.0761 6
      vertex 4.80489 2.0192 0
    endloop
  endfacet
  facet normal 0.290248 0.956951 0
    outer loop
      vertex 4.80489 2.0192 6
      vertex 4.80489 2.0192 0
      vertex 4.61729 2.0761 6
    endloop
  endfacet
  facet normal 0.471311 0.881967 -0
    outer loop
      vertex 4.4444 2.16849 0
      vertex 4.4444 2.16849 6
      vertex 4.61729 2.0761 0
    endloop
  endfacet
  facet normal 0.471311 0.881967 0
    outer loop
      vertex 4.61729 2.0761 6
      vertex 4.61729 2.0761 0
      vertex 4.4444 2.16849 6
    endloop
  endfacet
  facet normal 0.634573 0.772863 -0
    outer loop
      vertex 4.29289 2.29289 0
      vertex 4.29289 2.29289 6
      vertex 4.4444 2.16849 0
    endloop
  endfacet
  facet normal 0.634573 0.772863 0
    outer loop
      vertex 4.4444 2.16849 6
      vertex 4.4444 2.16849 0
      vertex 4.29289 2.29289 6
    endloop
  endfacet
  facet normal 0.772863 0.634573 -0
    outer loop
      vertex 4.16849 2.4444 0
      vertex 4.16849 2.4444 6
      vertex 4.29289 2.29289 0
    endloop
  endfacet
  facet normal 0.772863 0.634573 0
    outer loop
      vertex 4.29289 2.29289 6
      vertex 4.29289 2.29289 0
      vertex 4.16849 2.4444 6
    endloop
  endfacet
  facet normal 0.881967 0.471311 -0
    outer loop
      vertex 4.0761 2.61729 0
      vertex 4.0761 2.61729 6
      vertex 4.16849 2.4444 0
    endloop
  endfacet
  facet normal 0.881967 0.471311 0
    outer loop
      vertex 4.16849 2.4444 6
      vertex 4.16849 2.4444 0
      vertex 4.0761 2.61729 6
    endloop
  endfacet
  facet normal 0.956951 0.290248 -0
    outer loop
      vertex 4.0192 2.80489 0
      vertex 4.0192 2.80489 6
      vertex 4.0761 2.61729 0
    endloop
  endfacet
  facet normal 0.956951 0.290248 0
    outer loop
      vertex 4.0761 2.61729 6
      vertex 4.0761 2.61729 0
      vertex 4.0192 2.80489 6
    endloop
  endfacet
  facet normal 0.995193 0.097933 -0
    outer loop
      vertex 4 3 0
      vertex 4 3 6
      vertex 4.0192 2.80489 0
    endloop
  endfacet
  facet normal 0.995193 0.097933 0
    outer loop
      vertex 4.0192 2.80489 6
      vertex 4.0192 2.80489 0
      vertex 4 3 6
    endloop
  endfacet
  facet normal 0.995193 -0.097938 0
    outer loop
      vertex 4.0192 3.1951 0
      vertex 4.0192 3.1951 6
      vertex 4 3 0
    endloop
  endfacet
  facet normal 0.995193 -0.097938 0
    outer loop
      vertex 4 3 6
      vertex 4 3 0
      vertex 4.0192 3.1951 6
    endloop
  endfacet
  facet normal 0.956947 -0.290262 0
    outer loop
      vertex 4.0761 3.38269 0
      vertex 4.0761 3.38269 6
      vertex 4.0192 3.1951 0
    endloop
  endfacet
  facet normal 0.956947 -0.290262 0
    outer loop
      vertex 4.0192 3.1951 6
      vertex 4.0192 3.1951 0
      vertex 4.0761 3.38269 6
    endloop
  endfacet
  facet normal 0.881978 -0.47129 0
    outer loop
      vertex 4.16849 3.55559 0
      vertex 4.16849 3.55559 6
      vertex 4.0761 3.38269 0
    endloop
  endfacet
  facet normal 0.881978 -0.47129 0
    outer loop
      vertex 4.0761 3.38269 6
      vertex 4.0761 3.38269 0
      vertex 4.16849 3.55559 6
    endloop
  endfacet
  facet normal 0.772842 -0.634598 0
    outer loop
      vertex 4.29289 3.70709 0
      vertex 4.29289 3.70709 6
      vertex 4.16849 3.55559 0
    endloop
  endfacet
  facet normal 0.772842 -0.634598 0
    outer loop
      vertex 4.16849 3.55559 6
      vertex 4.16849 3.55559 0
      vertex 4.29289 3.70709 6
    endloop
  endfacet
  facet normal 0.634603 -0.772838 0
    outer loop
      vertex 4.4444 3.8315 0
      vertex 4.4444 3.8315 6
      vertex 4.29289 3.70709 0
    endloop
  endfacet
  facet normal 0.634603 -0.772838 0
    outer loop
      vertex 4.29289 3.70709 6
      vertex 4.29289 3.70709 0
      vertex 4.4444 3.8315 6
    endloop
  endfacet
  facet normal 0.471311 -0.881967 0
    outer loop
      vertex 4.61729 3.92389 0
      vertex 4.61729 3.92389 6
      vertex 4.4444 3.8315 0
    endloop
  endfacet
  facet normal 0.471311 -0.881967 0
    outer loop
      vertex 4.4444 3.8315 6
      vertex 4.4444 3.8315 0
      vertex 4.61729 3.92389 6
    endloop
  endfacet
  facet normal 0.290248 -0.956951 0
    outer loop
      vertex 4.80489 3.98079 0
      vertex 4.80489 3.98079 6
      vertex 4.61729 3.92389 0
    endloop
  endfacet
  facet normal 0.290248 -0.956951 0
    outer loop
      vertex 4.61729 3.92389 6
      vertex 4.61729 3.92389 0
      vertex 4.80489 3.98079 6
    endloop
  endfacet
  facet normal 0.0979835 -0.995188 0
    outer loop
      vertex 5 4 0
      vertex 5 4 6
      vertex 4.80489 3.98079 0
    endloop
  endfacet
  facet normal 0.0979835 -0.995188 0
    outer loop
      vertex 4.80489 3.98079 6
      vertex 4.80489 3.98079 0
      vertex 5 4 6
    endloop
  endfacet
  facet normal -0.0979885 -0.995188 0
    outer loop
      vertex 5.1951 3.98079 0
      vertex 5.1951 3.98079 6
      vertex 5 4 0
    endloop
  endfacet
  facet normal -0.0979885 -0.995188 -0
    outer loop
      vertex 5 4 6
      vertex 5 4 0
      vertex 5.1951 3.98079 6
    endloop
  endfacet
  facet normal -0.290262 -0.956947 0
    outer loop
      vertex 5.38269 3.92389 0
      vertex 5.38269 3.92389 6
      vertex 5.1951 3.98079 0
    endloop
  endfacet
  facet normal -0.290262 -0.956947 -0
    outer loop
      vertex 5.1951 3.98079 6
      vertex 5.1951 3.98079 0
      vertex 5.38269 3.92389 6
    endloop
  endfacet
  facet normal -0.47129 -0.881978 0
    outer loop
      vertex 5.55559 3.8315 0
      vertex 5.55559 3.8315 6
      vertex 5.38269 3.92389 0
    endloop
  endfacet
  facet normal -0.47129 -0.881978 -0
    outer loop
      vertex 5.38269 3.92389 6
      vertex 5.38269 3.92389 0
      vertex 5.55559 3.8315 6
    endloop
  endfacet
  facet normal -0.634628 -0.772817 0
    outer loop
      vertex 5.70709 3.70709 0
      vertex 5.70709 3.70709 6
      vertex 5.55559 3.8315 0
    endloop
  endfacet
  facet normal -0.634628 -0.772817 -0
    outer loop
      vertex 5.55559 3.8315 6
      vertex 5.55559 3.8315 0
      vertex 5.70709 3.70709 6
    endloop
  endfacet
  facet normal -0.772817 -0.634628 0
    outer loop
      vertex 5.8315 3.55559 0
      vertex 5.8315 3.55559 6
      vertex 5.70709 3.70709 0
    endloop
  endfacet
  facet normal -0.772817 -0.634628 -0
    outer loop
      vertex 5.70709 3.70709 6
      vertex 5.70709 3.70709 0
      vertex 5.8315 3.55559 6
    endloop
  endfacet
  facet normal -0.881978 -0.47129 0
    outer loop
      vertex 5.92389 3.38269 0
      vertex 5.92389 3.38269 6
      vertex 5.8315 3.55559 0
    endloop
  endfacet
  facet normal -0.881978 -0.47129 -0
    outer loop
      vertex 5.8315 3.55559 6
      vertex 5.8315 3.55559 0
      vertex 5.92389 3.38269 6
    endloop
  endfacet
  facet normal -0.956947 -0.290262 0
    outer loop
      vertex 5.98079 3.1951 0
      vertex 5.98079 3.1951 6
      vertex 5.92389 3.38269 0
    endloop
  endfacet
  facet normal -0.956947 -0.290262 -0
    outer loop
      vertex 5.92389 3.38269 6
      vertex 5.92389 3.38269 0
      vertex 5.98079 3.1951 6
    endloop
  endfacet
  facet normal -0.995188 -0.0979885 0
    outer loop
      vertex 6 3 0
      vertex 6 3 6
      vertex 5.98079 3.1951 0
    endloop
  endfacet
  facet normal -0.995188 -0.0979885 -0
    outer loop
      vertex 5.98079 3.1951 6
      vertex 5.98079 3.1951 0
      vertex 6 3 6
    endloop
  endfacet
  facet normal -0.995188 0.0979835 0
    outer loop
      vertex 5.98079 2.80489 0
      vertex 5.98079 2.80489 6
      vertex 6 3 0
    endloop
  endfacet
  facet normal -0.995188 0.0979835 0
    outer loop
      vertex 6 3 6
      vertex 6 3 0
      vertex 5.98079 2.80489 6
    endloop
  endfacet
  facet normal -0.956951 0.290248 0
    outer loop
      vertex 5.92389 2.61729 0
      vertex 5.92389 2.61729 6
      vertex 5.98079 2.80489 0
    endloop
  endfacet
  facet normal -0.956951 0.290248 0
    outer loop
      vertex 5.98079 2.80489 6
      vertex 5.98079 2.80489 0
      vertex 5.92389 2.61729 6
    endloop
  endfacet
  facet normal -0.881967 0.471311 0
    outer loop
      vertex 5.8315 2.4444 0
      vertex 5.8315 2.4444 6
      vertex 5.92389 2.61729 0
    endloop
  endfacet
  facet normal -0.881967 0.471311 0
    outer loop
      vertex 5.92389 2.61729 6
      vertex 5.92389 2.61729 0
      vertex 5.8315 2.4444 6
    endloop
  endfacet
  facet normal -0.772838 0.634603 0
    outer loop
      vertex 5.70709 2.29289 0
      vertex 5.70709 2.29289 6
      vertex 5.8315 2.4444 0
    endloop
  endfacet
  facet normal -0.772838 0.634603 0
    outer loop
      vertex 5.8315 2.4444 6
      vertex 5.8315 2.4444 0
      vertex 5.70709 2.29289 6
    endloop
  endfacet
  facet normal -0.634598 0.772842 0
    outer loop
      vertex 5.55559 2.16849 0
      vertex 5.55559 2.16849 6
      vertex 5.70709 2.29289 0
    endloop
  endfacet
  facet normal -0.634598 0.772842 0
    outer loop
      vertex 5.70709 2.29289 6
      vertex 5.70709 2.29289 0
      vertex 5.55559 2.16849 6
    endloop
  endfacet
  facet normal -0.47129 0.881978 0
    outer loop
      vertex 5.38269 2.0761 0
      vertex 5.38269 2.0761 6
      vertex 5.55559 2.16849 0
    endloop
  endfacet
  facet normal -0.47129 0.881978 0
    outer loop
      vertex 5.55559 2.16849 6
      vertex 5.55559 2.16849 0
      vertex 5.38269 2.0761 6
    endloop
  endfacet
  facet normal -0.290262 0.956947 0
    outer loop
      vertex 5.1951 2.0192 0
      vertex 5.1951 2.0192 6
      vertex 5.38269 2.0761 0
    endloop
  endfacet
  facet normal -0.290262 0.956947 0
    outer loop
      vertex 5.38269 2.0761 6
      vertex 5.38269 2.0761 0
      vertex 5.1951 2.0192 6
    endloop
  endfacet
  facet normal -0.097938 0.995193 0
    outer loop
      vertex 5 2 0
      vertex 5 2 6
      vertex 5.1951 2.0192 0
    endloop
  endfacet
  facet normal -0.097938 0.995193 0
    outer loop
      vertex 5.1951 2.0192 6
      vertex 5.1951 2.0192 0
      vertex 5 2 6
    endloop
  endfacet
  facet normal 0.097933 0.995193 -0
    outer loop
      vertex 4.80489 2.0192 0
      vertex 4.80489 2.0192 6
      vertex 5 2 0
    endloop
  endfacet
  facet normal 0.097933 0.995193 0
    outer loop
      vertex 5 2 6
      vertex 5 2 0
      vertex 4.80489 2.0192 6
    endloop
  endfacet
endsolid OpenSCAD_Model
