solid OpenSCAD_Model
  facet normal 0 0 -1
    outer loop
      vertex 1576.39 0 0
      vertex 1400 0 0
      vertex 1576.39 50 0
    endloop
  endfacet
  facet normal 0 0 -1
    outer loop
      vertex 1700 0 0
      vertex 2500 40 0
      vertex 2500 0 0
    endloop
  endfacet
  facet normal 0 0 -1
    outer loop
      vertex 2500 40 0
      vertex 1700 50 0
      vertex 2500 260 0
    endloop
  endfacet
  facet normal -0 0 -1
    outer loop
      vertex 2500 40 0
      vertex 1700 0 0
      vertex 1700 50 0
    endloop
  endfacet
  facet normal -0 0 -1
    outer loop
      vertex 2500 260 0
      vertex 1700 50 0
      vertex 2500 300 0
    endloop
  endfacet
  facet normal 0 0 -1
    outer loop
      vertex 1400 300 0
      vertex 1700 50 0
      vertex 1576.39 50 0
    endloop
  endfacet
  facet normal 0 0 -1
    outer loop
      vertex 1700 50 0
      vertex 1400 300 0
      vertex 2500 300 0
    endloop
  endfacet
  facet normal 0 0 -1
    outer loop
      vertex 1400 300 0
      vertex 1576.39 50 0
      vertex 1400 0 0
    endloop
  endfacet
  facet normal 0 0 -1
    outer loop
      vertex 2500 40 0
      vertex 2800 260 0
      vertex 2800 40 0
    endloop
  endfacet
  facet normal -0 0 -1
    outer loop
      vertex 2800 260 0
      vertex 2500 40 0
      vertex 2500 260 0
    endloop
  endfacet
  facet normal 0 0 -1
    outer loop
      vertex 0 0 0
      vertex 1276.39 300 0
      vertex 1276.39 0 0
    endloop
  endfacet
  facet normal -0 0 -1
    outer loop
      vertex 1276.39 300 0
      vertex 0 0 0
      vertex 0 300 0
    endloop
  endfacet
  facet normal 0 0 1
    outer loop
      vertex 1700 50 300
      vertex 2500 260 300
      vertex 2500 300 300
    endloop
  endfacet
  facet normal 0 0 1
    outer loop
      vertex 2500 260 300
      vertex 1700 50 300
      vertex 2500 40 300
    endloop
  endfacet
  facet normal 0 0 1
    outer loop
      vertex 1700 0 300
      vertex 2500 40 300
      vertex 1700 50 300
    endloop
  endfacet
  facet normal -0 0 1
    outer loop
      vertex 1400 300 300
      vertex 1700 50 300
      vertex 2500 300 300
    endloop
  endfacet
  facet normal 0 0 1
    outer loop
      vertex 1700 50 300
      vertex 1400 300 300
      vertex 1576.39 50 300
    endloop
  endfacet
  facet normal 0 0 1
    outer loop
      vertex 1400 0 300
      vertex 1576.39 50 300
      vertex 1400 300 300
    endloop
  endfacet
  facet normal 0 0 1
    outer loop
      vertex 1576.39 50 300
      vertex 1400 0 300
      vertex 1576.39 0 300
    endloop
  endfacet
  facet normal -0 0 1
    outer loop
      vertex 2500 260 300
      vertex 2800 40 300
      vertex 2800 260 300
    endloop
  endfacet
  facet normal 0 0 1
    outer loop
      vertex 2800 40 300
      vertex 2500 260 300
      vertex 2500 40 300
    endloop
  endfacet
  facet normal 0 0 1
    outer loop
      vertex 2500 40 300
      vertex 1700 0 300
      vertex 2500 0 300
    endloop
  endfacet
  facet normal -0 0 1
    outer loop
      vertex 0 300 300
      vertex 1276.39 0 300
      vertex 1276.39 300 300
    endloop
  endfacet
  facet normal 0 0 1
    outer loop
      vertex 1276.39 0 300
      vertex 0 300 300
      vertex 0 0 300
    endloop
  endfacet
  facet normal 0 -1 0
    outer loop
      vertex 1576.39 50 0
      vertex 1700 50 300
      vertex 1576.39 50 300
    endloop
  endfacet
  facet normal 0 -1 -0
    outer loop
      vertex 1700 50 300
      vertex 1576.39 50 0
      vertex 1700 50 0
    endloop
  endfacet
  facet normal -1 0 0
    outer loop
      vertex 1700 0 0
      vertex 1700 50 300
      vertex 1700 50 0
    endloop
  endfacet
  facet normal -1 -0 0
    outer loop
      vertex 1700 50 300
      vertex 1700 0 0
      vertex 1700 0 300
    endloop
  endfacet
  facet normal 0 -1 0
    outer loop
      vertex 1700 0 0
      vertex 2500 0 300
      vertex 1700 0 300
    endloop
  endfacet
  facet normal 0 -1 -0
    outer loop
      vertex 2500 0 300
      vertex 1700 0 0
      vertex 2500 0 0
    endloop
  endfacet
  facet normal 0 -1 0
    outer loop
      vertex 0 0 300
      vertex 1276.39 0 250
      vertex 1276.39 0 300
    endloop
  endfacet
  facet normal 0 -1 0
    outer loop
      vertex 1276.39 0 250
      vertex 1276.39 0 50
      vertex 1400 0 250
    endloop
  endfacet
  facet normal 0 -1 0
    outer loop
      vertex 0 0 300
      vertex 1276.39 0 50
      vertex 1276.39 0 250
    endloop
  endfacet
  facet normal 0 -1 0
    outer loop
      vertex 0 0 0
      vertex 1276.39 0 50
      vertex 0 0 300
    endloop
  endfacet
  facet normal 0 -1 -0
    outer loop
      vertex 1276.39 0 50
      vertex 0 0 0
      vertex 1276.39 0 0
    endloop
  endfacet
  facet normal 0 -1 0
    outer loop
      vertex 1400 0 250
      vertex 1576.39 0 300
      vertex 1400 0 300
    endloop
  endfacet
  facet normal 0 -1 0
    outer loop
      vertex 1400 0 50
      vertex 1400 0 250
      vertex 1276.39 0 50
    endloop
  endfacet
  facet normal 0 -1 0
    outer loop
      vertex 1400 0 250
      vertex 1400 0 50
      vertex 1576.39 0 300
    endloop
  endfacet
  facet normal 0 -1 0
    outer loop
      vertex 1576.39 0 0
      vertex 1400 0 50
      vertex 1400 0 0
    endloop
  endfacet
  facet normal 0 -1 0
    outer loop
      vertex 1400 0 50
      vertex 1576.39 0 0
      vertex 1576.39 0 300
    endloop
  endfacet
  facet normal 1 -0 0
    outer loop
      vertex 2500 0 300
      vertex 2500 40 0
      vertex 2500 40 300
    endloop
  endfacet
  facet normal 1 0 0
    outer loop
      vertex 2500 40 0
      vertex 2500 0 300
      vertex 2500 0 0
    endloop
  endfacet
  facet normal 0 -1 0
    outer loop
      vertex 2650 40 160
      vertex 2800 40 300
      vertex 2500 40 300
    endloop
  endfacet
  facet normal 0 -1 -0
    outer loop
      vertex 2800 40 300
      vertex 2651.95 40 159.808
      vertex 2800 40 260
    endloop
  endfacet
  facet normal 0 -1 0
    outer loop
      vertex 2651.95 40 159.808
      vertex 2800 40 300
      vertex 2650 40 160
    endloop
  endfacet
  facet normal 0 -1 0
    outer loop
      vertex 2500 40 300
      vertex 2648.05 40 159.808
      vertex 2650 40 160
    endloop
  endfacet
  facet normal 0 -1 0
    outer loop
      vertex 2500 40 300
      vertex 2646.17 40 159.239
      vertex 2648.05 40 159.808
    endloop
  endfacet
  facet normal 0 -1 0
    outer loop
      vertex 2500 40 300
      vertex 2644.44 40 158.315
      vertex 2646.17 40 159.239
    endloop
  endfacet
  facet normal 0 -1 0
    outer loop
      vertex 2500 40 300
      vertex 2642.93 40 157.071
      vertex 2644.44 40 158.315
    endloop
  endfacet
  facet normal 0 -1 0
    outer loop
      vertex 2500 40 300
      vertex 2641.69 40 155.556
      vertex 2642.93 40 157.071
    endloop
  endfacet
  facet normal 0 -1 0
    outer loop
      vertex 2500 40 300
      vertex 2640.76 40 153.827
      vertex 2641.69 40 155.556
    endloop
  endfacet
  facet normal 0 -1 0
    outer loop
      vertex 2500 40 300
      vertex 2640.19 40 151.951
      vertex 2640.76 40 153.827
    endloop
  endfacet
  facet normal 0 -1 0
    outer loop
      vertex 2500 40 300
      vertex 2640 40 150
      vertex 2640.19 40 151.951
    endloop
  endfacet
  facet normal 0 -1 0
    outer loop
      vertex 2500 40 0
      vertex 2640 40 150
      vertex 2500 40 300
    endloop
  endfacet
  facet normal 0 -1 -0
    outer loop
      vertex 2640 40 150
      vertex 2500 40 0
      vertex 2640.19 40 148.049
    endloop
  endfacet
  facet normal 0 -1 -0
    outer loop
      vertex 2640.19 40 148.049
      vertex 2500 40 0
      vertex 2640.76 40 146.173
    endloop
  endfacet
  facet normal 0 -1 -0
    outer loop
      vertex 2640.76 40 146.173
      vertex 2500 40 0
      vertex 2641.69 40 144.444
    endloop
  endfacet
  facet normal 0 -1 0
    outer loop
      vertex 2500 40 0
      vertex 2650 40 140
      vertex 2648.05 40 140.192
    endloop
  endfacet
  facet normal 0 -1 0
    outer loop
      vertex 2500 40 0
      vertex 2648.05 40 140.192
      vertex 2646.17 40 140.761
    endloop
  endfacet
  facet normal 0 -1 0
    outer loop
      vertex 2500 40 0
      vertex 2646.17 40 140.761
      vertex 2644.44 40 141.685
    endloop
  endfacet
  facet normal 0 -1 -0
    outer loop
      vertex 2641.69 40 144.444
      vertex 2500 40 0
      vertex 2642.93 40 142.929
    endloop
  endfacet
  facet normal 0 -1 0
    outer loop
      vertex 2500 40 0
      vertex 2644.44 40 141.685
      vertex 2642.93 40 142.929
    endloop
  endfacet
  facet normal 0 -1 -0
    outer loop
      vertex 2650 40 140
      vertex 2500 40 0
      vertex 2800 40 0
    endloop
  endfacet
  facet normal 0 -1 0
    outer loop
      vertex 2650 40 140
      vertex 2800 40 0
      vertex 2800 40 40
    endloop
  endfacet
  facet normal 0 -1 0
    outer loop
      vertex 2653.83 40 159.239
      vertex 2800 40 260
      vertex 2651.95 40 159.808
    endloop
  endfacet
  facet normal 0 -1 0
    outer loop
      vertex 2655.56 40 158.315
      vertex 2800 40 260
      vertex 2653.83 40 159.239
    endloop
  endfacet
  facet normal 0 -1 0
    outer loop
      vertex 2657.07 40 157.071
      vertex 2800 40 260
      vertex 2655.56 40 158.315
    endloop
  endfacet
  facet normal 0 -1 0
    outer loop
      vertex 2658.31 40 155.556
      vertex 2800 40 260
      vertex 2657.07 40 157.071
    endloop
  endfacet
  facet normal 0 -1 0
    outer loop
      vertex 2659.24 40 153.827
      vertex 2800 40 260
      vertex 2658.31 40 155.556
    endloop
  endfacet
  facet normal 0 -1 0
    outer loop
      vertex 2659.81 40 151.951
      vertex 2800 40 260
      vertex 2659.24 40 153.827
    endloop
  endfacet
  facet normal 0 -1 0
    outer loop
      vertex 2660 40 150
      vertex 2800 40 260
      vertex 2659.81 40 151.951
    endloop
  endfacet
  facet normal 0 -1 -0
    outer loop
      vertex 2800 40 260
      vertex 2660 40 150
      vertex 2800 40 40
    endloop
  endfacet
  facet normal 0 -1 0
    outer loop
      vertex 2800 40 40
      vertex 2660 40 150
      vertex 2659.81 40 148.049
    endloop
  endfacet
  facet normal 0 -1 0
    outer loop
      vertex 2800 40 40
      vertex 2659.81 40 148.049
      vertex 2659.24 40 146.173
    endloop
  endfacet
  facet normal 0 -1 0
    outer loop
      vertex 2800 40 40
      vertex 2659.24 40 146.173
      vertex 2658.31 40 144.444
    endloop
  endfacet
  facet normal 0 -1 0
    outer loop
      vertex 2800 40 40
      vertex 2658.31 40 144.444
      vertex 2657.07 40 142.929
    endloop
  endfacet
  facet normal 0 -1 0
    outer loop
      vertex 2800 40 40
      vertex 2657.07 40 142.929
      vertex 2655.56 40 141.685
    endloop
  endfacet
  facet normal 0 -1 0
    outer loop
      vertex 2800 40 40
      vertex 2655.56 40 141.685
      vertex 2653.83 40 140.761
    endloop
  endfacet
  facet normal 0 -1 0
    outer loop
      vertex 2800 40 40
      vertex 2653.83 40 140.761
      vertex 2651.95 40 140.192
    endloop
  endfacet
  facet normal 0 -1 0
    outer loop
      vertex 2800 40 40
      vertex 2651.95 40 140.192
      vertex 2650 40 140
    endloop
  endfacet
  facet normal 0 -1 0
    outer loop
      vertex 2800 40 260
      vertex 2800 40 40
      vertex 3100 40 260
    endloop
  endfacet
  facet normal 0 -1 -0
    outer loop
      vertex 3100 40 260
      vertex 2800 40 40
      vertex 3100 40 40
    endloop
  endfacet
  facet normal 1 -0 0
    outer loop
      vertex 3100 40 260
      vertex 3100 260 40
      vertex 3100 260 260
    endloop
  endfacet
  facet normal 1 0 0
    outer loop
      vertex 3100 260 40
      vertex 3100 40 260
      vertex 3100 40 40
    endloop
  endfacet
  facet normal 0 1 0
    outer loop
      vertex 2800 260 40
      vertex 2800 260 260
      vertex 3100 260 260
    endloop
  endfacet
  facet normal 0 1 0
    outer loop
      vertex 2800 260 260
      vertex 2651.95 260 159.808
      vertex 2650 260 160
    endloop
  endfacet
  facet normal 0 1 0
    outer loop
      vertex 2800 260 260
      vertex 2653.83 260 159.239
      vertex 2651.95 260 159.808
    endloop
  endfacet
  facet normal 0 1 0
    outer loop
      vertex 2800 260 260
      vertex 2655.56 260 158.315
      vertex 2653.83 260 159.239
    endloop
  endfacet
  facet normal 0 1 0
    outer loop
      vertex 2800 260 260
      vertex 2657.07 260 157.071
      vertex 2655.56 260 158.315
    endloop
  endfacet
  facet normal 0 1 0
    outer loop
      vertex 2800 260 260
      vertex 2658.31 260 155.556
      vertex 2657.07 260 157.071
    endloop
  endfacet
  facet normal 0 1 0
    outer loop
      vertex 2800 260 260
      vertex 2659.24 260 153.827
      vertex 2658.31 260 155.556
    endloop
  endfacet
  facet normal -0 1 0
    outer loop
      vertex 2660 260 150
      vertex 2800 260 260
      vertex 2800 260 40
    endloop
  endfacet
  facet normal 0 1 0
    outer loop
      vertex 2800 260 260
      vertex 2659.81 260 151.951
      vertex 2659.24 260 153.827
    endloop
  endfacet
  facet normal 0 1 0
    outer loop
      vertex 2800 260 260
      vertex 2660 260 150
      vertex 2659.81 260 151.951
    endloop
  endfacet
  facet normal 0 1 0
    outer loop
      vertex 2660 260 150
      vertex 2800 260 40
      vertex 2659.81 260 148.049
    endloop
  endfacet
  facet normal 0 1 0
    outer loop
      vertex 2659.81 260 148.049
      vertex 2800 260 40
      vertex 2659.24 260 146.173
    endloop
  endfacet
  facet normal 0 1 0
    outer loop
      vertex 2659.24 260 146.173
      vertex 2800 260 40
      vertex 2658.31 260 144.444
    endloop
  endfacet
  facet normal 0 1 0
    outer loop
      vertex 2658.31 260 144.444
      vertex 2800 260 40
      vertex 2657.07 260 142.929
    endloop
  endfacet
  facet normal 0 1 0
    outer loop
      vertex 2657.07 260 142.929
      vertex 2800 260 40
      vertex 2655.56 260 141.685
    endloop
  endfacet
  facet normal 0 1 0
    outer loop
      vertex 2655.56 260 141.685
      vertex 2800 260 40
      vertex 2653.83 260 140.761
    endloop
  endfacet
  facet normal 0 1 0
    outer loop
      vertex 2653.83 260 140.761
      vertex 2800 260 40
      vertex 2651.95 260 140.192
    endloop
  endfacet
  facet normal 0 1 0
    outer loop
      vertex 2800 260 40
      vertex 3100 260 260
      vertex 3100 260 40
    endloop
  endfacet
  facet normal 0 1 0
    outer loop
      vertex 2650 260 160
      vertex 2800 260 300
      vertex 2800 260 260
    endloop
  endfacet
  facet normal 0 1 0
    outer loop
      vertex 2800 260 300
      vertex 2650 260 160
      vertex 2500 260 300
    endloop
  endfacet
  facet normal 0 1 -0
    outer loop
      vertex 2648.05 260 159.808
      vertex 2500 260 300
      vertex 2650 260 160
    endloop
  endfacet
  facet normal 0 1 -0
    outer loop
      vertex 2646.17 260 159.239
      vertex 2500 260 300
      vertex 2648.05 260 159.808
    endloop
  endfacet
  facet normal 0 1 -0
    outer loop
      vertex 2644.44 260 158.315
      vertex 2500 260 300
      vertex 2646.17 260 159.239
    endloop
  endfacet
  facet normal 0 1 -0
    outer loop
      vertex 2642.93 260 157.071
      vertex 2500 260 300
      vertex 2644.44 260 158.315
    endloop
  endfacet
  facet normal 0 1 -0
    outer loop
      vertex 2641.69 260 155.556
      vertex 2500 260 300
      vertex 2642.93 260 157.071
    endloop
  endfacet
  facet normal 0 1 -0
    outer loop
      vertex 2640.76 260 153.827
      vertex 2500 260 300
      vertex 2641.69 260 155.556
    endloop
  endfacet
  facet normal 0 1 -0
    outer loop
      vertex 2640.19 260 151.951
      vertex 2500 260 300
      vertex 2640.76 260 153.827
    endloop
  endfacet
  facet normal 0 1 -0
    outer loop
      vertex 2640 260 150
      vertex 2500 260 300
      vertex 2640.19 260 151.951
    endloop
  endfacet
  facet normal 0 1 0
    outer loop
      vertex 2500 260 0
      vertex 2640 260 150
      vertex 2640.19 260 148.049
    endloop
  endfacet
  facet normal 0 1 0
    outer loop
      vertex 2500 260 0
      vertex 2640.19 260 148.049
      vertex 2640.76 260 146.173
    endloop
  endfacet
  facet normal 0 1 0
    outer loop
      vertex 2500 260 0
      vertex 2640.76 260 146.173
      vertex 2641.69 260 144.444
    endloop
  endfacet
  facet normal 0 1 0
    outer loop
      vertex 2500 260 0
      vertex 2641.69 260 144.444
      vertex 2642.93 260 142.929
    endloop
  endfacet
  facet normal 0 1 -0
    outer loop
      vertex 2800 260 0
      vertex 2651.95 260 140.192
      vertex 2800 260 40
    endloop
  endfacet
  facet normal 0 1 0
    outer loop
      vertex 2651.95 260 140.192
      vertex 2800 260 0
      vertex 2650 260 140
    endloop
  endfacet
  facet normal 0 1 0
    outer loop
      vertex 2500 260 0
      vertex 2650 260 140
      vertex 2800 260 0
    endloop
  endfacet
  facet normal 0 1 0
    outer loop
      vertex 2650 260 140
      vertex 2500 260 0
      vertex 2648.05 260 140.192
    endloop
  endfacet
  facet normal 0 1 0
    outer loop
      vertex 2648.05 260 140.192
      vertex 2500 260 0
      vertex 2646.17 260 140.761
    endloop
  endfacet
  facet normal 0 1 0
    outer loop
      vertex 2646.17 260 140.761
      vertex 2500 260 0
      vertex 2644.44 260 141.685
    endloop
  endfacet
  facet normal 0 1 0
    outer loop
      vertex 2640 260 150
      vertex 2500 260 0
      vertex 2500 260 300
    endloop
  endfacet
  facet normal 0 1 0
    outer loop
      vertex 2644.44 260 141.685
      vertex 2500 260 0
      vertex 2642.93 260 142.929
    endloop
  endfacet
  facet normal 1 -0 0
    outer loop
      vertex 2500 260 300
      vertex 2500 300 0
      vertex 2500 300 300
    endloop
  endfacet
  facet normal 1 0 0
    outer loop
      vertex 2500 300 0
      vertex 2500 260 300
      vertex 2500 260 0
    endloop
  endfacet
  facet normal 0 1 0
    outer loop
      vertex 2500 300 300
      vertex 1400 300 250
      vertex 1400 300 300
    endloop
  endfacet
  facet normal 0 1 0
    outer loop
      vertex 1400 300 250
      vertex 1400 300 50
      vertex 1276.39 300 250
    endloop
  endfacet
  facet normal 0 1 0
    outer loop
      vertex 2500 300 300
      vertex 1400 300 50
      vertex 1400 300 250
    endloop
  endfacet
  facet normal 0 1 -0
    outer loop
      vertex 2500 300 0
      vertex 1400 300 50
      vertex 2500 300 300
    endloop
  endfacet
  facet normal 0 1 0
    outer loop
      vertex 1400 300 50
      vertex 2500 300 0
      vertex 1400 300 0
    endloop
  endfacet
  facet normal 0 1 -0
    outer loop
      vertex 1276.39 300 250
      vertex 0 300 300
      vertex 1276.39 300 300
    endloop
  endfacet
  facet normal 0 1 0
    outer loop
      vertex 1276.39 300 50
      vertex 1276.39 300 250
      vertex 1400 300 50
    endloop
  endfacet
  facet normal 0 1 0
    outer loop
      vertex 1276.39 300 250
      vertex 1276.39 300 50
      vertex 0 300 300
    endloop
  endfacet
  facet normal 0 1 0
    outer loop
      vertex 0 300 0
      vertex 1276.39 300 50
      vertex 1276.39 300 0
    endloop
  endfacet
  facet normal 0 1 0
    outer loop
      vertex 1276.39 300 50
      vertex 0 300 0
      vertex 0 300 300
    endloop
  endfacet
  facet normal -1 0 0
    outer loop
      vertex 0 0 0
      vertex 0 300 300
      vertex 0 300 0
    endloop
  endfacet
  facet normal -1 -0 0
    outer loop
      vertex 0 300 300
      vertex 0 0 0
      vertex 0 0 300
    endloop
  endfacet
  facet normal 1 -0 0
    outer loop
      vertex 1576.39 0 300
      vertex 1576.39 50 0
      vertex 1576.39 50 300
    endloop
  endfacet
  facet normal 1 0 0
    outer loop
      vertex 1576.39 50 0
      vertex 1576.39 0 300
      vertex 1576.39 0 0
    endloop
  endfacet
  facet normal 0.289682 0.957123 -0
    outer loop
      vertex 2948.05 140.192 40
      vertex 2946.17 140.761 260
      vertex 2948.05 140.192 260
    endloop
  endfacet
  facet normal 0.289682 0.957123 0
    outer loop
      vertex 2946.17 140.761 260
      vertex 2948.05 140.192 40
      vertex 2946.17 140.761 40
    endloop
  endfacet
  facet normal 0.471117 0.882071 -0
    outer loop
      vertex 2946.17 140.761 40
      vertex 2944.44 141.685 260
      vertex 2946.17 140.761 260
    endloop
  endfacet
  facet normal 0.471117 0.882071 0
    outer loop
      vertex 2944.44 141.685 260
      vertex 2946.17 140.761 40
      vertex 2944.44 141.685 40
    endloop
  endfacet
  facet normal 0.635851 0.771812 -0
    outer loop
      vertex 2944.44 141.685 40
      vertex 2942.93 142.929 260
      vertex 2944.44 141.685 260
    endloop
  endfacet
  facet normal 0.635851 0.771812 0
    outer loop
      vertex 2942.93 142.929 260
      vertex 2944.44 141.685 40
      vertex 2942.93 142.929 40
    endloop
  endfacet
  facet normal 0.773843 0.633377 0
    outer loop
      vertex 2942.93 142.929 260
      vertex 2941.69 144.444 40
      vertex 2941.69 144.444 260
    endloop
  endfacet
  facet normal 0.773843 0.633377 0
    outer loop
      vertex 2941.69 144.444 40
      vertex 2942.93 142.929 260
      vertex 2942.93 142.929 40
    endloop
  endfacet
  facet normal 0.880684 0.473705 0
    outer loop
      vertex 2941.69 144.444 260
      vertex 2940.76 146.173 40
      vertex 2940.76 146.173 260
    endloop
  endfacet
  facet normal 0.880684 0.473705 0
    outer loop
      vertex 2940.76 146.173 40
      vertex 2941.69 144.444 260
      vertex 2941.69 144.444 40
    endloop
  endfacet
  facet normal 0.95681 0.290715 0
    outer loop
      vertex 2940.76 146.173 260
      vertex 2940.19 148.049 40
      vertex 2940.19 148.049 260
    endloop
  endfacet
  facet normal 0.95681 0.290715 0
    outer loop
      vertex 2940.19 148.049 40
      vertex 2940.76 146.173 260
      vertex 2940.76 146.173 40
    endloop
  endfacet
  facet normal 0.995291 0.0969274 0
    outer loop
      vertex 2940.19 148.049 260
      vertex 2940 150 40
      vertex 2940 150 260
    endloop
  endfacet
  facet normal 0.995291 0.0969274 0
    outer loop
      vertex 2940 150 40
      vertex 2940.19 148.049 260
      vertex 2940.19 148.049 40
    endloop
  endfacet
  facet normal 0.995291 -0.0969274 0
    outer loop
      vertex 2940 150 260
      vertex 2940.19 151.951 40
      vertex 2940.19 151.951 260
    endloop
  endfacet
  facet normal 0.995291 -0.0969274 0
    outer loop
      vertex 2940.19 151.951 40
      vertex 2940 150 260
      vertex 2940 150 40
    endloop
  endfacet
  facet normal 0.95681 -0.290715 0
    outer loop
      vertex 2940.19 151.951 260
      vertex 2940.76 153.827 40
      vertex 2940.76 153.827 260
    endloop
  endfacet
  facet normal 0.95681 -0.290715 0
    outer loop
      vertex 2940.76 153.827 40
      vertex 2940.19 151.951 260
      vertex 2940.19 151.951 40
    endloop
  endfacet
  facet normal 0.880684 -0.473705 0
    outer loop
      vertex 2940.76 153.827 260
      vertex 2941.69 155.556 40
      vertex 2941.69 155.556 260
    endloop
  endfacet
  facet normal 0.880684 -0.473705 0
    outer loop
      vertex 2941.69 155.556 40
      vertex 2940.76 153.827 260
      vertex 2940.76 153.827 40
    endloop
  endfacet
  facet normal 0.773843 -0.633377 0
    outer loop
      vertex 2941.69 155.556 260
      vertex 2942.93 157.071 40
      vertex 2942.93 157.071 260
    endloop
  endfacet
  facet normal 0.773843 -0.633377 0
    outer loop
      vertex 2942.93 157.071 40
      vertex 2941.69 155.556 260
      vertex 2941.69 155.556 40
    endloop
  endfacet
  facet normal 0.635851 -0.771812 0
    outer loop
      vertex 2942.93 157.071 40
      vertex 2944.44 158.315 260
      vertex 2942.93 157.071 260
    endloop
  endfacet
  facet normal 0.635851 -0.771812 0
    outer loop
      vertex 2944.44 158.315 260
      vertex 2942.93 157.071 40
      vertex 2944.44 158.315 40
    endloop
  endfacet
  facet normal 0.471117 -0.882071 0
    outer loop
      vertex 2944.44 158.315 40
      vertex 2946.17 159.239 260
      vertex 2944.44 158.315 260
    endloop
  endfacet
  facet normal 0.471117 -0.882071 0
    outer loop
      vertex 2946.17 159.239 260
      vertex 2944.44 158.315 40
      vertex 2946.17 159.239 40
    endloop
  endfacet
  facet normal 0.289682 -0.957123 0
    outer loop
      vertex 2946.17 159.239 40
      vertex 2948.05 159.808 260
      vertex 2946.17 159.239 260
    endloop
  endfacet
  facet normal 0.289682 -0.957123 0
    outer loop
      vertex 2948.05 159.808 260
      vertex 2946.17 159.239 40
      vertex 2948.05 159.808 40
    endloop
  endfacet
  facet normal 0.0979877 -0.995188 0
    outer loop
      vertex 2948.05 159.808 40
      vertex 2950 160 260
      vertex 2948.05 159.808 260
    endloop
  endfacet
  facet normal 0.0979877 -0.995188 0
    outer loop
      vertex 2950 160 260
      vertex 2948.05 159.808 40
      vertex 2950 160 40
    endloop
  endfacet
  facet normal -0.0979877 -0.995188 0
    outer loop
      vertex 2950 160 40
      vertex 2951.95 159.808 260
      vertex 2950 160 260
    endloop
  endfacet
  facet normal -0.0979877 -0.995188 -0
    outer loop
      vertex 2951.95 159.808 260
      vertex 2950 160 40
      vertex 2951.95 159.808 40
    endloop
  endfacet
  facet normal -0.289682 -0.957123 0
    outer loop
      vertex 2951.95 159.808 40
      vertex 2953.83 159.239 260
      vertex 2951.95 159.808 260
    endloop
  endfacet
  facet normal -0.289682 -0.957123 -0
    outer loop
      vertex 2953.83 159.239 260
      vertex 2951.95 159.808 40
      vertex 2953.83 159.239 40
    endloop
  endfacet
  facet normal -0.471117 -0.882071 0
    outer loop
      vertex 2953.83 159.239 40
      vertex 2955.56 158.315 260
      vertex 2953.83 159.239 260
    endloop
  endfacet
  facet normal -0.471117 -0.882071 -0
    outer loop
      vertex 2955.56 158.315 260
      vertex 2953.83 159.239 40
      vertex 2955.56 158.315 40
    endloop
  endfacet
  facet normal -0.635851 -0.771812 0
    outer loop
      vertex 2955.56 158.315 40
      vertex 2957.07 157.071 260
      vertex 2955.56 158.315 260
    endloop
  endfacet
  facet normal -0.635851 -0.771812 -0
    outer loop
      vertex 2957.07 157.071 260
      vertex 2955.56 158.315 40
      vertex 2957.07 157.071 40
    endloop
  endfacet
  facet normal -0.773843 -0.633377 0
    outer loop
      vertex 2958.31 155.556 40
      vertex 2957.07 157.071 260
      vertex 2957.07 157.071 40
    endloop
  endfacet
  facet normal -0.773843 -0.633377 0
    outer loop
      vertex 2957.07 157.071 260
      vertex 2958.31 155.556 40
      vertex 2958.31 155.556 260
    endloop
  endfacet
  facet normal -0.880684 -0.473705 0
    outer loop
      vertex 2959.24 153.827 40
      vertex 2958.31 155.556 260
      vertex 2958.31 155.556 40
    endloop
  endfacet
  facet normal -0.880684 -0.473705 0
    outer loop
      vertex 2958.31 155.556 260
      vertex 2959.24 153.827 40
      vertex 2959.24 153.827 260
    endloop
  endfacet
  facet normal -0.95681 -0.290715 0
    outer loop
      vertex 2959.81 151.951 40
      vertex 2959.24 153.827 260
      vertex 2959.24 153.827 40
    endloop
  endfacet
  facet normal -0.95681 -0.290715 0
    outer loop
      vertex 2959.24 153.827 260
      vertex 2959.81 151.951 40
      vertex 2959.81 151.951 260
    endloop
  endfacet
  facet normal -0.995291 -0.0969274 0
    outer loop
      vertex 2960 150 40
      vertex 2959.81 151.951 260
      vertex 2959.81 151.951 40
    endloop
  endfacet
  facet normal -0.995291 -0.0969274 0
    outer loop
      vertex 2959.81 151.951 260
      vertex 2960 150 40
      vertex 2960 150 260
    endloop
  endfacet
  facet normal -0.995291 0.0969274 0
    outer loop
      vertex 2959.81 148.049 40
      vertex 2960 150 260
      vertex 2960 150 40
    endloop
  endfacet
  facet normal -0.995291 0.0969274 0
    outer loop
      vertex 2960 150 260
      vertex 2959.81 148.049 40
      vertex 2959.81 148.049 260
    endloop
  endfacet
  facet normal -0.95681 0.290715 0
    outer loop
      vertex 2959.24 146.173 40
      vertex 2959.81 148.049 260
      vertex 2959.81 148.049 40
    endloop
  endfacet
  facet normal -0.95681 0.290715 0
    outer loop
      vertex 2959.81 148.049 260
      vertex 2959.24 146.173 40
      vertex 2959.24 146.173 260
    endloop
  endfacet
  facet normal -0.880684 0.473705 0
    outer loop
      vertex 2958.31 144.444 40
      vertex 2959.24 146.173 260
      vertex 2959.24 146.173 40
    endloop
  endfacet
  facet normal -0.880684 0.473705 0
    outer loop
      vertex 2959.24 146.173 260
      vertex 2958.31 144.444 40
      vertex 2958.31 144.444 260
    endloop
  endfacet
  facet normal -0.773843 0.633377 0
    outer loop
      vertex 2957.07 142.929 40
      vertex 2958.31 144.444 260
      vertex 2958.31 144.444 40
    endloop
  endfacet
  facet normal -0.773843 0.633377 0
    outer loop
      vertex 2958.31 144.444 260
      vertex 2957.07 142.929 40
      vertex 2957.07 142.929 260
    endloop
  endfacet
  facet normal -0.635851 0.771812 0
    outer loop
      vertex 2957.07 142.929 40
      vertex 2955.56 141.685 260
      vertex 2957.07 142.929 260
    endloop
  endfacet
  facet normal -0.635851 0.771812 0
    outer loop
      vertex 2955.56 141.685 260
      vertex 2957.07 142.929 40
      vertex 2955.56 141.685 40
    endloop
  endfacet
  facet normal -0.471117 0.882071 0
    outer loop
      vertex 2955.56 141.685 40
      vertex 2953.83 140.761 260
      vertex 2955.56 141.685 260
    endloop
  endfacet
  facet normal -0.471117 0.882071 0
    outer loop
      vertex 2953.83 140.761 260
      vertex 2955.56 141.685 40
      vertex 2953.83 140.761 40
    endloop
  endfacet
  facet normal -0.289682 0.957123 0
    outer loop
      vertex 2953.83 140.761 40
      vertex 2951.95 140.192 260
      vertex 2953.83 140.761 260
    endloop
  endfacet
  facet normal -0.289682 0.957123 0
    outer loop
      vertex 2951.95 140.192 260
      vertex 2953.83 140.761 40
      vertex 2951.95 140.192 40
    endloop
  endfacet
  facet normal -0.0979877 0.995188 0
    outer loop
      vertex 2951.95 140.192 40
      vertex 2950 140 260
      vertex 2951.95 140.192 260
    endloop
  endfacet
  facet normal -0.0979877 0.995188 0
    outer loop
      vertex 2950 140 260
      vertex 2951.95 140.192 40
      vertex 2950 140 40
    endloop
  endfacet
  facet normal 0.0979877 0.995188 -0
    outer loop
      vertex 2950 140 40
      vertex 2948.05 140.192 260
      vertex 2950 140 260
    endloop
  endfacet
  facet normal 0.0979877 0.995188 0
    outer loop
      vertex 2948.05 140.192 260
      vertex 2950 140 40
      vertex 2948.05 140.192 40
    endloop
  endfacet
  facet normal 0 0 -1
    outer loop
      vertex 1276.39 0 50
      vertex 1400 300 50
      vertex 1400 0 50
    endloop
  endfacet
  facet normal -0 0 -1
    outer loop
      vertex 1400 300 50
      vertex 1276.39 0 50
      vertex 1276.39 300 50
    endloop
  endfacet
  facet normal -1 0 0
    outer loop
      vertex 1400 0 0
      vertex 1400 300 50
      vertex 1400 300 0
    endloop
  endfacet
  facet normal -1 -0 0
    outer loop
      vertex 1400 300 50
      vertex 1400 0 0
      vertex 1400 0 50
    endloop
  endfacet
  facet normal 1 -0 0
    outer loop
      vertex 2800 40 40
      vertex 2800 260 0
      vertex 2800 260 40
    endloop
  endfacet
  facet normal 1 0 0
    outer loop
      vertex 2800 260 0
      vertex 2800 40 40
      vertex 2800 40 0
    endloop
  endfacet
  facet normal 0 0 -1
    outer loop
      vertex 3100 40 40
      vertex 2960 150 40
      vertex 3100 260 40
    endloop
  endfacet
  facet normal 0 0 -1
    outer loop
      vertex 3100 40 40
      vertex 2959.81 148.049 40
      vertex 2960 150 40
    endloop
  endfacet
  facet normal 0 0 -1
    outer loop
      vertex 3100 40 40
      vertex 2959.24 146.173 40
      vertex 2959.81 148.049 40
    endloop
  endfacet
  facet normal 0 0 -1
    outer loop
      vertex 3100 40 40
      vertex 2958.31 144.444 40
      vertex 2959.24 146.173 40
    endloop
  endfacet
  facet normal 0 0 -1
    outer loop
      vertex 3100 40 40
      vertex 2957.07 142.929 40
      vertex 2958.31 144.444 40
    endloop
  endfacet
  facet normal 0 0 -1
    outer loop
      vertex 3100 40 40
      vertex 2955.56 141.685 40
      vertex 2957.07 142.929 40
    endloop
  endfacet
  facet normal 0 0 -1
    outer loop
      vertex 3100 40 40
      vertex 2953.83 140.761 40
      vertex 2955.56 141.685 40
    endloop
  endfacet
  facet normal 0 0 -1
    outer loop
      vertex 3100 40 40
      vertex 2951.95 140.192 40
      vertex 2953.83 140.761 40
    endloop
  endfacet
  facet normal 0 0 -1
    outer loop
      vertex 3100 40 40
      vertex 2950 140 40
      vertex 2951.95 140.192 40
    endloop
  endfacet
  facet normal 0 0 -1
    outer loop
      vertex 2800 40 40
      vertex 2950 140 40
      vertex 3100 40 40
    endloop
  endfacet
  facet normal -0 0 -1
    outer loop
      vertex 2950 140 40
      vertex 2800 40 40
      vertex 2948.05 140.192 40
    endloop
  endfacet
  facet normal -0 0 -1
    outer loop
      vertex 2948.05 140.192 40
      vertex 2800 40 40
      vertex 2946.17 140.761 40
    endloop
  endfacet
  facet normal -0 0 -1
    outer loop
      vertex 2940.19 148.049 40
      vertex 2800 40 40
      vertex 2940 150 40
    endloop
  endfacet
  facet normal -0 0 -1
    outer loop
      vertex 2940.76 146.173 40
      vertex 2800 40 40
      vertex 2940.19 148.049 40
    endloop
  endfacet
  facet normal -0 0 -1
    outer loop
      vertex 2941.69 144.444 40
      vertex 2800 40 40
      vertex 2940.76 146.173 40
    endloop
  endfacet
  facet normal -0 0 -1
    outer loop
      vertex 2942.93 142.929 40
      vertex 2800 40 40
      vertex 2941.69 144.444 40
    endloop
  endfacet
  facet normal -0 0 -1
    outer loop
      vertex 2944.44 141.685 40
      vertex 2800 40 40
      vertex 2942.93 142.929 40
    endloop
  endfacet
  facet normal -0 0 -1
    outer loop
      vertex 2946.17 140.761 40
      vertex 2800 40 40
      vertex 2944.44 141.685 40
    endloop
  endfacet
  facet normal 0 0 -1
    outer loop
      vertex 2959.81 151.951 40
      vertex 3100 260 40
      vertex 2960 150 40
    endloop
  endfacet
  facet normal 0 0 -1
    outer loop
      vertex 2959.24 153.827 40
      vertex 3100 260 40
      vertex 2959.81 151.951 40
    endloop
  endfacet
  facet normal 0 0 -1
    outer loop
      vertex 2958.31 155.556 40
      vertex 3100 260 40
      vertex 2959.24 153.827 40
    endloop
  endfacet
  facet normal 0 0 -1
    outer loop
      vertex 2957.07 157.071 40
      vertex 3100 260 40
      vertex 2958.31 155.556 40
    endloop
  endfacet
  facet normal 0 0 -1
    outer loop
      vertex 2955.56 158.315 40
      vertex 3100 260 40
      vertex 2957.07 157.071 40
    endloop
  endfacet
  facet normal 0 0 -1
    outer loop
      vertex 2953.83 159.239 40
      vertex 3100 260 40
      vertex 2955.56 158.315 40
    endloop
  endfacet
  facet normal 0 0 -1
    outer loop
      vertex 2951.95 159.808 40
      vertex 3100 260 40
      vertex 2953.83 159.239 40
    endloop
  endfacet
  facet normal 0 0 -1
    outer loop
      vertex 2950 160 40
      vertex 3100 260 40
      vertex 2951.95 159.808 40
    endloop
  endfacet
  facet normal 0 0 -1
    outer loop
      vertex 2800 260 40
      vertex 2950 160 40
      vertex 2948.05 159.808 40
    endloop
  endfacet
  facet normal 0 0 -1
    outer loop
      vertex 2800 260 40
      vertex 2948.05 159.808 40
      vertex 2946.17 159.239 40
    endloop
  endfacet
  facet normal 0 0 -1
    outer loop
      vertex 2800 260 40
      vertex 2946.17 159.239 40
      vertex 2944.44 158.315 40
    endloop
  endfacet
  facet normal 0 0 -1
    outer loop
      vertex 2800 260 40
      vertex 2940 150 40
      vertex 2800 40 40
    endloop
  endfacet
  facet normal 0 0 -1
    outer loop
      vertex 2940 150 40
      vertex 2800 260 40
      vertex 2940.19 151.951 40
    endloop
  endfacet
  facet normal 0 0 -1
    outer loop
      vertex 2940.19 151.951 40
      vertex 2800 260 40
      vertex 2940.76 153.827 40
    endloop
  endfacet
  facet normal 0 0 -1
    outer loop
      vertex 2940.76 153.827 40
      vertex 2800 260 40
      vertex 2941.69 155.556 40
    endloop
  endfacet
  facet normal 0 0 -1
    outer loop
      vertex 2941.69 155.556 40
      vertex 2800 260 40
      vertex 2942.93 157.071 40
    endloop
  endfacet
  facet normal 0 0 -1
    outer loop
      vertex 2950 160 40
      vertex 2800 260 40
      vertex 3100 260 40
    endloop
  endfacet
  facet normal 0 0 -1
    outer loop
      vertex 2942.93 157.071 40
      vertex 2800 260 40
      vertex 2944.44 158.315 40
    endloop
  endfacet
  facet normal 0 0 1
    outer loop
      vertex 3100 260 260
      vertex 2960 150 260
      vertex 3100 40 260
    endloop
  endfacet
  facet normal 0 0 1
    outer loop
      vertex 3100 260 260
      vertex 2959.81 151.951 260
      vertex 2960 150 260
    endloop
  endfacet
  facet normal 0 0 1
    outer loop
      vertex 3100 260 260
      vertex 2959.24 153.827 260
      vertex 2959.81 151.951 260
    endloop
  endfacet
  facet normal 0 0 1
    outer loop
      vertex 3100 260 260
      vertex 2958.31 155.556 260
      vertex 2959.24 153.827 260
    endloop
  endfacet
  facet normal 0 0 1
    outer loop
      vertex 3100 260 260
      vertex 2957.07 157.071 260
      vertex 2958.31 155.556 260
    endloop
  endfacet
  facet normal 0 0 1
    outer loop
      vertex 3100 260 260
      vertex 2955.56 158.315 260
      vertex 2957.07 157.071 260
    endloop
  endfacet
  facet normal 0 0 1
    outer loop
      vertex 3100 260 260
      vertex 2953.83 159.239 260
      vertex 2955.56 158.315 260
    endloop
  endfacet
  facet normal 0 0 1
    outer loop
      vertex 3100 260 260
      vertex 2951.95 159.808 260
      vertex 2953.83 159.239 260
    endloop
  endfacet
  facet normal 0 0 1
    outer loop
      vertex 3100 260 260
      vertex 2950 160 260
      vertex 2951.95 159.808 260
    endloop
  endfacet
  facet normal -0 0 1
    outer loop
      vertex 2800 260 260
      vertex 2950 160 260
      vertex 3100 260 260
    endloop
  endfacet
  facet normal 0 0 1
    outer loop
      vertex 2950 160 260
      vertex 2800 260 260
      vertex 2948.05 159.808 260
    endloop
  endfacet
  facet normal 0 0 1
    outer loop
      vertex 2948.05 159.808 260
      vertex 2800 260 260
      vertex 2946.17 159.239 260
    endloop
  endfacet
  facet normal 0 0 1
    outer loop
      vertex 2940.19 151.951 260
      vertex 2800 260 260
      vertex 2940 150 260
    endloop
  endfacet
  facet normal 0 0 1
    outer loop
      vertex 2940.76 153.827 260
      vertex 2800 260 260
      vertex 2940.19 151.951 260
    endloop
  endfacet
  facet normal 0 0 1
    outer loop
      vertex 2941.69 155.556 260
      vertex 2800 260 260
      vertex 2940.76 153.827 260
    endloop
  endfacet
  facet normal 0 0 1
    outer loop
      vertex 2942.93 157.071 260
      vertex 2800 260 260
      vertex 2941.69 155.556 260
    endloop
  endfacet
  facet normal 0 0 1
    outer loop
      vertex 2944.44 158.315 260
      vertex 2800 260 260
      vertex 2942.93 157.071 260
    endloop
  endfacet
  facet normal 0 0 1
    outer loop
      vertex 2946.17 159.239 260
      vertex 2800 260 260
      vertex 2944.44 158.315 260
    endloop
  endfacet
  facet normal -0 0 1
    outer loop
      vertex 2959.81 148.049 260
      vertex 3100 40 260
      vertex 2960 150 260
    endloop
  endfacet
  facet normal -0 0 1
    outer loop
      vertex 2959.24 146.173 260
      vertex 3100 40 260
      vertex 2959.81 148.049 260
    endloop
  endfacet
  facet normal -0 0 1
    outer loop
      vertex 2958.31 144.444 260
      vertex 3100 40 260
      vertex 2959.24 146.173 260
    endloop
  endfacet
  facet normal -0 0 1
    outer loop
      vertex 2957.07 142.929 260
      vertex 3100 40 260
      vertex 2958.31 144.444 260
    endloop
  endfacet
  facet normal -0 0 1
    outer loop
      vertex 2955.56 141.685 260
      vertex 3100 40 260
      vertex 2957.07 142.929 260
    endloop
  endfacet
  facet normal -0 0 1
    outer loop
      vertex 2953.83 140.761 260
      vertex 3100 40 260
      vertex 2955.56 141.685 260
    endloop
  endfacet
  facet normal -0 0 1
    outer loop
      vertex 2951.95 140.192 260
      vertex 3100 40 260
      vertex 2953.83 140.761 260
    endloop
  endfacet
  facet normal -0 0 1
    outer loop
      vertex 2950 140 260
      vertex 3100 40 260
      vertex 2951.95 140.192 260
    endloop
  endfacet
  facet normal 0 0 1
    outer loop
      vertex 2800 40 260
      vertex 2950 140 260
      vertex 2948.05 140.192 260
    endloop
  endfacet
  facet normal 0 0 1
    outer loop
      vertex 2800 40 260
      vertex 2948.05 140.192 260
      vertex 2946.17 140.761 260
    endloop
  endfacet
  facet normal 0 0 1
    outer loop
      vertex 2800 40 260
      vertex 2946.17 140.761 260
      vertex 2944.44 141.685 260
    endloop
  endfacet
  facet normal 0 0 1
    outer loop
      vertex 2800 40 260
      vertex 2940 150 260
      vertex 2800 260 260
    endloop
  endfacet
  facet normal 0 0 1
    outer loop
      vertex 2940 150 260
      vertex 2800 40 260
      vertex 2940.19 148.049 260
    endloop
  endfacet
  facet normal 0 0 1
    outer loop
      vertex 2940.19 148.049 260
      vertex 2800 40 260
      vertex 2940.76 146.173 260
    endloop
  endfacet
  facet normal 0 0 1
    outer loop
      vertex 2940.76 146.173 260
      vertex 2800 40 260
      vertex 2941.69 144.444 260
    endloop
  endfacet
  facet normal 0 0 1
    outer loop
      vertex 2941.69 144.444 260
      vertex 2800 40 260
      vertex 2942.93 142.929 260
    endloop
  endfacet
  facet normal 0 0 1
    outer loop
      vertex 2950 140 260
      vertex 2800 40 260
      vertex 3100 40 260
    endloop
  endfacet
  facet normal 0 0 1
    outer loop
      vertex 2942.93 142.929 260
      vertex 2800 40 260
      vertex 2944.44 141.685 260
    endloop
  endfacet
  facet normal 1 -0 0
    outer loop
      vertex 2800 40 300
      vertex 2800 260 260
      vertex 2800 260 300
    endloop
  endfacet
  facet normal 1 0 0
    outer loop
      vertex 2800 260 260
      vertex 2800 40 300
      vertex 2800 40 260
    endloop
  endfacet
  facet normal -1 0 0
    outer loop
      vertex 1400 0 250
      vertex 1400 300 300
      vertex 1400 300 250
    endloop
  endfacet
  facet normal -1 -0 0
    outer loop
      vertex 1400 300 300
      vertex 1400 0 250
      vertex 1400 0 300
    endloop
  endfacet
  facet normal -0 0 1
    outer loop
      vertex 1276.39 300 250
      vertex 1400 0 250
      vertex 1400 300 250
    endloop
  endfacet
  facet normal 0 0 1
    outer loop
      vertex 1400 0 250
      vertex 1276.39 300 250
      vertex 1276.39 0 250
    endloop
  endfacet
  facet normal 1 -0 0
    outer loop
      vertex 1276.39 0 300
      vertex 1276.39 300 250
      vertex 1276.39 300 300
    endloop
  endfacet
  facet normal 1 0 0
    outer loop
      vertex 1276.39 300 250
      vertex 1276.39 0 300
      vertex 1276.39 0 250
    endloop
  endfacet
  facet normal 1 -0 0
    outer loop
      vertex 1276.39 0 50
      vertex 1276.39 300 0
      vertex 1276.39 300 50
    endloop
  endfacet
  facet normal 1 0 0
    outer loop
      vertex 1276.39 300 0
      vertex 1276.39 0 50
      vertex 1276.39 0 0
    endloop
  endfacet
  facet normal 0.289682 0 0.957123
    outer loop
      vertex 2646.17 260 140.761
      vertex 2648.05 40 140.192
      vertex 2648.05 260 140.192
    endloop
  endfacet
  facet normal 0.289682 0 0.957123
    outer loop
      vertex 2648.05 40 140.192
      vertex 2646.17 260 140.761
      vertex 2646.17 40 140.761
    endloop
  endfacet
  facet normal 0.471117 0 0.882071
    outer loop
      vertex 2644.44 260 141.685
      vertex 2646.17 40 140.761
      vertex 2646.17 260 140.761
    endloop
  endfacet
  facet normal 0.471117 0 0.882071
    outer loop
      vertex 2646.17 40 140.761
      vertex 2644.44 260 141.685
      vertex 2644.44 40 141.685
    endloop
  endfacet
  facet normal 0.635851 0 0.771812
    outer loop
      vertex 2642.93 260 142.929
      vertex 2644.44 40 141.685
      vertex 2644.44 260 141.685
    endloop
  endfacet
  facet normal 0.635851 0 0.771812
    outer loop
      vertex 2644.44 40 141.685
      vertex 2642.93 260 142.929
      vertex 2642.93 40 142.929
    endloop
  endfacet
  facet normal 0.773843 -0 0.633377
    outer loop
      vertex 2641.69 40 144.444
      vertex 2642.93 260 142.929
      vertex 2641.69 260 144.444
    endloop
  endfacet
  facet normal 0.773843 0 0.633377
    outer loop
      vertex 2642.93 260 142.929
      vertex 2641.69 40 144.444
      vertex 2642.93 40 142.929
    endloop
  endfacet
  facet normal 0.880684 -0 0.473705
    outer loop
      vertex 2640.76 40 146.173
      vertex 2641.69 260 144.444
      vertex 2640.76 260 146.173
    endloop
  endfacet
  facet normal 0.880684 0 0.473705
    outer loop
      vertex 2641.69 260 144.444
      vertex 2640.76 40 146.173
      vertex 2641.69 40 144.444
    endloop
  endfacet
  facet normal 0.95681 -0 0.290715
    outer loop
      vertex 2640.19 40 148.049
      vertex 2640.76 260 146.173
      vertex 2640.19 260 148.049
    endloop
  endfacet
  facet normal 0.95681 0 0.290715
    outer loop
      vertex 2640.76 260 146.173
      vertex 2640.19 40 148.049
      vertex 2640.76 40 146.173
    endloop
  endfacet
  facet normal 0.995291 -0 0.0969274
    outer loop
      vertex 2640 40 150
      vertex 2640.19 260 148.049
      vertex 2640 260 150
    endloop
  endfacet
  facet normal 0.995291 0 0.0969274
    outer loop
      vertex 2640.19 260 148.049
      vertex 2640 40 150
      vertex 2640.19 40 148.049
    endloop
  endfacet
  facet normal 0.995291 0 -0.0969274
    outer loop
      vertex 2640.19 40 151.951
      vertex 2640 260 150
      vertex 2640.19 260 151.951
    endloop
  endfacet
  facet normal 0.995291 0 -0.0969274
    outer loop
      vertex 2640 260 150
      vertex 2640.19 40 151.951
      vertex 2640 40 150
    endloop
  endfacet
  facet normal 0.95681 0 -0.290715
    outer loop
      vertex 2640.76 40 153.827
      vertex 2640.19 260 151.951
      vertex 2640.76 260 153.827
    endloop
  endfacet
  facet normal 0.95681 0 -0.290715
    outer loop
      vertex 2640.19 260 151.951
      vertex 2640.76 40 153.827
      vertex 2640.19 40 151.951
    endloop
  endfacet
  facet normal 0.880684 0 -0.473705
    outer loop
      vertex 2641.69 40 155.556
      vertex 2640.76 260 153.827
      vertex 2641.69 260 155.556
    endloop
  endfacet
  facet normal 0.880684 0 -0.473705
    outer loop
      vertex 2640.76 260 153.827
      vertex 2641.69 40 155.556
      vertex 2640.76 40 153.827
    endloop
  endfacet
  facet normal 0.773843 0 -0.633377
    outer loop
      vertex 2642.93 40 157.071
      vertex 2641.69 260 155.556
      vertex 2642.93 260 157.071
    endloop
  endfacet
  facet normal 0.773843 0 -0.633377
    outer loop
      vertex 2641.69 260 155.556
      vertex 2642.93 40 157.071
      vertex 2641.69 40 155.556
    endloop
  endfacet
  facet normal 0.635851 0 -0.771812
    outer loop
      vertex 2642.93 40 157.071
      vertex 2644.44 260 158.315
      vertex 2644.44 40 158.315
    endloop
  endfacet
  facet normal 0.635851 0 -0.771812
    outer loop
      vertex 2644.44 260 158.315
      vertex 2642.93 40 157.071
      vertex 2642.93 260 157.071
    endloop
  endfacet
  facet normal 0.471117 0 -0.882071
    outer loop
      vertex 2644.44 40 158.315
      vertex 2646.17 260 159.239
      vertex 2646.17 40 159.239
    endloop
  endfacet
  facet normal 0.471117 0 -0.882071
    outer loop
      vertex 2646.17 260 159.239
      vertex 2644.44 40 158.315
      vertex 2644.44 260 158.315
    endloop
  endfacet
  facet normal 0.289682 0 -0.957123
    outer loop
      vertex 2646.17 40 159.239
      vertex 2648.05 260 159.808
      vertex 2648.05 40 159.808
    endloop
  endfacet
  facet normal 0.289682 0 -0.957123
    outer loop
      vertex 2648.05 260 159.808
      vertex 2646.17 40 159.239
      vertex 2646.17 260 159.239
    endloop
  endfacet
  facet normal 0.0979877 0 -0.995188
    outer loop
      vertex 2648.05 40 159.808
      vertex 2650 260 160
      vertex 2650 40 160
    endloop
  endfacet
  facet normal 0.0979877 0 -0.995188
    outer loop
      vertex 2650 260 160
      vertex 2648.05 40 159.808
      vertex 2648.05 260 159.808
    endloop
  endfacet
  facet normal -0.0979877 0 -0.995188
    outer loop
      vertex 2650 40 160
      vertex 2651.95 260 159.808
      vertex 2651.95 40 159.808
    endloop
  endfacet
  facet normal -0.0979877 0 -0.995188
    outer loop
      vertex 2651.95 260 159.808
      vertex 2650 40 160
      vertex 2650 260 160
    endloop
  endfacet
  facet normal -0.289682 0 -0.957123
    outer loop
      vertex 2651.95 40 159.808
      vertex 2653.83 260 159.239
      vertex 2653.83 40 159.239
    endloop
  endfacet
  facet normal -0.289682 0 -0.957123
    outer loop
      vertex 2653.83 260 159.239
      vertex 2651.95 40 159.808
      vertex 2651.95 260 159.808
    endloop
  endfacet
  facet normal -0.471117 0 -0.882071
    outer loop
      vertex 2653.83 40 159.239
      vertex 2655.56 260 158.315
      vertex 2655.56 40 158.315
    endloop
  endfacet
  facet normal -0.471117 0 -0.882071
    outer loop
      vertex 2655.56 260 158.315
      vertex 2653.83 40 159.239
      vertex 2653.83 260 159.239
    endloop
  endfacet
  facet normal -0.635851 0 -0.771812
    outer loop
      vertex 2655.56 40 158.315
      vertex 2657.07 260 157.071
      vertex 2657.07 40 157.071
    endloop
  endfacet
  facet normal -0.635851 0 -0.771812
    outer loop
      vertex 2657.07 260 157.071
      vertex 2655.56 40 158.315
      vertex 2655.56 260 158.315
    endloop
  endfacet
  facet normal -0.773843 0 -0.633377
    outer loop
      vertex 2658.31 40 155.556
      vertex 2657.07 260 157.071
      vertex 2658.31 260 155.556
    endloop
  endfacet
  facet normal -0.773843 -0 -0.633377
    outer loop
      vertex 2657.07 260 157.071
      vertex 2658.31 40 155.556
      vertex 2657.07 40 157.071
    endloop
  endfacet
  facet normal -0.880684 0 -0.473705
    outer loop
      vertex 2659.24 40 153.827
      vertex 2658.31 260 155.556
      vertex 2659.24 260 153.827
    endloop
  endfacet
  facet normal -0.880684 -0 -0.473705
    outer loop
      vertex 2658.31 260 155.556
      vertex 2659.24 40 153.827
      vertex 2658.31 40 155.556
    endloop
  endfacet
  facet normal -0.95681 0 -0.290715
    outer loop
      vertex 2659.81 40 151.951
      vertex 2659.24 260 153.827
      vertex 2659.81 260 151.951
    endloop
  endfacet
  facet normal -0.95681 -0 -0.290715
    outer loop
      vertex 2659.24 260 153.827
      vertex 2659.81 40 151.951
      vertex 2659.24 40 153.827
    endloop
  endfacet
  facet normal -0.995291 0 -0.0969274
    outer loop
      vertex 2660 40 150
      vertex 2659.81 260 151.951
      vertex 2660 260 150
    endloop
  endfacet
  facet normal -0.995291 -0 -0.0969274
    outer loop
      vertex 2659.81 260 151.951
      vertex 2660 40 150
      vertex 2659.81 40 151.951
    endloop
  endfacet
  facet normal -0.995291 0 0.0969274
    outer loop
      vertex 2659.81 40 148.049
      vertex 2660 260 150
      vertex 2659.81 260 148.049
    endloop
  endfacet
  facet normal -0.995291 0 0.0969274
    outer loop
      vertex 2660 260 150
      vertex 2659.81 40 148.049
      vertex 2660 40 150
    endloop
  endfacet
  facet normal -0.95681 0 0.290715
    outer loop
      vertex 2659.24 40 146.173
      vertex 2659.81 260 148.049
      vertex 2659.24 260 146.173
    endloop
  endfacet
  facet normal -0.95681 0 0.290715
    outer loop
      vertex 2659.81 260 148.049
      vertex 2659.24 40 146.173
      vertex 2659.81 40 148.049
    endloop
  endfacet
  facet normal -0.880684 0 0.473705
    outer loop
      vertex 2658.31 40 144.444
      vertex 2659.24 260 146.173
      vertex 2658.31 260 144.444
    endloop
  endfacet
  facet normal -0.880684 0 0.473705
    outer loop
      vertex 2659.24 260 146.173
      vertex 2658.31 40 144.444
      vertex 2659.24 40 146.173
    endloop
  endfacet
  facet normal -0.773843 0 0.633377
    outer loop
      vertex 2657.07 40 142.929
      vertex 2658.31 260 144.444
      vertex 2657.07 260 142.929
    endloop
  endfacet
  facet normal -0.773843 0 0.633377
    outer loop
      vertex 2658.31 260 144.444
      vertex 2657.07 40 142.929
      vertex 2658.31 40 144.444
    endloop
  endfacet
  facet normal -0.635851 0 0.771812
    outer loop
      vertex 2655.56 260 141.685
      vertex 2657.07 40 142.929
      vertex 2657.07 260 142.929
    endloop
  endfacet
  facet normal -0.635851 0 0.771812
    outer loop
      vertex 2657.07 40 142.929
      vertex 2655.56 260 141.685
      vertex 2655.56 40 141.685
    endloop
  endfacet
  facet normal -0.471117 0 0.882071
    outer loop
      vertex 2653.83 260 140.761
      vertex 2655.56 40 141.685
      vertex 2655.56 260 141.685
    endloop
  endfacet
  facet normal -0.471117 0 0.882071
    outer loop
      vertex 2655.56 40 141.685
      vertex 2653.83 260 140.761
      vertex 2653.83 40 140.761
    endloop
  endfacet
  facet normal -0.289682 0 0.957123
    outer loop
      vertex 2651.95 260 140.192
      vertex 2653.83 40 140.761
      vertex 2653.83 260 140.761
    endloop
  endfacet
  facet normal -0.289682 0 0.957123
    outer loop
      vertex 2653.83 40 140.761
      vertex 2651.95 260 140.192
      vertex 2651.95 40 140.192
    endloop
  endfacet
  facet normal -0.0979877 0 0.995188
    outer loop
      vertex 2650 260 140
      vertex 2651.95 40 140.192
      vertex 2651.95 260 140.192
    endloop
  endfacet
  facet normal -0.0979877 0 0.995188
    outer loop
      vertex 2651.95 40 140.192
      vertex 2650 260 140
      vertex 2650 40 140
    endloop
  endfacet
  facet normal 0.0979877 0 0.995188
    outer loop
      vertex 2648.05 260 140.192
      vertex 2650 40 140
      vertex 2650 260 140
    endloop
  endfacet
  facet normal 0.0979877 0 0.995188
    outer loop
      vertex 2650 40 140
      vertex 2648.05 260 140.192
      vertex 2648.05 40 140.192
    endloop
  endfacet
endsolid OpenSCAD_Model
