<svg width="161" height="102" viewBox="-43 -5 161 102" xmlns="http://www.w3.org/2000/svg"><path d="M 0.0000 83.6396 L 66.5685 83.6396 L 66.5685 64.8075 A 2.0000 2.0000 0 0 1 67.5857 63.0657 L 95.4536 47.3407 A 30.0000 30.0000 0 1 0 54.5832 6.4703 L 38.8582 34.3382 A 2.0000 2.0000 0 0 1 37.1164 35.3553 L 29.4522 35.3553 A 2.0000 2.0000 0 0 1 27.7103 34.3382 L 11.9854 6.4703 A 30.0000 30.0000 0 1 0 -28.8850 47.3407 L -1.0171 63.0657 A 2.0000 2.0000 0 0 1 0.0000 64.8075 L 0.0000 83.6396 Z" stroke="green" stroke-width="1" fill="none" /><circle cx="-14.1421" cy="21.2132" r="10.0000" stroke="green" stroke-width="1" fill="none" /><circle cx="80.7107" cy="21.2132" r="10.0000" stroke="green" stroke-width="1" fill="none" /></svg>