0
SECTION
2
ENTITIES
0
LINE
8
PARAMETRIX
10
0.0000
20
0.0000
11
3.0000
21
0.0000
0
LINE
8
PARAMETRIX
10
3.0000
20
0.0000
11
3.0000
21
20.5839
0
ARC
8
PARAMETRIX
10
1.0000
20
20.5839
40
2.0000
50
360.0000
51
60.5654
0
LINE
8
PARAMETRIX
10
1.9829
20
22.3258
11
-27.4108
21
38.9117
0
ARC
8
PARAMETRIX
10
-14.1421
20
62.4264
40
27.0000
50
29.4346
51
240.5654
0
LINE
8
PARAMETRIX
10
9.3726
20
75.6950
11
25.9585
21
46.3014
0
ARC
8
PARAMETRIX
10
27.7003
20
47.2843
40
2.0000
50
209.4346
51
270.0000
0
LINE
8
PARAMETRIX
10
27.7003
20
45.2843
11
38.8682
21
45.2843
0
ARC
8
PARAMETRIX
10
38.8682
20
47.2843
40
2.0000
50
270.0000
51
330.5654
0
LINE
8
PARAMETRIX
10
40.6101
20
46.3014
11
57.1959
21
75.6950
0
ARC
8
PARAMETRIX
10
80.7107
20
62.4264
40
27.0000
50
299.4346
51
150.5654
0
LINE
8
PARAMETRIX
10
93.9793
20
38.9117
11
64.5857
21
22.3258
0
ARC
8
PARAMETRIX
10
65.5685
20
20.5839
40
2.0000
50
119.4346
51
180.0000
0
LINE
8
PARAMETRIX
10
63.5685
20
20.5839
11
63.5685
21
0.0000
0
LINE
8
PARAMETRIX
10
63.5685
20
0.0000
11
66.5685
21
0.0000
0
LINE
8
PARAMETRIX
10
66.5685
20
0.0000
11
66.5685
21
18.8321
0
ARC
8
PARAMETRIX
10
68.5685
20
18.8321
40
2.0000
50
119.4346
51
180.0000
0
LINE
8
PARAMETRIX
10
67.5857
20
20.5739
11
95.4536
21
36.2989
0
ARC
8
PARAMETRIX
10
80.7107
20
62.4264
40
30.0000
50
299.4346
51
150.5654
0
LINE
8
PARAMETRIX
10
54.5832
20
77.1693
11
38.8582
21
49.3014
0
ARC
8
PARAMETRIX
10
37.1164
20
50.2843
40
2.0000
50
270.0000
51
330.5654
0
LINE
8
PARAMETRIX
10
37.1164
20
48.2843
11
29.4522
21
48.2843
0
ARC
8
PARAMETRIX
10
29.4522
20
50.2843
40
2.0000
50
209.4346
51
270.0000
0
LINE
8
PARAMETRIX
10
27.7103
20
49.3014
11
11.9854
21
77.1693
0
ARC
8
PARAMETRIX
10
-14.1421
20
62.4264
40
30.0000
50
29.4346
51
240.5654
0
LINE
8
PARAMETRIX
10
-28.8850
20
36.2989
11
-1.0171
21
20.5739
0
ARC
8
PARAMETRIX
10
-2.0000
20
18.8321
40
2.0000
50
360.0000
51
60.5654
0
LINE
8
PARAMETRIX
10
0.0000
20
18.8321
11
0.0000
21
0.0000
0
CIRCLE
8
PARAMETRIX
10
-14.1421
20
62.4264
40
13.0000
0
CIRCLE
8
PARAMETRIX
10
-14.1421
20
62.4264
40
10.0000
0
CIRCLE
8
PARAMETRIX
10
80.7107
20
62.4264
40
13.0000
0
CIRCLE
8
PARAMETRIX
10
80.7107
20
62.4264
40
10.0000
0
ENDSEC
0
EOF
