0
SECTION
2
ENTITIES
0
LINE
8
PARAMETRIX
10
-60.6218
20
0.0000
11
60.6218
21
0.0000
0
LINE
8
PARAMETRIX
10
60.6218
20
0.0000
11
60.6218
21
146.0000
0
LINE
8
PARAMETRIX
10
60.6218
20
146.0000
11
-60.6218
21
146.0000
0
LINE
8
PARAMETRIX
10
-60.6218
20
146.0000
11
-60.6218
21
0.0000
0
LINE
8
PARAMETRIX
10
-60.6218
20
0.0000
11
-57.6218
21
0.0000
0
LINE
8
PARAMETRIX
10
-57.6218
20
0.0000
11
-57.6218
21
146.0000
0
LINE
8
PARAMETRIX
10
-57.6218
20
146.0000
11
-60.6218
21
146.0000
0
LINE
8
PARAMETRIX
10
-60.6218
20
146.0000
11
-60.6218
21
0.0000
0
LINE
8
PARAMETRIX
10
-47.6218
20
0.0000
11
-44.6218
21
0.0000
0
LINE
8
PARAMETRIX
10
-44.6218
20
0.0000
11
-44.6218
21
146.0000
0
LINE
8
PARAMETRIX
10
-44.6218
20
146.0000
11
-47.6218
21
146.0000
0
LINE
8
PARAMETRIX
10
-47.6218
20
146.0000
11
-47.6218
21
0.0000
0
LINE
8
PARAMETRIX
10
-8.0000
20
0.0000
11
-5.0000
21
0.0000
0
LINE
8
PARAMETRIX
10
-5.0000
20
0.0000
11
-5.0000
21
75.0000
0
LINE
8
PARAMETRIX
10
-5.0000
20
75.0000
11
-8.0000
21
75.0000
0
LINE
8
PARAMETRIX
10
-8.0000
20
75.0000
11
-8.0000
21
0.0000
0
LINE
8
PARAMETRIX
10
5.0000
20
0.0000
11
8.0000
21
0.0000
0
LINE
8
PARAMETRIX
10
8.0000
20
0.0000
11
8.0000
21
75.0000
0
LINE
8
PARAMETRIX
10
8.0000
20
75.0000
11
5.0000
21
75.0000
0
LINE
8
PARAMETRIX
10
5.0000
20
75.0000
11
5.0000
21
0.0000
0
LINE
8
PARAMETRIX
10
44.6218
20
0.0000
11
47.6218
21
0.0000
0
LINE
8
PARAMETRIX
10
47.6218
20
0.0000
11
47.6218
21
146.0000
0
LINE
8
PARAMETRIX
10
47.6218
20
146.0000
11
44.6218
21
146.0000
0
LINE
8
PARAMETRIX
10
44.6218
20
146.0000
11
44.6218
21
0.0000
0
LINE
8
PARAMETRIX
10
57.6218
20
0.0000
11
60.6218
21
0.0000
0
LINE
8
PARAMETRIX
10
60.6218
20
0.0000
11
60.6218
21
146.0000
0
LINE
8
PARAMETRIX
10
60.6218
20
146.0000
11
57.6218
21
146.0000
0
LINE
8
PARAMETRIX
10
57.6218
20
146.0000
11
57.6218
21
0.0000
0
ENDSEC
0
EOF
