0
SECTION
2
ENTITIES
0
LINE
8
PARAMETRIX
10
0.0000
20
0.0000
11
0.0000
21
146.0000
0
LINE
8
PARAMETRIX
10
0.0000
20
146.0000
11
-4.3734
21
153.5415
0
ARC
8
PARAMETRIX
10
-26.0000
20
141.0000
40
25.0000
50
30.1098
51
221.0087
0
LINE
8
PARAMETRIX
10
-44.8652
20
124.5956
11
-5.7058
21
79.5617
0
ARC
8
PARAMETRIX
10
-13.2519
20
73.0000
40
10.0000
50
318.9913
51
41.0087
0
LINE
8
PARAMETRIX
10
-5.7058
20
66.4383
11
-44.8652
21
21.4044
0
ARC
8
PARAMETRIX
10
-26.0000
20
5.0000
40
25.0000
50
138.9913
51
329.8902
0
LINE
8
PARAMETRIX
10
-4.3734
20
-7.5415
11
0.0000
21
0.0000
0
CIRCLE
8
PARAMETRIX
10
-26.0000
20
141.0000
40
10.0000
0
CIRCLE
8
PARAMETRIX
10
-26.0000
20
5.0000
40
10.0000
0
ENDSEC
0
EOF
