0
SECTION
2
ENTITIES
0
LINE
8
PARAMETRIX
10
-60.6218
20
0.0000
11
60.6218
21
0.0000
0
LINE
8
PARAMETRIX
10
60.6218
20
0.0000
11
60.6218
21
20.8453
0
ARC
8
PARAMETRIX
10
58.6218
20
20.8453
40
2.0000
50
360.0000
51
60.0000
0
LINE
8
PARAMETRIX
10
59.6218
20
22.5774
11
45.0000
21
31.0192
0
ARC
8
PARAMETRIX
10
46.0000
20
32.7513
40
2.0000
50
152.2042
51
240.0000
0
ARC
8
PARAMETRIX
10
0.0000
20
57.0000
40
50.0000
50
332.2042
51
207.7958
0
ARC
8
PARAMETRIX
10
-46.0000
20
32.7513
40
2.0000
50
300.0000
51
27.7958
0
LINE
8
PARAMETRIX
10
-45.0000
20
31.0192
11
-59.6218
21
22.5774
0
ARC
8
PARAMETRIX
10
-58.6218
20
20.8453
40
2.0000
50
120.0000
51
180.0000
0
LINE
8
PARAMETRIX
10
-60.6218
20
20.8453
11
-60.6218
21
0.0000
0
CIRCLE
8
PARAMETRIX
10
0.0000
20
57.0000
40
30.0000
0
ENDSEC
0
EOF
