0
SECTION
2
ENTITIES
0
LINE
8
PARAMETRIX
10
-60.6218
20
0.0000
11
60.6218
21
0.0000
0
LINE
8
PARAMETRIX
10
60.6218
20
0.0000
11
60.6218
21
20.8453
0
ARC
8
PARAMETRIX
10
58.6218
20
20.8453
40
2.0000
50
360.0000
51
60.0000
0
LINE
8
PARAMETRIX
10
59.6218
20
22.5774
11
45.0000
21
31.0192
0
ARC
8
PARAMETRIX
10
46.0000
20
32.7513
40
2.0000
50
152.2042
51
240.0000
0
ARC
8
PARAMETRIX
10
0.0000
20
57.0000
40
50.0000
50
332.2042
51
207.7958
0
ARC
8
PARAMETRIX
10
-46.0000
20
32.7513
40
2.0000
50
300.0000
51
27.7958
0
LINE
8
PARAMETRIX
10
-45.0000
20
31.0192
11
-59.6218
21
22.5774
0
ARC
8
PARAMETRIX
10
-58.6218
20
20.8453
40
2.0000
50
120.0000
51
180.0000
0
LINE
8
PARAMETRIX
10
-60.6218
20
20.8453
11
-60.6218
21
0.0000
0
LINE
8
PARAMETRIX
10
-56.6218
20
6.0000
11
-4.5000
21
6.0000
0
ARC
8
PARAMETRIX
10
-4.5000
20
8.0000
40
2.0000
50
270.0000
51
0.0000
0
LINE
8
PARAMETRIX
10
-2.5000
20
8.0000
11
-2.5000
21
20.2747
0
ARC
8
PARAMETRIX
10
-4.5000
20
20.2747
40
2.0000
50
0.0000
51
83.0143
0
ARC
8
PARAMETRIX
10
-0.0000
20
57.0000
40
35.0000
50
276.9857
51
263.0143
0
ARC
8
PARAMETRIX
10
4.5000
20
20.2747
40
2.0000
50
96.9857
51
180.0000
0
LINE
8
PARAMETRIX
10
2.5000
20
20.2747
11
2.5000
21
8.0000
0
ARC
8
PARAMETRIX
10
4.5000
20
8.0000
40
2.0000
50
180.0000
51
270.0000
0
LINE
8
PARAMETRIX
10
4.5000
20
6.0000
11
56.6218
21
6.0000
0
ARC
8
PARAMETRIX
10
56.6218
20
8.0000
40
2.0000
50
270.0000
51
0.0000
0
LINE
8
PARAMETRIX
10
58.6218
20
8.0000
11
58.6218
21
19.6906
0
ARC
8
PARAMETRIX
10
56.6218
20
19.6906
40
2.0000
50
360.0000
51
60.0000
0
LINE
8
PARAMETRIX
10
57.6218
20
21.4226
11
42.3013
21
30.2679
0
ARC
8
PARAMETRIX
10
43.3013
20
32.0000
40
2.0000
50
150.0000
51
240.0000
0
ARC
8
PARAMETRIX
10
0.0000
20
57.0000
40
48.0000
50
330.0000
51
210.0000
0
ARC
8
PARAMETRIX
10
-43.3013
20
32.0000
40
2.0000
50
300.0000
51
30.0000
0
LINE
8
PARAMETRIX
10
-42.3013
20
30.2679
11
-57.6218
21
21.4226
0
ARC
8
PARAMETRIX
10
-56.6218
20
19.6906
40
2.0000
50
120.0000
51
180.0000
0
LINE
8
PARAMETRIX
10
-58.6218
20
19.6906
11
-58.6218
21
8.0000
0
ARC
8
PARAMETRIX
10
-56.6218
20
8.0000
40
2.0000
50
180.0000
51
270.0000
0
CIRCLE
8
PARAMETRIX
10
0.0000
20
57.0000
40
30.0000
0
ENDSEC
0
EOF
