solid OpenSCAD_Model
  facet normal 0 0 -1
    outer loop
      vertex 184.317 8 0
      vertex 189.067 7.93188 0
      vertex 184.317 7 0
    endloop
  endfacet
  facet normal 0 0 -1
    outer loop
      vertex 86.3173 8 0
      vertex 95.8173 8 0
      vertex 95.8173 7 0
    endloop
  endfacet
  facet normal -0 0 -1
    outer loop
      vertex 95.8173 7 0
      vertex 91.494 1 0
      vertex 86.3173 7 0
    endloop
  endfacet
  facet normal 0 0 -1
    outer loop
      vertex 179.817 7 0
      vertex 170.317 7 0
      vertex 170.317 8 0
    endloop
  endfacet
  facet normal -0 -0 -1
    outer loop
      vertex 189.067 8 0
      vertex 189.067 7.93188 0
      vertex 184.317 8 0
    endloop
  endfacet
  facet normal -0 0 -1
    outer loop
      vertex 184.317 7 0
      vertex 182.626 0 0
      vertex 179.817 7 0
    endloop
  endfacet
  facet normal -0 -0 -1
    outer loop
      vertex 179.817 8 0
      vertex 179.817 7 0
      vertex 170.317 8 0
    endloop
  endfacet
  facet normal 0 -0 -1
    outer loop
      vertex 184.317 7 0
      vertex 189.067 7.93188 0
      vertex 182.626 0 0
    endloop
  endfacet
  facet normal -0 0 -1
    outer loop
      vertex 165.817 8 0
      vertex 160.694 5.5 0
      vertex 156.317 8 0
    endloop
  endfacet
  facet normal -0 -0 -1
    outer loop
      vertex 159.223 3.7074 0
      vertex 159.308 3.42599 0
      vertex 151.817 7 0
    endloop
  endfacet
  facet normal 0 0 -1
    outer loop
      vertex 169.641 5.38579 0
      vertex 170.317 7 0
      vertex 169.901 5.24719 0
    endloop
  endfacet
  facet normal 0 0 -1
    outer loop
      vertex 168.234 2.75279 0
      vertex 161.528 2.75279 0
      vertex 161.755 2.93929 0
    endloop
  endfacet
  facet normal -0 -0 -1
    outer loop
      vertex 151.817 8 0
      vertex 151.817 7 0
      vertex 142.317 8 0
    endloop
  endfacet
  facet normal 0 0 -1
    outer loop
      vertex 161.755 2.93929 0
      vertex 161.941 3.1666 0
      vertex 167.82 3.1666 0
    endloop
  endfacet
  facet normal 0 0 -1
    outer loop
      vertex 161.755 5.0607 0
      vertex 161.528 5.24719 0
      vertex 165.817 7 0
    endloop
  endfacet
  facet normal 0 0 -1
    outer loop
      vertex 142.317 8 0
      vertex 151.817 7 0
      vertex 142.317 7 0
    endloop
  endfacet
  facet normal 0 0 -1
    outer loop
      vertex 182.626 0 0
      vertex 160.694 2.5 0
      vertex 169.067 2.5 0
    endloop
  endfacet
  facet normal -0 -0 -1
    outer loop
      vertex 137.817 8 0
      vertex 137.817 7 0
      vertex 128.317 8 0
    endloop
  endfacet
  facet normal 0 0 -1
    outer loop
      vertex 169.067 2.5 0
      vertex 160.694 2.5 0
      vertex 168.775 2.52879 0
    endloop
  endfacet
  facet normal -0 0 -1
    outer loop
      vertex 160.694 2.5 0
      vertex 97.994 0 0
      vertex 160.402 2.52879 0
    endloop
  endfacet
  facet normal -0 0 -1
    outer loop
      vertex 128.317 7 0
      vertex 97.994 0 0
      vertex 123.817 7 0
    endloop
  endfacet
  facet normal 0 0 -1
    outer loop
      vertex 137.817 7 0
      vertex 128.317 7 0
      vertex 128.317 8 0
    endloop
  endfacet
  facet normal -0 -0 -1
    outer loop
      vertex 123.817 8 0
      vertex 123.817 7 0
      vertex 114.317 8 0
    endloop
  endfacet
  facet normal -0 0 -1
    outer loop
      vertex 123.817 7 0
      vertex 97.994 0 0
      vertex 114.317 7 0
    endloop
  endfacet
  facet normal -0 0 -1
    outer loop
      vertex 114.317 7 0
      vertex 97.994 0 0
      vertex 109.817 7 0
    endloop
  endfacet
  facet normal 0 0 -1
    outer loop
      vertex 109.817 7 0
      vertex 97.994 0 0
      vertex 97.994 1 0
    endloop
  endfacet
  facet normal 0 0 -1
    outer loop
      vertex 123.817 7 0
      vertex 114.317 7 0
      vertex 114.317 8 0
    endloop
  endfacet
  facet normal -0 -0 -1
    outer loop
      vertex 109.817 8 0
      vertex 109.817 7 0
      vertex 100.317 8 0
    endloop
  endfacet
  facet normal 0 0 -1
    outer loop
      vertex 100.317 8 0
      vertex 109.817 7 0
      vertex 100.317 7 0
    endloop
  endfacet
  facet normal 0 0 -1
    outer loop
      vertex 95.8173 7 0
      vertex 100.317 7 0
      vertex 97.994 1 0
    endloop
  endfacet
  facet normal 0 -0 -1
    outer loop
      vertex 100.317 7 0
      vertex 109.817 7 0
      vertex 97.994 1 0
    endloop
  endfacet
  facet normal 0 0 -1
    outer loop
      vertex 91.494 1 0
      vertex 95.8173 7 0
      vertex 97.994 1 0
    endloop
  endfacet
  facet normal 0 0 -1
    outer loop
      vertex 72.3173 7 0
      vertex 72.3173 8 0
      vertex 81.8173 7 0
    endloop
  endfacet
  facet normal 0 0 -1
    outer loop
      vertex 86.3173 7 0
      vertex 86.3173 8 0
      vertex 95.8173 7 0
    endloop
  endfacet
  facet normal 0 0 -1
    outer loop
      vertex 91.494 0 0
      vertex 86.3173 7 0
      vertex 91.494 1 0
    endloop
  endfacet
  facet normal 0 0 -1
    outer loop
      vertex 58.3173 7 0
      vertex 58.3173 8 0
      vertex 67.8173 7 0
    endloop
  endfacet
  facet normal 0 0 -1
    outer loop
      vertex 91.494 0 0
      vertex 81.8173 7 0
      vertex 86.3173 7 0
    endloop
  endfacet
  facet normal 0 0 -1
    outer loop
      vertex 81.8173 7 0
      vertex 72.3173 8 0
      vertex 81.8173 8 0
    endloop
  endfacet
  facet normal 0 0 -1
    outer loop
      vertex 91.494 0 0
      vertex 72.3173 7 0
      vertex 81.8173 7 0
    endloop
  endfacet
  facet normal 0 0 -1
    outer loop
      vertex 44.3173 7 0
      vertex 44.3173 8 0
      vertex 53.8173 7 0
    endloop
  endfacet
  facet normal 0 0 -1
    outer loop
      vertex 91.494 0 0
      vertex 67.8173 7 0
      vertex 72.3173 7 0
    endloop
  endfacet
  facet normal 0 0 -1
    outer loop
      vertex 67.8173 7 0
      vertex 58.3173 8 0
      vertex 67.8173 8 0
    endloop
  endfacet
  facet normal 0 0 -1
    outer loop
      vertex 91.494 0 0
      vertex 58.3173 7 0
      vertex 67.8173 7 0
    endloop
  endfacet
  facet normal 0 0 -1
    outer loop
      vertex 30.3173 7 0
      vertex 30.3173 8 0
      vertex 39.8173 7 0
    endloop
  endfacet
  facet normal 0 0 -1
    outer loop
      vertex 91.494 0 0
      vertex 53.8173 7 0
      vertex 58.3173 7 0
    endloop
  endfacet
  facet normal 0 0 -1
    outer loop
      vertex 53.8173 7 0
      vertex 44.3173 8 0
      vertex 53.8173 8 0
    endloop
  endfacet
  facet normal 0 0 -1
    outer loop
      vertex 9.81369 0 0
      vertex 44.3173 7 0
      vertex 53.8173 7 0
    endloop
  endfacet
  facet normal 0 0 -1
    outer loop
      vertex 16.3173 7 0
      vertex 16.3173 8 0
      vertex 25.8173 7 0
    endloop
  endfacet
  facet normal 0 0 -1
    outer loop
      vertex 9.81369 0 0
      vertex 39.8173 7 0
      vertex 44.3173 7 0
    endloop
  endfacet
  facet normal 0 0 -1
    outer loop
      vertex 39.8173 7 0
      vertex 30.3173 8 0
      vertex 39.8173 8 0
    endloop
  endfacet
  facet normal 0 -0 -1
    outer loop
      vertex 25.8173 7 0
      vertex 30.3173 7 0
      vertex 9.81369 0 0
    endloop
  endfacet
  facet normal 0 0 -1
    outer loop
      vertex 5.8882 4 0
      vertex 8.37569 7.06329 0
      vertex 9.81369 0 0
    endloop
  endfacet
  facet normal 0 -0 -1
    outer loop
      vertex 16.3173 7 0
      vertex 25.8173 7 0
      vertex 9.81369 0 0
    endloop
  endfacet
  facet normal 0 0 -1
    outer loop
      vertex 25.8173 7 0
      vertex 16.3173 8 0
      vertex 25.8173 8 0
    endloop
  endfacet
  facet normal 0 -0 -1
    outer loop
      vertex 11.8173 7 0
      vertex 16.3173 7 0
      vertex 9.81369 0 0
    endloop
  endfacet
  facet normal 0 0 -1
    outer loop
      vertex 8.37569 7.06329 0
      vertex 11.8173 7 0
      vertex 9.81369 0 0
    endloop
  endfacet
  facet normal 0 0 -1
    outer loop
      vertex 8.37569 7.06329 0
      vertex 7.22209 8 0
      vertex 11.8173 8 0
    endloop
  endfacet
  facet normal 0 0 -1
    outer loop
      vertex 11.8173 7 0
      vertex 8.37569 7.06329 0
      vertex 11.8173 8 0
    endloop
  endfacet
  facet normal 0 0 -1
    outer loop
      vertex 9.81369 0 0
      vertex 30.3173 7 0
      vertex 39.8173 7 0
    endloop
  endfacet
  facet normal 0 0 -1
    outer loop
      vertex 91.494 0 0
      vertex 9.81369 0 0
      vertex 53.8173 7 0
    endloop
  endfacet
  facet normal 0 0 -1
    outer loop
      vertex 170.314 4.83339 0
      vertex 170.317 7 0
      vertex 170.453 4.57399 0
    endloop
  endfacet
  facet normal -0 -0 -1
    outer loop
      vertex 137.817 7 0
      vertex 160.12 2.6142 0
      vertex 128.317 7 0
    endloop
  endfacet
  facet normal 0 0 -1
    outer loop
      vertex 182.626 0 0
      vertex 97.994 0 0
      vertex 160.694 2.5 0
    endloop
  endfacet
  facet normal 0 0 -1
    outer loop
      vertex 162.08 3.42599 0
      vertex 162.165 3.7074 0
      vertex 167.681 3.42599 0
    endloop
  endfacet
  facet normal 0 0 -1
    outer loop
      vertex 162.165 3.7074 0
      vertex 167.567 4 0
      vertex 167.596 3.7074 0
    endloop
  endfacet
  facet normal 0 -0 -1
    outer loop
      vertex 165.817 7 0
      vertex 167.596 4.29259 0
      vertex 162.165 4.29259 0
    endloop
  endfacet
  facet normal 0 0 -1
    outer loop
      vertex 165.817 8 0
      vertex 161.528 5.24719 0
      vertex 161.268 5.38579 0
    endloop
  endfacet
  facet normal 0 0 -1
    outer loop
      vertex 162.08 4.57399 0
      vertex 165.817 7 0
      vertex 162.165 4.29259 0
    endloop
  endfacet
  facet normal 0 0 -1
    outer loop
      vertex 167.596 4.29259 0
      vertex 165.817 7 0
      vertex 167.681 4.57399 0
    endloop
  endfacet
  facet normal 0 0 -1
    outer loop
      vertex 167.681 4.57399 0
      vertex 165.817 7 0
      vertex 167.82 4.83339 0
    endloop
  endfacet
  facet normal 0 0 -1
    outer loop
      vertex 167.82 4.83339 0
      vertex 165.817 7 0
      vertex 168.007 5.0607 0
    endloop
  endfacet
  facet normal 0 0 -1
    outer loop
      vertex 168.007 5.0607 0
      vertex 165.817 7 0
      vertex 168.234 5.24719 0
    endloop
  endfacet
  facet normal 0 0 -1
    outer loop
      vertex 168.234 5.24719 0
      vertex 165.817 7 0
      vertex 168.493 5.38579 0
    endloop
  endfacet
  facet normal 0 0 -1
    outer loop
      vertex 168.493 5.38579 0
      vertex 165.817 7 0
      vertex 168.775 5.47119 0
    endloop
  endfacet
  facet normal 0 0 -1
    outer loop
      vertex 168.775 5.47119 0
      vertex 165.817 7 0
      vertex 170.317 7 0
    endloop
  endfacet
  facet normal -0 0 -1
    outer loop
      vertex 169.067 5.5 0
      vertex 168.775 5.47119 0
      vertex 170.317 7 0
    endloop
  endfacet
  facet normal 0 0 -1
    outer loop
      vertex 169.36 5.47119 0
      vertex 169.067 5.5 0
      vertex 170.317 7 0
    endloop
  endfacet
  facet normal 0 0 -1
    outer loop
      vertex 169.641 5.38579 0
      vertex 169.36 5.47119 0
      vertex 170.317 7 0
    endloop
  endfacet
  facet normal 0 0 -1
    outer loop
      vertex 169.901 5.24719 0
      vertex 170.317 7 0
      vertex 170.128 5.0607 0
    endloop
  endfacet
  facet normal 0 0 -1
    outer loop
      vertex 170.128 5.0607 0
      vertex 170.317 7 0
      vertex 170.314 4.83339 0
    endloop
  endfacet
  facet normal 0 0 -1
    outer loop
      vertex 170.317 7 0
      vertex 179.817 7 0
      vertex 170.453 4.57399 0
    endloop
  endfacet
  facet normal 0 0 -1
    outer loop
      vertex 170.453 4.57399 0
      vertex 179.817 7 0
      vertex 170.538 4.29259 0
    endloop
  endfacet
  facet normal 0 0 -1
    outer loop
      vertex 170.538 4.29259 0
      vertex 179.817 7 0
      vertex 170.567 4 0
    endloop
  endfacet
  facet normal 0 -0 -1
    outer loop
      vertex 170.567 4 0
      vertex 179.817 7 0
      vertex 170.538 3.7074 0
    endloop
  endfacet
  facet normal 0 -0 -1
    outer loop
      vertex 170.538 3.7074 0
      vertex 179.817 7 0
      vertex 170.453 3.42599 0
    endloop
  endfacet
  facet normal 0 0 -1
    outer loop
      vertex 170.453 3.42599 0
      vertex 179.817 7 0
      vertex 182.626 0 0
    endloop
  endfacet
  facet normal 0 0 -1
    outer loop
      vertex 170.314 3.1666 0
      vertex 170.453 3.42599 0
      vertex 182.626 0 0
    endloop
  endfacet
  facet normal 0 0 -1
    outer loop
      vertex 170.128 2.93929 0
      vertex 170.314 3.1666 0
      vertex 182.626 0 0
    endloop
  endfacet
  facet normal 0 0 -1
    outer loop
      vertex 169.901 2.75279 0
      vertex 170.128 2.93929 0
      vertex 182.626 0 0
    endloop
  endfacet
  facet normal 0 0 -1
    outer loop
      vertex 169.641 2.6142 0
      vertex 169.901 2.75279 0
      vertex 182.626 0 0
    endloop
  endfacet
  facet normal 0 0 -1
    outer loop
      vertex 169.067 2.5 0
      vertex 169.36 2.52879 0
      vertex 182.626 0 0
    endloop
  endfacet
  facet normal 0 0 -1
    outer loop
      vertex 169.36 2.52879 0
      vertex 169.641 2.6142 0
      vertex 182.626 0 0
    endloop
  endfacet
  facet normal 0 0 -1
    outer loop
      vertex 160.987 2.52879 0
      vertex 161.268 2.6142 0
      vertex 168.493 2.6142 0
    endloop
  endfacet
  facet normal 0 0 -1
    outer loop
      vertex 97.994 0 0
      vertex 128.317 7 0
      vertex 160.12 2.6142 0
    endloop
  endfacet
  facet normal -0 0 -1
    outer loop
      vertex 160.402 2.52879 0
      vertex 97.994 0 0
      vertex 160.12 2.6142 0
    endloop
  endfacet
  facet normal -0 -0 -1
    outer loop
      vertex 159.861 2.75279 0
      vertex 160.12 2.6142 0
      vertex 142.317 7 0
    endloop
  endfacet
  facet normal 0 0 -1
    outer loop
      vertex 160.12 2.6142 0
      vertex 137.817 7 0
      vertex 142.317 7 0
    endloop
  endfacet
  facet normal 0 0 -1
    outer loop
      vertex 159.861 2.75279 0
      vertex 142.317 7 0
      vertex 159.633 2.93929 0
    endloop
  endfacet
  facet normal 0 0 -1
    outer loop
      vertex 159.633 2.93929 0
      vertex 142.317 7 0
      vertex 151.817 7 0
    endloop
  endfacet
  facet normal -0 -0 -1
    outer loop
      vertex 159.308 3.42599 0
      vertex 159.447 3.1666 0
      vertex 151.817 7 0
    endloop
  endfacet
  facet normal -0 -0 -1
    outer loop
      vertex 159.447 3.1666 0
      vertex 159.633 2.93929 0
      vertex 151.817 7 0
    endloop
  endfacet
  facet normal 0 0 -1
    outer loop
      vertex 151.817 7 0
      vertex 156.317 7 0
      vertex 159.223 3.7074 0
    endloop
  endfacet
  facet normal 0 0 -1
    outer loop
      vertex 159.223 3.7074 0
      vertex 156.317 7 0
      vertex 159.194 4 0
    endloop
  endfacet
  facet normal 0 0 -1
    outer loop
      vertex 159.194 4 0
      vertex 156.317 7 0
      vertex 159.223 4.29259 0
    endloop
  endfacet
  facet normal 0 0 -1
    outer loop
      vertex 159.223 4.29259 0
      vertex 156.317 7 0
      vertex 159.308 4.57399 0
    endloop
  endfacet
  facet normal 0 0 -1
    outer loop
      vertex 159.308 4.57399 0
      vertex 156.317 7 0
      vertex 159.447 4.83339 0
    endloop
  endfacet
  facet normal 0 0 -1
    outer loop
      vertex 159.447 4.83339 0
      vertex 156.317 7 0
      vertex 159.633 5.0607 0
    endloop
  endfacet
  facet normal 0 0 -1
    outer loop
      vertex 159.633 5.0607 0
      vertex 156.317 7 0
      vertex 159.861 5.24719 0
    endloop
  endfacet
  facet normal 0 0 -1
    outer loop
      vertex 159.861 5.24719 0
      vertex 156.317 7 0
      vertex 156.317 8 0
    endloop
  endfacet
  facet normal -0 0 -1
    outer loop
      vertex 160.402 5.47119 0
      vertex 160.12 5.38579 0
      vertex 156.317 8 0
    endloop
  endfacet
  facet normal -0 0 -1
    outer loop
      vertex 160.12 5.38579 0
      vertex 159.861 5.24719 0
      vertex 156.317 8 0
    endloop
  endfacet
  facet normal -0 0 -1
    outer loop
      vertex 160.694 5.5 0
      vertex 160.402 5.47119 0
      vertex 156.317 8 0
    endloop
  endfacet
  facet normal 0 0 -1
    outer loop
      vertex 160.694 5.5 0
      vertex 165.817 8 0
      vertex 160.987 5.47119 0
    endloop
  endfacet
  facet normal 0 0 -1
    outer loop
      vertex 160.987 5.47119 0
      vertex 165.817 8 0
      vertex 161.268 5.38579 0
    endloop
  endfacet
  facet normal 0 -0 -1
    outer loop
      vertex 165.817 8 0
      vertex 165.817 7 0
      vertex 161.528 5.24719 0
    endloop
  endfacet
  facet normal 0 0 -1
    outer loop
      vertex 165.817 7 0
      vertex 161.941 4.83339 0
      vertex 161.755 5.0607 0
    endloop
  endfacet
  facet normal 0 0 -1
    outer loop
      vertex 165.817 7 0
      vertex 162.08 4.57399 0
      vertex 161.941 4.83339 0
    endloop
  endfacet
  facet normal 0 0 -1
    outer loop
      vertex 167.567 4 0
      vertex 162.165 4.29259 0
      vertex 167.596 4.29259 0
    endloop
  endfacet
  facet normal 0 0 -1
    outer loop
      vertex 167.567 4 0
      vertex 162.194 4 0
      vertex 162.165 4.29259 0
    endloop
  endfacet
  facet normal -0 0 -1
    outer loop
      vertex 167.567 4 0
      vertex 162.165 3.7074 0
      vertex 162.194 4 0
    endloop
  endfacet
  facet normal -0 -0 -1
    outer loop
      vertex 167.596 3.7074 0
      vertex 167.681 3.42599 0
      vertex 162.165 3.7074 0
    endloop
  endfacet
  facet normal -0 0 -1
    outer loop
      vertex 167.681 3.42599 0
      vertex 161.941 3.1666 0
      vertex 162.08 3.42599 0
    endloop
  endfacet
  facet normal 0 -0 -1
    outer loop
      vertex 167.681 3.42599 0
      vertex 167.82 3.1666 0
      vertex 161.941 3.1666 0
    endloop
  endfacet
  facet normal 0 -0 -1
    outer loop
      vertex 167.82 3.1666 0
      vertex 168.007 2.93929 0
      vertex 161.755 2.93929 0
    endloop
  endfacet
  facet normal 0 0 -1
    outer loop
      vertex 161.755 2.93929 0
      vertex 168.007 2.93929 0
      vertex 168.234 2.75279 0
    endloop
  endfacet
  facet normal 0 -0 -1
    outer loop
      vertex 161.528 2.75279 0
      vertex 168.234 2.75279 0
      vertex 161.268 2.6142 0
    endloop
  endfacet
  facet normal 0 0 -1
    outer loop
      vertex 161.268 2.6142 0
      vertex 168.234 2.75279 0
      vertex 168.493 2.6142 0
    endloop
  endfacet
  facet normal 0 0 -1
    outer loop
      vertex 160.694 2.5 0
      vertex 160.987 2.52879 0
      vertex 168.775 2.52879 0
    endloop
  endfacet
  facet normal 0 0 -1
    outer loop
      vertex 160.987 2.52879 0
      vertex 168.493 2.6142 0
      vertex 168.775 2.52879 0
    endloop
  endfacet
  facet normal 0 0 1
    outer loop
      vertex 184.317 7 6
      vertex 189.067 7.93188 6
      vertex 184.317 8 6
    endloop
  endfacet
  facet normal 0 -0 1
    outer loop
      vertex 95.8173 7 6
      vertex 95.8173 8 6
      vertex 86.3173 8 6
    endloop
  endfacet
  facet normal -0 0 1
    outer loop
      vertex 86.3173 7 6
      vertex 91.494 1 6
      vertex 95.8173 7 6
    endloop
  endfacet
  facet normal 0 0 1
    outer loop
      vertex 170.317 8 6
      vertex 170.317 7 6
      vertex 179.817 7 6
    endloop
  endfacet
  facet normal -0 0 1
    outer loop
      vertex 184.317 8 6
      vertex 189.067 7.93188 6
      vertex 189.067 8 6
    endloop
  endfacet
  facet normal -0 0 1
    outer loop
      vertex 179.817 7 6
      vertex 182.626 0 6
      vertex 184.317 7 6
    endloop
  endfacet
  facet normal -0 0 1
    outer loop
      vertex 170.317 8 6
      vertex 179.817 7 6
      vertex 179.817 8 6
    endloop
  endfacet
  facet normal 0 0 1
    outer loop
      vertex 182.626 0 6
      vertex 189.067 7.93188 6
      vertex 184.317 7 6
    endloop
  endfacet
  facet normal -0 0 1
    outer loop
      vertex 156.317 8 6
      vertex 160.694 5.5 6
      vertex 165.817 8 6
    endloop
  endfacet
  facet normal 0 0 1
    outer loop
      vertex 151.817 7 6
      vertex 159.308 3.42599 6
      vertex 159.223 3.7074 6
    endloop
  endfacet
  facet normal 0 -0 1
    outer loop
      vertex 169.901 5.24719 6
      vertex 170.317 7 6
      vertex 169.641 5.38579 6
    endloop
  endfacet
  facet normal 0 0 1
    outer loop
      vertex 161.755 2.93929 6
      vertex 161.528 2.75279 6
      vertex 168.234 2.75279 6
    endloop
  endfacet
  facet normal -0 0 1
    outer loop
      vertex 142.317 8 6
      vertex 151.817 7 6
      vertex 151.817 8 6
    endloop
  endfacet
  facet normal 0 0 1
    outer loop
      vertex 167.82 3.1666 6
      vertex 161.941 3.1666 6
      vertex 161.755 2.93929 6
    endloop
  endfacet
  facet normal 0 0 1
    outer loop
      vertex 165.817 7 6
      vertex 161.528 5.24719 6
      vertex 161.755 5.0607 6
    endloop
  endfacet
  facet normal 0 0 1
    outer loop
      vertex 142.317 7 6
      vertex 151.817 7 6
      vertex 142.317 8 6
    endloop
  endfacet
  facet normal 0 0 1
    outer loop
      vertex 169.067 2.5 6
      vertex 160.694 2.5 6
      vertex 182.626 0 6
    endloop
  endfacet
  facet normal -0 0 1
    outer loop
      vertex 128.317 8 6
      vertex 137.817 7 6
      vertex 137.817 8 6
    endloop
  endfacet
  facet normal 0 0 1
    outer loop
      vertex 168.775 2.52879 6
      vertex 160.694 2.5 6
      vertex 169.067 2.5 6
    endloop
  endfacet
  facet normal 0 0 1
    outer loop
      vertex 160.402 2.52879 6
      vertex 97.994 0 6
      vertex 160.694 2.5 6
    endloop
  endfacet
  facet normal -0 0 1
    outer loop
      vertex 123.817 7 6
      vertex 97.994 0 6
      vertex 128.317 7 6
    endloop
  endfacet
  facet normal 0 0 1
    outer loop
      vertex 128.317 8 6
      vertex 128.317 7 6
      vertex 137.817 7 6
    endloop
  endfacet
  facet normal -0 0 1
    outer loop
      vertex 114.317 8 6
      vertex 123.817 7 6
      vertex 123.817 8 6
    endloop
  endfacet
  facet normal -0 0 1
    outer loop
      vertex 114.317 7 6
      vertex 97.994 0 6
      vertex 123.817 7 6
    endloop
  endfacet
  facet normal -0 0 1
    outer loop
      vertex 109.817 7 6
      vertex 97.994 0 6
      vertex 114.317 7 6
    endloop
  endfacet
  facet normal -0 0 1
    outer loop
      vertex 97.994 1 6
      vertex 97.994 0 6
      vertex 109.817 7 6
    endloop
  endfacet
  facet normal 0 0 1
    outer loop
      vertex 114.317 8 6
      vertex 114.317 7 6
      vertex 123.817 7 6
    endloop
  endfacet
  facet normal -0 0 1
    outer loop
      vertex 100.317 8 6
      vertex 109.817 7 6
      vertex 109.817 8 6
    endloop
  endfacet
  facet normal 0 0 1
    outer loop
      vertex 100.317 7 6
      vertex 109.817 7 6
      vertex 100.317 8 6
    endloop
  endfacet
  facet normal 0 -0 1
    outer loop
      vertex 97.994 1 6
      vertex 100.317 7 6
      vertex 95.8173 7 6
    endloop
  endfacet
  facet normal 0 0 1
    outer loop
      vertex 97.994 1 6
      vertex 109.817 7 6
      vertex 100.317 7 6
    endloop
  endfacet
  facet normal 0 0 1
    outer loop
      vertex 97.994 1 6
      vertex 95.8173 7 6
      vertex 91.494 1 6
    endloop
  endfacet
  facet normal 0 0 1
    outer loop
      vertex 81.8173 7 6
      vertex 72.3173 8 6
      vertex 72.3173 7 6
    endloop
  endfacet
  facet normal 0 0 1
    outer loop
      vertex 95.8173 7 6
      vertex 86.3173 8 6
      vertex 86.3173 7 6
    endloop
  endfacet
  facet normal 0 0 1
    outer loop
      vertex 91.494 1 6
      vertex 86.3173 7 6
      vertex 91.494 0 6
    endloop
  endfacet
  facet normal 0 0 1
    outer loop
      vertex 67.8173 7 6
      vertex 58.3173 8 6
      vertex 58.3173 7 6
    endloop
  endfacet
  facet normal 0 0 1
    outer loop
      vertex 86.3173 7 6
      vertex 81.8173 7 6
      vertex 91.494 0 6
    endloop
  endfacet
  facet normal 0 0 1
    outer loop
      vertex 81.8173 8 6
      vertex 72.3173 8 6
      vertex 81.8173 7 6
    endloop
  endfacet
  facet normal 0 0 1
    outer loop
      vertex 81.8173 7 6
      vertex 72.3173 7 6
      vertex 91.494 0 6
    endloop
  endfacet
  facet normal 0 0 1
    outer loop
      vertex 53.8173 7 6
      vertex 44.3173 8 6
      vertex 44.3173 7 6
    endloop
  endfacet
  facet normal 0 0 1
    outer loop
      vertex 72.3173 7 6
      vertex 67.8173 7 6
      vertex 91.494 0 6
    endloop
  endfacet
  facet normal 0 0 1
    outer loop
      vertex 67.8173 8 6
      vertex 58.3173 8 6
      vertex 67.8173 7 6
    endloop
  endfacet
  facet normal 0 0 1
    outer loop
      vertex 67.8173 7 6
      vertex 58.3173 7 6
      vertex 91.494 0 6
    endloop
  endfacet
  facet normal 0 0 1
    outer loop
      vertex 39.8173 7 6
      vertex 30.3173 8 6
      vertex 30.3173 7 6
    endloop
  endfacet
  facet normal 0 0 1
    outer loop
      vertex 58.3173 7 6
      vertex 53.8173 7 6
      vertex 91.494 0 6
    endloop
  endfacet
  facet normal 0 0 1
    outer loop
      vertex 53.8173 8 6
      vertex 44.3173 8 6
      vertex 53.8173 7 6
    endloop
  endfacet
  facet normal 0 0 1
    outer loop
      vertex 53.8173 7 6
      vertex 44.3173 7 6
      vertex 9.81369 0 6
    endloop
  endfacet
  facet normal 0 0 1
    outer loop
      vertex 25.8173 7 6
      vertex 16.3173 8 6
      vertex 16.3173 7 6
    endloop
  endfacet
  facet normal 0 0 1
    outer loop
      vertex 44.3173 7 6
      vertex 39.8173 7 6
      vertex 9.81369 0 6
    endloop
  endfacet
  facet normal 0 0 1
    outer loop
      vertex 39.8173 8 6
      vertex 30.3173 8 6
      vertex 39.8173 7 6
    endloop
  endfacet
  facet normal 0 0 1
    outer loop
      vertex 9.81369 0 6
      vertex 30.3173 7 6
      vertex 25.8173 7 6
    endloop
  endfacet
  facet normal 0 0 1
    outer loop
      vertex 9.81369 0 6
      vertex 8.37569 7.06329 6
      vertex 5.8882 4 6
    endloop
  endfacet
  facet normal 0 0 1
    outer loop
      vertex 9.81369 0 6
      vertex 25.8173 7 6
      vertex 16.3173 7 6
    endloop
  endfacet
  facet normal 0 0 1
    outer loop
      vertex 25.8173 8 6
      vertex 16.3173 8 6
      vertex 25.8173 7 6
    endloop
  endfacet
  facet normal 0 0 1
    outer loop
      vertex 9.81369 0 6
      vertex 16.3173 7 6
      vertex 11.8173 7 6
    endloop
  endfacet
  facet normal 0 -0 1
    outer loop
      vertex 9.81369 0 6
      vertex 11.8173 7 6
      vertex 8.37569 7.06329 6
    endloop
  endfacet
  facet normal 0 0 1
    outer loop
      vertex 11.8173 8 6
      vertex 7.22209 8 6
      vertex 8.37569 7.06329 6
    endloop
  endfacet
  facet normal 0 0 1
    outer loop
      vertex 11.8173 8 6
      vertex 8.37569 7.06329 6
      vertex 11.8173 7 6
    endloop
  endfacet
  facet normal 0 0 1
    outer loop
      vertex 39.8173 7 6
      vertex 30.3173 7 6
      vertex 9.81369 0 6
    endloop
  endfacet
  facet normal 0 0 1
    outer loop
      vertex 53.8173 7 6
      vertex 9.81369 0 6
      vertex 91.494 0 6
    endloop
  endfacet
  facet normal 0 0 1
    outer loop
      vertex 170.453 4.57399 6
      vertex 170.317 7 6
      vertex 170.314 4.83339 6
    endloop
  endfacet
  facet normal -0 0 1
    outer loop
      vertex 128.317 7 6
      vertex 160.12 2.6142 6
      vertex 137.817 7 6
    endloop
  endfacet
  facet normal 0 0 1
    outer loop
      vertex 160.694 2.5 6
      vertex 97.994 0 6
      vertex 182.626 0 6
    endloop
  endfacet
  facet normal 0 0 1
    outer loop
      vertex 167.681 3.42599 6
      vertex 162.165 3.7074 6
      vertex 162.08 3.42599 6
    endloop
  endfacet
  facet normal 0 0 1
    outer loop
      vertex 167.596 3.7074 6
      vertex 167.567 4 6
      vertex 162.165 3.7074 6
    endloop
  endfacet
  facet normal 0 0 1
    outer loop
      vertex 162.165 4.29259 6
      vertex 167.596 4.29259 6
      vertex 165.817 7 6
    endloop
  endfacet
  facet normal -0 0 1
    outer loop
      vertex 161.268 5.38579 6
      vertex 161.528 5.24719 6
      vertex 165.817 8 6
    endloop
  endfacet
  facet normal 0 -0 1
    outer loop
      vertex 162.165 4.29259 6
      vertex 165.817 7 6
      vertex 162.08 4.57399 6
    endloop
  endfacet
  facet normal 0 0 1
    outer loop
      vertex 167.681 4.57399 6
      vertex 165.817 7 6
      vertex 167.596 4.29259 6
    endloop
  endfacet
  facet normal 0 0 1
    outer loop
      vertex 167.82 4.83339 6
      vertex 165.817 7 6
      vertex 167.681 4.57399 6
    endloop
  endfacet
  facet normal 0 0 1
    outer loop
      vertex 168.007 5.0607 6
      vertex 165.817 7 6
      vertex 167.82 4.83339 6
    endloop
  endfacet
  facet normal 0 0 1
    outer loop
      vertex 168.234 5.24719 6
      vertex 165.817 7 6
      vertex 168.007 5.0607 6
    endloop
  endfacet
  facet normal 0 0 1
    outer loop
      vertex 168.493 5.38579 6
      vertex 165.817 7 6
      vertex 168.234 5.24719 6
    endloop
  endfacet
  facet normal 0 0 1
    outer loop
      vertex 168.775 5.47119 6
      vertex 165.817 7 6
      vertex 168.493 5.38579 6
    endloop
  endfacet
  facet normal 0 0 1
    outer loop
      vertex 170.317 7 6
      vertex 165.817 7 6
      vertex 168.775 5.47119 6
    endloop
  endfacet
  facet normal 0 0 1
    outer loop
      vertex 170.317 7 6
      vertex 168.775 5.47119 6
      vertex 169.067 5.5 6
    endloop
  endfacet
  facet normal 0 0 1
    outer loop
      vertex 170.317 7 6
      vertex 169.067 5.5 6
      vertex 169.36 5.47119 6
    endloop
  endfacet
  facet normal 0 0 1
    outer loop
      vertex 170.317 7 6
      vertex 169.36 5.47119 6
      vertex 169.641 5.38579 6
    endloop
  endfacet
  facet normal 0 -0 1
    outer loop
      vertex 170.128 5.0607 6
      vertex 170.317 7 6
      vertex 169.901 5.24719 6
    endloop
  endfacet
  facet normal 0 -0 1
    outer loop
      vertex 170.314 4.83339 6
      vertex 170.317 7 6
      vertex 170.128 5.0607 6
    endloop
  endfacet
  facet normal 0 -0 1
    outer loop
      vertex 170.453 4.57399 6
      vertex 179.817 7 6
      vertex 170.317 7 6
    endloop
  endfacet
  facet normal 0 -0 1
    outer loop
      vertex 170.538 4.29259 6
      vertex 179.817 7 6
      vertex 170.453 4.57399 6
    endloop
  endfacet
  facet normal 0 -0 1
    outer loop
      vertex 170.567 4 6
      vertex 179.817 7 6
      vertex 170.538 4.29259 6
    endloop
  endfacet
  facet normal 0 0 1
    outer loop
      vertex 170.538 3.7074 6
      vertex 179.817 7 6
      vertex 170.567 4 6
    endloop
  endfacet
  facet normal 0 0 1
    outer loop
      vertex 170.453 3.42599 6
      vertex 179.817 7 6
      vertex 170.538 3.7074 6
    endloop
  endfacet
  facet normal 0 0 1
    outer loop
      vertex 182.626 0 6
      vertex 179.817 7 6
      vertex 170.453 3.42599 6
    endloop
  endfacet
  facet normal 0 0 1
    outer loop
      vertex 182.626 0 6
      vertex 170.453 3.42599 6
      vertex 170.314 3.1666 6
    endloop
  endfacet
  facet normal 0 0 1
    outer loop
      vertex 182.626 0 6
      vertex 170.314 3.1666 6
      vertex 170.128 2.93929 6
    endloop
  endfacet
  facet normal 0 0 1
    outer loop
      vertex 182.626 0 6
      vertex 170.128 2.93929 6
      vertex 169.901 2.75279 6
    endloop
  endfacet
  facet normal 0 0 1
    outer loop
      vertex 182.626 0 6
      vertex 169.901 2.75279 6
      vertex 169.641 2.6142 6
    endloop
  endfacet
  facet normal 0 0 1
    outer loop
      vertex 182.626 0 6
      vertex 169.36 2.52879 6
      vertex 169.067 2.5 6
    endloop
  endfacet
  facet normal 0 0 1
    outer loop
      vertex 182.626 0 6
      vertex 169.641 2.6142 6
      vertex 169.36 2.52879 6
    endloop
  endfacet
  facet normal 0 0 1
    outer loop
      vertex 168.493 2.6142 6
      vertex 161.268 2.6142 6
      vertex 160.987 2.52879 6
    endloop
  endfacet
  facet normal 0 0 1
    outer loop
      vertex 160.12 2.6142 6
      vertex 128.317 7 6
      vertex 97.994 0 6
    endloop
  endfacet
  facet normal 0 0 1
    outer loop
      vertex 160.12 2.6142 6
      vertex 97.994 0 6
      vertex 160.402 2.52879 6
    endloop
  endfacet
  facet normal 0 0 1
    outer loop
      vertex 142.317 7 6
      vertex 160.12 2.6142 6
      vertex 159.861 2.75279 6
    endloop
  endfacet
  facet normal 0 0 1
    outer loop
      vertex 142.317 7 6
      vertex 137.817 7 6
      vertex 160.12 2.6142 6
    endloop
  endfacet
  facet normal 0 0 1
    outer loop
      vertex 159.633 2.93929 6
      vertex 142.317 7 6
      vertex 159.861 2.75279 6
    endloop
  endfacet
  facet normal 0 0 1
    outer loop
      vertex 151.817 7 6
      vertex 142.317 7 6
      vertex 159.633 2.93929 6
    endloop
  endfacet
  facet normal 0 0 1
    outer loop
      vertex 151.817 7 6
      vertex 159.447 3.1666 6
      vertex 159.308 3.42599 6
    endloop
  endfacet
  facet normal 0 0 1
    outer loop
      vertex 151.817 7 6
      vertex 159.633 2.93929 6
      vertex 159.447 3.1666 6
    endloop
  endfacet
  facet normal 0 0 1
    outer loop
      vertex 159.223 3.7074 6
      vertex 156.317 7 6
      vertex 151.817 7 6
    endloop
  endfacet
  facet normal 0 0 1
    outer loop
      vertex 159.194 4 6
      vertex 156.317 7 6
      vertex 159.223 3.7074 6
    endloop
  endfacet
  facet normal 0 0 1
    outer loop
      vertex 159.223 4.29259 6
      vertex 156.317 7 6
      vertex 159.194 4 6
    endloop
  endfacet
  facet normal 0 0 1
    outer loop
      vertex 159.308 4.57399 6
      vertex 156.317 7 6
      vertex 159.223 4.29259 6
    endloop
  endfacet
  facet normal 0 0 1
    outer loop
      vertex 159.447 4.83339 6
      vertex 156.317 7 6
      vertex 159.308 4.57399 6
    endloop
  endfacet
  facet normal 0 0 1
    outer loop
      vertex 159.633 5.0607 6
      vertex 156.317 7 6
      vertex 159.447 4.83339 6
    endloop
  endfacet
  facet normal 0 0 1
    outer loop
      vertex 159.861 5.24719 6
      vertex 156.317 7 6
      vertex 159.633 5.0607 6
    endloop
  endfacet
  facet normal 0 0 1
    outer loop
      vertex 156.317 8 6
      vertex 156.317 7 6
      vertex 159.861 5.24719 6
    endloop
  endfacet
  facet normal 0 0 1
    outer loop
      vertex 156.317 8 6
      vertex 160.12 5.38579 6
      vertex 160.402 5.47119 6
    endloop
  endfacet
  facet normal 0 0 1
    outer loop
      vertex 156.317 8 6
      vertex 159.861 5.24719 6
      vertex 160.12 5.38579 6
    endloop
  endfacet
  facet normal 0 0 1
    outer loop
      vertex 156.317 8 6
      vertex 160.402 5.47119 6
      vertex 160.694 5.5 6
    endloop
  endfacet
  facet normal 0 -0 1
    outer loop
      vertex 160.987 5.47119 6
      vertex 165.817 8 6
      vertex 160.694 5.5 6
    endloop
  endfacet
  facet normal 0 -0 1
    outer loop
      vertex 161.268 5.38579 6
      vertex 165.817 8 6
      vertex 160.987 5.47119 6
    endloop
  endfacet
  facet normal 0 0 1
    outer loop
      vertex 161.528 5.24719 6
      vertex 165.817 7 6
      vertex 165.817 8 6
    endloop
  endfacet
  facet normal -0 0 1
    outer loop
      vertex 161.755 5.0607 6
      vertex 161.941 4.83339 6
      vertex 165.817 7 6
    endloop
  endfacet
  facet normal -0 0 1
    outer loop
      vertex 161.941 4.83339 6
      vertex 162.08 4.57399 6
      vertex 165.817 7 6
    endloop
  endfacet
  facet normal 0 0 1
    outer loop
      vertex 167.596 4.29259 6
      vertex 162.165 4.29259 6
      vertex 167.567 4 6
    endloop
  endfacet
  facet normal 0 0 1
    outer loop
      vertex 162.165 4.29259 6
      vertex 162.194 4 6
      vertex 167.567 4 6
    endloop
  endfacet
  facet normal -0 0 1
    outer loop
      vertex 162.194 4 6
      vertex 162.165 3.7074 6
      vertex 167.567 4 6
    endloop
  endfacet
  facet normal -0 0 1
    outer loop
      vertex 162.165 3.7074 6
      vertex 167.681 3.42599 6
      vertex 167.596 3.7074 6
    endloop
  endfacet
  facet normal -0 0 1
    outer loop
      vertex 162.08 3.42599 6
      vertex 161.941 3.1666 6
      vertex 167.681 3.42599 6
    endloop
  endfacet
  facet normal 0 0 1
    outer loop
      vertex 161.941 3.1666 6
      vertex 167.82 3.1666 6
      vertex 167.681 3.42599 6
    endloop
  endfacet
  facet normal 0 0 1
    outer loop
      vertex 161.755 2.93929 6
      vertex 168.007 2.93929 6
      vertex 167.82 3.1666 6
    endloop
  endfacet
  facet normal 0 0 1
    outer loop
      vertex 168.234 2.75279 6
      vertex 168.007 2.93929 6
      vertex 161.755 2.93929 6
    endloop
  endfacet
  facet normal 0 0 1
    outer loop
      vertex 161.268 2.6142 6
      vertex 168.234 2.75279 6
      vertex 161.528 2.75279 6
    endloop
  endfacet
  facet normal 0 0 1
    outer loop
      vertex 168.493 2.6142 6
      vertex 168.234 2.75279 6
      vertex 161.268 2.6142 6
    endloop
  endfacet
  facet normal 0 0 1
    outer loop
      vertex 168.775 2.52879 6
      vertex 160.987 2.52879 6
      vertex 160.694 2.5 6
    endloop
  endfacet
  facet normal 0 0 1
    outer loop
      vertex 168.775 2.52879 6
      vertex 168.493 2.6142 6
      vertex 160.987 2.52879 6
    endloop
  endfacet
  facet normal 0 -1 0
    outer loop
      vertex 97.994 1 0
      vertex 91.494 1 6
      vertex 91.494 1 0
    endloop
  endfacet
  facet normal 0 -1 0
    outer loop
      vertex 97.994 1 0
      vertex 97.994 1 6
      vertex 91.494 1 6
    endloop
  endfacet
  facet normal -1 0 0
    outer loop
      vertex 97.994 0 0
      vertex 97.994 1 6
      vertex 97.994 1 0
    endloop
  endfacet
  facet normal -1 0 0
    outer loop
      vertex 97.994 0 0
      vertex 97.994 0 6
      vertex 97.994 1 6
    endloop
  endfacet
  facet normal 0 -1 0
    outer loop
      vertex 182.626 0 0
      vertex 97.994 0 6
      vertex 97.994 0 0
    endloop
  endfacet
  facet normal 0 -1 0
    outer loop
      vertex 182.626 0 0
      vertex 182.626 0 6
      vertex 97.994 0 6
    endloop
  endfacet
  facet normal 0.776289 -0.630377 0
    outer loop
      vertex 189.067 7.93188 0
      vertex 182.626 0 6
      vertex 182.626 0 0
    endloop
  endfacet
  facet normal 0.776289 -0.630377 0
    outer loop
      vertex 189.067 7.93188 0
      vertex 189.067 7.93188 6
      vertex 182.626 0 6
    endloop
  endfacet
  facet normal 1 0 0
    outer loop
      vertex 189.067 8 0
      vertex 189.067 7.93188 6
      vertex 189.067 7.93188 0
    endloop
  endfacet
  facet normal 1 0 -0
    outer loop
      vertex 189.067 8 0
      vertex 189.067 8 6
      vertex 189.067 7.93188 6
    endloop
  endfacet
  facet normal 0 1 0
    outer loop
      vertex 184.317 8 0
      vertex 189.067 8 6
      vertex 189.067 8 0
    endloop
  endfacet
  facet normal 0 1 0
    outer loop
      vertex 184.317 8 0
      vertex 184.317 8 6
      vertex 189.067 8 6
    endloop
  endfacet
  facet normal -1 0 0
    outer loop
      vertex 184.317 7 0
      vertex 184.317 8 6
      vertex 184.317 8 0
    endloop
  endfacet
  facet normal -1 0 0
    outer loop
      vertex 184.317 7 0
      vertex 184.317 7 6
      vertex 184.317 8 6
    endloop
  endfacet
  facet normal 0 1 0
    outer loop
      vertex 179.817 7 0
      vertex 184.317 7 6
      vertex 184.317 7 0
    endloop
  endfacet
  facet normal 0 1 0
    outer loop
      vertex 179.817 7 0
      vertex 179.817 7 6
      vertex 184.317 7 6
    endloop
  endfacet
  facet normal 1 0 0
    outer loop
      vertex 179.817 8 0
      vertex 179.817 7 6
      vertex 179.817 7 0
    endloop
  endfacet
  facet normal 1 0 -0
    outer loop
      vertex 179.817 8 0
      vertex 179.817 8 6
      vertex 179.817 7 6
    endloop
  endfacet
  facet normal 0 1 0
    outer loop
      vertex 170.317 8 0
      vertex 179.817 8 6
      vertex 179.817 8 0
    endloop
  endfacet
  facet normal 0 1 0
    outer loop
      vertex 170.317 8 0
      vertex 170.317 8 6
      vertex 179.817 8 6
    endloop
  endfacet
  facet normal -1 0 0
    outer loop
      vertex 170.317 7 0
      vertex 170.317 8 6
      vertex 170.317 8 0
    endloop
  endfacet
  facet normal -1 0 0
    outer loop
      vertex 170.317 7 0
      vertex 170.317 7 6
      vertex 170.317 8 6
    endloop
  endfacet
  facet normal 0 1 0
    outer loop
      vertex 165.817 7 0
      vertex 170.317 7 6
      vertex 170.317 7 0
    endloop
  endfacet
  facet normal 0 1 0
    outer loop
      vertex 165.817 7 0
      vertex 165.817 7 6
      vertex 170.317 7 6
    endloop
  endfacet
  facet normal 1 0 0
    outer loop
      vertex 165.817 8 0
      vertex 165.817 7 6
      vertex 165.817 7 0
    endloop
  endfacet
  facet normal 1 0 -0
    outer loop
      vertex 165.817 8 0
      vertex 165.817 8 6
      vertex 165.817 7 6
    endloop
  endfacet
  facet normal 0 1 0
    outer loop
      vertex 156.317 8 0
      vertex 165.817 8 6
      vertex 165.817 8 0
    endloop
  endfacet
  facet normal 0 1 0
    outer loop
      vertex 156.317 8 0
      vertex 156.317 8 6
      vertex 165.817 8 6
    endloop
  endfacet
  facet normal -1 0 0
    outer loop
      vertex 156.317 7 0
      vertex 156.317 8 6
      vertex 156.317 8 0
    endloop
  endfacet
  facet normal -1 0 0
    outer loop
      vertex 156.317 7 0
      vertex 156.317 7 6
      vertex 156.317 8 6
    endloop
  endfacet
  facet normal 0 1 0
    outer loop
      vertex 151.817 7 0
      vertex 156.317 7 6
      vertex 156.317 7 0
    endloop
  endfacet
  facet normal 0 1 0
    outer loop
      vertex 151.817 7 0
      vertex 151.817 7 6
      vertex 156.317 7 6
    endloop
  endfacet
  facet normal 1 0 0
    outer loop
      vertex 151.817 8 0
      vertex 151.817 7 6
      vertex 151.817 7 0
    endloop
  endfacet
  facet normal 1 0 -0
    outer loop
      vertex 151.817 8 0
      vertex 151.817 8 6
      vertex 151.817 7 6
    endloop
  endfacet
  facet normal 0 1 0
    outer loop
      vertex 142.317 8 0
      vertex 151.817 8 6
      vertex 151.817 8 0
    endloop
  endfacet
  facet normal 0 1 0
    outer loop
      vertex 142.317 8 0
      vertex 142.317 8 6
      vertex 151.817 8 6
    endloop
  endfacet
  facet normal -1 0 0
    outer loop
      vertex 142.317 7 0
      vertex 142.317 8 6
      vertex 142.317 8 0
    endloop
  endfacet
  facet normal -1 0 0
    outer loop
      vertex 142.317 7 0
      vertex 142.317 7 6
      vertex 142.317 8 6
    endloop
  endfacet
  facet normal 0 1 0
    outer loop
      vertex 137.817 7 0
      vertex 142.317 7 6
      vertex 142.317 7 0
    endloop
  endfacet
  facet normal 0 1 0
    outer loop
      vertex 137.817 7 0
      vertex 137.817 7 6
      vertex 142.317 7 6
    endloop
  endfacet
  facet normal 1 0 0
    outer loop
      vertex 137.817 8 0
      vertex 137.817 7 6
      vertex 137.817 7 0
    endloop
  endfacet
  facet normal 1 0 -0
    outer loop
      vertex 137.817 8 0
      vertex 137.817 8 6
      vertex 137.817 7 6
    endloop
  endfacet
  facet normal 0 1 0
    outer loop
      vertex 128.317 8 0
      vertex 137.817 8 6
      vertex 137.817 8 0
    endloop
  endfacet
  facet normal 0 1 0
    outer loop
      vertex 128.317 8 0
      vertex 128.317 8 6
      vertex 137.817 8 6
    endloop
  endfacet
  facet normal -1 0 0
    outer loop
      vertex 128.317 7 0
      vertex 128.317 8 6
      vertex 128.317 8 0
    endloop
  endfacet
  facet normal -1 0 0
    outer loop
      vertex 128.317 7 0
      vertex 128.317 7 6
      vertex 128.317 8 6
    endloop
  endfacet
  facet normal 0 1 0
    outer loop
      vertex 123.817 7 0
      vertex 128.317 7 6
      vertex 128.317 7 0
    endloop
  endfacet
  facet normal 0 1 0
    outer loop
      vertex 123.817 7 0
      vertex 123.817 7 6
      vertex 128.317 7 6
    endloop
  endfacet
  facet normal 1 0 0
    outer loop
      vertex 123.817 8 0
      vertex 123.817 7 6
      vertex 123.817 7 0
    endloop
  endfacet
  facet normal 1 0 -0
    outer loop
      vertex 123.817 8 0
      vertex 123.817 8 6
      vertex 123.817 7 6
    endloop
  endfacet
  facet normal 0 1 0
    outer loop
      vertex 114.317 8 0
      vertex 123.817 8 6
      vertex 123.817 8 0
    endloop
  endfacet
  facet normal 0 1 0
    outer loop
      vertex 114.317 8 0
      vertex 114.317 8 6
      vertex 123.817 8 6
    endloop
  endfacet
  facet normal -1 0 0
    outer loop
      vertex 114.317 7 0
      vertex 114.317 8 6
      vertex 114.317 8 0
    endloop
  endfacet
  facet normal -1 0 0
    outer loop
      vertex 114.317 7 0
      vertex 114.317 7 6
      vertex 114.317 8 6
    endloop
  endfacet
  facet normal 0 1 0
    outer loop
      vertex 109.817 7 0
      vertex 114.317 7 6
      vertex 114.317 7 0
    endloop
  endfacet
  facet normal 0 1 0
    outer loop
      vertex 109.817 7 0
      vertex 109.817 7 6
      vertex 114.317 7 6
    endloop
  endfacet
  facet normal 1 0 0
    outer loop
      vertex 109.817 8 0
      vertex 109.817 7 6
      vertex 109.817 7 0
    endloop
  endfacet
  facet normal 1 0 -0
    outer loop
      vertex 109.817 8 0
      vertex 109.817 8 6
      vertex 109.817 7 6
    endloop
  endfacet
  facet normal 0 1 0
    outer loop
      vertex 100.317 8 0
      vertex 109.817 8 6
      vertex 109.817 8 0
    endloop
  endfacet
  facet normal 0 1 0
    outer loop
      vertex 100.317 8 0
      vertex 100.317 8 6
      vertex 109.817 8 6
    endloop
  endfacet
  facet normal -1 0 0
    outer loop
      vertex 100.317 7 0
      vertex 100.317 8 6
      vertex 100.317 8 0
    endloop
  endfacet
  facet normal -1 0 0
    outer loop
      vertex 100.317 7 0
      vertex 100.317 7 6
      vertex 100.317 8 6
    endloop
  endfacet
  facet normal 0 1 0
    outer loop
      vertex 95.8173 7 0
      vertex 100.317 7 6
      vertex 100.317 7 0
    endloop
  endfacet
  facet normal 0 1 0
    outer loop
      vertex 95.8173 7 0
      vertex 95.8173 7 6
      vertex 100.317 7 6
    endloop
  endfacet
  facet normal 1 0 0
    outer loop
      vertex 95.8173 8 0
      vertex 95.8173 7 6
      vertex 95.8173 7 0
    endloop
  endfacet
  facet normal 1 0 -0
    outer loop
      vertex 95.8173 8 0
      vertex 95.8173 8 6
      vertex 95.8173 7 6
    endloop
  endfacet
  facet normal 0 1 0
    outer loop
      vertex 86.3173 8 0
      vertex 95.8173 8 6
      vertex 95.8173 8 0
    endloop
  endfacet
  facet normal 0 1 0
    outer loop
      vertex 86.3173 8 0
      vertex 86.3173 8 6
      vertex 95.8173 8 6
    endloop
  endfacet
  facet normal -1 0 0
    outer loop
      vertex 86.3173 7 0
      vertex 86.3173 8 6
      vertex 86.3173 8 0
    endloop
  endfacet
  facet normal -1 0 0
    outer loop
      vertex 86.3173 7 0
      vertex 86.3173 7 6
      vertex 86.3173 8 6
    endloop
  endfacet
  facet normal 0 1 0
    outer loop
      vertex 81.8173 7 0
      vertex 86.3173 7 6
      vertex 86.3173 7 0
    endloop
  endfacet
  facet normal 0 1 0
    outer loop
      vertex 81.8173 7 0
      vertex 81.8173 7 6
      vertex 86.3173 7 6
    endloop
  endfacet
  facet normal 1 0 0
    outer loop
      vertex 81.8173 8 0
      vertex 81.8173 7 6
      vertex 81.8173 7 0
    endloop
  endfacet
  facet normal 1 0 -0
    outer loop
      vertex 81.8173 8 0
      vertex 81.8173 8 6
      vertex 81.8173 7 6
    endloop
  endfacet
  facet normal 0 1 0
    outer loop
      vertex 72.3173 8 0
      vertex 81.8173 8 6
      vertex 81.8173 8 0
    endloop
  endfacet
  facet normal 0 1 0
    outer loop
      vertex 72.3173 8 0
      vertex 72.3173 8 6
      vertex 81.8173 8 6
    endloop
  endfacet
  facet normal -1 0 0
    outer loop
      vertex 72.3173 7 0
      vertex 72.3173 8 6
      vertex 72.3173 8 0
    endloop
  endfacet
  facet normal -1 0 0
    outer loop
      vertex 72.3173 7 0
      vertex 72.3173 7 6
      vertex 72.3173 8 6
    endloop
  endfacet
  facet normal 0 1 0
    outer loop
      vertex 67.8173 7 0
      vertex 72.3173 7 6
      vertex 72.3173 7 0
    endloop
  endfacet
  facet normal 0 1 0
    outer loop
      vertex 67.8173 7 0
      vertex 67.8173 7 6
      vertex 72.3173 7 6
    endloop
  endfacet
  facet normal 1 0 0
    outer loop
      vertex 67.8173 8 0
      vertex 67.8173 7 6
      vertex 67.8173 7 0
    endloop
  endfacet
  facet normal 1 0 -0
    outer loop
      vertex 67.8173 8 0
      vertex 67.8173 8 6
      vertex 67.8173 7 6
    endloop
  endfacet
  facet normal 0 1 0
    outer loop
      vertex 58.3173 8 0
      vertex 67.8173 8 6
      vertex 67.8173 8 0
    endloop
  endfacet
  facet normal 0 1 0
    outer loop
      vertex 58.3173 8 0
      vertex 58.3173 8 6
      vertex 67.8173 8 6
    endloop
  endfacet
  facet normal -1 0 0
    outer loop
      vertex 58.3173 7 0
      vertex 58.3173 8 6
      vertex 58.3173 8 0
    endloop
  endfacet
  facet normal -1 0 0
    outer loop
      vertex 58.3173 7 0
      vertex 58.3173 7 6
      vertex 58.3173 8 6
    endloop
  endfacet
  facet normal 0 1 0
    outer loop
      vertex 53.8173 7 0
      vertex 58.3173 7 6
      vertex 58.3173 7 0
    endloop
  endfacet
  facet normal 0 1 0
    outer loop
      vertex 53.8173 7 0
      vertex 53.8173 7 6
      vertex 58.3173 7 6
    endloop
  endfacet
  facet normal 1 0 0
    outer loop
      vertex 53.8173 8 0
      vertex 53.8173 7 6
      vertex 53.8173 7 0
    endloop
  endfacet
  facet normal 1 0 -0
    outer loop
      vertex 53.8173 8 0
      vertex 53.8173 8 6
      vertex 53.8173 7 6
    endloop
  endfacet
  facet normal 0 1 0
    outer loop
      vertex 44.3173 8 0
      vertex 53.8173 8 6
      vertex 53.8173 8 0
    endloop
  endfacet
  facet normal 0 1 0
    outer loop
      vertex 44.3173 8 0
      vertex 44.3173 8 6
      vertex 53.8173 8 6
    endloop
  endfacet
  facet normal -1 0 0
    outer loop
      vertex 44.3173 7 0
      vertex 44.3173 8 6
      vertex 44.3173 8 0
    endloop
  endfacet
  facet normal -1 0 0
    outer loop
      vertex 44.3173 7 0
      vertex 44.3173 7 6
      vertex 44.3173 8 6
    endloop
  endfacet
  facet normal 0 1 0
    outer loop
      vertex 39.8173 7 0
      vertex 44.3173 7 6
      vertex 44.3173 7 0
    endloop
  endfacet
  facet normal 0 1 0
    outer loop
      vertex 39.8173 7 0
      vertex 39.8173 7 6
      vertex 44.3173 7 6
    endloop
  endfacet
  facet normal 1 0 0
    outer loop
      vertex 39.8173 8 0
      vertex 39.8173 7 6
      vertex 39.8173 7 0
    endloop
  endfacet
  facet normal 1 0 -0
    outer loop
      vertex 39.8173 8 0
      vertex 39.8173 8 6
      vertex 39.8173 7 6
    endloop
  endfacet
  facet normal 0 1 0
    outer loop
      vertex 30.3173 8 0
      vertex 39.8173 8 6
      vertex 39.8173 8 0
    endloop
  endfacet
  facet normal 0 1 0
    outer loop
      vertex 30.3173 8 0
      vertex 30.3173 8 6
      vertex 39.8173 8 6
    endloop
  endfacet
  facet normal -1 0 0
    outer loop
      vertex 30.3173 7 0
      vertex 30.3173 8 6
      vertex 30.3173 8 0
    endloop
  endfacet
  facet normal -1 0 0
    outer loop
      vertex 30.3173 7 0
      vertex 30.3173 7 6
      vertex 30.3173 8 6
    endloop
  endfacet
  facet normal 0 1 0
    outer loop
      vertex 25.8173 7 0
      vertex 30.3173 7 6
      vertex 30.3173 7 0
    endloop
  endfacet
  facet normal 0 1 0
    outer loop
      vertex 25.8173 7 0
      vertex 25.8173 7 6
      vertex 30.3173 7 6
    endloop
  endfacet
  facet normal 1 0 0
    outer loop
      vertex 25.8173 8 0
      vertex 25.8173 7 6
      vertex 25.8173 7 0
    endloop
  endfacet
  facet normal 1 0 -0
    outer loop
      vertex 25.8173 8 0
      vertex 25.8173 8 6
      vertex 25.8173 7 6
    endloop
  endfacet
  facet normal 0 1 0
    outer loop
      vertex 16.3173 8 0
      vertex 25.8173 8 6
      vertex 25.8173 8 0
    endloop
  endfacet
  facet normal 0 1 0
    outer loop
      vertex 16.3173 8 0
      vertex 16.3173 8 6
      vertex 25.8173 8 6
    endloop
  endfacet
  facet normal -1 0 0
    outer loop
      vertex 16.3173 7 0
      vertex 16.3173 8 6
      vertex 16.3173 8 0
    endloop
  endfacet
  facet normal -1 0 0
    outer loop
      vertex 16.3173 7 0
      vertex 16.3173 7 6
      vertex 16.3173 8 6
    endloop
  endfacet
  facet normal 0 1 0
    outer loop
      vertex 11.8173 7 0
      vertex 16.3173 7 6
      vertex 16.3173 7 0
    endloop
  endfacet
  facet normal 0 1 0
    outer loop
      vertex 11.8173 7 0
      vertex 11.8173 7 6
      vertex 16.3173 7 6
    endloop
  endfacet
  facet normal 1 0 0
    outer loop
      vertex 11.8173 8 0
      vertex 11.8173 7 6
      vertex 11.8173 7 0
    endloop
  endfacet
  facet normal 1 0 -0
    outer loop
      vertex 11.8173 8 0
      vertex 11.8173 8 6
      vertex 11.8173 7 6
    endloop
  endfacet
  facet normal 0 1 0
    outer loop
      vertex 7.22209 8 0
      vertex 11.8173 8 6
      vertex 11.8173 8 0
    endloop
  endfacet
  facet normal 0 1 0
    outer loop
      vertex 7.22209 8 0
      vertex 7.22209 8 6
      vertex 11.8173 8 6
    endloop
  endfacet
  facet normal -0.630353 -0.776308 0
    outer loop
      vertex 8.37569 7.06329 0
      vertex 7.22209 8 6
      vertex 7.22209 8 0
    endloop
  endfacet
  facet normal -0.630353 -0.776308 0
    outer loop
      vertex 8.37569 7.06329 0
      vertex 8.37569 7.06329 6
      vertex 7.22209 8 6
    endloop
  endfacet
  facet normal -0.776292 0.630374 0
    outer loop
      vertex 5.8882 4 0
      vertex 8.37569 7.06329 6
      vertex 8.37569 7.06329 0
    endloop
  endfacet
  facet normal -0.776292 0.630374 0
    outer loop
      vertex 5.8882 4 0
      vertex 5.8882 4 6
      vertex 8.37569 7.06329 6
    endloop
  endfacet
  facet normal -0.713723 -0.700428 0
    outer loop
      vertex 9.81369 0 0
      vertex 5.8882 4 6
      vertex 5.8882 4 0
    endloop
  endfacet
  facet normal -0.713723 -0.700428 0
    outer loop
      vertex 9.81369 0 0
      vertex 9.81369 0 6
      vertex 5.8882 4 6
    endloop
  endfacet
  facet normal 0 -1 0
    outer loop
      vertex 91.494 0 0
      vertex 9.81369 0 6
      vertex 9.81369 0 0
    endloop
  endfacet
  facet normal 0 -1 0
    outer loop
      vertex 91.494 0 0
      vertex 91.494 0 6
      vertex 9.81369 0 6
    endloop
  endfacet
  facet normal 1 0 0
    outer loop
      vertex 91.494 1 0
      vertex 91.494 0 6
      vertex 91.494 0 0
    endloop
  endfacet
  facet normal 1 0 -0
    outer loop
      vertex 91.494 1 0
      vertex 91.494 1 6
      vertex 91.494 0 6
    endloop
  endfacet
  facet normal 0.289869 0.957066 -0
    outer loop
      vertex 168.493 2.6142 0
      vertex 168.493 2.6142 6
      vertex 168.775 2.52879 0
    endloop
  endfacet
  facet normal 0.289869 0.957066 0
    outer loop
      vertex 168.775 2.52879 6
      vertex 168.775 2.52879 0
      vertex 168.493 2.6142 6
    endloop
  endfacet
  facet normal 0.471798 0.881707 -0
    outer loop
      vertex 168.234 2.75279 0
      vertex 168.234 2.75279 6
      vertex 168.493 2.6142 0
    endloop
  endfacet
  facet normal 0.471798 0.881707 0
    outer loop
      vertex 168.493 2.6142 6
      vertex 168.493 2.6142 0
      vertex 168.234 2.75279 6
    endloop
  endfacet
  facet normal 0.634812 0.772667 -0
    outer loop
      vertex 168.007 2.93929 0
      vertex 168.007 2.93929 6
      vertex 168.234 2.75279 0
    endloop
  endfacet
  facet normal 0.634812 0.772667 0
    outer loop
      vertex 168.234 2.75279 6
      vertex 168.234 2.75279 0
      vertex 168.007 2.93929 6
    endloop
  endfacet
  facet normal 0.772258 0.635309 -0
    outer loop
      vertex 167.82 3.1666 0
      vertex 167.82 3.1666 6
      vertex 168.007 2.93929 0
    endloop
  endfacet
  facet normal 0.772258 0.635309 0
    outer loop
      vertex 168.007 2.93929 6
      vertex 168.007 2.93929 0
      vertex 167.82 3.1666 6
    endloop
  endfacet
  facet normal 0.881422 0.47233 -0
    outer loop
      vertex 167.681 3.42599 0
      vertex 167.681 3.42599 6
      vertex 167.82 3.1666 0
    endloop
  endfacet
  facet normal 0.881422 0.47233 0
    outer loop
      vertex 167.82 3.1666 6
      vertex 167.82 3.1666 0
      vertex 167.681 3.42599 6
    endloop
  endfacet
  facet normal 0.957284 0.289148 -0
    outer loop
      vertex 167.596 3.7074 0
      vertex 167.596 3.7074 6
      vertex 167.681 3.42599 0
    endloop
  endfacet
  facet normal 0.957284 0.289148 0
    outer loop
      vertex 167.681 3.42599 6
      vertex 167.681 3.42599 0
      vertex 167.596 3.7074 6
    endloop
  endfacet
  facet normal 0.995124 0.0986282 -0
    outer loop
      vertex 167.567 4 0
      vertex 167.567 4 6
      vertex 167.596 3.7074 0
    endloop
  endfacet
  facet normal 0.995124 0.0986282 0
    outer loop
      vertex 167.596 3.7074 6
      vertex 167.596 3.7074 0
      vertex 167.567 4 6
    endloop
  endfacet
  facet normal 0.995124 -0.0986315 0
    outer loop
      vertex 167.596 4.29259 0
      vertex 167.596 4.29259 6
      vertex 167.567 4 0
    endloop
  endfacet
  facet normal 0.995124 -0.0986315 0
    outer loop
      vertex 167.567 4 6
      vertex 167.567 4 0
      vertex 167.596 4.29259 6
    endloop
  endfacet
  facet normal 0.957282 -0.289158 0
    outer loop
      vertex 167.681 4.57399 0
      vertex 167.681 4.57399 6
      vertex 167.596 4.29259 0
    endloop
  endfacet
  facet normal 0.957282 -0.289158 0
    outer loop
      vertex 167.596 4.29259 6
      vertex 167.596 4.29259 0
      vertex 167.681 4.57399 6
    endloop
  endfacet
  facet normal 0.881429 -0.472316 0
    outer loop
      vertex 167.82 4.83339 0
      vertex 167.82 4.83339 6
      vertex 167.681 4.57399 0
    endloop
  endfacet
  facet normal 0.881429 -0.472316 0
    outer loop
      vertex 167.681 4.57399 6
      vertex 167.681 4.57399 0
      vertex 167.82 4.83339 6
    endloop
  endfacet
  facet normal 0.772258 -0.635309 0
    outer loop
      vertex 168.007 5.0607 0
      vertex 168.007 5.0607 6
      vertex 167.82 4.83339 0
    endloop
  endfacet
  facet normal 0.772258 -0.635309 0
    outer loop
      vertex 167.82 4.83339 6
      vertex 167.82 4.83339 0
      vertex 168.007 5.0607 6
    endloop
  endfacet
  facet normal 0.634792 -0.772683 0
    outer loop
      vertex 168.234 5.24719 0
      vertex 168.234 5.24719 6
      vertex 168.007 5.0607 0
    endloop
  endfacet
  facet normal 0.634792 -0.772683 0
    outer loop
      vertex 168.007 5.0607 6
      vertex 168.007 5.0607 0
      vertex 168.234 5.24719 6
    endloop
  endfacet
  facet normal 0.471825 -0.881692 0
    outer loop
      vertex 168.493 5.38579 0
      vertex 168.493 5.38579 6
      vertex 168.234 5.24719 0
    endloop
  endfacet
  facet normal 0.471825 -0.881692 0
    outer loop
      vertex 168.234 5.24719 6
      vertex 168.234 5.24719 0
      vertex 168.493 5.38579 6
    endloop
  endfacet
  facet normal 0.289838 -0.957076 0
    outer loop
      vertex 168.775 5.47119 0
      vertex 168.775 5.47119 6
      vertex 168.493 5.38579 0
    endloop
  endfacet
  facet normal 0.289838 -0.957076 0
    outer loop
      vertex 168.493 5.38579 6
      vertex 168.493 5.38579 0
      vertex 168.775 5.47119 6
    endloop
  endfacet
  facet normal 0.0981876 -0.995168 0
    outer loop
      vertex 169.067 5.5 0
      vertex 169.067 5.5 6
      vertex 168.775 5.47119 0
    endloop
  endfacet
  facet normal 0.0981876 -0.995168 0
    outer loop
      vertex 168.775 5.47119 6
      vertex 168.775 5.47119 0
      vertex 169.067 5.5 6
    endloop
  endfacet
  facet normal -0.0978557 -0.995201 0
    outer loop
      vertex 169.36 5.47119 0
      vertex 169.36 5.47119 6
      vertex 169.067 5.5 0
    endloop
  endfacet
  facet normal -0.0978557 -0.995201 -0
    outer loop
      vertex 169.067 5.5 6
      vertex 169.067 5.5 0
      vertex 169.36 5.47119 6
    endloop
  endfacet
  facet normal -0.290782 -0.956789 0
    outer loop
      vertex 169.641 5.38579 0
      vertex 169.641 5.38579 6
      vertex 169.36 5.47119 0
    endloop
  endfacet
  facet normal -0.290782 -0.956789 -0
    outer loop
      vertex 169.36 5.47119 6
      vertex 169.36 5.47119 0
      vertex 169.641 5.38579 6
    endloop
  endfacet
  facet normal -0.470412 -0.882447 0
    outer loop
      vertex 169.901 5.24719 0
      vertex 169.901 5.24719 6
      vertex 169.641 5.38579 0
    endloop
  endfacet
  facet normal -0.470412 -0.882447 -0
    outer loop
      vertex 169.641 5.38579 6
      vertex 169.641 5.38579 0
      vertex 169.901 5.24719 6
    endloop
  endfacet
  facet normal -0.634792 -0.772683 0
    outer loop
      vertex 170.128 5.0607 0
      vertex 170.128 5.0607 6
      vertex 169.901 5.24719 0
    endloop
  endfacet
  facet normal -0.634792 -0.772683 -0
    outer loop
      vertex 169.901 5.24719 6
      vertex 169.901 5.24719 0
      vertex 170.128 5.0607 6
    endloop
  endfacet
  facet normal -0.773925 -0.633277 0
    outer loop
      vertex 170.314 4.83339 0
      vertex 170.314 4.83339 6
      vertex 170.128 5.0607 0
    endloop
  endfacet
  facet normal -0.773925 -0.633277 -0
    outer loop
      vertex 170.128 5.0607 6
      vertex 170.128 5.0607 0
      vertex 170.314 4.83339 6
    endloop
  endfacet
  facet normal -0.881429 -0.472316 0
    outer loop
      vertex 170.453 4.57399 0
      vertex 170.453 4.57399 6
      vertex 170.314 4.83339 0
    endloop
  endfacet
  facet normal -0.881429 -0.472316 -0
    outer loop
      vertex 170.314 4.83339 6
      vertex 170.314 4.83339 0
      vertex 170.453 4.57399 6
    endloop
  endfacet
  facet normal -0.957282 -0.289158 0
    outer loop
      vertex 170.538 4.29259 0
      vertex 170.538 4.29259 6
      vertex 170.453 4.57399 0
    endloop
  endfacet
  facet normal -0.957282 -0.289158 -0
    outer loop
      vertex 170.453 4.57399 6
      vertex 170.453 4.57399 0
      vertex 170.538 4.29259 6
    endloop
  endfacet
  facet normal -0.995124 -0.0986315 0
    outer loop
      vertex 170.567 4 0
      vertex 170.567 4 6
      vertex 170.538 4.29259 0
    endloop
  endfacet
  facet normal -0.995124 -0.0986315 -0
    outer loop
      vertex 170.538 4.29259 6
      vertex 170.538 4.29259 0
      vertex 170.567 4 6
    endloop
  endfacet
  facet normal -0.995124 0.0986282 0
    outer loop
      vertex 170.538 3.7074 0
      vertex 170.538 3.7074 6
      vertex 170.567 4 0
    endloop
  endfacet
  facet normal -0.995124 0.0986282 0
    outer loop
      vertex 170.567 4 6
      vertex 170.567 4 0
      vertex 170.538 3.7074 6
    endloop
  endfacet
  facet normal -0.957284 0.289148 0
    outer loop
      vertex 170.453 3.42599 0
      vertex 170.453 3.42599 6
      vertex 170.538 3.7074 0
    endloop
  endfacet
  facet normal -0.957284 0.289148 0
    outer loop
      vertex 170.538 3.7074 6
      vertex 170.538 3.7074 0
      vertex 170.453 3.42599 6
    endloop
  endfacet
  facet normal -0.881422 0.47233 0
    outer loop
      vertex 170.314 3.1666 0
      vertex 170.314 3.1666 6
      vertex 170.453 3.42599 0
    endloop
  endfacet
  facet normal -0.881422 0.47233 0
    outer loop
      vertex 170.453 3.42599 6
      vertex 170.453 3.42599 0
      vertex 170.314 3.1666 6
    endloop
  endfacet
  facet normal -0.773925 0.633277 0
    outer loop
      vertex 170.128 2.93929 0
      vertex 170.128 2.93929 6
      vertex 170.314 3.1666 0
    endloop
  endfacet
  facet normal -0.773925 0.633277 0
    outer loop
      vertex 170.314 3.1666 6
      vertex 170.314 3.1666 0
      vertex 170.128 2.93929 6
    endloop
  endfacet
  facet normal -0.634812 0.772667 0
    outer loop
      vertex 169.901 2.75279 0
      vertex 169.901 2.75279 6
      vertex 170.128 2.93929 0
    endloop
  endfacet
  facet normal -0.634812 0.772667 0
    outer loop
      vertex 170.128 2.93929 6
      vertex 170.128 2.93929 0
      vertex 169.901 2.75279 6
    endloop
  endfacet
  facet normal -0.470386 0.882461 0
    outer loop
      vertex 169.641 2.6142 0
      vertex 169.641 2.6142 6
      vertex 169.901 2.75279 0
    endloop
  endfacet
  facet normal -0.470386 0.882461 0
    outer loop
      vertex 169.901 2.75279 6
      vertex 169.901 2.75279 0
      vertex 169.641 2.6142 6
    endloop
  endfacet
  facet normal -0.290813 0.95678 0
    outer loop
      vertex 169.36 2.52879 0
      vertex 169.36 2.52879 6
      vertex 169.641 2.6142 0
    endloop
  endfacet
  facet normal -0.290813 0.95678 0
    outer loop
      vertex 169.641 2.6142 6
      vertex 169.641 2.6142 0
      vertex 169.36 2.52879 6
    endloop
  endfacet
  facet normal -0.0977885 0.995207 0
    outer loop
      vertex 169.067 2.5 0
      vertex 169.067 2.5 6
      vertex 169.36 2.52879 0
    endloop
  endfacet
  facet normal -0.0977885 0.995207 0
    outer loop
      vertex 169.36 2.52879 6
      vertex 169.36 2.52879 0
      vertex 169.067 2.5 6
    endloop
  endfacet
  facet normal 0.0981201 0.995175 -0
    outer loop
      vertex 168.775 2.52879 0
      vertex 168.775 2.52879 6
      vertex 169.067 2.5 0
    endloop
  endfacet
  facet normal 0.0981201 0.995175 0
    outer loop
      vertex 169.067 2.5 6
      vertex 169.067 2.5 0
      vertex 168.775 2.52879 6
    endloop
  endfacet
  facet normal 0.289869 0.957066 -0
    outer loop
      vertex 160.12 2.6142 0
      vertex 160.12 2.6142 6
      vertex 160.402 2.52879 0
    endloop
  endfacet
  facet normal 0.289869 0.957066 0
    outer loop
      vertex 160.402 2.52879 6
      vertex 160.402 2.52879 0
      vertex 160.12 2.6142 6
    endloop
  endfacet
  facet normal 0.471798 0.881707 -0
    outer loop
      vertex 159.861 2.75279 0
      vertex 159.861 2.75279 6
      vertex 160.12 2.6142 0
    endloop
  endfacet
  facet normal 0.471798 0.881707 0
    outer loop
      vertex 160.12 2.6142 6
      vertex 160.12 2.6142 0
      vertex 159.861 2.75279 6
    endloop
  endfacet
  facet normal 0.633145 0.774033 -0
    outer loop
      vertex 159.633 2.93929 0
      vertex 159.633 2.93929 6
      vertex 159.861 2.75279 0
    endloop
  endfacet
  facet normal 0.633145 0.774033 0
    outer loop
      vertex 159.861 2.75279 6
      vertex 159.861 2.75279 0
      vertex 159.633 2.93929 6
    endloop
  endfacet
  facet normal 0.773925 0.633277 -0
    outer loop
      vertex 159.447 3.1666 0
      vertex 159.447 3.1666 6
      vertex 159.633 2.93929 0
    endloop
  endfacet
  facet normal 0.773925 0.633277 0
    outer loop
      vertex 159.633 2.93929 6
      vertex 159.633 2.93929 0
      vertex 159.447 3.1666 6
    endloop
  endfacet
  facet normal 0.881422 0.47233 -0
    outer loop
      vertex 159.308 3.42599 0
      vertex 159.308 3.42599 6
      vertex 159.447 3.1666 0
    endloop
  endfacet
  facet normal 0.881422 0.47233 0
    outer loop
      vertex 159.447 3.1666 6
      vertex 159.447 3.1666 0
      vertex 159.308 3.42599 6
    endloop
  endfacet
  facet normal 0.957284 0.289148 -0
    outer loop
      vertex 159.223 3.7074 0
      vertex 159.223 3.7074 6
      vertex 159.308 3.42599 0
    endloop
  endfacet
  facet normal 0.957284 0.289148 0
    outer loop
      vertex 159.308 3.42599 6
      vertex 159.308 3.42599 0
      vertex 159.223 3.7074 6
    endloop
  endfacet
  facet normal 0.995124 0.0986282 -0
    outer loop
      vertex 159.194 4 0
      vertex 159.194 4 6
      vertex 159.223 3.7074 0
    endloop
  endfacet
  facet normal 0.995124 0.0986282 0
    outer loop
      vertex 159.223 3.7074 6
      vertex 159.223 3.7074 0
      vertex 159.194 4 6
    endloop
  endfacet
  facet normal 0.995124 -0.0986315 0
    outer loop
      vertex 159.223 4.29259 0
      vertex 159.223 4.29259 6
      vertex 159.194 4 0
    endloop
  endfacet
  facet normal 0.995124 -0.0986315 0
    outer loop
      vertex 159.194 4 6
      vertex 159.194 4 0
      vertex 159.223 4.29259 6
    endloop
  endfacet
  facet normal 0.957282 -0.289158 0
    outer loop
      vertex 159.308 4.57399 0
      vertex 159.308 4.57399 6
      vertex 159.223 4.29259 0
    endloop
  endfacet
  facet normal 0.957282 -0.289158 0
    outer loop
      vertex 159.223 4.29259 6
      vertex 159.223 4.29259 0
      vertex 159.308 4.57399 6
    endloop
  endfacet
  facet normal 0.881429 -0.472316 0
    outer loop
      vertex 159.447 4.83339 0
      vertex 159.447 4.83339 6
      vertex 159.308 4.57399 0
    endloop
  endfacet
  facet normal 0.881429 -0.472316 0
    outer loop
      vertex 159.308 4.57399 6
      vertex 159.308 4.57399 0
      vertex 159.447 4.83339 6
    endloop
  endfacet
  facet normal 0.773925 -0.633277 0
    outer loop
      vertex 159.633 5.0607 0
      vertex 159.633 5.0607 6
      vertex 159.447 4.83339 0
    endloop
  endfacet
  facet normal 0.773925 -0.633277 0
    outer loop
      vertex 159.447 4.83339 6
      vertex 159.447 4.83339 0
      vertex 159.633 5.0607 6
    endloop
  endfacet
  facet normal 0.633125 -0.77405 0
    outer loop
      vertex 159.861 5.24719 0
      vertex 159.861 5.24719 6
      vertex 159.633 5.0607 0
    endloop
  endfacet
  facet normal 0.633125 -0.77405 0
    outer loop
      vertex 159.633 5.0607 6
      vertex 159.633 5.0607 0
      vertex 159.861 5.24719 6
    endloop
  endfacet
  facet normal 0.471825 -0.881692 0
    outer loop
      vertex 160.12 5.38579 0
      vertex 160.12 5.38579 6
      vertex 159.861 5.24719 0
    endloop
  endfacet
  facet normal 0.471825 -0.881692 0
    outer loop
      vertex 159.861 5.24719 6
      vertex 159.861 5.24719 0
      vertex 160.12 5.38579 6
    endloop
  endfacet
  facet normal 0.289838 -0.957076 0
    outer loop
      vertex 160.402 5.47119 0
      vertex 160.402 5.47119 6
      vertex 160.12 5.38579 0
    endloop
  endfacet
  facet normal 0.289838 -0.957076 0
    outer loop
      vertex 160.12 5.38579 6
      vertex 160.12 5.38579 0
      vertex 160.402 5.47119 6
    endloop
  endfacet
  facet normal 0.0981876 -0.995168 0
    outer loop
      vertex 160.694 5.5 0
      vertex 160.694 5.5 6
      vertex 160.402 5.47119 0
    endloop
  endfacet
  facet normal 0.0981876 -0.995168 0
    outer loop
      vertex 160.402 5.47119 6
      vertex 160.402 5.47119 0
      vertex 160.694 5.5 6
    endloop
  endfacet
  facet normal -0.0978557 -0.995201 0
    outer loop
      vertex 160.987 5.47119 0
      vertex 160.987 5.47119 6
      vertex 160.694 5.5 0
    endloop
  endfacet
  facet normal -0.0978557 -0.995201 -0
    outer loop
      vertex 160.694 5.5 6
      vertex 160.694 5.5 0
      vertex 160.987 5.47119 6
    endloop
  endfacet
  facet normal -0.290782 -0.956789 0
    outer loop
      vertex 161.268 5.38579 0
      vertex 161.268 5.38579 6
      vertex 160.987 5.47119 0
    endloop
  endfacet
  facet normal -0.290782 -0.956789 -0
    outer loop
      vertex 160.987 5.47119 6
      vertex 160.987 5.47119 0
      vertex 161.268 5.38579 6
    endloop
  endfacet
  facet normal -0.470412 -0.882447 0
    outer loop
      vertex 161.528 5.24719 0
      vertex 161.528 5.24719 6
      vertex 161.268 5.38579 0
    endloop
  endfacet
  facet normal -0.470412 -0.882447 -0
    outer loop
      vertex 161.268 5.38579 6
      vertex 161.268 5.38579 0
      vertex 161.528 5.24719 6
    endloop
  endfacet
  facet normal -0.634792 -0.772683 0
    outer loop
      vertex 161.755 5.0607 0
      vertex 161.755 5.0607 6
      vertex 161.528 5.24719 0
    endloop
  endfacet
  facet normal -0.634792 -0.772683 -0
    outer loop
      vertex 161.528 5.24719 6
      vertex 161.528 5.24719 0
      vertex 161.755 5.0607 6
    endloop
  endfacet
  facet normal -0.773925 -0.633277 0
    outer loop
      vertex 161.941 4.83339 0
      vertex 161.941 4.83339 6
      vertex 161.755 5.0607 0
    endloop
  endfacet
  facet normal -0.773925 -0.633277 -0
    outer loop
      vertex 161.755 5.0607 6
      vertex 161.755 5.0607 0
      vertex 161.941 4.83339 6
    endloop
  endfacet
  facet normal -0.881429 -0.472316 0
    outer loop
      vertex 162.08 4.57399 0
      vertex 162.08 4.57399 6
      vertex 161.941 4.83339 0
    endloop
  endfacet
  facet normal -0.881429 -0.472316 -0
    outer loop
      vertex 161.941 4.83339 6
      vertex 161.941 4.83339 0
      vertex 162.08 4.57399 6
    endloop
  endfacet
  facet normal -0.957282 -0.289158 0
    outer loop
      vertex 162.165 4.29259 0
      vertex 162.165 4.29259 6
      vertex 162.08 4.57399 0
    endloop
  endfacet
  facet normal -0.957282 -0.289158 -0
    outer loop
      vertex 162.08 4.57399 6
      vertex 162.08 4.57399 0
      vertex 162.165 4.29259 6
    endloop
  endfacet
  facet normal -0.995124 -0.0986315 0
    outer loop
      vertex 162.194 4 0
      vertex 162.194 4 6
      vertex 162.165 4.29259 0
    endloop
  endfacet
  facet normal -0.995124 -0.0986315 -0
    outer loop
      vertex 162.165 4.29259 6
      vertex 162.165 4.29259 0
      vertex 162.194 4 6
    endloop
  endfacet
  facet normal -0.995124 0.0986282 0
    outer loop
      vertex 162.165 3.7074 0
      vertex 162.165 3.7074 6
      vertex 162.194 4 0
    endloop
  endfacet
  facet normal -0.995124 0.0986282 0
    outer loop
      vertex 162.194 4 6
      vertex 162.194 4 0
      vertex 162.165 3.7074 6
    endloop
  endfacet
  facet normal -0.957284 0.289148 0
    outer loop
      vertex 162.08 3.42599 0
      vertex 162.08 3.42599 6
      vertex 162.165 3.7074 0
    endloop
  endfacet
  facet normal -0.957284 0.289148 0
    outer loop
      vertex 162.165 3.7074 6
      vertex 162.165 3.7074 0
      vertex 162.08 3.42599 6
    endloop
  endfacet
  facet normal -0.881422 0.47233 0
    outer loop
      vertex 161.941 3.1666 0
      vertex 161.941 3.1666 6
      vertex 162.08 3.42599 0
    endloop
  endfacet
  facet normal -0.881422 0.47233 0
    outer loop
      vertex 162.08 3.42599 6
      vertex 162.08 3.42599 0
      vertex 161.941 3.1666 6
    endloop
  endfacet
  facet normal -0.773925 0.633277 0
    outer loop
      vertex 161.755 2.93929 0
      vertex 161.755 2.93929 6
      vertex 161.941 3.1666 0
    endloop
  endfacet
  facet normal -0.773925 0.633277 0
    outer loop
      vertex 161.941 3.1666 6
      vertex 161.941 3.1666 0
      vertex 161.755 2.93929 6
    endloop
  endfacet
  facet normal -0.634812 0.772667 0
    outer loop
      vertex 161.528 2.75279 0
      vertex 161.528 2.75279 6
      vertex 161.755 2.93929 0
    endloop
  endfacet
  facet normal -0.634812 0.772667 0
    outer loop
      vertex 161.755 2.93929 6
      vertex 161.755 2.93929 0
      vertex 161.528 2.75279 6
    endloop
  endfacet
  facet normal -0.470386 0.882461 0
    outer loop
      vertex 161.268 2.6142 0
      vertex 161.268 2.6142 6
      vertex 161.528 2.75279 0
    endloop
  endfacet
  facet normal -0.470386 0.882461 0
    outer loop
      vertex 161.528 2.75279 6
      vertex 161.528 2.75279 0
      vertex 161.268 2.6142 6
    endloop
  endfacet
  facet normal -0.290813 0.95678 0
    outer loop
      vertex 160.987 2.52879 0
      vertex 160.987 2.52879 6
      vertex 161.268 2.6142 0
    endloop
  endfacet
  facet normal -0.290813 0.95678 0
    outer loop
      vertex 161.268 2.6142 6
      vertex 161.268 2.6142 0
      vertex 160.987 2.52879 6
    endloop
  endfacet
  facet normal -0.0977885 0.995207 0
    outer loop
      vertex 160.694 2.5 0
      vertex 160.694 2.5 6
      vertex 160.987 2.52879 0
    endloop
  endfacet
  facet normal -0.0977885 0.995207 0
    outer loop
      vertex 160.987 2.52879 6
      vertex 160.987 2.52879 0
      vertex 160.694 2.5 6
    endloop
  endfacet
  facet normal 0.0981201 0.995175 -0
    outer loop
      vertex 160.402 2.52879 0
      vertex 160.402 2.52879 6
      vertex 160.694 2.5 0
    endloop
  endfacet
  facet normal 0.0981201 0.995175 0
    outer loop
      vertex 160.694 2.5 6
      vertex 160.694 2.5 0
      vertex 160.402 2.52879 6
    endloop
  endfacet
endsolid OpenSCAD_Model
