solid OpenSCAD_Model
  facet normal 0 0 -1
    outer loop
      vertex 58.0195 0 0
      vertex 64.699 6 0
      vertex 65.2802 5.18629 0
    endloop
  endfacet
  facet normal 0 0 -1
    outer loop
      vertex 58.0195 0 0
      vertex 57.4382 0.81369 0
      vertex 64.699 6 0
    endloop
  endfacet
  facet normal 0 0 -1
    outer loop
      vertex 5.57399 4.38579 0
      vertex 5.29259 4.47119 0
      vertex 64.699 6 0
    endloop
  endfacet
  facet normal 0 0 -1
    outer loop
      vertex 0 0 0
      vertex 5 1.5 0
      vertex 5.29259 1.52879 0
    endloop
  endfacet
  facet normal 0 -0 -1
    outer loop
      vertex 5.57399 1.6142 0
      vertex 56.299 0 0
      vertex 5.29259 1.52879 0
    endloop
  endfacet
  facet normal 0 -0 -1
    outer loop
      vertex 4.7074 1.52879 0
      vertex 5 1.5 0
      vertex 0 0 0
    endloop
  endfacet
  facet normal 0 -0 -1
    outer loop
      vertex 4.42599 1.6142 0
      vertex 4.7074 1.52879 0
      vertex 0 0 0
    endloop
  endfacet
  facet normal 0 -0 -1
    outer loop
      vertex 4.1666 1.75279 0
      vertex 4.42599 1.6142 0
      vertex 0 0 0
    endloop
  endfacet
  facet normal 0 -0 -1
    outer loop
      vertex 3.75279 2.1666 0
      vertex 3.93929 1.93929 0
      vertex 0 0 0
    endloop
  endfacet
  facet normal 0 -0 -1
    outer loop
      vertex 3.93929 1.93929 0
      vertex 4.1666 1.75279 0
      vertex 0 0 0
    endloop
  endfacet
  facet normal 0 -0 -1
    outer loop
      vertex 3.6142 2.42599 0
      vertex 3.75279 2.1666 0
      vertex 0 0 0
    endloop
  endfacet
  facet normal 0 -0 -1
    outer loop
      vertex 3.52879 2.7074 0
      vertex 3.6142 2.42599 0
      vertex 0 0 0
    endloop
  endfacet
  facet normal 0 -0 -1
    outer loop
      vertex 3.5 3 0
      vertex 3.52879 2.7074 0
      vertex 0 0 0
    endloop
  endfacet
  facet normal -0 0 -1
    outer loop
      vertex 3.5 3 0
      vertex 0 0 0
      vertex 0 6 0
    endloop
  endfacet
  facet normal 0 0 -1
    outer loop
      vertex 5.29259 4.47119 0
      vertex 0 6 0
      vertex 64.699 6 0
    endloop
  endfacet
  facet normal -0 0 -1
    outer loop
      vertex 3.52879 3.29259 0
      vertex 3.5 3 0
      vertex 0 6 0
    endloop
  endfacet
  facet normal -0 0 -1
    outer loop
      vertex 3.6142 3.57399 0
      vertex 3.52879 3.29259 0
      vertex 0 6 0
    endloop
  endfacet
  facet normal -0 0 -1
    outer loop
      vertex 3.75279 3.83339 0
      vertex 3.6142 3.57399 0
      vertex 0 6 0
    endloop
  endfacet
  facet normal -0 0 -1
    outer loop
      vertex 3.93929 4.0607 0
      vertex 3.75279 3.83339 0
      vertex 0 6 0
    endloop
  endfacet
  facet normal -0 0 -1
    outer loop
      vertex 4.1666 4.24719 0
      vertex 3.93929 4.0607 0
      vertex 0 6 0
    endloop
  endfacet
  facet normal -0 0 -1
    outer loop
      vertex 4.42599 4.38579 0
      vertex 4.1666 4.24719 0
      vertex 0 6 0
    endloop
  endfacet
  facet normal -0 0 -1
    outer loop
      vertex 4.7074 4.47119 0
      vertex 4.42599 4.38579 0
      vertex 0 6 0
    endloop
  endfacet
  facet normal 0 0 -1
    outer loop
      vertex 5.29259 4.47119 0
      vertex 5 4.5 0
      vertex 0 6 0
    endloop
  endfacet
  facet normal -0 0 -1
    outer loop
      vertex 5 4.5 0
      vertex 4.7074 4.47119 0
      vertex 0 6 0
    endloop
  endfacet
  facet normal 0 0 -1
    outer loop
      vertex 5.57399 4.38579 0
      vertex 64.699 6 0
      vertex 5.83339 4.24719 0
    endloop
  endfacet
  facet normal 0 0 -1
    outer loop
      vertex 5.83339 4.24719 0
      vertex 64.699 6 0
      vertex 57.4382 0.81369 0
    endloop
  endfacet
  facet normal 0 0 -1
    outer loop
      vertex 6.0607 4.0607 0
      vertex 5.83339 4.24719 0
      vertex 57.4382 0.81369 0
    endloop
  endfacet
  facet normal 0 0 -1
    outer loop
      vertex 56.299 0 0
      vertex 6.0607 4.0607 0
      vertex 57.4382 0.81369 0
    endloop
  endfacet
  facet normal 0 0 -1
    outer loop
      vertex 56.299 0 0
      vertex 6.24719 3.83339 0
      vertex 6.0607 4.0607 0
    endloop
  endfacet
  facet normal 0 0 -1
    outer loop
      vertex 56.299 0 0
      vertex 6.38579 3.57399 0
      vertex 6.24719 3.83339 0
    endloop
  endfacet
  facet normal 0 0 -1
    outer loop
      vertex 56.299 0 0
      vertex 6.47119 3.29259 0
      vertex 6.38579 3.57399 0
    endloop
  endfacet
  facet normal 0 0 -1
    outer loop
      vertex 56.299 0 0
      vertex 6.5 3 0
      vertex 6.47119 3.29259 0
    endloop
  endfacet
  facet normal 0 0 -1
    outer loop
      vertex 56.299 0 0
      vertex 6.47119 2.7074 0
      vertex 6.5 3 0
    endloop
  endfacet
  facet normal 0 0 -1
    outer loop
      vertex 56.299 0 0
      vertex 6.38579 2.42599 0
      vertex 6.47119 2.7074 0
    endloop
  endfacet
  facet normal 0 0 -1
    outer loop
      vertex 56.299 0 0
      vertex 6.24719 2.1666 0
      vertex 6.38579 2.42599 0
    endloop
  endfacet
  facet normal 0 0 -1
    outer loop
      vertex 56.299 0 0
      vertex 6.0607 1.93929 0
      vertex 6.24719 2.1666 0
    endloop
  endfacet
  facet normal 0 0 -1
    outer loop
      vertex 56.299 0 0
      vertex 5.83339 1.75279 0
      vertex 6.0607 1.93929 0
    endloop
  endfacet
  facet normal 0 0 -1
    outer loop
      vertex 56.299 0 0
      vertex 5.57399 1.6142 0
      vertex 5.83339 1.75279 0
    endloop
  endfacet
  facet normal 0 -0 -1
    outer loop
      vertex 5.29259 1.52879 0
      vertex 56.299 0 0
      vertex 0 0 0
    endloop
  endfacet
  facet normal 0 0 1
    outer loop
      vertex 65.2802 5.18629 6
      vertex 64.699 6 6
      vertex 58.0195 0 6
    endloop
  endfacet
  facet normal 0 0 1
    outer loop
      vertex 64.699 6 6
      vertex 57.4382 0.81369 6
      vertex 58.0195 0 6
    endloop
  endfacet
  facet normal 0 0 1
    outer loop
      vertex 64.699 6 6
      vertex 5.29259 4.47119 6
      vertex 5.57399 4.38579 6
    endloop
  endfacet
  facet normal 0 0 1
    outer loop
      vertex 5.29259 1.52879 6
      vertex 5 1.5 6
      vertex 0 0 6
    endloop
  endfacet
  facet normal -0 0 1
    outer loop
      vertex 5.29259 1.52879 6
      vertex 56.299 0 6
      vertex 5.57399 1.6142 6
    endloop
  endfacet
  facet normal 0 0 1
    outer loop
      vertex 0 0 6
      vertex 5 1.5 6
      vertex 4.7074 1.52879 6
    endloop
  endfacet
  facet normal 0 0 1
    outer loop
      vertex 0 0 6
      vertex 4.7074 1.52879 6
      vertex 4.42599 1.6142 6
    endloop
  endfacet
  facet normal 0 0 1
    outer loop
      vertex 0 0 6
      vertex 4.42599 1.6142 6
      vertex 4.1666 1.75279 6
    endloop
  endfacet
  facet normal 0 0 1
    outer loop
      vertex 0 0 6
      vertex 3.93929 1.93929 6
      vertex 3.75279 2.1666 6
    endloop
  endfacet
  facet normal 0 0 1
    outer loop
      vertex 0 0 6
      vertex 4.1666 1.75279 6
      vertex 3.93929 1.93929 6
    endloop
  endfacet
  facet normal 0 0 1
    outer loop
      vertex 0 0 6
      vertex 3.75279 2.1666 6
      vertex 3.6142 2.42599 6
    endloop
  endfacet
  facet normal 0 0 1
    outer loop
      vertex 0 0 6
      vertex 3.6142 2.42599 6
      vertex 3.52879 2.7074 6
    endloop
  endfacet
  facet normal 0 0 1
    outer loop
      vertex 0 0 6
      vertex 3.52879 2.7074 6
      vertex 3.5 3 6
    endloop
  endfacet
  facet normal 0 0 1
    outer loop
      vertex 0 6 6
      vertex 0 0 6
      vertex 3.5 3 6
    endloop
  endfacet
  facet normal 0 0 1
    outer loop
      vertex 64.699 6 6
      vertex 0 6 6
      vertex 5.29259 4.47119 6
    endloop
  endfacet
  facet normal 0 0 1
    outer loop
      vertex 0 6 6
      vertex 3.5 3 6
      vertex 3.52879 3.29259 6
    endloop
  endfacet
  facet normal 0 0 1
    outer loop
      vertex 0 6 6
      vertex 3.52879 3.29259 6
      vertex 3.6142 3.57399 6
    endloop
  endfacet
  facet normal 0 0 1
    outer loop
      vertex 0 6 6
      vertex 3.6142 3.57399 6
      vertex 3.75279 3.83339 6
    endloop
  endfacet
  facet normal 0 0 1
    outer loop
      vertex 0 6 6
      vertex 3.75279 3.83339 6
      vertex 3.93929 4.0607 6
    endloop
  endfacet
  facet normal 0 0 1
    outer loop
      vertex 0 6 6
      vertex 3.93929 4.0607 6
      vertex 4.1666 4.24719 6
    endloop
  endfacet
  facet normal 0 0 1
    outer loop
      vertex 0 6 6
      vertex 4.1666 4.24719 6
      vertex 4.42599 4.38579 6
    endloop
  endfacet
  facet normal 0 0 1
    outer loop
      vertex 0 6 6
      vertex 4.42599 4.38579 6
      vertex 4.7074 4.47119 6
    endloop
  endfacet
  facet normal 0 0 1
    outer loop
      vertex 0 6 6
      vertex 5 4.5 6
      vertex 5.29259 4.47119 6
    endloop
  endfacet
  facet normal 0 0 1
    outer loop
      vertex 0 6 6
      vertex 4.7074 4.47119 6
      vertex 5 4.5 6
    endloop
  endfacet
  facet normal 0 -0 1
    outer loop
      vertex 5.83339 4.24719 6
      vertex 64.699 6 6
      vertex 5.57399 4.38579 6
    endloop
  endfacet
  facet normal 0 -0 1
    outer loop
      vertex 57.4382 0.81369 6
      vertex 64.699 6 6
      vertex 5.83339 4.24719 6
    endloop
  endfacet
  facet normal 0 0 1
    outer loop
      vertex 57.4382 0.81369 6
      vertex 5.83339 4.24719 6
      vertex 6.0607 4.0607 6
    endloop
  endfacet
  facet normal 0 0 1
    outer loop
      vertex 57.4382 0.81369 6
      vertex 6.0607 4.0607 6
      vertex 56.299 0 6
    endloop
  endfacet
  facet normal 0 0 1
    outer loop
      vertex 6.0607 4.0607 6
      vertex 6.24719 3.83339 6
      vertex 56.299 0 6
    endloop
  endfacet
  facet normal 0 0 1
    outer loop
      vertex 6.24719 3.83339 6
      vertex 6.38579 3.57399 6
      vertex 56.299 0 6
    endloop
  endfacet
  facet normal 0 0 1
    outer loop
      vertex 6.38579 3.57399 6
      vertex 6.47119 3.29259 6
      vertex 56.299 0 6
    endloop
  endfacet
  facet normal 0 0 1
    outer loop
      vertex 6.47119 3.29259 6
      vertex 6.5 3 6
      vertex 56.299 0 6
    endloop
  endfacet
  facet normal 0 0 1
    outer loop
      vertex 6.5 3 6
      vertex 6.47119 2.7074 6
      vertex 56.299 0 6
    endloop
  endfacet
  facet normal 0 0 1
    outer loop
      vertex 6.47119 2.7074 6
      vertex 6.38579 2.42599 6
      vertex 56.299 0 6
    endloop
  endfacet
  facet normal 0 0 1
    outer loop
      vertex 6.38579 2.42599 6
      vertex 6.24719 2.1666 6
      vertex 56.299 0 6
    endloop
  endfacet
  facet normal 0 0 1
    outer loop
      vertex 6.24719 2.1666 6
      vertex 6.0607 1.93929 6
      vertex 56.299 0 6
    endloop
  endfacet
  facet normal 0 0 1
    outer loop
      vertex 6.0607 1.93929 6
      vertex 5.83339 1.75279 6
      vertex 56.299 0 6
    endloop
  endfacet
  facet normal 0 0 1
    outer loop
      vertex 5.83339 1.75279 6
      vertex 5.57399 1.6142 6
      vertex 56.299 0 6
    endloop
  endfacet
  facet normal 0 0 1
    outer loop
      vertex 0 0 6
      vertex 56.299 0 6
      vertex 5.29259 1.52879 6
    endloop
  endfacet
  facet normal -0.81369 -0.5813 0
    outer loop
      vertex 58.0195 0 0
      vertex 57.4382 0.81369 6
      vertex 57.4382 0.81369 0
    endloop
  endfacet
  facet normal -0.81369 -0.5813 0
    outer loop
      vertex 58.0195 0 0
      vertex 58.0195 0 6
      vertex 57.4382 0.81369 6
    endloop
  endfacet
  facet normal 0.581244 -0.813729 0
    outer loop
      vertex 65.2802 5.18629 0
      vertex 58.0195 0 6
      vertex 58.0195 0 0
    endloop
  endfacet
  facet normal 0.581244 -0.813729 0
    outer loop
      vertex 65.2802 5.18629 0
      vertex 65.2802 5.18629 6
      vertex 58.0195 0 6
    endloop
  endfacet
  facet normal 0.813744 0.581224 0
    outer loop
      vertex 64.699 6 0
      vertex 65.2802 5.18629 6
      vertex 65.2802 5.18629 0
    endloop
  endfacet
  facet normal 0.813744 0.581224 -0
    outer loop
      vertex 64.699 6 0
      vertex 64.699 6 6
      vertex 65.2802 5.18629 6
    endloop
  endfacet
  facet normal 0 1 0
    outer loop
      vertex 0 6 0
      vertex 64.699 6 6
      vertex 64.699 6 0
    endloop
  endfacet
  facet normal 0 1 0
    outer loop
      vertex 0 6 0
      vertex 0 6 6
      vertex 64.699 6 6
    endloop
  endfacet
  facet normal -1 0 0
    outer loop
      vertex 0 0 0
      vertex 0 6 6
      vertex 0 6 0
    endloop
  endfacet
  facet normal -1 0 0
    outer loop
      vertex 0 0 0
      vertex 0 0 6
      vertex 0 6 6
    endloop
  endfacet
  facet normal 0 -1 0
    outer loop
      vertex 56.299 0 0
      vertex 0 0 6
      vertex 0 0 0
    endloop
  endfacet
  facet normal 0 -1 0
    outer loop
      vertex 56.299 0 0
      vertex 56.299 0 6
      vertex 0 0 6
    endloop
  endfacet
  facet normal 0.581227 -0.813742 0
    outer loop
      vertex 57.4382 0.81369 0
      vertex 56.299 0 6
      vertex 56.299 0 0
    endloop
  endfacet
  facet normal 0.581227 -0.813742 0
    outer loop
      vertex 57.4382 0.81369 0
      vertex 57.4382 0.81369 6
      vertex 56.299 0 6
    endloop
  endfacet
  facet normal 0.290425 0.956898 -0
    outer loop
      vertex 4.42599 1.6142 0
      vertex 4.42599 1.6142 6
      vertex 4.7074 1.52879 0
    endloop
  endfacet
  facet normal 0.290425 0.956898 0
    outer loop
      vertex 4.7074 1.52879 6
      vertex 4.7074 1.52879 0
      vertex 4.42599 1.6142 6
    endloop
  endfacet
  facet normal 0.471246 0.882002 -0
    outer loop
      vertex 4.1666 1.75279 0
      vertex 4.1666 1.75279 6
      vertex 4.42599 1.6142 0
    endloop
  endfacet
  facet normal 0.471246 0.882002 0
    outer loop
      vertex 4.42599 1.6142 6
      vertex 4.42599 1.6142 0
      vertex 4.1666 1.75279 6
    endloop
  endfacet
  facet normal 0.634295 0.773091 -0
    outer loop
      vertex 3.93929 1.93929 0
      vertex 3.93929 1.93929 6
      vertex 4.1666 1.75279 0
    endloop
  endfacet
  facet normal 0.634295 0.773091 0
    outer loop
      vertex 4.1666 1.75279 6
      vertex 4.1666 1.75279 0
      vertex 3.93929 1.93929 6
    endloop
  endfacet
  facet normal 0.773091 0.634295 -0
    outer loop
      vertex 3.75279 2.1666 0
      vertex 3.75279 2.1666 6
      vertex 3.93929 1.93929 0
    endloop
  endfacet
  facet normal 0.773091 0.634295 0
    outer loop
      vertex 3.93929 1.93929 6
      vertex 3.93929 1.93929 0
      vertex 3.75279 2.1666 6
    endloop
  endfacet
  facet normal 0.882002 0.471246 -0
    outer loop
      vertex 3.6142 2.42599 0
      vertex 3.6142 2.42599 6
      vertex 3.75279 2.1666 0
    endloop
  endfacet
  facet normal 0.882002 0.471246 0
    outer loop
      vertex 3.75279 2.1666 6
      vertex 3.75279 2.1666 0
      vertex 3.6142 2.42599 6
    endloop
  endfacet
  facet normal 0.956898 0.290425 -0
    outer loop
      vertex 3.52879 2.7074 0
      vertex 3.52879 2.7074 6
      vertex 3.6142 2.42599 0
    endloop
  endfacet
  facet normal 0.956898 0.290425 0
    outer loop
      vertex 3.6142 2.42599 6
      vertex 3.6142 2.42599 0
      vertex 3.52879 2.7074 6
    endloop
  endfacet
  facet normal 0.995194 0.0979209 -0
    outer loop
      vertex 3.5 3 0
      vertex 3.5 3 6
      vertex 3.52879 2.7074 0
    endloop
  endfacet
  facet normal 0.995194 0.0979209 0
    outer loop
      vertex 3.52879 2.7074 6
      vertex 3.52879 2.7074 0
      vertex 3.5 3 6
    endloop
  endfacet
  facet normal 0.995194 -0.0979242 0
    outer loop
      vertex 3.52879 3.29259 0
      vertex 3.52879 3.29259 6
      vertex 3.5 3 0
    endloop
  endfacet
  facet normal 0.995194 -0.0979242 0
    outer loop
      vertex 3.5 3 6
      vertex 3.5 3 0
      vertex 3.52879 3.29259 6
    endloop
  endfacet
  facet normal 0.956895 -0.290435 0
    outer loop
      vertex 3.6142 3.57399 0
      vertex 3.6142 3.57399 6
      vertex 3.52879 3.29259 0
    endloop
  endfacet
  facet normal 0.956895 -0.290435 0
    outer loop
      vertex 3.52879 3.29259 6
      vertex 3.52879 3.29259 0
      vertex 3.6142 3.57399 6
    endloop
  endfacet
  facet normal 0.882009 -0.471232 0
    outer loop
      vertex 3.75279 3.83339 0
      vertex 3.75279 3.83339 6
      vertex 3.6142 3.57399 0
    endloop
  endfacet
  facet normal 0.882009 -0.471232 0
    outer loop
      vertex 3.6142 3.57399 6
      vertex 3.6142 3.57399 0
      vertex 3.75279 3.83339 6
    endloop
  endfacet
  facet normal 0.773091 -0.634295 0
    outer loop
      vertex 3.93929 4.0607 0
      vertex 3.93929 4.0607 6
      vertex 3.75279 3.83339 0
    endloop
  endfacet
  facet normal 0.773091 -0.634295 0
    outer loop
      vertex 3.75279 3.83339 6
      vertex 3.75279 3.83339 0
      vertex 3.93929 4.0607 6
    endloop
  endfacet
  facet normal 0.634274 -0.773108 0
    outer loop
      vertex 4.1666 4.24719 0
      vertex 4.1666 4.24719 6
      vertex 3.93929 4.0607 0
    endloop
  endfacet
  facet normal 0.634274 -0.773108 0
    outer loop
      vertex 3.93929 4.0607 6
      vertex 3.93929 4.0607 0
      vertex 4.1666 4.24719 6
    endloop
  endfacet
  facet normal 0.471273 -0.881987 0
    outer loop
      vertex 4.42599 4.38579 0
      vertex 4.42599 4.38579 6
      vertex 4.1666 4.24719 0
    endloop
  endfacet
  facet normal 0.471273 -0.881987 0
    outer loop
      vertex 4.1666 4.24719 6
      vertex 4.1666 4.24719 0
      vertex 4.42599 4.38579 6
    endloop
  endfacet
  facet normal 0.290394 -0.956907 0
    outer loop
      vertex 4.7074 4.47119 0
      vertex 4.7074 4.47119 6
      vertex 4.42599 4.38579 0
    endloop
  endfacet
  facet normal 0.290394 -0.956907 0
    outer loop
      vertex 4.42599 4.38579 6
      vertex 4.42599 4.38579 0
      vertex 4.7074 4.47119 6
    endloop
  endfacet
  facet normal 0.0979882 -0.995188 0
    outer loop
      vertex 5 4.5 0
      vertex 5 4.5 6
      vertex 4.7074 4.47119 0
    endloop
  endfacet
  facet normal 0.0979882 -0.995188 0
    outer loop
      vertex 4.7074 4.47119 6
      vertex 4.7074 4.47119 0
      vertex 5 4.5 6
    endloop
  endfacet
  facet normal -0.0979915 -0.995187 0
    outer loop
      vertex 5.29259 4.47119 0
      vertex 5.29259 4.47119 6
      vertex 5 4.5 0
    endloop
  endfacet
  facet normal -0.0979915 -0.995187 -0
    outer loop
      vertex 5 4.5 6
      vertex 5 4.5 0
      vertex 5.29259 4.47119 6
    endloop
  endfacet
  facet normal -0.290404 -0.956904 0
    outer loop
      vertex 5.57399 4.38579 0
      vertex 5.57399 4.38579 6
      vertex 5.29259 4.47119 0
    endloop
  endfacet
  facet normal -0.290404 -0.956904 -0
    outer loop
      vertex 5.29259 4.47119 6
      vertex 5.29259 4.47119 0
      vertex 5.57399 4.38579 6
    endloop
  endfacet
  facet normal -0.471259 -0.881995 0
    outer loop
      vertex 5.83339 4.24719 0
      vertex 5.83339 4.24719 6
      vertex 5.57399 4.38579 0
    endloop
  endfacet
  facet normal -0.471259 -0.881995 -0
    outer loop
      vertex 5.57399 4.38579 6
      vertex 5.57399 4.38579 0
      vertex 5.83339 4.24719 6
    endloop
  endfacet
  facet normal -0.634274 -0.773108 0
    outer loop
      vertex 6.0607 4.0607 0
      vertex 6.0607 4.0607 6
      vertex 5.83339 4.24719 0
    endloop
  endfacet
  facet normal -0.634274 -0.773108 -0
    outer loop
      vertex 5.83339 4.24719 6
      vertex 5.83339 4.24719 0
      vertex 6.0607 4.0607 6
    endloop
  endfacet
  facet normal -0.773108 -0.634274 0
    outer loop
      vertex 6.24719 3.83339 0
      vertex 6.24719 3.83339 6
      vertex 6.0607 4.0607 0
    endloop
  endfacet
  facet normal -0.773108 -0.634274 -0
    outer loop
      vertex 6.0607 4.0607 6
      vertex 6.0607 4.0607 0
      vertex 6.24719 3.83339 6
    endloop
  endfacet
  facet normal -0.881995 -0.471259 0
    outer loop
      vertex 6.38579 3.57399 0
      vertex 6.38579 3.57399 6
      vertex 6.24719 3.83339 0
    endloop
  endfacet
  facet normal -0.881995 -0.471259 -0
    outer loop
      vertex 6.24719 3.83339 6
      vertex 6.24719 3.83339 0
      vertex 6.38579 3.57399 6
    endloop
  endfacet
  facet normal -0.956904 -0.290404 0
    outer loop
      vertex 6.47119 3.29259 0
      vertex 6.47119 3.29259 6
      vertex 6.38579 3.57399 0
    endloop
  endfacet
  facet normal -0.956904 -0.290404 -0
    outer loop
      vertex 6.38579 3.57399 6
      vertex 6.38579 3.57399 0
      vertex 6.47119 3.29259 6
    endloop
  endfacet
  facet normal -0.995187 -0.0979915 0
    outer loop
      vertex 6.5 3 0
      vertex 6.5 3 6
      vertex 6.47119 3.29259 0
    endloop
  endfacet
  facet normal -0.995187 -0.0979915 -0
    outer loop
      vertex 6.47119 3.29259 6
      vertex 6.47119 3.29259 0
      vertex 6.5 3 6
    endloop
  endfacet
  facet normal -0.995188 0.0979882 0
    outer loop
      vertex 6.47119 2.7074 0
      vertex 6.47119 2.7074 6
      vertex 6.5 3 0
    endloop
  endfacet
  facet normal -0.995188 0.0979882 0
    outer loop
      vertex 6.5 3 6
      vertex 6.5 3 0
      vertex 6.47119 2.7074 6
    endloop
  endfacet
  facet normal -0.956907 0.290394 0
    outer loop
      vertex 6.38579 2.42599 0
      vertex 6.38579 2.42599 6
      vertex 6.47119 2.7074 0
    endloop
  endfacet
  facet normal -0.956907 0.290394 0
    outer loop
      vertex 6.47119 2.7074 6
      vertex 6.47119 2.7074 0
      vertex 6.38579 2.42599 6
    endloop
  endfacet
  facet normal -0.881987 0.471273 0
    outer loop
      vertex 6.24719 2.1666 0
      vertex 6.24719 2.1666 6
      vertex 6.38579 2.42599 0
    endloop
  endfacet
  facet normal -0.881987 0.471273 0
    outer loop
      vertex 6.38579 2.42599 6
      vertex 6.38579 2.42599 0
      vertex 6.24719 2.1666 6
    endloop
  endfacet
  facet normal -0.773108 0.634274 0
    outer loop
      vertex 6.0607 1.93929 0
      vertex 6.0607 1.93929 6
      vertex 6.24719 2.1666 0
    endloop
  endfacet
  facet normal -0.773108 0.634274 0
    outer loop
      vertex 6.24719 2.1666 6
      vertex 6.24719 2.1666 0
      vertex 6.0607 1.93929 6
    endloop
  endfacet
  facet normal -0.634295 0.773091 0
    outer loop
      vertex 5.83339 1.75279 0
      vertex 5.83339 1.75279 6
      vertex 6.0607 1.93929 0
    endloop
  endfacet
  facet normal -0.634295 0.773091 0
    outer loop
      vertex 6.0607 1.93929 6
      vertex 6.0607 1.93929 0
      vertex 5.83339 1.75279 6
    endloop
  endfacet
  facet normal -0.471232 0.882009 0
    outer loop
      vertex 5.57399 1.6142 0
      vertex 5.57399 1.6142 6
      vertex 5.83339 1.75279 0
    endloop
  endfacet
  facet normal -0.471232 0.882009 0
    outer loop
      vertex 5.83339 1.75279 6
      vertex 5.83339 1.75279 0
      vertex 5.57399 1.6142 6
    endloop
  endfacet
  facet normal -0.290435 0.956895 0
    outer loop
      vertex 5.29259 1.52879 0
      vertex 5.29259 1.52879 6
      vertex 5.57399 1.6142 0
    endloop
  endfacet
  facet normal -0.290435 0.956895 0
    outer loop
      vertex 5.57399 1.6142 6
      vertex 5.57399 1.6142 0
      vertex 5.29259 1.52879 6
    endloop
  endfacet
  facet normal -0.0979242 0.995194 0
    outer loop
      vertex 5 1.5 0
      vertex 5 1.5 6
      vertex 5.29259 1.52879 0
    endloop
  endfacet
  facet normal -0.0979242 0.995194 0
    outer loop
      vertex 5.29259 1.52879 6
      vertex 5.29259 1.52879 0
      vertex 5 1.5 6
    endloop
  endfacet
  facet normal 0.0979209 0.995194 -0
    outer loop
      vertex 4.7074 1.52879 0
      vertex 4.7074 1.52879 6
      vertex 5 1.5 0
    endloop
  endfacet
  facet normal 0.0979209 0.995194 0
    outer loop
      vertex 5 1.5 6
      vertex 5 1.5 0
      vertex 4.7074 1.52879 6
    endloop
  endfacet
endsolid OpenSCAD_Model
