solid OpenSCAD_Model
  facet normal 0 0 -1
    outer loop
      vertex 219.25 8 0
      vertex 229.132 5.26459 0
      vertex 219.25 7 0
    endloop
  endfacet
  facet normal 0 0 -1
    outer loop
      vertex 149.25 8 0
      vertex 158.75 8 0
      vertex 158.75 7 0
    endloop
  endfacet
  facet normal -0 0 -1
    outer loop
      vertex 158.75 7 0
      vertex 154.734 1 0
      vertex 149.25 7 0
    endloop
  endfacet
  facet normal -0 0 -1
    outer loop
      vertex 229.132 5.26459 0
      vertex 226.825 0 0
      vertex 219.25 7 0
    endloop
  endfacet
  facet normal 0 -0 -1
    outer loop
      vertex 229.132 5.26459 0
      vertex 230.751 4 0
      vertex 226.825 0 0
    endloop
  endfacet
  facet normal -0 0 -1
    outer loop
      vertex 231.27 8 0
      vertex 229.132 5.26459 0
      vertex 219.25 8 0
    endloop
  endfacet
  facet normal 0 0 -1
    outer loop
      vertex 205.25 7 0
      vertex 205.25 8 0
      vertex 214.75 7 0
    endloop
  endfacet
  facet normal -0 -0 -1
    outer loop
      vertex 214.75 8 0
      vertex 214.75 7 0
      vertex 205.25 8 0
    endloop
  endfacet
  facet normal -0 -0 -1
    outer loop
      vertex 219.25 7 0
      vertex 226.825 0 0
      vertex 214.75 7 0
    endloop
  endfacet
  facet normal 0 0 -1
    outer loop
      vertex 226.825 0 0
      vertex 200.75 7 0
      vertex 205.25 7 0
    endloop
  endfacet
  facet normal 0 0 -1
    outer loop
      vertex 226.825 0 0
      vertex 191.25 7 0
      vertex 200.75 7 0
    endloop
  endfacet
  facet normal -0 -0 -1
    outer loop
      vertex 200.75 8 0
      vertex 200.75 7 0
      vertex 191.25 8 0
    endloop
  endfacet
  facet normal 0 0 -1
    outer loop
      vertex 226.825 0 0
      vertex 205.25 7 0
      vertex 214.75 7 0
    endloop
  endfacet
  facet normal -0 0 -1
    outer loop
      vertex 191.25 7 0
      vertex 161.234 0 0
      vertex 186.75 7 0
    endloop
  endfacet
  facet normal 0 0 -1
    outer loop
      vertex 161.234 0 0
      vertex 191.25 7 0
      vertex 226.825 0 0
    endloop
  endfacet
  facet normal 0 0 -1
    outer loop
      vertex 191.25 7 0
      vertex 191.25 8 0
      vertex 200.75 7 0
    endloop
  endfacet
  facet normal -0 -0 -1
    outer loop
      vertex 186.75 8 0
      vertex 186.75 7 0
      vertex 177.25 8 0
    endloop
  endfacet
  facet normal -0 0 -1
    outer loop
      vertex 186.75 7 0
      vertex 161.234 0 0
      vertex 177.25 7 0
    endloop
  endfacet
  facet normal -0 0 -1
    outer loop
      vertex 177.25 7 0
      vertex 161.234 0 0
      vertex 172.75 7 0
    endloop
  endfacet
  facet normal 0 0 -1
    outer loop
      vertex 172.75 7 0
      vertex 161.234 0 0
      vertex 161.234 1 0
    endloop
  endfacet
  facet normal 0 0 -1
    outer loop
      vertex 186.75 7 0
      vertex 177.25 7 0
      vertex 177.25 8 0
    endloop
  endfacet
  facet normal -0 -0 -1
    outer loop
      vertex 172.75 8 0
      vertex 172.75 7 0
      vertex 163.25 8 0
    endloop
  endfacet
  facet normal 0 0 -1
    outer loop
      vertex 163.25 8 0
      vertex 172.75 7 0
      vertex 163.25 7 0
    endloop
  endfacet
  facet normal 0 0 -1
    outer loop
      vertex 158.75 7 0
      vertex 163.25 7 0
      vertex 161.234 1 0
    endloop
  endfacet
  facet normal 0 -0 -1
    outer loop
      vertex 163.25 7 0
      vertex 172.75 7 0
      vertex 161.234 1 0
    endloop
  endfacet
  facet normal 0 0 -1
    outer loop
      vertex 154.734 1 0
      vertex 158.75 7 0
      vertex 161.234 1 0
    endloop
  endfacet
  facet normal 0 0 -1
    outer loop
      vertex 135.25 7 0
      vertex 135.25 8 0
      vertex 144.75 7 0
    endloop
  endfacet
  facet normal 0 0 -1
    outer loop
      vertex 149.25 7 0
      vertex 149.25 8 0
      vertex 158.75 7 0
    endloop
  endfacet
  facet normal 0 0 -1
    outer loop
      vertex 154.734 0 0
      vertex 149.25 7 0
      vertex 154.734 1 0
    endloop
  endfacet
  facet normal 0 0 -1
    outer loop
      vertex 121.25 7 0
      vertex 121.25 8 0
      vertex 130.75 7 0
    endloop
  endfacet
  facet normal 0 0 -1
    outer loop
      vertex 154.734 0 0
      vertex 144.75 7 0
      vertex 149.25 7 0
    endloop
  endfacet
  facet normal 0 0 -1
    outer loop
      vertex 144.75 7 0
      vertex 135.25 8 0
      vertex 144.75 8 0
    endloop
  endfacet
  facet normal 0 0 -1
    outer loop
      vertex 154.734 0 0
      vertex 135.25 7 0
      vertex 144.75 7 0
    endloop
  endfacet
  facet normal 0 0 -1
    outer loop
      vertex 107.25 7 0
      vertex 107.25 8 0
      vertex 116.75 7 0
    endloop
  endfacet
  facet normal 0 0 -1
    outer loop
      vertex 154.734 0 0
      vertex 130.75 7 0
      vertex 135.25 7 0
    endloop
  endfacet
  facet normal 0 0 -1
    outer loop
      vertex 130.75 7 0
      vertex 121.25 8 0
      vertex 130.75 8 0
    endloop
  endfacet
  facet normal 0 0 -1
    outer loop
      vertex 154.734 0 0
      vertex 121.25 7 0
      vertex 130.75 7 0
    endloop
  endfacet
  facet normal 0 0 -1
    outer loop
      vertex 93.25 7 0
      vertex 93.25 8 0
      vertex 102.75 7 0
    endloop
  endfacet
  facet normal 0 0 -1
    outer loop
      vertex 154.734 0 0
      vertex 116.75 7 0
      vertex 121.25 7 0
    endloop
  endfacet
  facet normal 0 0 -1
    outer loop
      vertex 116.75 7 0
      vertex 107.25 8 0
      vertex 116.75 8 0
    endloop
  endfacet
  facet normal 0 0 -1
    outer loop
      vertex 154.734 0 0
      vertex 107.25 7 0
      vertex 116.75 7 0
    endloop
  endfacet
  facet normal 0 0 -1
    outer loop
      vertex 79.25 7 0
      vertex 79.25 8 0
      vertex 88.75 7 0
    endloop
  endfacet
  facet normal 0 0 -1
    outer loop
      vertex 154.734 0 0
      vertex 102.75 7 0
      vertex 107.25 7 0
    endloop
  endfacet
  facet normal 0 0 -1
    outer loop
      vertex 102.75 7 0
      vertex 93.25 8 0
      vertex 102.75 8 0
    endloop
  endfacet
  facet normal 0 0 -1
    outer loop
      vertex 154.734 0 0
      vertex 93.25 7 0
      vertex 102.75 7 0
    endloop
  endfacet
  facet normal 0 0 -1
    outer loop
      vertex 36.3911 2.75279 0
      vertex 46.75 7 0
      vertex 51.25 7 0
    endloop
  endfacet
  facet normal 0 0 -1
    outer loop
      vertex 154.734 0 0
      vertex 88.75 7 0
      vertex 93.25 7 0
    endloop
  endfacet
  facet normal 0 0 -1
    outer loop
      vertex 88.75 7 0
      vertex 79.25 8 0
      vertex 88.75 8 0
    endloop
  endfacet
  facet normal 0 -0 -1
    outer loop
      vertex 74.75 7 0
      vertex 79.25 7 0
      vertex 35.8504 2.52879 0
    endloop
  endfacet
  facet normal 0 0 -1
    outer loop
      vertex 25.2926 2.52879 0
      vertex 34.9837 2.6142 0
      vertex 35.2651 2.52879 0
    endloop
  endfacet
  facet normal 0 0 -1
    outer loop
      vertex 65.25 7 0
      vertex 35.8504 2.52879 0
      vertex 36.1318 2.6142 0
    endloop
  endfacet
  facet normal 0 0 -1
    outer loop
      vertex 74.75 7 0
      vertex 65.25 8 0
      vertex 74.75 8 0
    endloop
  endfacet
  facet normal 0 0 -1
    outer loop
      vertex 74.75 7 0
      vertex 65.25 7 0
      vertex 65.25 8 0
    endloop
  endfacet
  facet normal 0 -0 -1
    outer loop
      vertex 26.3858 3.42599 0
      vertex 34.1719 3.42599 0
      vertex 26.2472 3.1666 0
    endloop
  endfacet
  facet normal 0 0 -1
    outer loop
      vertex 36.805 3.1666 0
      vertex 36.9436 3.42599 0
      vertex 46.75 7 0
    endloop
  endfacet
  facet normal 0 0 -1
    outer loop
      vertex 60.75 7 0
      vertex 51.25 8 0
      vertex 60.75 8 0
    endloop
  endfacet
  facet normal 0 0 -1
    outer loop
      vertex 60.75 7 0
      vertex 51.25 7 0
      vertex 51.25 8 0
    endloop
  endfacet
  facet normal 0 0 -1
    outer loop
      vertex 8.12129 0 0
      vertex 25 2.5 0
      vertex 35.5578 2.5 0
    endloop
  endfacet
  facet normal 0 0 -1
    outer loop
      vertex 34.4971 2.93929 0
      vertex 26.0607 2.93929 0
      vertex 34.3105 3.1666 0
    endloop
  endfacet
  facet normal 0 0 -1
    outer loop
      vertex 46.75 7 0
      vertex 37.25 8 0
      vertex 46.75 8 0
    endloop
  endfacet
  facet normal 0 0 -1
    outer loop
      vertex 46.75 7 0
      vertex 37.25 7 0
      vertex 37.25 8 0
    endloop
  endfacet
  facet normal 0 0 -1
    outer loop
      vertex 4.75 7 0
      vertex 9.25 7 0
      vertex 8.12129 0 0
    endloop
  endfacet
  facet normal 0 0 -1
    outer loop
      vertex 23.25 7 0
      vertex 24.426 5.38579 0
      vertex 24.1666 5.24719 0
    endloop
  endfacet
  facet normal 0 0 -1
    outer loop
      vertex 23.9393 5.0607 0
      vertex 23.25 7 0
      vertex 24.1666 5.24719 0
    endloop
  endfacet
  facet normal 0 0 -1
    outer loop
      vertex 25.2926 5.47119 0
      vertex 25 5.5 0
      vertex 23.25 8 0
    endloop
  endfacet
  facet normal 0 -0 -1
    outer loop
      vertex 9.25 7 0
      vertex 18.75 7 0
      vertex 8.12129 0 0
    endloop
  endfacet
  facet normal 0 0 -1
    outer loop
      vertex 18.75 7 0
      vertex 9.25 8 0
      vertex 18.75 8 0
    endloop
  endfacet
  facet normal 0 0 -1
    outer loop
      vertex 18.75 7 0
      vertex 9.25 7 0
      vertex 9.25 8 0
    endloop
  endfacet
  facet normal 0 0 -1
    outer loop
      vertex 0 6.34509 0
      vertex 4.75 7 0
      vertex 8.12129 0 0
    endloop
  endfacet
  facet normal 0 0 -1
    outer loop
      vertex 4.75 7 0
      vertex 0 8 0
      vertex 4.75 8 0
    endloop
  endfacet
  facet normal -0 0 -1
    outer loop
      vertex 4.75 7 0
      vertex 0 6.34509 0
      vertex 0 8 0
    endloop
  endfacet
  facet normal 0 0 -1
    outer loop
      vertex 25 2.5 0
      vertex 35.2651 2.52879 0
      vertex 35.5578 2.5 0
    endloop
  endfacet
  facet normal 0 0 -1
    outer loop
      vertex 8.12129 0 0
      vertex 35.5578 2.5 0
      vertex 154.734 0 0
    endloop
  endfacet
  facet normal -0 0 -1
    outer loop
      vertex 35.2651 2.52879 0
      vertex 25 2.5 0
      vertex 25.2926 2.52879 0
    endloop
  endfacet
  facet normal 0 -0 -1
    outer loop
      vertex 24.7074 2.52879 0
      vertex 25 2.5 0
      vertex 8.12129 0 0
    endloop
  endfacet
  facet normal 0 -0 -1
    outer loop
      vertex 24.426 2.6142 0
      vertex 24.7074 2.52879 0
      vertex 8.12129 0 0
    endloop
  endfacet
  facet normal 0 -0 -1
    outer loop
      vertex 23.9393 2.93929 0
      vertex 24.1666 2.75279 0
      vertex 8.12129 0 0
    endloop
  endfacet
  facet normal 0 -0 -1
    outer loop
      vertex 24.1666 2.75279 0
      vertex 24.426 2.6142 0
      vertex 8.12129 0 0
    endloop
  endfacet
  facet normal -0 0 -1
    outer loop
      vertex 23.9393 2.93929 0
      vertex 8.12129 0 0
      vertex 23.7528 3.1666 0
    endloop
  endfacet
  facet normal -0 0 -1
    outer loop
      vertex 23.7528 3.1666 0
      vertex 8.12129 0 0
      vertex 18.75 7 0
    endloop
  endfacet
  facet normal -0 -0 -1
    outer loop
      vertex 23.6142 3.42599 0
      vertex 23.7528 3.1666 0
      vertex 18.75 7 0
    endloop
  endfacet
  facet normal -0 -0 -1
    outer loop
      vertex 23.5288 3.7074 0
      vertex 23.6142 3.42599 0
      vertex 18.75 7 0
    endloop
  endfacet
  facet normal -0 0 -1
    outer loop
      vertex 23.5288 4.29259 0
      vertex 23.5 4 0
      vertex 18.75 7 0
    endloop
  endfacet
  facet normal -0 -0 -1
    outer loop
      vertex 23.5 4 0
      vertex 23.5288 3.7074 0
      vertex 18.75 7 0
    endloop
  endfacet
  facet normal -0 0 -1
    outer loop
      vertex 23.6142 4.57399 0
      vertex 23.5288 4.29259 0
      vertex 18.75 7 0
    endloop
  endfacet
  facet normal -0 -0 -1
    outer loop
      vertex 23.25 7 0
      vertex 23.6142 4.57399 0
      vertex 18.75 7 0
    endloop
  endfacet
  facet normal 0 0 -1
    outer loop
      vertex 23.25 7 0
      vertex 23.7528 4.83339 0
      vertex 23.6142 4.57399 0
    endloop
  endfacet
  facet normal 0 0 -1
    outer loop
      vertex 23.25 7 0
      vertex 23.9393 5.0607 0
      vertex 23.7528 4.83339 0
    endloop
  endfacet
  facet normal 0 0 -1
    outer loop
      vertex 23.25 7 0
      vertex 24.7074 5.47119 0
      vertex 24.426 5.38579 0
    endloop
  endfacet
  facet normal 0 0 -1
    outer loop
      vertex 23.25 7 0
      vertex 25 5.5 0
      vertex 24.7074 5.47119 0
    endloop
  endfacet
  facet normal 0 0 -1
    outer loop
      vertex 25 5.5 0
      vertex 23.25 7 0
      vertex 23.25 8 0
    endloop
  endfacet
  facet normal 0 0 -1
    outer loop
      vertex 25.2926 5.47119 0
      vertex 23.25 8 0
      vertex 25.574 5.38579 0
    endloop
  endfacet
  facet normal 0 0 -1
    outer loop
      vertex 25.574 5.38579 0
      vertex 23.25 8 0
      vertex 32.75 8 0
    endloop
  endfacet
  facet normal 0 0 -1
    outer loop
      vertex 25.8334 5.24719 0
      vertex 25.574 5.38579 0
      vertex 32.75 8 0
    endloop
  endfacet
  facet normal 0 0 -1
    outer loop
      vertex 26.0607 5.0607 0
      vertex 25.8334 5.24719 0
      vertex 32.75 8 0
    endloop
  endfacet
  facet normal -0 0 -1
    outer loop
      vertex 32.75 7 0
      vertex 26.0607 5.0607 0
      vertex 32.75 8 0
    endloop
  endfacet
  facet normal 0 0 -1
    outer loop
      vertex 32.75 7 0
      vertex 26.2472 4.83339 0
      vertex 26.0607 5.0607 0
    endloop
  endfacet
  facet normal 0 0 -1
    outer loop
      vertex 32.75 7 0
      vertex 26.3858 4.57399 0
      vertex 26.2472 4.83339 0
    endloop
  endfacet
  facet normal 0 0 -1
    outer loop
      vertex 32.75 7 0
      vertex 26.4712 4.29259 0
      vertex 26.3858 4.57399 0
    endloop
  endfacet
  facet normal 0 0 -1
    outer loop
      vertex 32.75 7 0
      vertex 26.5 4 0
      vertex 26.4712 4.29259 0
    endloop
  endfacet
  facet normal 0 0 -1
    outer loop
      vertex 25.8334 2.75279 0
      vertex 26.0607 2.93929 0
      vertex 34.4971 2.93929 0
    endloop
  endfacet
  facet normal 0 0 -1
    outer loop
      vertex 34.7244 2.75279 0
      vertex 25.8334 2.75279 0
      vertex 34.4971 2.93929 0
    endloop
  endfacet
  facet normal 0 0 -1
    outer loop
      vertex 34.9837 2.6142 0
      vertex 25.574 2.6142 0
      vertex 25.8334 2.75279 0
    endloop
  endfacet
  facet normal -0 0 -1
    outer loop
      vertex 34.9837 2.6142 0
      vertex 25.2926 2.52879 0
      vertex 25.574 2.6142 0
    endloop
  endfacet
  facet normal 0 -0 -1
    outer loop
      vertex 26.5 4 0
      vertex 34.0578 4 0
      vertex 26.4712 3.7074 0
    endloop
  endfacet
  facet normal 0 0 -1
    outer loop
      vertex 36.3911 5.24719 0
      vertex 37.25 7 0
      vertex 36.6184 5.0607 0
    endloop
  endfacet
  facet normal 0 -0 -1
    outer loop
      vertex 51.25 7 0
      vertex 60.75 7 0
      vertex 36.1318 2.6142 0
    endloop
  endfacet
  facet normal 0 0 -1
    outer loop
      vertex 154.734 0 0
      vertex 35.8504 2.52879 0
      vertex 88.75 7 0
    endloop
  endfacet
  facet normal 0 -0 -1
    outer loop
      vertex 65.25 7 0
      vertex 74.75 7 0
      vertex 35.8504 2.52879 0
    endloop
  endfacet
  facet normal 0 0 -1
    outer loop
      vertex 34.9837 2.6142 0
      vertex 25.8334 2.75279 0
      vertex 34.7244 2.75279 0
    endloop
  endfacet
  facet normal 0 0 -1
    outer loop
      vertex 32.75 7 0
      vertex 35.2651 5.47119 0
      vertex 34.9837 5.38579 0
    endloop
  endfacet
  facet normal -0 0 -1
    outer loop
      vertex 34.3105 3.1666 0
      vertex 26.0607 2.93929 0
      vertex 26.2472 3.1666 0
    endloop
  endfacet
  facet normal 0 -0 -1
    outer loop
      vertex 34.1719 3.42599 0
      vertex 34.3105 3.1666 0
      vertex 26.2472 3.1666 0
    endloop
  endfacet
  facet normal 0 -0 -1
    outer loop
      vertex 26.4712 3.7074 0
      vertex 34.1719 3.42599 0
      vertex 26.3858 3.42599 0
    endloop
  endfacet
  facet normal 0 0 -1
    outer loop
      vertex 26.4712 3.7074 0
      vertex 34.0866 3.7074 0
      vertex 34.1719 3.42599 0
    endloop
  endfacet
  facet normal 0 0 -1
    outer loop
      vertex 26.4712 3.7074 0
      vertex 34.0578 4 0
      vertex 34.0866 3.7074 0
    endloop
  endfacet
  facet normal 0 0 -1
    outer loop
      vertex 26.5 4 0
      vertex 32.75 7 0
      vertex 34.0578 4 0
    endloop
  endfacet
  facet normal 0 0 -1
    outer loop
      vertex 34.0578 4 0
      vertex 32.75 7 0
      vertex 34.0866 4.29259 0
    endloop
  endfacet
  facet normal 0 0 -1
    outer loop
      vertex 34.0866 4.29259 0
      vertex 32.75 7 0
      vertex 34.1719 4.57399 0
    endloop
  endfacet
  facet normal 0 0 -1
    outer loop
      vertex 34.1719 4.57399 0
      vertex 32.75 7 0
      vertex 34.3105 4.83339 0
    endloop
  endfacet
  facet normal 0 0 -1
    outer loop
      vertex 34.3105 4.83339 0
      vertex 32.75 7 0
      vertex 34.4971 5.0607 0
    endloop
  endfacet
  facet normal 0 0 -1
    outer loop
      vertex 34.4971 5.0607 0
      vertex 32.75 7 0
      vertex 34.7244 5.24719 0
    endloop
  endfacet
  facet normal 0 0 -1
    outer loop
      vertex 34.7244 5.24719 0
      vertex 32.75 7 0
      vertex 34.9837 5.38579 0
    endloop
  endfacet
  facet normal 0 0 -1
    outer loop
      vertex 32.75 7 0
      vertex 37.25 7 0
      vertex 35.2651 5.47119 0
    endloop
  endfacet
  facet normal 0 0 -1
    outer loop
      vertex 35.2651 5.47119 0
      vertex 37.25 7 0
      vertex 35.5578 5.5 0
    endloop
  endfacet
  facet normal 0 0 -1
    outer loop
      vertex 35.5578 5.5 0
      vertex 37.25 7 0
      vertex 35.8504 5.47119 0
    endloop
  endfacet
  facet normal 0 0 -1
    outer loop
      vertex 35.8504 5.47119 0
      vertex 37.25 7 0
      vertex 36.1318 5.38579 0
    endloop
  endfacet
  facet normal 0 0 -1
    outer loop
      vertex 36.1318 5.38579 0
      vertex 37.25 7 0
      vertex 36.3911 5.24719 0
    endloop
  endfacet
  facet normal 0 0 -1
    outer loop
      vertex 37.25 7 0
      vertex 36.805 4.83339 0
      vertex 36.6184 5.0607 0
    endloop
  endfacet
  facet normal 0 0 -1
    outer loop
      vertex 37.25 7 0
      vertex 36.9436 4.57399 0
      vertex 36.805 4.83339 0
    endloop
  endfacet
  facet normal 0 0 -1
    outer loop
      vertex 37.25 7 0
      vertex 37.0289 4.29259 0
      vertex 36.9436 4.57399 0
    endloop
  endfacet
  facet normal 0 -0 -1
    outer loop
      vertex 37.25 7 0
      vertex 46.75 7 0
      vertex 37.0289 4.29259 0
    endloop
  endfacet
  facet normal 0 0 -1
    outer loop
      vertex 37.0289 4.29259 0
      vertex 46.75 7 0
      vertex 37.0578 4 0
    endloop
  endfacet
  facet normal 0 -0 -1
    outer loop
      vertex 37.0578 4 0
      vertex 46.75 7 0
      vertex 37.0289 3.7074 0
    endloop
  endfacet
  facet normal 0 -0 -1
    outer loop
      vertex 37.0289 3.7074 0
      vertex 46.75 7 0
      vertex 36.9436 3.42599 0
    endloop
  endfacet
  facet normal 0 0 -1
    outer loop
      vertex 46.75 7 0
      vertex 36.6184 2.93929 0
      vertex 36.805 3.1666 0
    endloop
  endfacet
  facet normal 0 0 -1
    outer loop
      vertex 46.75 7 0
      vertex 36.3911 2.75279 0
      vertex 36.6184 2.93929 0
    endloop
  endfacet
  facet normal 0 0 -1
    outer loop
      vertex 51.25 7 0
      vertex 36.1318 2.6142 0
      vertex 36.3911 2.75279 0
    endloop
  endfacet
  facet normal 0 -0 -1
    outer loop
      vertex 60.75 7 0
      vertex 65.25 7 0
      vertex 36.1318 2.6142 0
    endloop
  endfacet
  facet normal 0 0 -1
    outer loop
      vertex 35.5578 2.5 0
      vertex 35.8504 2.52879 0
      vertex 154.734 0 0
    endloop
  endfacet
  facet normal 0 0 -1
    outer loop
      vertex 35.8504 2.52879 0
      vertex 79.25 7 0
      vertex 88.75 7 0
    endloop
  endfacet
  facet normal -0 0 1
    outer loop
      vertex 219.25 7 6
      vertex 229.132 5.26459 6
      vertex 219.25 8 6
    endloop
  endfacet
  facet normal 0 -0 1
    outer loop
      vertex 158.75 7 6
      vertex 158.75 8 6
      vertex 149.25 8 6
    endloop
  endfacet
  facet normal -0 0 1
    outer loop
      vertex 149.25 7 6
      vertex 154.734 1 6
      vertex 158.75 7 6
    endloop
  endfacet
  facet normal 0 0 1
    outer loop
      vertex 219.25 7 6
      vertex 226.825 0 6
      vertex 229.132 5.26459 6
    endloop
  endfacet
  facet normal 0 0 1
    outer loop
      vertex 226.825 0 6
      vertex 230.751 4 6
      vertex 229.132 5.26459 6
    endloop
  endfacet
  facet normal -0 0 1
    outer loop
      vertex 219.25 8 6
      vertex 229.132 5.26459 6
      vertex 231.27 8 6
    endloop
  endfacet
  facet normal 0 0 1
    outer loop
      vertex 214.75 7 6
      vertex 205.25 8 6
      vertex 205.25 7 6
    endloop
  endfacet
  facet normal -0 0 1
    outer loop
      vertex 205.25 8 6
      vertex 214.75 7 6
      vertex 214.75 8 6
    endloop
  endfacet
  facet normal -0 0 1
    outer loop
      vertex 214.75 7 6
      vertex 226.825 0 6
      vertex 219.25 7 6
    endloop
  endfacet
  facet normal 0 0 1
    outer loop
      vertex 205.25 7 6
      vertex 200.75 7 6
      vertex 226.825 0 6
    endloop
  endfacet
  facet normal 0 0 1
    outer loop
      vertex 200.75 7 6
      vertex 191.25 7 6
      vertex 226.825 0 6
    endloop
  endfacet
  facet normal -0 0 1
    outer loop
      vertex 191.25 8 6
      vertex 200.75 7 6
      vertex 200.75 8 6
    endloop
  endfacet
  facet normal 0 0 1
    outer loop
      vertex 214.75 7 6
      vertex 205.25 7 6
      vertex 226.825 0 6
    endloop
  endfacet
  facet normal -0 0 1
    outer loop
      vertex 186.75 7 6
      vertex 161.234 0 6
      vertex 191.25 7 6
    endloop
  endfacet
  facet normal 0 0 1
    outer loop
      vertex 226.825 0 6
      vertex 191.25 7 6
      vertex 161.234 0 6
    endloop
  endfacet
  facet normal 0 0 1
    outer loop
      vertex 200.75 7 6
      vertex 191.25 8 6
      vertex 191.25 7 6
    endloop
  endfacet
  facet normal -0 0 1
    outer loop
      vertex 177.25 8 6
      vertex 186.75 7 6
      vertex 186.75 8 6
    endloop
  endfacet
  facet normal -0 0 1
    outer loop
      vertex 177.25 7 6
      vertex 161.234 0 6
      vertex 186.75 7 6
    endloop
  endfacet
  facet normal -0 0 1
    outer loop
      vertex 172.75 7 6
      vertex 161.234 0 6
      vertex 177.25 7 6
    endloop
  endfacet
  facet normal -0 0 1
    outer loop
      vertex 161.234 1 6
      vertex 161.234 0 6
      vertex 172.75 7 6
    endloop
  endfacet
  facet normal 0 0 1
    outer loop
      vertex 177.25 8 6
      vertex 177.25 7 6
      vertex 186.75 7 6
    endloop
  endfacet
  facet normal -0 0 1
    outer loop
      vertex 163.25 8 6
      vertex 172.75 7 6
      vertex 172.75 8 6
    endloop
  endfacet
  facet normal 0 0 1
    outer loop
      vertex 163.25 7 6
      vertex 172.75 7 6
      vertex 163.25 8 6
    endloop
  endfacet
  facet normal 0 -0 1
    outer loop
      vertex 161.234 1 6
      vertex 163.25 7 6
      vertex 158.75 7 6
    endloop
  endfacet
  facet normal 0 0 1
    outer loop
      vertex 161.234 1 6
      vertex 172.75 7 6
      vertex 163.25 7 6
    endloop
  endfacet
  facet normal 0 0 1
    outer loop
      vertex 161.234 1 6
      vertex 158.75 7 6
      vertex 154.734 1 6
    endloop
  endfacet
  facet normal 0 0 1
    outer loop
      vertex 144.75 7 6
      vertex 135.25 8 6
      vertex 135.25 7 6
    endloop
  endfacet
  facet normal 0 0 1
    outer loop
      vertex 158.75 7 6
      vertex 149.25 8 6
      vertex 149.25 7 6
    endloop
  endfacet
  facet normal 0 0 1
    outer loop
      vertex 154.734 1 6
      vertex 149.25 7 6
      vertex 154.734 0 6
    endloop
  endfacet
  facet normal 0 0 1
    outer loop
      vertex 130.75 7 6
      vertex 121.25 8 6
      vertex 121.25 7 6
    endloop
  endfacet
  facet normal 0 0 1
    outer loop
      vertex 149.25 7 6
      vertex 144.75 7 6
      vertex 154.734 0 6
    endloop
  endfacet
  facet normal 0 0 1
    outer loop
      vertex 144.75 8 6
      vertex 135.25 8 6
      vertex 144.75 7 6
    endloop
  endfacet
  facet normal 0 0 1
    outer loop
      vertex 144.75 7 6
      vertex 135.25 7 6
      vertex 154.734 0 6
    endloop
  endfacet
  facet normal 0 0 1
    outer loop
      vertex 116.75 7 6
      vertex 107.25 8 6
      vertex 107.25 7 6
    endloop
  endfacet
  facet normal 0 0 1
    outer loop
      vertex 135.25 7 6
      vertex 130.75 7 6
      vertex 154.734 0 6
    endloop
  endfacet
  facet normal 0 0 1
    outer loop
      vertex 130.75 8 6
      vertex 121.25 8 6
      vertex 130.75 7 6
    endloop
  endfacet
  facet normal 0 0 1
    outer loop
      vertex 130.75 7 6
      vertex 121.25 7 6
      vertex 154.734 0 6
    endloop
  endfacet
  facet normal 0 0 1
    outer loop
      vertex 102.75 7 6
      vertex 93.25 8 6
      vertex 93.25 7 6
    endloop
  endfacet
  facet normal 0 0 1
    outer loop
      vertex 121.25 7 6
      vertex 116.75 7 6
      vertex 154.734 0 6
    endloop
  endfacet
  facet normal 0 0 1
    outer loop
      vertex 116.75 8 6
      vertex 107.25 8 6
      vertex 116.75 7 6
    endloop
  endfacet
  facet normal 0 0 1
    outer loop
      vertex 116.75 7 6
      vertex 107.25 7 6
      vertex 154.734 0 6
    endloop
  endfacet
  facet normal 0 0 1
    outer loop
      vertex 88.75 7 6
      vertex 79.25 8 6
      vertex 79.25 7 6
    endloop
  endfacet
  facet normal 0 0 1
    outer loop
      vertex 107.25 7 6
      vertex 102.75 7 6
      vertex 154.734 0 6
    endloop
  endfacet
  facet normal 0 0 1
    outer loop
      vertex 102.75 8 6
      vertex 93.25 8 6
      vertex 102.75 7 6
    endloop
  endfacet
  facet normal 0 0 1
    outer loop
      vertex 102.75 7 6
      vertex 93.25 7 6
      vertex 154.734 0 6
    endloop
  endfacet
  facet normal 0 0 1
    outer loop
      vertex 51.25 7 6
      vertex 46.75 7 6
      vertex 36.3911 2.75279 6
    endloop
  endfacet
  facet normal 0 0 1
    outer loop
      vertex 93.25 7 6
      vertex 88.75 7 6
      vertex 154.734 0 6
    endloop
  endfacet
  facet normal 0 0 1
    outer loop
      vertex 88.75 8 6
      vertex 79.25 8 6
      vertex 88.75 7 6
    endloop
  endfacet
  facet normal 0 0 1
    outer loop
      vertex 35.8504 2.52879 6
      vertex 79.25 7 6
      vertex 74.75 7 6
    endloop
  endfacet
  facet normal 0 0 1
    outer loop
      vertex 35.2651 2.52879 6
      vertex 34.9837 2.6142 6
      vertex 25.2926 2.52879 6
    endloop
  endfacet
  facet normal -0 0 1
    outer loop
      vertex 36.1318 2.6142 6
      vertex 35.8504 2.52879 6
      vertex 65.25 7 6
    endloop
  endfacet
  facet normal 0 0 1
    outer loop
      vertex 74.75 8 6
      vertex 65.25 8 6
      vertex 74.75 7 6
    endloop
  endfacet
  facet normal 0 0 1
    outer loop
      vertex 65.25 8 6
      vertex 65.25 7 6
      vertex 74.75 7 6
    endloop
  endfacet
  facet normal 0 0 1
    outer loop
      vertex 26.2472 3.1666 6
      vertex 34.1719 3.42599 6
      vertex 26.3858 3.42599 6
    endloop
  endfacet
  facet normal 0 0 1
    outer loop
      vertex 46.75 7 6
      vertex 36.9436 3.42599 6
      vertex 36.805 3.1666 6
    endloop
  endfacet
  facet normal 0 0 1
    outer loop
      vertex 60.75 8 6
      vertex 51.25 8 6
      vertex 60.75 7 6
    endloop
  endfacet
  facet normal 0 0 1
    outer loop
      vertex 51.25 8 6
      vertex 51.25 7 6
      vertex 60.75 7 6
    endloop
  endfacet
  facet normal 0 0 1
    outer loop
      vertex 35.5578 2.5 6
      vertex 25 2.5 6
      vertex 8.12129 0 6
    endloop
  endfacet
  facet normal 0 0 1
    outer loop
      vertex 34.3105 3.1666 6
      vertex 26.0607 2.93929 6
      vertex 34.4971 2.93929 6
    endloop
  endfacet
  facet normal 0 0 1
    outer loop
      vertex 46.75 8 6
      vertex 37.25 8 6
      vertex 46.75 7 6
    endloop
  endfacet
  facet normal 0 0 1
    outer loop
      vertex 37.25 8 6
      vertex 37.25 7 6
      vertex 46.75 7 6
    endloop
  endfacet
  facet normal 0 -0 1
    outer loop
      vertex 8.12129 0 6
      vertex 9.25 7 6
      vertex 4.75 7 6
    endloop
  endfacet
  facet normal 0 -0 1
    outer loop
      vertex 24.1666 5.24719 6
      vertex 24.426 5.38579 6
      vertex 23.25 7 6
    endloop
  endfacet
  facet normal 0 0 1
    outer loop
      vertex 24.1666 5.24719 6
      vertex 23.25 7 6
      vertex 23.9393 5.0607 6
    endloop
  endfacet
  facet normal 0 0 1
    outer loop
      vertex 23.25 8 6
      vertex 25 5.5 6
      vertex 25.2926 5.47119 6
    endloop
  endfacet
  facet normal 0 0 1
    outer loop
      vertex 8.12129 0 6
      vertex 18.75 7 6
      vertex 9.25 7 6
    endloop
  endfacet
  facet normal 0 0 1
    outer loop
      vertex 18.75 8 6
      vertex 9.25 8 6
      vertex 18.75 7 6
    endloop
  endfacet
  facet normal 0 0 1
    outer loop
      vertex 9.25 8 6
      vertex 9.25 7 6
      vertex 18.75 7 6
    endloop
  endfacet
  facet normal 0 0 1
    outer loop
      vertex 8.12129 0 6
      vertex 4.75 7 6
      vertex 0 6.34509 6
    endloop
  endfacet
  facet normal 0 0 1
    outer loop
      vertex 4.75 8 6
      vertex 0 8 6
      vertex 4.75 7 6
    endloop
  endfacet
  facet normal 0 0 1
    outer loop
      vertex 0 8 6
      vertex 0 6.34509 6
      vertex 4.75 7 6
    endloop
  endfacet
  facet normal 0 0 1
    outer loop
      vertex 35.5578 2.5 6
      vertex 35.2651 2.52879 6
      vertex 25 2.5 6
    endloop
  endfacet
  facet normal 0 0 1
    outer loop
      vertex 154.734 0 6
      vertex 35.5578 2.5 6
      vertex 8.12129 0 6
    endloop
  endfacet
  facet normal -0 0 1
    outer loop
      vertex 25.2926 2.52879 6
      vertex 25 2.5 6
      vertex 35.2651 2.52879 6
    endloop
  endfacet
  facet normal 0 0 1
    outer loop
      vertex 8.12129 0 6
      vertex 25 2.5 6
      vertex 24.7074 2.52879 6
    endloop
  endfacet
  facet normal 0 0 1
    outer loop
      vertex 8.12129 0 6
      vertex 24.7074 2.52879 6
      vertex 24.426 2.6142 6
    endloop
  endfacet
  facet normal 0 0 1
    outer loop
      vertex 8.12129 0 6
      vertex 24.1666 2.75279 6
      vertex 23.9393 2.93929 6
    endloop
  endfacet
  facet normal 0 0 1
    outer loop
      vertex 8.12129 0 6
      vertex 24.426 2.6142 6
      vertex 24.1666 2.75279 6
    endloop
  endfacet
  facet normal 0 0 1
    outer loop
      vertex 23.7528 3.1666 6
      vertex 8.12129 0 6
      vertex 23.9393 2.93929 6
    endloop
  endfacet
  facet normal 0 0 1
    outer loop
      vertex 18.75 7 6
      vertex 8.12129 0 6
      vertex 23.7528 3.1666 6
    endloop
  endfacet
  facet normal 0 0 1
    outer loop
      vertex 18.75 7 6
      vertex 23.7528 3.1666 6
      vertex 23.6142 3.42599 6
    endloop
  endfacet
  facet normal 0 0 1
    outer loop
      vertex 18.75 7 6
      vertex 23.6142 3.42599 6
      vertex 23.5288 3.7074 6
    endloop
  endfacet
  facet normal 0 0 1
    outer loop
      vertex 18.75 7 6
      vertex 23.5 4 6
      vertex 23.5288 4.29259 6
    endloop
  endfacet
  facet normal 0 0 1
    outer loop
      vertex 18.75 7 6
      vertex 23.5288 3.7074 6
      vertex 23.5 4 6
    endloop
  endfacet
  facet normal 0 0 1
    outer loop
      vertex 18.75 7 6
      vertex 23.5288 4.29259 6
      vertex 23.6142 4.57399 6
    endloop
  endfacet
  facet normal -0 0 1
    outer loop
      vertex 18.75 7 6
      vertex 23.6142 4.57399 6
      vertex 23.25 7 6
    endloop
  endfacet
  facet normal 0 -0 1
    outer loop
      vertex 23.6142 4.57399 6
      vertex 23.7528 4.83339 6
      vertex 23.25 7 6
    endloop
  endfacet
  facet normal 0 -0 1
    outer loop
      vertex 23.7528 4.83339 6
      vertex 23.9393 5.0607 6
      vertex 23.25 7 6
    endloop
  endfacet
  facet normal 0 -0 1
    outer loop
      vertex 24.426 5.38579 6
      vertex 24.7074 5.47119 6
      vertex 23.25 7 6
    endloop
  endfacet
  facet normal 0 -0 1
    outer loop
      vertex 24.7074 5.47119 6
      vertex 25 5.5 6
      vertex 23.25 7 6
    endloop
  endfacet
  facet normal 0 0 1
    outer loop
      vertex 23.25 8 6
      vertex 23.25 7 6
      vertex 25 5.5 6
    endloop
  endfacet
  facet normal 0 0 1
    outer loop
      vertex 25.574 5.38579 6
      vertex 23.25 8 6
      vertex 25.2926 5.47119 6
    endloop
  endfacet
  facet normal 0 0 1
    outer loop
      vertex 32.75 8 6
      vertex 23.25 8 6
      vertex 25.574 5.38579 6
    endloop
  endfacet
  facet normal 0 0 1
    outer loop
      vertex 32.75 8 6
      vertex 25.574 5.38579 6
      vertex 25.8334 5.24719 6
    endloop
  endfacet
  facet normal 0 0 1
    outer loop
      vertex 32.75 8 6
      vertex 25.8334 5.24719 6
      vertex 26.0607 5.0607 6
    endloop
  endfacet
  facet normal 0 0 1
    outer loop
      vertex 32.75 8 6
      vertex 26.0607 5.0607 6
      vertex 32.75 7 6
    endloop
  endfacet
  facet normal -0 0 1
    outer loop
      vertex 26.0607 5.0607 6
      vertex 26.2472 4.83339 6
      vertex 32.75 7 6
    endloop
  endfacet
  facet normal -0 0 1
    outer loop
      vertex 26.2472 4.83339 6
      vertex 26.3858 4.57399 6
      vertex 32.75 7 6
    endloop
  endfacet
  facet normal -0 0 1
    outer loop
      vertex 26.3858 4.57399 6
      vertex 26.4712 4.29259 6
      vertex 32.75 7 6
    endloop
  endfacet
  facet normal -0 0 1
    outer loop
      vertex 26.4712 4.29259 6
      vertex 26.5 4 6
      vertex 32.75 7 6
    endloop
  endfacet
  facet normal 0 0 1
    outer loop
      vertex 34.4971 2.93929 6
      vertex 26.0607 2.93929 6
      vertex 25.8334 2.75279 6
    endloop
  endfacet
  facet normal 0 0 1
    outer loop
      vertex 34.4971 2.93929 6
      vertex 25.8334 2.75279 6
      vertex 34.7244 2.75279 6
    endloop
  endfacet
  facet normal 0 0 1
    outer loop
      vertex 25.8334 2.75279 6
      vertex 25.574 2.6142 6
      vertex 34.9837 2.6142 6
    endloop
  endfacet
  facet normal -0 0 1
    outer loop
      vertex 25.574 2.6142 6
      vertex 25.2926 2.52879 6
      vertex 34.9837 2.6142 6
    endloop
  endfacet
  facet normal 0 0 1
    outer loop
      vertex 26.4712 3.7074 6
      vertex 34.0578 4 6
      vertex 26.5 4 6
    endloop
  endfacet
  facet normal 0 -0 1
    outer loop
      vertex 36.6184 5.0607 6
      vertex 37.25 7 6
      vertex 36.3911 5.24719 6
    endloop
  endfacet
  facet normal 0 0 1
    outer loop
      vertex 36.1318 2.6142 6
      vertex 60.75 7 6
      vertex 51.25 7 6
    endloop
  endfacet
  facet normal 0 0 1
    outer loop
      vertex 88.75 7 6
      vertex 35.8504 2.52879 6
      vertex 154.734 0 6
    endloop
  endfacet
  facet normal 0 0 1
    outer loop
      vertex 35.8504 2.52879 6
      vertex 74.75 7 6
      vertex 65.25 7 6
    endloop
  endfacet
  facet normal 0 0 1
    outer loop
      vertex 34.7244 2.75279 6
      vertex 25.8334 2.75279 6
      vertex 34.9837 2.6142 6
    endloop
  endfacet
  facet normal 0 -0 1
    outer loop
      vertex 34.9837 5.38579 6
      vertex 35.2651 5.47119 6
      vertex 32.75 7 6
    endloop
  endfacet
  facet normal -0 0 1
    outer loop
      vertex 26.2472 3.1666 6
      vertex 26.0607 2.93929 6
      vertex 34.3105 3.1666 6
    endloop
  endfacet
  facet normal 0 0 1
    outer loop
      vertex 26.2472 3.1666 6
      vertex 34.3105 3.1666 6
      vertex 34.1719 3.42599 6
    endloop
  endfacet
  facet normal 0 0 1
    outer loop
      vertex 26.3858 3.42599 6
      vertex 34.1719 3.42599 6
      vertex 26.4712 3.7074 6
    endloop
  endfacet
  facet normal 0 0 1
    outer loop
      vertex 34.1719 3.42599 6
      vertex 34.0866 3.7074 6
      vertex 26.4712 3.7074 6
    endloop
  endfacet
  facet normal 0 0 1
    outer loop
      vertex 34.0866 3.7074 6
      vertex 34.0578 4 6
      vertex 26.4712 3.7074 6
    endloop
  endfacet
  facet normal 0 0 1
    outer loop
      vertex 34.0578 4 6
      vertex 32.75 7 6
      vertex 26.5 4 6
    endloop
  endfacet
  facet normal 0 0 1
    outer loop
      vertex 34.0866 4.29259 6
      vertex 32.75 7 6
      vertex 34.0578 4 6
    endloop
  endfacet
  facet normal 0 0 1
    outer loop
      vertex 34.1719 4.57399 6
      vertex 32.75 7 6
      vertex 34.0866 4.29259 6
    endloop
  endfacet
  facet normal 0 0 1
    outer loop
      vertex 34.3105 4.83339 6
      vertex 32.75 7 6
      vertex 34.1719 4.57399 6
    endloop
  endfacet
  facet normal 0 0 1
    outer loop
      vertex 34.4971 5.0607 6
      vertex 32.75 7 6
      vertex 34.3105 4.83339 6
    endloop
  endfacet
  facet normal 0 0 1
    outer loop
      vertex 34.7244 5.24719 6
      vertex 32.75 7 6
      vertex 34.4971 5.0607 6
    endloop
  endfacet
  facet normal 0 0 1
    outer loop
      vertex 34.9837 5.38579 6
      vertex 32.75 7 6
      vertex 34.7244 5.24719 6
    endloop
  endfacet
  facet normal 0 -0 1
    outer loop
      vertex 35.2651 5.47119 6
      vertex 37.25 7 6
      vertex 32.75 7 6
    endloop
  endfacet
  facet normal 0 -0 1
    outer loop
      vertex 35.5578 5.5 6
      vertex 37.25 7 6
      vertex 35.2651 5.47119 6
    endloop
  endfacet
  facet normal 0 -0 1
    outer loop
      vertex 35.8504 5.47119 6
      vertex 37.25 7 6
      vertex 35.5578 5.5 6
    endloop
  endfacet
  facet normal 0 -0 1
    outer loop
      vertex 36.1318 5.38579 6
      vertex 37.25 7 6
      vertex 35.8504 5.47119 6
    endloop
  endfacet
  facet normal 0 -0 1
    outer loop
      vertex 36.3911 5.24719 6
      vertex 37.25 7 6
      vertex 36.1318 5.38579 6
    endloop
  endfacet
  facet normal -0 0 1
    outer loop
      vertex 36.6184 5.0607 6
      vertex 36.805 4.83339 6
      vertex 37.25 7 6
    endloop
  endfacet
  facet normal -0 0 1
    outer loop
      vertex 36.805 4.83339 6
      vertex 36.9436 4.57399 6
      vertex 37.25 7 6
    endloop
  endfacet
  facet normal -0 0 1
    outer loop
      vertex 36.9436 4.57399 6
      vertex 37.0289 4.29259 6
      vertex 37.25 7 6
    endloop
  endfacet
  facet normal 0 0 1
    outer loop
      vertex 37.0289 4.29259 6
      vertex 46.75 7 6
      vertex 37.25 7 6
    endloop
  endfacet
  facet normal 0 -0 1
    outer loop
      vertex 37.0578 4 6
      vertex 46.75 7 6
      vertex 37.0289 4.29259 6
    endloop
  endfacet
  facet normal 0 0 1
    outer loop
      vertex 37.0289 3.7074 6
      vertex 46.75 7 6
      vertex 37.0578 4 6
    endloop
  endfacet
  facet normal 0 0 1
    outer loop
      vertex 36.9436 3.42599 6
      vertex 46.75 7 6
      vertex 37.0289 3.7074 6
    endloop
  endfacet
  facet normal -0 0 1
    outer loop
      vertex 36.805 3.1666 6
      vertex 36.6184 2.93929 6
      vertex 46.75 7 6
    endloop
  endfacet
  facet normal -0 0 1
    outer loop
      vertex 36.6184 2.93929 6
      vertex 36.3911 2.75279 6
      vertex 46.75 7 6
    endloop
  endfacet
  facet normal -0 0 1
    outer loop
      vertex 36.3911 2.75279 6
      vertex 36.1318 2.6142 6
      vertex 51.25 7 6
    endloop
  endfacet
  facet normal 0 0 1
    outer loop
      vertex 36.1318 2.6142 6
      vertex 65.25 7 6
      vertex 60.75 7 6
    endloop
  endfacet
  facet normal 0 0 1
    outer loop
      vertex 154.734 0 6
      vertex 35.8504 2.52879 6
      vertex 35.5578 2.5 6
    endloop
  endfacet
  facet normal 0 0 1
    outer loop
      vertex 88.75 7 6
      vertex 79.25 7 6
      vertex 35.8504 2.52879 6
    endloop
  endfacet
  facet normal 0 -1 0
    outer loop
      vertex 161.234 1 0
      vertex 154.734 1 6
      vertex 154.734 1 0
    endloop
  endfacet
  facet normal 0 -1 0
    outer loop
      vertex 161.234 1 0
      vertex 161.234 1 6
      vertex 154.734 1 6
    endloop
  endfacet
  facet normal -1 0 0
    outer loop
      vertex 161.234 0 0
      vertex 161.234 1 6
      vertex 161.234 1 0
    endloop
  endfacet
  facet normal -1 0 0
    outer loop
      vertex 161.234 0 0
      vertex 161.234 0 6
      vertex 161.234 1 6
    endloop
  endfacet
  facet normal 0 -1 0
    outer loop
      vertex 226.825 0 0
      vertex 161.234 0 6
      vertex 161.234 0 0
    endloop
  endfacet
  facet normal 0 -1 0
    outer loop
      vertex 226.825 0 0
      vertex 226.825 0 6
      vertex 161.234 0 6
    endloop
  endfacet
  facet normal 0.713677 -0.700474 0
    outer loop
      vertex 230.751 4 0
      vertex 226.825 0 6
      vertex 226.825 0 0
    endloop
  endfacet
  facet normal 0.713677 -0.700474 0
    outer loop
      vertex 230.751 4 0
      vertex 230.751 4 6
      vertex 226.825 0 6
    endloop
  endfacet
  facet normal 0.615567 0.788084 0
    outer loop
      vertex 229.132 5.26459 0
      vertex 230.751 4 6
      vertex 230.751 4 0
    endloop
  endfacet
  facet normal 0.615567 0.788084 -0
    outer loop
      vertex 229.132 5.26459 0
      vertex 229.132 5.26459 6
      vertex 230.751 4 6
    endloop
  endfacet
  facet normal 0.78789 -0.615816 0
    outer loop
      vertex 231.27 8 0
      vertex 229.132 5.26459 6
      vertex 229.132 5.26459 0
    endloop
  endfacet
  facet normal 0.78789 -0.615816 0
    outer loop
      vertex 231.27 8 0
      vertex 231.27 8 6
      vertex 229.132 5.26459 6
    endloop
  endfacet
  facet normal 0 1 0
    outer loop
      vertex 219.25 8 0
      vertex 231.27 8 6
      vertex 231.27 8 0
    endloop
  endfacet
  facet normal 0 1 0
    outer loop
      vertex 219.25 8 0
      vertex 219.25 8 6
      vertex 231.27 8 6
    endloop
  endfacet
  facet normal -1 0 0
    outer loop
      vertex 219.25 7 0
      vertex 219.25 8 6
      vertex 219.25 8 0
    endloop
  endfacet
  facet normal -1 0 0
    outer loop
      vertex 219.25 7 0
      vertex 219.25 7 6
      vertex 219.25 8 6
    endloop
  endfacet
  facet normal 0 1 0
    outer loop
      vertex 214.75 7 0
      vertex 219.25 7 6
      vertex 219.25 7 0
    endloop
  endfacet
  facet normal 0 1 0
    outer loop
      vertex 214.75 7 0
      vertex 214.75 7 6
      vertex 219.25 7 6
    endloop
  endfacet
  facet normal 1 0 0
    outer loop
      vertex 214.75 8 0
      vertex 214.75 7 6
      vertex 214.75 7 0
    endloop
  endfacet
  facet normal 1 0 -0
    outer loop
      vertex 214.75 8 0
      vertex 214.75 8 6
      vertex 214.75 7 6
    endloop
  endfacet
  facet normal 0 1 0
    outer loop
      vertex 205.25 8 0
      vertex 214.75 8 6
      vertex 214.75 8 0
    endloop
  endfacet
  facet normal 0 1 0
    outer loop
      vertex 205.25 8 0
      vertex 205.25 8 6
      vertex 214.75 8 6
    endloop
  endfacet
  facet normal -1 0 0
    outer loop
      vertex 205.25 7 0
      vertex 205.25 8 6
      vertex 205.25 8 0
    endloop
  endfacet
  facet normal -1 0 0
    outer loop
      vertex 205.25 7 0
      vertex 205.25 7 6
      vertex 205.25 8 6
    endloop
  endfacet
  facet normal 0 1 0
    outer loop
      vertex 200.75 7 0
      vertex 205.25 7 6
      vertex 205.25 7 0
    endloop
  endfacet
  facet normal 0 1 0
    outer loop
      vertex 200.75 7 0
      vertex 200.75 7 6
      vertex 205.25 7 6
    endloop
  endfacet
  facet normal 1 0 0
    outer loop
      vertex 200.75 8 0
      vertex 200.75 7 6
      vertex 200.75 7 0
    endloop
  endfacet
  facet normal 1 0 -0
    outer loop
      vertex 200.75 8 0
      vertex 200.75 8 6
      vertex 200.75 7 6
    endloop
  endfacet
  facet normal 0 1 0
    outer loop
      vertex 191.25 8 0
      vertex 200.75 8 6
      vertex 200.75 8 0
    endloop
  endfacet
  facet normal 0 1 0
    outer loop
      vertex 191.25 8 0
      vertex 191.25 8 6
      vertex 200.75 8 6
    endloop
  endfacet
  facet normal -1 0 0
    outer loop
      vertex 191.25 7 0
      vertex 191.25 8 6
      vertex 191.25 8 0
    endloop
  endfacet
  facet normal -1 0 0
    outer loop
      vertex 191.25 7 0
      vertex 191.25 7 6
      vertex 191.25 8 6
    endloop
  endfacet
  facet normal 0 1 0
    outer loop
      vertex 186.75 7 0
      vertex 191.25 7 6
      vertex 191.25 7 0
    endloop
  endfacet
  facet normal 0 1 0
    outer loop
      vertex 186.75 7 0
      vertex 186.75 7 6
      vertex 191.25 7 6
    endloop
  endfacet
  facet normal 1 0 0
    outer loop
      vertex 186.75 8 0
      vertex 186.75 7 6
      vertex 186.75 7 0
    endloop
  endfacet
  facet normal 1 0 -0
    outer loop
      vertex 186.75 8 0
      vertex 186.75 8 6
      vertex 186.75 7 6
    endloop
  endfacet
  facet normal 0 1 0
    outer loop
      vertex 177.25 8 0
      vertex 186.75 8 6
      vertex 186.75 8 0
    endloop
  endfacet
  facet normal 0 1 0
    outer loop
      vertex 177.25 8 0
      vertex 177.25 8 6
      vertex 186.75 8 6
    endloop
  endfacet
  facet normal -1 0 0
    outer loop
      vertex 177.25 7 0
      vertex 177.25 8 6
      vertex 177.25 8 0
    endloop
  endfacet
  facet normal -1 0 0
    outer loop
      vertex 177.25 7 0
      vertex 177.25 7 6
      vertex 177.25 8 6
    endloop
  endfacet
  facet normal 0 1 0
    outer loop
      vertex 172.75 7 0
      vertex 177.25 7 6
      vertex 177.25 7 0
    endloop
  endfacet
  facet normal 0 1 0
    outer loop
      vertex 172.75 7 0
      vertex 172.75 7 6
      vertex 177.25 7 6
    endloop
  endfacet
  facet normal 1 0 0
    outer loop
      vertex 172.75 8 0
      vertex 172.75 7 6
      vertex 172.75 7 0
    endloop
  endfacet
  facet normal 1 0 -0
    outer loop
      vertex 172.75 8 0
      vertex 172.75 8 6
      vertex 172.75 7 6
    endloop
  endfacet
  facet normal 0 1 0
    outer loop
      vertex 163.25 8 0
      vertex 172.75 8 6
      vertex 172.75 8 0
    endloop
  endfacet
  facet normal 0 1 0
    outer loop
      vertex 163.25 8 0
      vertex 163.25 8 6
      vertex 172.75 8 6
    endloop
  endfacet
  facet normal -1 0 0
    outer loop
      vertex 163.25 7 0
      vertex 163.25 8 6
      vertex 163.25 8 0
    endloop
  endfacet
  facet normal -1 0 0
    outer loop
      vertex 163.25 7 0
      vertex 163.25 7 6
      vertex 163.25 8 6
    endloop
  endfacet
  facet normal 0 1 0
    outer loop
      vertex 158.75 7 0
      vertex 163.25 7 6
      vertex 163.25 7 0
    endloop
  endfacet
  facet normal 0 1 0
    outer loop
      vertex 158.75 7 0
      vertex 158.75 7 6
      vertex 163.25 7 6
    endloop
  endfacet
  facet normal 1 0 0
    outer loop
      vertex 158.75 8 0
      vertex 158.75 7 6
      vertex 158.75 7 0
    endloop
  endfacet
  facet normal 1 0 -0
    outer loop
      vertex 158.75 8 0
      vertex 158.75 8 6
      vertex 158.75 7 6
    endloop
  endfacet
  facet normal 0 1 0
    outer loop
      vertex 149.25 8 0
      vertex 158.75 8 6
      vertex 158.75 8 0
    endloop
  endfacet
  facet normal 0 1 0
    outer loop
      vertex 149.25 8 0
      vertex 149.25 8 6
      vertex 158.75 8 6
    endloop
  endfacet
  facet normal -1 0 0
    outer loop
      vertex 149.25 7 0
      vertex 149.25 8 6
      vertex 149.25 8 0
    endloop
  endfacet
  facet normal -1 0 0
    outer loop
      vertex 149.25 7 0
      vertex 149.25 7 6
      vertex 149.25 8 6
    endloop
  endfacet
  facet normal 0 1 0
    outer loop
      vertex 144.75 7 0
      vertex 149.25 7 6
      vertex 149.25 7 0
    endloop
  endfacet
  facet normal 0 1 0
    outer loop
      vertex 144.75 7 0
      vertex 144.75 7 6
      vertex 149.25 7 6
    endloop
  endfacet
  facet normal 1 0 0
    outer loop
      vertex 144.75 8 0
      vertex 144.75 7 6
      vertex 144.75 7 0
    endloop
  endfacet
  facet normal 1 0 -0
    outer loop
      vertex 144.75 8 0
      vertex 144.75 8 6
      vertex 144.75 7 6
    endloop
  endfacet
  facet normal 0 1 0
    outer loop
      vertex 135.25 8 0
      vertex 144.75 8 6
      vertex 144.75 8 0
    endloop
  endfacet
  facet normal 0 1 0
    outer loop
      vertex 135.25 8 0
      vertex 135.25 8 6
      vertex 144.75 8 6
    endloop
  endfacet
  facet normal -1 0 0
    outer loop
      vertex 135.25 7 0
      vertex 135.25 8 6
      vertex 135.25 8 0
    endloop
  endfacet
  facet normal -1 0 0
    outer loop
      vertex 135.25 7 0
      vertex 135.25 7 6
      vertex 135.25 8 6
    endloop
  endfacet
  facet normal 0 1 0
    outer loop
      vertex 130.75 7 0
      vertex 135.25 7 6
      vertex 135.25 7 0
    endloop
  endfacet
  facet normal 0 1 0
    outer loop
      vertex 130.75 7 0
      vertex 130.75 7 6
      vertex 135.25 7 6
    endloop
  endfacet
  facet normal 1 0 0
    outer loop
      vertex 130.75 8 0
      vertex 130.75 7 6
      vertex 130.75 7 0
    endloop
  endfacet
  facet normal 1 0 -0
    outer loop
      vertex 130.75 8 0
      vertex 130.75 8 6
      vertex 130.75 7 6
    endloop
  endfacet
  facet normal 0 1 0
    outer loop
      vertex 121.25 8 0
      vertex 130.75 8 6
      vertex 130.75 8 0
    endloop
  endfacet
  facet normal 0 1 0
    outer loop
      vertex 121.25 8 0
      vertex 121.25 8 6
      vertex 130.75 8 6
    endloop
  endfacet
  facet normal -1 0 0
    outer loop
      vertex 121.25 7 0
      vertex 121.25 8 6
      vertex 121.25 8 0
    endloop
  endfacet
  facet normal -1 0 0
    outer loop
      vertex 121.25 7 0
      vertex 121.25 7 6
      vertex 121.25 8 6
    endloop
  endfacet
  facet normal 0 1 0
    outer loop
      vertex 116.75 7 0
      vertex 121.25 7 6
      vertex 121.25 7 0
    endloop
  endfacet
  facet normal 0 1 0
    outer loop
      vertex 116.75 7 0
      vertex 116.75 7 6
      vertex 121.25 7 6
    endloop
  endfacet
  facet normal 1 0 0
    outer loop
      vertex 116.75 8 0
      vertex 116.75 7 6
      vertex 116.75 7 0
    endloop
  endfacet
  facet normal 1 0 -0
    outer loop
      vertex 116.75 8 0
      vertex 116.75 8 6
      vertex 116.75 7 6
    endloop
  endfacet
  facet normal 0 1 0
    outer loop
      vertex 107.25 8 0
      vertex 116.75 8 6
      vertex 116.75 8 0
    endloop
  endfacet
  facet normal 0 1 0
    outer loop
      vertex 107.25 8 0
      vertex 107.25 8 6
      vertex 116.75 8 6
    endloop
  endfacet
  facet normal -1 0 0
    outer loop
      vertex 107.25 7 0
      vertex 107.25 8 6
      vertex 107.25 8 0
    endloop
  endfacet
  facet normal -1 0 0
    outer loop
      vertex 107.25 7 0
      vertex 107.25 7 6
      vertex 107.25 8 6
    endloop
  endfacet
  facet normal 0 1 0
    outer loop
      vertex 102.75 7 0
      vertex 107.25 7 6
      vertex 107.25 7 0
    endloop
  endfacet
  facet normal 0 1 0
    outer loop
      vertex 102.75 7 0
      vertex 102.75 7 6
      vertex 107.25 7 6
    endloop
  endfacet
  facet normal 1 0 0
    outer loop
      vertex 102.75 8 0
      vertex 102.75 7 6
      vertex 102.75 7 0
    endloop
  endfacet
  facet normal 1 0 -0
    outer loop
      vertex 102.75 8 0
      vertex 102.75 8 6
      vertex 102.75 7 6
    endloop
  endfacet
  facet normal 0 1 0
    outer loop
      vertex 93.25 8 0
      vertex 102.75 8 6
      vertex 102.75 8 0
    endloop
  endfacet
  facet normal 0 1 0
    outer loop
      vertex 93.25 8 0
      vertex 93.25 8 6
      vertex 102.75 8 6
    endloop
  endfacet
  facet normal -1 0 0
    outer loop
      vertex 93.25 7 0
      vertex 93.25 8 6
      vertex 93.25 8 0
    endloop
  endfacet
  facet normal -1 0 0
    outer loop
      vertex 93.25 7 0
      vertex 93.25 7 6
      vertex 93.25 8 6
    endloop
  endfacet
  facet normal 0 1 0
    outer loop
      vertex 88.75 7 0
      vertex 93.25 7 6
      vertex 93.25 7 0
    endloop
  endfacet
  facet normal 0 1 0
    outer loop
      vertex 88.75 7 0
      vertex 88.75 7 6
      vertex 93.25 7 6
    endloop
  endfacet
  facet normal 1 0 0
    outer loop
      vertex 88.75 8 0
      vertex 88.75 7 6
      vertex 88.75 7 0
    endloop
  endfacet
  facet normal 1 0 -0
    outer loop
      vertex 88.75 8 0
      vertex 88.75 8 6
      vertex 88.75 7 6
    endloop
  endfacet
  facet normal 0 1 0
    outer loop
      vertex 79.25 8 0
      vertex 88.75 8 6
      vertex 88.75 8 0
    endloop
  endfacet
  facet normal 0 1 0
    outer loop
      vertex 79.25 8 0
      vertex 79.25 8 6
      vertex 88.75 8 6
    endloop
  endfacet
  facet normal -1 0 0
    outer loop
      vertex 79.25 7 0
      vertex 79.25 8 6
      vertex 79.25 8 0
    endloop
  endfacet
  facet normal -1 0 0
    outer loop
      vertex 79.25 7 0
      vertex 79.25 7 6
      vertex 79.25 8 6
    endloop
  endfacet
  facet normal 0 1 0
    outer loop
      vertex 74.75 7 0
      vertex 79.25 7 6
      vertex 79.25 7 0
    endloop
  endfacet
  facet normal 0 1 0
    outer loop
      vertex 74.75 7 0
      vertex 74.75 7 6
      vertex 79.25 7 6
    endloop
  endfacet
  facet normal 1 0 0
    outer loop
      vertex 74.75 8 0
      vertex 74.75 7 6
      vertex 74.75 7 0
    endloop
  endfacet
  facet normal 1 0 -0
    outer loop
      vertex 74.75 8 0
      vertex 74.75 8 6
      vertex 74.75 7 6
    endloop
  endfacet
  facet normal 0 1 0
    outer loop
      vertex 65.25 8 0
      vertex 74.75 8 6
      vertex 74.75 8 0
    endloop
  endfacet
  facet normal 0 1 0
    outer loop
      vertex 65.25 8 0
      vertex 65.25 8 6
      vertex 74.75 8 6
    endloop
  endfacet
  facet normal -1 0 0
    outer loop
      vertex 65.25 7 0
      vertex 65.25 8 6
      vertex 65.25 8 0
    endloop
  endfacet
  facet normal -1 0 0
    outer loop
      vertex 65.25 7 0
      vertex 65.25 7 6
      vertex 65.25 8 6
    endloop
  endfacet
  facet normal 0 1 0
    outer loop
      vertex 60.75 7 0
      vertex 65.25 7 6
      vertex 65.25 7 0
    endloop
  endfacet
  facet normal 0 1 0
    outer loop
      vertex 60.75 7 0
      vertex 60.75 7 6
      vertex 65.25 7 6
    endloop
  endfacet
  facet normal 1 0 0
    outer loop
      vertex 60.75 8 0
      vertex 60.75 7 6
      vertex 60.75 7 0
    endloop
  endfacet
  facet normal 1 0 -0
    outer loop
      vertex 60.75 8 0
      vertex 60.75 8 6
      vertex 60.75 7 6
    endloop
  endfacet
  facet normal 0 1 0
    outer loop
      vertex 51.25 8 0
      vertex 60.75 8 6
      vertex 60.75 8 0
    endloop
  endfacet
  facet normal 0 1 0
    outer loop
      vertex 51.25 8 0
      vertex 51.25 8 6
      vertex 60.75 8 6
    endloop
  endfacet
  facet normal -1 0 0
    outer loop
      vertex 51.25 7 0
      vertex 51.25 8 6
      vertex 51.25 8 0
    endloop
  endfacet
  facet normal -1 0 0
    outer loop
      vertex 51.25 7 0
      vertex 51.25 7 6
      vertex 51.25 8 6
    endloop
  endfacet
  facet normal 0 1 0
    outer loop
      vertex 46.75 7 0
      vertex 51.25 7 6
      vertex 51.25 7 0
    endloop
  endfacet
  facet normal 0 1 0
    outer loop
      vertex 46.75 7 0
      vertex 46.75 7 6
      vertex 51.25 7 6
    endloop
  endfacet
  facet normal 1 0 0
    outer loop
      vertex 46.75 8 0
      vertex 46.75 7 6
      vertex 46.75 7 0
    endloop
  endfacet
  facet normal 1 0 -0
    outer loop
      vertex 46.75 8 0
      vertex 46.75 8 6
      vertex 46.75 7 6
    endloop
  endfacet
  facet normal 0 1 0
    outer loop
      vertex 37.25 8 0
      vertex 46.75 8 6
      vertex 46.75 8 0
    endloop
  endfacet
  facet normal 0 1 0
    outer loop
      vertex 37.25 8 0
      vertex 37.25 8 6
      vertex 46.75 8 6
    endloop
  endfacet
  facet normal -1 0 0
    outer loop
      vertex 37.25 7 0
      vertex 37.25 8 6
      vertex 37.25 8 0
    endloop
  endfacet
  facet normal -1 0 0
    outer loop
      vertex 37.25 7 0
      vertex 37.25 7 6
      vertex 37.25 8 6
    endloop
  endfacet
  facet normal 0 1 0
    outer loop
      vertex 32.75 7 0
      vertex 37.25 7 6
      vertex 37.25 7 0
    endloop
  endfacet
  facet normal 0 1 0
    outer loop
      vertex 32.75 7 0
      vertex 32.75 7 6
      vertex 37.25 7 6
    endloop
  endfacet
  facet normal 1 0 0
    outer loop
      vertex 32.75 8 0
      vertex 32.75 7 6
      vertex 32.75 7 0
    endloop
  endfacet
  facet normal 1 0 -0
    outer loop
      vertex 32.75 8 0
      vertex 32.75 8 6
      vertex 32.75 7 6
    endloop
  endfacet
  facet normal 0 1 0
    outer loop
      vertex 23.25 8 0
      vertex 32.75 8 6
      vertex 32.75 8 0
    endloop
  endfacet
  facet normal 0 1 0
    outer loop
      vertex 23.25 8 0
      vertex 23.25 8 6
      vertex 32.75 8 6
    endloop
  endfacet
  facet normal -1 0 0
    outer loop
      vertex 23.25 7 0
      vertex 23.25 8 6
      vertex 23.25 8 0
    endloop
  endfacet
  facet normal -1 0 0
    outer loop
      vertex 23.25 7 0
      vertex 23.25 7 6
      vertex 23.25 8 6
    endloop
  endfacet
  facet normal 0 1 0
    outer loop
      vertex 18.75 7 0
      vertex 23.25 7 6
      vertex 23.25 7 0
    endloop
  endfacet
  facet normal 0 1 0
    outer loop
      vertex 18.75 7 0
      vertex 18.75 7 6
      vertex 23.25 7 6
    endloop
  endfacet
  facet normal 1 0 0
    outer loop
      vertex 18.75 8 0
      vertex 18.75 7 6
      vertex 18.75 7 0
    endloop
  endfacet
  facet normal 1 0 -0
    outer loop
      vertex 18.75 8 0
      vertex 18.75 8 6
      vertex 18.75 7 6
    endloop
  endfacet
  facet normal 0 1 0
    outer loop
      vertex 9.25 8 0
      vertex 18.75 8 6
      vertex 18.75 8 0
    endloop
  endfacet
  facet normal 0 1 0
    outer loop
      vertex 9.25 8 0
      vertex 9.25 8 6
      vertex 18.75 8 6
    endloop
  endfacet
  facet normal -1 0 0
    outer loop
      vertex 9.25 7 0
      vertex 9.25 8 6
      vertex 9.25 8 0
    endloop
  endfacet
  facet normal -1 0 0
    outer loop
      vertex 9.25 7 0
      vertex 9.25 7 6
      vertex 9.25 8 6
    endloop
  endfacet
  facet normal 0 1 0
    outer loop
      vertex 4.75 7 0
      vertex 9.25 7 6
      vertex 9.25 7 0
    endloop
  endfacet
  facet normal 0 1 0
    outer loop
      vertex 4.75 7 0
      vertex 4.75 7 6
      vertex 9.25 7 6
    endloop
  endfacet
  facet normal 1 0 0
    outer loop
      vertex 4.75 8 0
      vertex 4.75 7 6
      vertex 4.75 7 0
    endloop
  endfacet
  facet normal 1 0 -0
    outer loop
      vertex 4.75 8 0
      vertex 4.75 8 6
      vertex 4.75 7 6
    endloop
  endfacet
  facet normal 0 1 0
    outer loop
      vertex 0 8 0
      vertex 4.75 8 6
      vertex 4.75 8 0
    endloop
  endfacet
  facet normal 0 1 0
    outer loop
      vertex 0 8 0
      vertex 0 8 6
      vertex 4.75 8 6
    endloop
  endfacet
  facet normal -1 0 0
    outer loop
      vertex 0 6.34509 0
      vertex 0 8 6
      vertex 0 8 0
    endloop
  endfacet
  facet normal -1 0 0
    outer loop
      vertex 0 6.34509 0
      vertex 0 6.34509 6
      vertex 0 8 6
    endloop
  endfacet
  facet normal -0.615664 -0.788009 0
    outer loop
      vertex 8.12129 0 0
      vertex 0 6.34509 6
      vertex 0 6.34509 0
    endloop
  endfacet
  facet normal -0.615664 -0.788009 0
    outer loop
      vertex 8.12129 0 0
      vertex 8.12129 0 6
      vertex 0 6.34509 6
    endloop
  endfacet
  facet normal 0 -1 0
    outer loop
      vertex 154.734 0 0
      vertex 8.12129 0 6
      vertex 8.12129 0 0
    endloop
  endfacet
  facet normal 0 -1 0
    outer loop
      vertex 154.734 0 0
      vertex 154.734 0 6
      vertex 8.12129 0 6
    endloop
  endfacet
  facet normal 1 0 0
    outer loop
      vertex 154.734 1 0
      vertex 154.734 0 6
      vertex 154.734 0 0
    endloop
  endfacet
  facet normal 1 0 -0
    outer loop
      vertex 154.734 1 0
      vertex 154.734 1 6
      vertex 154.734 0 6
    endloop
  endfacet
  facet normal 0.290435 0.956895 -0
    outer loop
      vertex 24.426 2.6142 0
      vertex 24.426 2.6142 6
      vertex 24.7074 2.52879 0
    endloop
  endfacet
  facet normal 0.290435 0.956895 0
    outer loop
      vertex 24.7074 2.52879 6
      vertex 24.7074 2.52879 0
      vertex 24.426 2.6142 6
    endloop
  endfacet
  facet normal 0.471232 0.882009 -0
    outer loop
      vertex 24.1666 2.75279 0
      vertex 24.1666 2.75279 6
      vertex 24.426 2.6142 0
    endloop
  endfacet
  facet normal 0.471232 0.882009 0
    outer loop
      vertex 24.426 2.6142 6
      vertex 24.426 2.6142 0
      vertex 24.1666 2.75279 6
    endloop
  endfacet
  facet normal 0.634311 0.773078 -0
    outer loop
      vertex 23.9393 2.93929 0
      vertex 23.9393 2.93929 6
      vertex 24.1666 2.75279 0
    endloop
  endfacet
  facet normal 0.634311 0.773078 0
    outer loop
      vertex 24.1666 2.75279 6
      vertex 24.1666 2.75279 0
      vertex 23.9393 2.93929 6
    endloop
  endfacet
  facet normal 0.773091 0.634295 -0
    outer loop
      vertex 23.7528 3.1666 0
      vertex 23.7528 3.1666 6
      vertex 23.9393 2.93929 0
    endloop
  endfacet
  facet normal 0.773091 0.634295 0
    outer loop
      vertex 23.9393 2.93929 6
      vertex 23.9393 2.93929 0
      vertex 23.7528 3.1666 6
    endloop
  endfacet
  facet normal 0.881987 0.471273 -0
    outer loop
      vertex 23.6142 3.42599 0
      vertex 23.6142 3.42599 6
      vertex 23.7528 3.1666 0
    endloop
  endfacet
  facet normal 0.881987 0.471273 0
    outer loop
      vertex 23.7528 3.1666 6
      vertex 23.7528 3.1666 0
      vertex 23.6142 3.42599 6
    endloop
  endfacet
  facet normal 0.956907 0.290394 -0
    outer loop
      vertex 23.5288 3.7074 0
      vertex 23.5288 3.7074 6
      vertex 23.6142 3.42599 0
    endloop
  endfacet
  facet normal 0.956907 0.290394 0
    outer loop
      vertex 23.6142 3.42599 6
      vertex 23.6142 3.42599 0
      vertex 23.5288 3.7074 6
    endloop
  endfacet
  facet normal 0.995191 0.0979545 -0
    outer loop
      vertex 23.5 4 0
      vertex 23.5 4 6
      vertex 23.5288 3.7074 0
    endloop
  endfacet
  facet normal 0.995191 0.0979545 0
    outer loop
      vertex 23.5288 3.7074 6
      vertex 23.5288 3.7074 0
      vertex 23.5 4 6
    endloop
  endfacet
  facet normal 0.995191 -0.0979579 0
    outer loop
      vertex 23.5288 4.29259 0
      vertex 23.5288 4.29259 6
      vertex 23.5 4 0
    endloop
  endfacet
  facet normal 0.995191 -0.0979579 0
    outer loop
      vertex 23.5 4 6
      vertex 23.5 4 0
      vertex 23.5288 4.29259 6
    endloop
  endfacet
  facet normal 0.956904 -0.290404 0
    outer loop
      vertex 23.6142 4.57399 0
      vertex 23.6142 4.57399 6
      vertex 23.5288 4.29259 0
    endloop
  endfacet
  facet normal 0.956904 -0.290404 0
    outer loop
      vertex 23.5288 4.29259 6
      vertex 23.5288 4.29259 0
      vertex 23.6142 4.57399 6
    endloop
  endfacet
  facet normal 0.881995 -0.471259 0
    outer loop
      vertex 23.7528 4.83339 0
      vertex 23.7528 4.83339 6
      vertex 23.6142 4.57399 0
    endloop
  endfacet
  facet normal 0.881995 -0.471259 0
    outer loop
      vertex 23.6142 4.57399 6
      vertex 23.6142 4.57399 0
      vertex 23.7528 4.83339 6
    endloop
  endfacet
  facet normal 0.773091 -0.634295 0
    outer loop
      vertex 23.9393 5.0607 0
      vertex 23.9393 5.0607 6
      vertex 23.7528 4.83339 0
    endloop
  endfacet
  facet normal 0.773091 -0.634295 0
    outer loop
      vertex 23.7528 4.83339 6
      vertex 23.7528 4.83339 0
      vertex 23.9393 5.0607 6
    endloop
  endfacet
  facet normal 0.634291 -0.773094 0
    outer loop
      vertex 24.1666 5.24719 0
      vertex 24.1666 5.24719 6
      vertex 23.9393 5.0607 0
    endloop
  endfacet
  facet normal 0.634291 -0.773094 0
    outer loop
      vertex 23.9393 5.0607 6
      vertex 23.9393 5.0607 0
      vertex 24.1666 5.24719 6
    endloop
  endfacet
  facet normal 0.471259 -0.881995 0
    outer loop
      vertex 24.426 5.38579 0
      vertex 24.426 5.38579 6
      vertex 24.1666 5.24719 0
    endloop
  endfacet
  facet normal 0.471259 -0.881995 0
    outer loop
      vertex 24.1666 5.24719 6
      vertex 24.1666 5.24719 0
      vertex 24.426 5.38579 6
    endloop
  endfacet
  facet normal 0.290404 -0.956904 0
    outer loop
      vertex 24.7074 5.47119 0
      vertex 24.7074 5.47119 6
      vertex 24.426 5.38579 0
    endloop
  endfacet
  facet normal 0.290404 -0.956904 0
    outer loop
      vertex 24.426 5.38579 6
      vertex 24.426 5.38579 0
      vertex 24.7074 5.47119 6
    endloop
  endfacet
  facet normal 0.0979882 -0.995188 0
    outer loop
      vertex 25 5.5 0
      vertex 25 5.5 6
      vertex 24.7074 5.47119 0
    endloop
  endfacet
  facet normal 0.0979882 -0.995188 0
    outer loop
      vertex 24.7074 5.47119 6
      vertex 24.7074 5.47119 0
      vertex 25 5.5 6
    endloop
  endfacet
  facet normal -0.0979882 -0.995188 0
    outer loop
      vertex 25.2926 5.47119 0
      vertex 25.2926 5.47119 6
      vertex 25 5.5 0
    endloop
  endfacet
  facet normal -0.0979882 -0.995188 -0
    outer loop
      vertex 25 5.5 6
      vertex 25 5.5 0
      vertex 25.2926 5.47119 6
    endloop
  endfacet
  facet normal -0.290404 -0.956904 0
    outer loop
      vertex 25.574 5.38579 0
      vertex 25.574 5.38579 6
      vertex 25.2926 5.47119 0
    endloop
  endfacet
  facet normal -0.290404 -0.956904 -0
    outer loop
      vertex 25.2926 5.47119 6
      vertex 25.2926 5.47119 0
      vertex 25.574 5.38579 6
    endloop
  endfacet
  facet normal -0.471259 -0.881995 0
    outer loop
      vertex 25.8334 5.24719 0
      vertex 25.8334 5.24719 6
      vertex 25.574 5.38579 0
    endloop
  endfacet
  facet normal -0.471259 -0.881995 -0
    outer loop
      vertex 25.574 5.38579 6
      vertex 25.574 5.38579 0
      vertex 25.8334 5.24719 6
    endloop
  endfacet
  facet normal -0.634291 -0.773094 0
    outer loop
      vertex 26.0607 5.0607 0
      vertex 26.0607 5.0607 6
      vertex 25.8334 5.24719 0
    endloop
  endfacet
  facet normal -0.634291 -0.773094 -0
    outer loop
      vertex 25.8334 5.24719 6
      vertex 25.8334 5.24719 0
      vertex 26.0607 5.0607 6
    endloop
  endfacet
  facet normal -0.773091 -0.634295 0
    outer loop
      vertex 26.2472 4.83339 0
      vertex 26.2472 4.83339 6
      vertex 26.0607 5.0607 0
    endloop
  endfacet
  facet normal -0.773091 -0.634295 -0
    outer loop
      vertex 26.0607 5.0607 6
      vertex 26.0607 5.0607 0
      vertex 26.2472 4.83339 6
    endloop
  endfacet
  facet normal -0.881995 -0.471259 0
    outer loop
      vertex 26.3858 4.57399 0
      vertex 26.3858 4.57399 6
      vertex 26.2472 4.83339 0
    endloop
  endfacet
  facet normal -0.881995 -0.471259 -0
    outer loop
      vertex 26.2472 4.83339 6
      vertex 26.2472 4.83339 0
      vertex 26.3858 4.57399 6
    endloop
  endfacet
  facet normal -0.956904 -0.290404 0
    outer loop
      vertex 26.4712 4.29259 0
      vertex 26.4712 4.29259 6
      vertex 26.3858 4.57399 0
    endloop
  endfacet
  facet normal -0.956904 -0.290404 -0
    outer loop
      vertex 26.3858 4.57399 6
      vertex 26.3858 4.57399 0
      vertex 26.4712 4.29259 6
    endloop
  endfacet
  facet normal -0.995191 -0.0979579 0
    outer loop
      vertex 26.5 4 0
      vertex 26.5 4 6
      vertex 26.4712 4.29259 0
    endloop
  endfacet
  facet normal -0.995191 -0.0979579 -0
    outer loop
      vertex 26.4712 4.29259 6
      vertex 26.4712 4.29259 0
      vertex 26.5 4 6
    endloop
  endfacet
  facet normal -0.995191 0.0979545 0
    outer loop
      vertex 26.4712 3.7074 0
      vertex 26.4712 3.7074 6
      vertex 26.5 4 0
    endloop
  endfacet
  facet normal -0.995191 0.0979545 0
    outer loop
      vertex 26.5 4 6
      vertex 26.5 4 0
      vertex 26.4712 3.7074 6
    endloop
  endfacet
  facet normal -0.956907 0.290394 0
    outer loop
      vertex 26.3858 3.42599 0
      vertex 26.3858 3.42599 6
      vertex 26.4712 3.7074 0
    endloop
  endfacet
  facet normal -0.956907 0.290394 0
    outer loop
      vertex 26.4712 3.7074 6
      vertex 26.4712 3.7074 0
      vertex 26.3858 3.42599 6
    endloop
  endfacet
  facet normal -0.881987 0.471273 0
    outer loop
      vertex 26.2472 3.1666 0
      vertex 26.2472 3.1666 6
      vertex 26.3858 3.42599 0
    endloop
  endfacet
  facet normal -0.881987 0.471273 0
    outer loop
      vertex 26.3858 3.42599 6
      vertex 26.3858 3.42599 0
      vertex 26.2472 3.1666 6
    endloop
  endfacet
  facet normal -0.773091 0.634295 0
    outer loop
      vertex 26.0607 2.93929 0
      vertex 26.0607 2.93929 6
      vertex 26.2472 3.1666 0
    endloop
  endfacet
  facet normal -0.773091 0.634295 0
    outer loop
      vertex 26.2472 3.1666 6
      vertex 26.2472 3.1666 0
      vertex 26.0607 2.93929 6
    endloop
  endfacet
  facet normal -0.634311 0.773078 0
    outer loop
      vertex 25.8334 2.75279 0
      vertex 25.8334 2.75279 6
      vertex 26.0607 2.93929 0
    endloop
  endfacet
  facet normal -0.634311 0.773078 0
    outer loop
      vertex 26.0607 2.93929 6
      vertex 26.0607 2.93929 0
      vertex 25.8334 2.75279 6
    endloop
  endfacet
  facet normal -0.471232 0.882009 0
    outer loop
      vertex 25.574 2.6142 0
      vertex 25.574 2.6142 6
      vertex 25.8334 2.75279 0
    endloop
  endfacet
  facet normal -0.471232 0.882009 0
    outer loop
      vertex 25.8334 2.75279 6
      vertex 25.8334 2.75279 0
      vertex 25.574 2.6142 6
    endloop
  endfacet
  facet normal -0.290435 0.956895 0
    outer loop
      vertex 25.2926 2.52879 0
      vertex 25.2926 2.52879 6
      vertex 25.574 2.6142 0
    endloop
  endfacet
  facet normal -0.290435 0.956895 0
    outer loop
      vertex 25.574 2.6142 6
      vertex 25.574 2.6142 0
      vertex 25.2926 2.52879 6
    endloop
  endfacet
  facet normal -0.0979209 0.995194 0
    outer loop
      vertex 25 2.5 0
      vertex 25 2.5 6
      vertex 25.2926 2.52879 0
    endloop
  endfacet
  facet normal -0.0979209 0.995194 0
    outer loop
      vertex 25.2926 2.52879 6
      vertex 25.2926 2.52879 0
      vertex 25 2.5 6
    endloop
  endfacet
  facet normal 0.0979209 0.995194 -0
    outer loop
      vertex 24.7074 2.52879 0
      vertex 24.7074 2.52879 6
      vertex 25 2.5 0
    endloop
  endfacet
  facet normal 0.0979209 0.995194 0
    outer loop
      vertex 25 2.5 6
      vertex 25 2.5 0
      vertex 24.7074 2.52879 6
    endloop
  endfacet
  facet normal 0.290435 0.956895 -0
    outer loop
      vertex 34.9837 2.6142 0
      vertex 34.9837 2.6142 6
      vertex 35.2651 2.52879 0
    endloop
  endfacet
  facet normal 0.290435 0.956895 0
    outer loop
      vertex 35.2651 2.52879 6
      vertex 35.2651 2.52879 0
      vertex 34.9837 2.6142 6
    endloop
  endfacet
  facet normal 0.471374 0.881934 -0
    outer loop
      vertex 34.7244 2.75279 0
      vertex 34.7244 2.75279 6
      vertex 34.9837 2.6142 0
    endloop
  endfacet
  facet normal 0.471374 0.881934 0
    outer loop
      vertex 34.9837 2.6142 6
      vertex 34.9837 2.6142 0
      vertex 34.7244 2.75279 6
    endloop
  endfacet
  facet normal 0.634311 0.773078 -0
    outer loop
      vertex 34.4971 2.93929 0
      vertex 34.4971 2.93929 6
      vertex 34.7244 2.75279 0
    endloop
  endfacet
  facet normal 0.634311 0.773078 0
    outer loop
      vertex 34.7244 2.75279 6
      vertex 34.7244 2.75279 0
      vertex 34.4971 2.93929 6
    endloop
  endfacet
  facet normal 0.772925 0.634498 -0
    outer loop
      vertex 34.3105 3.1666 0
      vertex 34.3105 3.1666 6
      vertex 34.4971 2.93929 0
    endloop
  endfacet
  facet normal 0.772925 0.634498 0
    outer loop
      vertex 34.4971 2.93929 6
      vertex 34.4971 2.93929 0
      vertex 34.3105 3.1666 6
    endloop
  endfacet
  facet normal 0.881987 0.471273 -0
    outer loop
      vertex 34.1719 3.42599 0
      vertex 34.1719 3.42599 6
      vertex 34.3105 3.1666 0
    endloop
  endfacet
  facet normal 0.881987 0.471273 0
    outer loop
      vertex 34.3105 3.1666 6
      vertex 34.3105 3.1666 0
      vertex 34.1719 3.42599 6
    endloop
  endfacet
  facet normal 0.957002 0.290083 -0
    outer loop
      vertex 34.0866 3.7074 0
      vertex 34.0866 3.7074 6
      vertex 34.1719 3.42599 0
    endloop
  endfacet
  facet normal 0.957002 0.290083 0
    outer loop
      vertex 34.1719 3.42599 6
      vertex 34.1719 3.42599 0
      vertex 34.0866 3.7074 6
    endloop
  endfacet
  facet normal 0.995191 0.0979545 -0
    outer loop
      vertex 34.0578 4 0
      vertex 34.0578 4 6
      vertex 34.0866 3.7074 0
    endloop
  endfacet
  facet normal 0.995191 0.0979545 0
    outer loop
      vertex 34.0866 3.7074 6
      vertex 34.0866 3.7074 0
      vertex 34.0578 4 6
    endloop
  endfacet
  facet normal 0.995191 -0.0979579 0
    outer loop
      vertex 34.0866 4.29259 0
      vertex 34.0866 4.29259 6
      vertex 34.0578 4 0
    endloop
  endfacet
  facet normal 0.995191 -0.0979579 0
    outer loop
      vertex 34.0578 4 6
      vertex 34.0578 4 0
      vertex 34.0866 4.29259 6
    endloop
  endfacet
  facet normal 0.956999 -0.290092 0
    outer loop
      vertex 34.1719 4.57399 0
      vertex 34.1719 4.57399 6
      vertex 34.0866 4.29259 0
    endloop
  endfacet
  facet normal 0.956999 -0.290092 0
    outer loop
      vertex 34.0866 4.29259 6
      vertex 34.0866 4.29259 0
      vertex 34.1719 4.57399 6
    endloop
  endfacet
  facet normal 0.881995 -0.471259 0
    outer loop
      vertex 34.3105 4.83339 0
      vertex 34.3105 4.83339 6
      vertex 34.1719 4.57399 0
    endloop
  endfacet
  facet normal 0.881995 -0.471259 0
    outer loop
      vertex 34.1719 4.57399 6
      vertex 34.1719 4.57399 0
      vertex 34.3105 4.83339 6
    endloop
  endfacet
  facet normal 0.772925 -0.634498 0
    outer loop
      vertex 34.4971 5.0607 0
      vertex 34.4971 5.0607 6
      vertex 34.3105 4.83339 0
    endloop
  endfacet
  facet normal 0.772925 -0.634498 0
    outer loop
      vertex 34.3105 4.83339 6
      vertex 34.3105 4.83339 0
      vertex 34.4971 5.0607 6
    endloop
  endfacet
  facet normal 0.634291 -0.773094 0
    outer loop
      vertex 34.7244 5.24719 0
      vertex 34.7244 5.24719 6
      vertex 34.4971 5.0607 0
    endloop
  endfacet
  facet normal 0.634291 -0.773094 0
    outer loop
      vertex 34.4971 5.0607 6
      vertex 34.4971 5.0607 0
      vertex 34.7244 5.24719 6
    endloop
  endfacet
  facet normal 0.4714 -0.881919 0
    outer loop
      vertex 34.9837 5.38579 0
      vertex 34.9837 5.38579 6
      vertex 34.7244 5.24719 0
    endloop
  endfacet
  facet normal 0.4714 -0.881919 0
    outer loop
      vertex 34.7244 5.24719 6
      vertex 34.7244 5.24719 0
      vertex 34.9837 5.38579 6
    endloop
  endfacet
  facet normal 0.290404 -0.956904 0
    outer loop
      vertex 35.2651 5.47119 0
      vertex 35.2651 5.47119 6
      vertex 34.9837 5.38579 0
    endloop
  endfacet
  facet normal 0.290404 -0.956904 0
    outer loop
      vertex 34.9837 5.38579 6
      vertex 34.9837 5.38579 0
      vertex 35.2651 5.47119 6
    endloop
  endfacet
  facet normal 0.0979551 -0.995191 0
    outer loop
      vertex 35.5578 5.5 0
      vertex 35.5578 5.5 6
      vertex 35.2651 5.47119 0
    endloop
  endfacet
  facet normal 0.0979551 -0.995191 0
    outer loop
      vertex 35.2651 5.47119 6
      vertex 35.2651 5.47119 0
      vertex 35.5578 5.5 6
    endloop
  endfacet
  facet normal -0.0979882 -0.995188 0
    outer loop
      vertex 35.8504 5.47119 0
      vertex 35.8504 5.47119 6
      vertex 35.5578 5.5 0
    endloop
  endfacet
  facet normal -0.0979882 -0.995188 -0
    outer loop
      vertex 35.5578 5.5 6
      vertex 35.5578 5.5 0
      vertex 35.8504 5.47119 6
    endloop
  endfacet
  facet normal -0.290404 -0.956904 0
    outer loop
      vertex 36.1318 5.38579 0
      vertex 36.1318 5.38579 6
      vertex 35.8504 5.47119 0
    endloop
  endfacet
  facet normal -0.290404 -0.956904 -0
    outer loop
      vertex 35.8504 5.47119 6
      vertex 35.8504 5.47119 0
      vertex 36.1318 5.38579 6
    endloop
  endfacet
  facet normal -0.4714 -0.881919 0
    outer loop
      vertex 36.3911 5.24719 0
      vertex 36.3911 5.24719 6
      vertex 36.1318 5.38579 0
    endloop
  endfacet
  facet normal -0.4714 -0.881919 -0
    outer loop
      vertex 36.1318 5.38579 6
      vertex 36.1318 5.38579 0
      vertex 36.3911 5.24719 6
    endloop
  endfacet
  facet normal -0.634291 -0.773094 0
    outer loop
      vertex 36.6184 5.0607 0
      vertex 36.6184 5.0607 6
      vertex 36.3911 5.24719 0
    endloop
  endfacet
  facet normal -0.634291 -0.773094 -0
    outer loop
      vertex 36.3911 5.24719 6
      vertex 36.3911 5.24719 0
      vertex 36.6184 5.0607 6
    endloop
  endfacet
  facet normal -0.772925 -0.634498 0
    outer loop
      vertex 36.805 4.83339 0
      vertex 36.805 4.83339 6
      vertex 36.6184 5.0607 0
    endloop
  endfacet
  facet normal -0.772925 -0.634498 -0
    outer loop
      vertex 36.6184 5.0607 6
      vertex 36.6184 5.0607 0
      vertex 36.805 4.83339 6
    endloop
  endfacet
  facet normal -0.881995 -0.471259 0
    outer loop
      vertex 36.9436 4.57399 0
      vertex 36.9436 4.57399 6
      vertex 36.805 4.83339 0
    endloop
  endfacet
  facet normal -0.881995 -0.471259 -0
    outer loop
      vertex 36.805 4.83339 6
      vertex 36.805 4.83339 0
      vertex 36.9436 4.57399 6
    endloop
  endfacet
  facet normal -0.956999 -0.290092 0
    outer loop
      vertex 37.0289 4.29259 0
      vertex 37.0289 4.29259 6
      vertex 36.9436 4.57399 0
    endloop
  endfacet
  facet normal -0.956999 -0.290092 -0
    outer loop
      vertex 36.9436 4.57399 6
      vertex 36.9436 4.57399 0
      vertex 37.0289 4.29259 6
    endloop
  endfacet
  facet normal -0.995157 -0.0982947 0
    outer loop
      vertex 37.0578 4 0
      vertex 37.0578 4 6
      vertex 37.0289 4.29259 0
    endloop
  endfacet
  facet normal -0.995157 -0.0982947 -0
    outer loop
      vertex 37.0289 4.29259 6
      vertex 37.0289 4.29259 0
      vertex 37.0578 4 6
    endloop
  endfacet
  facet normal -0.995158 0.0982914 0
    outer loop
      vertex 37.0289 3.7074 0
      vertex 37.0289 3.7074 6
      vertex 37.0578 4 0
    endloop
  endfacet
  facet normal -0.995158 0.0982914 0
    outer loop
      vertex 37.0578 4 6
      vertex 37.0578 4 0
      vertex 37.0289 3.7074 6
    endloop
  endfacet
  facet normal -0.957002 0.290083 0
    outer loop
      vertex 36.9436 3.42599 0
      vertex 36.9436 3.42599 6
      vertex 37.0289 3.7074 0
    endloop
  endfacet
  facet normal -0.957002 0.290083 0
    outer loop
      vertex 37.0289 3.7074 6
      vertex 37.0289 3.7074 0
      vertex 36.9436 3.42599 6
    endloop
  endfacet
  facet normal -0.881987 0.471273 0
    outer loop
      vertex 36.805 3.1666 0
      vertex 36.805 3.1666 6
      vertex 36.9436 3.42599 0
    endloop
  endfacet
  facet normal -0.881987 0.471273 0
    outer loop
      vertex 36.9436 3.42599 6
      vertex 36.9436 3.42599 0
      vertex 36.805 3.1666 6
    endloop
  endfacet
  facet normal -0.772925 0.634498 0
    outer loop
      vertex 36.6184 2.93929 0
      vertex 36.6184 2.93929 6
      vertex 36.805 3.1666 0
    endloop
  endfacet
  facet normal -0.772925 0.634498 0
    outer loop
      vertex 36.805 3.1666 6
      vertex 36.805 3.1666 0
      vertex 36.6184 2.93929 6
    endloop
  endfacet
  facet normal -0.634311 0.773078 0
    outer loop
      vertex 36.3911 2.75279 0
      vertex 36.3911 2.75279 6
      vertex 36.6184 2.93929 0
    endloop
  endfacet
  facet normal -0.634311 0.773078 0
    outer loop
      vertex 36.6184 2.93929 6
      vertex 36.6184 2.93929 0
      vertex 36.3911 2.75279 6
    endloop
  endfacet
  facet normal -0.471374 0.881934 0
    outer loop
      vertex 36.1318 2.6142 0
      vertex 36.1318 2.6142 6
      vertex 36.3911 2.75279 0
    endloop
  endfacet
  facet normal -0.471374 0.881934 0
    outer loop
      vertex 36.3911 2.75279 6
      vertex 36.3911 2.75279 0
      vertex 36.1318 2.6142 6
    endloop
  endfacet
  facet normal -0.290435 0.956895 0
    outer loop
      vertex 35.8504 2.52879 0
      vertex 35.8504 2.52879 6
      vertex 36.1318 2.6142 0
    endloop
  endfacet
  facet normal -0.290435 0.956895 0
    outer loop
      vertex 36.1318 2.6142 6
      vertex 36.1318 2.6142 0
      vertex 35.8504 2.52879 6
    endloop
  endfacet
  facet normal -0.0979209 0.995194 0
    outer loop
      vertex 35.5578 2.5 0
      vertex 35.5578 2.5 6
      vertex 35.8504 2.52879 0
    endloop
  endfacet
  facet normal -0.0979209 0.995194 0
    outer loop
      vertex 35.8504 2.52879 6
      vertex 35.8504 2.52879 0
      vertex 35.5578 2.5 6
    endloop
  endfacet
  facet normal 0.0978877 0.995197 -0
    outer loop
      vertex 35.2651 2.52879 0
      vertex 35.2651 2.52879 6
      vertex 35.5578 2.5 0
    endloop
  endfacet
  facet normal 0.0978877 0.995197 0
    outer loop
      vertex 35.5578 2.5 6
      vertex 35.5578 2.5 0
      vertex 35.2651 2.52879 6
    endloop
  endfacet
endsolid OpenSCAD_Model
