0
SECTION
2
ENTITIES
0
LINE
8
PARAMETRIX
10
-105.6551
20
154.3500
11
105.6551
21
154.3500
0
LINE
8
PARAMETRIX
10
105.6551
20
154.3500
11
105.6551
21
301.0500
0
LINE
8
PARAMETRIX
10
105.6551
20
301.0500
11
-105.6551
21
301.0500
0
LINE
8
PARAMETRIX
10
-105.6551
20
301.0500
11
-105.6551
21
154.3500
0
LINE
8
PARAMETRIX
10
-105.6551
20
154.3500
11
-102.6551
21
154.3500
0
LINE
8
PARAMETRIX
10
-102.6551
20
154.3500
11
-102.6551
21
301.0500
0
LINE
8
PARAMETRIX
10
-102.6551
20
301.0500
11
-105.6551
21
301.0500
0
LINE
8
PARAMETRIX
10
-105.6551
20
301.0500
11
-105.6551
21
154.3500
0
LINE
8
PARAMETRIX
10
-92.6551
20
154.3500
11
-89.6551
21
154.3500
0
LINE
8
PARAMETRIX
10
-89.6551
20
154.3500
11
-89.6551
21
301.0500
0
LINE
8
PARAMETRIX
10
-89.6551
20
301.0500
11
-92.6551
21
301.0500
0
LINE
8
PARAMETRIX
10
-92.6551
20
301.0500
11
-92.6551
21
154.3500
0
LINE
8
PARAMETRIX
10
-8.0000
20
154.3500
11
-5.0000
21
154.3500
0
LINE
8
PARAMETRIX
10
-5.0000
20
154.3500
11
-5.0000
21
229.3500
0
LINE
8
PARAMETRIX
10
-5.0000
20
229.3500
11
-8.0000
21
229.3500
0
LINE
8
PARAMETRIX
10
-8.0000
20
229.3500
11
-8.0000
21
154.3500
0
LINE
8
PARAMETRIX
10
5.0000
20
154.3500
11
8.0000
21
154.3500
0
LINE
8
PARAMETRIX
10
8.0000
20
154.3500
11
8.0000
21
229.3500
0
LINE
8
PARAMETRIX
10
8.0000
20
229.3500
11
5.0000
21
229.3500
0
LINE
8
PARAMETRIX
10
5.0000
20
229.3500
11
5.0000
21
154.3500
0
LINE
8
PARAMETRIX
10
89.6551
20
154.3500
11
92.6551
21
154.3500
0
LINE
8
PARAMETRIX
10
92.6551
20
154.3500
11
92.6551
21
301.0500
0
LINE
8
PARAMETRIX
10
92.6551
20
301.0500
11
89.6551
21
301.0500
0
LINE
8
PARAMETRIX
10
89.6551
20
301.0500
11
89.6551
21
154.3500
0
LINE
8
PARAMETRIX
10
102.6551
20
154.3500
11
105.6551
21
154.3500
0
LINE
8
PARAMETRIX
10
105.6551
20
154.3500
11
105.6551
21
301.0500
0
LINE
8
PARAMETRIX
10
105.6551
20
301.0500
11
102.6551
21
301.0500
0
LINE
8
PARAMETRIX
10
102.6551
20
301.0500
11
102.6551
21
154.3500
0
LINE
8
PARAMETRIX
10
-60.0000
20
148.0000
11
-60.0000
21
75.9023
0
ARC
8
PARAMETRIX
10
-55.0000
20
75.9023
40
5.0000
50
180.0000
51
200.4590
0
LINE
8
PARAMETRIX
10
-59.6846
20
74.1546
11
-28.1077
21
-10.4861
0
ARC
8
PARAMETRIX
10
0.0000
20
0.0000
40
30.0000
50
200.4590
51
339.5410
0
LINE
8
PARAMETRIX
10
28.1077
20
-10.4861
11
59.6846
21
74.1546
0
ARC
8
PARAMETRIX
10
55.0000
20
75.9023
40
5.0000
50
339.5410
51
0.0000
0
LINE
8
PARAMETRIX
10
60.0000
20
75.9023
11
60.0000
21
148.0000
0
LINE
8
PARAMETRIX
10
60.0000
20
148.0000
11
-60.0000
21
148.0000
0
LINE
8
PARAMETRIX
10
-57.0000
20
139.0000
11
-57.0000
21
76.4437
0
ARC
8
PARAMETRIX
10
-52.0000
20
76.4437
40
5.0000
50
180.0000
51
200.4590
0
LINE
8
PARAMETRIX
10
-56.6846
20
74.6960
11
-25.2969
21
-9.4375
0
ARC
8
PARAMETRIX
10
0.0000
20
-0.0000
40
27.0000
50
200.4590
51
339.5410
0
LINE
8
PARAMETRIX
10
25.2969
20
-9.4375
11
56.6846
21
74.6960
0
ARC
8
PARAMETRIX
10
52.0000
20
76.4437
40
5.0000
50
339.5410
51
0.0000
0
LINE
8
PARAMETRIX
10
57.0000
20
76.4437
11
57.0000
21
139.0000
0
ARC
8
PARAMETRIX
10
52.0000
20
139.0000
40
5.0000
50
0.0000
51
90.0000
0
LINE
8
PARAMETRIX
10
52.0000
20
144.0000
11
6.0000
21
144.0000
0
ARC
8
PARAMETRIX
10
6.0000
20
139.0000
40
5.0000
50
90.0000
51
180.0000
0
LINE
8
PARAMETRIX
10
1.0000
20
139.0000
11
1.0000
21
17.3414
0
ARC
8
PARAMETRIX
10
6.0000
20
17.3414
40
5.0000
50
180.0000
51
250.9147
0
ARC
8
PARAMETRIX
10
-0.0000
20
-0.0000
40
13.3500
50
109.0853
51
70.9147
0
ARC
8
PARAMETRIX
10
-6.0000
20
17.3414
40
5.0000
50
289.0853
51
0.0000
0
LINE
8
PARAMETRIX
10
-1.0000
20
17.3414
11
-1.0000
21
139.0000
0
ARC
8
PARAMETRIX
10
-6.0000
20
139.0000
40
5.0000
50
0.0000
51
90.0000
0
LINE
8
PARAMETRIX
10
-6.0000
20
144.0000
11
-52.0000
21
144.0000
0
ARC
8
PARAMETRIX
10
-52.0000
20
139.0000
40
5.0000
50
90.0000
51
180.0000
0
CIRCLE
8
PARAMETRIX
10
0.0000
20
0.0000
40
11.3500
0
ARC
8
PARAMETRIX
10
120.3479
20
0.0000
40
4.6521
50
360.0000
51
56.1484
0
ARC
8
PARAMETRIX
10
125.5699
20
7.9002
40
4.8181
50
183.6000
51
236.9090
0
ARC
8
PARAMETRIX
10
125.5699
20
7.9002
40
4.8181
50
130.2910
51
183.6000
0
ARC
8
PARAMETRIX
10
119.3989
20
15.0836
40
4.6521
50
311.0516
51
7.2000
0
ARC
8
PARAMETRIX
10
119.3989
20
15.0836
40
4.6521
50
7.2000
51
63.3484
0
ARC
8
PARAMETRIX
10
123.5896
20
23.5760
40
4.8181
50
190.8000
51
244.1090
0
ARC
8
PARAMETRIX
10
123.5896
20
23.5760
40
4.8181
50
137.4910
51
190.8000
0
ARC
8
PARAMETRIX
10
116.5669
20
29.9293
40
4.6521
50
318.2516
51
14.4000
0
ARC
8
PARAMETRIX
10
116.5669
20
29.9293
40
4.6521
50
14.4000
51
70.5484
0
ARC
8
PARAMETRIX
10
119.6602
20
38.8799
40
4.8181
50
198.0000
51
251.3090
0
ARC
8
PARAMETRIX
10
119.6602
20
38.8799
40
4.8181
50
144.6910
51
198.0000
0
ARC
8
PARAMETRIX
10
111.8966
20
44.3030
40
4.6521
50
325.4516
51
21.6000
0
ARC
8
PARAMETRIX
10
111.8966
20
44.3030
40
4.6521
50
21.6000
51
77.7484
0
ARC
8
PARAMETRIX
10
113.8437
20
53.5708
40
4.8181
50
205.2000
51
258.5090
0
ARC
8
PARAMETRIX
10
113.8437
20
53.5708
40
4.8181
50
151.8910
51
205.2000
0
ARC
8
PARAMETRIX
10
105.4616
20
57.9780
40
4.6521
50
332.6516
51
28.8000
0
ARC
8
PARAMETRIX
10
105.4616
20
57.9780
40
4.6521
50
28.8000
51
84.9484
0
ARC
8
PARAMETRIX
10
106.2318
20
67.4167
40
4.8181
50
212.4000
51
265.7090
0
ARC
8
PARAMETRIX
10
106.2318
20
67.4167
40
4.8181
50
159.0910
51
212.4000
0
ARC
8
PARAMETRIX
10
97.3635
20
70.7387
40
4.6521
50
339.8516
51
36.0000
0
ARC
8
PARAMETRIX
10
97.3635
20
70.7387
40
4.6521
50
36.0000
51
92.1484
0
ARC
8
PARAMETRIX
10
96.9445
20
80.1995
40
4.8181
50
219.6000
51
272.9090
0
ARC
8
PARAMETRIX
10
96.9445
20
80.1995
40
4.8181
50
166.2910
51
219.6000
0
ARC
8
PARAMETRIX
10
87.7298
20
82.3838
40
4.6521
50
347.0516
51
43.2000
0
ARC
8
PARAMETRIX
10
87.7298
20
82.3838
40
4.6521
50
43.2000
51
99.3484
0
ARC
8
PARAMETRIX
10
86.1284
20
91.7175
40
4.8181
50
226.8000
51
280.1090
0
ARC
8
PARAMETRIX
10
86.1284
20
91.7175
40
4.8181
50
173.4910
51
226.8000
0
ARC
8
PARAMETRIX
10
76.7126
20
92.7296
40
4.6521
50
354.2516
51
50.4000
0
ARC
8
PARAMETRIX
10
76.7126
20
92.7296
40
4.6521
50
50.4000
51
106.5484
0
ARC
8
PARAMETRIX
10
73.9541
20
101.7890
40
4.8181
50
234.0000
51
287.3090
0
ARC
8
PARAMETRIX
10
73.9541
20
101.7890
40
4.8181
50
180.6910
51
234.0000
0
ARC
8
PARAMETRIX
10
64.4856
20
101.6131
40
4.6521
50
1.4516
51
57.6000
0
ARC
8
PARAMETRIX
10
64.4856
20
101.6131
40
4.6521
50
57.6000
51
113.7484
0
ARC
8
PARAMETRIX
10
60.6134
20
110.2553
40
4.8181
50
241.2000
51
294.5090
0
ARC
8
PARAMETRIX
10
60.6134
20
110.2553
40
4.8181
50
187.8910
51
241.2000
0
ARC
8
PARAMETRIX
10
51.2416
20
108.8940
40
4.6521
50
8.6516
51
64.8000
0
ARC
8
PARAMETRIX
10
51.2416
20
108.8940
40
4.6521
50
64.8000
51
120.9484
0
ARC
8
PARAMETRIX
10
46.3167
20
116.9828
40
4.8181
50
248.4000
51
301.7090
0
ARC
8
PARAMETRIX
10
46.3167
20
116.9828
40
4.8181
50
195.0910
51
248.4000
0
ARC
8
PARAMETRIX
10
37.1895
20
114.4576
40
4.6521
50
15.8516
51
72.0000
0
ARC
8
PARAMETRIX
10
37.1895
20
114.4576
40
4.6521
50
72.0000
51
128.1484
0
ARC
8
PARAMETRIX
10
31.2897
20
121.8653
40
4.8181
50
255.6000
51
308.9090
0
ARC
8
PARAMETRIX
10
31.2897
20
121.8653
40
4.8181
50
202.2910
51
255.6000
0
ARC
8
PARAMETRIX
10
22.5509
20
118.2162
40
4.6521
50
23.0516
51
79.2000
0
ARC
8
PARAMETRIX
10
22.5509
20
118.2162
40
4.6521
50
79.2000
51
135.3484
0
ARC
8
PARAMETRIX
10
15.7692
20
124.8260
40
4.8181
50
262.8000
51
316.1090
0
ARC
8
PARAMETRIX
10
15.7692
20
124.8260
40
4.8181
50
209.4910
51
262.8000
0
ARC
8
PARAMETRIX
10
7.5567
20
120.1104
40
4.6521
50
30.2516
51
86.4000
0
ARC
8
PARAMETRIX
10
7.5567
20
120.1104
40
4.6521
50
86.4000
51
142.5484
0
ARC
8
PARAMETRIX
10
-0.0000
20
125.8181
40
4.8181
50
270.0000
51
323.3090
0
ARC
8
PARAMETRIX
10
-0.0000
20
125.8181
40
4.8181
50
216.6910
51
270.0000
0
ARC
8
PARAMETRIX
10
-7.5567
20
120.1104
40
4.6521
50
37.4516
51
93.6000
0
ARC
8
PARAMETRIX
10
-7.5567
20
120.1104
40
4.6521
50
93.6000
51
149.7484
0
ARC
8
PARAMETRIX
10
-15.7692
20
124.8260
40
4.8181
50
277.2000
51
330.5090
0
ARC
8
PARAMETRIX
10
-15.7692
20
124.8260
40
4.8181
50
223.8910
51
277.2000
0
ARC
8
PARAMETRIX
10
-22.5509
20
118.2162
40
4.6521
50
44.6516
51
100.8000
0
ARC
8
PARAMETRIX
10
-22.5509
20
118.2162
40
4.6521
50
100.8000
51
156.9484
0
ARC
8
PARAMETRIX
10
-31.2897
20
121.8653
40
4.8181
50
284.4000
51
337.7090
0
ARC
8
PARAMETRIX
10
-31.2897
20
121.8653
40
4.8181
50
231.0910
51
284.4000
0
ARC
8
PARAMETRIX
10
-37.1895
20
114.4576
40
4.6521
50
51.8516
51
108.0000
0
ARC
8
PARAMETRIX
10
-37.1895
20
114.4576
40
4.6521
50
108.0000
51
164.1484
0
ARC
8
PARAMETRIX
10
-46.3167
20
116.9828
40
4.8181
50
291.6000
51
344.9090
0
ARC
8
PARAMETRIX
10
-46.3167
20
116.9828
40
4.8181
50
238.2910
51
291.6000
0
ARC
8
PARAMETRIX
10
-51.2416
20
108.8940
40
4.6521
50
59.0516
51
115.2000
0
ARC
8
PARAMETRIX
10
-51.2416
20
108.8940
40
4.6521
50
115.2000
51
171.3484
0
ARC
8
PARAMETRIX
10
-60.6134
20
110.2553
40
4.8181
50
298.8000
51
352.1090
0
ARC
8
PARAMETRIX
10
-60.6134
20
110.2553
40
4.8181
50
245.4910
51
298.8000
0
ARC
8
PARAMETRIX
10
-64.4856
20
101.6131
40
4.6521
50
66.2516
51
122.4000
0
ARC
8
PARAMETRIX
10
-64.4856
20
101.6131
40
4.6521
50
122.4000
51
178.5484
0
ARC
8
PARAMETRIX
10
-73.9541
20
101.7890
40
4.8181
50
306.0000
51
359.3090
0
ARC
8
PARAMETRIX
10
-73.9541
20
101.7890
40
4.8181
50
252.6910
51
306.0000
0
ARC
8
PARAMETRIX
10
-76.7126
20
92.7296
40
4.6521
50
73.4516
51
129.6000
0
ARC
8
PARAMETRIX
10
-76.7126
20
92.7296
40
4.6521
50
129.6000
51
185.7484
0
ARC
8
PARAMETRIX
10
-86.1284
20
91.7175
40
4.8181
50
313.2000
51
6.5090
0
ARC
8
PARAMETRIX
10
-86.1284
20
91.7175
40
4.8181
50
259.8910
51
313.2000
0
ARC
8
PARAMETRIX
10
-87.7298
20
82.3838
40
4.6521
50
80.6516
51
136.8000
0
ARC
8
PARAMETRIX
10
-87.7298
20
82.3838
40
4.6521
50
136.8000
51
192.9484
0
ARC
8
PARAMETRIX
10
-96.9445
20
80.1995
40
4.8181
50
320.4000
51
13.7090
0
ARC
8
PARAMETRIX
10
-96.9445
20
80.1995
40
4.8181
50
267.0910
51
320.4000
0
ARC
8
PARAMETRIX
10
-97.3635
20
70.7387
40
4.6521
50
87.8516
51
144.0000
0
ARC
8
PARAMETRIX
10
-97.3635
20
70.7387
40
4.6521
50
144.0000
51
200.1484
0
ARC
8
PARAMETRIX
10
-106.2318
20
67.4167
40
4.8181
50
327.6000
51
20.9090
0
ARC
8
PARAMETRIX
10
-106.2318
20
67.4167
40
4.8181
50
274.2910
51
327.6000
0
ARC
8
PARAMETRIX
10
-105.4616
20
57.9780
40
4.6521
50
95.0516
51
151.2000
0
ARC
8
PARAMETRIX
10
-105.4616
20
57.9780
40
4.6521
50
151.2000
51
207.3484
0
ARC
8
PARAMETRIX
10
-113.8437
20
53.5708
40
4.8181
50
334.8000
51
28.1090
0
ARC
8
PARAMETRIX
10
-113.8437
20
53.5708
40
4.8181
50
281.4910
51
334.8000
0
ARC
8
PARAMETRIX
10
-111.8966
20
44.3030
40
4.6521
50
102.2516
51
158.4000
0
ARC
8
PARAMETRIX
10
-111.8966
20
44.3030
40
4.6521
50
158.4000
51
214.5484
0
ARC
8
PARAMETRIX
10
-119.6602
20
38.8799
40
4.8181
50
342.0000
51
35.3090
0
ARC
8
PARAMETRIX
10
-119.6602
20
38.8799
40
4.8181
50
288.6910
51
342.0000
0
ARC
8
PARAMETRIX
10
-116.5669
20
29.9293
40
4.6521
50
109.4516
51
165.6000
0
ARC
8
PARAMETRIX
10
-116.5669
20
29.9293
40
4.6521
50
165.6000
51
221.7484
0
ARC
8
PARAMETRIX
10
-123.5896
20
23.5760
40
4.8181
50
349.2000
51
42.5090
0
ARC
8
PARAMETRIX
10
-123.5896
20
23.5760
40
4.8181
50
295.8910
51
349.2000
0
ARC
8
PARAMETRIX
10
-119.3989
20
15.0836
40
4.6521
50
116.6516
51
172.8000
0
ARC
8
PARAMETRIX
10
-119.3989
20
15.0836
40
4.6521
50
172.8000
51
228.9484
0
ARC
8
PARAMETRIX
10
-125.5699
20
7.9002
40
4.8181
50
356.4000
51
49.7090
0
ARC
8
PARAMETRIX
10
-125.5699
20
7.9002
40
4.8181
50
303.0910
51
356.4000
0
ARC
8
PARAMETRIX
10
-120.3479
20
-0.0000
40
4.6521
50
123.8516
51
180.0000
0
ARC
8
PARAMETRIX
10
-120.3479
20
-0.0000
40
4.6521
50
180.0000
51
236.1484
0
ARC
8
PARAMETRIX
10
-125.5699
20
-7.9002
40
4.8181
50
3.6000
51
56.9090
0
ARC
8
PARAMETRIX
10
-125.5699
20
-7.9002
40
4.8181
50
310.2910
51
3.6000
0
ARC
8
PARAMETRIX
10
-119.3989
20
-15.0836
40
4.6521
50
131.0516
51
187.2000
0
ARC
8
PARAMETRIX
10
-119.3989
20
-15.0836
40
4.6521
50
187.2000
51
243.3484
0
ARC
8
PARAMETRIX
10
-123.5896
20
-23.5760
40
4.8181
50
10.8000
51
64.1090
0
ARC
8
PARAMETRIX
10
-123.5896
20
-23.5760
40
4.8181
50
317.4910
51
10.8000
0
ARC
8
PARAMETRIX
10
-116.5669
20
-29.9293
40
4.6521
50
138.2516
51
194.4000
0
ARC
8
PARAMETRIX
10
-116.5669
20
-29.9293
40
4.6521
50
194.4000
51
250.5484
0
ARC
8
PARAMETRIX
10
-119.6602
20
-38.8799
40
4.8181
50
18.0000
51
71.3090
0
ARC
8
PARAMETRIX
10
-119.6602
20
-38.8799
40
4.8181
50
324.6910
51
18.0000
0
ARC
8
PARAMETRIX
10
-111.8966
20
-44.3030
40
4.6521
50
145.4516
51
201.6000
0
ARC
8
PARAMETRIX
10
-111.8966
20
-44.3030
40
4.6521
50
201.6000
51
257.7484
0
ARC
8
PARAMETRIX
10
-113.8437
20
-53.5708
40
4.8181
50
25.2000
51
78.5090
0
ARC
8
PARAMETRIX
10
-113.8437
20
-53.5708
40
4.8181
50
331.8910
51
25.2000
0
ARC
8
PARAMETRIX
10
-105.4616
20
-57.9780
40
4.6521
50
152.6516
51
208.8000
0
ARC
8
PARAMETRIX
10
-105.4616
20
-57.9780
40
4.6521
50
208.8000
51
264.9484
0
ARC
8
PARAMETRIX
10
-106.2318
20
-67.4167
40
4.8181
50
32.4000
51
85.7090
0
ARC
8
PARAMETRIX
10
-106.2318
20
-67.4167
40
4.8181
50
339.0910
51
32.4000
0
ARC
8
PARAMETRIX
10
-97.3635
20
-70.7387
40
4.6521
50
159.8516
51
216.0000
0
ARC
8
PARAMETRIX
10
-97.3635
20
-70.7387
40
4.6521
50
216.0000
51
272.1484
0
ARC
8
PARAMETRIX
10
-96.9445
20
-80.1995
40
4.8181
50
39.6000
51
92.9090
0
ARC
8
PARAMETRIX
10
-96.9445
20
-80.1995
40
4.8181
50
346.2910
51
39.6000
0
ARC
8
PARAMETRIX
10
-87.7298
20
-82.3838
40
4.6521
50
167.0516
51
223.2000
0
ARC
8
PARAMETRIX
10
-87.7298
20
-82.3838
40
4.6521
50
223.2000
51
279.3484
0
ARC
8
PARAMETRIX
10
-86.1284
20
-91.7175
40
4.8181
50
46.8000
51
100.1090
0
ARC
8
PARAMETRIX
10
-86.1284
20
-91.7175
40
4.8181
50
353.4910
51
46.8000
0
ARC
8
PARAMETRIX
10
-76.7126
20
-92.7296
40
4.6521
50
174.2516
51
230.4000
0
ARC
8
PARAMETRIX
10
-76.7126
20
-92.7296
40
4.6521
50
230.4000
51
286.5484
0
ARC
8
PARAMETRIX
10
-73.9541
20
-101.7890
40
4.8181
50
54.0000
51
107.3090
0
ARC
8
PARAMETRIX
10
-73.9541
20
-101.7890
40
4.8181
50
0.6910
51
54.0000
0
ARC
8
PARAMETRIX
10
-64.4856
20
-101.6131
40
4.6521
50
181.4516
51
237.6000
0
ARC
8
PARAMETRIX
10
-64.4856
20
-101.6131
40
4.6521
50
237.6000
51
293.7484
0
ARC
8
PARAMETRIX
10
-60.6134
20
-110.2553
40
4.8181
50
61.2000
51
114.5090
0
ARC
8
PARAMETRIX
10
-60.6134
20
-110.2553
40
4.8181
50
7.8910
51
61.2000
0
ARC
8
PARAMETRIX
10
-51.2416
20
-108.8940
40
4.6521
50
188.6516
51
244.8000
0
ARC
8
PARAMETRIX
10
-51.2416
20
-108.8940
40
4.6521
50
244.8000
51
300.9484
0
ARC
8
PARAMETRIX
10
-46.3167
20
-116.9828
40
4.8181
50
68.4000
51
121.7090
0
ARC
8
PARAMETRIX
10
-46.3167
20
-116.9828
40
4.8181
50
15.0910
51
68.4000
0
ARC
8
PARAMETRIX
10
-37.1895
20
-114.4576
40
4.6521
50
195.8516
51
252.0000
0
ARC
8
PARAMETRIX
10
-37.1895
20
-114.4576
40
4.6521
50
252.0000
51
308.1484
0
ARC
8
PARAMETRIX
10
-31.2897
20
-121.8653
40
4.8181
50
75.6000
51
128.9090
0
ARC
8
PARAMETRIX
10
-31.2897
20
-121.8653
40
4.8181
50
22.2910
51
75.6000
0
ARC
8
PARAMETRIX
10
-22.5509
20
-118.2162
40
4.6521
50
203.0516
51
259.2000
0
ARC
8
PARAMETRIX
10
-22.5509
20
-118.2162
40
4.6521
50
259.2000
51
315.3484
0
ARC
8
PARAMETRIX
10
-15.7692
20
-124.8260
40
4.8181
50
82.8000
51
136.1090
0
ARC
8
PARAMETRIX
10
-15.7692
20
-124.8260
40
4.8181
50
29.4910
51
82.8000
0
ARC
8
PARAMETRIX
10
-7.5567
20
-120.1104
40
4.6521
50
210.2516
51
266.4000
0
ARC
8
PARAMETRIX
10
-7.5567
20
-120.1104
40
4.6521
50
266.4000
51
322.5484
0
ARC
8
PARAMETRIX
10
-0.0000
20
-125.8181
40
4.8181
50
90.0000
51
143.3090
0
ARC
8
PARAMETRIX
10
-0.0000
20
-125.8181
40
4.8181
50
36.6910
51
90.0000
0
ARC
8
PARAMETRIX
10
7.5567
20
-120.1104
40
4.6521
50
217.4516
51
273.6000
0
ARC
8
PARAMETRIX
10
7.5567
20
-120.1104
40
4.6521
50
273.6000
51
329.7484
0
ARC
8
PARAMETRIX
10
15.7692
20
-124.8260
40
4.8181
50
97.2000
51
150.5090
0
ARC
8
PARAMETRIX
10
15.7692
20
-124.8260
40
4.8181
50
43.8910
51
97.2000
0
ARC
8
PARAMETRIX
10
22.5509
20
-118.2162
40
4.6521
50
224.6516
51
280.8000
0
ARC
8
PARAMETRIX
10
22.5509
20
-118.2162
40
4.6521
50
280.8000
51
336.9484
0
ARC
8
PARAMETRIX
10
31.2897
20
-121.8653
40
4.8181
50
104.4000
51
157.7090
0
ARC
8
PARAMETRIX
10
31.2897
20
-121.8653
40
4.8181
50
51.0910
51
104.4000
0
ARC
8
PARAMETRIX
10
37.1895
20
-114.4576
40
4.6521
50
231.8516
51
288.0000
0
ARC
8
PARAMETRIX
10
37.1895
20
-114.4576
40
4.6521
50
288.0000
51
344.1484
0
ARC
8
PARAMETRIX
10
46.3167
20
-116.9828
40
4.8181
50
111.6000
51
164.9090
0
ARC
8
PARAMETRIX
10
46.3167
20
-116.9828
40
4.8181
50
58.2910
51
111.6000
0
ARC
8
PARAMETRIX
10
51.2416
20
-108.8940
40
4.6521
50
239.0516
51
295.2000
0
ARC
8
PARAMETRIX
10
51.2416
20
-108.8940
40
4.6521
50
295.2000
51
351.3484
0
ARC
8
PARAMETRIX
10
60.6134
20
-110.2553
40
4.8181
50
118.8000
51
172.1090
0
ARC
8
PARAMETRIX
10
60.6134
20
-110.2553
40
4.8181
50
65.4910
51
118.8000
0
ARC
8
PARAMETRIX
10
64.4856
20
-101.6131
40
4.6521
50
246.2516
51
302.4000
0
ARC
8
PARAMETRIX
10
64.4856
20
-101.6131
40
4.6521
50
302.4000
51
358.5484
0
ARC
8
PARAMETRIX
10
73.9541
20
-101.7890
40
4.8181
50
126.0000
51
179.3090
0
ARC
8
PARAMETRIX
10
73.9541
20
-101.7890
40
4.8181
50
72.6910
51
126.0000
0
ARC
8
PARAMETRIX
10
76.7126
20
-92.7296
40
4.6521
50
253.4516
51
309.6000
0
ARC
8
PARAMETRIX
10
76.7126
20
-92.7296
40
4.6521
50
309.6000
51
5.7484
0
ARC
8
PARAMETRIX
10
86.1284
20
-91.7175
40
4.8181
50
133.2000
51
186.5090
0
ARC
8
PARAMETRIX
10
86.1284
20
-91.7175
40
4.8181
50
79.8910
51
133.2000
0
ARC
8
PARAMETRIX
10
87.7298
20
-82.3838
40
4.6521
50
260.6516
51
316.8000
0
ARC
8
PARAMETRIX
10
87.7298
20
-82.3838
40
4.6521
50
316.8000
51
12.9484
0
ARC
8
PARAMETRIX
10
96.9445
20
-80.1995
40
4.8181
50
140.4000
51
193.7090
0
ARC
8
PARAMETRIX
10
96.9445
20
-80.1995
40
4.8181
50
87.0910
51
140.4000
0
ARC
8
PARAMETRIX
10
97.3635
20
-70.7387
40
4.6521
50
267.8516
51
324.0000
0
ARC
8
PARAMETRIX
10
97.3635
20
-70.7387
40
4.6521
50
324.0000
51
20.1484
0
ARC
8
PARAMETRIX
10
106.2318
20
-67.4167
40
4.8181
50
147.6000
51
200.9090
0
ARC
8
PARAMETRIX
10
106.2318
20
-67.4167
40
4.8181
50
94.2910
51
147.6000
0
ARC
8
PARAMETRIX
10
105.4616
20
-57.9780
40
4.6521
50
275.0516
51
331.2000
0
ARC
8
PARAMETRIX
10
105.4616
20
-57.9780
40
4.6521
50
331.2000
51
27.3484
0
ARC
8
PARAMETRIX
10
113.8437
20
-53.5708
40
4.8181
50
154.8000
51
208.1090
0
ARC
8
PARAMETRIX
10
113.8437
20
-53.5708
40
4.8181
50
101.4910
51
154.8000
0
ARC
8
PARAMETRIX
10
111.8966
20
-44.3030
40
4.6521
50
282.2516
51
338.4000
0
ARC
8
PARAMETRIX
10
111.8966
20
-44.3030
40
4.6521
50
338.4000
51
34.5484
0
ARC
8
PARAMETRIX
10
119.6602
20
-38.8799
40
4.8181
50
162.0000
51
215.3090
0
ARC
8
PARAMETRIX
10
119.6602
20
-38.8799
40
4.8181
50
108.6910
51
162.0000
0
ARC
8
PARAMETRIX
10
116.5669
20
-29.9293
40
4.6521
50
289.4516
51
345.6000
0
ARC
8
PARAMETRIX
10
116.5669
20
-29.9293
40
4.6521
50
345.6000
51
41.7484
0
ARC
8
PARAMETRIX
10
123.5896
20
-23.5760
40
4.8181
50
169.2000
51
222.5090
0
ARC
8
PARAMETRIX
10
123.5896
20
-23.5760
40
4.8181
50
115.8910
51
169.2000
0
ARC
8
PARAMETRIX
10
119.3989
20
-15.0836
40
4.6521
50
296.6516
51
352.8000
0
ARC
8
PARAMETRIX
10
119.3989
20
-15.0836
40
4.6521
50
352.8000
51
48.9484
0
ARC
8
PARAMETRIX
10
125.5699
20
-7.9002
40
4.8181
50
176.4000
51
229.7090
0
ARC
8
PARAMETRIX
10
125.5699
20
-7.9002
40
4.8181
50
123.0910
51
176.4000
0
ARC
8
PARAMETRIX
10
120.3479
20
-0.0000
40
4.6521
50
303.8516
51
360.0000
0
CIRCLE
8
PARAMETRIX
10
0.0000
20
0.0000
40
10.7000
0
CIRCLE
8
PARAMETRIX
10
0.0000
20
0.0000
40
10.0000
0
CIRCLE
8
PARAMETRIX
10
0.0000
20
0.0000
40
8.0000
0
LINE
8
PARAMETRIX
10
-50.0000
20
154.3500
11
-48.0000
21
154.3500
0
LINE
8
PARAMETRIX
10
-48.0000
20
154.3500
11
-48.0000
21
301.0500
0
LINE
8
PARAMETRIX
10
-48.0000
20
301.0500
11
-50.0000
21
301.0500
0
LINE
8
PARAMETRIX
10
-50.0000
20
301.0500
11
-50.0000
21
154.3500
0
LINE
8
PARAMETRIX
10
48.0000
20
154.3500
11
50.0000
21
154.3500
0
LINE
8
PARAMETRIX
10
50.0000
20
154.3500
11
50.0000
21
301.0500
0
LINE
8
PARAMETRIX
10
50.0000
20
301.0500
11
48.0000
21
301.0500
0
LINE
8
PARAMETRIX
10
48.0000
20
301.0500
11
48.0000
21
154.3500
0
ENDSEC
0
EOF
