0
SECTION
2
ENTITIES
0
LINE
8
PARAMETRIX
10
7.3000
20
105.0000
11
12.6613
21
140.7417
0
ARC
8
PARAMETRIX
10
17.6059
20
140.0000
40
5.0000
50
90.0000
51
171.4692
0
LINE
8
PARAMETRIX
10
17.6059
20
145.0000
11
128.6941
21
145.0000
0
ARC
8
PARAMETRIX
10
128.6941
20
140.0000
40
5.0000
50
8.5308
51
90.0000
0
LINE
8
PARAMETRIX
10
133.6387
20
140.7417
11
139.0000
21
105.0000
0
LINE
8
PARAMETRIX
10
139.0000
20
105.0000
11
139.0000
21
175.0000
0
LINE
8
PARAMETRIX
10
139.0000
20
175.0000
11
7.3000
21
175.0000
0
LINE
8
PARAMETRIX
10
7.3000
20
175.0000
11
7.3000
21
105.0000
0
LINE
8
PARAMETRIX
10
8.6500
20
40.7000
11
8.6500
21
42.7000
0
LINE
8
PARAMETRIX
10
8.6500
20
42.7000
11
18.6500
21
42.7000
0
LINE
8
PARAMETRIX
10
18.6500
20
42.7000
11
18.6500
21
155.0000
0
LINE
8
PARAMETRIX
10
18.6500
20
155.0000
11
98.6500
21
155.0000
0
LINE
8
PARAMETRIX
10
98.6500
20
155.0000
11
98.6500
21
42.7000
0
LINE
8
PARAMETRIX
10
98.6500
20
42.7000
11
118.6500
21
42.7000
0
LINE
8
PARAMETRIX
10
118.6500
20
42.7000
11
118.6500
21
49.7000
0
LINE
8
PARAMETRIX
10
118.6500
20
49.7000
11
120.6500
21
49.7000
0
LINE
8
PARAMETRIX
10
120.6500
20
49.7000
11
120.6500
21
47.7000
0
LINE
8
PARAMETRIX
10
120.6500
20
47.7000
11
130.6500
21
47.7000
0
LINE
8
PARAMETRIX
10
130.6500
20
47.7000
11
130.6500
21
49.7000
0
LINE
8
PARAMETRIX
10
130.6500
20
49.7000
11
132.6500
21
49.7000
0
LINE
8
PARAMETRIX
10
132.6500
20
49.7000
11
132.6500
21
42.7000
0
LINE
8
PARAMETRIX
10
132.6500
20
42.7000
11
137.6500
21
42.7000
0
LINE
8
PARAMETRIX
10
137.6500
20
42.7000
11
137.6500
21
40.7000
0
LINE
8
PARAMETRIX
10
137.6500
20
40.7000
11
8.6500
21
40.7000
0
LINE
8
PARAMETRIX
10
8.6500
20
19.3000
11
8.6500
21
17.3000
0
LINE
8
PARAMETRIX
10
8.6500
20
17.3000
11
18.6500
21
17.3000
0
LINE
8
PARAMETRIX
10
18.6500
20
17.3000
11
18.6500
21
-95.0000
0
LINE
8
PARAMETRIX
10
18.6500
20
-95.0000
11
98.6500
21
-95.0000
0
LINE
8
PARAMETRIX
10
98.6500
20
-95.0000
11
98.6500
21
17.3000
0
LINE
8
PARAMETRIX
10
98.6500
20
17.3000
11
118.6500
21
17.3000
0
LINE
8
PARAMETRIX
10
118.6500
20
17.3000
11
118.6500
21
10.3000
0
LINE
8
PARAMETRIX
10
118.6500
20
10.3000
11
120.6500
21
10.3000
0
LINE
8
PARAMETRIX
10
120.6500
20
10.3000
11
120.6500
21
12.3000
0
LINE
8
PARAMETRIX
10
120.6500
20
12.3000
11
130.6500
21
12.3000
0
LINE
8
PARAMETRIX
10
130.6500
20
12.3000
11
130.6500
21
10.3000
0
LINE
8
PARAMETRIX
10
130.6500
20
10.3000
11
132.6500
21
10.3000
0
LINE
8
PARAMETRIX
10
132.6500
20
10.3000
11
132.6500
21
17.3000
0
LINE
8
PARAMETRIX
10
132.6500
20
17.3000
11
137.6500
21
17.3000
0
LINE
8
PARAMETRIX
10
137.6500
20
17.3000
11
137.6500
21
19.3000
0
LINE
8
PARAMETRIX
10
137.6500
20
19.3000
11
8.6500
21
19.3000
0
LINE
8
PARAMETRIX
10
1.3000
20
20.0000
11
145.0000
21
20.0000
0
LINE
8
PARAMETRIX
10
145.0000
20
20.0000
11
145.0000
21
22.0000
0
LINE
8
PARAMETRIX
10
145.0000
20
22.0000
11
1.3000
21
22.0000
0
LINE
8
PARAMETRIX
10
1.3000
20
22.0000
11
1.3000
21
20.0000
0
LINE
8
PARAMETRIX
10
1.3000
20
38.0000
11
145.0000
21
38.0000
0
LINE
8
PARAMETRIX
10
145.0000
20
38.0000
11
145.0000
21
40.0000
0
LINE
8
PARAMETRIX
10
145.0000
20
40.0000
11
1.3000
21
40.0000
0
LINE
8
PARAMETRIX
10
1.3000
20
40.0000
11
1.3000
21
38.0000
0
LINE
8
PARAMETRIX
10
-50.0000
20
184.3500
11
-48.0000
21
184.3500
0
LINE
8
PARAMETRIX
10
-48.0000
20
184.3500
11
-48.0000
21
331.0500
0
LINE
8
PARAMETRIX
10
-48.0000
20
331.0500
11
-50.0000
21
331.0500
0
LINE
8
PARAMETRIX
10
-50.0000
20
331.0500
11
-50.0000
21
184.3500
0
LINE
8
PARAMETRIX
10
48.0000
20
184.3500
11
50.0000
21
184.3500
0
LINE
8
PARAMETRIX
10
50.0000
20
184.3500
11
50.0000
21
331.0500
0
LINE
8
PARAMETRIX
10
50.0000
20
331.0500
11
48.0000
21
331.0500
0
LINE
8
PARAMETRIX
10
48.0000
20
331.0500
11
48.0000
21
184.3500
0
ENDSEC
0
EOF
