0
SECTION
2
ENTITIES
0
LINE
8
PARAMETRIX
10
145.0000
20
60.0000
11
115.8148
21
60.0000
0
ARC
8
PARAMETRIX
10
115.8148
20
58.0000
40
2.0000
50
90.0000
51
117.4864
0
LINE
8
PARAMETRIX
10
114.8917
20
59.7742
11
90.4689
21
47.0679
0
ARC
8
PARAMETRIX
10
89.5458
20
48.8421
40
2.0000
50
208.6099
51
297.4864
0
ARC
8
PARAMETRIX
10
-0.0000
20
0.0000
40
100.0000
50
28.6099
51
331.3901
0
ARC
8
PARAMETRIX
10
89.5458
20
-48.8421
40
2.0000
50
62.5136
51
151.3901
0
LINE
8
PARAMETRIX
10
90.4689
20
-47.0679
11
114.8917
21
-59.7742
0
ARC
8
PARAMETRIX
10
115.8148
20
-58.0000
40
2.0000
50
242.5136
51
270.0000
0
LINE
8
PARAMETRIX
10
115.8148
20
-60.0000
11
145.0000
21
-60.0000
0
LINE
8
PARAMETRIX
10
145.0000
20
-60.0000
11
145.0000
21
60.0000
0
CIRCLE
8
PARAMETRIX
10
0.0000
20
0.0000
40
50.7000
0
LINE
8
PARAMETRIX
10
134.0000
20
58.0000
11
116.3039
21
58.0000
0
ARC
8
PARAMETRIX
10
116.3039
20
56.0000
40
2.0000
50
90.0000
51
117.4864
0
LINE
8
PARAMETRIX
10
115.3808
20
57.7742
11
111.6923
21
55.8552
0
ARC
8
PARAMETRIX
10
114.0000
20
51.4196
40
5.0000
50
117.4864
51
180.0000
0
LINE
8
PARAMETRIX
10
109.0000
20
51.4196
11
109.0000
21
-51.4196
0
ARC
8
PARAMETRIX
10
114.0000
20
-51.4196
40
5.0000
50
180.0000
51
242.5136
0
LINE
8
PARAMETRIX
10
111.6923
20
-55.8552
11
115.3808
21
-57.7742
0
ARC
8
PARAMETRIX
10
116.3039
20
-56.0000
40
2.0000
50
242.5136
51
270.0000
0
LINE
8
PARAMETRIX
10
116.3039
20
-58.0000
11
134.0000
21
-58.0000
0
ARC
8
PARAMETRIX
10
134.0000
20
-53.0000
40
5.0000
50
270.0000
51
360.0000
0
LINE
8
PARAMETRIX
10
139.0000
20
-53.0000
11
139.0000
21
53.0000
0
ARC
8
PARAMETRIX
10
134.0000
20
53.0000
40
5.0000
50
0.0000
51
90.0000
0
LINE
8
PARAMETRIX
10
8.6500
20
10.7000
11
8.6500
21
12.7000
0
LINE
8
PARAMETRIX
10
8.6500
20
12.7000
11
18.6500
21
12.7000
0
LINE
8
PARAMETRIX
10
18.6500
20
12.7000
11
18.6500
21
125.0000
0
LINE
8
PARAMETRIX
10
18.6500
20
125.0000
11
98.6500
21
125.0000
0
LINE
8
PARAMETRIX
10
98.6500
20
125.0000
11
98.6500
21
12.7000
0
LINE
8
PARAMETRIX
10
98.6500
20
12.7000
11
118.6500
21
12.7000
0
LINE
8
PARAMETRIX
10
118.6500
20
12.7000
11
118.6500
21
19.7000
0
LINE
8
PARAMETRIX
10
118.6500
20
19.7000
11
120.6500
21
19.7000
0
LINE
8
PARAMETRIX
10
120.6500
20
19.7000
11
120.6500
21
17.7000
0
LINE
8
PARAMETRIX
10
120.6500
20
17.7000
11
130.6500
21
17.7000
0
LINE
8
PARAMETRIX
10
130.6500
20
17.7000
11
130.6500
21
19.7000
0
LINE
8
PARAMETRIX
10
130.6500
20
19.7000
11
132.6500
21
19.7000
0
LINE
8
PARAMETRIX
10
132.6500
20
19.7000
11
132.6500
21
12.7000
0
LINE
8
PARAMETRIX
10
132.6500
20
12.7000
11
137.6500
21
12.7000
0
LINE
8
PARAMETRIX
10
137.6500
20
12.7000
11
137.6500
21
10.7000
0
LINE
8
PARAMETRIX
10
137.6500
20
10.7000
11
8.6500
21
10.7000
0
LINE
8
PARAMETRIX
10
8.6500
20
-10.7000
11
8.6500
21
-12.7000
0
LINE
8
PARAMETRIX
10
8.6500
20
-12.7000
11
18.6500
21
-12.7000
0
LINE
8
PARAMETRIX
10
18.6500
20
-12.7000
11
18.6500
21
-125.0000
0
LINE
8
PARAMETRIX
10
18.6500
20
-125.0000
11
98.6500
21
-125.0000
0
LINE
8
PARAMETRIX
10
98.6500
20
-125.0000
11
98.6500
21
-12.7000
0
LINE
8
PARAMETRIX
10
98.6500
20
-12.7000
11
118.6500
21
-12.7000
0
LINE
8
PARAMETRIX
10
118.6500
20
-12.7000
11
118.6500
21
-19.7000
0
LINE
8
PARAMETRIX
10
118.6500
20
-19.7000
11
120.6500
21
-19.7000
0
LINE
8
PARAMETRIX
10
120.6500
20
-19.7000
11
120.6500
21
-17.7000
0
LINE
8
PARAMETRIX
10
120.6500
20
-17.7000
11
130.6500
21
-17.7000
0
LINE
8
PARAMETRIX
10
130.6500
20
-17.7000
11
130.6500
21
-19.7000
0
LINE
8
PARAMETRIX
10
130.6500
20
-19.7000
11
132.6500
21
-19.7000
0
LINE
8
PARAMETRIX
10
132.6500
20
-19.7000
11
132.6500
21
-12.7000
0
LINE
8
PARAMETRIX
10
132.6500
20
-12.7000
11
137.6500
21
-12.7000
0
LINE
8
PARAMETRIX
10
137.6500
20
-12.7000
11
137.6500
21
-10.7000
0
LINE
8
PARAMETRIX
10
137.6500
20
-10.7000
11
8.6500
21
-10.7000
0
CIRCLE
8
PARAMETRIX
10
0.0000
20
0.0000
40
50.0000
0
CIRCLE
8
PARAMETRIX
10
0.0000
20
0.0000
40
48.0000
0
ENDSEC
0
EOF
