0
SECTION
2
ENTITIES
0
LINE
8
PARAMETRIX
10
0.0000
20
10.0000
11
77.7000
21
10.0000
0
LINE
8
PARAMETRIX
10
77.7000
20
10.0000
11
77.7000
21
0.0000
0
LINE
8
PARAMETRIX
10
77.7000
20
0.0000
11
80.7000
21
0.0000
0
LINE
8
PARAMETRIX
10
80.7000
20
0.0000
11
80.7000
21
20.0000
0
LINE
8
PARAMETRIX
10
80.7000
20
20.0000
11
10.0000
21
20.0000
0
LINE
8
PARAMETRIX
10
10.0000
20
20.0000
11
10.0000
21
133.0000
0
LINE
8
PARAMETRIX
10
10.0000
20
133.0000
11
80.7000
21
133.0000
0
LINE
8
PARAMETRIX
10
80.7000
20
133.0000
11
80.7000
21
153.0000
0
LINE
8
PARAMETRIX
10
80.7000
20
153.0000
11
77.7000
21
153.0000
0
LINE
8
PARAMETRIX
10
77.7000
20
153.0000
11
77.7000
21
143.0000
0
LINE
8
PARAMETRIX
10
77.7000
20
143.0000
11
0.0000
21
143.0000
0
LINE
8
PARAMETRIX
10
0.0000
20
143.0000
11
0.0000
21
10.0000
0
LINE
8
PARAMETRIX
10
101.4000
20
0.0000
11
104.4000
21
0.0000
0
LINE
8
PARAMETRIX
10
104.4000
20
0.0000
11
104.4000
21
10.0000
0
LINE
8
PARAMETRIX
10
104.4000
20
10.0000
11
149.1000
21
10.0000
0
LINE
8
PARAMETRIX
10
149.1000
20
10.0000
11
149.1000
21
0.0000
0
LINE
8
PARAMETRIX
10
149.1000
20
0.0000
11
152.1000
21
0.0000
0
LINE
8
PARAMETRIX
10
152.1000
20
0.0000
11
152.1000
21
20.0000
0
LINE
8
PARAMETRIX
10
152.1000
20
20.0000
11
101.4000
21
20.0000
0
LINE
8
PARAMETRIX
10
101.4000
20
20.0000
11
101.4000
21
0.0000
0
LINE
8
PARAMETRIX
10
101.4000
20
133.0000
11
152.1000
21
133.0000
0
LINE
8
PARAMETRIX
10
152.1000
20
133.0000
11
152.1000
21
153.0000
0
LINE
8
PARAMETRIX
10
152.1000
20
153.0000
11
149.1000
21
153.0000
0
LINE
8
PARAMETRIX
10
149.1000
20
153.0000
11
149.1000
21
143.0000
0
LINE
8
PARAMETRIX
10
149.1000
20
143.0000
11
104.4000
21
143.0000
0
LINE
8
PARAMETRIX
10
104.4000
20
143.0000
11
104.4000
21
153.0000
0
LINE
8
PARAMETRIX
10
104.4000
20
153.0000
11
101.4000
21
153.0000
0
LINE
8
PARAMETRIX
10
101.4000
20
153.0000
11
101.4000
21
133.0000
0
LINE
8
PARAMETRIX
10
81.0500
20
0.0000
11
86.0500
21
0.0000
0
LINE
8
PARAMETRIX
10
86.0500
20
0.0000
11
86.0500
21
153.0000
0
LINE
8
PARAMETRIX
10
86.0500
20
153.0000
11
81.0500
21
153.0000
0
LINE
8
PARAMETRIX
10
81.0500
20
153.0000
11
81.0500
21
0.0000
0
LINE
8
PARAMETRIX
10
96.0500
20
0.0000
11
101.0500
21
0.0000
0
LINE
8
PARAMETRIX
10
101.0500
20
0.0000
11
101.0500
21
153.0000
0
LINE
8
PARAMETRIX
10
101.0500
20
153.0000
11
96.0500
21
153.0000
0
LINE
8
PARAMETRIX
10
96.0500
20
153.0000
11
96.0500
21
0.0000
0
LINE
8
PARAMETRIX
10
30.0000
20
20.5000
11
276.7500
21
20.5000
0
LINE
8
PARAMETRIX
10
276.7500
20
20.5000
11
276.7500
21
30.5000
0
LINE
8
PARAMETRIX
10
276.7500
20
30.5000
11
30.0000
21
30.5000
0
LINE
8
PARAMETRIX
10
30.0000
20
30.5000
11
30.0000
21
20.5000
0
LINE
8
PARAMETRIX
10
30.0000
20
122.5000
11
276.7500
21
122.5000
0
LINE
8
PARAMETRIX
10
276.7500
20
122.5000
11
276.7500
21
132.5000
0
LINE
8
PARAMETRIX
10
276.7500
20
132.5000
11
30.0000
21
132.5000
0
LINE
8
PARAMETRIX
10
30.0000
20
132.5000
11
30.0000
21
122.5000
0
LINE
8
PARAMETRIX
10
216.0500
20
10.5000
11
221.0500
21
10.5000
0
LINE
8
PARAMETRIX
10
221.0500
20
10.5000
11
221.0500
21
142.5000
0
LINE
8
PARAMETRIX
10
221.0500
20
142.5000
11
216.0500
21
142.5000
0
LINE
8
PARAMETRIX
10
216.0500
20
142.5000
11
216.0500
21
10.5000
0
LINE
8
PARAMETRIX
10
231.0500
20
10.5000
11
236.0500
21
10.5000
0
LINE
8
PARAMETRIX
10
236.0500
20
10.5000
11
236.0500
21
142.5000
0
LINE
8
PARAMETRIX
10
236.0500
20
142.5000
11
231.0500
21
142.5000
0
LINE
8
PARAMETRIX
10
231.0500
20
142.5000
11
231.0500
21
10.5000
0
LINE
8
PARAMETRIX
10
175.3500
20
31.0000
11
383.9000
21
31.0000
0
LINE
8
PARAMETRIX
10
383.9000
20
31.0000
11
383.9000
21
41.0000
0
LINE
8
PARAMETRIX
10
383.9000
20
41.0000
11
175.3500
21
41.0000
0
LINE
8
PARAMETRIX
10
175.3500
20
41.0000
11
175.3500
21
31.0000
0
LINE
8
PARAMETRIX
10
175.3500
20
112.0000
11
383.9000
21
112.0000
0
LINE
8
PARAMETRIX
10
383.9000
20
112.0000
11
383.9000
21
122.0000
0
LINE
8
PARAMETRIX
10
383.9000
20
122.0000
11
175.3500
21
122.0000
0
LINE
8
PARAMETRIX
10
175.3500
20
122.0000
11
175.3500
21
112.0000
0
LINE
8
PARAMETRIX
10
333.5500
20
21.0000
11
338.5500
21
21.0000
0
LINE
8
PARAMETRIX
10
338.5500
20
21.0000
11
338.5500
21
132.0000
0
LINE
8
PARAMETRIX
10
338.5500
20
132.0000
11
333.5500
21
132.0000
0
LINE
8
PARAMETRIX
10
333.5500
20
132.0000
11
333.5500
21
21.0000
0
LINE
8
PARAMETRIX
10
348.5500
20
21.0000
11
353.5500
21
21.0000
0
LINE
8
PARAMETRIX
10
353.5500
20
21.0000
11
353.5500
21
132.0000
0
LINE
8
PARAMETRIX
10
353.5500
20
132.0000
11
348.5500
21
132.0000
0
LINE
8
PARAMETRIX
10
348.5500
20
132.0000
11
348.5500
21
21.0000
0
LINE
8
PARAMETRIX
10
303.2000
20
41.5000
11
473.5500
21
41.5000
0
LINE
8
PARAMETRIX
10
473.5500
20
41.5000
11
473.5500
21
51.5000
0
LINE
8
PARAMETRIX
10
473.5500
20
51.5000
11
303.2000
21
51.5000
0
LINE
8
PARAMETRIX
10
303.2000
20
51.5000
11
303.2000
21
41.5000
0
LINE
8
PARAMETRIX
10
303.2000
20
101.5000
11
473.5500
21
101.5000
0
LINE
8
PARAMETRIX
10
473.5500
20
101.5000
11
473.5500
21
111.5000
0
LINE
8
PARAMETRIX
10
473.5500
20
111.5000
11
303.2000
21
111.5000
0
LINE
8
PARAMETRIX
10
303.2000
20
111.5000
11
303.2000
21
101.5000
0
ENDSEC
0
EOF
