<svg width="531" height="177" viewBox="-27 -9 531 177" xmlns="http://www.w3.org/2000/svg"><path d="M 0.0000 141.5000 L 77.7000 141.5000 L 77.7000 151.5000 L 80.7000 151.5000 L 80.7000 131.5000 L 10.0000 131.5000 L 10.0000 20.0000 L 80.7000 20.0000 L 80.7000 0.0000 L 77.7000 0.0000 L 77.7000 10.0000 L 0.0000 10.0000 L 0.0000 141.5000 Z" stroke="green" stroke-width="1" fill="none" /><path d="M 101.4000 151.5000 L 104.4000 151.5000 L 104.4000 141.5000 L 149.1000 141.5000 L 149.1000 151.5000 L 152.1000 151.5000 L 152.1000 131.5000 L 101.4000 131.5000 L 101.4000 151.5000 Z" stroke="green" stroke-width="1" fill="none" /><path d="M 101.4000 20.0000 L 152.1000 20.0000 L 152.1000 0.0000 L 149.1000 0.0000 L 149.1000 10.0000 L 104.4000 10.0000 L 104.4000 0.0000 L 101.4000 0.0000 L 101.4000 20.0000 Z" stroke="green" stroke-width="1" fill="none" /><path d="M 81.0500 151.5000 L 86.0500 151.5000 L 86.0500 0.0000 L 81.0500 0.0000 L 81.0500 151.5000 Z" stroke="green" stroke-width="1" fill="none" /><path d="M 96.0500 151.5000 L 101.0500 151.5000 L 101.0500 0.0000 L 96.0500 0.0000 L 96.0500 151.5000 Z" stroke="green" stroke-width="1" fill="none" /><path d="M 30.0000 131.2500 L 276.7500 131.2500 L 276.7500 121.2500 L 30.0000 121.2500 L 30.0000 131.2500 Z" stroke="green" stroke-width="1" fill="none" /><path d="M 30.0000 30.2500 L 276.7500 30.2500 L 276.7500 20.2500 L 30.0000 20.2500 L 30.0000 30.2500 Z" stroke="green" stroke-width="1" fill="none" /><path d="M 216.0500 141.2500 L 221.0500 141.2500 L 221.0500 10.2500 L 216.0500 10.2500 L 216.0500 141.2500 Z" stroke="green" stroke-width="1" fill="none" /><path d="M 231.0500 141.2500 L 236.0500 141.2500 L 236.0500 10.2500 L 231.0500 10.2500 L 231.0500 141.2500 Z" stroke="green" stroke-width="1" fill="none" /><path d="M 175.3500 121.0000 L 383.9000 121.0000 L 383.9000 111.0000 L 175.3500 111.0000 L 175.3500 121.0000 Z" stroke="green" stroke-width="1" fill="none" /><path d="M 175.3500 40.5000 L 383.9000 40.5000 L 383.9000 30.5000 L 175.3500 30.5000 L 175.3500 40.5000 Z" stroke="green" stroke-width="1" fill="none" /><path d="M 333.5500 131.0000 L 338.5500 131.0000 L 338.5500 20.5000 L 333.5500 20.5000 L 333.5500 131.0000 Z" stroke="green" stroke-width="1" fill="none" /><path d="M 348.5500 131.0000 L 353.5500 131.0000 L 353.5500 20.5000 L 348.5500 20.5000 L 348.5500 131.0000 Z" stroke="green" stroke-width="1" fill="none" /><path d="M 303.2000 110.7500 L 473.5500 110.7500 L 473.5500 100.7500 L 303.2000 100.7500 L 303.2000 110.7500 Z" stroke="green" stroke-width="1" fill="none" /><path d="M 303.2000 50.7500 L 473.5500 50.7500 L 473.5500 40.7500 L 303.2000 40.7500 L 303.2000 50.7500 Z" stroke="green" stroke-width="1" fill="none" /></svg>