0
SECTION
2
ENTITIES
0
LINE
8
PARAMETRIX
10
0.0000
20
0.0000
11
3.0000
21
0.0000
0
LINE
8
PARAMETRIX
10
3.0000
20
0.0000
11
3.0000
21
20.1683
0
ARC
8
PARAMETRIX
10
1.0000
20
20.1683
40
2.0000
50
360.0000
51
19.1034
0
LINE
8
PARAMETRIX
10
2.8899
20
20.8228
11
-14.8532
21
72.0517
0
ARC
8
PARAMETRIX
10
40.0000
20
91.0500
40
58.0500
50
340.8966
51
199.1034
0
LINE
8
PARAMETRIX
10
94.8532
20
72.0517
11
77.1101
21
20.8228
0
ARC
8
PARAMETRIX
10
79.0000
20
20.1683
40
2.0000
50
160.8966
51
180.0000
0
LINE
8
PARAMETRIX
10
77.0000
20
20.1683
11
77.0000
21
0.0000
0
LINE
8
PARAMETRIX
10
77.0000
20
0.0000
11
80.0000
21
0.0000
0
LINE
8
PARAMETRIX
10
80.0000
20
0.0000
11
80.0000
21
19.6635
0
ARC
8
PARAMETRIX
10
82.0000
20
19.6635
40
2.0000
50
160.8966
51
180.0000
0
LINE
8
PARAMETRIX
10
80.1101
20
20.3180
11
97.6879
21
71.0699
0
ARC
8
PARAMETRIX
10
40.0000
20
91.0500
40
61.0500
50
340.8966
51
199.1034
0
LINE
8
PARAMETRIX
10
-17.6879
20
71.0699
11
-0.1101
21
20.3180
0
ARC
8
PARAMETRIX
10
-2.0000
20
19.6635
40
2.0000
50
360.0000
51
19.1034
0
LINE
8
PARAMETRIX
10
0.0000
20
19.6635
11
0.0000
21
0.0000
0
CIRCLE
8
PARAMETRIX
10
40.0000
20
91.0500
40
13.3500
0
CIRCLE
8
PARAMETRIX
10
40.0000
20
91.0500
40
10.3500
0
LINE
8
PARAMETRIX
10
67.3393
20
168.5355
11
136.2910
21
201.5617
0
ARC
8
PARAMETRIX
10
156.9134
20
158.5500
40
47.7000
50
93.0687
51
115.6159
0
ARC
8
PARAMETRIX
10
154.4134
20
205.1830
40
1.0000
50
0.0000
51
93.0687
0
LINE
8
PARAMETRIX
10
155.4134
20
205.1830
11
155.4134
21
172.6806
0
ARC
8
PARAMETRIX
10
154.4134
20
172.6806
40
1.0000
50
280.0330
51
360.0000
0
ARC
8
PARAMETRIX
10
156.9134
20
158.5500
40
13.3500
50
100.0330
51
199.9670
0
ARC
8
PARAMETRIX
10
143.4260
20
153.6498
40
1.0000
50
300.0000
51
19.9670
0
LINE
8
PARAMETRIX
10
143.9260
20
152.7838
11
93.3333
21
123.5740
0
ARC
8
PARAMETRIX
10
93.5333
20
123.2276
40
0.4000
50
120.0000
51
210.0000
0
LINE
8
PARAMETRIX
10
93.1869
20
123.0276
11
94.2869
21
121.1224
0
ARC
8
PARAMETRIX
10
94.6333
20
121.3224
40
0.4000
50
210.0000
51
300.0000
0
LINE
8
PARAMETRIX
10
94.8333
20
120.9760
11
145.4260
21
150.1857
0
ARC
8
PARAMETRIX
10
145.9260
20
149.3197
40
1.0000
50
40.0330
51
120.0000
0
ARC
8
PARAMETRIX
10
156.9134
20
158.5500
40
13.3500
50
220.0330
51
319.9670
0
ARC
8
PARAMETRIX
10
167.9008
20
149.3197
40
1.0000
50
60.0000
51
139.9670
0
LINE
8
PARAMETRIX
10
168.4008
20
150.1857
11
196.5488
21
133.9344
0
ARC
8
PARAMETRIX
10
196.0488
20
133.0684
40
1.0000
50
326.9313
51
60.0000
0
ARC
8
PARAMETRIX
10
156.9134
20
158.5500
40
47.7000
50
304.3841
51
326.9313
0
LINE
8
PARAMETRIX
10
183.8514
20
119.1846
11
120.7740
21
75.9838
0
ARC
8
PARAMETRIX
10
121.0001
20
75.6538
40
0.4000
50
124.4067
51
210.0000
0
LINE
8
PARAMETRIX
10
120.6536
20
75.4538
11
121.7569
21
73.5430
0
ARC
8
PARAMETRIX
10
122.1033
20
73.7430
40
0.4000
50
210.0000
51
304.4066
0
LINE
8
PARAMETRIX
10
122.3293
20
73.4129
11
185.5456
21
116.7088
0
ARC
8
PARAMETRIX
10
156.9134
20
158.5500
40
50.7000
50
304.3841
51
115.6159
0
LINE
8
PARAMETRIX
10
134.9940
20
204.2668
11
65.8905
21
171.1678
0
ARC
8
PARAMETRIX
10
66.0633
20
170.8070
40
0.4000
50
115.5934
51
210.0000
0
LINE
8
PARAMETRIX
10
65.7169
20
170.6070
11
66.8201
21
168.6962
0
ARC
8
PARAMETRIX
10
67.1665
20
168.8962
40
0.4000
50
210.0000
51
295.5933
0
CIRCLE
8
PARAMETRIX
10
156.9134
20
158.5500
40
10.3500
0
ARC
8
PARAMETRIX
10
156.9134
20
158.5500
40
13.3500
50
340.0330
51
79.9670
0
ARC
8
PARAMETRIX
10
170.4008
20
153.6498
40
1.0000
50
160.0330
51
240.0000
0
LINE
8
PARAMETRIX
10
169.9008
20
152.7838
11
198.0488
21
136.5325
0
ARC
8
PARAMETRIX
10
198.5488
20
137.3985
40
1.0000
50
240.0000
51
333.0687
0
ARC
8
PARAMETRIX
10
156.9134
20
158.5500
40
47.7000
50
333.0687
51
86.9313
0
ARC
8
PARAMETRIX
10
159.4134
20
205.1830
40
1.0000
50
86.9313
51
180.0000
0
LINE
8
PARAMETRIX
10
158.4134
20
205.1830
11
158.4134
21
172.6806
0
ARC
8
PARAMETRIX
10
159.4134
20
172.6806
40
1.0000
50
180.0000
51
259.9670
0
LINE
8
PARAMETRIX
10
144.2853
20
225.0783
11
182.9264
21
282.2220
0
ARC
8
PARAMETRIX
10
213.8786
20
261.3178
40
37.3500
50
124.9437
51
145.9661
0
ARC
8
PARAMETRIX
10
193.0583
20
291.1145
40
1.0000
50
31.0000
51
124.9437
0
LINE
8
PARAMETRIX
10
193.9155
20
291.6295
11
205.3150
21
272.6575
0
ARC
8
PARAMETRIX
10
204.4579
20
272.1425
40
1.0000
50
311.0330
51
31.0000
0
ARC
8
PARAMETRIX
10
213.8786
20
261.3178
40
13.3500
50
131.0330
51
230.9670
0
ARC
8
PARAMETRIX
10
204.8414
20
250.1710
40
1.0000
50
331.0000
51
50.9670
0
LINE
8
PARAMETRIX
10
205.7160
20
249.6862
11
180.8601
21
204.8449
0
ARC
8
PARAMETRIX
10
181.2099
20
204.6510
40
0.4000
50
151.0000
51
241.0000
0
LINE
8
PARAMETRIX
10
181.0160
20
204.3011
11
182.9402
21
203.2345
0
ARC
8
PARAMETRIX
10
183.1341
20
203.5844
40
0.4000
50
241.0000
51
331.0000
0
LINE
8
PARAMETRIX
10
183.4839
20
203.3905
11
208.3399
21
248.2317
0
ARC
8
PARAMETRIX
10
209.2145
20
247.7469
40
1.0000
50
71.0330
51
151.0000
0
ARC
8
PARAMETRIX
10
213.8786
20
261.3178
40
13.3500
50
251.0330
51
350.9670
0
ARC
8
PARAMETRIX
10
228.0506
20
259.0648
40
1.0000
50
91.0000
51
170.9670
0
LINE
8
PARAMETRIX
10
228.0331
20
260.0647
11
250.1631
21
260.4509
0
ARC
8
PARAMETRIX
10
250.1806
20
259.4511
40
1.0000
50
357.0563
51
91.0000
0
ARC
8
PARAMETRIX
10
213.8786
20
261.3178
40
37.3500
50
336.0339
51
357.0563
0
LINE
8
PARAMETRIX
10
248.0085
20
246.1464
11
220.0245
21
183.0953
0
ARC
8
PARAMETRIX
10
220.3901
20
182.9331
40
0.4000
50
156.0669
51
241.0000
0
LINE
8
PARAMETRIX
10
220.1962
20
182.5832
11
222.1277
21
181.5125
0
ARC
8
PARAMETRIX
10
222.3217
20
181.8624
40
0.4000
50
241.0000
51
336.0668
0
LINE
8
PARAMETRIX
10
222.6873
20
181.7001
11
250.7498
21
244.9278
0
ARC
8
PARAMETRIX
10
213.8786
20
261.3178
40
40.3500
50
336.0339
51
145.9661
0
LINE
8
PARAMETRIX
10
180.4403
20
283.9010
11
141.6910
21
226.5971
0
ARC
8
PARAMETRIX
10
142.0224
20
226.3730
40
0.4000
50
145.9332
51
241.0000
0
LINE
8
PARAMETRIX
10
141.8284
20
226.0232
11
143.7600
21
224.9525
0
ARC
8
PARAMETRIX
10
143.9539
20
225.3023
40
0.4000
50
241.0000
51
325.9331
0
CIRCLE
8
PARAMETRIX
10
213.8786
20
261.3178
40
10.3500
0
ARC
8
PARAMETRIX
10
213.8786
20
261.3178
40
13.3500
50
11.0330
51
110.9670
0
ARC
8
PARAMETRIX
10
227.9633
20
264.0640
40
1.0000
50
191.0330
51
271.0000
0
LINE
8
PARAMETRIX
10
227.9808
20
263.0642
11
250.1108
21
263.4505
0
ARC
8
PARAMETRIX
10
250.0933
20
264.4503
40
1.0000
50
271.0000
51
4.9437
0
ARC
8
PARAMETRIX
10
213.8786
20
261.3178
40
37.3500
50
4.9437
51
117.0563
0
ARC
8
PARAMETRIX
10
197.3442
20
293.6897
40
1.0000
50
117.0563
51
211.0000
0
LINE
8
PARAMETRIX
10
196.4870
20
293.1746
11
207.8865
21
274.2026
0
ARC
8
PARAMETRIX
10
208.7437
20
274.7177
40
1.0000
50
211.0000
51
290.9670
0
LINE
8
PARAMETRIX
10
163.0046
20
277.3124
11
134.1398
21
331.5080
0
ARC
8
PARAMETRIX
10
157.9593
20
344.2216
40
27.0000
50
189.5177
51
208.0909
0
ARC
8
PARAMETRIX
10
132.3172
20
339.9224
40
1.0000
50
94.0000
51
189.5177
0
LINE
8
PARAMETRIX
10
132.2474
20
340.9200
11
143.9678
21
341.7395
0
ARC
8
PARAMETRIX
10
144.0375
20
340.7420
40
1.0000
50
14.0330
51
94.0000
0
ARC
8
PARAMETRIX
10
157.9593
20
344.2216
40
13.3500
50
194.0330
51
293.9670
0
ARC
8
PARAMETRIX
10
163.7884
20
331.1088
40
1.0000
50
34.0000
51
113.9670
0
LINE
8
PARAMETRIX
10
164.6174
20
331.6680
11
189.2887
21
295.0913
0
ARC
8
PARAMETRIX
10
189.6203
20
295.3150
40
0.4000
50
214.0000
51
304.0000
0
LINE
8
PARAMETRIX
10
189.8440
20
294.9834
11
191.6679
21
296.2136
0
ARC
8
PARAMETRIX
10
191.4442
20
296.5452
40
0.4000
50
304.0000
51
34.0000
0
LINE
8
PARAMETRIX
10
191.7758
20
296.7689
11
167.1045
21
333.3456
0
ARC
8
PARAMETRIX
10
167.9336
20
333.9048
40
1.0000
50
134.0330
51
214.0000
0
ARC
8
PARAMETRIX
10
157.9593
20
344.2216
40
13.3500
50
314.0330
51
53.9670
0
ARC
8
PARAMETRIX
10
166.4007
20
355.8261
40
1.0000
50
154.0000
51
233.9670
0
LINE
8
PARAMETRIX
10
165.5019
20
356.2645
11
170.6523
21
366.8244
0
ARC
8
PARAMETRIX
10
171.5511
20
366.3860
40
1.0000
50
58.4823
51
154.0000
0
ARC
8
PARAMETRIX
10
157.9593
20
344.2216
40
27.0000
50
39.9091
51
58.4823
0
LINE
8
PARAMETRIX
10
178.6700
20
361.5440
11
218.1064
21
314.4790
0
ARC
8
PARAMETRIX
10
218.4130
20
314.7359
40
0.4000
50
219.9601
51
304.0000
0
LINE
8
PARAMETRIX
10
218.6366
20
314.4043
11
220.4702
21
315.6410
0
ARC
8
PARAMETRIX
10
220.2465
20
315.9727
40
0.4000
50
304.0000
51
39.9598
0
LINE
8
PARAMETRIX
10
220.5531
20
316.2296
11
180.9712
21
363.4687
0
ARC
8
PARAMETRIX
10
157.9593
20
344.2216
40
30.0000
50
39.9091
51
208.0909
0
LINE
8
PARAMETRIX
10
131.4932
20
330.0954
11
160.4649
21
275.6996
0
ARC
8
PARAMETRIX
10
160.8180
20
275.8876
40
0.4000
50
208.0402
51
304.0000
0
LINE
8
PARAMETRIX
10
161.0417
20
275.5560
11
162.8752
21
276.7927
0
ARC
8
PARAMETRIX
10
162.6516
20
277.1244
40
0.4000
50
304.0000
51
28.0399
0
CIRCLE
8
PARAMETRIX
10
157.9593
20
344.2216
40
10.3500
0
ARC
8
PARAMETRIX
10
157.9593
20
344.2216
40
13.3500
50
74.0330
51
173.9670
0
ARC
8
PARAMETRIX
10
161.9067
20
358.0180
40
1.0000
50
254.0330
51
334.0000
0
LINE
8
PARAMETRIX
10
162.8055
20
357.5796
11
167.9559
21
368.1395
0
ARC
8
PARAMETRIX
10
167.0571
20
368.5779
40
1.0000
50
334.0000
51
69.5177
0
ARC
8
PARAMETRIX
10
157.9593
20
344.2216
40
27.0000
50
69.5177
51
178.4823
0
ARC
8
PARAMETRIX
10
131.9684
20
344.9102
40
1.0000
50
178.4823
51
274.0000
0
LINE
8
PARAMETRIX
10
132.0381
20
343.9127
11
143.7585
21
344.7322
0
ARC
8
PARAMETRIX
10
143.6887
20
345.7298
40
1.0000
50
274.0000
51
353.9670
0
ENDSEC
0
EOF
