0
SECTION
2
ENTITIES
0
LINE
8
PARAMETRIX
10
0.0000
20
10.0000
11
77.7000
21
10.0000
0
LINE
8
PARAMETRIX
10
77.7000
20
10.0000
11
77.7000
21
0.0000
0
LINE
8
PARAMETRIX
10
77.7000
20
0.0000
11
80.7000
21
0.0000
0
LINE
8
PARAMETRIX
10
80.7000
20
0.0000
11
80.7000
21
20.0000
0
LINE
8
PARAMETRIX
10
80.7000
20
20.0000
11
10.0000
21
20.0000
0
LINE
8
PARAMETRIX
10
10.0000
20
20.0000
11
10.0000
21
131.5000
0
LINE
8
PARAMETRIX
10
10.0000
20
131.5000
11
80.7000
21
131.5000
0
LINE
8
PARAMETRIX
10
80.7000
20
131.5000
11
80.7000
21
151.5000
0
LINE
8
PARAMETRIX
10
80.7000
20
151.5000
11
77.7000
21
151.5000
0
LINE
8
PARAMETRIX
10
77.7000
20
151.5000
11
77.7000
21
141.5000
0
LINE
8
PARAMETRIX
10
77.7000
20
141.5000
11
0.0000
21
141.5000
0
LINE
8
PARAMETRIX
10
0.0000
20
141.5000
11
0.0000
21
10.0000
0
LINE
8
PARAMETRIX
10
101.4000
20
0.0000
11
104.4000
21
0.0000
0
LINE
8
PARAMETRIX
10
104.4000
20
0.0000
11
104.4000
21
10.0000
0
LINE
8
PARAMETRIX
10
104.4000
20
10.0000
11
149.1000
21
10.0000
0
LINE
8
PARAMETRIX
10
149.1000
20
10.0000
11
149.1000
21
0.0000
0
LINE
8
PARAMETRIX
10
149.1000
20
0.0000
11
152.1000
21
0.0000
0
LINE
8
PARAMETRIX
10
152.1000
20
0.0000
11
152.1000
21
20.0000
0
LINE
8
PARAMETRIX
10
152.1000
20
20.0000
11
101.4000
21
20.0000
0
LINE
8
PARAMETRIX
10
101.4000
20
20.0000
11
101.4000
21
0.0000
0
LINE
8
PARAMETRIX
10
101.4000
20
131.5000
11
152.1000
21
131.5000
0
LINE
8
PARAMETRIX
10
152.1000
20
131.5000
11
152.1000
21
151.5000
0
LINE
8
PARAMETRIX
10
152.1000
20
151.5000
11
149.1000
21
151.5000
0
LINE
8
PARAMETRIX
10
149.1000
20
151.5000
11
149.1000
21
141.5000
0
LINE
8
PARAMETRIX
10
149.1000
20
141.5000
11
104.4000
21
141.5000
0
LINE
8
PARAMETRIX
10
104.4000
20
141.5000
11
104.4000
21
151.5000
0
LINE
8
PARAMETRIX
10
104.4000
20
151.5000
11
101.4000
21
151.5000
0
LINE
8
PARAMETRIX
10
101.4000
20
151.5000
11
101.4000
21
131.5000
0
LINE
8
PARAMETRIX
10
81.0500
20
0.0000
11
86.0500
21
0.0000
0
LINE
8
PARAMETRIX
10
86.0500
20
0.0000
11
86.0500
21
151.5000
0
LINE
8
PARAMETRIX
10
86.0500
20
151.5000
11
81.0500
21
151.5000
0
LINE
8
PARAMETRIX
10
81.0500
20
151.5000
11
81.0500
21
0.0000
0
LINE
8
PARAMETRIX
10
96.0500
20
0.0000
11
101.0500
21
0.0000
0
LINE
8
PARAMETRIX
10
101.0500
20
0.0000
11
101.0500
21
151.5000
0
LINE
8
PARAMETRIX
10
101.0500
20
151.5000
11
96.0500
21
151.5000
0
LINE
8
PARAMETRIX
10
96.0500
20
151.5000
11
96.0500
21
0.0000
0
LINE
8
PARAMETRIX
10
30.0000
20
20.2500
11
276.7500
21
20.2500
0
LINE
8
PARAMETRIX
10
276.7500
20
20.2500
11
276.7500
21
30.2500
0
LINE
8
PARAMETRIX
10
276.7500
20
30.2500
11
30.0000
21
30.2500
0
LINE
8
PARAMETRIX
10
30.0000
20
30.2500
11
30.0000
21
20.2500
0
LINE
8
PARAMETRIX
10
30.0000
20
121.2500
11
276.7500
21
121.2500
0
LINE
8
PARAMETRIX
10
276.7500
20
121.2500
11
276.7500
21
131.2500
0
LINE
8
PARAMETRIX
10
276.7500
20
131.2500
11
30.0000
21
131.2500
0
LINE
8
PARAMETRIX
10
30.0000
20
131.2500
11
30.0000
21
121.2500
0
LINE
8
PARAMETRIX
10
216.0500
20
10.2500
11
221.0500
21
10.2500
0
LINE
8
PARAMETRIX
10
221.0500
20
10.2500
11
221.0500
21
141.2500
0
LINE
8
PARAMETRIX
10
221.0500
20
141.2500
11
216.0500
21
141.2500
0
LINE
8
PARAMETRIX
10
216.0500
20
141.2500
11
216.0500
21
10.2500
0
LINE
8
PARAMETRIX
10
231.0500
20
10.2500
11
236.0500
21
10.2500
0
LINE
8
PARAMETRIX
10
236.0500
20
10.2500
11
236.0500
21
141.2500
0
LINE
8
PARAMETRIX
10
236.0500
20
141.2500
11
231.0500
21
141.2500
0
LINE
8
PARAMETRIX
10
231.0500
20
141.2500
11
231.0500
21
10.2500
0
LINE
8
PARAMETRIX
10
175.3500
20
30.5000
11
383.9000
21
30.5000
0
LINE
8
PARAMETRIX
10
383.9000
20
30.5000
11
383.9000
21
40.5000
0
LINE
8
PARAMETRIX
10
383.9000
20
40.5000
11
175.3500
21
40.5000
0
LINE
8
PARAMETRIX
10
175.3500
20
40.5000
11
175.3500
21
30.5000
0
LINE
8
PARAMETRIX
10
175.3500
20
111.0000
11
383.9000
21
111.0000
0
LINE
8
PARAMETRIX
10
383.9000
20
111.0000
11
383.9000
21
121.0000
0
LINE
8
PARAMETRIX
10
383.9000
20
121.0000
11
175.3500
21
121.0000
0
LINE
8
PARAMETRIX
10
175.3500
20
121.0000
11
175.3500
21
111.0000
0
LINE
8
PARAMETRIX
10
333.5500
20
20.5000
11
338.5500
21
20.5000
0
LINE
8
PARAMETRIX
10
338.5500
20
20.5000
11
338.5500
21
131.0000
0
LINE
8
PARAMETRIX
10
338.5500
20
131.0000
11
333.5500
21
131.0000
0
LINE
8
PARAMETRIX
10
333.5500
20
131.0000
11
333.5500
21
20.5000
0
LINE
8
PARAMETRIX
10
348.5500
20
20.5000
11
353.5500
21
20.5000
0
LINE
8
PARAMETRIX
10
353.5500
20
20.5000
11
353.5500
21
131.0000
0
LINE
8
PARAMETRIX
10
353.5500
20
131.0000
11
348.5500
21
131.0000
0
LINE
8
PARAMETRIX
10
348.5500
20
131.0000
11
348.5500
21
20.5000
0
LINE
8
PARAMETRIX
10
303.2000
20
40.7500
11
473.5500
21
40.7500
0
LINE
8
PARAMETRIX
10
473.5500
20
40.7500
11
473.5500
21
50.7500
0
LINE
8
PARAMETRIX
10
473.5500
20
50.7500
11
303.2000
21
50.7500
0
LINE
8
PARAMETRIX
10
303.2000
20
50.7500
11
303.2000
21
40.7500
0
LINE
8
PARAMETRIX
10
303.2000
20
100.7500
11
473.5500
21
100.7500
0
LINE
8
PARAMETRIX
10
473.5500
20
100.7500
11
473.5500
21
110.7500
0
LINE
8
PARAMETRIX
10
473.5500
20
110.7500
11
303.2000
21
110.7500
0
LINE
8
PARAMETRIX
10
303.2000
20
110.7500
11
303.2000
21
100.7500
0
ENDSEC
0
EOF
