<svg width="531" height="178" viewBox="-27 -9 531 178" xmlns="http://www.w3.org/2000/svg"><path d="M 0.0000 143.0000 L 77.7000 143.0000 L 77.7000 153.0000 L 80.7000 153.0000 L 80.7000 133.0000 L 10.0000 133.0000 L 10.0000 20.0000 L 80.7000 20.0000 L 80.7000 0.0000 L 77.7000 0.0000 L 77.7000 10.0000 L 0.0000 10.0000 L 0.0000 143.0000 Z" stroke="green" stroke-width="1" fill="none" /><path d="M 101.4000 153.0000 L 104.4000 153.0000 L 104.4000 143.0000 L 149.1000 143.0000 L 149.1000 153.0000 L 152.1000 153.0000 L 152.1000 133.0000 L 101.4000 133.0000 L 101.4000 153.0000 Z" stroke="green" stroke-width="1" fill="none" /><path d="M 101.4000 20.0000 L 152.1000 20.0000 L 152.1000 0.0000 L 149.1000 0.0000 L 149.1000 10.0000 L 104.4000 10.0000 L 104.4000 0.0000 L 101.4000 0.0000 L 101.4000 20.0000 Z" stroke="green" stroke-width="1" fill="none" /><path d="M 81.0500 153.0000 L 86.0500 153.0000 L 86.0500 0.0000 L 81.0500 0.0000 L 81.0500 153.0000 Z" stroke="green" stroke-width="1" fill="none" /><path d="M 96.0500 153.0000 L 101.0500 153.0000 L 101.0500 0.0000 L 96.0500 0.0000 L 96.0500 153.0000 Z" stroke="green" stroke-width="1" fill="none" /><path d="M 30.0000 132.5000 L 276.7500 132.5000 L 276.7500 122.5000 L 30.0000 122.5000 L 30.0000 132.5000 Z" stroke="green" stroke-width="1" fill="none" /><path d="M 30.0000 30.5000 L 276.7500 30.5000 L 276.7500 20.5000 L 30.0000 20.5000 L 30.0000 30.5000 Z" stroke="green" stroke-width="1" fill="none" /><path d="M 216.0500 142.5000 L 221.0500 142.5000 L 221.0500 10.5000 L 216.0500 10.5000 L 216.0500 142.5000 Z" stroke="green" stroke-width="1" fill="none" /><path d="M 231.0500 142.5000 L 236.0500 142.5000 L 236.0500 10.5000 L 231.0500 10.5000 L 231.0500 142.5000 Z" stroke="green" stroke-width="1" fill="none" /><path d="M 175.3500 122.0000 L 383.9000 122.0000 L 383.9000 112.0000 L 175.3500 112.0000 L 175.3500 122.0000 Z" stroke="green" stroke-width="1" fill="none" /><path d="M 175.3500 41.0000 L 383.9000 41.0000 L 383.9000 31.0000 L 175.3500 31.0000 L 175.3500 41.0000 Z" stroke="green" stroke-width="1" fill="none" /><path d="M 333.5500 132.0000 L 338.5500 132.0000 L 338.5500 21.0000 L 333.5500 21.0000 L 333.5500 132.0000 Z" stroke="green" stroke-width="1" fill="none" /><path d="M 348.5500 132.0000 L 353.5500 132.0000 L 353.5500 21.0000 L 348.5500 21.0000 L 348.5500 132.0000 Z" stroke="green" stroke-width="1" fill="none" /><path d="M 303.2000 111.5000 L 473.5500 111.5000 L 473.5500 101.5000 L 303.2000 101.5000 L 303.2000 111.5000 Z" stroke="green" stroke-width="1" fill="none" /><path d="M 303.2000 51.5000 L 473.5500 51.5000 L 473.5500 41.5000 L 303.2000 41.5000 L 303.2000 51.5000 Z" stroke="green" stroke-width="1" fill="none" /></svg>