<svg width="306" height="416" viewBox="-33 -21 306 416" xmlns="http://www.w3.org/2000/svg"><path d="M 0.0000 369.5146 L 3.0000 369.5146 L 3.0000 349.3464 A 2.0000 2.0000 0 0 0 2.8899 348.6918 L -14.8532 297.4629 A 58.0500 58.0500 0 1 1 94.8532 297.4629 L 77.1101 348.6918 A 2.0000 2.0000 0 0 0 77.0000 349.3464 L 77.0000 369.5146 L 80.0000 369.5146 L 80.0000 349.8512 A 2.0000 2.0000 0 0 1 80.1101 349.1966 L 97.6879 298.4447 A 61.0500 61.0500 0 1 0 -17.6879 298.4447 L -0.1101 349.1966 A 2.0000 2.0000 0 0 1 0.0000 349.8512 L 0.0000 369.5146 Z" stroke="green" stroke-width="1" fill="none" /><circle cx="40.0000" cy="278.4646" r="13.3500" stroke="green" stroke-width="1" fill="none" /><circle cx="40.0000" cy="278.4646" r="10.3500" stroke="green" stroke-width="1" fill="none" /><path d="M 67.3393 200.9792 L 136.2910 167.9530 A 47.7000 47.7000 0 0 1 154.3599 163.3330 A 1.0000 1.0000 0 0 1 155.4134 164.3316 L 155.4134 196.8341 A 1.0000 1.0000 0 0 1 154.5876 197.8188 A 13.3500 13.3500 0 0 0 144.3659 215.5234 A 1.0000 1.0000 0 0 1 143.9260 216.7309 L 93.3333 245.9406 A 0.4000 0.4000 0 0 0 93.1869 246.4870 L 94.2869 248.3923 A 0.4000 0.4000 0 0 0 94.8333 248.5387 L 145.4260 219.3290 A 1.0000 1.0000 0 0 1 146.6917 219.5518 A 13.3500 13.3500 0 0 0 167.1352 219.5518 A 1.0000 1.0000 0 0 1 168.4008 219.3290 L 196.5488 235.5802 A 1.0000 1.0000 0 0 1 196.8868 236.9919 A 47.7000 47.7000 0 0 1 183.8514 250.3300 L 120.7740 293.5308 A 0.4000 0.4000 0 0 0 120.6536 294.0609 L 121.7569 295.9717 A 0.4000 0.4000 0 0 0 122.3293 296.1017 L 185.5456 252.8058 A 50.7000 50.7000 0 0 0 134.9940 165.2478 L 65.8905 198.3468 A 0.4000 0.4000 0 0 0 65.7169 198.9076 L 66.8201 200.8184 A 0.4000 0.4000 0 0 0 67.3393 200.9792 Z" stroke="green" stroke-width="1" fill="none" /><circle cx="156.9134" cy="210.9646" r="10.3500" stroke="green" stroke-width="1" fill="none" /><path d="M 159.2392 197.8188 A 13.3500 13.3500 0 0 1 169.4610 215.5234 A 1.0000 1.0000 0 0 0 169.9008 216.7309 L 198.0488 232.9821 A 1.0000 1.0000 0 0 0 199.4404 232.5690 A 47.7000 47.7000 0 0 0 159.4670 163.3330 A 1.0000 1.0000 0 0 0 158.4134 164.3316 L 158.4134 196.8341 A 1.0000 1.0000 0 0 0 159.2392 197.8188 Z" stroke="green" stroke-width="1" fill="none" /><path d="M 144.2853 144.4364 L 182.9264 87.2927 A 37.3500 37.3500 0 0 1 192.4856 77.5805 A 1.0000 1.0000 0 0 1 193.9155 77.8851 L 205.3150 96.8571 A 1.0000 1.0000 0 0 1 205.1144 98.1265 A 13.3500 13.3500 0 0 0 205.4712 118.5669 A 1.0000 1.0000 0 0 1 205.7160 119.8285 L 180.8601 164.6697 A 0.4000 0.4000 0 0 0 181.0160 165.2135 L 182.9402 166.2801 A 0.4000 0.4000 0 0 0 183.4839 166.1242 L 208.3399 121.2829 A 1.0000 1.0000 0 0 1 209.5395 120.8220 A 13.3500 13.3500 0 0 0 227.0630 110.2928 A 1.0000 1.0000 0 0 1 228.0331 109.4500 L 250.1631 109.0637 A 1.0000 1.0000 0 0 1 251.1793 110.1149 A 37.3500 37.3500 0 0 1 248.0085 123.3682 L 220.0245 186.4193 A 0.4000 0.4000 0 0 0 220.1962 186.9314 L 222.1277 188.0021 A 0.4000 0.4000 0 0 0 222.6873 187.8145 L 250.7498 124.5868 A 40.3500 40.3500 0 0 0 180.4403 85.6136 L 141.6910 142.9176 A 0.4000 0.4000 0 0 0 141.8284 143.4915 L 143.7600 144.5622 A 0.4000 0.4000 0 0 0 144.2853 144.4364 Z" stroke="green" stroke-width="1" fill="none" /><circle cx="213.8786" cy="108.1968" r="10.3500" stroke="green" stroke-width="1" fill="none" /><path d="M 209.1015 95.7308 A 13.3500 13.3500 0 0 1 226.9818 105.6420 A 1.0000 1.0000 0 0 0 227.9808 106.4504 L 250.1108 106.0642 A 1.0000 1.0000 0 0 0 251.0896 104.9781 A 37.3500 37.3500 0 0 0 196.8893 74.9344 A 1.0000 1.0000 0 0 0 196.4870 76.3400 L 207.8865 95.3120 A 1.0000 1.0000 0 0 0 209.1015 95.7308 Z" stroke="green" stroke-width="1" fill="none" /><path d="M 163.0046 92.2023 L 134.1398 38.0066 A 27.0000 27.0000 0 0 1 131.3309 29.7576 A 1.0000 1.0000 0 0 1 132.2474 28.5947 L 143.9678 27.7751 A 1.0000 1.0000 0 0 1 145.0077 28.5302 A 13.3500 13.3500 0 0 0 163.3822 37.4920 A 1.0000 1.0000 0 0 1 164.6174 37.8466 L 189.2887 74.4233 A 0.4000 0.4000 0 0 0 189.8440 74.5312 L 191.6679 73.3010 A 0.4000 0.4000 0 0 0 191.7758 72.7457 L 167.1045 36.1690 A 1.0000 1.0000 0 0 1 167.2385 34.8909 A 13.3500 13.3500 0 0 0 165.8124 14.4972 A 1.0000 1.0000 0 0 1 165.5019 13.2502 L 170.6523 2.6903 A 1.0000 1.0000 0 0 1 172.0739 2.2762 A 27.0000 27.0000 0 0 1 178.6700 7.9707 L 218.1064 55.0356 A 0.4000 0.4000 0 0 0 218.6366 55.1104 L 220.4702 53.8736 A 0.4000 0.4000 0 0 0 220.5531 53.2851 L 180.9712 6.0459 A 30.0000 30.0000 0 0 0 131.4932 39.4192 L 160.4649 93.8151 A 0.4000 0.4000 0 0 0 161.0417 93.9587 L 162.8752 92.7219 A 0.4000 0.4000 0 0 0 163.0046 92.2023 Z" stroke="green" stroke-width="1" fill="none" /><circle cx="157.9593" cy="25.2931" r="10.3500" stroke="green" stroke-width="1" fill="none" /><path d="M 144.6832 23.8900 A 13.3500 13.3500 0 0 1 161.6316 12.4581 A 1.0000 1.0000 0 0 0 162.8055 11.9351 L 167.9559 1.3752 A 1.0000 1.0000 0 0 0 167.4070 0.0000 A 27.0000 27.0000 0 0 0 130.9687 24.5779 A 1.0000 1.0000 0 0 0 132.0381 25.6020 L 143.7585 24.7824 A 1.0000 1.0000 0 0 0 144.6832 23.8900 Z" stroke="green" stroke-width="1" fill="none" /></svg>