0
SECTION
2
ENTITIES
0
ARC
8
PARAMETRIX
10
126.2750
20
20.0000
40
1500.0000
50
90.0000
51
108.0000
0
LINE
8
PARAMETRIX
10
-337.2505
20
1446.5848
11
-275.4471
21
1256.3735
0
ARC
8
PARAMETRIX
10
126.2750
20
20.0000
40
1300.0000
50
90.0000
51
108.0000
0
LINE
8
PARAMETRIX
10
126.2750
20
1320.0000
11
126.2750
21
1520.0000
0
ARC
8
PARAMETRIX
10
-126.2750
20
-20.0000
40
3500.0000
50
90.0000
51
108.0000
0
LINE
8
PARAMETRIX
10
-1207.8345
20
3308.6978
11
-1269.6379
21
3498.9091
0
ARC
8
PARAMETRIX
10
-126.2750
20
-20.0000
40
3700.0000
50
90.0000
51
108.0000
0
LINE
8
PARAMETRIX
10
-126.2750
20
3680.0000
11
-126.2750
21
3480.0000
0
ARC
8
PARAMETRIX
10
-58.0423
20
113.9144
40
1260.0000
50
198.0000
51
216.0000
0
LINE
8
PARAMETRIX
10
-1077.4037
20
-626.6951
11
-915.6003
21
-509.1380
0
ARC
8
PARAMETRIX
10
-58.0423
20
113.9144
40
1060.0000
50
198.0000
51
216.0000
0
LINE
8
PARAMETRIX
10
-1066.1622
20
-213.6437
11
-1256.3735
21
-275.4471
0
ARC
8
PARAMETRIX
10
58.0423
20
-113.9144
40
3740.0000
50
198.0000
51
216.0000
0
LINE
8
PARAMETRIX
10
-2967.6813
20
-2312.2312
11
-3129.4847
21
-2429.7882
0
ARC
8
PARAMETRIX
10
58.0423
20
-113.9144
40
3940.0000
50
198.0000
51
216.0000
0
LINE
8
PARAMETRIX
10
-3689.1204
20
-1331.4413
11
-3498.9091
21
-1269.6379
0
ARC
8
PARAMETRIX
10
-90.4029
20
-90.4029
40
1020.0000
50
306.0000
51
324.0000
0
LINE
8
PARAMETRIX
10
734.7944
20
-689.9439
11
572.9910
21
-572.3868
0
ARC
8
PARAMETRIX
10
-90.4029
20
-90.4029
40
820.0000
50
306.0000
51
324.0000
0
LINE
8
PARAMETRIX
10
391.5810
20
-753.7969
11
509.1380
21
-915.6003
0
ARC
8
PARAMETRIX
10
90.4029
20
90.4029
40
3980.0000
50
306.0000
51
324.0000
0
LINE
8
PARAMETRIX
10
3310.2906
20
-2248.9824
11
3472.0940
21
-2366.5394
0
ARC
8
PARAMETRIX
10
90.4029
20
90.4029
40
4180.0000
50
306.0000
51
324.0000
0
LINE
8
PARAMETRIX
10
2547.3453
20
-3291.2881
11
2429.7882
21
-3129.4847
0
ARC
8
PARAMETRIX
10
113.9144
20
-58.0423
40
780.0000
50
54.0000
51
72.0000
0
LINE
8
PARAMETRIX
10
354.9476
20
683.7818
11
293.1442
21
493.5705
0
ARC
8
PARAMETRIX
10
113.9144
20
-58.0423
40
580.0000
50
54.0000
51
72.0000
0
LINE
8
PARAMETRIX
10
454.8298
20
411.1876
11
572.3868
21
572.9910
0
ARC
8
PARAMETRIX
10
-113.9144
20
58.0423
40
4220.0000
50
54.0000
51
72.0000
0
LINE
8
PARAMETRIX
10
1190.1374
20
4071.5008
11
1251.9408
21
4261.7121
0
ARC
8
PARAMETRIX
10
-113.9144
20
58.0423
40
4420.0000
50
54.0000
51
72.0000
0
LINE
8
PARAMETRIX
10
2484.0965
20
3633.8974
11
2366.5394
21
3472.0940
0
ENDSEC
0
EOF
