<svg width="7887" height="8318" viewBox="-4083 -3707 7887 8318" xmlns="http://www.w3.org/2000/svg"><path d="M 126.2750 -549.5760 A 1500.0000 1500.0000 0 0 0 -337.2505 -476.1608 L -275.4471 -285.9495 A 1300.0000 1300.0000 0 0 1 126.2750 -349.5760 L 126.2750 -549.5760 Z" stroke="green" stroke-width="1" fill="none" /><path d="M -126.2750 -2509.5760 A 3500.0000 3500.0000 0 0 0 -1207.8345 -2338.2738 L -1269.6379 -2528.4851 A 3700.0000 3700.0000 0 0 1 -126.2750 -2709.5760 L -126.2750 -2509.5760 Z" stroke="green" stroke-width="1" fill="none" /><path d="M -1256.3735 1245.8710 A 1260.0000 1260.0000 0 0 0 -1077.4037 1597.1190 L -915.6003 1479.5620 A 1060.0000 1060.0000 0 0 1 -1066.1622 1184.0676 L -1256.3735 1245.8710 Z" stroke="green" stroke-width="1" fill="none" /><path d="M -3498.9091 2240.0619 A 3740.0000 3740.0000 0 0 0 -2967.6813 3282.6552 L -3129.4847 3400.2122 A 3940.0000 3940.0000 0 0 1 -3689.1204 2301.8653 L -3498.9091 2240.0619 Z" stroke="green" stroke-width="1" fill="none" /><path d="M 509.1380 1886.0242 A 1020.0000 1020.0000 0 0 0 734.7944 1660.3679 L 572.9910 1542.8108 A 820.0000 820.0000 0 0 1 391.5810 1724.2208 L 509.1380 1886.0242 Z" stroke="green" stroke-width="1" fill="none" /><path d="M 2429.7882 4099.9087 A 3980.0000 3980.0000 0 0 0 3310.2906 3219.4063 L 3472.0940 3336.9634 A 4180.0000 4180.0000 0 0 1 2547.3453 4261.7121 L 2429.7882 4099.9087 Z" stroke="green" stroke-width="1" fill="none" /><path d="M 572.3868 397.4330 A 780.0000 780.0000 0 0 0 354.9476 286.6421 L 293.1442 476.8534 A 580.0000 580.0000 0 0 1 454.8298 559.2364 L 572.3868 397.4330 Z" stroke="green" stroke-width="1" fill="none" /><path d="M 2366.5394 -2501.6700 A 4220.0000 4220.0000 0 0 0 1190.1374 -3101.0768 L 1251.9408 -3291.2881 A 4420.0000 4420.0000 0 0 1 2484.0965 -2663.4734 L 2366.5394 -2501.6700 Z" stroke="green" stroke-width="1" fill="none" /></svg>