<svg width="7887" height="8318" viewBox="-4083 -3707 7887 8318" xmlns="http://www.w3.org/2000/svg"><path d="M 104.9940 -548.4406 A 1500.8956 1500.8956 0 0 0 -356.5051 -468.7871 L -275.4471 -285.9495 A 1300.0000 1300.0000 0 0 1 126.2750 -349.5760 L 104.9940 -548.4406 Z" stroke="green" stroke-width="1" fill="none" /><path d="M -104.9940 -2510.7115 A 3498.9276 3498.9276 0 0 0 -1188.5799 -2345.6475 L -1269.6379 -2528.4851 A 3700.0000 3700.0000 0 0 1 -126.2750 -2709.5760 L -104.9940 -2510.7115 Z" stroke="green" stroke-width="1" fill="none" /><path d="M -1250.1515 1262.4764 A 1260.6202 1260.6202 0 0 0 -1066.6722 1610.6241 L -915.6003 1479.5620 A 1060.0000 1060.0000 0 0 1 -1066.1622 1184.0676 L -1250.1515 1262.4764 Z" stroke="green" stroke-width="1" fill="none" /><path d="M -3505.1311 2223.4565 A 3739.2343 3739.2343 0 0 0 -2978.4128 3269.1501 L -3129.4847 3400.2122 A 3940.0000 3940.0000 0 0 1 -3689.1204 2301.8653 L -3505.1311 2223.4565 Z" stroke="green" stroke-width="1" fill="none" /><path d="M 521.0722 1876.6414 A 1020.4426 1020.4426 0 0 0 743.0579 1648.0592 L 572.9910 1542.8108 A 820.0000 820.0000 0 0 1 391.5810 1724.2208 L 521.0722 1876.6414 Z" stroke="green" stroke-width="1" fill="none" /><path d="M 2417.8541 4109.2915 A 3979.4286 3979.4286 0 0 0 3302.0270 3231.7149 L 3472.0940 3336.9634 A 4180.0000 4180.0000 0 0 1 2547.3453 4261.7121 L 2417.8541 4109.2915 Z" stroke="green" stroke-width="1" fill="none" /><path d="M 561.3982 389.9934 A 780.3169 780.3169 0 0 0 342.4623 283.0295 L 293.1442 476.8534 A 580.0000 580.0000 0 0 1 454.8298 559.2364 L 561.3982 389.9934 Z" stroke="green" stroke-width="1" fill="none" /><path d="M 2377.5281 -2494.2305 A 4219.5585 4219.5585 0 0 0 1202.6226 -3097.4642 L 1251.9408 -3291.2881 A 4420.0000 4420.0000 0 0 1 2484.0965 -2663.4734 L 2377.5281 -2494.2305 Z" stroke="green" stroke-width="1" fill="none" /></svg>