0
SECTION
2
ENTITIES
0
LINE
8
PARAMETRIX
10
0.0000
20
0.0000
11
1099.5574
21
0.0000
0
LINE
8
PARAMETRIX
10
1099.5574
20
0.0000
11
1099.5574
21
200.0000
0
LINE
8
PARAMETRIX
10
1099.5574
20
200.0000
11
0.0000
21
200.0000
0
LINE
8
PARAMETRIX
10
0.0000
20
200.0000
11
0.0000
21
0.0000
0
LINE
8
PARAMETRIX
10
1099.5574
20
200.0000
11
2186.5485
21
200.0000
0
LINE
8
PARAMETRIX
10
2186.5485
20
200.0000
11
2186.5485
21
400.0000
0
LINE
8
PARAMETRIX
10
2186.5485
20
400.0000
11
1099.5574
21
400.0000
0
LINE
8
PARAMETRIX
10
1099.5574
20
400.0000
11
1099.5574
21
200.0000
0
LINE
8
PARAMETRIX
10
2186.5485
20
400.0000
11
3260.9732
21
400.0000
0
LINE
8
PARAMETRIX
10
3260.9732
20
400.0000
11
3260.9732
21
600.0000
0
LINE
8
PARAMETRIX
10
3260.9732
20
600.0000
11
2186.5485
21
600.0000
0
LINE
8
PARAMETRIX
10
2186.5485
20
600.0000
11
2186.5485
21
400.0000
0
LINE
8
PARAMETRIX
10
3260.9732
20
600.0000
11
4322.8315
21
600.0000
0
LINE
8
PARAMETRIX
10
4322.8315
20
600.0000
11
4322.8315
21
800.0000
0
LINE
8
PARAMETRIX
10
4322.8315
20
800.0000
11
3260.9732
21
800.0000
0
LINE
8
PARAMETRIX
10
3260.9732
20
800.0000
11
3260.9732
21
600.0000
0
LINE
8
PARAMETRIX
10
4322.8315
20
800.0000
11
5372.1234
21
800.0000
0
LINE
8
PARAMETRIX
10
5372.1234
20
800.0000
11
5372.1234
21
1000.0000
0
LINE
8
PARAMETRIX
10
5372.1234
20
1000.0000
11
4322.8315
21
1000.0000
0
LINE
8
PARAMETRIX
10
4322.8315
20
1000.0000
11
4322.8315
21
800.0000
0
LINE
8
PARAMETRIX
10
5372.1234
20
1000.0000
11
6408.8490
21
1000.0000
0
LINE
8
PARAMETRIX
10
6408.8490
20
1000.0000
11
6408.8490
21
1200.0000
0
LINE
8
PARAMETRIX
10
6408.8490
20
1200.0000
11
5372.1234
21
1200.0000
0
LINE
8
PARAMETRIX
10
5372.1234
20
1200.0000
11
5372.1234
21
1000.0000
0
LINE
8
PARAMETRIX
10
5372.1234
20
0.0000
11
6408.8490
21
0.0000
0
LINE
8
PARAMETRIX
10
6408.8490
20
0.0000
11
6408.8490
21
1000.0000
0
LINE
8
PARAMETRIX
10
6408.8490
20
1000.0000
11
5372.1234
21
1000.0000
0
LINE
8
PARAMETRIX
10
5372.1234
20
1000.0000
11
5372.1234
21
0.0000
0
LINE
8
PARAMETRIX
10
6408.8490
20
1200.0000
11
7433.0082
21
1200.0000
0
LINE
8
PARAMETRIX
10
7433.0082
20
1200.0000
11
7433.0082
21
1400.0000
0
LINE
8
PARAMETRIX
10
7433.0082
20
1400.0000
11
6408.8490
21
1400.0000
0
LINE
8
PARAMETRIX
10
6408.8490
20
1400.0000
11
6408.8490
21
1200.0000
0
LINE
8
PARAMETRIX
10
7433.0082
20
1400.0000
11
8444.6011
21
1400.0000
0
LINE
8
PARAMETRIX
10
8444.6011
20
1400.0000
11
8444.6011
21
1600.0000
0
LINE
8
PARAMETRIX
10
8444.6011
20
1600.0000
11
7433.0082
21
1600.0000
0
LINE
8
PARAMETRIX
10
7433.0082
20
1600.0000
11
7433.0082
21
1400.0000
0
LINE
8
PARAMETRIX
10
8444.6011
20
1600.0000
11
9443.6275
21
1600.0000
0
LINE
8
PARAMETRIX
10
9443.6275
20
1600.0000
11
9443.6275
21
1800.0000
0
LINE
8
PARAMETRIX
10
9443.6275
20
1800.0000
11
8444.6011
21
1800.0000
0
LINE
8
PARAMETRIX
10
8444.6011
20
1800.0000
11
8444.6011
21
1600.0000
0
LINE
8
PARAMETRIX
10
9443.6275
20
1800.0000
11
10430.0876
21
1800.0000
0
LINE
8
PARAMETRIX
10
10430.0876
20
1800.0000
11
10430.0876
21
2000.0000
0
LINE
8
PARAMETRIX
10
10430.0876
20
2000.0000
11
9443.6275
21
2000.0000
0
LINE
8
PARAMETRIX
10
9443.6275
20
2000.0000
11
9443.6275
21
1800.0000
0
LINE
8
PARAMETRIX
10
10430.0876
20
2000.0000
11
11403.9813
21
2000.0000
0
LINE
8
PARAMETRIX
10
11403.9813
20
2000.0000
11
11403.9813
21
2200.0000
0
LINE
8
PARAMETRIX
10
11403.9813
20
2200.0000
11
10430.0876
21
2200.0000
0
LINE
8
PARAMETRIX
10
10430.0876
20
2200.0000
11
10430.0876
21
2000.0000
0
LINE
8
PARAMETRIX
10
11403.9813
20
2200.0000
11
12365.3087
21
2200.0000
0
LINE
8
PARAMETRIX
10
12365.3087
20
2200.0000
11
12365.3087
21
2400.0000
0
LINE
8
PARAMETRIX
10
12365.3087
20
2400.0000
11
11403.9813
21
2400.0000
0
LINE
8
PARAMETRIX
10
11403.9813
20
2400.0000
11
11403.9813
21
2200.0000
0
LINE
8
PARAMETRIX
10
11403.9813
20
0.0000
11
12365.3087
21
0.0000
0
LINE
8
PARAMETRIX
10
12365.3087
20
0.0000
11
12365.3087
21
2200.0000
0
LINE
8
PARAMETRIX
10
12365.3087
20
2200.0000
11
11403.9813
21
2200.0000
0
LINE
8
PARAMETRIX
10
11403.9813
20
2200.0000
11
11403.9813
21
0.0000
0
LINE
8
PARAMETRIX
10
12365.3087
20
2400.0000
11
13314.0697
21
2400.0000
0
LINE
8
PARAMETRIX
10
13314.0697
20
2400.0000
11
13314.0697
21
2600.0000
0
LINE
8
PARAMETRIX
10
13314.0697
20
2600.0000
11
12365.3087
21
2600.0000
0
LINE
8
PARAMETRIX
10
12365.3087
20
2600.0000
11
12365.3087
21
2400.0000
0
LINE
8
PARAMETRIX
10
13314.0697
20
2600.0000
11
14250.2643
21
2600.0000
0
LINE
8
PARAMETRIX
10
14250.2643
20
2600.0000
11
14250.2643
21
2800.0000
0
LINE
8
PARAMETRIX
10
14250.2643
20
2800.0000
11
13314.0697
21
2800.0000
0
LINE
8
PARAMETRIX
10
13314.0697
20
2800.0000
11
13314.0697
21
2600.0000
0
LINE
8
PARAMETRIX
10
14250.2643
20
2800.0000
11
15173.8925
21
2800.0000
0
LINE
8
PARAMETRIX
10
15173.8925
20
2800.0000
11
15173.8925
21
3000.0000
0
LINE
8
PARAMETRIX
10
15173.8925
20
3000.0000
11
14250.2643
21
3000.0000
0
LINE
8
PARAMETRIX
10
14250.2643
20
3000.0000
11
14250.2643
21
2800.0000
0
LINE
8
PARAMETRIX
10
15173.8925
20
3000.0000
11
16084.9544
21
3000.0000
0
LINE
8
PARAMETRIX
10
16084.9544
20
3000.0000
11
16084.9544
21
3200.0000
0
LINE
8
PARAMETRIX
10
16084.9544
20
3200.0000
11
15173.8925
21
3200.0000
0
LINE
8
PARAMETRIX
10
15173.8925
20
3200.0000
11
15173.8925
21
3000.0000
0
LINE
8
PARAMETRIX
10
16084.9544
20
3200.0000
11
16983.4499
21
3200.0000
0
LINE
8
PARAMETRIX
10
16983.4499
20
3200.0000
11
16983.4499
21
3400.0000
0
LINE
8
PARAMETRIX
10
16983.4499
20
3400.0000
11
16084.9544
21
3400.0000
0
LINE
8
PARAMETRIX
10
16084.9544
20
3400.0000
11
16084.9544
21
3200.0000
0
LINE
8
PARAMETRIX
10
16983.4499
20
3400.0000
11
17869.3790
21
3400.0000
0
LINE
8
PARAMETRIX
10
17869.3790
20
3400.0000
11
17869.3790
21
3600.0000
0
LINE
8
PARAMETRIX
10
17869.3790
20
3600.0000
11
16983.4499
21
3600.0000
0
LINE
8
PARAMETRIX
10
16983.4499
20
3600.0000
11
16983.4499
21
3400.0000
0
LINE
8
PARAMETRIX
10
16983.4499
20
0.0000
11
17869.3790
21
0.0000
0
LINE
8
PARAMETRIX
10
17869.3790
20
0.0000
11
17869.3790
21
3400.0000
0
LINE
8
PARAMETRIX
10
17869.3790
20
3400.0000
11
16983.4499
21
3400.0000
0
LINE
8
PARAMETRIX
10
16983.4499
20
3400.0000
11
16983.4499
21
0.0000
0
LINE
8
PARAMETRIX
10
17869.3790
20
3600.0000
11
18742.7418
21
3600.0000
0
LINE
8
PARAMETRIX
10
18742.7418
20
3600.0000
11
18742.7418
21
3800.0000
0
LINE
8
PARAMETRIX
10
18742.7418
20
3800.0000
11
17869.3790
21
3800.0000
0
LINE
8
PARAMETRIX
10
17869.3790
20
3800.0000
11
17869.3790
21
3600.0000
0
LINE
8
PARAMETRIX
10
18742.7418
20
3800.0000
11
19603.5382
21
3800.0000
0
LINE
8
PARAMETRIX
10
19603.5382
20
3800.0000
11
19603.5382
21
4000.0000
0
LINE
8
PARAMETRIX
10
19603.5382
20
4000.0000
11
18742.7418
21
4000.0000
0
LINE
8
PARAMETRIX
10
18742.7418
20
4000.0000
11
18742.7418
21
3800.0000
0
LINE
8
PARAMETRIX
10
19603.5382
20
4000.0000
11
20451.7682
21
4000.0000
0
LINE
8
PARAMETRIX
10
20451.7682
20
4000.0000
11
20451.7682
21
4200.0000
0
LINE
8
PARAMETRIX
10
20451.7682
20
4200.0000
11
19603.5382
21
4200.0000
0
LINE
8
PARAMETRIX
10
19603.5382
20
4200.0000
11
19603.5382
21
4000.0000
0
LINE
8
PARAMETRIX
10
20451.7682
20
4200.0000
11
21287.4318
21
4200.0000
0
LINE
8
PARAMETRIX
10
21287.4318
20
4200.0000
11
21287.4318
21
4400.0000
0
LINE
8
PARAMETRIX
10
21287.4318
20
4400.0000
11
20451.7682
21
4400.0000
0
LINE
8
PARAMETRIX
10
20451.7682
20
4400.0000
11
20451.7682
21
4200.0000
0
LINE
8
PARAMETRIX
10
21287.4318
20
4400.0000
11
22110.5291
21
4400.0000
0
LINE
8
PARAMETRIX
10
22110.5291
20
4400.0000
11
22110.5291
21
4600.0000
0
LINE
8
PARAMETRIX
10
22110.5291
20
4600.0000
11
21287.4318
21
4600.0000
0
LINE
8
PARAMETRIX
10
21287.4318
20
4600.0000
11
21287.4318
21
4400.0000
0
LINE
8
PARAMETRIX
10
22110.5291
20
4600.0000
11
22921.0600
21
4600.0000
0
LINE
8
PARAMETRIX
10
22921.0600
20
4600.0000
11
22921.0600
21
4800.0000
0
LINE
8
PARAMETRIX
10
22921.0600
20
4800.0000
11
22110.5291
21
4800.0000
0
LINE
8
PARAMETRIX
10
22110.5291
20
4800.0000
11
22110.5291
21
4600.0000
0
LINE
8
PARAMETRIX
10
22110.5291
20
0.0000
11
22921.0600
21
0.0000
0
LINE
8
PARAMETRIX
10
22921.0600
20
0.0000
11
22921.0600
21
4600.0000
0
LINE
8
PARAMETRIX
10
22921.0600
20
4600.0000
11
22110.5291
21
4600.0000
0
LINE
8
PARAMETRIX
10
22110.5291
20
4600.0000
11
22110.5291
21
0.0000
0
LINE
8
PARAMETRIX
10
22921.0600
20
4800.0000
11
23719.0245
21
4800.0000
0
LINE
8
PARAMETRIX
10
23719.0245
20
4800.0000
11
23719.0245
21
5000.0000
0
LINE
8
PARAMETRIX
10
23719.0245
20
5000.0000
11
22921.0600
21
5000.0000
0
LINE
8
PARAMETRIX
10
22921.0600
20
5000.0000
11
22921.0600
21
4800.0000
0
ENDSEC
0
EOF
