0
SECTION
2
ENTITIES
0
ARC
8
PARAMETRIX
10
126.3946
20
18.1215
40
1500.8956
50
90.8170
51
108.7682
0
LINE
8
PARAMETRIX
10
-356.5051
20
1439.2111
11
-275.4471
21
1256.3735
0
ARC
8
PARAMETRIX
10
126.2750
20
20.0000
40
1300.0000
50
90.0000
51
108.0000
0
LINE
8
PARAMETRIX
10
126.2750
20
1320.0000
11
104.9940
21
1518.8646
0
ARC
8
PARAMETRIX
10
-126.3732
20
-17.7269
40
3498.9276
50
89.6499
51
107.6728
0
LINE
8
PARAMETRIX
10
-1188.5799
20
3316.0715
11
-1269.6379
21
3498.9091
0
ARC
8
PARAMETRIX
10
-126.2750
20
-20.0000
40
3700.0000
50
90.0000
51
108.0000
0
LINE
8
PARAMETRIX
10
-126.2750
20
3680.0000
11
-104.9940
21
3481.1354
0
ARC
8
PARAMETRIX
10
-56.8572
20
114.4103
40
1260.6202
50
198.8100
51
216.7699
0
LINE
8
PARAMETRIX
10
-1066.6722
20
-640.2001
11
-915.6003
21
-509.1380
0
ARC
8
PARAMETRIX
10
-58.0423
20
113.9144
40
1060.0000
50
198.0000
51
216.0000
0
LINE
8
PARAMETRIX
10
-1066.1622
20
-213.6437
11
-1250.1515
21
-292.0524
0
ARC
8
PARAMETRIX
10
56.5572
20
-114.5032
40
3739.2343
50
197.7270
51
215.7420
0
LINE
8
PARAMETRIX
10
-2978.4128
20
-2298.7261
11
-3129.4847
21
-2429.7882
0
ARC
8
PARAMETRIX
10
58.0423
20
-113.9144
40
3940.0000
50
198.0000
51
216.0000
0
LINE
8
PARAMETRIX
10
-3689.1204
20
-1331.4413
11
-3505.1311
21
-1253.0326
0
ARC
8
PARAMETRIX
10
-91.0052
20
-89.7223
40
1020.4426
50
306.8567
51
324.8208
0
LINE
8
PARAMETRIX
10
743.0579
20
-677.6353
11
572.9910
21
-572.3868
0
ARC
8
PARAMETRIX
10
-90.4029
20
-90.4029
40
820.0000
50
306.0000
51
324.0000
0
LINE
8
PARAMETRIX
10
391.5810
20
-753.7969
11
521.0722
21
-906.2174
0
ARC
8
PARAMETRIX
10
91.1685
20
89.5045
40
3979.4286
50
305.7803
51
323.7907
0
LINE
8
PARAMETRIX
10
3302.0270
20
-2261.2910
11
3472.0940
21
-2366.5394
0
ARC
8
PARAMETRIX
10
90.4029
20
90.4029
40
4180.0000
50
306.0000
51
324.0000
0
LINE
8
PARAMETRIX
10
2547.3453
20
-3291.2881
11
2417.8541
21
-3138.8675
0
ARC
8
PARAMETRIX
10
113.5926
20
-58.6036
40
780.3169
50
54.9790
51
72.9442
0
LINE
8
PARAMETRIX
10
342.4623
20
687.3945
11
293.1442
21
493.5705
0
ARC
8
PARAMETRIX
10
113.9144
20
-58.0423
40
580.0000
50
54.0000
51
72.0000
0
LINE
8
PARAMETRIX
10
454.8298
20
411.1876
11
561.3982
21
580.4305
0
ARC
8
PARAMETRIX
10
-113.4480
20
58.8194
40
4219.5585
50
53.8188
51
71.8264
0
LINE
8
PARAMETRIX
10
1202.6226
20
4067.8881
11
1251.9408
21
4261.7121
0
ARC
8
PARAMETRIX
10
-113.9144
20
58.0423
40
4420.0000
50
54.0000
51
72.0000
0
LINE
8
PARAMETRIX
10
2484.0965
20
3633.8974
11
2377.5281
21
3464.6544
0
ENDSEC
0
EOF
