<svg width="26101" height="5510" viewBox="-1305 -275 26101 5510" xmlns="http://www.w3.org/2000/svg"><path d="M 0.0000 5000.0000 L 1099.5574 5000.0000 L 1099.5574 4800.0000 L 0.0000 4800.0000 L 0.0000 5000.0000 Z" stroke="green" stroke-width="1" fill="none" /><path d="M 1099.5574 4800.0000 L 2186.5485 4800.0000 L 2186.5485 4600.0000 L 1099.5574 4600.0000 L 1099.5574 4800.0000 Z" stroke="green" stroke-width="1" fill="none" /><path d="M 2186.5485 4600.0000 L 3260.9732 4600.0000 L 3260.9732 4400.0000 L 2186.5485 4400.0000 L 2186.5485 4600.0000 Z" stroke="green" stroke-width="1" fill="none" /><path d="M 3260.9732 4400.0000 L 4322.8315 4400.0000 L 4322.8315 4200.0000 L 3260.9732 4200.0000 L 3260.9732 4400.0000 Z" stroke="green" stroke-width="1" fill="none" /><path d="M 4322.8315 4200.0000 L 5372.1234 4200.0000 L 5372.1234 4000.0000 L 4322.8315 4000.0000 L 4322.8315 4200.0000 Z" stroke="green" stroke-width="1" fill="none" /><path d="M 5372.1234 4000.0000 L 6408.8490 4000.0000 L 6408.8490 3800.0000 L 5372.1234 3800.0000 L 5372.1234 4000.0000 Z" stroke="green" stroke-width="1" fill="none" /><path d="M 5372.1234 5000.0000 L 6408.8490 5000.0000 L 6408.8490 4000.0000 L 5372.1234 4000.0000 L 5372.1234 5000.0000 Z" stroke="green" stroke-width="1" fill="none" /><path d="M 6408.8490 3800.0000 L 7433.0082 3800.0000 L 7433.0082 3600.0000 L 6408.8490 3600.0000 L 6408.8490 3800.0000 Z" stroke="green" stroke-width="1" fill="none" /><path d="M 7433.0082 3600.0000 L 8444.6011 3600.0000 L 8444.6011 3400.0000 L 7433.0082 3400.0000 L 7433.0082 3600.0000 Z" stroke="green" stroke-width="1" fill="none" /><path d="M 8444.6011 3400.0000 L 9443.6275 3400.0000 L 9443.6275 3200.0000 L 8444.6011 3200.0000 L 8444.6011 3400.0000 Z" stroke="green" stroke-width="1" fill="none" /><path d="M 9443.6275 3200.0000 L 10430.0876 3200.0000 L 10430.0876 3000.0000 L 9443.6275 3000.0000 L 9443.6275 3200.0000 Z" stroke="green" stroke-width="1" fill="none" /><path d="M 10430.0876 3000.0000 L 11403.9813 3000.0000 L 11403.9813 2800.0000 L 10430.0876 2800.0000 L 10430.0876 3000.0000 Z" stroke="green" stroke-width="1" fill="none" /><path d="M 11403.9813 2800.0000 L 12365.3087 2800.0000 L 12365.3087 2600.0000 L 11403.9813 2600.0000 L 11403.9813 2800.0000 Z" stroke="green" stroke-width="1" fill="none" /><path d="M 11403.9813 5000.0000 L 12365.3087 5000.0000 L 12365.3087 2800.0000 L 11403.9813 2800.0000 L 11403.9813 5000.0000 Z" stroke="green" stroke-width="1" fill="none" /><path d="M 12365.3087 2600.0000 L 13314.0697 2600.0000 L 13314.0697 2400.0000 L 12365.3087 2400.0000 L 12365.3087 2600.0000 Z" stroke="green" stroke-width="1" fill="none" /><path d="M 13314.0697 2400.0000 L 14250.2643 2400.0000 L 14250.2643 2200.0000 L 13314.0697 2200.0000 L 13314.0697 2400.0000 Z" stroke="green" stroke-width="1" fill="none" /><path d="M 14250.2643 2200.0000 L 15173.8925 2200.0000 L 15173.8925 2000.0000 L 14250.2643 2000.0000 L 14250.2643 2200.0000 Z" stroke="green" stroke-width="1" fill="none" /><path d="M 15173.8925 2000.0000 L 16084.9544 2000.0000 L 16084.9544 1800.0000 L 15173.8925 1800.0000 L 15173.8925 2000.0000 Z" stroke="green" stroke-width="1" fill="none" /><path d="M 16084.9544 1800.0000 L 16983.4499 1800.0000 L 16983.4499 1600.0000 L 16084.9544 1600.0000 L 16084.9544 1800.0000 Z" stroke="green" stroke-width="1" fill="none" /><path d="M 16983.4499 1600.0000 L 17869.3790 1600.0000 L 17869.3790 1400.0000 L 16983.4499 1400.0000 L 16983.4499 1600.0000 Z" stroke="green" stroke-width="1" fill="none" /><path d="M 16983.4499 5000.0000 L 17869.3790 5000.0000 L 17869.3790 1600.0000 L 16983.4499 1600.0000 L 16983.4499 5000.0000 Z" stroke="green" stroke-width="1" fill="none" /><path d="M 17869.3790 1400.0000 L 18742.7418 1400.0000 L 18742.7418 1200.0000 L 17869.3790 1200.0000 L 17869.3790 1400.0000 Z" stroke="green" stroke-width="1" fill="none" /><path d="M 18742.7418 1200.0000 L 19603.5382 1200.0000 L 19603.5382 1000.0000 L 18742.7418 1000.0000 L 18742.7418 1200.0000 Z" stroke="green" stroke-width="1" fill="none" /><path d="M 19603.5382 1000.0000 L 20451.7682 1000.0000 L 20451.7682 800.0000 L 19603.5382 800.0000 L 19603.5382 1000.0000 Z" stroke="green" stroke-width="1" fill="none" /><path d="M 20451.7682 800.0000 L 21287.4318 800.0000 L 21287.4318 600.0000 L 20451.7682 600.0000 L 20451.7682 800.0000 Z" stroke="green" stroke-width="1" fill="none" /><path d="M 21287.4318 600.0000 L 22110.5291 600.0000 L 22110.5291 400.0000 L 21287.4318 400.0000 L 21287.4318 600.0000 Z" stroke="green" stroke-width="1" fill="none" /><path d="M 22110.5291 400.0000 L 22921.0600 400.0000 L 22921.0600 200.0000 L 22110.5291 200.0000 L 22110.5291 400.0000 Z" stroke="green" stroke-width="1" fill="none" /><path d="M 22110.5291 5000.0000 L 22921.0600 5000.0000 L 22921.0600 400.0000 L 22110.5291 400.0000 L 22110.5291 5000.0000 Z" stroke="green" stroke-width="1" fill="none" /><path d="M 22921.0600 200.0000 L 23719.0245 200.0000 L 23719.0245 0.0000 L 22921.0600 0.0000 L 22921.0600 200.0000 Z" stroke="green" stroke-width="1" fill="none" /></svg>