0
SECTION
2
ENTITIES
0
LINE
8
PARAMETRIX
10
0.0000
20
0.0000
11
471.2389
21
0.0000
0
LINE
8
PARAMETRIX
10
471.2389
20
0.0000
11
471.2389
21
200.0000
0
LINE
8
PARAMETRIX
10
471.2389
20
200.0000
11
0.0000
21
200.0000
0
LINE
8
PARAMETRIX
10
0.0000
20
200.0000
11
0.0000
21
0.0000
0
LINE
8
PARAMETRIX
10
471.2389
20
200.0000
11
929.9114
21
200.0000
0
LINE
8
PARAMETRIX
10
929.9114
20
200.0000
11
929.9114
21
400.0000
0
LINE
8
PARAMETRIX
10
929.9114
20
400.0000
11
471.2389
21
400.0000
0
LINE
8
PARAMETRIX
10
471.2389
20
400.0000
11
471.2389
21
200.0000
0
LINE
8
PARAMETRIX
10
929.9114
20
400.0000
11
1376.0176
21
400.0000
0
LINE
8
PARAMETRIX
10
1376.0176
20
400.0000
11
1376.0176
21
600.0000
0
LINE
8
PARAMETRIX
10
1376.0176
20
600.0000
11
929.9114
21
600.0000
0
LINE
8
PARAMETRIX
10
929.9114
20
600.0000
11
929.9114
21
400.0000
0
LINE
8
PARAMETRIX
10
1376.0176
20
600.0000
11
1809.5574
21
600.0000
0
LINE
8
PARAMETRIX
10
1809.5574
20
600.0000
11
1809.5574
21
800.0000
0
LINE
8
PARAMETRIX
10
1809.5574
20
800.0000
11
1376.0176
21
800.0000
0
LINE
8
PARAMETRIX
10
1376.0176
20
800.0000
11
1376.0176
21
600.0000
0
LINE
8
PARAMETRIX
10
1809.5574
20
800.0000
11
2230.5308
21
800.0000
0
LINE
8
PARAMETRIX
10
2230.5308
20
800.0000
11
2230.5308
21
1000.0000
0
LINE
8
PARAMETRIX
10
2230.5308
20
1000.0000
11
1809.5574
21
1000.0000
0
LINE
8
PARAMETRIX
10
1809.5574
20
1000.0000
11
1809.5574
21
800.0000
0
LINE
8
PARAMETRIX
10
2230.5308
20
1000.0000
11
2638.9378
21
1000.0000
0
LINE
8
PARAMETRIX
10
2638.9378
20
1000.0000
11
2638.9378
21
1200.0000
0
LINE
8
PARAMETRIX
10
2638.9378
20
1200.0000
11
2230.5308
21
1200.0000
0
LINE
8
PARAMETRIX
10
2230.5308
20
1200.0000
11
2230.5308
21
1000.0000
0
LINE
8
PARAMETRIX
10
2230.5308
20
0.0000
11
2638.9378
21
0.0000
0
LINE
8
PARAMETRIX
10
2638.9378
20
0.0000
11
2638.9378
21
1000.0000
0
LINE
8
PARAMETRIX
10
2638.9378
20
1000.0000
11
2230.5308
21
1000.0000
0
LINE
8
PARAMETRIX
10
2230.5308
20
1000.0000
11
2230.5308
21
0.0000
0
LINE
8
PARAMETRIX
10
2638.9378
20
1200.0000
11
3034.7785
21
1200.0000
0
LINE
8
PARAMETRIX
10
3034.7785
20
1200.0000
11
3034.7785
21
1400.0000
0
LINE
8
PARAMETRIX
10
3034.7785
20
1400.0000
11
2638.9378
21
1400.0000
0
LINE
8
PARAMETRIX
10
2638.9378
20
1400.0000
11
2638.9378
21
1200.0000
0
LINE
8
PARAMETRIX
10
3034.7785
20
1400.0000
11
3418.0528
21
1400.0000
0
LINE
8
PARAMETRIX
10
3418.0528
20
1400.0000
11
3418.0528
21
1600.0000
0
LINE
8
PARAMETRIX
10
3418.0528
20
1600.0000
11
3034.7785
21
1600.0000
0
LINE
8
PARAMETRIX
10
3034.7785
20
1600.0000
11
3034.7785
21
1400.0000
0
LINE
8
PARAMETRIX
10
3418.0528
20
1600.0000
11
3788.7607
21
1600.0000
0
LINE
8
PARAMETRIX
10
3788.7607
20
1600.0000
11
3788.7607
21
1800.0000
0
LINE
8
PARAMETRIX
10
3788.7607
20
1800.0000
11
3418.0528
21
1800.0000
0
LINE
8
PARAMETRIX
10
3418.0528
20
1800.0000
11
3418.0528
21
1600.0000
0
LINE
8
PARAMETRIX
10
3788.7607
20
1800.0000
11
4146.9023
21
1800.0000
0
LINE
8
PARAMETRIX
10
4146.9023
20
1800.0000
11
4146.9023
21
2000.0000
0
LINE
8
PARAMETRIX
10
4146.9023
20
2000.0000
11
3788.7607
21
2000.0000
0
LINE
8
PARAMETRIX
10
3788.7607
20
2000.0000
11
3788.7607
21
1800.0000
0
LINE
8
PARAMETRIX
10
4146.9023
20
2000.0000
11
4492.4775
21
2000.0000
0
LINE
8
PARAMETRIX
10
4492.4775
20
2000.0000
11
4492.4775
21
2200.0000
0
LINE
8
PARAMETRIX
10
4492.4775
20
2200.0000
11
4146.9023
21
2200.0000
0
LINE
8
PARAMETRIX
10
4146.9023
20
2200.0000
11
4146.9023
21
2000.0000
0
LINE
8
PARAMETRIX
10
4492.4775
20
2200.0000
11
4825.4863
21
2200.0000
0
LINE
8
PARAMETRIX
10
4825.4863
20
2200.0000
11
4825.4863
21
2400.0000
0
LINE
8
PARAMETRIX
10
4825.4863
20
2400.0000
11
4492.4775
21
2400.0000
0
LINE
8
PARAMETRIX
10
4492.4775
20
2400.0000
11
4492.4775
21
2200.0000
0
LINE
8
PARAMETRIX
10
4492.4775
20
0.0000
11
4825.4863
21
0.0000
0
LINE
8
PARAMETRIX
10
4825.4863
20
0.0000
11
4825.4863
21
2200.0000
0
LINE
8
PARAMETRIX
10
4825.4863
20
2200.0000
11
4492.4775
21
2200.0000
0
LINE
8
PARAMETRIX
10
4492.4775
20
2200.0000
11
4492.4775
21
0.0000
0
LINE
8
PARAMETRIX
10
4825.4863
20
2400.0000
11
5145.9288
21
2400.0000
0
LINE
8
PARAMETRIX
10
5145.9288
20
2400.0000
11
5145.9288
21
2600.0000
0
LINE
8
PARAMETRIX
10
5145.9288
20
2600.0000
11
4825.4863
21
2600.0000
0
LINE
8
PARAMETRIX
10
4825.4863
20
2600.0000
11
4825.4863
21
2400.0000
0
LINE
8
PARAMETRIX
10
5145.9288
20
2600.0000
11
5453.8048
21
2600.0000
0
LINE
8
PARAMETRIX
10
5453.8048
20
2600.0000
11
5453.8048
21
2800.0000
0
LINE
8
PARAMETRIX
10
5453.8048
20
2800.0000
11
5145.9288
21
2800.0000
0
LINE
8
PARAMETRIX
10
5145.9288
20
2800.0000
11
5145.9288
21
2600.0000
0
LINE
8
PARAMETRIX
10
5453.8048
20
2800.0000
11
5749.1146
21
2800.0000
0
LINE
8
PARAMETRIX
10
5749.1146
20
2800.0000
11
5749.1146
21
3000.0000
0
LINE
8
PARAMETRIX
10
5749.1146
20
3000.0000
11
5453.8048
21
3000.0000
0
LINE
8
PARAMETRIX
10
5453.8048
20
3000.0000
11
5453.8048
21
2800.0000
0
LINE
8
PARAMETRIX
10
5749.1146
20
3000.0000
11
6031.8579
21
3000.0000
0
LINE
8
PARAMETRIX
10
6031.8579
20
3000.0000
11
6031.8579
21
3200.0000
0
LINE
8
PARAMETRIX
10
6031.8579
20
3200.0000
11
5749.1146
21
3200.0000
0
LINE
8
PARAMETRIX
10
5749.1146
20
3200.0000
11
5749.1146
21
3000.0000
0
LINE
8
PARAMETRIX
10
6031.8579
20
3200.0000
11
6302.0349
21
3200.0000
0
LINE
8
PARAMETRIX
10
6302.0349
20
3200.0000
11
6302.0349
21
3400.0000
0
LINE
8
PARAMETRIX
10
6302.0349
20
3400.0000
11
6031.8579
21
3400.0000
0
LINE
8
PARAMETRIX
10
6031.8579
20
3400.0000
11
6031.8579
21
3200.0000
0
LINE
8
PARAMETRIX
10
6302.0349
20
3400.0000
11
6559.6455
21
3400.0000
0
LINE
8
PARAMETRIX
10
6559.6455
20
3400.0000
11
6559.6455
21
3600.0000
0
LINE
8
PARAMETRIX
10
6559.6455
20
3600.0000
11
6302.0349
21
3600.0000
0
LINE
8
PARAMETRIX
10
6302.0349
20
3600.0000
11
6302.0349
21
3400.0000
0
LINE
8
PARAMETRIX
10
6302.0349
20
0.0000
11
6559.6455
21
0.0000
0
LINE
8
PARAMETRIX
10
6559.6455
20
0.0000
11
6559.6455
21
3400.0000
0
LINE
8
PARAMETRIX
10
6559.6455
20
3400.0000
11
6302.0349
21
3400.0000
0
LINE
8
PARAMETRIX
10
6302.0349
20
3400.0000
11
6302.0349
21
0.0000
0
LINE
8
PARAMETRIX
10
6559.6455
20
3600.0000
11
6804.6897
21
3600.0000
0
LINE
8
PARAMETRIX
10
6804.6897
20
3600.0000
11
6804.6897
21
3800.0000
0
LINE
8
PARAMETRIX
10
6804.6897
20
3800.0000
11
6559.6455
21
3800.0000
0
LINE
8
PARAMETRIX
10
6559.6455
20
3800.0000
11
6559.6455
21
3600.0000
0
LINE
8
PARAMETRIX
10
6804.6897
20
3800.0000
11
7037.1675
21
3800.0000
0
LINE
8
PARAMETRIX
10
7037.1675
20
3800.0000
11
7037.1675
21
4000.0000
0
LINE
8
PARAMETRIX
10
7037.1675
20
4000.0000
11
6804.6897
21
4000.0000
0
LINE
8
PARAMETRIX
10
6804.6897
20
4000.0000
11
6804.6897
21
3800.0000
0
LINE
8
PARAMETRIX
10
7037.1675
20
4000.0000
11
7257.0790
21
4000.0000
0
LINE
8
PARAMETRIX
10
7257.0790
20
4000.0000
11
7257.0790
21
4200.0000
0
LINE
8
PARAMETRIX
10
7257.0790
20
4200.0000
11
7037.1675
21
4200.0000
0
LINE
8
PARAMETRIX
10
7037.1675
20
4200.0000
11
7037.1675
21
4000.0000
0
LINE
8
PARAMETRIX
10
7257.0790
20
4200.0000
11
7464.4241
21
4200.0000
0
LINE
8
PARAMETRIX
10
7464.4241
20
4200.0000
11
7464.4241
21
4400.0000
0
LINE
8
PARAMETRIX
10
7464.4241
20
4400.0000
11
7257.0790
21
4400.0000
0
LINE
8
PARAMETRIX
10
7257.0790
20
4400.0000
11
7257.0790
21
4200.0000
0
LINE
8
PARAMETRIX
10
7464.4241
20
4400.0000
11
7659.2029
21
4400.0000
0
LINE
8
PARAMETRIX
10
7659.2029
20
4400.0000
11
7659.2029
21
4600.0000
0
LINE
8
PARAMETRIX
10
7659.2029
20
4600.0000
11
7464.4241
21
4600.0000
0
LINE
8
PARAMETRIX
10
7464.4241
20
4600.0000
11
7464.4241
21
4400.0000
0
LINE
8
PARAMETRIX
10
7659.2029
20
4600.0000
11
7841.4153
21
4600.0000
0
LINE
8
PARAMETRIX
10
7841.4153
20
4600.0000
11
7841.4153
21
4800.0000
0
LINE
8
PARAMETRIX
10
7841.4153
20
4800.0000
11
7659.2029
21
4800.0000
0
LINE
8
PARAMETRIX
10
7659.2029
20
4800.0000
11
7659.2029
21
4600.0000
0
LINE
8
PARAMETRIX
10
7659.2029
20
0.0000
11
7841.4153
21
0.0000
0
LINE
8
PARAMETRIX
10
7841.4153
20
0.0000
11
7841.4153
21
4600.0000
0
LINE
8
PARAMETRIX
10
7841.4153
20
4600.0000
11
7659.2029
21
4600.0000
0
LINE
8
PARAMETRIX
10
7659.2029
20
4600.0000
11
7659.2029
21
0.0000
0
LINE
8
PARAMETRIX
10
7841.4153
20
4800.0000
11
8011.0613
21
4800.0000
0
LINE
8
PARAMETRIX
10
8011.0613
20
4800.0000
11
8011.0613
21
5000.0000
0
LINE
8
PARAMETRIX
10
8011.0613
20
5000.0000
11
7841.4153
21
5000.0000
0
LINE
8
PARAMETRIX
10
7841.4153
20
5000.0000
11
7841.4153
21
4800.0000
0
ENDSEC
0
EOF
