<svg width="8822" height="5510" viewBox="-441 -275 8822 5510" xmlns="http://www.w3.org/2000/svg"><path d="M 0.0000 5000.0000 L 471.2389 5000.0000 L 471.2389 4800.0000 L 0.0000 4800.0000 L 0.0000 5000.0000 Z" stroke="green" stroke-width="1" fill="none" /><path d="M 471.2389 4800.0000 L 929.9114 4800.0000 L 929.9114 4600.0000 L 471.2389 4600.0000 L 471.2389 4800.0000 Z" stroke="green" stroke-width="1" fill="none" /><path d="M 929.9114 4600.0000 L 1376.0176 4600.0000 L 1376.0176 4400.0000 L 929.9114 4400.0000 L 929.9114 4600.0000 Z" stroke="green" stroke-width="1" fill="none" /><path d="M 1376.0176 4400.0000 L 1809.5574 4400.0000 L 1809.5574 4200.0000 L 1376.0176 4200.0000 L 1376.0176 4400.0000 Z" stroke="green" stroke-width="1" fill="none" /><path d="M 1809.5574 4200.0000 L 2230.5308 4200.0000 L 2230.5308 4000.0000 L 1809.5574 4000.0000 L 1809.5574 4200.0000 Z" stroke="green" stroke-width="1" fill="none" /><path d="M 2230.5308 4000.0000 L 2638.9378 4000.0000 L 2638.9378 3800.0000 L 2230.5308 3800.0000 L 2230.5308 4000.0000 Z" stroke="green" stroke-width="1" fill="none" /><path d="M 2230.5308 5000.0000 L 2638.9378 5000.0000 L 2638.9378 4000.0000 L 2230.5308 4000.0000 L 2230.5308 5000.0000 Z" stroke="green" stroke-width="1" fill="none" /><path d="M 2638.9378 3800.0000 L 3034.7785 3800.0000 L 3034.7785 3600.0000 L 2638.9378 3600.0000 L 2638.9378 3800.0000 Z" stroke="green" stroke-width="1" fill="none" /><path d="M 3034.7785 3600.0000 L 3418.0528 3600.0000 L 3418.0528 3400.0000 L 3034.7785 3400.0000 L 3034.7785 3600.0000 Z" stroke="green" stroke-width="1" fill="none" /><path d="M 3418.0528 3400.0000 L 3788.7607 3400.0000 L 3788.7607 3200.0000 L 3418.0528 3200.0000 L 3418.0528 3400.0000 Z" stroke="green" stroke-width="1" fill="none" /><path d="M 3788.7607 3200.0000 L 4146.9023 3200.0000 L 4146.9023 3000.0000 L 3788.7607 3000.0000 L 3788.7607 3200.0000 Z" stroke="green" stroke-width="1" fill="none" /><path d="M 4146.9023 3000.0000 L 4492.4775 3000.0000 L 4492.4775 2800.0000 L 4146.9023 2800.0000 L 4146.9023 3000.0000 Z" stroke="green" stroke-width="1" fill="none" /><path d="M 4492.4775 2800.0000 L 4825.4863 2800.0000 L 4825.4863 2600.0000 L 4492.4775 2600.0000 L 4492.4775 2800.0000 Z" stroke="green" stroke-width="1" fill="none" /><path d="M 4492.4775 5000.0000 L 4825.4863 5000.0000 L 4825.4863 2800.0000 L 4492.4775 2800.0000 L 4492.4775 5000.0000 Z" stroke="green" stroke-width="1" fill="none" /><path d="M 4825.4863 2600.0000 L 5145.9288 2600.0000 L 5145.9288 2400.0000 L 4825.4863 2400.0000 L 4825.4863 2600.0000 Z" stroke="green" stroke-width="1" fill="none" /><path d="M 5145.9288 2400.0000 L 5453.8048 2400.0000 L 5453.8048 2200.0000 L 5145.9288 2200.0000 L 5145.9288 2400.0000 Z" stroke="green" stroke-width="1" fill="none" /><path d="M 5453.8048 2200.0000 L 5749.1146 2200.0000 L 5749.1146 2000.0000 L 5453.8048 2000.0000 L 5453.8048 2200.0000 Z" stroke="green" stroke-width="1" fill="none" /><path d="M 5749.1146 2000.0000 L 6031.8579 2000.0000 L 6031.8579 1800.0000 L 5749.1146 1800.0000 L 5749.1146 2000.0000 Z" stroke="green" stroke-width="1" fill="none" /><path d="M 6031.8579 1800.0000 L 6302.0349 1800.0000 L 6302.0349 1600.0000 L 6031.8579 1600.0000 L 6031.8579 1800.0000 Z" stroke="green" stroke-width="1" fill="none" /><path d="M 6302.0349 1600.0000 L 6559.6455 1600.0000 L 6559.6455 1400.0000 L 6302.0349 1400.0000 L 6302.0349 1600.0000 Z" stroke="green" stroke-width="1" fill="none" /><path d="M 6302.0349 5000.0000 L 6559.6455 5000.0000 L 6559.6455 1600.0000 L 6302.0349 1600.0000 L 6302.0349 5000.0000 Z" stroke="green" stroke-width="1" fill="none" /><path d="M 6559.6455 1400.0000 L 6804.6897 1400.0000 L 6804.6897 1200.0000 L 6559.6455 1200.0000 L 6559.6455 1400.0000 Z" stroke="green" stroke-width="1" fill="none" /><path d="M 6804.6897 1200.0000 L 7037.1675 1200.0000 L 7037.1675 1000.0000 L 6804.6897 1000.0000 L 6804.6897 1200.0000 Z" stroke="green" stroke-width="1" fill="none" /><path d="M 7037.1675 1000.0000 L 7257.0790 1000.0000 L 7257.0790 800.0000 L 7037.1675 800.0000 L 7037.1675 1000.0000 Z" stroke="green" stroke-width="1" fill="none" /><path d="M 7257.0790 800.0000 L 7464.4241 800.0000 L 7464.4241 600.0000 L 7257.0790 600.0000 L 7257.0790 800.0000 Z" stroke="green" stroke-width="1" fill="none" /><path d="M 7464.4241 600.0000 L 7659.2029 600.0000 L 7659.2029 400.0000 L 7464.4241 400.0000 L 7464.4241 600.0000 Z" stroke="green" stroke-width="1" fill="none" /><path d="M 7659.2029 400.0000 L 7841.4153 400.0000 L 7841.4153 200.0000 L 7659.2029 200.0000 L 7659.2029 400.0000 Z" stroke="green" stroke-width="1" fill="none" /><path d="M 7659.2029 5000.0000 L 7841.4153 5000.0000 L 7841.4153 400.0000 L 7659.2029 400.0000 L 7659.2029 5000.0000 Z" stroke="green" stroke-width="1" fill="none" /><path d="M 7841.4153 200.0000 L 8011.0613 200.0000 L 8011.0613 0.0000 L 7841.4153 0.0000 L 7841.4153 200.0000 Z" stroke="green" stroke-width="1" fill="none" /></svg>