<svg width="8986" height="9426" viewBox="-4329 -4551 8986 9426" xmlns="http://www.w3.org/2000/svg"><path d="M 3480.0000 273.7250 A 3500.0000 3500.0000 0 0 0 3308.6978 -807.8345 L 1446.5848 62.7495 A 1500.0000 1500.0000 0 0 1 1520.0000 526.2750 L 3480.0000 273.7250 Z" stroke="green" stroke-width="1" fill="none" /><path d="M 3308.6978 -807.8345 A 3540.0000 3540.0000 0 0 0 2805.8779 -1794.6741 L 1239.2071 -344.2521 A 1460.0000 1460.0000 0 0 1 1446.5848 62.7495 L 3308.6978 -807.8345 Z" stroke="green" stroke-width="1" fill="none" /><path d="M 2805.8779 -1794.6741 A 3580.0000 3580.0000 0 0 0 2013.8683 -2586.6838 L 925.0580 -658.4012 A 1420.0000 1420.0000 0 0 1 1239.2071 -344.2521 L 2805.8779 -1794.6741 Z" stroke="green" stroke-width="1" fill="none" /><path d="M 2013.8683 -2586.6838 A 3620.0000 3620.0000 0 0 0 1004.7272 -3100.8668 L 540.3578 -854.4157 A 1380.0000 1380.0000 0 0 1 925.0580 -658.4012 L 2013.8683 -2586.6838 Z" stroke="green" stroke-width="1" fill="none" /><path d="M 1004.7272 -3100.8668 A 3660.0000 3660.0000 0 0 0 -126.2750 -3280.0000 L 126.2750 -920.0000 A 1340.0000 1340.0000 0 0 1 540.3578 -854.4157 L 1004.7272 -3100.8668 Z" stroke="green" stroke-width="1" fill="none" /><path d="M -126.2750 -3280.0000 A 3700.0000 3700.0000 0 0 0 -1269.6379 -3098.9091 L -275.4471 -856.3735 A 1300.0000 1300.0000 0 0 1 126.2750 -920.0000 L -126.2750 -3280.0000 Z" stroke="green" stroke-width="1" fill="none" /><path d="M -1269.6379 -3098.9091 A 3740.0000 3740.0000 0 0 0 -2312.2312 -2567.6813 L -626.6951 -677.4037 A 1260.0000 1260.0000 0 0 1 -275.4471 -856.3735 L -1269.6379 -3098.9091 Z" stroke="green" stroke-width="1" fill="none" /><path d="M -2312.2312 -2567.6813 A 3780.0000 3780.0000 0 0 0 -3148.4872 -1731.4253 L -896.5978 -407.5009 A 1220.0000 1220.0000 0 0 1 -626.6951 -677.4037 L -2312.2312 -2567.6813 Z" stroke="green" stroke-width="1" fill="none" /><path d="M -3148.4872 -1731.4253 A 3820.0000 3820.0000 0 0 0 -3691.0782 -666.5306 L -1064.2044 -78.5544 A 1180.0000 1180.0000 0 0 1 -896.5978 -407.5009 L -3148.4872 -1731.4253 Z" stroke="green" stroke-width="1" fill="none" /><path d="M -3691.0782 -666.5306 A 3860.0000 3860.0000 0 0 0 -3880.0000 526.2750 L -1120.0000 273.7250 A 1140.0000 1140.0000 0 0 1 -1064.2044 -78.5544 L -3691.0782 -666.5306 Z" stroke="green" stroke-width="1" fill="none" /><path d="M -3880.0000 526.2750 A 3900.0000 3900.0000 0 0 0 -3689.1204 1731.4413 L -1066.1622 613.6437 A 1100.0000 1100.0000 0 0 1 -1120.0000 273.7250 L -3880.0000 526.2750 Z" stroke="green" stroke-width="1" fill="none" /><path d="M -3689.1204 1731.4413 A 3940.0000 3940.0000 0 0 0 -3129.4847 2829.7882 L -915.6003 909.1380 A 1060.0000 1060.0000 0 0 1 -1066.1622 613.6437 L -3689.1204 1731.4413 Z" stroke="green" stroke-width="1" fill="none" /><path d="M -3129.4847 2829.7882 A 3980.0000 3980.0000 0 0 0 -2248.9824 3710.2906 L -689.9439 1134.7944 A 1020.0000 1020.0000 0 0 1 -915.6003 909.1380 L -3129.4847 2829.7882 Z" stroke="green" stroke-width="1" fill="none" /><path d="M -2248.9824 3710.2906 A 4020.0000 4020.0000 0 0 0 -1128.3340 4281.2895 L -416.7510 1273.9931 A 980.0000 980.0000 0 0 1 -689.9439 1134.7944 L -2248.9824 3710.2906 Z" stroke="green" stroke-width="1" fill="none" /><path d="M -1128.3340 4281.2895 A 4060.0000 4060.0000 0 0 0 126.2750 4480.0000 L -126.2750 1320.0000 A 940.0000 940.0000 0 0 1 -416.7510 1273.9931 L -1128.3340 4281.2895 Z" stroke="green" stroke-width="1" fill="none" /><path d="M 126.2750 4480.0000 A 4100.0000 4100.0000 0 0 0 1393.2447 4279.3317 L 151.8403 1275.9509 A 900.0000 900.0000 0 0 1 -126.2750 1320.0000 L 126.2750 4480.0000 Z" stroke="green" stroke-width="1" fill="none" /><path d="M 1393.2447 4279.3317 A 4140.0000 4140.0000 0 0 0 2547.3453 3691.2881 L 391.5810 1153.7969 A 860.0000 860.0000 0 0 1 151.8403 1275.9509 L 1393.2447 4279.3317 Z" stroke="green" stroke-width="1" fill="none" /><path d="M 2547.3453 3691.2881 A 4180.0000 4180.0000 0 0 0 3472.0940 2766.5394 L 572.9910 972.3868 A 820.0000 820.0000 0 0 1 391.5810 1153.7969 L 2547.3453 3691.2881 Z" stroke="green" stroke-width="1" fill="none" /><path d="M 3472.0940 2766.5394 A 4220.0000 4220.0000 0 0 0 4071.5008 1590.1374 L 683.7818 754.9476 A 780.0000 780.0000 0 0 1 572.9910 972.3868 L 3472.0940 2766.5394 Z" stroke="green" stroke-width="1" fill="none" /><path d="M 4071.5008 1590.1374 A 4260.0000 4260.0000 0 0 0 4280.0000 273.7250 L 720.0000 526.2750 A 740.0000 740.0000 0 0 1 683.7818 754.9476 L 4071.5008 1590.1374 Z" stroke="green" stroke-width="1" fill="none" /><path d="M 4280.0000 273.7250 A 4300.0000 4300.0000 0 0 0 4069.5430 -1055.0481 L 685.7396 309.9631 A 700.0000 700.0000 0 0 1 720.0000 526.2750 L 4280.0000 273.7250 Z" stroke="green" stroke-width="1" fill="none" /><path d="M 4069.5430 -1055.0481 A 4340.0000 4340.0000 0 0 0 3453.0915 -2264.9023 L 591.9935 125.9761 A 660.0000 660.0000 0 0 1 685.7396 309.9631 L 4069.5430 -1055.0481 Z" stroke="green" stroke-width="1" fill="none" /><path d="M 3453.0915 -2264.9023 A 4380.0000 4380.0000 0 0 0 2484.0965 -3233.8974 L 454.8298 -11.1876 A 620.0000 620.0000 0 0 1 591.9935 125.9761 L 3453.0915 -2264.9023 Z" stroke="green" stroke-width="1" fill="none" /><path d="M 2484.0965 -3233.8974 A 4420.0000 4420.0000 0 0 0 1251.9408 -3861.7121 L 293.1442 -93.5705 A 580.0000 580.0000 0 0 1 454.8298 -11.1876 L 2484.0965 -3233.8974 Z" stroke="green" stroke-width="1" fill="none" /><path d="M 1251.9408 -3861.7121 A 4460.0000 4460.0000 0 0 0 -126.2750 -4080.0000 L 126.2750 -120.0000 A 540.0000 540.0000 0 0 1 293.1442 -93.5705 L 1251.9408 -3861.7121 Z" stroke="green" stroke-width="1" fill="none" /></svg>