0
SECTION
2
ENTITIES
0
ARC
8
PARAMETRIX
10
-20.0000
20
126.2750
40
3500.0000
50
360.0000
51
18.0000
0
LINE
8
PARAMETRIX
10
3308.6978
20
1207.8345
11
1446.5848
21
337.2505
0
ARC
8
PARAMETRIX
10
20.0000
20
-126.2750
40
1500.0000
50
360.0000
51
18.0000
0
LINE
8
PARAMETRIX
10
1520.0000
20
-126.2750
11
3480.0000
21
126.2750
0
ARC
8
PARAMETRIX
10
-58.0423
20
113.9144
40
3540.0000
50
18.0000
51
36.0000
0
LINE
8
PARAMETRIX
10
2805.8779
20
2194.6741
11
1239.2071
21
744.2521
0
ARC
8
PARAMETRIX
10
58.0423
20
-113.9144
40
1460.0000
50
18.0000
51
36.0000
0
LINE
8
PARAMETRIX
10
1446.5848
20
337.2505
11
3308.6978
21
1207.8345
0
ARC
8
PARAMETRIX
10
-90.4029
20
90.4029
40
3580.0000
50
36.0000
51
54.0000
0
LINE
8
PARAMETRIX
10
2013.8683
20
2986.6838
11
925.0580
21
1058.4012
0
ARC
8
PARAMETRIX
10
90.4029
20
-90.4029
40
1420.0000
50
36.0000
51
54.0000
0
LINE
8
PARAMETRIX
10
1239.2071
20
744.2521
11
2805.8779
21
2194.6741
0
ARC
8
PARAMETRIX
10
-113.9144
20
58.0423
40
3620.0000
50
54.0000
51
72.0000
0
LINE
8
PARAMETRIX
10
1004.7272
20
3500.8668
11
540.3578
21
1254.4157
0
ARC
8
PARAMETRIX
10
113.9144
20
-58.0423
40
1380.0000
50
54.0000
51
72.0000
0
LINE
8
PARAMETRIX
10
925.0580
20
1058.4012
11
2013.8683
21
2986.6838
0
ARC
8
PARAMETRIX
10
-126.2750
20
20.0000
40
3660.0000
50
72.0000
51
90.0000
0
LINE
8
PARAMETRIX
10
-126.2750
20
3680.0000
11
126.2750
21
1320.0000
0
ARC
8
PARAMETRIX
10
126.2750
20
-20.0000
40
1340.0000
50
72.0000
51
90.0000
0
LINE
8
PARAMETRIX
10
540.3578
20
1254.4157
11
1004.7272
21
3500.8668
0
ARC
8
PARAMETRIX
10
-126.2750
20
-20.0000
40
3700.0000
50
90.0000
51
108.0000
0
LINE
8
PARAMETRIX
10
-1269.6379
20
3498.9091
11
-275.4471
21
1256.3735
0
ARC
8
PARAMETRIX
10
126.2750
20
20.0000
40
1300.0000
50
90.0000
51
108.0000
0
LINE
8
PARAMETRIX
10
126.2750
20
1320.0000
11
-126.2750
21
3680.0000
0
ARC
8
PARAMETRIX
10
-113.9144
20
-58.0423
40
3740.0000
50
108.0000
51
126.0000
0
LINE
8
PARAMETRIX
10
-2312.2312
20
2967.6813
11
-626.6951
21
1077.4037
0
ARC
8
PARAMETRIX
10
113.9144
20
58.0423
40
1260.0000
50
108.0000
51
126.0000
0
LINE
8
PARAMETRIX
10
-275.4471
20
1256.3735
11
-1269.6379
21
3498.9091
0
ARC
8
PARAMETRIX
10
-90.4029
20
-90.4029
40
3780.0000
50
126.0000
51
144.0000
0
LINE
8
PARAMETRIX
10
-3148.4872
20
2131.4253
11
-896.5978
21
807.5009
0
ARC
8
PARAMETRIX
10
90.4029
20
90.4029
40
1220.0000
50
126.0000
51
144.0000
0
LINE
8
PARAMETRIX
10
-626.6951
20
1077.4037
11
-2312.2312
21
2967.6813
0
ARC
8
PARAMETRIX
10
-58.0423
20
-113.9144
40
3820.0000
50
144.0000
51
162.0000
0
LINE
8
PARAMETRIX
10
-3691.0782
20
1066.5306
11
-1064.2044
21
478.5544
0
ARC
8
PARAMETRIX
10
58.0423
20
113.9144
40
1180.0000
50
144.0000
51
162.0000
0
LINE
8
PARAMETRIX
10
-896.5978
20
807.5009
11
-3148.4872
21
2131.4253
0
ARC
8
PARAMETRIX
10
-20.0000
20
-126.2750
40
3860.0000
50
162.0000
51
180.0000
0
LINE
8
PARAMETRIX
10
-3880.0000
20
-126.2750
11
-1120.0000
21
126.2750
0
ARC
8
PARAMETRIX
10
20.0000
20
126.2750
40
1140.0000
50
162.0000
51
180.0000
0
LINE
8
PARAMETRIX
10
-1064.2044
20
478.5544
11
-3691.0782
21
1066.5306
0
ARC
8
PARAMETRIX
10
20.0000
20
-126.2750
40
3900.0000
50
180.0000
51
198.0000
0
LINE
8
PARAMETRIX
10
-3689.1204
20
-1331.4413
11
-1066.1622
21
-213.6437
0
ARC
8
PARAMETRIX
10
-20.0000
20
126.2750
40
1100.0000
50
180.0000
51
198.0000
0
LINE
8
PARAMETRIX
10
-1120.0000
20
126.2750
11
-3880.0000
21
-126.2750
0
ARC
8
PARAMETRIX
10
58.0423
20
-113.9144
40
3940.0000
50
198.0000
51
216.0000
0
LINE
8
PARAMETRIX
10
-3129.4847
20
-2429.7882
11
-915.6003
21
-509.1380
0
ARC
8
PARAMETRIX
10
-58.0423
20
113.9144
40
1060.0000
50
198.0000
51
216.0000
0
LINE
8
PARAMETRIX
10
-1066.1622
20
-213.6437
11
-3689.1204
21
-1331.4413
0
ARC
8
PARAMETRIX
10
90.4029
20
-90.4029
40
3980.0000
50
216.0000
51
234.0000
0
LINE
8
PARAMETRIX
10
-2248.9824
20
-3310.2906
11
-689.9439
21
-734.7944
0
ARC
8
PARAMETRIX
10
-90.4029
20
90.4029
40
1020.0000
50
216.0000
51
234.0000
0
LINE
8
PARAMETRIX
10
-915.6003
20
-509.1380
11
-3129.4847
21
-2429.7882
0
ARC
8
PARAMETRIX
10
113.9144
20
-58.0423
40
4020.0000
50
234.0000
51
252.0000
0
LINE
8
PARAMETRIX
10
-1128.3340
20
-3881.2895
11
-416.7510
21
-873.9931
0
ARC
8
PARAMETRIX
10
-113.9144
20
58.0423
40
980.0000
50
234.0000
51
252.0000
0
LINE
8
PARAMETRIX
10
-689.9439
20
-734.7944
11
-2248.9824
21
-3310.2906
0
ARC
8
PARAMETRIX
10
126.2750
20
-20.0000
40
4060.0000
50
252.0000
51
270.0000
0
LINE
8
PARAMETRIX
10
126.2750
20
-4080.0000
11
-126.2750
21
-920.0000
0
ARC
8
PARAMETRIX
10
-126.2750
20
20.0000
40
940.0000
50
252.0000
51
270.0000
0
LINE
8
PARAMETRIX
10
-416.7510
20
-873.9931
11
-1128.3340
21
-3881.2895
0
ARC
8
PARAMETRIX
10
126.2750
20
20.0000
40
4100.0000
50
270.0000
51
288.0000
0
LINE
8
PARAMETRIX
10
1393.2447
20
-3879.3317
11
151.8403
21
-875.9509
0
ARC
8
PARAMETRIX
10
-126.2750
20
-20.0000
40
900.0000
50
270.0000
51
288.0000
0
LINE
8
PARAMETRIX
10
-126.2750
20
-920.0000
11
126.2750
21
-4080.0000
0
ARC
8
PARAMETRIX
10
113.9144
20
58.0423
40
4140.0000
50
288.0000
51
306.0000
0
LINE
8
PARAMETRIX
10
2547.3453
20
-3291.2881
11
391.5810
21
-753.7969
0
ARC
8
PARAMETRIX
10
-113.9144
20
-58.0423
40
860.0000
50
288.0000
51
306.0000
0
LINE
8
PARAMETRIX
10
151.8403
20
-875.9509
11
1393.2447
21
-3879.3317
0
ARC
8
PARAMETRIX
10
90.4029
20
90.4029
40
4180.0000
50
306.0000
51
324.0000
0
LINE
8
PARAMETRIX
10
3472.0940
20
-2366.5394
11
572.9910
21
-572.3868
0
ARC
8
PARAMETRIX
10
-90.4029
20
-90.4029
40
820.0000
50
306.0000
51
324.0000
0
LINE
8
PARAMETRIX
10
391.5810
20
-753.7969
11
2547.3453
21
-3291.2881
0
ARC
8
PARAMETRIX
10
58.0423
20
113.9144
40
4220.0000
50
324.0000
51
342.0000
0
LINE
8
PARAMETRIX
10
4071.5008
20
-1190.1374
11
683.7818
21
-354.9476
0
ARC
8
PARAMETRIX
10
-58.0423
20
-113.9144
40
780.0000
50
324.0000
51
342.0000
0
LINE
8
PARAMETRIX
10
572.9910
20
-572.3868
11
3472.0940
21
-2366.5394
0
ARC
8
PARAMETRIX
10
20.0000
20
126.2750
40
4260.0000
50
342.0000
51
0.0000
0
LINE
8
PARAMETRIX
10
4280.0000
20
126.2750
11
720.0000
21
-126.2750
0
ARC
8
PARAMETRIX
10
-20.0000
20
-126.2750
40
740.0000
50
342.0000
51
360.0000
0
LINE
8
PARAMETRIX
10
683.7818
20
-354.9476
11
4071.5008
21
-1190.1374
0
ARC
8
PARAMETRIX
10
-20.0000
20
126.2750
40
4300.0000
50
360.0000
51
18.0000
0
LINE
8
PARAMETRIX
10
4069.5430
20
1455.0481
11
685.7396
21
90.0369
0
ARC
8
PARAMETRIX
10
20.0000
20
-126.2750
40
700.0000
50
360.0000
51
18.0000
0
LINE
8
PARAMETRIX
10
720.0000
20
-126.2750
11
4280.0000
21
126.2750
0
ARC
8
PARAMETRIX
10
-58.0423
20
113.9144
40
4340.0000
50
18.0000
51
36.0000
0
LINE
8
PARAMETRIX
10
3453.0915
20
2664.9023
11
591.9935
21
274.0239
0
ARC
8
PARAMETRIX
10
58.0423
20
-113.9144
40
660.0000
50
18.0000
51
36.0000
0
LINE
8
PARAMETRIX
10
685.7396
20
90.0369
11
4069.5430
21
1455.0481
0
ARC
8
PARAMETRIX
10
-90.4029
20
90.4029
40
4380.0000
50
36.0000
51
54.0000
0
LINE
8
PARAMETRIX
10
2484.0965
20
3633.8974
11
454.8298
21
411.1876
0
ARC
8
PARAMETRIX
10
90.4029
20
-90.4029
40
620.0000
50
36.0000
51
54.0000
0
LINE
8
PARAMETRIX
10
591.9935
20
274.0239
11
3453.0915
21
2664.9023
0
ARC
8
PARAMETRIX
10
-113.9144
20
58.0423
40
4420.0000
50
54.0000
51
72.0000
0
LINE
8
PARAMETRIX
10
1251.9408
20
4261.7121
11
293.1442
21
493.5705
0
ARC
8
PARAMETRIX
10
113.9144
20
-58.0423
40
580.0000
50
54.0000
51
72.0000
0
LINE
8
PARAMETRIX
10
454.8298
20
411.1876
11
2484.0965
21
3633.8974
0
ARC
8
PARAMETRIX
10
-126.2750
20
20.0000
40
4460.0000
50
72.0000
51
90.0000
0
LINE
8
PARAMETRIX
10
-126.2750
20
4480.0000
11
126.2750
21
520.0000
0
ARC
8
PARAMETRIX
10
126.2750
20
-20.0000
40
540.0000
50
72.0000
51
90.0000
0
LINE
8
PARAMETRIX
10
293.1442
20
493.5705
11
1251.9408
21
4261.7121
0
ENDSEC
0
EOF
