0
SECTION
2
ENTITIES
0
CIRCLE
8
PARAMETRIX
10
30.0000
20
0.0000
40
12.0000
0
CIRCLE
8
PARAMETRIX
10
30.0000
20
0.0000
40
10.0000
0
ARC
8
PARAMETRIX
10
30.0000
20
-0.0000
40
28.0000
50
46.0052
51
133.9948
0
ARC
8
PARAMETRIX
10
49.7959
20
20.5030
40
0.5000
50
226.0052
51
315.0000
0
LINE
8
PARAMETRIX
10
50.1494
20
20.1494
11
50.8567
21
20.8567
0
ARC
8
PARAMETRIX
10
50.5031
20
21.2102
40
0.5000
50
315.0000
51
45.9712
0
ARC
8
PARAMETRIX
10
30.0000
20
-0.0000
40
30.0000
50
45.9712
51
57.7076
0
ARC
8
PARAMETRIX
10
46.5615
20
26.2053
40
1.0000
50
87.1331
51
237.7076
0
LINE
8
PARAMETRIX
10
46.6115
20
27.2041
11
199.4750
21
19.5488
0
ARC
8
PARAMETRIX
10
199.5000
20
20.0482
40
0.5000
50
267.1331
51
0.0000
0
LINE
8
PARAMETRIX
10
200.0000
20
20.0482
11
200.0000
21
21.0494
0
ARC
8
PARAMETRIX
10
199.5000
20
21.0494
40
0.5000
50
0.0000
51
87.1334
0
LINE
8
PARAMETRIX
10
199.5250
20
21.5488
11
31.4981
21
29.9626
0
ARC
8
PARAMETRIX
10
30.0000
20
0.0000
40
30.0000
50
87.1376
51
134.0288
0
ARC
8
PARAMETRIX
10
9.4969
20
21.2102
40
0.5000
50
134.0288
51
225.0000
0
LINE
8
PARAMETRIX
10
9.1433
20
20.8567
11
9.8506
21
20.1494
0
ARC
8
PARAMETRIX
10
10.2041
20
20.5030
40
0.5000
50
225.0000
51
313.9948
0
ARC
8
PARAMETRIX
10
30.0000
20
0.0000
40
28.0000
50
226.0052
51
313.9948
0
ARC
8
PARAMETRIX
10
49.7959
20
-20.5030
40
0.5000
50
45.0000
51
133.9948
0
LINE
8
PARAMETRIX
10
50.1494
20
-20.1494
11
50.8567
21
-20.8567
0
ARC
8
PARAMETRIX
10
50.5031
20
-21.2102
40
0.5000
50
314.0288
51
45.0000
0
ARC
8
PARAMETRIX
10
30.0000
20
0.0000
40
30.0000
50
302.2924
51
314.0288
0
ARC
8
PARAMETRIX
10
46.5615
20
-26.2053
40
1.0000
50
122.2924
51
272.8669
0
LINE
8
PARAMETRIX
10
46.6115
20
-27.2041
11
199.4750
21
-19.5488
0
ARC
8
PARAMETRIX
10
199.5000
20
-20.0482
40
0.5000
50
0.0000
51
92.8669
0
LINE
8
PARAMETRIX
10
200.0000
20
-20.0482
11
200.0000
21
-21.0494
0
ARC
8
PARAMETRIX
10
199.5000
20
-21.0494
40
0.5000
50
272.8666
51
0.0000
0
LINE
8
PARAMETRIX
10
199.5250
20
-21.5488
11
31.4981
21
-29.9626
0
ARC
8
PARAMETRIX
10
30.0000
20
0.0000
40
30.0000
50
225.9712
51
272.8624
0
ARC
8
PARAMETRIX
10
9.4969
20
-21.2102
40
0.5000
50
135.0000
51
225.9712
0
LINE
8
PARAMETRIX
10
9.1433
20
-20.8567
11
9.8506
21
-20.1494
0
ARC
8
PARAMETRIX
10
10.2041
20
-20.5030
40
0.5000
50
46.0052
51
135.0000
0
ENDSEC
0
EOF
