0
SECTION
2
ENTITIES
0
LINE
8
PARAMETRIX
10
70.4750
20
26.0112
11
230.8989
21
17.9775
0
ARC
8
PARAMETRIX
10
230.0000
20
-0.0000
40
18.0000
50
66.7563
51
87.1376
0
ARC
8
PARAMETRIX
10
236.7089
20
15.6202
40
1.0000
50
330.0000
51
66.7563
0
LINE
8
PARAMETRIX
10
237.5749
20
15.1202
11
233.0070
21
7.2082
0
ARC
8
PARAMETRIX
10
232.1409
20
7.7082
40
1.0000
50
254.4775
51
330.0000
0
ARC
8
PARAMETRIX
10
230.0000
20
-0.0000
40
7.0000
50
74.4775
51
165.5225
0
ARC
8
PARAMETRIX
10
222.2540
20
2.0000
40
1.0000
50
270.0000
51
345.5225
0
LINE
8
PARAMETRIX
10
222.2540
20
1.0000
11
70.5000
21
1.0000
0
ARC
8
PARAMETRIX
10
70.5000
20
0.5000
40
0.5000
50
90.0000
51
180.0000
0
LINE
8
PARAMETRIX
10
70.0000
20
0.5000
11
70.0000
21
-0.5000
0
ARC
8
PARAMETRIX
10
70.5000
20
-0.5000
40
0.5000
50
180.0000
51
270.0000
0
LINE
8
PARAMETRIX
10
70.5000
20
-1.0000
11
222.2540
21
-1.0000
0
ARC
8
PARAMETRIX
10
222.2540
20
-2.0000
40
1.0000
50
14.4775
51
90.0000
0
ARC
8
PARAMETRIX
10
230.0000
20
0.0000
40
7.0000
50
194.4775
51
285.5225
0
ARC
8
PARAMETRIX
10
232.1409
20
-7.7082
40
1.0000
50
30.0000
51
105.5225
0
LINE
8
PARAMETRIX
10
233.0070
20
-7.2082
11
237.5749
21
-15.1202
0
ARC
8
PARAMETRIX
10
236.7089
20
-15.6202
40
1.0000
50
293.2437
51
30.0000
0
ARC
8
PARAMETRIX
10
230.0000
20
0.0000
40
18.0000
50
272.8624
51
293.2437
0
LINE
8
PARAMETRIX
10
230.8989
20
-17.9775
11
70.4750
21
-26.0112
0
ARC
8
PARAMETRIX
10
70.5000
20
-26.5106
40
0.5000
50
92.8668
51
180.0000
0
LINE
8
PARAMETRIX
10
70.0000
20
-26.5106
11
70.0000
21
-27.5118
0
ARC
8
PARAMETRIX
10
70.5000
20
-27.5118
40
0.5000
50
180.0000
51
272.8668
0
LINE
8
PARAMETRIX
10
70.5250
20
-28.0112
11
230.9988
21
-19.9750
0
ARC
8
PARAMETRIX
10
230.0000
20
0.0000
40
20.0000
50
272.8624
51
87.1376
0
LINE
8
PARAMETRIX
10
230.9988
20
19.9750
11
70.5250
21
28.0112
0
ARC
8
PARAMETRIX
10
70.5000
20
27.5118
40
0.5000
50
87.1332
51
180.0000
0
LINE
8
PARAMETRIX
10
70.0000
20
27.5118
11
70.0000
21
26.5106
0
ARC
8
PARAMETRIX
10
70.5000
20
26.5106
40
0.5000
50
180.0000
51
267.1332
0
CIRCLE
8
PARAMETRIX
10
230.0000
20
0.0000
40
5.0000
0
ARC
8
PARAMETRIX
10
230.0000
20
0.0000
40
7.0000
50
314.4775
51
45.5225
0
ARC
8
PARAMETRIX
10
235.6050
20
-5.7082
40
1.0000
50
134.4775
51
210.0000
0
LINE
8
PARAMETRIX
10
234.7390
20
-6.2082
11
239.3070
21
-14.1202
0
ARC
8
PARAMETRIX
10
240.1730
20
-13.6202
40
1.0000
50
210.0000
51
306.7563
0
ARC
8
PARAMETRIX
10
230.0000
20
0.0000
40
18.0000
50
306.7563
51
53.2437
0
ARC
8
PARAMETRIX
10
240.1730
20
13.6202
40
1.0000
50
53.2437
51
150.0000
0
LINE
8
PARAMETRIX
10
239.3070
20
14.1202
11
234.7390
21
6.2082
0
ARC
8
PARAMETRIX
10
235.6050
20
5.7082
40
1.0000
50
150.0000
51
225.5225
0
ENDSEC
0
EOF
