<svg width="208" height="72" viewBox="60 -32 208 72" xmlns="http://www.w3.org/2000/svg"><path d="M 70.4750 -26.0112 L 230.8989 -17.9775 A 18.0000 18.0000 0 0 1 237.1036 -16.5390 A 1.0000 1.0000 0 0 1 237.5749 -15.1202 L 233.0070 -7.2082 A 1.0000 1.0000 0 0 1 231.8733 -6.7447 A 7.0000 7.0000 0 0 0 223.2223 -1.7500 A 1.0000 1.0000 0 0 1 222.2540 -1.0000 L 70.5000 -1.0000 A 0.5000 0.5000 0 0 0 70.0000 -0.5000 L 70.0000 0.5000 A 0.5000 0.5000 0 0 0 70.5000 1.0000 L 222.2540 1.0000 A 1.0000 1.0000 0 0 1 223.2223 1.7500 A 7.0000 7.0000 0 0 0 231.8733 6.7447 A 1.0000 1.0000 0 0 1 233.0070 7.2082 L 237.5749 15.1202 A 1.0000 1.0000 0 0 1 237.1036 16.5390 A 18.0000 18.0000 0 0 1 230.8989 17.9775 L 70.4750 26.0112 A 0.5000 0.5000 0 0 0 70.0000 26.5106 L 70.0000 27.5118 A 0.5000 0.5000 0 0 0 70.5250 28.0112 L 230.9988 19.9750 A 20.0000 20.0000 0 0 0 230.9988 -19.9750 L 70.5250 -28.0112 A 0.5000 0.5000 0 0 0 70.0000 -27.5118 L 70.0000 -26.5106 A 0.5000 0.5000 0 0 0 70.4750 -26.0112 Z" stroke="green" stroke-width="1" fill="none" /><circle cx="230.0000" cy="0.0000" r="5.0000" stroke="green" stroke-width="1" fill="none" /><path d="M 234.9044 -4.9947 A 7.0000 7.0000 0 0 1 234.9044 4.9947 A 1.0000 1.0000 0 0 0 234.7390 6.2082 L 239.3070 14.1202 A 1.0000 1.0000 0 0 0 240.7714 14.4214 A 18.0000 18.0000 0 0 0 240.7714 -14.4214 A 1.0000 1.0000 0 0 0 239.3070 -14.1202 L 234.7390 -6.2082 A 1.0000 1.0000 0 0 0 234.9044 -4.9947 Z" stroke="green" stroke-width="1" fill="none" /></svg>