<svg width="220" height="76" viewBox="-2 -34 220 76" xmlns="http://www.w3.org/2000/svg"><circle cx="30.0000" cy="0.0000" r="12.0000" stroke="green" stroke-width="1" fill="none" /><circle cx="30.0000" cy="0.0000" r="10.0000" stroke="green" stroke-width="1" fill="none" /><path d="M 10.5514 -20.1433 A 28.0000 28.0000 0 0 1 49.4486 -20.1433 A 0.5000 0.5000 0 0 0 50.1494 -20.1494 L 50.8567 -20.8567 A 0.5000 0.5000 0 0 0 50.8506 -21.5697 A 30.0000 30.0000 0 0 0 46.0272 -25.3600 A 1.0000 1.0000 0 0 1 46.6115 -27.2041 L 199.4750 -19.5488 A 0.5000 0.5000 0 0 0 200.0000 -20.0482 L 200.0000 -21.0494 A 0.5000 0.5000 0 0 0 199.5250 -21.5488 L 31.4981 -29.9626 A 30.0000 30.0000 0 0 0 9.1494 -21.5697 A 0.5000 0.5000 0 0 0 9.1433 -20.8567 L 9.8506 -20.1494 A 0.5000 0.5000 0 0 0 10.5514 -20.1433 Z" stroke="green" stroke-width="1" fill="none" /><path d="M 10.5514 20.1433 A 28.0000 28.0000 0 0 0 49.4486 20.1433 A 0.5000 0.5000 0 0 1 50.1494 20.1494 L 50.8567 20.8567 A 0.5000 0.5000 0 0 1 50.8506 21.5697 A 30.0000 30.0000 0 0 1 46.0272 25.3600 A 1.0000 1.0000 0 0 0 46.6115 27.2041 L 199.4750 19.5488 A 0.5000 0.5000 0 0 1 200.0000 20.0482 L 200.0000 21.0494 A 0.5000 0.5000 0 0 1 199.5250 21.5488 L 31.4981 29.9626 A 30.0000 30.0000 0 0 1 9.1494 21.5697 A 0.5000 0.5000 0 0 1 9.1433 20.8567 L 9.8506 20.1494 A 0.5000 0.5000 0 0 1 10.5514 20.1433 Z" stroke="green" stroke-width="1" fill="none" /></svg>