solid OpenSCAD_Model
  facet normal 0 -0 -1
    outer loop
      vertex 206.735 8 0
      vertex 206.735 5.94109 0
      vertex 201.985 7 0
    endloop
  endfacet
  facet normal 0 0 -1
    outer loop
      vertex 47.9848 8 0
      vertex 57.4848 8 0
      vertex 57.4848 7 0
    endloop
  endfacet
  facet normal -0 0 -1
    outer loop
      vertex 57.4848 7 0
      vertex 55.5442 1 0
      vertex 47.9848 7 0
    endloop
  endfacet
  facet normal -0 0 -1
    outer loop
      vertex 197.485 7 0
      vertex 197.477 0 0
      vertex 187.985 7 0
    endloop
  endfacet
  facet normal -0 0 -1
    outer loop
      vertex 206.735 8 0
      vertex 201.985 7 0
      vertex 201.985 8 0
    endloop
  endfacet
  facet normal -0 0 -1
    outer loop
      vertex 201.985 7 0
      vertex 197.477 0 0
      vertex 197.485 7 0
    endloop
  endfacet
  facet normal -0 -0 -1
    outer loop
      vertex 197.485 8 0
      vertex 197.485 7 0
      vertex 187.985 8 0
    endloop
  endfacet
  facet normal 0 -0 -1
    outer loop
      vertex 201.985 7 0
      vertex 206.735 5.94109 0
      vertex 197.477 0 0
    endloop
  endfacet
  facet normal 0 0 -1
    outer loop
      vertex 197.485 7 0
      vertex 187.985 7 0
      vertex 187.985 8 0
    endloop
  endfacet
  facet normal 0 0 -1
    outer loop
      vertex 173.985 7 0
      vertex 175.349 4.57399 0
      vertex 175.264 4.29259 0
    endloop
  endfacet
  facet normal 0 0 -1
    outer loop
      vertex 178.206 3.7074 0
      vertex 178.235 4 0
      vertex 183.485 7 0
    endloop
  endfacet
  facet normal -0 0 -1
    outer loop
      vertex 169.485 8 0
      vertex 164.7 5.5 0
      vertex 159.985 8 0
    endloop
  endfacet
  facet normal -0 -0 -1
    outer loop
      vertex 159.985 7 0
      vertex 163.314 3.42599 0
      vertex 155.485 7 0
    endloop
  endfacet
  facet normal 0 0 -1
    outer loop
      vertex 169.485 7 0
      vertex 173.985 7 0
      vertex 175.235 4 0
    endloop
  endfacet
  facet normal 0 -0 -1
    outer loop
      vertex 175.674 2.93929 0
      vertex 175.901 2.75279 0
      vertex 165.534 2.75279 0
    endloop
  endfacet
  facet normal -0 -0 -1
    outer loop
      vertex 155.485 8 0
      vertex 155.485 7 0
      vertex 145.985 8 0
    endloop
  endfacet
  facet normal 0 0 -1
    outer loop
      vertex 166.086 3.42599 0
      vertex 166.171 3.7074 0
      vertex 175.349 3.42599 0
    endloop
  endfacet
  facet normal 0 0 -1
    outer loop
      vertex 145.985 8 0
      vertex 155.485 7 0
      vertex 145.985 7 0
    endloop
  endfacet
  facet normal 0 0 -1
    outer loop
      vertex 127.485 7 0
      vertex 131.985 7 0
      vertex 164.408 2.52879 0
    endloop
  endfacet
  facet normal -0 -0 -1
    outer loop
      vertex 141.485 8 0
      vertex 141.485 7 0
      vertex 131.985 8 0
    endloop
  endfacet
  facet normal 0 0 -1
    outer loop
      vertex 164.126 2.6142 0
      vertex 131.985 7 0
      vertex 141.485 7 0
    endloop
  endfacet
  facet normal 0 0 -1
    outer loop
      vertex 164.7 2.5 0
      vertex 176.735 2.5 0
      vertex 197.477 0 0
    endloop
  endfacet
  facet normal 0 0 -1
    outer loop
      vertex 164.993 2.52879 0
      vertex 176.442 2.52879 0
      vertex 176.735 2.5 0
    endloop
  endfacet
  facet normal -0 -0 -1
    outer loop
      vertex 127.485 8 0
      vertex 127.485 7 0
      vertex 117.985 8 0
    endloop
  endfacet
  facet normal 0 0 -1
    outer loop
      vertex 141.485 7 0
      vertex 131.985 7 0
      vertex 131.985 8 0
    endloop
  endfacet
  facet normal -0 0 -1
    outer loop
      vertex 117.985 7 0
      vertex 60.0442 0 0
      vertex 113.485 7 0
    endloop
  endfacet
  facet normal -0 -0 -1
    outer loop
      vertex 113.485 8 0
      vertex 113.485 7 0
      vertex 103.985 8 0
    endloop
  endfacet
  facet normal 0 0 -1
    outer loop
      vertex 60.0442 0 0
      vertex 164.408 2.52879 0
      vertex 164.7 2.5 0
    endloop
  endfacet
  facet normal 0 0 -1
    outer loop
      vertex 117.985 7 0
      vertex 117.985 8 0
      vertex 127.485 7 0
    endloop
  endfacet
  facet normal 0 0 -1
    outer loop
      vertex 103.985 8 0
      vertex 113.485 7 0
      vertex 103.985 7 0
    endloop
  endfacet
  facet normal -0 0 -1
    outer loop
      vertex 103.985 7 0
      vertex 60.0442 0 0
      vertex 99.4848 7 0
    endloop
  endfacet
  facet normal -0 -0 -1
    outer loop
      vertex 99.4848 8 0
      vertex 99.4848 7 0
      vertex 89.9848 8 0
    endloop
  endfacet
  facet normal 0 -0 -1
    outer loop
      vertex 103.985 7 0
      vertex 113.485 7 0
      vertex 60.0442 0 0
    endloop
  endfacet
  facet normal -0 0 -1
    outer loop
      vertex 99.4848 7 0
      vertex 60.0442 0 0
      vertex 89.9848 7 0
    endloop
  endfacet
  facet normal -0 0 -1
    outer loop
      vertex 89.9848 7 0
      vertex 60.0442 0 0
      vertex 85.4848 7 0
    endloop
  endfacet
  facet normal 0 0 -1
    outer loop
      vertex 99.4848 7 0
      vertex 89.9848 7 0
      vertex 89.9848 8 0
    endloop
  endfacet
  facet normal -0 -0 -1
    outer loop
      vertex 85.4848 8 0
      vertex 85.4848 7 0
      vertex 75.9848 8 0
    endloop
  endfacet
  facet normal -0 0 -1
    outer loop
      vertex 85.4848 7 0
      vertex 60.0442 0 0
      vertex 75.9848 7 0
    endloop
  endfacet
  facet normal -0 0 -1
    outer loop
      vertex 75.9848 7 0
      vertex 60.0442 0 0
      vertex 71.4848 7 0
    endloop
  endfacet
  facet normal 0 0 -1
    outer loop
      vertex 71.4848 7 0
      vertex 60.0442 0 0
      vertex 60.0442 1 0
    endloop
  endfacet
  facet normal 0 0 -1
    outer loop
      vertex 85.4848 7 0
      vertex 75.9848 7 0
      vertex 75.9848 8 0
    endloop
  endfacet
  facet normal -0 -0 -1
    outer loop
      vertex 71.4848 8 0
      vertex 71.4848 7 0
      vertex 61.9848 8 0
    endloop
  endfacet
  facet normal 0 0 -1
    outer loop
      vertex 61.9848 8 0
      vertex 71.4848 7 0
      vertex 61.9848 7 0
    endloop
  endfacet
  facet normal 0 0 -1
    outer loop
      vertex 57.4848 7 0
      vertex 61.9848 7 0
      vertex 60.0442 1 0
    endloop
  endfacet
  facet normal 0 -0 -1
    outer loop
      vertex 61.9848 7 0
      vertex 71.4848 7 0
      vertex 60.0442 1 0
    endloop
  endfacet
  facet normal 0 0 -1
    outer loop
      vertex 55.5442 1 0
      vertex 57.4848 7 0
      vertex 60.0442 1 0
    endloop
  endfacet
  facet normal 0 0 -1
    outer loop
      vertex 33.9848 7 0
      vertex 33.9848 8 0
      vertex 43.4848 7 0
    endloop
  endfacet
  facet normal 0 0 -1
    outer loop
      vertex 47.9848 7 0
      vertex 47.9848 8 0
      vertex 57.4848 7 0
    endloop
  endfacet
  facet normal 0 0 -1
    outer loop
      vertex 55.5442 0 0
      vertex 47.9848 7 0
      vertex 55.5442 1 0
    endloop
  endfacet
  facet normal 0 0 -1
    outer loop
      vertex 19.9848 7 0
      vertex 19.9848 8 0
      vertex 29.4848 7 0
    endloop
  endfacet
  facet normal 0 0 -1
    outer loop
      vertex 55.5442 0 0
      vertex 43.4848 7 0
      vertex 47.9848 7 0
    endloop
  endfacet
  facet normal 0 0 -1
    outer loop
      vertex 43.4848 7 0
      vertex 33.9848 8 0
      vertex 43.4848 8 0
    endloop
  endfacet
  facet normal 0 0 -1
    outer loop
      vertex 55.5442 0 0
      vertex 33.9848 7 0
      vertex 43.4848 7 0
    endloop
  endfacet
  facet normal 0 0 -1
    outer loop
      vertex 6.7923 4.97079 0
      vertex 15.4848 8 0
      vertex 15.4848 7 0
    endloop
  endfacet
  facet normal 0 0 -1
    outer loop
      vertex 8.79929 0 0
      vertex 29.4848 7 0
      vertex 33.9848 7 0
    endloop
  endfacet
  facet normal 0 0 -1
    outer loop
      vertex 29.4848 7 0
      vertex 19.9848 8 0
      vertex 29.4848 8 0
    endloop
  endfacet
  facet normal 0 -0 -1
    outer loop
      vertex 15.4848 7 0
      vertex 19.9848 7 0
      vertex 8.79929 0 0
    endloop
  endfacet
  facet normal 0 -0 -1
    outer loop
      vertex 6.7923 4.97079 0
      vertex 8.79929 0 0
      vertex 5.27959 4 0
    endloop
  endfacet
  facet normal 0 0 -1
    outer loop
      vertex 6.7923 4.97079 0
      vertex 4.84819 8 0
      vertex 15.4848 8 0
    endloop
  endfacet
  facet normal 0 0 -1
    outer loop
      vertex 6.7923 4.97079 0
      vertex 15.4848 7 0
      vertex 8.79929 0 0
    endloop
  endfacet
  facet normal 0 0 -1
    outer loop
      vertex 8.79929 0 0
      vertex 19.9848 7 0
      vertex 29.4848 7 0
    endloop
  endfacet
  facet normal 0 0 -1
    outer loop
      vertex 55.5442 0 0
      vertex 8.79929 0 0
      vertex 33.9848 7 0
    endloop
  endfacet
  facet normal 0 -0 -1
    outer loop
      vertex 178.206 3.7074 0
      vertex 183.485 7 0
      vertex 178.121 3.42599 0
    endloop
  endfacet
  facet normal 0 0 -1
    outer loop
      vertex 164.408 2.52879 0
      vertex 131.985 7 0
      vertex 164.126 2.6142 0
    endloop
  endfacet
  facet normal -0 0 -1
    outer loop
      vertex 176.161 2.6142 0
      vertex 164.993 2.52879 0
      vertex 165.274 2.6142 0
    endloop
  endfacet
  facet normal 0 0 -1
    outer loop
      vertex 169.485 7 0
      vertex 175.235 4 0
      vertex 175.264 3.7074 0
    endloop
  endfacet
  facet normal 0 0 -1
    outer loop
      vertex 165.761 2.93929 0
      vertex 165.947 3.1666 0
      vertex 175.488 3.1666 0
    endloop
  endfacet
  facet normal 0 0 -1
    outer loop
      vertex 166.171 3.7074 0
      vertex 166.2 4 0
      vertex 169.485 7 0
    endloop
  endfacet
  facet normal 0 0 -1
    outer loop
      vertex 165.947 4.83339 0
      vertex 169.485 7 0
      vertex 166.086 4.57399 0
    endloop
  endfacet
  facet normal 0 0 -1
    outer loop
      vertex 166.171 4.29259 0
      vertex 169.485 7 0
      vertex 166.2 4 0
    endloop
  endfacet
  facet normal -0 0 -1
    outer loop
      vertex 183.485 8 0
      vertex 177.027 5.47119 0
      vertex 173.985 8 0
    endloop
  endfacet
  facet normal 0 0 -1
    outer loop
      vertex 175.235 4 0
      vertex 173.985 7 0
      vertex 175.264 4.29259 0
    endloop
  endfacet
  facet normal 0 0 -1
    outer loop
      vertex 173.985 8 0
      vertex 176.735 5.5 0
      vertex 176.442 5.47119 0
    endloop
  endfacet
  facet normal 0 0 -1
    outer loop
      vertex 175.349 4.57399 0
      vertex 173.985 7 0
      vertex 175.488 4.83339 0
    endloop
  endfacet
  facet normal 0 0 -1
    outer loop
      vertex 175.488 4.83339 0
      vertex 173.985 7 0
      vertex 175.674 5.0607 0
    endloop
  endfacet
  facet normal 0 0 -1
    outer loop
      vertex 175.674 5.0607 0
      vertex 173.985 7 0
      vertex 175.901 5.24719 0
    endloop
  endfacet
  facet normal 0 0 -1
    outer loop
      vertex 175.901 5.24719 0
      vertex 173.985 7 0
      vertex 176.161 5.38579 0
    endloop
  endfacet
  facet normal 0 0 -1
    outer loop
      vertex 176.442 5.47119 0
      vertex 173.985 7 0
      vertex 173.985 8 0
    endloop
  endfacet
  facet normal 0 0 -1
    outer loop
      vertex 176.161 5.38579 0
      vertex 173.985 7 0
      vertex 176.442 5.47119 0
    endloop
  endfacet
  facet normal 0 0 -1
    outer loop
      vertex 173.985 8 0
      vertex 177.027 5.47119 0
      vertex 176.735 5.5 0
    endloop
  endfacet
  facet normal 0 0 -1
    outer loop
      vertex 183.485 8 0
      vertex 177.309 5.38579 0
      vertex 177.027 5.47119 0
    endloop
  endfacet
  facet normal 0 0 -1
    outer loop
      vertex 183.485 8 0
      vertex 177.568 5.24719 0
      vertex 177.309 5.38579 0
    endloop
  endfacet
  facet normal 0 0 -1
    outer loop
      vertex 183.485 8 0
      vertex 177.795 5.0607 0
      vertex 177.568 5.24719 0
    endloop
  endfacet
  facet normal 0 -0 -1
    outer loop
      vertex 183.485 8 0
      vertex 183.485 7 0
      vertex 177.795 5.0607 0
    endloop
  endfacet
  facet normal 0 0 -1
    outer loop
      vertex 177.795 5.0607 0
      vertex 183.485 7 0
      vertex 177.982 4.83339 0
    endloop
  endfacet
  facet normal 0 0 -1
    outer loop
      vertex 177.982 4.83339 0
      vertex 183.485 7 0
      vertex 178.121 4.57399 0
    endloop
  endfacet
  facet normal 0 0 -1
    outer loop
      vertex 178.121 4.57399 0
      vertex 183.485 7 0
      vertex 178.206 4.29259 0
    endloop
  endfacet
  facet normal 0 0 -1
    outer loop
      vertex 178.206 4.29259 0
      vertex 183.485 7 0
      vertex 178.235 4 0
    endloop
  endfacet
  facet normal 0 0 -1
    outer loop
      vertex 177.982 3.1666 0
      vertex 178.121 3.42599 0
      vertex 183.485 7 0
    endloop
  endfacet
  facet normal -0 0 -1
    outer loop
      vertex 187.985 7 0
      vertex 177.982 3.1666 0
      vertex 183.485 7 0
    endloop
  endfacet
  facet normal 0 0 -1
    outer loop
      vertex 187.985 7 0
      vertex 177.795 2.93929 0
      vertex 177.982 3.1666 0
    endloop
  endfacet
  facet normal 0 -0 -1
    outer loop
      vertex 187.985 7 0
      vertex 197.477 0 0
      vertex 177.795 2.93929 0
    endloop
  endfacet
  facet normal 0 -0 -1
    outer loop
      vertex 177.795 2.93929 0
      vertex 197.477 0 0
      vertex 177.568 2.75279 0
    endloop
  endfacet
  facet normal 0 -0 -1
    outer loop
      vertex 177.568 2.75279 0
      vertex 197.477 0 0
      vertex 177.309 2.6142 0
    endloop
  endfacet
  facet normal 0 -0 -1
    outer loop
      vertex 177.309 2.6142 0
      vertex 197.477 0 0
      vertex 177.027 2.52879 0
    endloop
  endfacet
  facet normal 0 -0 -1
    outer loop
      vertex 177.027 2.52879 0
      vertex 197.477 0 0
      vertex 176.735 2.5 0
    endloop
  endfacet
  facet normal 0 0 -1
    outer loop
      vertex 176.735 2.5 0
      vertex 164.7 2.5 0
      vertex 164.993 2.52879 0
    endloop
  endfacet
  facet normal 0 -0 -1
    outer loop
      vertex 164.7 2.5 0
      vertex 197.477 0 0
      vertex 60.0442 0 0
    endloop
  endfacet
  facet normal -0 -0 -1
    outer loop
      vertex 127.485 7 0
      vertex 164.408 2.52879 0
      vertex 117.985 7 0
    endloop
  endfacet
  facet normal -0 0 -1
    outer loop
      vertex 164.408 2.52879 0
      vertex 60.0442 0 0
      vertex 117.985 7 0
    endloop
  endfacet
  facet normal -0 -0 -1
    outer loop
      vertex 163.867 2.75279 0
      vertex 164.126 2.6142 0
      vertex 145.985 7 0
    endloop
  endfacet
  facet normal 0 0 -1
    outer loop
      vertex 164.126 2.6142 0
      vertex 141.485 7 0
      vertex 145.985 7 0
    endloop
  endfacet
  facet normal 0 0 -1
    outer loop
      vertex 163.867 2.75279 0
      vertex 145.985 7 0
      vertex 163.64 2.93929 0
    endloop
  endfacet
  facet normal -0 -0 -1
    outer loop
      vertex 163.453 3.1666 0
      vertex 163.64 2.93929 0
      vertex 155.485 7 0
    endloop
  endfacet
  facet normal 0 0 -1
    outer loop
      vertex 163.64 2.93929 0
      vertex 145.985 7 0
      vertex 155.485 7 0
    endloop
  endfacet
  facet normal -0 -0 -1
    outer loop
      vertex 163.314 3.42599 0
      vertex 163.453 3.1666 0
      vertex 155.485 7 0
    endloop
  endfacet
  facet normal 0 0 -1
    outer loop
      vertex 163.314 3.42599 0
      vertex 159.985 7 0
      vertex 163.229 3.7074 0
    endloop
  endfacet
  facet normal 0 0 -1
    outer loop
      vertex 163.229 3.7074 0
      vertex 159.985 7 0
      vertex 163.2 4 0
    endloop
  endfacet
  facet normal 0 0 -1
    outer loop
      vertex 163.2 4 0
      vertex 159.985 7 0
      vertex 163.229 4.29259 0
    endloop
  endfacet
  facet normal 0 0 -1
    outer loop
      vertex 163.229 4.29259 0
      vertex 159.985 7 0
      vertex 163.314 4.57399 0
    endloop
  endfacet
  facet normal 0 0 -1
    outer loop
      vertex 163.314 4.57399 0
      vertex 159.985 7 0
      vertex 163.453 4.83339 0
    endloop
  endfacet
  facet normal 0 0 -1
    outer loop
      vertex 163.453 4.83339 0
      vertex 159.985 7 0
      vertex 163.64 5.0607 0
    endloop
  endfacet
  facet normal 0 0 -1
    outer loop
      vertex 163.64 5.0607 0
      vertex 159.985 7 0
      vertex 163.867 5.24719 0
    endloop
  endfacet
  facet normal 0 0 -1
    outer loop
      vertex 163.867 5.24719 0
      vertex 159.985 7 0
      vertex 159.985 8 0
    endloop
  endfacet
  facet normal -0 0 -1
    outer loop
      vertex 164.408 5.47119 0
      vertex 164.126 5.38579 0
      vertex 159.985 8 0
    endloop
  endfacet
  facet normal -0 0 -1
    outer loop
      vertex 164.126 5.38579 0
      vertex 163.867 5.24719 0
      vertex 159.985 8 0
    endloop
  endfacet
  facet normal -0 0 -1
    outer loop
      vertex 164.7 5.5 0
      vertex 164.408 5.47119 0
      vertex 159.985 8 0
    endloop
  endfacet
  facet normal 0 0 -1
    outer loop
      vertex 164.993 5.47119 0
      vertex 164.7 5.5 0
      vertex 169.485 8 0
    endloop
  endfacet
  facet normal 0 0 -1
    outer loop
      vertex 165.274 5.38579 0
      vertex 164.993 5.47119 0
      vertex 169.485 8 0
    endloop
  endfacet
  facet normal 0 0 -1
    outer loop
      vertex 165.534 5.24719 0
      vertex 165.274 5.38579 0
      vertex 169.485 8 0
    endloop
  endfacet
  facet normal -0 0 -1
    outer loop
      vertex 169.485 7 0
      vertex 165.534 5.24719 0
      vertex 169.485 8 0
    endloop
  endfacet
  facet normal 0 0 -1
    outer loop
      vertex 169.485 7 0
      vertex 165.761 5.0607 0
      vertex 165.534 5.24719 0
    endloop
  endfacet
  facet normal 0 0 -1
    outer loop
      vertex 169.485 7 0
      vertex 165.947 4.83339 0
      vertex 165.761 5.0607 0
    endloop
  endfacet
  facet normal 0 0 -1
    outer loop
      vertex 166.171 4.29259 0
      vertex 166.086 4.57399 0
      vertex 169.485 7 0
    endloop
  endfacet
  facet normal 0 -0 -1
    outer loop
      vertex 169.485 7 0
      vertex 175.264 3.7074 0
      vertex 166.171 3.7074 0
    endloop
  endfacet
  facet normal 0 0 -1
    outer loop
      vertex 166.171 3.7074 0
      vertex 175.264 3.7074 0
      vertex 175.349 3.42599 0
    endloop
  endfacet
  facet normal 0 -0 -1
    outer loop
      vertex 166.086 3.42599 0
      vertex 175.349 3.42599 0
      vertex 165.947 3.1666 0
    endloop
  endfacet
  facet normal 0 0 -1
    outer loop
      vertex 165.947 3.1666 0
      vertex 175.349 3.42599 0
      vertex 175.488 3.1666 0
    endloop
  endfacet
  facet normal 0 0 -1
    outer loop
      vertex 165.761 2.93929 0
      vertex 175.488 3.1666 0
      vertex 175.674 2.93929 0
    endloop
  endfacet
  facet normal 0 0 -1
    outer loop
      vertex 165.534 2.75279 0
      vertex 165.761 2.93929 0
      vertex 175.674 2.93929 0
    endloop
  endfacet
  facet normal 0 0 -1
    outer loop
      vertex 176.161 2.6142 0
      vertex 165.534 2.75279 0
      vertex 175.901 2.75279 0
    endloop
  endfacet
  facet normal 0 0 -1
    outer loop
      vertex 176.161 2.6142 0
      vertex 165.274 2.6142 0
      vertex 165.534 2.75279 0
    endloop
  endfacet
  facet normal 0 0 -1
    outer loop
      vertex 176.442 2.52879 0
      vertex 164.993 2.52879 0
      vertex 176.161 2.6142 0
    endloop
  endfacet
  facet normal -0 0 1
    outer loop
      vertex 201.985 7 6
      vertex 206.735 5.94109 6
      vertex 206.735 8 6
    endloop
  endfacet
  facet normal 0 -0 1
    outer loop
      vertex 57.4848 7 6
      vertex 57.4848 8 6
      vertex 47.9848 8 6
    endloop
  endfacet
  facet normal -0 0 1
    outer loop
      vertex 47.9848 7 6
      vertex 55.5442 1 6
      vertex 57.4848 7 6
    endloop
  endfacet
  facet normal -0 0 1
    outer loop
      vertex 187.985 7 6
      vertex 197.477 0 6
      vertex 197.485 7 6
    endloop
  endfacet
  facet normal -0 0 1
    outer loop
      vertex 201.985 8 6
      vertex 201.985 7 6
      vertex 206.735 8 6
    endloop
  endfacet
  facet normal -0 0 1
    outer loop
      vertex 197.485 7 6
      vertex 197.477 0 6
      vertex 201.985 7 6
    endloop
  endfacet
  facet normal -0 0 1
    outer loop
      vertex 187.985 8 6
      vertex 197.485 7 6
      vertex 197.485 8 6
    endloop
  endfacet
  facet normal 0 0 1
    outer loop
      vertex 197.477 0 6
      vertex 206.735 5.94109 6
      vertex 201.985 7 6
    endloop
  endfacet
  facet normal 0 0 1
    outer loop
      vertex 187.985 8 6
      vertex 187.985 7 6
      vertex 197.485 7 6
    endloop
  endfacet
  facet normal 0 -0 1
    outer loop
      vertex 175.264 4.29259 6
      vertex 175.349 4.57399 6
      vertex 173.985 7 6
    endloop
  endfacet
  facet normal 0 0 1
    outer loop
      vertex 183.485 7 6
      vertex 178.235 4 6
      vertex 178.206 3.7074 6
    endloop
  endfacet
  facet normal -0 0 1
    outer loop
      vertex 159.985 8 6
      vertex 164.7 5.5 6
      vertex 169.485 8 6
    endloop
  endfacet
  facet normal -0 0 1
    outer loop
      vertex 155.485 7 6
      vertex 163.314 3.42599 6
      vertex 159.985 7 6
    endloop
  endfacet
  facet normal 0 0 1
    outer loop
      vertex 175.235 4 6
      vertex 173.985 7 6
      vertex 169.485 7 6
    endloop
  endfacet
  facet normal 0 0 1
    outer loop
      vertex 165.534 2.75279 6
      vertex 175.901 2.75279 6
      vertex 175.674 2.93929 6
    endloop
  endfacet
  facet normal -0 0 1
    outer loop
      vertex 145.985 8 6
      vertex 155.485 7 6
      vertex 155.485 8 6
    endloop
  endfacet
  facet normal 0 0 1
    outer loop
      vertex 175.349 3.42599 6
      vertex 166.171 3.7074 6
      vertex 166.086 3.42599 6
    endloop
  endfacet
  facet normal 0 0 1
    outer loop
      vertex 145.985 7 6
      vertex 155.485 7 6
      vertex 145.985 8 6
    endloop
  endfacet
  facet normal 0 0 1
    outer loop
      vertex 164.408 2.52879 6
      vertex 131.985 7 6
      vertex 127.485 7 6
    endloop
  endfacet
  facet normal -0 0 1
    outer loop
      vertex 131.985 8 6
      vertex 141.485 7 6
      vertex 141.485 8 6
    endloop
  endfacet
  facet normal 0 0 1
    outer loop
      vertex 141.485 7 6
      vertex 131.985 7 6
      vertex 164.126 2.6142 6
    endloop
  endfacet
  facet normal 0 0 1
    outer loop
      vertex 197.477 0 6
      vertex 176.735 2.5 6
      vertex 164.7 2.5 6
    endloop
  endfacet
  facet normal 0 0 1
    outer loop
      vertex 176.735 2.5 6
      vertex 176.442 2.52879 6
      vertex 164.993 2.52879 6
    endloop
  endfacet
  facet normal -0 0 1
    outer loop
      vertex 117.985 8 6
      vertex 127.485 7 6
      vertex 127.485 8 6
    endloop
  endfacet
  facet normal 0 0 1
    outer loop
      vertex 131.985 8 6
      vertex 131.985 7 6
      vertex 141.485 7 6
    endloop
  endfacet
  facet normal -0 0 1
    outer loop
      vertex 113.485 7 6
      vertex 60.0442 0 6
      vertex 117.985 7 6
    endloop
  endfacet
  facet normal -0 0 1
    outer loop
      vertex 103.985 8 6
      vertex 113.485 7 6
      vertex 113.485 8 6
    endloop
  endfacet
  facet normal 0 0 1
    outer loop
      vertex 164.7 2.5 6
      vertex 164.408 2.52879 6
      vertex 60.0442 0 6
    endloop
  endfacet
  facet normal 0 0 1
    outer loop
      vertex 127.485 7 6
      vertex 117.985 8 6
      vertex 117.985 7 6
    endloop
  endfacet
  facet normal 0 0 1
    outer loop
      vertex 103.985 7 6
      vertex 113.485 7 6
      vertex 103.985 8 6
    endloop
  endfacet
  facet normal -0 0 1
    outer loop
      vertex 99.4848 7 6
      vertex 60.0442 0 6
      vertex 103.985 7 6
    endloop
  endfacet
  facet normal -0 0 1
    outer loop
      vertex 89.9848 8 6
      vertex 99.4848 7 6
      vertex 99.4848 8 6
    endloop
  endfacet
  facet normal 0 0 1
    outer loop
      vertex 60.0442 0 6
      vertex 113.485 7 6
      vertex 103.985 7 6
    endloop
  endfacet
  facet normal -0 0 1
    outer loop
      vertex 89.9848 7 6
      vertex 60.0442 0 6
      vertex 99.4848 7 6
    endloop
  endfacet
  facet normal -0 0 1
    outer loop
      vertex 85.4848 7 6
      vertex 60.0442 0 6
      vertex 89.9848 7 6
    endloop
  endfacet
  facet normal 0 0 1
    outer loop
      vertex 89.9848 8 6
      vertex 89.9848 7 6
      vertex 99.4848 7 6
    endloop
  endfacet
  facet normal -0 0 1
    outer loop
      vertex 75.9848 8 6
      vertex 85.4848 7 6
      vertex 85.4848 8 6
    endloop
  endfacet
  facet normal -0 0 1
    outer loop
      vertex 75.9848 7 6
      vertex 60.0442 0 6
      vertex 85.4848 7 6
    endloop
  endfacet
  facet normal -0 0 1
    outer loop
      vertex 71.4848 7 6
      vertex 60.0442 0 6
      vertex 75.9848 7 6
    endloop
  endfacet
  facet normal -0 0 1
    outer loop
      vertex 60.0442 1 6
      vertex 60.0442 0 6
      vertex 71.4848 7 6
    endloop
  endfacet
  facet normal 0 0 1
    outer loop
      vertex 75.9848 8 6
      vertex 75.9848 7 6
      vertex 85.4848 7 6
    endloop
  endfacet
  facet normal -0 0 1
    outer loop
      vertex 61.9848 8 6
      vertex 71.4848 7 6
      vertex 71.4848 8 6
    endloop
  endfacet
  facet normal 0 0 1
    outer loop
      vertex 61.9848 7 6
      vertex 71.4848 7 6
      vertex 61.9848 8 6
    endloop
  endfacet
  facet normal 0 -0 1
    outer loop
      vertex 60.0442 1 6
      vertex 61.9848 7 6
      vertex 57.4848 7 6
    endloop
  endfacet
  facet normal 0 0 1
    outer loop
      vertex 60.0442 1 6
      vertex 71.4848 7 6
      vertex 61.9848 7 6
    endloop
  endfacet
  facet normal 0 0 1
    outer loop
      vertex 60.0442 1 6
      vertex 57.4848 7 6
      vertex 55.5442 1 6
    endloop
  endfacet
  facet normal 0 0 1
    outer loop
      vertex 43.4848 7 6
      vertex 33.9848 8 6
      vertex 33.9848 7 6
    endloop
  endfacet
  facet normal 0 0 1
    outer loop
      vertex 57.4848 7 6
      vertex 47.9848 8 6
      vertex 47.9848 7 6
    endloop
  endfacet
  facet normal 0 0 1
    outer loop
      vertex 55.5442 1 6
      vertex 47.9848 7 6
      vertex 55.5442 0 6
    endloop
  endfacet
  facet normal 0 0 1
    outer loop
      vertex 29.4848 7 6
      vertex 19.9848 8 6
      vertex 19.9848 7 6
    endloop
  endfacet
  facet normal 0 0 1
    outer loop
      vertex 47.9848 7 6
      vertex 43.4848 7 6
      vertex 55.5442 0 6
    endloop
  endfacet
  facet normal 0 0 1
    outer loop
      vertex 43.4848 8 6
      vertex 33.9848 8 6
      vertex 43.4848 7 6
    endloop
  endfacet
  facet normal 0 0 1
    outer loop
      vertex 43.4848 7 6
      vertex 33.9848 7 6
      vertex 55.5442 0 6
    endloop
  endfacet
  facet normal 0 -0 1
    outer loop
      vertex 15.4848 7 6
      vertex 15.4848 8 6
      vertex 6.7923 4.97079 6
    endloop
  endfacet
  facet normal 0 0 1
    outer loop
      vertex 33.9848 7 6
      vertex 29.4848 7 6
      vertex 8.79929 0 6
    endloop
  endfacet
  facet normal 0 0 1
    outer loop
      vertex 29.4848 8 6
      vertex 19.9848 8 6
      vertex 29.4848 7 6
    endloop
  endfacet
  facet normal 0 0 1
    outer loop
      vertex 8.79929 0 6
      vertex 19.9848 7 6
      vertex 15.4848 7 6
    endloop
  endfacet
  facet normal -0 0 1
    outer loop
      vertex 5.27959 4 6
      vertex 8.79929 0 6
      vertex 6.7923 4.97079 6
    endloop
  endfacet
  facet normal 0 0 1
    outer loop
      vertex 15.4848 8 6
      vertex 4.84819 8 6
      vertex 6.7923 4.97079 6
    endloop
  endfacet
  facet normal 0 -0 1
    outer loop
      vertex 8.79929 0 6
      vertex 15.4848 7 6
      vertex 6.7923 4.97079 6
    endloop
  endfacet
  facet normal 0 0 1
    outer loop
      vertex 29.4848 7 6
      vertex 19.9848 7 6
      vertex 8.79929 0 6
    endloop
  endfacet
  facet normal 0 0 1
    outer loop
      vertex 33.9848 7 6
      vertex 8.79929 0 6
      vertex 55.5442 0 6
    endloop
  endfacet
  facet normal 0 0 1
    outer loop
      vertex 178.121 3.42599 6
      vertex 183.485 7 6
      vertex 178.206 3.7074 6
    endloop
  endfacet
  facet normal 0 0 1
    outer loop
      vertex 164.126 2.6142 6
      vertex 131.985 7 6
      vertex 164.408 2.52879 6
    endloop
  endfacet
  facet normal -0 0 1
    outer loop
      vertex 165.274 2.6142 6
      vertex 164.993 2.52879 6
      vertex 176.161 2.6142 6
    endloop
  endfacet
  facet normal 0 0 1
    outer loop
      vertex 175.264 3.7074 6
      vertex 175.235 4 6
      vertex 169.485 7 6
    endloop
  endfacet
  facet normal 0 0 1
    outer loop
      vertex 175.488 3.1666 6
      vertex 165.947 3.1666 6
      vertex 165.761 2.93929 6
    endloop
  endfacet
  facet normal 0 0 1
    outer loop
      vertex 169.485 7 6
      vertex 166.2 4 6
      vertex 166.171 3.7074 6
    endloop
  endfacet
  facet normal 0 -0 1
    outer loop
      vertex 166.086 4.57399 6
      vertex 169.485 7 6
      vertex 165.947 4.83339 6
    endloop
  endfacet
  facet normal 0 -0 1
    outer loop
      vertex 166.2 4 6
      vertex 169.485 7 6
      vertex 166.171 4.29259 6
    endloop
  endfacet
  facet normal -0 0 1
    outer loop
      vertex 173.985 8 6
      vertex 177.027 5.47119 6
      vertex 183.485 8 6
    endloop
  endfacet
  facet normal 0 0 1
    outer loop
      vertex 175.264 4.29259 6
      vertex 173.985 7 6
      vertex 175.235 4 6
    endloop
  endfacet
  facet normal 0 -0 1
    outer loop
      vertex 176.442 5.47119 6
      vertex 176.735 5.5 6
      vertex 173.985 8 6
    endloop
  endfacet
  facet normal 0 0 1
    outer loop
      vertex 175.488 4.83339 6
      vertex 173.985 7 6
      vertex 175.349 4.57399 6
    endloop
  endfacet
  facet normal 0 0 1
    outer loop
      vertex 175.674 5.0607 6
      vertex 173.985 7 6
      vertex 175.488 4.83339 6
    endloop
  endfacet
  facet normal 0 0 1
    outer loop
      vertex 175.901 5.24719 6
      vertex 173.985 7 6
      vertex 175.674 5.0607 6
    endloop
  endfacet
  facet normal 0 0 1
    outer loop
      vertex 176.161 5.38579 6
      vertex 173.985 7 6
      vertex 175.901 5.24719 6
    endloop
  endfacet
  facet normal 0 0 1
    outer loop
      vertex 173.985 8 6
      vertex 173.985 7 6
      vertex 176.442 5.47119 6
    endloop
  endfacet
  facet normal 0 0 1
    outer loop
      vertex 176.442 5.47119 6
      vertex 173.985 7 6
      vertex 176.161 5.38579 6
    endloop
  endfacet
  facet normal -0 -0 1
    outer loop
      vertex 176.735 5.5 6
      vertex 177.027 5.47119 6
      vertex 173.985 8 6
    endloop
  endfacet
  facet normal -0 0 1
    outer loop
      vertex 177.027 5.47119 6
      vertex 177.309 5.38579 6
      vertex 183.485 8 6
    endloop
  endfacet
  facet normal -0 0 1
    outer loop
      vertex 177.309 5.38579 6
      vertex 177.568 5.24719 6
      vertex 183.485 8 6
    endloop
  endfacet
  facet normal -0 0 1
    outer loop
      vertex 177.568 5.24719 6
      vertex 177.795 5.0607 6
      vertex 183.485 8 6
    endloop
  endfacet
  facet normal 0 0 1
    outer loop
      vertex 177.795 5.0607 6
      vertex 183.485 7 6
      vertex 183.485 8 6
    endloop
  endfacet
  facet normal 0 -0 1
    outer loop
      vertex 177.982 4.83339 6
      vertex 183.485 7 6
      vertex 177.795 5.0607 6
    endloop
  endfacet
  facet normal 0 -0 1
    outer loop
      vertex 178.121 4.57399 6
      vertex 183.485 7 6
      vertex 177.982 4.83339 6
    endloop
  endfacet
  facet normal 0 -0 1
    outer loop
      vertex 178.206 4.29259 6
      vertex 183.485 7 6
      vertex 178.121 4.57399 6
    endloop
  endfacet
  facet normal 0 -0 1
    outer loop
      vertex 178.235 4 6
      vertex 183.485 7 6
      vertex 178.206 4.29259 6
    endloop
  endfacet
  facet normal 0 0 1
    outer loop
      vertex 183.485 7 6
      vertex 178.121 3.42599 6
      vertex 177.982 3.1666 6
    endloop
  endfacet
  facet normal -0 0 1
    outer loop
      vertex 183.485 7 6
      vertex 177.982 3.1666 6
      vertex 187.985 7 6
    endloop
  endfacet
  facet normal -0 0 1
    outer loop
      vertex 177.982 3.1666 6
      vertex 177.795 2.93929 6
      vertex 187.985 7 6
    endloop
  endfacet
  facet normal -0 0 1
    outer loop
      vertex 177.795 2.93929 6
      vertex 197.477 0 6
      vertex 187.985 7 6
    endloop
  endfacet
  facet normal -0 0 1
    outer loop
      vertex 177.568 2.75279 6
      vertex 197.477 0 6
      vertex 177.795 2.93929 6
    endloop
  endfacet
  facet normal -0 0 1
    outer loop
      vertex 177.309 2.6142 6
      vertex 197.477 0 6
      vertex 177.568 2.75279 6
    endloop
  endfacet
  facet normal -0 0 1
    outer loop
      vertex 177.027 2.52879 6
      vertex 197.477 0 6
      vertex 177.309 2.6142 6
    endloop
  endfacet
  facet normal -0 0 1
    outer loop
      vertex 176.735 2.5 6
      vertex 197.477 0 6
      vertex 177.027 2.52879 6
    endloop
  endfacet
  facet normal 0 0 1
    outer loop
      vertex 164.993 2.52879 6
      vertex 164.7 2.5 6
      vertex 176.735 2.5 6
    endloop
  endfacet
  facet normal 0 0 1
    outer loop
      vertex 60.0442 0 6
      vertex 197.477 0 6
      vertex 164.7 2.5 6
    endloop
  endfacet
  facet normal -0 0 1
    outer loop
      vertex 117.985 7 6
      vertex 164.408 2.52879 6
      vertex 127.485 7 6
    endloop
  endfacet
  facet normal 0 0 1
    outer loop
      vertex 117.985 7 6
      vertex 60.0442 0 6
      vertex 164.408 2.52879 6
    endloop
  endfacet
  facet normal 0 0 1
    outer loop
      vertex 145.985 7 6
      vertex 164.126 2.6142 6
      vertex 163.867 2.75279 6
    endloop
  endfacet
  facet normal 0 0 1
    outer loop
      vertex 145.985 7 6
      vertex 141.485 7 6
      vertex 164.126 2.6142 6
    endloop
  endfacet
  facet normal 0 0 1
    outer loop
      vertex 163.64 2.93929 6
      vertex 145.985 7 6
      vertex 163.867 2.75279 6
    endloop
  endfacet
  facet normal 0 0 1
    outer loop
      vertex 155.485 7 6
      vertex 163.64 2.93929 6
      vertex 163.453 3.1666 6
    endloop
  endfacet
  facet normal 0 0 1
    outer loop
      vertex 155.485 7 6
      vertex 145.985 7 6
      vertex 163.64 2.93929 6
    endloop
  endfacet
  facet normal 0 0 1
    outer loop
      vertex 155.485 7 6
      vertex 163.453 3.1666 6
      vertex 163.314 3.42599 6
    endloop
  endfacet
  facet normal 0 0 1
    outer loop
      vertex 163.229 3.7074 6
      vertex 159.985 7 6
      vertex 163.314 3.42599 6
    endloop
  endfacet
  facet normal 0 0 1
    outer loop
      vertex 163.2 4 6
      vertex 159.985 7 6
      vertex 163.229 3.7074 6
    endloop
  endfacet
  facet normal 0 0 1
    outer loop
      vertex 163.229 4.29259 6
      vertex 159.985 7 6
      vertex 163.2 4 6
    endloop
  endfacet
  facet normal 0 0 1
    outer loop
      vertex 163.314 4.57399 6
      vertex 159.985 7 6
      vertex 163.229 4.29259 6
    endloop
  endfacet
  facet normal 0 0 1
    outer loop
      vertex 163.453 4.83339 6
      vertex 159.985 7 6
      vertex 163.314 4.57399 6
    endloop
  endfacet
  facet normal 0 0 1
    outer loop
      vertex 163.64 5.0607 6
      vertex 159.985 7 6
      vertex 163.453 4.83339 6
    endloop
  endfacet
  facet normal 0 0 1
    outer loop
      vertex 163.867 5.24719 6
      vertex 159.985 7 6
      vertex 163.64 5.0607 6
    endloop
  endfacet
  facet normal 0 0 1
    outer loop
      vertex 159.985 8 6
      vertex 159.985 7 6
      vertex 163.867 5.24719 6
    endloop
  endfacet
  facet normal 0 0 1
    outer loop
      vertex 159.985 8 6
      vertex 164.126 5.38579 6
      vertex 164.408 5.47119 6
    endloop
  endfacet
  facet normal 0 0 1
    outer loop
      vertex 159.985 8 6
      vertex 163.867 5.24719 6
      vertex 164.126 5.38579 6
    endloop
  endfacet
  facet normal 0 0 1
    outer loop
      vertex 159.985 8 6
      vertex 164.408 5.47119 6
      vertex 164.7 5.5 6
    endloop
  endfacet
  facet normal 0 0 1
    outer loop
      vertex 169.485 8 6
      vertex 164.7 5.5 6
      vertex 164.993 5.47119 6
    endloop
  endfacet
  facet normal 0 0 1
    outer loop
      vertex 169.485 8 6
      vertex 164.993 5.47119 6
      vertex 165.274 5.38579 6
    endloop
  endfacet
  facet normal 0 0 1
    outer loop
      vertex 169.485 8 6
      vertex 165.274 5.38579 6
      vertex 165.534 5.24719 6
    endloop
  endfacet
  facet normal 0 0 1
    outer loop
      vertex 169.485 8 6
      vertex 165.534 5.24719 6
      vertex 169.485 7 6
    endloop
  endfacet
  facet normal -0 0 1
    outer loop
      vertex 165.534 5.24719 6
      vertex 165.761 5.0607 6
      vertex 169.485 7 6
    endloop
  endfacet
  facet normal -0 0 1
    outer loop
      vertex 165.761 5.0607 6
      vertex 165.947 4.83339 6
      vertex 169.485 7 6
    endloop
  endfacet
  facet normal 0 0 1
    outer loop
      vertex 169.485 7 6
      vertex 166.086 4.57399 6
      vertex 166.171 4.29259 6
    endloop
  endfacet
  facet normal 0 0 1
    outer loop
      vertex 166.171 3.7074 6
      vertex 175.264 3.7074 6
      vertex 169.485 7 6
    endloop
  endfacet
  facet normal 0 0 1
    outer loop
      vertex 175.349 3.42599 6
      vertex 175.264 3.7074 6
      vertex 166.171 3.7074 6
    endloop
  endfacet
  facet normal 0 0 1
    outer loop
      vertex 165.947 3.1666 6
      vertex 175.349 3.42599 6
      vertex 166.086 3.42599 6
    endloop
  endfacet
  facet normal 0 0 1
    outer loop
      vertex 175.488 3.1666 6
      vertex 175.349 3.42599 6
      vertex 165.947 3.1666 6
    endloop
  endfacet
  facet normal 0 0 1
    outer loop
      vertex 175.674 2.93929 6
      vertex 175.488 3.1666 6
      vertex 165.761 2.93929 6
    endloop
  endfacet
  facet normal 0 0 1
    outer loop
      vertex 175.674 2.93929 6
      vertex 165.761 2.93929 6
      vertex 165.534 2.75279 6
    endloop
  endfacet
  facet normal 0 0 1
    outer loop
      vertex 175.901 2.75279 6
      vertex 165.534 2.75279 6
      vertex 176.161 2.6142 6
    endloop
  endfacet
  facet normal 0 0 1
    outer loop
      vertex 165.534 2.75279 6
      vertex 165.274 2.6142 6
      vertex 176.161 2.6142 6
    endloop
  endfacet
  facet normal 0 0 1
    outer loop
      vertex 176.161 2.6142 6
      vertex 164.993 2.52879 6
      vertex 176.442 2.52879 6
    endloop
  endfacet
  facet normal 0 -1 0
    outer loop
      vertex 60.0442 1 0
      vertex 55.5442 1 6
      vertex 55.5442 1 0
    endloop
  endfacet
  facet normal 0 -1 0
    outer loop
      vertex 60.0442 1 0
      vertex 60.0442 1 6
      vertex 55.5442 1 6
    endloop
  endfacet
  facet normal -1 0 0
    outer loop
      vertex 60.0442 0 0
      vertex 60.0442 1 6
      vertex 60.0442 1 0
    endloop
  endfacet
  facet normal -1 0 0
    outer loop
      vertex 60.0442 0 0
      vertex 60.0442 0 6
      vertex 60.0442 1 6
    endloop
  endfacet
  facet normal 0 -1 0
    outer loop
      vertex 197.477 0 0
      vertex 60.0442 0 6
      vertex 60.0442 0 0
    endloop
  endfacet
  facet normal 0 -1 0
    outer loop
      vertex 197.477 0 0
      vertex 197.477 0 6
      vertex 60.0442 0 6
    endloop
  endfacet
  facet normal 0.540083 -0.841612 0
    outer loop
      vertex 206.735 5.94109 0
      vertex 197.477 0 6
      vertex 197.477 0 0
    endloop
  endfacet
  facet normal 0.540083 -0.841612 0
    outer loop
      vertex 206.735 5.94109 0
      vertex 206.735 5.94109 6
      vertex 197.477 0 6
    endloop
  endfacet
  facet normal 1 0 0
    outer loop
      vertex 206.735 8 0
      vertex 206.735 5.94109 6
      vertex 206.735 5.94109 0
    endloop
  endfacet
  facet normal 1 0 -0
    outer loop
      vertex 206.735 8 0
      vertex 206.735 8 6
      vertex 206.735 5.94109 6
    endloop
  endfacet
  facet normal 0 1 0
    outer loop
      vertex 201.985 8 0
      vertex 206.735 8 6
      vertex 206.735 8 0
    endloop
  endfacet
  facet normal 0 1 0
    outer loop
      vertex 201.985 8 0
      vertex 201.985 8 6
      vertex 206.735 8 6
    endloop
  endfacet
  facet normal -1 0 0
    outer loop
      vertex 201.985 7 0
      vertex 201.985 8 6
      vertex 201.985 8 0
    endloop
  endfacet
  facet normal -1 0 0
    outer loop
      vertex 201.985 7 0
      vertex 201.985 7 6
      vertex 201.985 8 6
    endloop
  endfacet
  facet normal 0 1 0
    outer loop
      vertex 197.485 7 0
      vertex 201.985 7 6
      vertex 201.985 7 0
    endloop
  endfacet
  facet normal 0 1 0
    outer loop
      vertex 197.485 7 0
      vertex 197.485 7 6
      vertex 201.985 7 6
    endloop
  endfacet
  facet normal 1 0 0
    outer loop
      vertex 197.485 8 0
      vertex 197.485 7 6
      vertex 197.485 7 0
    endloop
  endfacet
  facet normal 1 0 -0
    outer loop
      vertex 197.485 8 0
      vertex 197.485 8 6
      vertex 197.485 7 6
    endloop
  endfacet
  facet normal 0 1 0
    outer loop
      vertex 187.985 8 0
      vertex 197.485 8 6
      vertex 197.485 8 0
    endloop
  endfacet
  facet normal 0 1 0
    outer loop
      vertex 187.985 8 0
      vertex 187.985 8 6
      vertex 197.485 8 6
    endloop
  endfacet
  facet normal -1 0 0
    outer loop
      vertex 187.985 7 0
      vertex 187.985 8 6
      vertex 187.985 8 0
    endloop
  endfacet
  facet normal -1 0 0
    outer loop
      vertex 187.985 7 0
      vertex 187.985 7 6
      vertex 187.985 8 6
    endloop
  endfacet
  facet normal 0 1 0
    outer loop
      vertex 183.485 7 0
      vertex 187.985 7 6
      vertex 187.985 7 0
    endloop
  endfacet
  facet normal 0 1 0
    outer loop
      vertex 183.485 7 0
      vertex 183.485 7 6
      vertex 187.985 7 6
    endloop
  endfacet
  facet normal 1 0 0
    outer loop
      vertex 183.485 8 0
      vertex 183.485 7 6
      vertex 183.485 7 0
    endloop
  endfacet
  facet normal 1 0 -0
    outer loop
      vertex 183.485 8 0
      vertex 183.485 8 6
      vertex 183.485 7 6
    endloop
  endfacet
  facet normal 0 1 0
    outer loop
      vertex 173.985 8 0
      vertex 183.485 8 6
      vertex 183.485 8 0
    endloop
  endfacet
  facet normal 0 1 0
    outer loop
      vertex 173.985 8 0
      vertex 173.985 8 6
      vertex 183.485 8 6
    endloop
  endfacet
  facet normal -1 0 0
    outer loop
      vertex 173.985 7 0
      vertex 173.985 8 6
      vertex 173.985 8 0
    endloop
  endfacet
  facet normal -1 0 0
    outer loop
      vertex 173.985 7 0
      vertex 173.985 7 6
      vertex 173.985 8 6
    endloop
  endfacet
  facet normal 0 1 0
    outer loop
      vertex 169.485 7 0
      vertex 173.985 7 6
      vertex 173.985 7 0
    endloop
  endfacet
  facet normal 0 1 0
    outer loop
      vertex 169.485 7 0
      vertex 169.485 7 6
      vertex 173.985 7 6
    endloop
  endfacet
  facet normal 1 0 0
    outer loop
      vertex 169.485 8 0
      vertex 169.485 7 6
      vertex 169.485 7 0
    endloop
  endfacet
  facet normal 1 0 -0
    outer loop
      vertex 169.485 8 0
      vertex 169.485 8 6
      vertex 169.485 7 6
    endloop
  endfacet
  facet normal 0 1 0
    outer loop
      vertex 159.985 8 0
      vertex 169.485 8 6
      vertex 169.485 8 0
    endloop
  endfacet
  facet normal 0 1 0
    outer loop
      vertex 159.985 8 0
      vertex 159.985 8 6
      vertex 169.485 8 6
    endloop
  endfacet
  facet normal -1 0 0
    outer loop
      vertex 159.985 7 0
      vertex 159.985 8 6
      vertex 159.985 8 0
    endloop
  endfacet
  facet normal -1 0 0
    outer loop
      vertex 159.985 7 0
      vertex 159.985 7 6
      vertex 159.985 8 6
    endloop
  endfacet
  facet normal 0 1 0
    outer loop
      vertex 155.485 7 0
      vertex 159.985 7 6
      vertex 159.985 7 0
    endloop
  endfacet
  facet normal 0 1 0
    outer loop
      vertex 155.485 7 0
      vertex 155.485 7 6
      vertex 159.985 7 6
    endloop
  endfacet
  facet normal 1 0 0
    outer loop
      vertex 155.485 8 0
      vertex 155.485 7 6
      vertex 155.485 7 0
    endloop
  endfacet
  facet normal 1 0 -0
    outer loop
      vertex 155.485 8 0
      vertex 155.485 8 6
      vertex 155.485 7 6
    endloop
  endfacet
  facet normal 0 1 0
    outer loop
      vertex 145.985 8 0
      vertex 155.485 8 6
      vertex 155.485 8 0
    endloop
  endfacet
  facet normal 0 1 0
    outer loop
      vertex 145.985 8 0
      vertex 145.985 8 6
      vertex 155.485 8 6
    endloop
  endfacet
  facet normal -1 0 0
    outer loop
      vertex 145.985 7 0
      vertex 145.985 8 6
      vertex 145.985 8 0
    endloop
  endfacet
  facet normal -1 0 0
    outer loop
      vertex 145.985 7 0
      vertex 145.985 7 6
      vertex 145.985 8 6
    endloop
  endfacet
  facet normal 0 1 0
    outer loop
      vertex 141.485 7 0
      vertex 145.985 7 6
      vertex 145.985 7 0
    endloop
  endfacet
  facet normal 0 1 0
    outer loop
      vertex 141.485 7 0
      vertex 141.485 7 6
      vertex 145.985 7 6
    endloop
  endfacet
  facet normal 1 0 0
    outer loop
      vertex 141.485 8 0
      vertex 141.485 7 6
      vertex 141.485 7 0
    endloop
  endfacet
  facet normal 1 0 -0
    outer loop
      vertex 141.485 8 0
      vertex 141.485 8 6
      vertex 141.485 7 6
    endloop
  endfacet
  facet normal 0 1 0
    outer loop
      vertex 131.985 8 0
      vertex 141.485 8 6
      vertex 141.485 8 0
    endloop
  endfacet
  facet normal 0 1 0
    outer loop
      vertex 131.985 8 0
      vertex 131.985 8 6
      vertex 141.485 8 6
    endloop
  endfacet
  facet normal -1 0 0
    outer loop
      vertex 131.985 7 0
      vertex 131.985 8 6
      vertex 131.985 8 0
    endloop
  endfacet
  facet normal -1 0 0
    outer loop
      vertex 131.985 7 0
      vertex 131.985 7 6
      vertex 131.985 8 6
    endloop
  endfacet
  facet normal 0 1 0
    outer loop
      vertex 127.485 7 0
      vertex 131.985 7 6
      vertex 131.985 7 0
    endloop
  endfacet
  facet normal 0 1 0
    outer loop
      vertex 127.485 7 0
      vertex 127.485 7 6
      vertex 131.985 7 6
    endloop
  endfacet
  facet normal 1 0 0
    outer loop
      vertex 127.485 8 0
      vertex 127.485 7 6
      vertex 127.485 7 0
    endloop
  endfacet
  facet normal 1 0 -0
    outer loop
      vertex 127.485 8 0
      vertex 127.485 8 6
      vertex 127.485 7 6
    endloop
  endfacet
  facet normal 0 1 0
    outer loop
      vertex 117.985 8 0
      vertex 127.485 8 6
      vertex 127.485 8 0
    endloop
  endfacet
  facet normal 0 1 0
    outer loop
      vertex 117.985 8 0
      vertex 117.985 8 6
      vertex 127.485 8 6
    endloop
  endfacet
  facet normal -1 0 0
    outer loop
      vertex 117.985 7 0
      vertex 117.985 8 6
      vertex 117.985 8 0
    endloop
  endfacet
  facet normal -1 0 0
    outer loop
      vertex 117.985 7 0
      vertex 117.985 7 6
      vertex 117.985 8 6
    endloop
  endfacet
  facet normal 0 1 0
    outer loop
      vertex 113.485 7 0
      vertex 117.985 7 6
      vertex 117.985 7 0
    endloop
  endfacet
  facet normal 0 1 0
    outer loop
      vertex 113.485 7 0
      vertex 113.485 7 6
      vertex 117.985 7 6
    endloop
  endfacet
  facet normal 1 0 0
    outer loop
      vertex 113.485 8 0
      vertex 113.485 7 6
      vertex 113.485 7 0
    endloop
  endfacet
  facet normal 1 0 -0
    outer loop
      vertex 113.485 8 0
      vertex 113.485 8 6
      vertex 113.485 7 6
    endloop
  endfacet
  facet normal 0 1 0
    outer loop
      vertex 103.985 8 0
      vertex 113.485 8 6
      vertex 113.485 8 0
    endloop
  endfacet
  facet normal 0 1 0
    outer loop
      vertex 103.985 8 0
      vertex 103.985 8 6
      vertex 113.485 8 6
    endloop
  endfacet
  facet normal -1 0 0
    outer loop
      vertex 103.985 7 0
      vertex 103.985 8 6
      vertex 103.985 8 0
    endloop
  endfacet
  facet normal -1 0 0
    outer loop
      vertex 103.985 7 0
      vertex 103.985 7 6
      vertex 103.985 8 6
    endloop
  endfacet
  facet normal 0 1 0
    outer loop
      vertex 99.4848 7 0
      vertex 103.985 7 6
      vertex 103.985 7 0
    endloop
  endfacet
  facet normal 0 1 0
    outer loop
      vertex 99.4848 7 0
      vertex 99.4848 7 6
      vertex 103.985 7 6
    endloop
  endfacet
  facet normal 1 0 0
    outer loop
      vertex 99.4848 8 0
      vertex 99.4848 7 6
      vertex 99.4848 7 0
    endloop
  endfacet
  facet normal 1 0 -0
    outer loop
      vertex 99.4848 8 0
      vertex 99.4848 8 6
      vertex 99.4848 7 6
    endloop
  endfacet
  facet normal 0 1 0
    outer loop
      vertex 89.9848 8 0
      vertex 99.4848 8 6
      vertex 99.4848 8 0
    endloop
  endfacet
  facet normal 0 1 0
    outer loop
      vertex 89.9848 8 0
      vertex 89.9848 8 6
      vertex 99.4848 8 6
    endloop
  endfacet
  facet normal -1 0 0
    outer loop
      vertex 89.9848 7 0
      vertex 89.9848 8 6
      vertex 89.9848 8 0
    endloop
  endfacet
  facet normal -1 0 0
    outer loop
      vertex 89.9848 7 0
      vertex 89.9848 7 6
      vertex 89.9848 8 6
    endloop
  endfacet
  facet normal 0 1 0
    outer loop
      vertex 85.4848 7 0
      vertex 89.9848 7 6
      vertex 89.9848 7 0
    endloop
  endfacet
  facet normal 0 1 0
    outer loop
      vertex 85.4848 7 0
      vertex 85.4848 7 6
      vertex 89.9848 7 6
    endloop
  endfacet
  facet normal 1 0 0
    outer loop
      vertex 85.4848 8 0
      vertex 85.4848 7 6
      vertex 85.4848 7 0
    endloop
  endfacet
  facet normal 1 0 -0
    outer loop
      vertex 85.4848 8 0
      vertex 85.4848 8 6
      vertex 85.4848 7 6
    endloop
  endfacet
  facet normal 0 1 0
    outer loop
      vertex 75.9848 8 0
      vertex 85.4848 8 6
      vertex 85.4848 8 0
    endloop
  endfacet
  facet normal 0 1 0
    outer loop
      vertex 75.9848 8 0
      vertex 75.9848 8 6
      vertex 85.4848 8 6
    endloop
  endfacet
  facet normal -1 0 0
    outer loop
      vertex 75.9848 7 0
      vertex 75.9848 8 6
      vertex 75.9848 8 0
    endloop
  endfacet
  facet normal -1 0 0
    outer loop
      vertex 75.9848 7 0
      vertex 75.9848 7 6
      vertex 75.9848 8 6
    endloop
  endfacet
  facet normal 0 1 0
    outer loop
      vertex 71.4848 7 0
      vertex 75.9848 7 6
      vertex 75.9848 7 0
    endloop
  endfacet
  facet normal 0 1 0
    outer loop
      vertex 71.4848 7 0
      vertex 71.4848 7 6
      vertex 75.9848 7 6
    endloop
  endfacet
  facet normal 1 0 0
    outer loop
      vertex 71.4848 8 0
      vertex 71.4848 7 6
      vertex 71.4848 7 0
    endloop
  endfacet
  facet normal 1 0 -0
    outer loop
      vertex 71.4848 8 0
      vertex 71.4848 8 6
      vertex 71.4848 7 6
    endloop
  endfacet
  facet normal 0 1 0
    outer loop
      vertex 61.9848 8 0
      vertex 71.4848 8 6
      vertex 71.4848 8 0
    endloop
  endfacet
  facet normal 0 1 0
    outer loop
      vertex 61.9848 8 0
      vertex 61.9848 8 6
      vertex 71.4848 8 6
    endloop
  endfacet
  facet normal -1 0 0
    outer loop
      vertex 61.9848 7 0
      vertex 61.9848 8 6
      vertex 61.9848 8 0
    endloop
  endfacet
  facet normal -1 0 0
    outer loop
      vertex 61.9848 7 0
      vertex 61.9848 7 6
      vertex 61.9848 8 6
    endloop
  endfacet
  facet normal 0 1 0
    outer loop
      vertex 57.4848 7 0
      vertex 61.9848 7 6
      vertex 61.9848 7 0
    endloop
  endfacet
  facet normal 0 1 0
    outer loop
      vertex 57.4848 7 0
      vertex 57.4848 7 6
      vertex 61.9848 7 6
    endloop
  endfacet
  facet normal 1 0 0
    outer loop
      vertex 57.4848 8 0
      vertex 57.4848 7 6
      vertex 57.4848 7 0
    endloop
  endfacet
  facet normal 1 0 -0
    outer loop
      vertex 57.4848 8 0
      vertex 57.4848 8 6
      vertex 57.4848 7 6
    endloop
  endfacet
  facet normal 0 1 0
    outer loop
      vertex 47.9848 8 0
      vertex 57.4848 8 6
      vertex 57.4848 8 0
    endloop
  endfacet
  facet normal 0 1 0
    outer loop
      vertex 47.9848 8 0
      vertex 47.9848 8 6
      vertex 57.4848 8 6
    endloop
  endfacet
  facet normal -1 0 0
    outer loop
      vertex 47.9848 7 0
      vertex 47.9848 8 6
      vertex 47.9848 8 0
    endloop
  endfacet
  facet normal -1 0 0
    outer loop
      vertex 47.9848 7 0
      vertex 47.9848 7 6
      vertex 47.9848 8 6
    endloop
  endfacet
  facet normal 0 1 0
    outer loop
      vertex 43.4848 7 0
      vertex 47.9848 7 6
      vertex 47.9848 7 0
    endloop
  endfacet
  facet normal 0 1 0
    outer loop
      vertex 43.4848 7 0
      vertex 43.4848 7 6
      vertex 47.9848 7 6
    endloop
  endfacet
  facet normal 1 0 0
    outer loop
      vertex 43.4848 8 0
      vertex 43.4848 7 6
      vertex 43.4848 7 0
    endloop
  endfacet
  facet normal 1 0 -0
    outer loop
      vertex 43.4848 8 0
      vertex 43.4848 8 6
      vertex 43.4848 7 6
    endloop
  endfacet
  facet normal 0 1 0
    outer loop
      vertex 33.9848 8 0
      vertex 43.4848 8 6
      vertex 43.4848 8 0
    endloop
  endfacet
  facet normal 0 1 0
    outer loop
      vertex 33.9848 8 0
      vertex 33.9848 8 6
      vertex 43.4848 8 6
    endloop
  endfacet
  facet normal -1 0 0
    outer loop
      vertex 33.9848 7 0
      vertex 33.9848 8 6
      vertex 33.9848 8 0
    endloop
  endfacet
  facet normal -1 0 0
    outer loop
      vertex 33.9848 7 0
      vertex 33.9848 7 6
      vertex 33.9848 8 6
    endloop
  endfacet
  facet normal 0 1 0
    outer loop
      vertex 29.4848 7 0
      vertex 33.9848 7 6
      vertex 33.9848 7 0
    endloop
  endfacet
  facet normal 0 1 0
    outer loop
      vertex 29.4848 7 0
      vertex 29.4848 7 6
      vertex 33.9848 7 6
    endloop
  endfacet
  facet normal 1 0 0
    outer loop
      vertex 29.4848 8 0
      vertex 29.4848 7 6
      vertex 29.4848 7 0
    endloop
  endfacet
  facet normal 1 0 -0
    outer loop
      vertex 29.4848 8 0
      vertex 29.4848 8 6
      vertex 29.4848 7 6
    endloop
  endfacet
  facet normal 0 1 0
    outer loop
      vertex 19.9848 8 0
      vertex 29.4848 8 6
      vertex 29.4848 8 0
    endloop
  endfacet
  facet normal 0 1 0
    outer loop
      vertex 19.9848 8 0
      vertex 19.9848 8 6
      vertex 29.4848 8 6
    endloop
  endfacet
  facet normal -1 0 0
    outer loop
      vertex 19.9848 7 0
      vertex 19.9848 8 6
      vertex 19.9848 8 0
    endloop
  endfacet
  facet normal -1 0 0
    outer loop
      vertex 19.9848 7 0
      vertex 19.9848 7 6
      vertex 19.9848 8 6
    endloop
  endfacet
  facet normal 0 1 0
    outer loop
      vertex 15.4848 7 0
      vertex 19.9848 7 6
      vertex 19.9848 7 0
    endloop
  endfacet
  facet normal 0 1 0
    outer loop
      vertex 15.4848 7 0
      vertex 15.4848 7 6
      vertex 19.9848 7 6
    endloop
  endfacet
  facet normal 1 0 0
    outer loop
      vertex 15.4848 8 0
      vertex 15.4848 7 6
      vertex 15.4848 7 0
    endloop
  endfacet
  facet normal 1 0 -0
    outer loop
      vertex 15.4848 8 0
      vertex 15.4848 8 6
      vertex 15.4848 7 6
    endloop
  endfacet
  facet normal 0 1 0
    outer loop
      vertex 4.84819 8 0
      vertex 15.4848 8 6
      vertex 15.4848 8 0
    endloop
  endfacet
  facet normal 0 1 0
    outer loop
      vertex 4.84819 8 0
      vertex 4.84819 8 6
      vertex 15.4848 8 6
    endloop
  endfacet
  facet normal -0.841588 -0.540121 0
    outer loop
      vertex 6.7923 4.97079 0
      vertex 4.84819 8 6
      vertex 4.84819 8 0
    endloop
  endfacet
  facet normal -0.841588 -0.540121 0
    outer loop
      vertex 6.7923 4.97079 0
      vertex 6.7923 4.97079 6
      vertex 4.84819 8 6
    endloop
  endfacet
  facet normal -0.540101 0.8416 0
    outer loop
      vertex 5.27959 4 0
      vertex 6.7923 4.97079 6
      vertex 6.7923 4.97079 0
    endloop
  endfacet
  facet normal -0.540101 0.8416 0
    outer loop
      vertex 5.27959 4 0
      vertex 5.27959 4 6
      vertex 6.7923 4.97079 6
    endloop
  endfacet
  facet normal -0.750741 -0.660596 0
    outer loop
      vertex 8.79929 0 0
      vertex 5.27959 4 6
      vertex 5.27959 4 0
    endloop
  endfacet
  facet normal -0.750741 -0.660596 0
    outer loop
      vertex 8.79929 0 0
      vertex 8.79929 0 6
      vertex 5.27959 4 6
    endloop
  endfacet
  facet normal 0 -1 0
    outer loop
      vertex 55.5442 0 0
      vertex 8.79929 0 6
      vertex 8.79929 0 0
    endloop
  endfacet
  facet normal 0 -1 0
    outer loop
      vertex 55.5442 0 0
      vertex 55.5442 0 6
      vertex 8.79929 0 6
    endloop
  endfacet
  facet normal 1 0 0
    outer loop
      vertex 55.5442 1 0
      vertex 55.5442 0 6
      vertex 55.5442 0 0
    endloop
  endfacet
  facet normal 1 0 -0
    outer loop
      vertex 55.5442 1 0
      vertex 55.5442 1 6
      vertex 55.5442 0 6
    endloop
  endfacet
  facet normal 0.290813 0.95678 -0
    outer loop
      vertex 176.161 2.6142 0
      vertex 176.161 2.6142 6
      vertex 176.442 2.52879 0
    endloop
  endfacet
  facet normal 0.290813 0.95678 0
    outer loop
      vertex 176.442 2.52879 6
      vertex 176.442 2.52879 0
      vertex 176.161 2.6142 6
    endloop
  endfacet
  facet normal 0.470386 0.882461 -0
    outer loop
      vertex 175.901 2.75279 0
      vertex 175.901 2.75279 6
      vertex 176.161 2.6142 0
    endloop
  endfacet
  facet normal 0.470386 0.882461 0
    outer loop
      vertex 176.161 2.6142 6
      vertex 176.161 2.6142 0
      vertex 175.901 2.75279 6
    endloop
  endfacet
  facet normal 0.634812 0.772667 -0
    outer loop
      vertex 175.674 2.93929 0
      vertex 175.674 2.93929 6
      vertex 175.901 2.75279 0
    endloop
  endfacet
  facet normal 0.634812 0.772667 0
    outer loop
      vertex 175.901 2.75279 6
      vertex 175.901 2.75279 0
      vertex 175.674 2.93929 6
    endloop
  endfacet
  facet normal 0.773925 0.633277 -0
    outer loop
      vertex 175.488 3.1666 0
      vertex 175.488 3.1666 6
      vertex 175.674 2.93929 0
    endloop
  endfacet
  facet normal 0.773925 0.633277 0
    outer loop
      vertex 175.674 2.93929 6
      vertex 175.674 2.93929 0
      vertex 175.488 3.1666 6
    endloop
  endfacet
  facet normal 0.881422 0.47233 -0
    outer loop
      vertex 175.349 3.42599 0
      vertex 175.349 3.42599 6
      vertex 175.488 3.1666 0
    endloop
  endfacet
  facet normal 0.881422 0.47233 0
    outer loop
      vertex 175.488 3.1666 6
      vertex 175.488 3.1666 0
      vertex 175.349 3.42599 6
    endloop
  endfacet
  facet normal 0.957284 0.289148 -0
    outer loop
      vertex 175.264 3.7074 0
      vertex 175.264 3.7074 6
      vertex 175.349 3.42599 0
    endloop
  endfacet
  facet normal 0.957284 0.289148 0
    outer loop
      vertex 175.349 3.42599 6
      vertex 175.349 3.42599 0
      vertex 175.264 3.7074 6
    endloop
  endfacet
  facet normal 0.995124 0.0986282 -0
    outer loop
      vertex 175.235 4 0
      vertex 175.235 4 6
      vertex 175.264 3.7074 0
    endloop
  endfacet
  facet normal 0.995124 0.0986282 0
    outer loop
      vertex 175.264 3.7074 6
      vertex 175.264 3.7074 0
      vertex 175.235 4 6
    endloop
  endfacet
  facet normal 0.995124 -0.0986315 0
    outer loop
      vertex 175.264 4.29259 0
      vertex 175.264 4.29259 6
      vertex 175.235 4 0
    endloop
  endfacet
  facet normal 0.995124 -0.0986315 0
    outer loop
      vertex 175.235 4 6
      vertex 175.235 4 0
      vertex 175.264 4.29259 6
    endloop
  endfacet
  facet normal 0.957282 -0.289158 0
    outer loop
      vertex 175.349 4.57399 0
      vertex 175.349 4.57399 6
      vertex 175.264 4.29259 0
    endloop
  endfacet
  facet normal 0.957282 -0.289158 0
    outer loop
      vertex 175.264 4.29259 6
      vertex 175.264 4.29259 0
      vertex 175.349 4.57399 6
    endloop
  endfacet
  facet normal 0.881429 -0.472316 0
    outer loop
      vertex 175.488 4.83339 0
      vertex 175.488 4.83339 6
      vertex 175.349 4.57399 0
    endloop
  endfacet
  facet normal 0.881429 -0.472316 0
    outer loop
      vertex 175.349 4.57399 6
      vertex 175.349 4.57399 0
      vertex 175.488 4.83339 6
    endloop
  endfacet
  facet normal 0.773925 -0.633277 0
    outer loop
      vertex 175.674 5.0607 0
      vertex 175.674 5.0607 6
      vertex 175.488 4.83339 0
    endloop
  endfacet
  facet normal 0.773925 -0.633277 0
    outer loop
      vertex 175.488 4.83339 6
      vertex 175.488 4.83339 0
      vertex 175.674 5.0607 6
    endloop
  endfacet
  facet normal 0.634792 -0.772683 0
    outer loop
      vertex 175.901 5.24719 0
      vertex 175.901 5.24719 6
      vertex 175.674 5.0607 0
    endloop
  endfacet
  facet normal 0.634792 -0.772683 0
    outer loop
      vertex 175.674 5.0607 6
      vertex 175.674 5.0607 0
      vertex 175.901 5.24719 6
    endloop
  endfacet
  facet normal 0.470412 -0.882447 0
    outer loop
      vertex 176.161 5.38579 0
      vertex 176.161 5.38579 6
      vertex 175.901 5.24719 0
    endloop
  endfacet
  facet normal 0.470412 -0.882447 0
    outer loop
      vertex 175.901 5.24719 6
      vertex 175.901 5.24719 0
      vertex 176.161 5.38579 6
    endloop
  endfacet
  facet normal 0.290782 -0.956789 0
    outer loop
      vertex 176.442 5.47119 0
      vertex 176.442 5.47119 6
      vertex 176.161 5.38579 0
    endloop
  endfacet
  facet normal 0.290782 -0.956789 0
    outer loop
      vertex 176.161 5.38579 6
      vertex 176.161 5.38579 0
      vertex 176.442 5.47119 6
    endloop
  endfacet
  facet normal 0.0978557 -0.995201 0
    outer loop
      vertex 176.735 5.5 0
      vertex 176.735 5.5 6
      vertex 176.442 5.47119 0
    endloop
  endfacet
  facet normal 0.0978557 -0.995201 0
    outer loop
      vertex 176.442 5.47119 6
      vertex 176.442 5.47119 0
      vertex 176.735 5.5 6
    endloop
  endfacet
  facet normal -0.0981876 -0.995168 0
    outer loop
      vertex 177.027 5.47119 0
      vertex 177.027 5.47119 6
      vertex 176.735 5.5 0
    endloop
  endfacet
  facet normal -0.0981876 -0.995168 -0
    outer loop
      vertex 176.735 5.5 6
      vertex 176.735 5.5 0
      vertex 177.027 5.47119 6
    endloop
  endfacet
  facet normal -0.289838 -0.957076 0
    outer loop
      vertex 177.309 5.38579 0
      vertex 177.309 5.38579 6
      vertex 177.027 5.47119 0
    endloop
  endfacet
  facet normal -0.289838 -0.957076 -0
    outer loop
      vertex 177.027 5.47119 6
      vertex 177.027 5.47119 0
      vertex 177.309 5.38579 6
    endloop
  endfacet
  facet normal -0.471825 -0.881692 0
    outer loop
      vertex 177.568 5.24719 0
      vertex 177.568 5.24719 6
      vertex 177.309 5.38579 0
    endloop
  endfacet
  facet normal -0.471825 -0.881692 -0
    outer loop
      vertex 177.309 5.38579 6
      vertex 177.309 5.38579 0
      vertex 177.568 5.24719 6
    endloop
  endfacet
  facet normal -0.634792 -0.772683 0
    outer loop
      vertex 177.795 5.0607 0
      vertex 177.795 5.0607 6
      vertex 177.568 5.24719 0
    endloop
  endfacet
  facet normal -0.634792 -0.772683 -0
    outer loop
      vertex 177.568 5.24719 6
      vertex 177.568 5.24719 0
      vertex 177.795 5.0607 6
    endloop
  endfacet
  facet normal -0.772258 -0.635309 0
    outer loop
      vertex 177.982 4.83339 0
      vertex 177.982 4.83339 6
      vertex 177.795 5.0607 0
    endloop
  endfacet
  facet normal -0.772258 -0.635309 -0
    outer loop
      vertex 177.795 5.0607 6
      vertex 177.795 5.0607 0
      vertex 177.982 4.83339 6
    endloop
  endfacet
  facet normal -0.881429 -0.472316 0
    outer loop
      vertex 178.121 4.57399 0
      vertex 178.121 4.57399 6
      vertex 177.982 4.83339 0
    endloop
  endfacet
  facet normal -0.881429 -0.472316 -0
    outer loop
      vertex 177.982 4.83339 6
      vertex 177.982 4.83339 0
      vertex 178.121 4.57399 6
    endloop
  endfacet
  facet normal -0.957282 -0.289158 0
    outer loop
      vertex 178.206 4.29259 0
      vertex 178.206 4.29259 6
      vertex 178.121 4.57399 0
    endloop
  endfacet
  facet normal -0.957282 -0.289158 -0
    outer loop
      vertex 178.121 4.57399 6
      vertex 178.121 4.57399 0
      vertex 178.206 4.29259 6
    endloop
  endfacet
  facet normal -0.995124 -0.0986315 0
    outer loop
      vertex 178.235 4 0
      vertex 178.235 4 6
      vertex 178.206 4.29259 0
    endloop
  endfacet
  facet normal -0.995124 -0.0986315 -0
    outer loop
      vertex 178.206 4.29259 6
      vertex 178.206 4.29259 0
      vertex 178.235 4 6
    endloop
  endfacet
  facet normal -0.995124 0.0986282 0
    outer loop
      vertex 178.206 3.7074 0
      vertex 178.206 3.7074 6
      vertex 178.235 4 0
    endloop
  endfacet
  facet normal -0.995124 0.0986282 0
    outer loop
      vertex 178.235 4 6
      vertex 178.235 4 0
      vertex 178.206 3.7074 6
    endloop
  endfacet
  facet normal -0.957284 0.289148 0
    outer loop
      vertex 178.121 3.42599 0
      vertex 178.121 3.42599 6
      vertex 178.206 3.7074 0
    endloop
  endfacet
  facet normal -0.957284 0.289148 0
    outer loop
      vertex 178.206 3.7074 6
      vertex 178.206 3.7074 0
      vertex 178.121 3.42599 6
    endloop
  endfacet
  facet normal -0.881422 0.47233 0
    outer loop
      vertex 177.982 3.1666 0
      vertex 177.982 3.1666 6
      vertex 178.121 3.42599 0
    endloop
  endfacet
  facet normal -0.881422 0.47233 0
    outer loop
      vertex 178.121 3.42599 6
      vertex 178.121 3.42599 0
      vertex 177.982 3.1666 6
    endloop
  endfacet
  facet normal -0.772258 0.635309 0
    outer loop
      vertex 177.795 2.93929 0
      vertex 177.795 2.93929 6
      vertex 177.982 3.1666 0
    endloop
  endfacet
  facet normal -0.772258 0.635309 0
    outer loop
      vertex 177.982 3.1666 6
      vertex 177.982 3.1666 0
      vertex 177.795 2.93929 6
    endloop
  endfacet
  facet normal -0.634812 0.772667 0
    outer loop
      vertex 177.568 2.75279 0
      vertex 177.568 2.75279 6
      vertex 177.795 2.93929 0
    endloop
  endfacet
  facet normal -0.634812 0.772667 0
    outer loop
      vertex 177.795 2.93929 6
      vertex 177.795 2.93929 0
      vertex 177.568 2.75279 6
    endloop
  endfacet
  facet normal -0.471798 0.881707 0
    outer loop
      vertex 177.309 2.6142 0
      vertex 177.309 2.6142 6
      vertex 177.568 2.75279 0
    endloop
  endfacet
  facet normal -0.471798 0.881707 0
    outer loop
      vertex 177.568 2.75279 6
      vertex 177.568 2.75279 0
      vertex 177.309 2.6142 6
    endloop
  endfacet
  facet normal -0.289869 0.957066 0
    outer loop
      vertex 177.027 2.52879 0
      vertex 177.027 2.52879 6
      vertex 177.309 2.6142 0
    endloop
  endfacet
  facet normal -0.289869 0.957066 0
    outer loop
      vertex 177.309 2.6142 6
      vertex 177.309 2.6142 0
      vertex 177.027 2.52879 6
    endloop
  endfacet
  facet normal -0.0981201 0.995175 0
    outer loop
      vertex 176.735 2.5 0
      vertex 176.735 2.5 6
      vertex 177.027 2.52879 0
    endloop
  endfacet
  facet normal -0.0981201 0.995175 0
    outer loop
      vertex 177.027 2.52879 6
      vertex 177.027 2.52879 0
      vertex 176.735 2.5 6
    endloop
  endfacet
  facet normal 0.0977885 0.995207 -0
    outer loop
      vertex 176.442 2.52879 0
      vertex 176.442 2.52879 6
      vertex 176.735 2.5 0
    endloop
  endfacet
  facet normal 0.0977885 0.995207 0
    outer loop
      vertex 176.735 2.5 6
      vertex 176.735 2.5 0
      vertex 176.442 2.52879 6
    endloop
  endfacet
  facet normal 0.289869 0.957066 -0
    outer loop
      vertex 164.126 2.6142 0
      vertex 164.126 2.6142 6
      vertex 164.408 2.52879 0
    endloop
  endfacet
  facet normal 0.289869 0.957066 0
    outer loop
      vertex 164.408 2.52879 6
      vertex 164.408 2.52879 0
      vertex 164.126 2.6142 6
    endloop
  endfacet
  facet normal 0.471798 0.881707 -0
    outer loop
      vertex 163.867 2.75279 0
      vertex 163.867 2.75279 6
      vertex 164.126 2.6142 0
    endloop
  endfacet
  facet normal 0.471798 0.881707 0
    outer loop
      vertex 164.126 2.6142 6
      vertex 164.126 2.6142 0
      vertex 163.867 2.75279 6
    endloop
  endfacet
  facet normal 0.634812 0.772667 -0
    outer loop
      vertex 163.64 2.93929 0
      vertex 163.64 2.93929 6
      vertex 163.867 2.75279 0
    endloop
  endfacet
  facet normal 0.634812 0.772667 0
    outer loop
      vertex 163.867 2.75279 6
      vertex 163.867 2.75279 0
      vertex 163.64 2.93929 6
    endloop
  endfacet
  facet normal 0.772258 0.635309 -0
    outer loop
      vertex 163.453 3.1666 0
      vertex 163.453 3.1666 6
      vertex 163.64 2.93929 0
    endloop
  endfacet
  facet normal 0.772258 0.635309 0
    outer loop
      vertex 163.64 2.93929 6
      vertex 163.64 2.93929 0
      vertex 163.453 3.1666 6
    endloop
  endfacet
  facet normal 0.881422 0.47233 -0
    outer loop
      vertex 163.314 3.42599 0
      vertex 163.314 3.42599 6
      vertex 163.453 3.1666 0
    endloop
  endfacet
  facet normal 0.881422 0.47233 0
    outer loop
      vertex 163.453 3.1666 6
      vertex 163.453 3.1666 0
      vertex 163.314 3.42599 6
    endloop
  endfacet
  facet normal 0.957284 0.289148 -0
    outer loop
      vertex 163.229 3.7074 0
      vertex 163.229 3.7074 6
      vertex 163.314 3.42599 0
    endloop
  endfacet
  facet normal 0.957284 0.289148 0
    outer loop
      vertex 163.314 3.42599 6
      vertex 163.314 3.42599 0
      vertex 163.229 3.7074 6
    endloop
  endfacet
  facet normal 0.995124 0.0986282 -0
    outer loop
      vertex 163.2 4 0
      vertex 163.2 4 6
      vertex 163.229 3.7074 0
    endloop
  endfacet
  facet normal 0.995124 0.0986282 0
    outer loop
      vertex 163.229 3.7074 6
      vertex 163.229 3.7074 0
      vertex 163.2 4 6
    endloop
  endfacet
  facet normal 0.995124 -0.0986315 0
    outer loop
      vertex 163.229 4.29259 0
      vertex 163.229 4.29259 6
      vertex 163.2 4 0
    endloop
  endfacet
  facet normal 0.995124 -0.0986315 0
    outer loop
      vertex 163.2 4 6
      vertex 163.2 4 0
      vertex 163.229 4.29259 6
    endloop
  endfacet
  facet normal 0.957282 -0.289158 0
    outer loop
      vertex 163.314 4.57399 0
      vertex 163.314 4.57399 6
      vertex 163.229 4.29259 0
    endloop
  endfacet
  facet normal 0.957282 -0.289158 0
    outer loop
      vertex 163.229 4.29259 6
      vertex 163.229 4.29259 0
      vertex 163.314 4.57399 6
    endloop
  endfacet
  facet normal 0.881429 -0.472316 0
    outer loop
      vertex 163.453 4.83339 0
      vertex 163.453 4.83339 6
      vertex 163.314 4.57399 0
    endloop
  endfacet
  facet normal 0.881429 -0.472316 0
    outer loop
      vertex 163.314 4.57399 6
      vertex 163.314 4.57399 0
      vertex 163.453 4.83339 6
    endloop
  endfacet
  facet normal 0.772258 -0.635309 0
    outer loop
      vertex 163.64 5.0607 0
      vertex 163.64 5.0607 6
      vertex 163.453 4.83339 0
    endloop
  endfacet
  facet normal 0.772258 -0.635309 0
    outer loop
      vertex 163.453 4.83339 6
      vertex 163.453 4.83339 0
      vertex 163.64 5.0607 6
    endloop
  endfacet
  facet normal 0.634792 -0.772683 0
    outer loop
      vertex 163.867 5.24719 0
      vertex 163.867 5.24719 6
      vertex 163.64 5.0607 0
    endloop
  endfacet
  facet normal 0.634792 -0.772683 0
    outer loop
      vertex 163.64 5.0607 6
      vertex 163.64 5.0607 0
      vertex 163.867 5.24719 6
    endloop
  endfacet
  facet normal 0.471825 -0.881692 0
    outer loop
      vertex 164.126 5.38579 0
      vertex 164.126 5.38579 6
      vertex 163.867 5.24719 0
    endloop
  endfacet
  facet normal 0.471825 -0.881692 0
    outer loop
      vertex 163.867 5.24719 6
      vertex 163.867 5.24719 0
      vertex 164.126 5.38579 6
    endloop
  endfacet
  facet normal 0.289838 -0.957076 0
    outer loop
      vertex 164.408 5.47119 0
      vertex 164.408 5.47119 6
      vertex 164.126 5.38579 0
    endloop
  endfacet
  facet normal 0.289838 -0.957076 0
    outer loop
      vertex 164.126 5.38579 6
      vertex 164.126 5.38579 0
      vertex 164.408 5.47119 6
    endloop
  endfacet
  facet normal 0.0981876 -0.995168 0
    outer loop
      vertex 164.7 5.5 0
      vertex 164.7 5.5 6
      vertex 164.408 5.47119 0
    endloop
  endfacet
  facet normal 0.0981876 -0.995168 0
    outer loop
      vertex 164.408 5.47119 6
      vertex 164.408 5.47119 0
      vertex 164.7 5.5 6
    endloop
  endfacet
  facet normal -0.0978557 -0.995201 0
    outer loop
      vertex 164.993 5.47119 0
      vertex 164.993 5.47119 6
      vertex 164.7 5.5 0
    endloop
  endfacet
  facet normal -0.0978557 -0.995201 -0
    outer loop
      vertex 164.7 5.5 6
      vertex 164.7 5.5 0
      vertex 164.993 5.47119 6
    endloop
  endfacet
  facet normal -0.290782 -0.956789 0
    outer loop
      vertex 165.274 5.38579 0
      vertex 165.274 5.38579 6
      vertex 164.993 5.47119 0
    endloop
  endfacet
  facet normal -0.290782 -0.956789 -0
    outer loop
      vertex 164.993 5.47119 6
      vertex 164.993 5.47119 0
      vertex 165.274 5.38579 6
    endloop
  endfacet
  facet normal -0.470412 -0.882447 0
    outer loop
      vertex 165.534 5.24719 0
      vertex 165.534 5.24719 6
      vertex 165.274 5.38579 0
    endloop
  endfacet
  facet normal -0.470412 -0.882447 -0
    outer loop
      vertex 165.274 5.38579 6
      vertex 165.274 5.38579 0
      vertex 165.534 5.24719 6
    endloop
  endfacet
  facet normal -0.634792 -0.772683 0
    outer loop
      vertex 165.761 5.0607 0
      vertex 165.761 5.0607 6
      vertex 165.534 5.24719 0
    endloop
  endfacet
  facet normal -0.634792 -0.772683 -0
    outer loop
      vertex 165.534 5.24719 6
      vertex 165.534 5.24719 0
      vertex 165.761 5.0607 6
    endloop
  endfacet
  facet normal -0.773925 -0.633277 0
    outer loop
      vertex 165.947 4.83339 0
      vertex 165.947 4.83339 6
      vertex 165.761 5.0607 0
    endloop
  endfacet
  facet normal -0.773925 -0.633277 -0
    outer loop
      vertex 165.761 5.0607 6
      vertex 165.761 5.0607 0
      vertex 165.947 4.83339 6
    endloop
  endfacet
  facet normal -0.881429 -0.472316 0
    outer loop
      vertex 166.086 4.57399 0
      vertex 166.086 4.57399 6
      vertex 165.947 4.83339 0
    endloop
  endfacet
  facet normal -0.881429 -0.472316 -0
    outer loop
      vertex 165.947 4.83339 6
      vertex 165.947 4.83339 0
      vertex 166.086 4.57399 6
    endloop
  endfacet
  facet normal -0.957282 -0.289158 0
    outer loop
      vertex 166.171 4.29259 0
      vertex 166.171 4.29259 6
      vertex 166.086 4.57399 0
    endloop
  endfacet
  facet normal -0.957282 -0.289158 -0
    outer loop
      vertex 166.086 4.57399 6
      vertex 166.086 4.57399 0
      vertex 166.171 4.29259 6
    endloop
  endfacet
  facet normal -0.995124 -0.0986315 0
    outer loop
      vertex 166.2 4 0
      vertex 166.2 4 6
      vertex 166.171 4.29259 0
    endloop
  endfacet
  facet normal -0.995124 -0.0986315 -0
    outer loop
      vertex 166.171 4.29259 6
      vertex 166.171 4.29259 0
      vertex 166.2 4 6
    endloop
  endfacet
  facet normal -0.995124 0.0986282 0
    outer loop
      vertex 166.171 3.7074 0
      vertex 166.171 3.7074 6
      vertex 166.2 4 0
    endloop
  endfacet
  facet normal -0.995124 0.0986282 0
    outer loop
      vertex 166.2 4 6
      vertex 166.2 4 0
      vertex 166.171 3.7074 6
    endloop
  endfacet
  facet normal -0.957284 0.289148 0
    outer loop
      vertex 166.086 3.42599 0
      vertex 166.086 3.42599 6
      vertex 166.171 3.7074 0
    endloop
  endfacet
  facet normal -0.957284 0.289148 0
    outer loop
      vertex 166.171 3.7074 6
      vertex 166.171 3.7074 0
      vertex 166.086 3.42599 6
    endloop
  endfacet
  facet normal -0.881422 0.47233 0
    outer loop
      vertex 165.947 3.1666 0
      vertex 165.947 3.1666 6
      vertex 166.086 3.42599 0
    endloop
  endfacet
  facet normal -0.881422 0.47233 0
    outer loop
      vertex 166.086 3.42599 6
      vertex 166.086 3.42599 0
      vertex 165.947 3.1666 6
    endloop
  endfacet
  facet normal -0.773925 0.633277 0
    outer loop
      vertex 165.761 2.93929 0
      vertex 165.761 2.93929 6
      vertex 165.947 3.1666 0
    endloop
  endfacet
  facet normal -0.773925 0.633277 0
    outer loop
      vertex 165.947 3.1666 6
      vertex 165.947 3.1666 0
      vertex 165.761 2.93929 6
    endloop
  endfacet
  facet normal -0.634812 0.772667 0
    outer loop
      vertex 165.534 2.75279 0
      vertex 165.534 2.75279 6
      vertex 165.761 2.93929 0
    endloop
  endfacet
  facet normal -0.634812 0.772667 0
    outer loop
      vertex 165.761 2.93929 6
      vertex 165.761 2.93929 0
      vertex 165.534 2.75279 6
    endloop
  endfacet
  facet normal -0.470386 0.882461 0
    outer loop
      vertex 165.274 2.6142 0
      vertex 165.274 2.6142 6
      vertex 165.534 2.75279 0
    endloop
  endfacet
  facet normal -0.470386 0.882461 0
    outer loop
      vertex 165.534 2.75279 6
      vertex 165.534 2.75279 0
      vertex 165.274 2.6142 6
    endloop
  endfacet
  facet normal -0.290813 0.95678 0
    outer loop
      vertex 164.993 2.52879 0
      vertex 164.993 2.52879 6
      vertex 165.274 2.6142 0
    endloop
  endfacet
  facet normal -0.290813 0.95678 0
    outer loop
      vertex 165.274 2.6142 6
      vertex 165.274 2.6142 0
      vertex 164.993 2.52879 6
    endloop
  endfacet
  facet normal -0.0977885 0.995207 0
    outer loop
      vertex 164.7 2.5 0
      vertex 164.7 2.5 6
      vertex 164.993 2.52879 0
    endloop
  endfacet
  facet normal -0.0977885 0.995207 0
    outer loop
      vertex 164.993 2.52879 6
      vertex 164.993 2.52879 0
      vertex 164.7 2.5 6
    endloop
  endfacet
  facet normal 0.0981201 0.995175 -0
    outer loop
      vertex 164.408 2.52879 0
      vertex 164.408 2.52879 6
      vertex 164.7 2.5 0
    endloop
  endfacet
  facet normal 0.0981201 0.995175 0
    outer loop
      vertex 164.7 2.5 6
      vertex 164.7 2.5 0
      vertex 164.408 2.52879 6
    endloop
  endfacet
endsolid OpenSCAD_Model
