solid OpenSCAD_Model
  facet normal 0 0 -1
    outer loop
      vertex 52.9311 4 0
      vertex 55.7482 0.642792 0
      vertex 54.9821 0 0
    endloop
  endfacet
  facet normal 0 0 -1
    outer loop
      vertex 0 0 0
      vertex 0 4 0
      vertex 51.6257 4 0
    endloop
  endfacet
  facet normal 0 -0 -1
    outer loop
      vertex 52.9311 4 0
      vertex 54.9821 0 0
      vertex 52.1651 3.35719 0
    endloop
  endfacet
  facet normal -0 0 -1
    outer loop
      vertex 52.1651 3.35719 0
      vertex 0 0 0
      vertex 51.6257 4 0
    endloop
  endfacet
  facet normal 0 -0 -1
    outer loop
      vertex 52.1651 3.35719 0
      vertex 54.9821 0 0
      vertex 0 0 0
    endloop
  endfacet
  facet normal 0 -0 1
    outer loop
      vertex 54.9821 0 6
      vertex 55.7482 0.642792 6
      vertex 52.9311 4 6
    endloop
  endfacet
  facet normal 0 0 1
    outer loop
      vertex 51.6257 4 6
      vertex 0 4 6
      vertex 0 0 6
    endloop
  endfacet
  facet normal -0 0 1
    outer loop
      vertex 52.1651 3.35719 6
      vertex 54.9821 0 6
      vertex 52.9311 4 6
    endloop
  endfacet
  facet normal 0 0 1
    outer loop
      vertex 51.6257 4 6
      vertex 0 0 6
      vertex 52.1651 3.35719 6
    endloop
  endfacet
  facet normal 0 0 1
    outer loop
      vertex 0 0 6
      vertex 54.9821 0 6
      vertex 52.1651 3.35719 6
    endloop
  endfacet
  facet normal 0.766037 0.642797 0
    outer loop
      vertex 52.9311 4 0
      vertex 55.7482 0.642792 6
      vertex 55.7482 0.642792 0
    endloop
  endfacet
  facet normal 0.766037 0.642797 -0
    outer loop
      vertex 52.9311 4 0
      vertex 52.9311 4 6
      vertex 55.7482 0.642792 6
    endloop
  endfacet
  facet normal -0.642823 0.766015 0
    outer loop
      vertex 52.1651 3.35719 0
      vertex 52.9311 4 6
      vertex 52.9311 4 0
    endloop
  endfacet
  facet normal -0.642823 0.766015 0
    outer loop
      vertex 52.1651 3.35719 0
      vertex 52.1651 3.35719 6
      vertex 52.9311 4 6
    endloop
  endfacet
  facet normal 0.766034 0.6428 0
    outer loop
      vertex 51.6257 4 0
      vertex 52.1651 3.35719 6
      vertex 52.1651 3.35719 0
    endloop
  endfacet
  facet normal 0.766034 0.6428 -0
    outer loop
      vertex 51.6257 4 0
      vertex 51.6257 4 6
      vertex 52.1651 3.35719 6
    endloop
  endfacet
  facet normal 0 1 0
    outer loop
      vertex 0 4 0
      vertex 51.6257 4 6
      vertex 51.6257 4 0
    endloop
  endfacet
  facet normal 0 1 0
    outer loop
      vertex 0 4 0
      vertex 0 4 6
      vertex 51.6257 4 6
    endloop
  endfacet
  facet normal -1 0 0
    outer loop
      vertex 0 0 0
      vertex 0 4 6
      vertex 0 4 0
    endloop
  endfacet
  facet normal -1 0 0
    outer loop
      vertex 0 0 0
      vertex 0 0 6
      vertex 0 4 6
    endloop
  endfacet
  facet normal 0 -1 0
    outer loop
      vertex 54.9821 0 0
      vertex 0 0 6
      vertex 0 0 0
    endloop
  endfacet
  facet normal 0 -1 0
    outer loop
      vertex 54.9821 0 0
      vertex 54.9821 0 6
      vertex 0 0 6
    endloop
  endfacet
  facet normal 0.642763 -0.766065 0
    outer loop
      vertex 55.7482 0.642792 0
      vertex 54.9821 0 6
      vertex 54.9821 0 0
    endloop
  endfacet
  facet normal 0.642763 -0.766065 0
    outer loop
      vertex 55.7482 0.642792 0
      vertex 55.7482 0.642792 6
      vertex 54.9821 0 6
    endloop
  endfacet
endsolid OpenSCAD_Model
