solid OpenSCAD_Model
  facet normal 0 0 -1
    outer loop
      vertex 0 10 0
      vertex 8.29259 6.47119 0
      vertex 8 6.5 0
    endloop
  endfacet
  facet normal 0 0 -1
    outer loop
      vertex 27.6069 5.83339 0
      vertex 9.0607 6.0607 0
      vertex 27.7934 6.0607 0
    endloop
  endfacet
  facet normal -0 -0 -1
    outer loop
      vertex 78 3.5 0
      vertex 86 0 0
      vertex 77.7074 3.52879 0
    endloop
  endfacet
  facet normal 0 -0 -1
    outer loop
      vertex 7.7074 3.52879 0
      vertex 8 3.5 0
      vertex 0 0 0
    endloop
  endfacet
  facet normal 0 -0 -1
    outer loop
      vertex 7.42599 3.6142 0
      vertex 7.7074 3.52879 0
      vertex 0 0 0
    endloop
  endfacet
  facet normal 0 -0 -1
    outer loop
      vertex 7.1666 3.75279 0
      vertex 7.42599 3.6142 0
      vertex 0 0 0
    endloop
  endfacet
  facet normal 0 -0 -1
    outer loop
      vertex 6.75279 4.1666 0
      vertex 6.93929 3.93929 0
      vertex 0 0 0
    endloop
  endfacet
  facet normal 0 -0 -1
    outer loop
      vertex 6.93929 3.93929 0
      vertex 7.1666 3.75279 0
      vertex 0 0 0
    endloop
  endfacet
  facet normal 0 -0 -1
    outer loop
      vertex 6.6142 4.42599 0
      vertex 6.75279 4.1666 0
      vertex 0 0 0
    endloop
  endfacet
  facet normal 0 -0 -1
    outer loop
      vertex 6.52879 4.7074 0
      vertex 6.6142 4.42599 0
      vertex 0 0 0
    endloop
  endfacet
  facet normal 0 -0 -1
    outer loop
      vertex 6.5 5 0
      vertex 6.52879 4.7074 0
      vertex 0 0 0
    endloop
  endfacet
  facet normal 0 0 -1
    outer loop
      vertex 27.3829 4.7074 0
      vertex 9.5 5 0
      vertex 27.3541 5 0
    endloop
  endfacet
  facet normal 0 0 -1
    outer loop
      vertex 0 10 0
      vertex 6.5 5 0
      vertex 0 0 0
    endloop
  endfacet
  facet normal 0 0 -1
    outer loop
      vertex 0 10 0
      vertex 6.52879 5.29259 0
      vertex 6.5 5 0
    endloop
  endfacet
  facet normal 0 0 -1
    outer loop
      vertex 0 10 0
      vertex 6.6142 5.57399 0
      vertex 6.52879 5.29259 0
    endloop
  endfacet
  facet normal 0 0 -1
    outer loop
      vertex 0 10 0
      vertex 6.75279 5.83339 0
      vertex 6.6142 5.57399 0
    endloop
  endfacet
  facet normal 0 0 -1
    outer loop
      vertex 0 10 0
      vertex 6.93929 6.0607 0
      vertex 6.75279 5.83339 0
    endloop
  endfacet
  facet normal 0 0 -1
    outer loop
      vertex 0 10 0
      vertex 7.1666 6.24719 0
      vertex 6.93929 6.0607 0
    endloop
  endfacet
  facet normal 0 0 -1
    outer loop
      vertex 0 10 0
      vertex 7.42599 6.38579 0
      vertex 7.1666 6.24719 0
    endloop
  endfacet
  facet normal 0 0 -1
    outer loop
      vertex 0 10 0
      vertex 7.7074 6.47119 0
      vertex 7.42599 6.38579 0
    endloop
  endfacet
  facet normal 0 0 -1
    outer loop
      vertex 0 10 0
      vertex 8 6.5 0
      vertex 7.7074 6.47119 0
    endloop
  endfacet
  facet normal 0 -0 -1
    outer loop
      vertex 9.38579 4.42599 0
      vertex 27.4683 4.42599 0
      vertex 9.24719 4.1666 0
    endloop
  endfacet
  facet normal 0 0 -1
    outer loop
      vertex 30.1013 4.1666 0
      vertex 55.7601 4.42599 0
      vertex 55.8987 4.1666 0
    endloop
  endfacet
  facet normal -0 0 -1
    outer loop
      vertex 28.0207 3.75279 0
      vertex 8.57399 3.6142 0
      vertex 8.83339 3.75279 0
    endloop
  endfacet
  facet normal 0 -0 -1
    outer loop
      vertex 30.1013 4.1666 0
      vertex 55.8987 4.1666 0
      vertex 29.9148 3.93929 0
    endloop
  endfacet
  facet normal 0 0 -1
    outer loop
      vertex 8.57399 3.6142 0
      vertex 28.0207 3.75279 0
      vertex 28.2801 3.6142 0
    endloop
  endfacet
  facet normal 0 0 -1
    outer loop
      vertex 76.9393 6.0607 0
      vertex 58.2066 6.0607 0
      vertex 57.9793 6.24719 0
    endloop
  endfacet
  facet normal 0 0 -1
    outer loop
      vertex 86 10 0
      vertex 79.2472 5.83339 0
      vertex 79.0607 6.0607 0
    endloop
  endfacet
  facet normal 0 0 -1
    outer loop
      vertex 58.3931 5.83339 0
      vertex 76.7528 5.83339 0
      vertex 76.6142 5.57399 0
    endloop
  endfacet
  facet normal 0 0 -1
    outer loop
      vertex 8.29259 3.52879 0
      vertex 28.2801 3.6142 0
      vertex 28.5615 3.52879 0
    endloop
  endfacet
  facet normal 0 0 -1
    outer loop
      vertex 29.4281 3.6142 0
      vertex 29.6875 3.75279 0
      vertex 56.5719 3.6142 0
    endloop
  endfacet
  facet normal 0 0 -1
    outer loop
      vertex 76.6142 4.42599 0
      vertex 58.5317 4.42599 0
      vertex 76.5288 4.7074 0
    endloop
  endfacet
  facet normal 0 -0 -1
    outer loop
      vertex 57.7199 3.6142 0
      vertex 77.426 3.6142 0
      vertex 57.4385 3.52879 0
    endloop
  endfacet
  facet normal -0 0 -1
    outer loop
      vertex 28.8541 3.5 0
      vertex 0 0 0
      vertex 28.5615 3.52879 0
    endloop
  endfacet
  facet normal 0 0 -1
    outer loop
      vertex 29.1467 3.52879 0
      vertex 56.5719 3.6142 0
      vertex 56.8533 3.52879 0
    endloop
  endfacet
  facet normal 0 0 -1
    outer loop
      vertex 8.29259 3.52879 0
      vertex 0 0 0
      vertex 8 3.5 0
    endloop
  endfacet
  facet normal 0 0 -1
    outer loop
      vertex 86 0 0
      vertex 78 3.5 0
      vertex 78.2926 3.52879 0
    endloop
  endfacet
  facet normal -0 0 -1
    outer loop
      vertex 28.2801 3.6142 0
      vertex 8.29259 3.52879 0
      vertex 8.57399 3.6142 0
    endloop
  endfacet
  facet normal 0 0 -1
    outer loop
      vertex 28.0207 3.75279 0
      vertex 8.83339 3.75279 0
      vertex 9.0607 3.93929 0
    endloop
  endfacet
  facet normal -0 -0 -1
    outer loop
      vertex 27.7934 3.93929 0
      vertex 28.0207 3.75279 0
      vertex 9.0607 3.93929 0
    endloop
  endfacet
  facet normal 0 0 -1
    outer loop
      vertex 55.7601 4.42599 0
      vertex 30.2399 4.42599 0
      vertex 55.6747 4.7074 0
    endloop
  endfacet
  facet normal 0 0 -1
    outer loop
      vertex 57.4385 6.47119 0
      vertex 77.7074 6.47119 0
      vertex 77.426 6.38579 0
    endloop
  endfacet
  facet normal 0 -0 -1
    outer loop
      vertex 27.6069 4.1666 0
      vertex 27.7934 3.93929 0
      vertex 9.0607 3.93929 0
    endloop
  endfacet
  facet normal 0 -0 -1
    outer loop
      vertex 9.24719 4.1666 0
      vertex 27.6069 4.1666 0
      vertex 9.0607 3.93929 0
    endloop
  endfacet
  facet normal 0 0 -1
    outer loop
      vertex 86 10 0
      vertex 77.7074 6.47119 0
      vertex 57.4385 6.47119 0
    endloop
  endfacet
  facet normal 0 0 -1
    outer loop
      vertex 55.6747 4.7074 0
      vertex 30.3253 4.7074 0
      vertex 55.6459 5 0
    endloop
  endfacet
  facet normal 0 0 -1
    outer loop
      vertex 9.38579 4.42599 0
      vertex 27.3829 4.7074 0
      vertex 27.4683 4.42599 0
    endloop
  endfacet
  facet normal 0 0 -1
    outer loop
      vertex 28.8541 6.5 0
      vertex 57.1459 6.5 0
      vertex 56.8533 6.47119 0
    endloop
  endfacet
  facet normal 0 0 -1
    outer loop
      vertex 9.38579 4.42599 0
      vertex 9.47119 4.7074 0
      vertex 27.3829 4.7074 0
    endloop
  endfacet
  facet normal 0 0 -1
    outer loop
      vertex 30.3253 4.7074 0
      vertex 30.3541 5 0
      vertex 55.6459 5 0
    endloop
  endfacet
  facet normal 0 0 -1
    outer loop
      vertex 27.3829 4.7074 0
      vertex 9.47119 4.7074 0
      vertex 9.5 5 0
    endloop
  endfacet
  facet normal -0 0 -1
    outer loop
      vertex 56.5719 6.38579 0
      vertex 29.6875 6.24719 0
      vertex 29.4281 6.38579 0
    endloop
  endfacet
  facet normal 0 0 -1
    outer loop
      vertex 86 10 0
      vertex 57.4385 6.47119 0
      vertex 57.1459 6.5 0
    endloop
  endfacet
  facet normal 0 0 -1
    outer loop
      vertex 86 10 0
      vertex 78 6.5 0
      vertex 77.7074 6.47119 0
    endloop
  endfacet
  facet normal 0 0 -1
    outer loop
      vertex 86 10 0
      vertex 78.2926 6.47119 0
      vertex 78 6.5 0
    endloop
  endfacet
  facet normal 0 0 -1
    outer loop
      vertex 86 10 0
      vertex 78.574 6.38579 0
      vertex 78.2926 6.47119 0
    endloop
  endfacet
  facet normal 0 0 -1
    outer loop
      vertex 86 10 0
      vertex 78.8334 6.24719 0
      vertex 78.574 6.38579 0
    endloop
  endfacet
  facet normal 0 0 -1
    outer loop
      vertex 86 10 0
      vertex 79.0607 6.0607 0
      vertex 78.8334 6.24719 0
    endloop
  endfacet
  facet normal 0 0 -1
    outer loop
      vertex 79.3858 5.57399 0
      vertex 79.2472 5.83339 0
      vertex 86 10 0
    endloop
  endfacet
  facet normal 0 0 -1
    outer loop
      vertex 79.4712 5.29259 0
      vertex 79.3858 5.57399 0
      vertex 86 10 0
    endloop
  endfacet
  facet normal 0 0 -1
    outer loop
      vertex 79.5 5 0
      vertex 79.4712 5.29259 0
      vertex 86 10 0
    endloop
  endfacet
  facet normal 0 0 -1
    outer loop
      vertex 86 0 0
      vertex 79.5 5 0
      vertex 86 10 0
    endloop
  endfacet
  facet normal 0 0 -1
    outer loop
      vertex 86 0 0
      vertex 79.4712 4.7074 0
      vertex 79.5 5 0
    endloop
  endfacet
  facet normal 0 0 -1
    outer loop
      vertex 86 0 0
      vertex 79.3858 4.42599 0
      vertex 79.4712 4.7074 0
    endloop
  endfacet
  facet normal 0 0 -1
    outer loop
      vertex 86 0 0
      vertex 79.2472 4.1666 0
      vertex 79.3858 4.42599 0
    endloop
  endfacet
  facet normal 0 0 -1
    outer loop
      vertex 86 0 0
      vertex 79.0607 3.93929 0
      vertex 79.2472 4.1666 0
    endloop
  endfacet
  facet normal 0 0 -1
    outer loop
      vertex 86 0 0
      vertex 78.8334 3.75279 0
      vertex 79.0607 3.93929 0
    endloop
  endfacet
  facet normal 0 0 -1
    outer loop
      vertex 86 0 0
      vertex 78.574 3.6142 0
      vertex 78.8334 3.75279 0
    endloop
  endfacet
  facet normal 0 0 -1
    outer loop
      vertex 86 0 0
      vertex 78.2926 3.52879 0
      vertex 78.574 3.6142 0
    endloop
  endfacet
  facet normal -0 0 -1
    outer loop
      vertex 28.5615 3.52879 0
      vertex 0 0 0
      vertex 8.29259 3.52879 0
    endloop
  endfacet
  facet normal 0 -0 -1
    outer loop
      vertex 57.1459 3.5 0
      vertex 86 0 0
      vertex 0 0 0
    endloop
  endfacet
  facet normal 0 0 -1
    outer loop
      vertex 9.24719 4.1666 0
      vertex 27.4683 4.42599 0
      vertex 27.6069 4.1666 0
    endloop
  endfacet
  facet normal 0 0 -1
    outer loop
      vertex 27.3541 5 0
      vertex 9.5 5 0
      vertex 27.3829 5.29259 0
    endloop
  endfacet
  facet normal -0 0 -1
    outer loop
      vertex 27.3829 5.29259 0
      vertex 9.5 5 0
      vertex 9.47119 5.29259 0
    endloop
  endfacet
  facet normal 0 0 -1
    outer loop
      vertex 9.38579 5.57399 0
      vertex 27.3829 5.29259 0
      vertex 9.47119 5.29259 0
    endloop
  endfacet
  facet normal 0 0 -1
    outer loop
      vertex 9.38579 5.57399 0
      vertex 27.4683 5.57399 0
      vertex 27.3829 5.29259 0
    endloop
  endfacet
  facet normal 0 0 -1
    outer loop
      vertex 9.38579 5.57399 0
      vertex 9.24719 5.83339 0
      vertex 27.4683 5.57399 0
    endloop
  endfacet
  facet normal 0 0 -1
    outer loop
      vertex 27.4683 5.57399 0
      vertex 9.24719 5.83339 0
      vertex 27.6069 5.83339 0
    endloop
  endfacet
  facet normal 0 0 -1
    outer loop
      vertex 27.6069 5.83339 0
      vertex 9.24719 5.83339 0
      vertex 9.0607 6.0607 0
    endloop
  endfacet
  facet normal 0 0 -1
    outer loop
      vertex 27.7934 6.0607 0
      vertex 9.0607 6.0607 0
      vertex 28.0207 6.24719 0
    endloop
  endfacet
  facet normal -0 0 -1
    outer loop
      vertex 28.0207 6.24719 0
      vertex 9.0607 6.0607 0
      vertex 8.83339 6.24719 0
    endloop
  endfacet
  facet normal 0 0 -1
    outer loop
      vertex 8.57399 6.38579 0
      vertex 28.0207 6.24719 0
      vertex 8.83339 6.24719 0
    endloop
  endfacet
  facet normal 0 0 -1
    outer loop
      vertex 8.57399 6.38579 0
      vertex 28.2801 6.38579 0
      vertex 28.0207 6.24719 0
    endloop
  endfacet
  facet normal 0 0 -1
    outer loop
      vertex 8.57399 6.38579 0
      vertex 8.29259 6.47119 0
      vertex 28.2801 6.38579 0
    endloop
  endfacet
  facet normal 0 0 -1
    outer loop
      vertex 28.2801 6.38579 0
      vertex 8.29259 6.47119 0
      vertex 28.5615 6.47119 0
    endloop
  endfacet
  facet normal 0 0 -1
    outer loop
      vertex 28.5615 6.47119 0
      vertex 8.29259 6.47119 0
      vertex 0 10 0
    endloop
  endfacet
  facet normal 0 0 -1
    outer loop
      vertex 57.1459 6.5 0
      vertex 28.8541 6.5 0
      vertex 0 10 0
    endloop
  endfacet
  facet normal -0 0 -1
    outer loop
      vertex 28.8541 6.5 0
      vertex 28.5615 6.47119 0
      vertex 0 10 0
    endloop
  endfacet
  facet normal 0 0 -1
    outer loop
      vertex 57.7199 6.38579 0
      vertex 57.4385 6.47119 0
      vertex 77.426 6.38579 0
    endloop
  endfacet
  facet normal 0 0 -1
    outer loop
      vertex 30.1013 4.1666 0
      vertex 30.2399 4.42599 0
      vertex 55.7601 4.42599 0
    endloop
  endfacet
  facet normal 0 0 -1
    outer loop
      vertex 57.7199 6.38579 0
      vertex 77.426 6.38579 0
      vertex 77.1666 6.24719 0
    endloop
  endfacet
  facet normal 0 0 -1
    outer loop
      vertex 57.9793 6.24719 0
      vertex 57.7199 6.38579 0
      vertex 77.1666 6.24719 0
    endloop
  endfacet
  facet normal 0 -0 -1
    outer loop
      vertex 55.8987 4.1666 0
      vertex 56.0852 3.93929 0
      vertex 29.9148 3.93929 0
    endloop
  endfacet
  facet normal 0 0 -1
    outer loop
      vertex 57.9793 6.24719 0
      vertex 77.1666 6.24719 0
      vertex 76.9393 6.0607 0
    endloop
  endfacet
  facet normal 0 0 -1
    outer loop
      vertex 29.6875 3.75279 0
      vertex 29.9148 3.93929 0
      vertex 56.0852 3.93929 0
    endloop
  endfacet
  facet normal 0 0 -1
    outer loop
      vertex 56.3125 3.75279 0
      vertex 29.6875 3.75279 0
      vertex 56.0852 3.93929 0
    endloop
  endfacet
  facet normal 0 0 -1
    outer loop
      vertex 76.5288 5.29259 0
      vertex 58.6171 5.29259 0
      vertex 58.5317 5.57399 0
    endloop
  endfacet
  facet normal 0 0 -1
    outer loop
      vertex 29.6875 3.75279 0
      vertex 56.3125 3.75279 0
      vertex 56.5719 3.6142 0
    endloop
  endfacet
  facet normal -0 0 -1
    outer loop
      vertex 76.5 5 0
      vertex 58.6171 4.7074 0
      vertex 58.6459 5 0
    endloop
  endfacet
  facet normal 0 0 -1
    outer loop
      vertex 29.1467 3.52879 0
      vertex 29.4281 3.6142 0
      vertex 56.5719 3.6142 0
    endloop
  endfacet
  facet normal 0 0 -1
    outer loop
      vertex 76.9393 3.93929 0
      vertex 58.3931 4.1666 0
      vertex 76.7528 4.1666 0
    endloop
  endfacet
  facet normal 0 0 -1
    outer loop
      vertex 77.1666 3.75279 0
      vertex 57.9793 3.75279 0
      vertex 76.9393 3.93929 0
    endloop
  endfacet
  facet normal 0 -0 -1
    outer loop
      vertex 28.8541 3.5 0
      vertex 57.1459 3.5 0
      vertex 0 0 0
    endloop
  endfacet
  facet normal 0 -0 -1
    outer loop
      vertex 56.8533 3.52879 0
      vertex 57.1459 3.5 0
      vertex 28.8541 3.5 0
    endloop
  endfacet
  facet normal -0 0 -1
    outer loop
      vertex 56.8533 3.52879 0
      vertex 28.8541 3.5 0
      vertex 29.1467 3.52879 0
    endloop
  endfacet
  facet normal 0 -0 -1
    outer loop
      vertex 77.426 3.6142 0
      vertex 77.7074 3.52879 0
      vertex 57.4385 3.52879 0
    endloop
  endfacet
  facet normal -0 0 -1
    outer loop
      vertex 55.6747 4.7074 0
      vertex 30.2399 4.42599 0
      vertex 30.3253 4.7074 0
    endloop
  endfacet
  facet normal 0 0 -1
    outer loop
      vertex 30.3253 5.29259 0
      vertex 55.6459 5 0
      vertex 30.3541 5 0
    endloop
  endfacet
  facet normal 0 0 -1
    outer loop
      vertex 30.3253 5.29259 0
      vertex 55.6747 5.29259 0
      vertex 55.6459 5 0
    endloop
  endfacet
  facet normal 0 0 -1
    outer loop
      vertex 30.3253 5.29259 0
      vertex 30.2399 5.57399 0
      vertex 55.6747 5.29259 0
    endloop
  endfacet
  facet normal 0 0 -1
    outer loop
      vertex 55.6747 5.29259 0
      vertex 30.2399 5.57399 0
      vertex 55.7601 5.57399 0
    endloop
  endfacet
  facet normal 0 0 -1
    outer loop
      vertex 55.7601 5.57399 0
      vertex 30.2399 5.57399 0
      vertex 30.1013 5.83339 0
    endloop
  endfacet
  facet normal -0 0 -1
    outer loop
      vertex 55.8987 5.83339 0
      vertex 55.7601 5.57399 0
      vertex 30.1013 5.83339 0
    endloop
  endfacet
  facet normal 0 0 -1
    outer loop
      vertex 29.9148 6.0607 0
      vertex 55.8987 5.83339 0
      vertex 30.1013 5.83339 0
    endloop
  endfacet
  facet normal 0 0 -1
    outer loop
      vertex 29.9148 6.0607 0
      vertex 56.0852 6.0607 0
      vertex 55.8987 5.83339 0
    endloop
  endfacet
  facet normal 0 0 -1
    outer loop
      vertex 29.9148 6.0607 0
      vertex 29.6875 6.24719 0
      vertex 56.0852 6.0607 0
    endloop
  endfacet
  facet normal 0 0 -1
    outer loop
      vertex 56.0852 6.0607 0
      vertex 29.6875 6.24719 0
      vertex 56.3125 6.24719 0
    endloop
  endfacet
  facet normal 0 0 -1
    outer loop
      vertex 56.3125 6.24719 0
      vertex 29.6875 6.24719 0
      vertex 56.5719 6.38579 0
    endloop
  endfacet
  facet normal 0 0 -1
    outer loop
      vertex 56.5719 6.38579 0
      vertex 29.4281 6.38579 0
      vertex 29.1467 6.47119 0
    endloop
  endfacet
  facet normal -0 0 -1
    outer loop
      vertex 56.8533 6.47119 0
      vertex 56.5719 6.38579 0
      vertex 29.1467 6.47119 0
    endloop
  endfacet
  facet normal 0 0 -1
    outer loop
      vertex 28.8541 6.5 0
      vertex 56.8533 6.47119 0
      vertex 29.1467 6.47119 0
    endloop
  endfacet
  facet normal -0 0 -1
    outer loop
      vertex 86 10 0
      vertex 57.1459 6.5 0
      vertex 0 10 0
    endloop
  endfacet
  facet normal 0 0 -1
    outer loop
      vertex 58.2066 6.0607 0
      vertex 76.9393 6.0607 0
      vertex 58.3931 5.83339 0
    endloop
  endfacet
  facet normal 0 0 -1
    outer loop
      vertex 58.3931 5.83339 0
      vertex 76.9393 6.0607 0
      vertex 76.7528 5.83339 0
    endloop
  endfacet
  facet normal 0 0 -1
    outer loop
      vertex 58.5317 5.57399 0
      vertex 58.3931 5.83339 0
      vertex 76.6142 5.57399 0
    endloop
  endfacet
  facet normal 0 0 -1
    outer loop
      vertex 76.5288 5.29259 0
      vertex 58.5317 5.57399 0
      vertex 76.6142 5.57399 0
    endloop
  endfacet
  facet normal 0 0 -1
    outer loop
      vertex 76.5 5 0
      vertex 58.6171 5.29259 0
      vertex 76.5288 5.29259 0
    endloop
  endfacet
  facet normal 0 0 -1
    outer loop
      vertex 76.5 5 0
      vertex 58.6459 5 0
      vertex 58.6171 5.29259 0
    endloop
  endfacet
  facet normal 0 0 -1
    outer loop
      vertex 76.5288 4.7074 0
      vertex 58.6171 4.7074 0
      vertex 76.5 5 0
    endloop
  endfacet
  facet normal -0 0 -1
    outer loop
      vertex 76.5288 4.7074 0
      vertex 58.5317 4.42599 0
      vertex 58.6171 4.7074 0
    endloop
  endfacet
  facet normal -0 0 -1
    outer loop
      vertex 76.6142 4.42599 0
      vertex 58.3931 4.1666 0
      vertex 58.5317 4.42599 0
    endloop
  endfacet
  facet normal 0 -0 -1
    outer loop
      vertex 76.6142 4.42599 0
      vertex 76.7528 4.1666 0
      vertex 58.3931 4.1666 0
    endloop
  endfacet
  facet normal 0 -0 -1
    outer loop
      vertex 58.3931 4.1666 0
      vertex 76.9393 3.93929 0
      vertex 58.2066 3.93929 0
    endloop
  endfacet
  facet normal 0 -0 -1
    outer loop
      vertex 58.2066 3.93929 0
      vertex 76.9393 3.93929 0
      vertex 57.9793 3.75279 0
    endloop
  endfacet
  facet normal 0 -0 -1
    outer loop
      vertex 57.9793 3.75279 0
      vertex 77.1666 3.75279 0
      vertex 57.7199 3.6142 0
    endloop
  endfacet
  facet normal 0 0 -1
    outer loop
      vertex 57.7199 3.6142 0
      vertex 77.1666 3.75279 0
      vertex 77.426 3.6142 0
    endloop
  endfacet
  facet normal 0 0 -1
    outer loop
      vertex 57.1459 3.5 0
      vertex 57.4385 3.52879 0
      vertex 86 0 0
    endloop
  endfacet
  facet normal 0 0 -1
    outer loop
      vertex 57.4385 3.52879 0
      vertex 77.7074 3.52879 0
      vertex 86 0 0
    endloop
  endfacet
  facet normal -0 -0 1
    outer loop
      vertex 8 6.5 5
      vertex 8.29259 6.47119 5
      vertex 0 10 5
    endloop
  endfacet
  facet normal 0 0 1
    outer loop
      vertex 27.7934 6.0607 5
      vertex 9.0607 6.0607 5
      vertex 27.6069 5.83339 5
    endloop
  endfacet
  facet normal 0 0 1
    outer loop
      vertex 77.7074 3.52879 5
      vertex 86 0 5
      vertex 78 3.5 5
    endloop
  endfacet
  facet normal 0 0 1
    outer loop
      vertex 0 0 5
      vertex 8 3.5 5
      vertex 7.7074 3.52879 5
    endloop
  endfacet
  facet normal 0 0 1
    outer loop
      vertex 0 0 5
      vertex 7.7074 3.52879 5
      vertex 7.42599 3.6142 5
    endloop
  endfacet
  facet normal 0 0 1
    outer loop
      vertex 0 0 5
      vertex 7.42599 3.6142 5
      vertex 7.1666 3.75279 5
    endloop
  endfacet
  facet normal 0 0 1
    outer loop
      vertex 0 0 5
      vertex 6.93929 3.93929 5
      vertex 6.75279 4.1666 5
    endloop
  endfacet
  facet normal 0 0 1
    outer loop
      vertex 0 0 5
      vertex 7.1666 3.75279 5
      vertex 6.93929 3.93929 5
    endloop
  endfacet
  facet normal 0 0 1
    outer loop
      vertex 0 0 5
      vertex 6.75279 4.1666 5
      vertex 6.6142 4.42599 5
    endloop
  endfacet
  facet normal 0 0 1
    outer loop
      vertex 0 0 5
      vertex 6.6142 4.42599 5
      vertex 6.52879 4.7074 5
    endloop
  endfacet
  facet normal 0 0 1
    outer loop
      vertex 0 0 5
      vertex 6.52879 4.7074 5
      vertex 6.5 5 5
    endloop
  endfacet
  facet normal 0 0 1
    outer loop
      vertex 27.3541 5 5
      vertex 9.5 5 5
      vertex 27.3829 4.7074 5
    endloop
  endfacet
  facet normal 0 0 1
    outer loop
      vertex 0 0 5
      vertex 6.5 5 5
      vertex 0 10 5
    endloop
  endfacet
  facet normal 0 -0 1
    outer loop
      vertex 6.5 5 5
      vertex 6.52879 5.29259 5
      vertex 0 10 5
    endloop
  endfacet
  facet normal 0 -0 1
    outer loop
      vertex 6.52879 5.29259 5
      vertex 6.6142 5.57399 5
      vertex 0 10 5
    endloop
  endfacet
  facet normal 0 -0 1
    outer loop
      vertex 6.6142 5.57399 5
      vertex 6.75279 5.83339 5
      vertex 0 10 5
    endloop
  endfacet
  facet normal 0 -0 1
    outer loop
      vertex 6.75279 5.83339 5
      vertex 6.93929 6.0607 5
      vertex 0 10 5
    endloop
  endfacet
  facet normal 0 -0 1
    outer loop
      vertex 6.93929 6.0607 5
      vertex 7.1666 6.24719 5
      vertex 0 10 5
    endloop
  endfacet
  facet normal 0 -0 1
    outer loop
      vertex 7.1666 6.24719 5
      vertex 7.42599 6.38579 5
      vertex 0 10 5
    endloop
  endfacet
  facet normal 0 -0 1
    outer loop
      vertex 7.42599 6.38579 5
      vertex 7.7074 6.47119 5
      vertex 0 10 5
    endloop
  endfacet
  facet normal 0 -0 1
    outer loop
      vertex 7.7074 6.47119 5
      vertex 8 6.5 5
      vertex 0 10 5
    endloop
  endfacet
  facet normal 0 0 1
    outer loop
      vertex 9.24719 4.1666 5
      vertex 27.4683 4.42599 5
      vertex 9.38579 4.42599 5
    endloop
  endfacet
  facet normal 0 0 1
    outer loop
      vertex 55.8987 4.1666 5
      vertex 55.7601 4.42599 5
      vertex 30.1013 4.1666 5
    endloop
  endfacet
  facet normal -0 0 1
    outer loop
      vertex 8.83339 3.75279 5
      vertex 8.57399 3.6142 5
      vertex 28.0207 3.75279 5
    endloop
  endfacet
  facet normal 0 0 1
    outer loop
      vertex 29.9148 3.93929 5
      vertex 55.8987 4.1666 5
      vertex 30.1013 4.1666 5
    endloop
  endfacet
  facet normal 0 0 1
    outer loop
      vertex 28.2801 3.6142 5
      vertex 28.0207 3.75279 5
      vertex 8.57399 3.6142 5
    endloop
  endfacet
  facet normal 0 0 1
    outer loop
      vertex 57.9793 6.24719 5
      vertex 58.2066 6.0607 5
      vertex 76.9393 6.0607 5
    endloop
  endfacet
  facet normal -0 0 1
    outer loop
      vertex 79.0607 6.0607 5
      vertex 79.2472 5.83339 5
      vertex 86 10 5
    endloop
  endfacet
  facet normal 0 -0 1
    outer loop
      vertex 76.6142 5.57399 5
      vertex 76.7528 5.83339 5
      vertex 58.3931 5.83339 5
    endloop
  endfacet
  facet normal 0 0 1
    outer loop
      vertex 28.5615 3.52879 5
      vertex 28.2801 3.6142 5
      vertex 8.29259 3.52879 5
    endloop
  endfacet
  facet normal 0 0 1
    outer loop
      vertex 56.5719 3.6142 5
      vertex 29.6875 3.75279 5
      vertex 29.4281 3.6142 5
    endloop
  endfacet
  facet normal 0 0 1
    outer loop
      vertex 76.5288 4.7074 5
      vertex 58.5317 4.42599 5
      vertex 76.6142 4.42599 5
    endloop
  endfacet
  facet normal 0 0 1
    outer loop
      vertex 57.4385 3.52879 5
      vertex 77.426 3.6142 5
      vertex 57.7199 3.6142 5
    endloop
  endfacet
  facet normal 0 0 1
    outer loop
      vertex 28.5615 3.52879 5
      vertex 0 0 5
      vertex 28.8541 3.5 5
    endloop
  endfacet
  facet normal 0 0 1
    outer loop
      vertex 56.8533 3.52879 5
      vertex 56.5719 3.6142 5
      vertex 29.1467 3.52879 5
    endloop
  endfacet
  facet normal -0 0 1
    outer loop
      vertex 8 3.5 5
      vertex 0 0 5
      vertex 8.29259 3.52879 5
    endloop
  endfacet
  facet normal 0 0 1
    outer loop
      vertex 78.2926 3.52879 5
      vertex 78 3.5 5
      vertex 86 0 5
    endloop
  endfacet
  facet normal -0 0 1
    outer loop
      vertex 8.57399 3.6142 5
      vertex 8.29259 3.52879 5
      vertex 28.2801 3.6142 5
    endloop
  endfacet
  facet normal 0 0 1
    outer loop
      vertex 9.0607 3.93929 5
      vertex 8.83339 3.75279 5
      vertex 28.0207 3.75279 5
    endloop
  endfacet
  facet normal -0 0 1
    outer loop
      vertex 9.0607 3.93929 5
      vertex 28.0207 3.75279 5
      vertex 27.7934 3.93929 5
    endloop
  endfacet
  facet normal 0 0 1
    outer loop
      vertex 55.6747 4.7074 5
      vertex 30.2399 4.42599 5
      vertex 55.7601 4.42599 5
    endloop
  endfacet
  facet normal 0 -0 1
    outer loop
      vertex 77.426 6.38579 5
      vertex 77.7074 6.47119 5
      vertex 57.4385 6.47119 5
    endloop
  endfacet
  facet normal 0 0 1
    outer loop
      vertex 9.0607 3.93929 5
      vertex 27.7934 3.93929 5
      vertex 27.6069 4.1666 5
    endloop
  endfacet
  facet normal 0 0 1
    outer loop
      vertex 9.0607 3.93929 5
      vertex 27.6069 4.1666 5
      vertex 9.24719 4.1666 5
    endloop
  endfacet
  facet normal 0 0 1
    outer loop
      vertex 57.4385 6.47119 5
      vertex 77.7074 6.47119 5
      vertex 86 10 5
    endloop
  endfacet
  facet normal 0 0 1
    outer loop
      vertex 55.6459 5 5
      vertex 30.3253 4.7074 5
      vertex 55.6747 4.7074 5
    endloop
  endfacet
  facet normal 0 0 1
    outer loop
      vertex 27.4683 4.42599 5
      vertex 27.3829 4.7074 5
      vertex 9.38579 4.42599 5
    endloop
  endfacet
  facet normal 0 -0 1
    outer loop
      vertex 56.8533 6.47119 5
      vertex 57.1459 6.5 5
      vertex 28.8541 6.5 5
    endloop
  endfacet
  facet normal 0 0 1
    outer loop
      vertex 27.3829 4.7074 5
      vertex 9.47119 4.7074 5
      vertex 9.38579 4.42599 5
    endloop
  endfacet
  facet normal 0 0 1
    outer loop
      vertex 55.6459 5 5
      vertex 30.3541 5 5
      vertex 30.3253 4.7074 5
    endloop
  endfacet
  facet normal 0 0 1
    outer loop
      vertex 9.5 5 5
      vertex 9.47119 4.7074 5
      vertex 27.3829 4.7074 5
    endloop
  endfacet
  facet normal -0 0 1
    outer loop
      vertex 29.4281 6.38579 5
      vertex 29.6875 6.24719 5
      vertex 56.5719 6.38579 5
    endloop
  endfacet
  facet normal -0 0 1
    outer loop
      vertex 57.1459 6.5 5
      vertex 57.4385 6.47119 5
      vertex 86 10 5
    endloop
  endfacet
  facet normal 0 0 1
    outer loop
      vertex 77.7074 6.47119 5
      vertex 78 6.5 5
      vertex 86 10 5
    endloop
  endfacet
  facet normal -0 0 1
    outer loop
      vertex 78 6.5 5
      vertex 78.2926 6.47119 5
      vertex 86 10 5
    endloop
  endfacet
  facet normal -0 0 1
    outer loop
      vertex 78.2926 6.47119 5
      vertex 78.574 6.38579 5
      vertex 86 10 5
    endloop
  endfacet
  facet normal -0 0 1
    outer loop
      vertex 78.574 6.38579 5
      vertex 78.8334 6.24719 5
      vertex 86 10 5
    endloop
  endfacet
  facet normal -0 0 1
    outer loop
      vertex 78.8334 6.24719 5
      vertex 79.0607 6.0607 5
      vertex 86 10 5
    endloop
  endfacet
  facet normal 0 0 1
    outer loop
      vertex 86 10 5
      vertex 79.2472 5.83339 5
      vertex 79.3858 5.57399 5
    endloop
  endfacet
  facet normal 0 0 1
    outer loop
      vertex 86 10 5
      vertex 79.3858 5.57399 5
      vertex 79.4712 5.29259 5
    endloop
  endfacet
  facet normal 0 0 1
    outer loop
      vertex 86 10 5
      vertex 79.4712 5.29259 5
      vertex 79.5 5 5
    endloop
  endfacet
  facet normal 0 0 1
    outer loop
      vertex 86 10 5
      vertex 79.5 5 5
      vertex 86 0 5
    endloop
  endfacet
  facet normal 0 0 1
    outer loop
      vertex 79.5 5 5
      vertex 79.4712 4.7074 5
      vertex 86 0 5
    endloop
  endfacet
  facet normal 0 0 1
    outer loop
      vertex 79.4712 4.7074 5
      vertex 79.3858 4.42599 5
      vertex 86 0 5
    endloop
  endfacet
  facet normal 0 0 1
    outer loop
      vertex 79.3858 4.42599 5
      vertex 79.2472 4.1666 5
      vertex 86 0 5
    endloop
  endfacet
  facet normal 0 0 1
    outer loop
      vertex 79.2472 4.1666 5
      vertex 79.0607 3.93929 5
      vertex 86 0 5
    endloop
  endfacet
  facet normal 0 0 1
    outer loop
      vertex 79.0607 3.93929 5
      vertex 78.8334 3.75279 5
      vertex 86 0 5
    endloop
  endfacet
  facet normal 0 0 1
    outer loop
      vertex 78.8334 3.75279 5
      vertex 78.574 3.6142 5
      vertex 86 0 5
    endloop
  endfacet
  facet normal 0 0 1
    outer loop
      vertex 78.574 3.6142 5
      vertex 78.2926 3.52879 5
      vertex 86 0 5
    endloop
  endfacet
  facet normal -0 0 1
    outer loop
      vertex 8.29259 3.52879 5
      vertex 0 0 5
      vertex 28.5615 3.52879 5
    endloop
  endfacet
  facet normal 0 0 1
    outer loop
      vertex 0 0 5
      vertex 86 0 5
      vertex 57.1459 3.5 5
    endloop
  endfacet
  facet normal 0 0 1
    outer loop
      vertex 27.6069 4.1666 5
      vertex 27.4683 4.42599 5
      vertex 9.24719 4.1666 5
    endloop
  endfacet
  facet normal 0 0 1
    outer loop
      vertex 27.3829 5.29259 5
      vertex 9.5 5 5
      vertex 27.3541 5 5
    endloop
  endfacet
  facet normal -0 0 1
    outer loop
      vertex 9.47119 5.29259 5
      vertex 9.5 5 5
      vertex 27.3829 5.29259 5
    endloop
  endfacet
  facet normal 0 -0 1
    outer loop
      vertex 9.47119 5.29259 5
      vertex 27.3829 5.29259 5
      vertex 9.38579 5.57399 5
    endloop
  endfacet
  facet normal 0 -0 1
    outer loop
      vertex 27.3829 5.29259 5
      vertex 27.4683 5.57399 5
      vertex 9.38579 5.57399 5
    endloop
  endfacet
  facet normal 0 0 1
    outer loop
      vertex 27.4683 5.57399 5
      vertex 9.24719 5.83339 5
      vertex 9.38579 5.57399 5
    endloop
  endfacet
  facet normal 0 0 1
    outer loop
      vertex 27.6069 5.83339 5
      vertex 9.24719 5.83339 5
      vertex 27.4683 5.57399 5
    endloop
  endfacet
  facet normal 0 0 1
    outer loop
      vertex 9.0607 6.0607 5
      vertex 9.24719 5.83339 5
      vertex 27.6069 5.83339 5
    endloop
  endfacet
  facet normal 0 0 1
    outer loop
      vertex 28.0207 6.24719 5
      vertex 9.0607 6.0607 5
      vertex 27.7934 6.0607 5
    endloop
  endfacet
  facet normal -0 0 1
    outer loop
      vertex 8.83339 6.24719 5
      vertex 9.0607 6.0607 5
      vertex 28.0207 6.24719 5
    endloop
  endfacet
  facet normal 0 -0 1
    outer loop
      vertex 8.83339 6.24719 5
      vertex 28.0207 6.24719 5
      vertex 8.57399 6.38579 5
    endloop
  endfacet
  facet normal 0 -0 1
    outer loop
      vertex 28.0207 6.24719 5
      vertex 28.2801 6.38579 5
      vertex 8.57399 6.38579 5
    endloop
  endfacet
  facet normal 0 0 1
    outer loop
      vertex 28.2801 6.38579 5
      vertex 8.29259 6.47119 5
      vertex 8.57399 6.38579 5
    endloop
  endfacet
  facet normal 0 0 1
    outer loop
      vertex 28.5615 6.47119 5
      vertex 8.29259 6.47119 5
      vertex 28.2801 6.38579 5
    endloop
  endfacet
  facet normal 0 0 1
    outer loop
      vertex 0 10 5
      vertex 8.29259 6.47119 5
      vertex 28.5615 6.47119 5
    endloop
  endfacet
  facet normal 0 0 1
    outer loop
      vertex 0 10 5
      vertex 28.8541 6.5 5
      vertex 57.1459 6.5 5
    endloop
  endfacet
  facet normal 0 0 1
    outer loop
      vertex 0 10 5
      vertex 28.5615 6.47119 5
      vertex 28.8541 6.5 5
    endloop
  endfacet
  facet normal 0 0 1
    outer loop
      vertex 77.426 6.38579 5
      vertex 57.4385 6.47119 5
      vertex 57.7199 6.38579 5
    endloop
  endfacet
  facet normal 0 0 1
    outer loop
      vertex 55.7601 4.42599 5
      vertex 30.2399 4.42599 5
      vertex 30.1013 4.1666 5
    endloop
  endfacet
  facet normal 0 -0 1
    outer loop
      vertex 77.1666 6.24719 5
      vertex 77.426 6.38579 5
      vertex 57.7199 6.38579 5
    endloop
  endfacet
  facet normal 0 0 1
    outer loop
      vertex 77.1666 6.24719 5
      vertex 57.7199 6.38579 5
      vertex 57.9793 6.24719 5
    endloop
  endfacet
  facet normal 0 0 1
    outer loop
      vertex 29.9148 3.93929 5
      vertex 56.0852 3.93929 5
      vertex 55.8987 4.1666 5
    endloop
  endfacet
  facet normal 0 -0 1
    outer loop
      vertex 76.9393 6.0607 5
      vertex 77.1666 6.24719 5
      vertex 57.9793 6.24719 5
    endloop
  endfacet
  facet normal 0 0 1
    outer loop
      vertex 56.0852 3.93929 5
      vertex 29.9148 3.93929 5
      vertex 29.6875 3.75279 5
    endloop
  endfacet
  facet normal 0 0 1
    outer loop
      vertex 56.0852 3.93929 5
      vertex 29.6875 3.75279 5
      vertex 56.3125 3.75279 5
    endloop
  endfacet
  facet normal 0 0 1
    outer loop
      vertex 58.5317 5.57399 5
      vertex 58.6171 5.29259 5
      vertex 76.5288 5.29259 5
    endloop
  endfacet
  facet normal 0 0 1
    outer loop
      vertex 56.5719 3.6142 5
      vertex 56.3125 3.75279 5
      vertex 29.6875 3.75279 5
    endloop
  endfacet
  facet normal -0 0 1
    outer loop
      vertex 58.6459 5 5
      vertex 58.6171 4.7074 5
      vertex 76.5 5 5
    endloop
  endfacet
  facet normal 0 0 1
    outer loop
      vertex 56.5719 3.6142 5
      vertex 29.4281 3.6142 5
      vertex 29.1467 3.52879 5
    endloop
  endfacet
  facet normal 0 0 1
    outer loop
      vertex 76.7528 4.1666 5
      vertex 58.3931 4.1666 5
      vertex 76.9393 3.93929 5
    endloop
  endfacet
  facet normal 0 0 1
    outer loop
      vertex 76.9393 3.93929 5
      vertex 57.9793 3.75279 5
      vertex 77.1666 3.75279 5
    endloop
  endfacet
  facet normal 0 0 1
    outer loop
      vertex 0 0 5
      vertex 57.1459 3.5 5
      vertex 28.8541 3.5 5
    endloop
  endfacet
  facet normal 0 0 1
    outer loop
      vertex 28.8541 3.5 5
      vertex 57.1459 3.5 5
      vertex 56.8533 3.52879 5
    endloop
  endfacet
  facet normal -0 0 1
    outer loop
      vertex 29.1467 3.52879 5
      vertex 28.8541 3.5 5
      vertex 56.8533 3.52879 5
    endloop
  endfacet
  facet normal 0 0 1
    outer loop
      vertex 57.4385 3.52879 5
      vertex 77.7074 3.52879 5
      vertex 77.426 3.6142 5
    endloop
  endfacet
  facet normal -0 0 1
    outer loop
      vertex 30.3253 4.7074 5
      vertex 30.2399 4.42599 5
      vertex 55.6747 4.7074 5
    endloop
  endfacet
  facet normal 0 -0 1
    outer loop
      vertex 30.3541 5 5
      vertex 55.6459 5 5
      vertex 30.3253 5.29259 5
    endloop
  endfacet
  facet normal 0 -0 1
    outer loop
      vertex 55.6459 5 5
      vertex 55.6747 5.29259 5
      vertex 30.3253 5.29259 5
    endloop
  endfacet
  facet normal 0 0 1
    outer loop
      vertex 55.6747 5.29259 5
      vertex 30.2399 5.57399 5
      vertex 30.3253 5.29259 5
    endloop
  endfacet
  facet normal 0 0 1
    outer loop
      vertex 55.7601 5.57399 5
      vertex 30.2399 5.57399 5
      vertex 55.6747 5.29259 5
    endloop
  endfacet
  facet normal 0 0 1
    outer loop
      vertex 30.1013 5.83339 5
      vertex 30.2399 5.57399 5
      vertex 55.7601 5.57399 5
    endloop
  endfacet
  facet normal -0 0 1
    outer loop
      vertex 30.1013 5.83339 5
      vertex 55.7601 5.57399 5
      vertex 55.8987 5.83339 5
    endloop
  endfacet
  facet normal 0 -0 1
    outer loop
      vertex 30.1013 5.83339 5
      vertex 55.8987 5.83339 5
      vertex 29.9148 6.0607 5
    endloop
  endfacet
  facet normal 0 -0 1
    outer loop
      vertex 55.8987 5.83339 5
      vertex 56.0852 6.0607 5
      vertex 29.9148 6.0607 5
    endloop
  endfacet
  facet normal 0 0 1
    outer loop
      vertex 56.0852 6.0607 5
      vertex 29.6875 6.24719 5
      vertex 29.9148 6.0607 5
    endloop
  endfacet
  facet normal 0 0 1
    outer loop
      vertex 56.3125 6.24719 5
      vertex 29.6875 6.24719 5
      vertex 56.0852 6.0607 5
    endloop
  endfacet
  facet normal 0 0 1
    outer loop
      vertex 56.5719 6.38579 5
      vertex 29.6875 6.24719 5
      vertex 56.3125 6.24719 5
    endloop
  endfacet
  facet normal 0 0 1
    outer loop
      vertex 29.1467 6.47119 5
      vertex 29.4281 6.38579 5
      vertex 56.5719 6.38579 5
    endloop
  endfacet
  facet normal -0 0 1
    outer loop
      vertex 29.1467 6.47119 5
      vertex 56.5719 6.38579 5
      vertex 56.8533 6.47119 5
    endloop
  endfacet
  facet normal 0 -0 1
    outer loop
      vertex 29.1467 6.47119 5
      vertex 56.8533 6.47119 5
      vertex 28.8541 6.5 5
    endloop
  endfacet
  facet normal -0 0 1
    outer loop
      vertex 0 10 5
      vertex 57.1459 6.5 5
      vertex 86 10 5
    endloop
  endfacet
  facet normal 0 -0 1
    outer loop
      vertex 58.3931 5.83339 5
      vertex 76.9393 6.0607 5
      vertex 58.2066 6.0607 5
    endloop
  endfacet
  facet normal 0 -0 1
    outer loop
      vertex 76.7528 5.83339 5
      vertex 76.9393 6.0607 5
      vertex 58.3931 5.83339 5
    endloop
  endfacet
  facet normal 0 0 1
    outer loop
      vertex 76.6142 5.57399 5
      vertex 58.3931 5.83339 5
      vertex 58.5317 5.57399 5
    endloop
  endfacet
  facet normal 0 0 1
    outer loop
      vertex 76.6142 5.57399 5
      vertex 58.5317 5.57399 5
      vertex 76.5288 5.29259 5
    endloop
  endfacet
  facet normal 0 0 1
    outer loop
      vertex 76.5288 5.29259 5
      vertex 58.6171 5.29259 5
      vertex 76.5 5 5
    endloop
  endfacet
  facet normal 0 0 1
    outer loop
      vertex 58.6171 5.29259 5
      vertex 58.6459 5 5
      vertex 76.5 5 5
    endloop
  endfacet
  facet normal 0 0 1
    outer loop
      vertex 76.5 5 5
      vertex 58.6171 4.7074 5
      vertex 76.5288 4.7074 5
    endloop
  endfacet
  facet normal -0 0 1
    outer loop
      vertex 58.6171 4.7074 5
      vertex 58.5317 4.42599 5
      vertex 76.5288 4.7074 5
    endloop
  endfacet
  facet normal -0 0 1
    outer loop
      vertex 58.5317 4.42599 5
      vertex 58.3931 4.1666 5
      vertex 76.6142 4.42599 5
    endloop
  endfacet
  facet normal 0 0 1
    outer loop
      vertex 58.3931 4.1666 5
      vertex 76.7528 4.1666 5
      vertex 76.6142 4.42599 5
    endloop
  endfacet
  facet normal 0 0 1
    outer loop
      vertex 58.2066 3.93929 5
      vertex 76.9393 3.93929 5
      vertex 58.3931 4.1666 5
    endloop
  endfacet
  facet normal 0 0 1
    outer loop
      vertex 57.9793 3.75279 5
      vertex 76.9393 3.93929 5
      vertex 58.2066 3.93929 5
    endloop
  endfacet
  facet normal 0 0 1
    outer loop
      vertex 57.7199 3.6142 5
      vertex 77.1666 3.75279 5
      vertex 57.9793 3.75279 5
    endloop
  endfacet
  facet normal 0 0 1
    outer loop
      vertex 77.426 3.6142 5
      vertex 77.1666 3.75279 5
      vertex 57.7199 3.6142 5
    endloop
  endfacet
  facet normal 0 0 1
    outer loop
      vertex 86 0 5
      vertex 57.4385 3.52879 5
      vertex 57.1459 3.5 5
    endloop
  endfacet
  facet normal 0 0 1
    outer loop
      vertex 86 0 5
      vertex 77.7074 3.52879 5
      vertex 57.4385 3.52879 5
    endloop
  endfacet
  facet normal 0 1 0
    outer loop
      vertex 0 10 0
      vertex 86 10 5
      vertex 86 10 0
    endloop
  endfacet
  facet normal 0 1 0
    outer loop
      vertex 0 10 0
      vertex 0 10 5
      vertex 86 10 5
    endloop
  endfacet
  facet normal -1 0 0
    outer loop
      vertex 0 0 0
      vertex 0 10 5
      vertex 0 10 0
    endloop
  endfacet
  facet normal -1 0 0
    outer loop
      vertex 0 0 0
      vertex 0 0 5
      vertex 0 10 5
    endloop
  endfacet
  facet normal 0 -1 0
    outer loop
      vertex 86 0 0
      vertex 0 0 5
      vertex 0 0 0
    endloop
  endfacet
  facet normal 0 -1 0
    outer loop
      vertex 86 0 0
      vertex 86 0 5
      vertex 0 0 5
    endloop
  endfacet
  facet normal 1 0 0
    outer loop
      vertex 86 10 0
      vertex 86 0 5
      vertex 86 0 0
    endloop
  endfacet
  facet normal 1 0 -0
    outer loop
      vertex 86 10 0
      vertex 86 10 5
      vertex 86 0 5
    endloop
  endfacet
  facet normal 0.290425 0.956898 -0
    outer loop
      vertex 7.42599 3.6142 0
      vertex 7.42599 3.6142 5
      vertex 7.7074 3.52879 0
    endloop
  endfacet
  facet normal 0.290425 0.956898 0
    outer loop
      vertex 7.7074 3.52879 5
      vertex 7.7074 3.52879 0
      vertex 7.42599 3.6142 5
    endloop
  endfacet
  facet normal 0.471246 0.882002 -0
    outer loop
      vertex 7.1666 3.75279 0
      vertex 7.1666 3.75279 5
      vertex 7.42599 3.6142 0
    endloop
  endfacet
  facet normal 0.471246 0.882002 0
    outer loop
      vertex 7.42599 3.6142 5
      vertex 7.42599 3.6142 0
      vertex 7.1666 3.75279 5
    endloop
  endfacet
  facet normal 0.634295 0.773091 -0
    outer loop
      vertex 6.93929 3.93929 0
      vertex 6.93929 3.93929 5
      vertex 7.1666 3.75279 0
    endloop
  endfacet
  facet normal 0.634295 0.773091 0
    outer loop
      vertex 7.1666 3.75279 5
      vertex 7.1666 3.75279 0
      vertex 6.93929 3.93929 5
    endloop
  endfacet
  facet normal 0.773091 0.634295 -0
    outer loop
      vertex 6.75279 4.1666 0
      vertex 6.75279 4.1666 5
      vertex 6.93929 3.93929 0
    endloop
  endfacet
  facet normal 0.773091 0.634295 0
    outer loop
      vertex 6.93929 3.93929 5
      vertex 6.93929 3.93929 0
      vertex 6.75279 4.1666 5
    endloop
  endfacet
  facet normal 0.882002 0.471246 -0
    outer loop
      vertex 6.6142 4.42599 0
      vertex 6.6142 4.42599 5
      vertex 6.75279 4.1666 0
    endloop
  endfacet
  facet normal 0.882002 0.471246 0
    outer loop
      vertex 6.75279 4.1666 5
      vertex 6.75279 4.1666 0
      vertex 6.6142 4.42599 5
    endloop
  endfacet
  facet normal 0.956898 0.290425 -0
    outer loop
      vertex 6.52879 4.7074 0
      vertex 6.52879 4.7074 5
      vertex 6.6142 4.42599 0
    endloop
  endfacet
  facet normal 0.956898 0.290425 0
    outer loop
      vertex 6.6142 4.42599 5
      vertex 6.6142 4.42599 0
      vertex 6.52879 4.7074 5
    endloop
  endfacet
  facet normal 0.995194 0.0979209 -0
    outer loop
      vertex 6.5 5 0
      vertex 6.5 5 5
      vertex 6.52879 4.7074 0
    endloop
  endfacet
  facet normal 0.995194 0.0979209 0
    outer loop
      vertex 6.52879 4.7074 5
      vertex 6.52879 4.7074 0
      vertex 6.5 5 5
    endloop
  endfacet
  facet normal 0.995194 -0.0979242 0
    outer loop
      vertex 6.52879 5.29259 0
      vertex 6.52879 5.29259 5
      vertex 6.5 5 0
    endloop
  endfacet
  facet normal 0.995194 -0.0979242 0
    outer loop
      vertex 6.5 5 5
      vertex 6.5 5 0
      vertex 6.52879 5.29259 5
    endloop
  endfacet
  facet normal 0.956895 -0.290435 0
    outer loop
      vertex 6.6142 5.57399 0
      vertex 6.6142 5.57399 5
      vertex 6.52879 5.29259 0
    endloop
  endfacet
  facet normal 0.956895 -0.290435 0
    outer loop
      vertex 6.52879 5.29259 5
      vertex 6.52879 5.29259 0
      vertex 6.6142 5.57399 5
    endloop
  endfacet
  facet normal 0.882009 -0.471232 0
    outer loop
      vertex 6.75279 5.83339 0
      vertex 6.75279 5.83339 5
      vertex 6.6142 5.57399 0
    endloop
  endfacet
  facet normal 0.882009 -0.471232 0
    outer loop
      vertex 6.6142 5.57399 5
      vertex 6.6142 5.57399 0
      vertex 6.75279 5.83339 5
    endloop
  endfacet
  facet normal 0.773091 -0.634295 0
    outer loop
      vertex 6.93929 6.0607 0
      vertex 6.93929 6.0607 5
      vertex 6.75279 5.83339 0
    endloop
  endfacet
  facet normal 0.773091 -0.634295 0
    outer loop
      vertex 6.75279 5.83339 5
      vertex 6.75279 5.83339 0
      vertex 6.93929 6.0607 5
    endloop
  endfacet
  facet normal 0.634274 -0.773108 0
    outer loop
      vertex 7.1666 6.24719 0
      vertex 7.1666 6.24719 5
      vertex 6.93929 6.0607 0
    endloop
  endfacet
  facet normal 0.634274 -0.773108 0
    outer loop
      vertex 6.93929 6.0607 5
      vertex 6.93929 6.0607 0
      vertex 7.1666 6.24719 5
    endloop
  endfacet
  facet normal 0.471273 -0.881987 0
    outer loop
      vertex 7.42599 6.38579 0
      vertex 7.42599 6.38579 5
      vertex 7.1666 6.24719 0
    endloop
  endfacet
  facet normal 0.471273 -0.881987 0
    outer loop
      vertex 7.1666 6.24719 5
      vertex 7.1666 6.24719 0
      vertex 7.42599 6.38579 5
    endloop
  endfacet
  facet normal 0.290394 -0.956907 0
    outer loop
      vertex 7.7074 6.47119 0
      vertex 7.7074 6.47119 5
      vertex 7.42599 6.38579 0
    endloop
  endfacet
  facet normal 0.290394 -0.956907 0
    outer loop
      vertex 7.42599 6.38579 5
      vertex 7.42599 6.38579 0
      vertex 7.7074 6.47119 5
    endloop
  endfacet
  facet normal 0.0979882 -0.995188 0
    outer loop
      vertex 8 6.5 0
      vertex 8 6.5 5
      vertex 7.7074 6.47119 0
    endloop
  endfacet
  facet normal 0.0979882 -0.995188 0
    outer loop
      vertex 7.7074 6.47119 5
      vertex 7.7074 6.47119 0
      vertex 8 6.5 5
    endloop
  endfacet
  facet normal -0.0979915 -0.995187 0
    outer loop
      vertex 8.29259 6.47119 0
      vertex 8.29259 6.47119 5
      vertex 8 6.5 0
    endloop
  endfacet
  facet normal -0.0979915 -0.995187 -0
    outer loop
      vertex 8 6.5 5
      vertex 8 6.5 0
      vertex 8.29259 6.47119 5
    endloop
  endfacet
  facet normal -0.290404 -0.956904 0
    outer loop
      vertex 8.57399 6.38579 0
      vertex 8.57399 6.38579 5
      vertex 8.29259 6.47119 0
    endloop
  endfacet
  facet normal -0.290404 -0.956904 -0
    outer loop
      vertex 8.29259 6.47119 5
      vertex 8.29259 6.47119 0
      vertex 8.57399 6.38579 5
    endloop
  endfacet
  facet normal -0.471259 -0.881995 0
    outer loop
      vertex 8.83339 6.24719 0
      vertex 8.83339 6.24719 5
      vertex 8.57399 6.38579 0
    endloop
  endfacet
  facet normal -0.471259 -0.881995 -0
    outer loop
      vertex 8.57399 6.38579 5
      vertex 8.57399 6.38579 0
      vertex 8.83339 6.24719 5
    endloop
  endfacet
  facet normal -0.634274 -0.773108 0
    outer loop
      vertex 9.0607 6.0607 0
      vertex 9.0607 6.0607 5
      vertex 8.83339 6.24719 0
    endloop
  endfacet
  facet normal -0.634274 -0.773108 -0
    outer loop
      vertex 8.83339 6.24719 5
      vertex 8.83339 6.24719 0
      vertex 9.0607 6.0607 5
    endloop
  endfacet
  facet normal -0.773108 -0.634274 0
    outer loop
      vertex 9.24719 5.83339 0
      vertex 9.24719 5.83339 5
      vertex 9.0607 6.0607 0
    endloop
  endfacet
  facet normal -0.773108 -0.634274 -0
    outer loop
      vertex 9.0607 6.0607 5
      vertex 9.0607 6.0607 0
      vertex 9.24719 5.83339 5
    endloop
  endfacet
  facet normal -0.881995 -0.471259 0
    outer loop
      vertex 9.38579 5.57399 0
      vertex 9.38579 5.57399 5
      vertex 9.24719 5.83339 0
    endloop
  endfacet
  facet normal -0.881995 -0.471259 -0
    outer loop
      vertex 9.24719 5.83339 5
      vertex 9.24719 5.83339 0
      vertex 9.38579 5.57399 5
    endloop
  endfacet
  facet normal -0.956904 -0.290404 0
    outer loop
      vertex 9.47119 5.29259 0
      vertex 9.47119 5.29259 5
      vertex 9.38579 5.57399 0
    endloop
  endfacet
  facet normal -0.956904 -0.290404 -0
    outer loop
      vertex 9.38579 5.57399 5
      vertex 9.38579 5.57399 0
      vertex 9.47119 5.29259 5
    endloop
  endfacet
  facet normal -0.995187 -0.0979915 0
    outer loop
      vertex 9.5 5 0
      vertex 9.5 5 5
      vertex 9.47119 5.29259 0
    endloop
  endfacet
  facet normal -0.995187 -0.0979915 -0
    outer loop
      vertex 9.47119 5.29259 5
      vertex 9.47119 5.29259 0
      vertex 9.5 5 5
    endloop
  endfacet
  facet normal -0.995188 0.0979882 0
    outer loop
      vertex 9.47119 4.7074 0
      vertex 9.47119 4.7074 5
      vertex 9.5 5 0
    endloop
  endfacet
  facet normal -0.995188 0.0979882 0
    outer loop
      vertex 9.5 5 5
      vertex 9.5 5 0
      vertex 9.47119 4.7074 5
    endloop
  endfacet
  facet normal -0.956907 0.290394 0
    outer loop
      vertex 9.38579 4.42599 0
      vertex 9.38579 4.42599 5
      vertex 9.47119 4.7074 0
    endloop
  endfacet
  facet normal -0.956907 0.290394 0
    outer loop
      vertex 9.47119 4.7074 5
      vertex 9.47119 4.7074 0
      vertex 9.38579 4.42599 5
    endloop
  endfacet
  facet normal -0.881987 0.471273 0
    outer loop
      vertex 9.24719 4.1666 0
      vertex 9.24719 4.1666 5
      vertex 9.38579 4.42599 0
    endloop
  endfacet
  facet normal -0.881987 0.471273 0
    outer loop
      vertex 9.38579 4.42599 5
      vertex 9.38579 4.42599 0
      vertex 9.24719 4.1666 5
    endloop
  endfacet
  facet normal -0.773108 0.634274 0
    outer loop
      vertex 9.0607 3.93929 0
      vertex 9.0607 3.93929 5
      vertex 9.24719 4.1666 0
    endloop
  endfacet
  facet normal -0.773108 0.634274 0
    outer loop
      vertex 9.24719 4.1666 5
      vertex 9.24719 4.1666 0
      vertex 9.0607 3.93929 5
    endloop
  endfacet
  facet normal -0.634295 0.773091 0
    outer loop
      vertex 8.83339 3.75279 0
      vertex 8.83339 3.75279 5
      vertex 9.0607 3.93929 0
    endloop
  endfacet
  facet normal -0.634295 0.773091 0
    outer loop
      vertex 9.0607 3.93929 5
      vertex 9.0607 3.93929 0
      vertex 8.83339 3.75279 5
    endloop
  endfacet
  facet normal -0.471232 0.882009 0
    outer loop
      vertex 8.57399 3.6142 0
      vertex 8.57399 3.6142 5
      vertex 8.83339 3.75279 0
    endloop
  endfacet
  facet normal -0.471232 0.882009 0
    outer loop
      vertex 8.83339 3.75279 5
      vertex 8.83339 3.75279 0
      vertex 8.57399 3.6142 5
    endloop
  endfacet
  facet normal -0.290435 0.956895 0
    outer loop
      vertex 8.29259 3.52879 0
      vertex 8.29259 3.52879 5
      vertex 8.57399 3.6142 0
    endloop
  endfacet
  facet normal -0.290435 0.956895 0
    outer loop
      vertex 8.57399 3.6142 5
      vertex 8.57399 3.6142 0
      vertex 8.29259 3.52879 5
    endloop
  endfacet
  facet normal -0.0979242 0.995194 0
    outer loop
      vertex 8 3.5 0
      vertex 8 3.5 5
      vertex 8.29259 3.52879 0
    endloop
  endfacet
  facet normal -0.0979242 0.995194 0
    outer loop
      vertex 8.29259 3.52879 5
      vertex 8.29259 3.52879 0
      vertex 8 3.5 5
    endloop
  endfacet
  facet normal 0.0979209 0.995194 -0
    outer loop
      vertex 7.7074 3.52879 0
      vertex 7.7074 3.52879 5
      vertex 8 3.5 0
    endloop
  endfacet
  facet normal 0.0979209 0.995194 0
    outer loop
      vertex 8 3.5 5
      vertex 8 3.5 0
      vertex 7.7074 3.52879 5
    endloop
  endfacet
  facet normal 0.290435 0.956895 -0
    outer loop
      vertex 77.426 3.6142 0
      vertex 77.426 3.6142 5
      vertex 77.7074 3.52879 0
    endloop
  endfacet
  facet normal 0.290435 0.956895 0
    outer loop
      vertex 77.7074 3.52879 5
      vertex 77.7074 3.52879 0
      vertex 77.426 3.6142 5
    endloop
  endfacet
  facet normal 0.471232 0.882009 -0
    outer loop
      vertex 77.1666 3.75279 0
      vertex 77.1666 3.75279 5
      vertex 77.426 3.6142 0
    endloop
  endfacet
  facet normal 0.471232 0.882009 0
    outer loop
      vertex 77.426 3.6142 5
      vertex 77.426 3.6142 0
      vertex 77.1666 3.75279 5
    endloop
  endfacet
  facet normal 0.634311 0.773078 -0
    outer loop
      vertex 76.9393 3.93929 0
      vertex 76.9393 3.93929 5
      vertex 77.1666 3.75279 0
    endloop
  endfacet
  facet normal 0.634311 0.773078 0
    outer loop
      vertex 77.1666 3.75279 5
      vertex 77.1666 3.75279 0
      vertex 76.9393 3.93929 5
    endloop
  endfacet
  facet normal 0.773091 0.634295 -0
    outer loop
      vertex 76.7528 4.1666 0
      vertex 76.7528 4.1666 5
      vertex 76.9393 3.93929 0
    endloop
  endfacet
  facet normal 0.773091 0.634295 0
    outer loop
      vertex 76.9393 3.93929 5
      vertex 76.9393 3.93929 0
      vertex 76.7528 4.1666 5
    endloop
  endfacet
  facet normal 0.881987 0.471273 -0
    outer loop
      vertex 76.6142 4.42599 0
      vertex 76.6142 4.42599 5
      vertex 76.7528 4.1666 0
    endloop
  endfacet
  facet normal 0.881987 0.471273 0
    outer loop
      vertex 76.7528 4.1666 5
      vertex 76.7528 4.1666 0
      vertex 76.6142 4.42599 5
    endloop
  endfacet
  facet normal 0.956907 0.290394 -0
    outer loop
      vertex 76.5288 4.7074 0
      vertex 76.5288 4.7074 5
      vertex 76.6142 4.42599 0
    endloop
  endfacet
  facet normal 0.956907 0.290394 0
    outer loop
      vertex 76.6142 4.42599 5
      vertex 76.6142 4.42599 0
      vertex 76.5288 4.7074 5
    endloop
  endfacet
  facet normal 0.995191 0.0979545 -0
    outer loop
      vertex 76.5 5 0
      vertex 76.5 5 5
      vertex 76.5288 4.7074 0
    endloop
  endfacet
  facet normal 0.995191 0.0979545 0
    outer loop
      vertex 76.5288 4.7074 5
      vertex 76.5288 4.7074 0
      vertex 76.5 5 5
    endloop
  endfacet
  facet normal 0.995191 -0.0979579 0
    outer loop
      vertex 76.5288 5.29259 0
      vertex 76.5288 5.29259 5
      vertex 76.5 5 0
    endloop
  endfacet
  facet normal 0.995191 -0.0979579 0
    outer loop
      vertex 76.5 5 5
      vertex 76.5 5 0
      vertex 76.5288 5.29259 5
    endloop
  endfacet
  facet normal 0.956904 -0.290404 0
    outer loop
      vertex 76.6142 5.57399 0
      vertex 76.6142 5.57399 5
      vertex 76.5288 5.29259 0
    endloop
  endfacet
  facet normal 0.956904 -0.290404 0
    outer loop
      vertex 76.5288 5.29259 5
      vertex 76.5288 5.29259 0
      vertex 76.6142 5.57399 5
    endloop
  endfacet
  facet normal 0.881995 -0.471259 0
    outer loop
      vertex 76.7528 5.83339 0
      vertex 76.7528 5.83339 5
      vertex 76.6142 5.57399 0
    endloop
  endfacet
  facet normal 0.881995 -0.471259 0
    outer loop
      vertex 76.6142 5.57399 5
      vertex 76.6142 5.57399 0
      vertex 76.7528 5.83339 5
    endloop
  endfacet
  facet normal 0.773091 -0.634295 0
    outer loop
      vertex 76.9393 6.0607 0
      vertex 76.9393 6.0607 5
      vertex 76.7528 5.83339 0
    endloop
  endfacet
  facet normal 0.773091 -0.634295 0
    outer loop
      vertex 76.7528 5.83339 5
      vertex 76.7528 5.83339 0
      vertex 76.9393 6.0607 5
    endloop
  endfacet
  facet normal 0.634291 -0.773094 0
    outer loop
      vertex 77.1666 6.24719 0
      vertex 77.1666 6.24719 5
      vertex 76.9393 6.0607 0
    endloop
  endfacet
  facet normal 0.634291 -0.773094 0
    outer loop
      vertex 76.9393 6.0607 5
      vertex 76.9393 6.0607 0
      vertex 77.1666 6.24719 5
    endloop
  endfacet
  facet normal 0.471259 -0.881995 0
    outer loop
      vertex 77.426 6.38579 0
      vertex 77.426 6.38579 5
      vertex 77.1666 6.24719 0
    endloop
  endfacet
  facet normal 0.471259 -0.881995 0
    outer loop
      vertex 77.1666 6.24719 5
      vertex 77.1666 6.24719 0
      vertex 77.426 6.38579 5
    endloop
  endfacet
  facet normal 0.290404 -0.956904 0
    outer loop
      vertex 77.7074 6.47119 0
      vertex 77.7074 6.47119 5
      vertex 77.426 6.38579 0
    endloop
  endfacet
  facet normal 0.290404 -0.956904 0
    outer loop
      vertex 77.426 6.38579 5
      vertex 77.426 6.38579 0
      vertex 77.7074 6.47119 5
    endloop
  endfacet
  facet normal 0.0979882 -0.995188 0
    outer loop
      vertex 78 6.5 0
      vertex 78 6.5 5
      vertex 77.7074 6.47119 0
    endloop
  endfacet
  facet normal 0.0979882 -0.995188 0
    outer loop
      vertex 77.7074 6.47119 5
      vertex 77.7074 6.47119 0
      vertex 78 6.5 5
    endloop
  endfacet
  facet normal -0.0979882 -0.995188 0
    outer loop
      vertex 78.2926 6.47119 0
      vertex 78.2926 6.47119 5
      vertex 78 6.5 0
    endloop
  endfacet
  facet normal -0.0979882 -0.995188 -0
    outer loop
      vertex 78 6.5 5
      vertex 78 6.5 0
      vertex 78.2926 6.47119 5
    endloop
  endfacet
  facet normal -0.290404 -0.956904 0
    outer loop
      vertex 78.574 6.38579 0
      vertex 78.574 6.38579 5
      vertex 78.2926 6.47119 0
    endloop
  endfacet
  facet normal -0.290404 -0.956904 -0
    outer loop
      vertex 78.2926 6.47119 5
      vertex 78.2926 6.47119 0
      vertex 78.574 6.38579 5
    endloop
  endfacet
  facet normal -0.471259 -0.881995 0
    outer loop
      vertex 78.8334 6.24719 0
      vertex 78.8334 6.24719 5
      vertex 78.574 6.38579 0
    endloop
  endfacet
  facet normal -0.471259 -0.881995 -0
    outer loop
      vertex 78.574 6.38579 5
      vertex 78.574 6.38579 0
      vertex 78.8334 6.24719 5
    endloop
  endfacet
  facet normal -0.634291 -0.773094 0
    outer loop
      vertex 79.0607 6.0607 0
      vertex 79.0607 6.0607 5
      vertex 78.8334 6.24719 0
    endloop
  endfacet
  facet normal -0.634291 -0.773094 -0
    outer loop
      vertex 78.8334 6.24719 5
      vertex 78.8334 6.24719 0
      vertex 79.0607 6.0607 5
    endloop
  endfacet
  facet normal -0.773091 -0.634295 0
    outer loop
      vertex 79.2472 5.83339 0
      vertex 79.2472 5.83339 5
      vertex 79.0607 6.0607 0
    endloop
  endfacet
  facet normal -0.773091 -0.634295 -0
    outer loop
      vertex 79.0607 6.0607 5
      vertex 79.0607 6.0607 0
      vertex 79.2472 5.83339 5
    endloop
  endfacet
  facet normal -0.881995 -0.471259 0
    outer loop
      vertex 79.3858 5.57399 0
      vertex 79.3858 5.57399 5
      vertex 79.2472 5.83339 0
    endloop
  endfacet
  facet normal -0.881995 -0.471259 -0
    outer loop
      vertex 79.2472 5.83339 5
      vertex 79.2472 5.83339 0
      vertex 79.3858 5.57399 5
    endloop
  endfacet
  facet normal -0.956904 -0.290404 0
    outer loop
      vertex 79.4712 5.29259 0
      vertex 79.4712 5.29259 5
      vertex 79.3858 5.57399 0
    endloop
  endfacet
  facet normal -0.956904 -0.290404 -0
    outer loop
      vertex 79.3858 5.57399 5
      vertex 79.3858 5.57399 0
      vertex 79.4712 5.29259 5
    endloop
  endfacet
  facet normal -0.995191 -0.0979579 0
    outer loop
      vertex 79.5 5 0
      vertex 79.5 5 5
      vertex 79.4712 5.29259 0
    endloop
  endfacet
  facet normal -0.995191 -0.0979579 -0
    outer loop
      vertex 79.4712 5.29259 5
      vertex 79.4712 5.29259 0
      vertex 79.5 5 5
    endloop
  endfacet
  facet normal -0.995191 0.0979545 0
    outer loop
      vertex 79.4712 4.7074 0
      vertex 79.4712 4.7074 5
      vertex 79.5 5 0
    endloop
  endfacet
  facet normal -0.995191 0.0979545 0
    outer loop
      vertex 79.5 5 5
      vertex 79.5 5 0
      vertex 79.4712 4.7074 5
    endloop
  endfacet
  facet normal -0.956907 0.290394 0
    outer loop
      vertex 79.3858 4.42599 0
      vertex 79.3858 4.42599 5
      vertex 79.4712 4.7074 0
    endloop
  endfacet
  facet normal -0.956907 0.290394 0
    outer loop
      vertex 79.4712 4.7074 5
      vertex 79.4712 4.7074 0
      vertex 79.3858 4.42599 5
    endloop
  endfacet
  facet normal -0.881987 0.471273 0
    outer loop
      vertex 79.2472 4.1666 0
      vertex 79.2472 4.1666 5
      vertex 79.3858 4.42599 0
    endloop
  endfacet
  facet normal -0.881987 0.471273 0
    outer loop
      vertex 79.3858 4.42599 5
      vertex 79.3858 4.42599 0
      vertex 79.2472 4.1666 5
    endloop
  endfacet
  facet normal -0.773091 0.634295 0
    outer loop
      vertex 79.0607 3.93929 0
      vertex 79.0607 3.93929 5
      vertex 79.2472 4.1666 0
    endloop
  endfacet
  facet normal -0.773091 0.634295 0
    outer loop
      vertex 79.2472 4.1666 5
      vertex 79.2472 4.1666 0
      vertex 79.0607 3.93929 5
    endloop
  endfacet
  facet normal -0.634311 0.773078 0
    outer loop
      vertex 78.8334 3.75279 0
      vertex 78.8334 3.75279 5
      vertex 79.0607 3.93929 0
    endloop
  endfacet
  facet normal -0.634311 0.773078 0
    outer loop
      vertex 79.0607 3.93929 5
      vertex 79.0607 3.93929 0
      vertex 78.8334 3.75279 5
    endloop
  endfacet
  facet normal -0.471232 0.882009 0
    outer loop
      vertex 78.574 3.6142 0
      vertex 78.574 3.6142 5
      vertex 78.8334 3.75279 0
    endloop
  endfacet
  facet normal -0.471232 0.882009 0
    outer loop
      vertex 78.8334 3.75279 5
      vertex 78.8334 3.75279 0
      vertex 78.574 3.6142 5
    endloop
  endfacet
  facet normal -0.290435 0.956895 0
    outer loop
      vertex 78.2926 3.52879 0
      vertex 78.2926 3.52879 5
      vertex 78.574 3.6142 0
    endloop
  endfacet
  facet normal -0.290435 0.956895 0
    outer loop
      vertex 78.574 3.6142 5
      vertex 78.574 3.6142 0
      vertex 78.2926 3.52879 5
    endloop
  endfacet
  facet normal -0.0979209 0.995194 0
    outer loop
      vertex 78 3.5 0
      vertex 78 3.5 5
      vertex 78.2926 3.52879 0
    endloop
  endfacet
  facet normal -0.0979209 0.995194 0
    outer loop
      vertex 78.2926 3.52879 5
      vertex 78.2926 3.52879 0
      vertex 78 3.5 5
    endloop
  endfacet
  facet normal 0.0979209 0.995194 -0
    outer loop
      vertex 77.7074 3.52879 0
      vertex 77.7074 3.52879 5
      vertex 78 3.5 0
    endloop
  endfacet
  facet normal 0.0979209 0.995194 0
    outer loop
      vertex 78 3.5 5
      vertex 78 3.5 0
      vertex 77.7074 3.52879 5
    endloop
  endfacet
  facet normal 0.290435 0.956895 -0
    outer loop
      vertex 28.2801 3.6142 0
      vertex 28.2801 3.6142 5
      vertex 28.5615 3.52879 0
    endloop
  endfacet
  facet normal 0.290435 0.956895 0
    outer loop
      vertex 28.5615 3.52879 5
      vertex 28.5615 3.52879 0
      vertex 28.2801 3.6142 5
    endloop
  endfacet
  facet normal 0.471232 0.882009 -0
    outer loop
      vertex 28.0207 3.75279 0
      vertex 28.0207 3.75279 5
      vertex 28.2801 3.6142 0
    endloop
  endfacet
  facet normal 0.471232 0.882009 0
    outer loop
      vertex 28.2801 3.6142 5
      vertex 28.2801 3.6142 0
      vertex 28.0207 3.75279 5
    endloop
  endfacet
  facet normal 0.634311 0.773078 -0
    outer loop
      vertex 27.7934 3.93929 0
      vertex 27.7934 3.93929 5
      vertex 28.0207 3.75279 0
    endloop
  endfacet
  facet normal 0.634311 0.773078 0
    outer loop
      vertex 28.0207 3.75279 5
      vertex 28.0207 3.75279 0
      vertex 27.7934 3.93929 5
    endloop
  endfacet
  facet normal 0.773091 0.634295 -0
    outer loop
      vertex 27.6069 4.1666 0
      vertex 27.6069 4.1666 5
      vertex 27.7934 3.93929 0
    endloop
  endfacet
  facet normal 0.773091 0.634295 0
    outer loop
      vertex 27.7934 3.93929 5
      vertex 27.7934 3.93929 0
      vertex 27.6069 4.1666 5
    endloop
  endfacet
  facet normal 0.881987 0.471273 -0
    outer loop
      vertex 27.4683 4.42599 0
      vertex 27.4683 4.42599 5
      vertex 27.6069 4.1666 0
    endloop
  endfacet
  facet normal 0.881987 0.471273 0
    outer loop
      vertex 27.6069 4.1666 5
      vertex 27.6069 4.1666 0
      vertex 27.4683 4.42599 5
    endloop
  endfacet
  facet normal 0.956907 0.290394 -0
    outer loop
      vertex 27.3829 4.7074 0
      vertex 27.3829 4.7074 5
      vertex 27.4683 4.42599 0
    endloop
  endfacet
  facet normal 0.956907 0.290394 0
    outer loop
      vertex 27.4683 4.42599 5
      vertex 27.4683 4.42599 0
      vertex 27.3829 4.7074 5
    endloop
  endfacet
  facet normal 0.995191 0.0979545 -0
    outer loop
      vertex 27.3541 5 0
      vertex 27.3541 5 5
      vertex 27.3829 4.7074 0
    endloop
  endfacet
  facet normal 0.995191 0.0979545 0
    outer loop
      vertex 27.3829 4.7074 5
      vertex 27.3829 4.7074 0
      vertex 27.3541 5 5
    endloop
  endfacet
  facet normal 0.995191 -0.0979579 0
    outer loop
      vertex 27.3829 5.29259 0
      vertex 27.3829 5.29259 5
      vertex 27.3541 5 0
    endloop
  endfacet
  facet normal 0.995191 -0.0979579 0
    outer loop
      vertex 27.3541 5 5
      vertex 27.3541 5 0
      vertex 27.3829 5.29259 5
    endloop
  endfacet
  facet normal 0.956904 -0.290404 0
    outer loop
      vertex 27.4683 5.57399 0
      vertex 27.4683 5.57399 5
      vertex 27.3829 5.29259 0
    endloop
  endfacet
  facet normal 0.956904 -0.290404 0
    outer loop
      vertex 27.3829 5.29259 5
      vertex 27.3829 5.29259 0
      vertex 27.4683 5.57399 5
    endloop
  endfacet
  facet normal 0.881995 -0.471259 0
    outer loop
      vertex 27.6069 5.83339 0
      vertex 27.6069 5.83339 5
      vertex 27.4683 5.57399 0
    endloop
  endfacet
  facet normal 0.881995 -0.471259 0
    outer loop
      vertex 27.4683 5.57399 5
      vertex 27.4683 5.57399 0
      vertex 27.6069 5.83339 5
    endloop
  endfacet
  facet normal 0.773091 -0.634295 0
    outer loop
      vertex 27.7934 6.0607 0
      vertex 27.7934 6.0607 5
      vertex 27.6069 5.83339 0
    endloop
  endfacet
  facet normal 0.773091 -0.634295 0
    outer loop
      vertex 27.6069 5.83339 5
      vertex 27.6069 5.83339 0
      vertex 27.7934 6.0607 5
    endloop
  endfacet
  facet normal 0.634291 -0.773094 0
    outer loop
      vertex 28.0207 6.24719 0
      vertex 28.0207 6.24719 5
      vertex 27.7934 6.0607 0
    endloop
  endfacet
  facet normal 0.634291 -0.773094 0
    outer loop
      vertex 27.7934 6.0607 5
      vertex 27.7934 6.0607 0
      vertex 28.0207 6.24719 5
    endloop
  endfacet
  facet normal 0.471259 -0.881995 0
    outer loop
      vertex 28.2801 6.38579 0
      vertex 28.2801 6.38579 5
      vertex 28.0207 6.24719 0
    endloop
  endfacet
  facet normal 0.471259 -0.881995 0
    outer loop
      vertex 28.0207 6.24719 5
      vertex 28.0207 6.24719 0
      vertex 28.2801 6.38579 5
    endloop
  endfacet
  facet normal 0.290404 -0.956904 0
    outer loop
      vertex 28.5615 6.47119 0
      vertex 28.5615 6.47119 5
      vertex 28.2801 6.38579 0
    endloop
  endfacet
  facet normal 0.290404 -0.956904 0
    outer loop
      vertex 28.2801 6.38579 5
      vertex 28.2801 6.38579 0
      vertex 28.5615 6.47119 5
    endloop
  endfacet
  facet normal 0.0979882 -0.995188 0
    outer loop
      vertex 28.8541 6.5 0
      vertex 28.8541 6.5 5
      vertex 28.5615 6.47119 0
    endloop
  endfacet
  facet normal 0.0979882 -0.995188 0
    outer loop
      vertex 28.5615 6.47119 5
      vertex 28.5615 6.47119 0
      vertex 28.8541 6.5 5
    endloop
  endfacet
  facet normal -0.0979882 -0.995188 0
    outer loop
      vertex 29.1467 6.47119 0
      vertex 29.1467 6.47119 5
      vertex 28.8541 6.5 0
    endloop
  endfacet
  facet normal -0.0979882 -0.995188 -0
    outer loop
      vertex 28.8541 6.5 5
      vertex 28.8541 6.5 0
      vertex 29.1467 6.47119 5
    endloop
  endfacet
  facet normal -0.290404 -0.956904 0
    outer loop
      vertex 29.4281 6.38579 0
      vertex 29.4281 6.38579 5
      vertex 29.1467 6.47119 0
    endloop
  endfacet
  facet normal -0.290404 -0.956904 -0
    outer loop
      vertex 29.1467 6.47119 5
      vertex 29.1467 6.47119 0
      vertex 29.4281 6.38579 5
    endloop
  endfacet
  facet normal -0.471259 -0.881995 0
    outer loop
      vertex 29.6875 6.24719 0
      vertex 29.6875 6.24719 5
      vertex 29.4281 6.38579 0
    endloop
  endfacet
  facet normal -0.471259 -0.881995 -0
    outer loop
      vertex 29.4281 6.38579 5
      vertex 29.4281 6.38579 0
      vertex 29.6875 6.24719 5
    endloop
  endfacet
  facet normal -0.634291 -0.773094 0
    outer loop
      vertex 29.9148 6.0607 0
      vertex 29.9148 6.0607 5
      vertex 29.6875 6.24719 0
    endloop
  endfacet
  facet normal -0.634291 -0.773094 -0
    outer loop
      vertex 29.6875 6.24719 5
      vertex 29.6875 6.24719 0
      vertex 29.9148 6.0607 5
    endloop
  endfacet
  facet normal -0.773091 -0.634295 0
    outer loop
      vertex 30.1013 5.83339 0
      vertex 30.1013 5.83339 5
      vertex 29.9148 6.0607 0
    endloop
  endfacet
  facet normal -0.773091 -0.634295 -0
    outer loop
      vertex 29.9148 6.0607 5
      vertex 29.9148 6.0607 0
      vertex 30.1013 5.83339 5
    endloop
  endfacet
  facet normal -0.881995 -0.471259 0
    outer loop
      vertex 30.2399 5.57399 0
      vertex 30.2399 5.57399 5
      vertex 30.1013 5.83339 0
    endloop
  endfacet
  facet normal -0.881995 -0.471259 -0
    outer loop
      vertex 30.1013 5.83339 5
      vertex 30.1013 5.83339 0
      vertex 30.2399 5.57399 5
    endloop
  endfacet
  facet normal -0.956904 -0.290404 0
    outer loop
      vertex 30.3253 5.29259 0
      vertex 30.3253 5.29259 5
      vertex 30.2399 5.57399 0
    endloop
  endfacet
  facet normal -0.956904 -0.290404 -0
    outer loop
      vertex 30.2399 5.57399 5
      vertex 30.2399 5.57399 0
      vertex 30.3253 5.29259 5
    endloop
  endfacet
  facet normal -0.995191 -0.0979579 0
    outer loop
      vertex 30.3541 5 0
      vertex 30.3541 5 5
      vertex 30.3253 5.29259 0
    endloop
  endfacet
  facet normal -0.995191 -0.0979579 -0
    outer loop
      vertex 30.3253 5.29259 5
      vertex 30.3253 5.29259 0
      vertex 30.3541 5 5
    endloop
  endfacet
  facet normal -0.995191 0.0979545 0
    outer loop
      vertex 30.3253 4.7074 0
      vertex 30.3253 4.7074 5
      vertex 30.3541 5 0
    endloop
  endfacet
  facet normal -0.995191 0.0979545 0
    outer loop
      vertex 30.3541 5 5
      vertex 30.3541 5 0
      vertex 30.3253 4.7074 5
    endloop
  endfacet
  facet normal -0.956907 0.290394 0
    outer loop
      vertex 30.2399 4.42599 0
      vertex 30.2399 4.42599 5
      vertex 30.3253 4.7074 0
    endloop
  endfacet
  facet normal -0.956907 0.290394 0
    outer loop
      vertex 30.3253 4.7074 5
      vertex 30.3253 4.7074 0
      vertex 30.2399 4.42599 5
    endloop
  endfacet
  facet normal -0.881987 0.471273 0
    outer loop
      vertex 30.1013 4.1666 0
      vertex 30.1013 4.1666 5
      vertex 30.2399 4.42599 0
    endloop
  endfacet
  facet normal -0.881987 0.471273 0
    outer loop
      vertex 30.2399 4.42599 5
      vertex 30.2399 4.42599 0
      vertex 30.1013 4.1666 5
    endloop
  endfacet
  facet normal -0.773091 0.634295 0
    outer loop
      vertex 29.9148 3.93929 0
      vertex 29.9148 3.93929 5
      vertex 30.1013 4.1666 0
    endloop
  endfacet
  facet normal -0.773091 0.634295 0
    outer loop
      vertex 30.1013 4.1666 5
      vertex 30.1013 4.1666 0
      vertex 29.9148 3.93929 5
    endloop
  endfacet
  facet normal -0.634311 0.773078 0
    outer loop
      vertex 29.6875 3.75279 0
      vertex 29.6875 3.75279 5
      vertex 29.9148 3.93929 0
    endloop
  endfacet
  facet normal -0.634311 0.773078 0
    outer loop
      vertex 29.9148 3.93929 5
      vertex 29.9148 3.93929 0
      vertex 29.6875 3.75279 5
    endloop
  endfacet
  facet normal -0.471232 0.882009 0
    outer loop
      vertex 29.4281 3.6142 0
      vertex 29.4281 3.6142 5
      vertex 29.6875 3.75279 0
    endloop
  endfacet
  facet normal -0.471232 0.882009 0
    outer loop
      vertex 29.6875 3.75279 5
      vertex 29.6875 3.75279 0
      vertex 29.4281 3.6142 5
    endloop
  endfacet
  facet normal -0.290435 0.956895 0
    outer loop
      vertex 29.1467 3.52879 0
      vertex 29.1467 3.52879 5
      vertex 29.4281 3.6142 0
    endloop
  endfacet
  facet normal -0.290435 0.956895 0
    outer loop
      vertex 29.4281 3.6142 5
      vertex 29.4281 3.6142 0
      vertex 29.1467 3.52879 5
    endloop
  endfacet
  facet normal -0.0979209 0.995194 0
    outer loop
      vertex 28.8541 3.5 0
      vertex 28.8541 3.5 5
      vertex 29.1467 3.52879 0
    endloop
  endfacet
  facet normal -0.0979209 0.995194 0
    outer loop
      vertex 29.1467 3.52879 5
      vertex 29.1467 3.52879 0
      vertex 28.8541 3.5 5
    endloop
  endfacet
  facet normal 0.0979209 0.995194 -0
    outer loop
      vertex 28.5615 3.52879 0
      vertex 28.5615 3.52879 5
      vertex 28.8541 3.5 0
    endloop
  endfacet
  facet normal 0.0979209 0.995194 0
    outer loop
      vertex 28.8541 3.5 5
      vertex 28.8541 3.5 0
      vertex 28.5615 3.52879 5
    endloop
  endfacet
  facet normal 0.290435 0.956895 -0
    outer loop
      vertex 56.5719 3.6142 0
      vertex 56.5719 3.6142 5
      vertex 56.8533 3.52879 0
    endloop
  endfacet
  facet normal 0.290435 0.956895 0
    outer loop
      vertex 56.8533 3.52879 5
      vertex 56.8533 3.52879 0
      vertex 56.5719 3.6142 5
    endloop
  endfacet
  facet normal 0.471232 0.882009 -0
    outer loop
      vertex 56.3125 3.75279 0
      vertex 56.3125 3.75279 5
      vertex 56.5719 3.6142 0
    endloop
  endfacet
  facet normal 0.471232 0.882009 0
    outer loop
      vertex 56.5719 3.6142 5
      vertex 56.5719 3.6142 0
      vertex 56.3125 3.75279 5
    endloop
  endfacet
  facet normal 0.634311 0.773078 -0
    outer loop
      vertex 56.0852 3.93929 0
      vertex 56.0852 3.93929 5
      vertex 56.3125 3.75279 0
    endloop
  endfacet
  facet normal 0.634311 0.773078 0
    outer loop
      vertex 56.3125 3.75279 5
      vertex 56.3125 3.75279 0
      vertex 56.0852 3.93929 5
    endloop
  endfacet
  facet normal 0.773091 0.634295 -0
    outer loop
      vertex 55.8987 4.1666 0
      vertex 55.8987 4.1666 5
      vertex 56.0852 3.93929 0
    endloop
  endfacet
  facet normal 0.773091 0.634295 0
    outer loop
      vertex 56.0852 3.93929 5
      vertex 56.0852 3.93929 0
      vertex 55.8987 4.1666 5
    endloop
  endfacet
  facet normal 0.881987 0.471273 -0
    outer loop
      vertex 55.7601 4.42599 0
      vertex 55.7601 4.42599 5
      vertex 55.8987 4.1666 0
    endloop
  endfacet
  facet normal 0.881987 0.471273 0
    outer loop
      vertex 55.8987 4.1666 5
      vertex 55.8987 4.1666 0
      vertex 55.7601 4.42599 5
    endloop
  endfacet
  facet normal 0.956907 0.290394 -0
    outer loop
      vertex 55.6747 4.7074 0
      vertex 55.6747 4.7074 5
      vertex 55.7601 4.42599 0
    endloop
  endfacet
  facet normal 0.956907 0.290394 0
    outer loop
      vertex 55.7601 4.42599 5
      vertex 55.7601 4.42599 0
      vertex 55.6747 4.7074 5
    endloop
  endfacet
  facet normal 0.995191 0.0979545 -0
    outer loop
      vertex 55.6459 5 0
      vertex 55.6459 5 5
      vertex 55.6747 4.7074 0
    endloop
  endfacet
  facet normal 0.995191 0.0979545 0
    outer loop
      vertex 55.6747 4.7074 5
      vertex 55.6747 4.7074 0
      vertex 55.6459 5 5
    endloop
  endfacet
  facet normal 0.995191 -0.0979579 0
    outer loop
      vertex 55.6747 5.29259 0
      vertex 55.6747 5.29259 5
      vertex 55.6459 5 0
    endloop
  endfacet
  facet normal 0.995191 -0.0979579 0
    outer loop
      vertex 55.6459 5 5
      vertex 55.6459 5 0
      vertex 55.6747 5.29259 5
    endloop
  endfacet
  facet normal 0.956904 -0.290404 0
    outer loop
      vertex 55.7601 5.57399 0
      vertex 55.7601 5.57399 5
      vertex 55.6747 5.29259 0
    endloop
  endfacet
  facet normal 0.956904 -0.290404 0
    outer loop
      vertex 55.6747 5.29259 5
      vertex 55.6747 5.29259 0
      vertex 55.7601 5.57399 5
    endloop
  endfacet
  facet normal 0.881995 -0.471259 0
    outer loop
      vertex 55.8987 5.83339 0
      vertex 55.8987 5.83339 5
      vertex 55.7601 5.57399 0
    endloop
  endfacet
  facet normal 0.881995 -0.471259 0
    outer loop
      vertex 55.7601 5.57399 5
      vertex 55.7601 5.57399 0
      vertex 55.8987 5.83339 5
    endloop
  endfacet
  facet normal 0.773091 -0.634295 0
    outer loop
      vertex 56.0852 6.0607 0
      vertex 56.0852 6.0607 5
      vertex 55.8987 5.83339 0
    endloop
  endfacet
  facet normal 0.773091 -0.634295 0
    outer loop
      vertex 55.8987 5.83339 5
      vertex 55.8987 5.83339 0
      vertex 56.0852 6.0607 5
    endloop
  endfacet
  facet normal 0.634291 -0.773094 0
    outer loop
      vertex 56.3125 6.24719 0
      vertex 56.3125 6.24719 5
      vertex 56.0852 6.0607 0
    endloop
  endfacet
  facet normal 0.634291 -0.773094 0
    outer loop
      vertex 56.0852 6.0607 5
      vertex 56.0852 6.0607 0
      vertex 56.3125 6.24719 5
    endloop
  endfacet
  facet normal 0.471259 -0.881995 0
    outer loop
      vertex 56.5719 6.38579 0
      vertex 56.5719 6.38579 5
      vertex 56.3125 6.24719 0
    endloop
  endfacet
  facet normal 0.471259 -0.881995 0
    outer loop
      vertex 56.3125 6.24719 5
      vertex 56.3125 6.24719 0
      vertex 56.5719 6.38579 5
    endloop
  endfacet
  facet normal 0.290404 -0.956904 0
    outer loop
      vertex 56.8533 6.47119 0
      vertex 56.8533 6.47119 5
      vertex 56.5719 6.38579 0
    endloop
  endfacet
  facet normal 0.290404 -0.956904 0
    outer loop
      vertex 56.5719 6.38579 5
      vertex 56.5719 6.38579 0
      vertex 56.8533 6.47119 5
    endloop
  endfacet
  facet normal 0.0979882 -0.995188 0
    outer loop
      vertex 57.1459 6.5 0
      vertex 57.1459 6.5 5
      vertex 56.8533 6.47119 0
    endloop
  endfacet
  facet normal 0.0979882 -0.995188 0
    outer loop
      vertex 56.8533 6.47119 5
      vertex 56.8533 6.47119 0
      vertex 57.1459 6.5 5
    endloop
  endfacet
  facet normal -0.0979882 -0.995188 0
    outer loop
      vertex 57.4385 6.47119 0
      vertex 57.4385 6.47119 5
      vertex 57.1459 6.5 0
    endloop
  endfacet
  facet normal -0.0979882 -0.995188 -0
    outer loop
      vertex 57.1459 6.5 5
      vertex 57.1459 6.5 0
      vertex 57.4385 6.47119 5
    endloop
  endfacet
  facet normal -0.290404 -0.956904 0
    outer loop
      vertex 57.7199 6.38579 0
      vertex 57.7199 6.38579 5
      vertex 57.4385 6.47119 0
    endloop
  endfacet
  facet normal -0.290404 -0.956904 -0
    outer loop
      vertex 57.4385 6.47119 5
      vertex 57.4385 6.47119 0
      vertex 57.7199 6.38579 5
    endloop
  endfacet
  facet normal -0.471259 -0.881995 0
    outer loop
      vertex 57.9793 6.24719 0
      vertex 57.9793 6.24719 5
      vertex 57.7199 6.38579 0
    endloop
  endfacet
  facet normal -0.471259 -0.881995 -0
    outer loop
      vertex 57.7199 6.38579 5
      vertex 57.7199 6.38579 0
      vertex 57.9793 6.24719 5
    endloop
  endfacet
  facet normal -0.634291 -0.773094 0
    outer loop
      vertex 58.2066 6.0607 0
      vertex 58.2066 6.0607 5
      vertex 57.9793 6.24719 0
    endloop
  endfacet
  facet normal -0.634291 -0.773094 -0
    outer loop
      vertex 57.9793 6.24719 5
      vertex 57.9793 6.24719 0
      vertex 58.2066 6.0607 5
    endloop
  endfacet
  facet normal -0.773091 -0.634295 0
    outer loop
      vertex 58.3931 5.83339 0
      vertex 58.3931 5.83339 5
      vertex 58.2066 6.0607 0
    endloop
  endfacet
  facet normal -0.773091 -0.634295 -0
    outer loop
      vertex 58.2066 6.0607 5
      vertex 58.2066 6.0607 0
      vertex 58.3931 5.83339 5
    endloop
  endfacet
  facet normal -0.881995 -0.471259 0
    outer loop
      vertex 58.5317 5.57399 0
      vertex 58.5317 5.57399 5
      vertex 58.3931 5.83339 0
    endloop
  endfacet
  facet normal -0.881995 -0.471259 -0
    outer loop
      vertex 58.3931 5.83339 5
      vertex 58.3931 5.83339 0
      vertex 58.5317 5.57399 5
    endloop
  endfacet
  facet normal -0.956904 -0.290404 0
    outer loop
      vertex 58.6171 5.29259 0
      vertex 58.6171 5.29259 5
      vertex 58.5317 5.57399 0
    endloop
  endfacet
  facet normal -0.956904 -0.290404 -0
    outer loop
      vertex 58.5317 5.57399 5
      vertex 58.5317 5.57399 0
      vertex 58.6171 5.29259 5
    endloop
  endfacet
  facet normal -0.995191 -0.0979579 0
    outer loop
      vertex 58.6459 5 0
      vertex 58.6459 5 5
      vertex 58.6171 5.29259 0
    endloop
  endfacet
  facet normal -0.995191 -0.0979579 -0
    outer loop
      vertex 58.6171 5.29259 5
      vertex 58.6171 5.29259 0
      vertex 58.6459 5 5
    endloop
  endfacet
  facet normal -0.995191 0.0979545 0
    outer loop
      vertex 58.6171 4.7074 0
      vertex 58.6171 4.7074 5
      vertex 58.6459 5 0
    endloop
  endfacet
  facet normal -0.995191 0.0979545 0
    outer loop
      vertex 58.6459 5 5
      vertex 58.6459 5 0
      vertex 58.6171 4.7074 5
    endloop
  endfacet
  facet normal -0.956907 0.290394 0
    outer loop
      vertex 58.5317 4.42599 0
      vertex 58.5317 4.42599 5
      vertex 58.6171 4.7074 0
    endloop
  endfacet
  facet normal -0.956907 0.290394 0
    outer loop
      vertex 58.6171 4.7074 5
      vertex 58.6171 4.7074 0
      vertex 58.5317 4.42599 5
    endloop
  endfacet
  facet normal -0.881987 0.471273 0
    outer loop
      vertex 58.3931 4.1666 0
      vertex 58.3931 4.1666 5
      vertex 58.5317 4.42599 0
    endloop
  endfacet
  facet normal -0.881987 0.471273 0
    outer loop
      vertex 58.5317 4.42599 5
      vertex 58.5317 4.42599 0
      vertex 58.3931 4.1666 5
    endloop
  endfacet
  facet normal -0.773091 0.634295 0
    outer loop
      vertex 58.2066 3.93929 0
      vertex 58.2066 3.93929 5
      vertex 58.3931 4.1666 0
    endloop
  endfacet
  facet normal -0.773091 0.634295 0
    outer loop
      vertex 58.3931 4.1666 5
      vertex 58.3931 4.1666 0
      vertex 58.2066 3.93929 5
    endloop
  endfacet
  facet normal -0.634311 0.773078 0
    outer loop
      vertex 57.9793 3.75279 0
      vertex 57.9793 3.75279 5
      vertex 58.2066 3.93929 0
    endloop
  endfacet
  facet normal -0.634311 0.773078 0
    outer loop
      vertex 58.2066 3.93929 5
      vertex 58.2066 3.93929 0
      vertex 57.9793 3.75279 5
    endloop
  endfacet
  facet normal -0.471232 0.882009 0
    outer loop
      vertex 57.7199 3.6142 0
      vertex 57.7199 3.6142 5
      vertex 57.9793 3.75279 0
    endloop
  endfacet
  facet normal -0.471232 0.882009 0
    outer loop
      vertex 57.9793 3.75279 5
      vertex 57.9793 3.75279 0
      vertex 57.7199 3.6142 5
    endloop
  endfacet
  facet normal -0.290435 0.956895 0
    outer loop
      vertex 57.4385 3.52879 0
      vertex 57.4385 3.52879 5
      vertex 57.7199 3.6142 0
    endloop
  endfacet
  facet normal -0.290435 0.956895 0
    outer loop
      vertex 57.7199 3.6142 5
      vertex 57.7199 3.6142 0
      vertex 57.4385 3.52879 5
    endloop
  endfacet
  facet normal -0.0979209 0.995194 0
    outer loop
      vertex 57.1459 3.5 0
      vertex 57.1459 3.5 5
      vertex 57.4385 3.52879 0
    endloop
  endfacet
  facet normal -0.0979209 0.995194 0
    outer loop
      vertex 57.4385 3.52879 5
      vertex 57.4385 3.52879 0
      vertex 57.1459 3.5 5
    endloop
  endfacet
  facet normal 0.0979209 0.995194 -0
    outer loop
      vertex 56.8533 3.52879 0
      vertex 56.8533 3.52879 5
      vertex 57.1459 3.5 0
    endloop
  endfacet
  facet normal 0.0979209 0.995194 0
    outer loop
      vertex 57.1459 3.5 5
      vertex 57.1459 3.5 0
      vertex 56.8533 3.52879 5
    endloop
  endfacet
endsolid OpenSCAD_Model
