<svg width="450" height="1108" viewBox="-22 -54 450 1108" xmlns="http://www.w3.org/2000/svg"><path d="M 0.0000 800.0000 A 267.2222 267.2222 0 0 0 88.5313 998.6889 A 1.0000 1.0000 0 0 0 90.1951 998.0441 A 2005.0000 2005.0000 0 0 0 100.0000 800.0000 L 100.0000 200.0000 A 2005.0000 2005.0000 0 0 0 90.1951 1.9559 A 1.0000 1.0000 0 0 0 88.5313 1.3111 A 267.2222 267.2222 0 0 0 0.0000 200.0000 L 0.0000 800.0000 Z" stroke="green" stroke-width="1" fill="none" /><path d="M 300.0000 800.0000 A 2005.0000 2005.0000 0 0 0 309.8049 998.0441 A 1.0000 1.0000 0 0 0 311.4687 998.6889 A 267.2222 267.2222 0 0 0 400.0000 800.0000 L 400.0000 200.0000 A 267.2222 267.2222 0 0 0 311.4687 1.3111 A 1.0000 1.0000 0 0 0 309.8049 1.9559 A 2005.0000 2005.0000 0 0 0 300.0000 200.0000 L 300.0000 800.0000 Z" stroke="green" stroke-width="1" fill="none" /></svg>