0
SECTION
2
ENTITIES
0
ARC
8
PARAMETRIX
10
267.2222
20
200.0000
40
267.2222
50
180.0000
51
228.0334
0
ARC
8
PARAMETRIX
10
89.2000
20
2.0547
40
1.0000
50
228.0334
51
354.3314
0
ARC
8
PARAMETRIX
10
-1905.0000
20
200.0000
40
2005.0000
50
354.3314
51
0.0000
0
LINE
8
PARAMETRIX
10
100.0000
20
200.0000
11
100.0000
21
800.0000
0
ARC
8
PARAMETRIX
10
-1905.0000
20
800.0000
40
2005.0000
50
360.0000
51
5.6686
0
ARC
8
PARAMETRIX
10
89.2000
20
997.9453
40
1.0000
50
5.6686
51
131.9666
0
ARC
8
PARAMETRIX
10
267.2222
20
800.0000
40
267.2222
50
131.9666
51
180.0000
0
LINE
8
PARAMETRIX
10
0.0000
20
800.0000
11
0.0000
21
200.0000
0
ARC
8
PARAMETRIX
10
265.2521
20
200.0000
40
263.2521
50
180.0000
51
226.4677
0
ARC
8
PARAMETRIX
10
86.0000
20
11.3208
40
3.0000
50
226.4677
51
354.5381
0
ARC
8
PARAMETRIX
10
-1887.2688
20
200.0000
40
1985.2688
50
354.5381
51
0.0000
0
LINE
8
PARAMETRIX
10
98.0000
20
200.0000
11
98.0000
21
800.0000
0
ARC
8
PARAMETRIX
10
-1887.2687
20
800.0000
40
1985.2687
50
360.0000
51
5.4619
0
ARC
8
PARAMETRIX
10
86.0000
20
988.6792
40
3.0000
50
5.4619
51
133.5323
0
ARC
8
PARAMETRIX
10
265.2521
20
800.0000
40
263.2521
50
133.5323
51
180.0000
0
LINE
8
PARAMETRIX
10
2.0000
20
800.0000
11
2.0000
21
200.0000
0
ARC
8
PARAMETRIX
10
2305.0000
20
200.0000
40
2005.0000
50
180.0000
51
185.6686
0
ARC
8
PARAMETRIX
10
310.8000
20
2.0547
40
1.0000
50
185.6686
51
311.9666
0
ARC
8
PARAMETRIX
10
132.7778
20
200.0000
40
267.2222
50
311.9666
51
0.0000
0
LINE
8
PARAMETRIX
10
400.0000
20
200.0000
11
400.0000
21
800.0000
0
ARC
8
PARAMETRIX
10
132.7778
20
800.0000
40
267.2222
50
0.0000
51
48.0334
0
ARC
8
PARAMETRIX
10
310.8000
20
997.9453
40
1.0000
50
48.0334
51
174.3314
0
ARC
8
PARAMETRIX
10
2305.0000
20
800.0000
40
2005.0000
50
174.3314
51
180.0000
0
LINE
8
PARAMETRIX
10
300.0000
20
800.0000
11
300.0000
21
200.0000
0
ARC
8
PARAMETRIX
10
2287.2688
20
200.0000
40
1985.2688
50
180.0000
51
185.4619
0
ARC
8
PARAMETRIX
10
314.0000
20
11.3208
40
3.0000
50
185.4619
51
313.5323
0
ARC
8
PARAMETRIX
10
134.7479
20
200.0000
40
263.2521
50
313.5323
51
360.0000
0
LINE
8
PARAMETRIX
10
398.0000
20
200.0000
11
398.0000
21
800.0000
0
ARC
8
PARAMETRIX
10
134.7479
20
800.0000
40
263.2521
50
360.0000
51
46.4677
0
ARC
8
PARAMETRIX
10
314.0000
20
988.6792
40
3.0000
50
46.4677
51
174.5381
0
ARC
8
PARAMETRIX
10
2287.2687
20
800.0000
40
1985.2687
50
174.5381
51
180.0000
0
LINE
8
PARAMETRIX
10
302.0000
20
800.0000
11
302.0000
21
200.0000
0
ENDSEC
0
EOF
