0
SECTION
2
ENTITIES
0
LINE
8
PARAMETRIX
10
0.0000
20
15.0000
11
66.6500
21
15.0000
0
LINE
8
PARAMETRIX
10
66.6500
20
15.0000
11
66.6500
21
0.0000
0
LINE
8
PARAMETRIX
10
66.6500
20
0.0000
11
69.6500
21
0.0000
0
LINE
8
PARAMETRIX
10
69.6500
20
0.0000
11
69.6500
21
23.0000
0
LINE
8
PARAMETRIX
10
69.6500
20
23.0000
11
10.0000
21
23.0000
0
LINE
8
PARAMETRIX
10
10.0000
20
23.0000
11
10.0000
21
122.5000
0
LINE
8
PARAMETRIX
10
10.0000
20
122.5000
11
69.6500
21
122.5000
0
LINE
8
PARAMETRIX
10
69.6500
20
122.5000
11
69.6500
21
145.5000
0
LINE
8
PARAMETRIX
10
69.6500
20
145.5000
11
66.6500
21
145.5000
0
LINE
8
PARAMETRIX
10
66.6500
20
145.5000
11
66.6500
21
130.5000
0
LINE
8
PARAMETRIX
10
66.6500
20
130.5000
11
0.0000
21
130.5000
0
LINE
8
PARAMETRIX
10
0.0000
20
130.5000
11
0.0000
21
15.0000
0
LINE
8
PARAMETRIX
10
120.3500
20
0.0000
11
123.3500
21
0.0000
0
LINE
8
PARAMETRIX
10
123.3500
20
0.0000
11
123.3500
21
15.0000
0
LINE
8
PARAMETRIX
10
123.3500
20
15.0000
11
137.0000
21
15.0000
0
LINE
8
PARAMETRIX
10
137.0000
20
15.0000
11
137.0000
21
0.0000
0
LINE
8
PARAMETRIX
10
137.0000
20
0.0000
11
140.0000
21
0.0000
0
LINE
8
PARAMETRIX
10
140.0000
20
0.0000
11
140.0000
21
23.0000
0
LINE
8
PARAMETRIX
10
140.0000
20
23.0000
11
120.3500
21
23.0000
0
LINE
8
PARAMETRIX
10
120.3500
20
23.0000
11
120.3500
21
0.0000
0
LINE
8
PARAMETRIX
10
120.3500
20
122.5000
11
140.0000
21
122.5000
0
LINE
8
PARAMETRIX
10
140.0000
20
122.5000
11
140.0000
21
145.5000
0
LINE
8
PARAMETRIX
10
140.0000
20
145.5000
11
137.0000
21
145.5000
0
LINE
8
PARAMETRIX
10
137.0000
20
145.5000
11
137.0000
21
130.5000
0
LINE
8
PARAMETRIX
10
137.0000
20
130.5000
11
123.3500
21
130.5000
0
LINE
8
PARAMETRIX
10
123.3500
20
130.5000
11
123.3500
21
145.5000
0
LINE
8
PARAMETRIX
10
123.3500
20
145.5000
11
120.3500
21
145.5000
0
LINE
8
PARAMETRIX
10
120.3500
20
145.5000
11
120.3500
21
122.5000
0
LINE
8
PARAMETRIX
10
70.0000
20
0.0000
11
74.0000
21
0.0000
0
LINE
8
PARAMETRIX
10
74.0000
20
0.0000
11
74.0000
21
145.5000
0
LINE
8
PARAMETRIX
10
74.0000
20
145.5000
11
70.0000
21
145.5000
0
LINE
8
PARAMETRIX
10
70.0000
20
145.5000
11
70.0000
21
0.0000
0
LINE
8
PARAMETRIX
10
116.0000
20
0.0000
11
120.0000
21
0.0000
0
LINE
8
PARAMETRIX
10
120.0000
20
0.0000
11
120.0000
21
145.5000
0
LINE
8
PARAMETRIX
10
120.0000
20
145.5000
11
116.0000
21
145.5000
0
LINE
8
PARAMETRIX
10
116.0000
20
145.5000
11
116.0000
21
0.0000
0
LINE
8
PARAMETRIX
10
50.0000
20
23.2500
11
350.0000
21
23.2500
0
LINE
8
PARAMETRIX
10
350.0000
20
23.2500
11
350.0000
21
31.2500
0
LINE
8
PARAMETRIX
10
350.0000
20
31.2500
11
50.0000
21
31.2500
0
LINE
8
PARAMETRIX
10
50.0000
20
31.2500
11
50.0000
21
23.2500
0
LINE
8
PARAMETRIX
10
50.0000
20
114.2500
11
350.0000
21
114.2500
0
LINE
8
PARAMETRIX
10
350.0000
20
114.2500
11
350.0000
21
122.2500
0
LINE
8
PARAMETRIX
10
350.0000
20
122.2500
11
50.0000
21
122.2500
0
LINE
8
PARAMETRIX
10
50.0000
20
122.2500
11
50.0000
21
114.2500
0
LINE
8
PARAMETRIX
10
285.5000
20
8.2500
11
289.5000
21
8.2500
0
LINE
8
PARAMETRIX
10
289.5000
20
8.2500
11
289.5000
21
137.2500
0
LINE
8
PARAMETRIX
10
289.5000
20
137.2500
11
285.5000
21
137.2500
0
LINE
8
PARAMETRIX
10
285.5000
20
137.2500
11
285.5000
21
8.2500
0
LINE
8
PARAMETRIX
10
320.5000
20
8.2500
11
324.5000
21
8.2500
0
LINE
8
PARAMETRIX
10
324.5000
20
8.2500
11
324.5000
21
137.2500
0
LINE
8
PARAMETRIX
10
324.5000
20
137.2500
11
320.5000
21
137.2500
0
LINE
8
PARAMETRIX
10
320.5000
20
137.2500
11
320.5000
21
8.2500
0
LINE
8
PARAMETRIX
10
260.0000
20
31.5000
11
580.0000
21
31.5000
0
LINE
8
PARAMETRIX
10
580.0000
20
31.5000
11
580.0000
21
39.5000
0
LINE
8
PARAMETRIX
10
580.0000
20
39.5000
11
260.0000
21
39.5000
0
LINE
8
PARAMETRIX
10
260.0000
20
39.5000
11
260.0000
21
31.5000
0
LINE
8
PARAMETRIX
10
260.0000
20
106.0000
11
580.0000
21
106.0000
0
LINE
8
PARAMETRIX
10
580.0000
20
106.0000
11
580.0000
21
114.0000
0
LINE
8
PARAMETRIX
10
580.0000
20
114.0000
11
260.0000
21
114.0000
0
LINE
8
PARAMETRIX
10
260.0000
20
114.0000
11
260.0000
21
106.0000
0
LINE
8
PARAMETRIX
10
545.0000
20
16.5000
11
549.0000
21
16.5000
0
LINE
8
PARAMETRIX
10
549.0000
20
16.5000
11
549.0000
21
129.0000
0
LINE
8
PARAMETRIX
10
549.0000
20
129.0000
11
545.0000
21
129.0000
0
LINE
8
PARAMETRIX
10
545.0000
20
129.0000
11
545.0000
21
16.5000
0
LINE
8
PARAMETRIX
10
561.0000
20
16.5000
11
565.0000
21
16.5000
0
LINE
8
PARAMETRIX
10
565.0000
20
16.5000
11
565.0000
21
129.0000
0
LINE
8
PARAMETRIX
10
565.0000
20
129.0000
11
561.0000
21
129.0000
0
LINE
8
PARAMETRIX
10
561.0000
20
129.0000
11
561.0000
21
16.5000
0
LINE
8
PARAMETRIX
10
0.0000
20
233.2500
11
66.6500
21
233.2500
0
LINE
8
PARAMETRIX
10
66.6500
20
233.2500
11
66.6500
21
218.2500
0
LINE
8
PARAMETRIX
10
66.6500
20
218.2500
11
69.6500
21
218.2500
0
LINE
8
PARAMETRIX
10
69.6500
20
218.2500
11
69.6500
21
241.2500
0
LINE
8
PARAMETRIX
10
69.6500
20
241.2500
11
10.0000
21
241.2500
0
LINE
8
PARAMETRIX
10
10.0000
20
241.2500
11
10.0000
21
340.7500
0
LINE
8
PARAMETRIX
10
10.0000
20
340.7500
11
69.6500
21
340.7500
0
LINE
8
PARAMETRIX
10
69.6500
20
340.7500
11
69.6500
21
363.7500
0
LINE
8
PARAMETRIX
10
69.6500
20
363.7500
11
66.6500
21
363.7500
0
LINE
8
PARAMETRIX
10
66.6500
20
363.7500
11
66.6500
21
348.7500
0
LINE
8
PARAMETRIX
10
66.6500
20
348.7500
11
0.0000
21
348.7500
0
LINE
8
PARAMETRIX
10
0.0000
20
348.7500
11
0.0000
21
233.2500
0
LINE
8
PARAMETRIX
10
120.3500
20
218.2500
11
123.3500
21
218.2500
0
LINE
8
PARAMETRIX
10
123.3500
20
218.2500
11
123.3500
21
233.2500
0
LINE
8
PARAMETRIX
10
123.3500
20
233.2500
11
137.0000
21
233.2500
0
LINE
8
PARAMETRIX
10
137.0000
20
233.2500
11
137.0000
21
218.2500
0
LINE
8
PARAMETRIX
10
137.0000
20
218.2500
11
140.0000
21
218.2500
0
LINE
8
PARAMETRIX
10
140.0000
20
218.2500
11
140.0000
21
241.2500
0
LINE
8
PARAMETRIX
10
140.0000
20
241.2500
11
120.3500
21
241.2500
0
LINE
8
PARAMETRIX
10
120.3500
20
241.2500
11
120.3500
21
218.2500
0
LINE
8
PARAMETRIX
10
120.3500
20
340.7500
11
140.0000
21
340.7500
0
LINE
8
PARAMETRIX
10
140.0000
20
340.7500
11
140.0000
21
363.7500
0
LINE
8
PARAMETRIX
10
140.0000
20
363.7500
11
137.0000
21
363.7500
0
LINE
8
PARAMETRIX
10
137.0000
20
363.7500
11
137.0000
21
348.7500
0
LINE
8
PARAMETRIX
10
137.0000
20
348.7500
11
123.3500
21
348.7500
0
LINE
8
PARAMETRIX
10
123.3500
20
348.7500
11
123.3500
21
363.7500
0
LINE
8
PARAMETRIX
10
123.3500
20
363.7500
11
120.3500
21
363.7500
0
LINE
8
PARAMETRIX
10
120.3500
20
363.7500
11
120.3500
21
340.7500
0
LINE
8
PARAMETRIX
10
70.0000
20
218.2500
11
74.0000
21
218.2500
0
LINE
8
PARAMETRIX
10
74.0000
20
218.2500
11
74.0000
21
363.7500
0
LINE
8
PARAMETRIX
10
74.0000
20
363.7500
11
70.0000
21
363.7500
0
LINE
8
PARAMETRIX
10
70.0000
20
363.7500
11
70.0000
21
218.2500
0
LINE
8
PARAMETRIX
10
116.0000
20
218.2500
11
120.0000
21
218.2500
0
LINE
8
PARAMETRIX
10
120.0000
20
218.2500
11
120.0000
21
363.7500
0
LINE
8
PARAMETRIX
10
120.0000
20
363.7500
11
116.0000
21
363.7500
0
LINE
8
PARAMETRIX
10
116.0000
20
363.7500
11
116.0000
21
218.2500
0
LINE
8
PARAMETRIX
10
50.0000
20
241.5000
11
330.0000
21
241.5000
0
LINE
8
PARAMETRIX
10
330.0000
20
241.5000
11
330.0000
21
249.5000
0
LINE
8
PARAMETRIX
10
330.0000
20
249.5000
11
50.0000
21
249.5000
0
LINE
8
PARAMETRIX
10
50.0000
20
249.5000
11
50.0000
21
241.5000
0
LINE
8
PARAMETRIX
10
50.0000
20
332.5000
11
330.0000
21
332.5000
0
LINE
8
PARAMETRIX
10
330.0000
20
332.5000
11
330.0000
21
340.5000
0
LINE
8
PARAMETRIX
10
330.0000
20
340.5000
11
50.0000
21
340.5000
0
LINE
8
PARAMETRIX
10
50.0000
20
340.5000
11
50.0000
21
332.5000
0
LINE
8
PARAMETRIX
10
280.0000
20
226.5000
11
284.0000
21
226.5000
0
LINE
8
PARAMETRIX
10
284.0000
20
226.5000
11
284.0000
21
355.5000
0
LINE
8
PARAMETRIX
10
284.0000
20
355.5000
11
280.0000
21
355.5000
0
LINE
8
PARAMETRIX
10
280.0000
20
355.5000
11
280.0000
21
226.5000
0
LINE
8
PARAMETRIX
10
306.0000
20
226.5000
11
310.0000
21
226.5000
0
LINE
8
PARAMETRIX
10
310.0000
20
226.5000
11
310.0000
21
355.5000
0
LINE
8
PARAMETRIX
10
310.0000
20
355.5000
11
306.0000
21
355.5000
0
LINE
8
PARAMETRIX
10
306.0000
20
355.5000
11
306.0000
21
226.5000
0
LINE
8
PARAMETRIX
10
260.0000
20
258.0000
11
550.0000
21
258.0000
0
LINE
8
PARAMETRIX
10
550.0000
20
258.0000
11
550.0000
21
266.0000
0
LINE
8
PARAMETRIX
10
550.0000
20
266.0000
11
260.0000
21
266.0000
0
LINE
8
PARAMETRIX
10
260.0000
20
266.0000
11
260.0000
21
258.0000
0
LINE
8
PARAMETRIX
10
260.0000
20
316.0000
11
550.0000
21
316.0000
0
LINE
8
PARAMETRIX
10
550.0000
20
316.0000
11
550.0000
21
324.0000
0
LINE
8
PARAMETRIX
10
550.0000
20
324.0000
11
260.0000
21
324.0000
0
LINE
8
PARAMETRIX
10
260.0000
20
324.0000
11
260.0000
21
316.0000
0
LINE
8
PARAMETRIX
10
260.0000
20
249.7500
11
330.0000
21
249.7500
0
LINE
8
PARAMETRIX
10
330.0000
20
249.7500
11
330.0000
21
258.0000
0
LINE
8
PARAMETRIX
10
330.0000
20
258.0000
11
260.0000
21
258.0000
0
LINE
8
PARAMETRIX
10
260.0000
20
258.0000
11
260.0000
21
249.7500
0
LINE
8
PARAMETRIX
10
260.0000
20
324.0000
11
330.0000
21
324.0000
0
LINE
8
PARAMETRIX
10
330.0000
20
324.0000
11
330.0000
21
332.2500
0
LINE
8
PARAMETRIX
10
330.0000
20
332.2500
11
260.0000
21
332.2500
0
LINE
8
PARAMETRIX
10
260.0000
20
332.2500
11
260.0000
21
324.0000
0
LINE
8
PARAMETRIX
10
515.0000
20
234.7500
11
519.0000
21
234.7500
0
LINE
8
PARAMETRIX
10
519.0000
20
234.7500
11
519.0000
21
347.2500
0
LINE
8
PARAMETRIX
10
519.0000
20
347.2500
11
515.0000
21
347.2500
0
LINE
8
PARAMETRIX
10
515.0000
20
347.2500
11
515.0000
21
234.7500
0
LINE
8
PARAMETRIX
10
531.0000
20
234.7500
11
535.0000
21
234.7500
0
LINE
8
PARAMETRIX
10
535.0000
20
234.7500
11
535.0000
21
347.2500
0
LINE
8
PARAMETRIX
10
535.0000
20
347.2500
11
531.0000
21
347.2500
0
LINE
8
PARAMETRIX
10
531.0000
20
347.2500
11
531.0000
21
234.7500
0
ENDSEC
0
EOF
