<svg width="352" height="579" viewBox="-171 -29 352 579" xmlns="http://www.w3.org/2000/svg"><path d="M 0.0000 517.1296 L 3.0000 517.1296 L 3.0000 496.4863 A 2.0000 2.0000 0 0 0 1.8294 494.6664 L -56.3074 468.1731 A 42.0000 42.0000 0 1 1 -0.6722 412.5379 L 25.8211 470.6747 A 2.0000 2.0000 0 0 0 27.6410 471.8453 L 38.9275 471.8453 A 2.0000 2.0000 0 0 0 40.7474 470.6747 L 67.2408 412.5379 A 42.0000 42.0000 0 1 1 122.8759 468.1731 L 64.7392 494.6664 A 2.0000 2.0000 0 0 0 63.5685 496.4863 L 63.5685 517.1296 L 66.5685 517.1296 L 66.5685 498.4160 A 2.0000 2.0000 0 0 1 67.7392 496.5961 L 124.1200 470.9030 A 45.0000 45.0000 0 1 0 64.5109 411.2939 L 38.8177 467.6747 A 2.0000 2.0000 0 0 1 36.9978 468.8453 L 29.5707 468.8453 A 2.0000 2.0000 0 0 1 27.7508 467.6747 L 2.0577 411.2939 A 45.0000 45.0000 0 1 0 -57.5514 470.9030 L -1.1706 496.5961 A 2.0000 2.0000 0 0 1 0.0000 498.4160 L 0.0000 517.1296 Z" stroke="green" stroke-width="1" fill="none" /><circle cx="-38.8909" cy="429.9544" r="28.3500" stroke="green" stroke-width="1" fill="none" /><circle cx="-38.8909" cy="429.9544" r="25.3500" stroke="green" stroke-width="1" fill="none" /><circle cx="105.4594" cy="429.9544" r="28.3500" stroke="green" stroke-width="1" fill="none" /><circle cx="105.4594" cy="429.9544" r="25.3500" stroke="green" stroke-width="1" fill="none" /><path d="M -94.2277 400.7175 L -150.1822 246.9838 A 42.0000 42.0000 0 0 1 -152.4448 227.8614 A 1.0000 1.0000 0 0 1 -151.2776 226.9899 L -134.3338 229.9775 A 1.0000 1.0000 0 0 1 -133.5099 231.0318 A 22.8500 22.8500 0 0 0 -105.1937 254.7919 A 1.0000 1.0000 0 0 1 -104.0124 255.4202 L -56.1701 386.8657 A 0.4000 0.4000 0 0 0 -55.6575 387.1048 L -53.5901 386.3523 A 0.4000 0.4000 0 0 0 -53.3511 385.8397 L -101.1933 254.3941 A 1.0000 1.0000 0 0 1 -100.6923 253.1535 A 22.8500 22.8500 0 0 0 -94.2735 216.7509 A 1.0000 1.0000 0 0 1 -94.3200 215.4136 L -83.2608 202.2338 A 1.0000 1.0000 0 0 1 -81.8064 202.1511 A 42.0000 42.0000 0 0 1 -71.2480 218.2541 L -15.2935 371.9878 A 0.4000 0.4000 0 0 0 -14.7808 372.2269 L -12.7135 371.4745 A 0.4000 0.4000 0 0 0 -12.4744 370.9618 L -68.4289 217.2281 A 45.0000 45.0000 0 0 0 -153.0013 248.0099 L -97.0468 401.7436 A 0.4000 0.4000 0 0 0 -96.5341 401.9827 L -94.4668 401.2302 A 0.4000 0.4000 0 0 0 -94.2277 400.7175 Z" stroke="green" stroke-width="1" fill="none" /><circle cx="-110.7151" cy="232.6190" r="19.8500" stroke="green" stroke-width="1" fill="none" /><path d="M -132.6781 226.3142 A 22.8500 22.8500 0 0 1 -97.9431 213.6717 A 1.0000 1.0000 0 0 0 -96.6181 213.4853 L -85.5589 200.3054 A 1.0000 1.0000 0 0 0 -85.7301 198.8588 A 42.0000 42.0000 0 0 0 -151.5554 222.8173 A 1.0000 1.0000 0 0 0 -150.7566 224.0354 L -133.8129 227.0231 A 1.0000 1.0000 0 0 0 -132.6781 226.3142 Z" stroke="green" stroke-width="1" fill="none" /><path d="M -117.8331 172.8212 L 7.4626 9.2466 A 22.0000 22.0000 0 0 1 12.6368 4.3754 A 1.0000 1.0000 0 0 1 14.0856 4.7485 L 17.1511 10.7287 A 1.0000 1.0000 0 0 1 16.8654 11.9817 A 13.3500 13.3500 0 0 0 15.8454 32.3997 A 1.0000 1.0000 0 0 1 16.0047 33.6749 L -86.7990 192.8291 A 0.4000 0.4000 0 0 0 -86.6801 193.3822 L -84.8321 194.5759 A 0.4000 0.4000 0 0 0 -84.2790 194.4569 L 18.5247 35.3027 A 1.0000 1.0000 0 0 1 19.7527 34.9236 A 13.3500 13.3500 0 0 0 37.9452 25.5980 A 1.0000 1.0000 0 0 1 38.9699 24.8223 L 45.6816 25.1576 A 1.0000 1.0000 0 0 1 46.6175 26.3248 A 22.0000 22.0000 0 0 1 44.3048 33.0444 L -53.2798 214.5186 A 0.4000 0.4000 0 0 0 -53.1445 215.0441 L -51.2906 216.2416 A 0.4000 0.4000 0 0 0 -50.7213 216.0950 L 46.9466 34.4660 A 25.0000 25.0000 0 0 0 5.0804 7.4230 L -120.3221 171.1372 A 0.4000 0.4000 0 0 0 -120.2215 171.7164 L -118.3677 172.9139 A 0.4000 0.4000 0 0 0 -117.8331 172.8212 Z" stroke="green" stroke-width="1" fill="none" /><circle cx="24.9318" cy="22.6192" r="10.3500" stroke="green" stroke-width="1" fill="none" /><path d="M 21.0048 9.8598 A 13.3500 13.3500 0 0 1 38.1773 20.9522 A 1.0000 1.0000 0 0 0 39.1196 21.8261 L 45.8313 22.1614 A 1.0000 1.0000 0 0 0 46.8788 21.0933 A 22.0000 22.0000 0 0 0 17.2982 1.9860 A 1.0000 1.0000 0 0 0 16.7553 3.3800 L 19.8207 9.3602 A 1.0000 1.0000 0 0 0 21.0048 9.8598 Z" stroke="green" stroke-width="1" fill="none" /><path d="M 69.9195 380.2879 L 91.1914 226.3381 A 32.0000 32.0000 0 0 1 95.2829 214.5348 A 1.0000 1.0000 0 0 1 96.7192 214.2213 L 106.3125 220.9385 A 1.0000 1.0000 0 0 1 106.6253 222.2206 A 18.3500 18.3500 0 0 0 118.9429 248.6358 A 1.0000 1.0000 0 0 1 119.7239 249.6996 L 108.0091 383.6003 A 0.4000 0.4000 0 0 0 108.3728 384.0336 L 110.5644 384.2253 A 0.4000 0.4000 0 0 0 110.9977 383.8617 L 122.7125 249.9610 A 1.0000 1.0000 0 0 1 123.6664 249.0491 A 18.3500 18.3500 0 0 0 140.3839 225.1741 A 1.0000 1.0000 0 0 1 140.9146 223.9658 L 151.5285 219.0165 A 1.0000 1.0000 0 0 1 152.8886 219.5746 A 32.0000 32.0000 0 0 1 154.8683 231.9091 L 149.0839 387.2139 A 0.4000 0.4000 0 0 0 149.4488 387.6273 L 151.6432 387.8193 A 0.4000 0.4000 0 0 0 152.0777 387.4357 L 157.8662 232.0210 A 35.0000 35.0000 0 0 0 88.2196 225.9277 L 66.9326 379.9864 A 0.4000 0.4000 0 0 0 67.2940 380.4397 L 69.4884 380.6317 A 0.4000 0.4000 0 0 0 69.9195 380.2879 Z" stroke="green" stroke-width="1" fill="none" /><circle cx="122.8906" cy="230.7155" r="15.3500" stroke="green" stroke-width="1" fill="none" /><path d="M 109.3449 218.3365 A 18.3500 18.3500 0 0 1 138.3800 220.8768 A 1.0000 1.0000 0 0 0 139.6467 221.2469 L 150.2607 216.2975 A 1.0000 1.0000 0 0 0 150.7073 214.8969 A 32.0000 32.0000 0 0 0 98.2433 210.3069 A 1.0000 1.0000 0 0 0 98.4399 211.7638 L 108.0332 218.4811 A 1.0000 1.0000 0 0 0 109.3449 218.3365 Z" stroke="green" stroke-width="1" fill="none" /><path d="M 90.6061 244.2327 A 35.0000 35.0000 0 1 0 153.8800 214.4473 L 47.0671 10.9990 A 25.0000 25.0000 0 0 0 1.8715 32.2743 L 90.6061 244.2327 Z" stroke="green" stroke-width="1" fill="none" /><circle cx="122.8906" cy="230.7155" r="15.2000" stroke="green" stroke-width="1" fill="none" /><circle cx="24.9318" cy="22.6192" r="10.2000" stroke="green" stroke-width="1" fill="none" /></svg>