0
SECTION
2
ENTITIES
0
CIRCLE
8
PARAMETRIX
10
-38.8909
20
87.1751
40
25.0000
0
CIRCLE
8
PARAMETRIX
10
-38.8909
20
87.1751
40
21.0000
0
CIRCLE
8
PARAMETRIX
10
105.4594
20
87.1751
40
25.0000
0
CIRCLE
8
PARAMETRIX
10
105.4594
20
87.1751
40
21.0000
0
CIRCLE
8
PARAMETRIX
10
-110.7151
20
284.5106
40
19.5000
0
CIRCLE
8
PARAMETRIX
10
-110.7151
20
284.5106
40
15.5000
0
CIRCLE
8
PARAMETRIX
10
122.8906
20
286.4141
40
15.0000
0
CIRCLE
8
PARAMETRIX
10
122.8906
20
286.4141
40
11.0000
0
CIRCLE
8
PARAMETRIX
10
24.9318
20
494.5104
40
10.0000
0
CIRCLE
8
PARAMETRIX
10
24.9318
20
494.5104
40
6.0000
0
LINE
8
PARAMETRIX
10
0.0000
20
0.0000
11
3.0000
21
0.0000
0
LINE
8
PARAMETRIX
10
3.0000
20
0.0000
11
3.0000
21
20.6432
0
ARC
8
PARAMETRIX
10
1.0000
20
20.6432
40
2.0000
50
0.0000
51
65.5009
0
LINE
8
PARAMETRIX
10
1.8294
20
22.4632
11
-56.3074
21
48.9565
0
ARC
8
PARAMETRIX
10
-38.8909
20
87.1751
40
42.0000
50
24.4991
51
245.5009
0
LINE
8
PARAMETRIX
10
-0.6722
20
104.5917
11
25.8211
21
46.4549
0
ARC
8
PARAMETRIX
10
27.6410
20
47.2843
40
2.0000
50
204.4991
51
270.0000
0
LINE
8
PARAMETRIX
10
27.6410
20
45.2843
11
38.9275
21
45.2843
0
ARC
8
PARAMETRIX
10
38.9275
20
47.2843
40
2.0000
50
270.0000
51
335.5009
0
LINE
8
PARAMETRIX
10
40.7474
20
46.4549
11
67.2408
21
104.5917
0
ARC
8
PARAMETRIX
10
105.4594
20
87.1751
40
42.0000
50
294.4991
51
155.5009
0
LINE
8
PARAMETRIX
10
122.8759
20
48.9565
11
64.7392
21
22.4632
0
ARC
8
PARAMETRIX
10
65.5685
20
20.6432
40
2.0000
50
114.4991
51
180.0000
0
LINE
8
PARAMETRIX
10
63.5685
20
20.6432
11
63.5685
21
0.0000
0
LINE
8
PARAMETRIX
10
63.5685
20
0.0000
11
66.5685
21
0.0000
0
LINE
8
PARAMETRIX
10
66.5685
20
0.0000
11
66.5685
21
18.7135
0
ARC
8
PARAMETRIX
10
68.5685
20
18.7135
40
2.0000
50
114.4991
51
180.0000
0
LINE
8
PARAMETRIX
10
67.7392
20
20.5335
11
124.1200
21
46.2266
0
ARC
8
PARAMETRIX
10
105.4594
20
87.1751
40
45.0000
50
294.4991
51
155.5009
0
LINE
8
PARAMETRIX
10
64.5109
20
105.8357
11
38.8177
21
49.4549
0
ARC
8
PARAMETRIX
10
36.9978
20
50.2843
40
2.0000
50
270.0000
51
335.5009
0
LINE
8
PARAMETRIX
10
36.9978
20
48.2843
11
29.5707
21
48.2843
0
ARC
8
PARAMETRIX
10
29.5707
20
50.2843
40
2.0000
50
204.4991
51
270.0000
0
LINE
8
PARAMETRIX
10
27.7508
20
49.4549
11
2.0577
21
105.8357
0
ARC
8
PARAMETRIX
10
-38.8909
20
87.1751
40
45.0000
50
24.4991
51
245.5009
0
LINE
8
PARAMETRIX
10
-57.5514
20
46.2266
11
-1.1706
21
20.5335
0
ARC
8
PARAMETRIX
10
-2.0000
20
18.7135
40
2.0000
50
0.0000
51
65.5009
0
LINE
8
PARAMETRIX
10
0.0000
20
18.7135
11
0.0000
21
0.0000
0
CIRCLE
8
PARAMETRIX
10
-38.8909
20
87.1751
40
28.3500
0
CIRCLE
8
PARAMETRIX
10
-38.8909
20
87.1751
40
25.3500
0
CIRCLE
8
PARAMETRIX
10
105.4594
20
87.1751
40
28.3500
0
CIRCLE
8
PARAMETRIX
10
105.4594
20
87.1751
40
25.3500
0
LINE
8
PARAMETRIX
10
-94.2277
20
116.4120
11
-150.1822
21
270.1457
0
ARC
8
PARAMETRIX
10
-110.7151
20
284.5106
40
42.0000
50
173.4958
51
200.0000
0
ARC
8
PARAMETRIX
10
-151.4512
20
289.1549
40
1.0000
50
80.0000
51
173.4958
0
LINE
8
PARAMETRIX
10
-151.2776
20
290.1397
11
-134.3338
21
287.1521
0
ARC
8
PARAMETRIX
10
-134.5075
20
286.1673
40
1.0000
50
356.0169
51
80.0000
0
ARC
8
PARAMETRIX
10
-110.7151
20
284.5106
40
22.8500
50
176.0169
51
283.9831
0
ARC
8
PARAMETRIX
10
-104.9521
20
261.3673
40
1.0000
50
20.0000
51
103.9831
0
LINE
8
PARAMETRIX
10
-104.0124
20
261.7094
11
-56.1701
21
130.2639
0
ARC
8
PARAMETRIX
10
-55.7943
20
130.4007
40
0.4000
50
200.0000
51
290.0000
0
LINE
8
PARAMETRIX
10
-55.6575
20
130.0248
11
-53.5901
21
130.7772
0
ARC
8
PARAMETRIX
10
-53.7269
20
131.1531
40
0.4000
50
290.0000
51
20.0000
0
LINE
8
PARAMETRIX
10
-53.3511
20
131.2899
11
-101.1933
21
262.7354
0
ARC
8
PARAMETRIX
10
-100.2536
20
263.0774
40
1.0000
50
116.0169
51
200.0000
0
ARC
8
PARAMETRIX
10
-110.7151
20
284.5106
40
22.8500
50
296.0169
51
43.9831
0
ARC
8
PARAMETRIX
10
-93.5540
20
301.0731
40
1.0000
50
140.0000
51
223.9831
0
LINE
8
PARAMETRIX
10
-94.3200
20
301.7159
11
-83.2608
21
314.8958
0
ARC
8
PARAMETRIX
10
-82.4947
20
314.2530
40
1.0000
50
46.5042
51
140.0000
0
ARC
8
PARAMETRIX
10
-110.7151
20
284.5106
40
42.0000
50
20.0000
51
46.5042
0
LINE
8
PARAMETRIX
10
-71.2480
20
298.8754
11
-15.2935
21
145.1417
0
ARC
8
PARAMETRIX
10
-14.9176
20
145.2785
40
0.4000
50
200.0000
51
290.0000
0
LINE
8
PARAMETRIX
10
-14.7808
20
144.9027
11
-12.7135
21
145.6551
0
ARC
8
PARAMETRIX
10
-12.8503
20
146.0310
40
0.4000
50
290.0000
51
20.0000
0
LINE
8
PARAMETRIX
10
-12.4744
20
146.1678
11
-68.4289
21
299.9015
0
ARC
8
PARAMETRIX
10
-110.7151
20
284.5106
40
45.0000
50
20.0000
51
200.0000
0
LINE
8
PARAMETRIX
10
-153.0013
20
269.1197
11
-97.0468
21
115.3860
0
ARC
8
PARAMETRIX
10
-96.6709
20
115.5228
40
0.4000
50
200.0000
51
290.0000
0
LINE
8
PARAMETRIX
10
-96.5341
20
115.1469
11
-94.4668
21
115.8994
0
ARC
8
PARAMETRIX
10
-94.6036
20
116.2752
40
0.4000
50
290.0000
51
20.0000
0
CIRCLE
8
PARAMETRIX
10
-110.7151
20
284.5106
40
19.8500
0
ARC
8
PARAMETRIX
10
-110.7151
20
284.5106
40
22.8500
50
56.0169
51
163.9831
0
ARC
8
PARAMETRIX
10
-97.3842
20
304.2871
40
1.0000
50
236.0169
51
320.0000
0
LINE
8
PARAMETRIX
10
-96.6181
20
303.6443
11
-85.5589
21
316.8242
0
ARC
8
PARAMETRIX
10
-86.3250
20
317.4669
40
1.0000
50
320.0000
51
53.4958
0
ARC
8
PARAMETRIX
10
-110.7151
20
284.5106
40
42.0000
50
53.4958
51
166.5042
0
ARC
8
PARAMETRIX
10
-150.5830
20
294.0789
40
1.0000
50
166.5042
51
260.0000
0
LINE
8
PARAMETRIX
10
-150.7566
20
293.0941
11
-133.8129
21
290.1065
0
ARC
8
PARAMETRIX
10
-133.6393
20
291.0913
40
1.0000
50
260.0000
51
343.9831
0
LINE
8
PARAMETRIX
10
-117.8331
20
344.3084
11
7.4626
21
507.8830
0
ARC
8
PARAMETRIX
10
24.9318
20
494.5104
40
22.0000
50
123.9772
51
142.5661
0
ARC
8
PARAMETRIX
10
13.1957
20
511.9249
40
1.0000
50
27.1400
51
123.9772
0
LINE
8
PARAMETRIX
10
14.0856
20
512.3810
11
17.1511
21
506.4009
0
ARC
8
PARAMETRIX
10
16.2612
20
505.9447
40
1.0000
50
307.1731
51
27.1400
0
ARC
8
PARAMETRIX
10
24.9318
20
494.5104
40
13.3500
50
127.1731
51
227.1070
0
ARC
8
PARAMETRIX
10
15.1647
20
483.9972
40
1.0000
50
327.1400
51
47.1070
0
LINE
8
PARAMETRIX
10
16.0047
20
483.4546
11
-86.7990
21
324.3004
0
ARC
8
PARAMETRIX
10
-86.4630
20
324.0834
40
0.4000
50
147.1400
51
237.1400
0
LINE
8
PARAMETRIX
10
-86.6801
20
323.7474
11
-84.8321
21
322.5537
0
ARC
8
PARAMETRIX
10
-84.6150
20
322.8897
40
0.4000
50
237.1400
51
327.1400
0
LINE
8
PARAMETRIX
10
-84.2790
20
322.6727
11
18.5247
21
481.8269
0
ARC
8
PARAMETRIX
10
19.3647
20
481.2843
40
1.0000
50
67.1731
51
147.1400
0
ARC
8
PARAMETRIX
10
24.9318
20
494.5104
40
13.3500
50
247.1731
51
347.1070
0
ARC
8
PARAMETRIX
10
38.9200
20
491.3085
40
1.0000
50
87.1400
51
167.1070
0
LINE
8
PARAMETRIX
10
38.9699
20
492.3072
11
45.6816
21
491.9719
0
ARC
8
PARAMETRIX
10
45.6317
20
490.9732
40
1.0000
50
350.3029
51
87.1400
0
ARC
8
PARAMETRIX
10
24.9318
20
494.5104
40
22.0000
50
331.7140
51
350.3029
0
LINE
8
PARAMETRIX
10
44.3048
20
484.0852
11
-53.2798
21
302.6109
0
ARC
8
PARAMETRIX
10
-52.9275
20
302.4215
40
0.4000
50
151.7316
51
237.1400
0
LINE
8
PARAMETRIX
10
-53.1445
20
302.0855
11
-51.2906
21
300.8880
0
ARC
8
PARAMETRIX
10
-51.0736
20
301.2240
40
0.4000
50
237.1400
51
331.7316
0
LINE
8
PARAMETRIX
10
-50.7213
20
301.0346
11
46.9466
21
482.6636
0
ARC
8
PARAMETRIX
10
24.9318
20
494.5104
40
25.0000
50
331.7140
51
142.5661
0
LINE
8
PARAMETRIX
10
5.0804
20
509.7065
11
-120.3221
21
345.9924
0
ARC
8
PARAMETRIX
10
-120.0045
20
345.7491
40
0.4000
50
142.5485
51
237.1400
0
LINE
8
PARAMETRIX
10
-120.2215
20
345.4131
11
-118.3677
21
344.2156
0
ARC
8
PARAMETRIX
10
-118.1506
20
344.5516
40
0.4000
50
237.1400
51
322.5484
0
CIRCLE
8
PARAMETRIX
10
24.9318
20
494.5104
40
10.3500
0
ARC
8
PARAMETRIX
10
24.9318
20
494.5104
40
13.3500
50
7.1731
51
107.1070
0
ARC
8
PARAMETRIX
10
39.1695
20
496.3022
40
1.0000
50
187.1731
51
267.1400
0
LINE
8
PARAMETRIX
10
39.1196
20
495.3035
11
45.8313
21
494.9682
0
ARC
8
PARAMETRIX
10
45.8812
20
495.9669
40
1.0000
50
267.1400
51
3.9772
0
ARC
8
PARAMETRIX
10
24.9318
20
494.5104
40
22.0000
50
3.9772
51
110.3029
0
ARC
8
PARAMETRIX
10
17.6451
20
514.2057
40
1.0000
50
110.3029
51
207.1400
0
LINE
8
PARAMETRIX
10
16.7553
20
513.7495
11
19.8207
21
507.7694
0
ARC
8
PARAMETRIX
10
20.7106
20
508.2255
40
1.0000
50
207.1400
51
287.1070
0
LINE
8
PARAMETRIX
10
69.9195
20
136.8416
11
91.1914
21
290.7915
0
ARC
8
PARAMETRIX
10
122.8906
20
286.4141
40
32.0000
50
149.6257
51
172.1376
0
ARC
8
PARAMETRIX
10
96.1456
20
302.0892
40
1.0000
50
55.0000
51
149.6257
0
LINE
8
PARAMETRIX
10
96.7192
20
302.9083
11
106.3125
21
296.1910
0
ARC
8
PARAMETRIX
10
105.7389
20
295.3719
40
1.0000
50
332.4233
51
55.0000
0
ARC
8
PARAMETRIX
10
122.8906
20
286.4141
40
18.3500
50
152.4233
51
257.5767
0
ARC
8
PARAMETRIX
10
118.7277
20
267.5172
40
1.0000
50
355.0000
51
77.5767
0
LINE
8
PARAMETRIX
10
119.7239
20
267.4300
11
108.0091
21
133.5293
0
ARC
8
PARAMETRIX
10
108.4076
20
133.4944
40
0.4000
50
175.0000
51
265.0000
0
LINE
8
PARAMETRIX
10
108.3728
20
133.0960
11
110.5644
21
132.9042
0
ARC
8
PARAMETRIX
10
110.5993
20
133.3027
40
0.4000
50
265.0000
51
355.0000
0
LINE
8
PARAMETRIX
10
110.9977
20
133.2678
11
122.7125
21
267.1685
0
ARC
8
PARAMETRIX
10
123.7087
20
267.0814
40
1.0000
50
92.4233
51
175.0000
0
ARC
8
PARAMETRIX
10
122.8906
20
286.4141
40
18.3500
50
272.4233
51
17.5767
0
ARC
8
PARAMETRIX
10
141.3372
20
292.2574
40
1.0000
50
115.0000
51
197.5767
0
LINE
8
PARAMETRIX
10
140.9146
20
293.1637
11
151.5285
21
298.1131
0
ARC
8
PARAMETRIX
10
151.9511
20
297.2068
40
1.0000
50
20.3743
51
115.0000
0
ARC
8
PARAMETRIX
10
122.8906
20
286.4141
40
32.0000
50
357.8624
51
20.3743
0
LINE
8
PARAMETRIX
10
154.8683
20
285.2205
11
149.0839
21
129.9157
0
ARC
8
PARAMETRIX
10
149.4837
20
129.9008
40
0.4000
50
177.8670
51
265.0000
0
LINE
8
PARAMETRIX
10
149.4488
20
129.5023
11
151.6432
21
129.3103
0
ARC
8
PARAMETRIX
10
151.6780
20
129.7088
40
0.4000
50
265.0000
51
357.8670
0
LINE
8
PARAMETRIX
10
152.0777
20
129.6939
11
157.8662
21
285.1086
0
ARC
8
PARAMETRIX
10
122.8906
20
286.4141
40
35.0000
50
357.8624
51
172.1376
0
LINE
8
PARAMETRIX
10
88.2196
20
291.2019
11
66.9326
21
137.1431
0
ARC
8
PARAMETRIX
10
67.3289
20
137.0884
40
0.4000
50
172.1330
51
265.0000
0
LINE
8
PARAMETRIX
10
67.2940
20
136.6899
11
69.4884
21
136.4979
0
ARC
8
PARAMETRIX
10
69.5232
20
136.8964
40
0.4000
50
265.0000
51
352.1330
0
CIRCLE
8
PARAMETRIX
10
122.8906
20
286.4141
40
15.3500
0
ARC
8
PARAMETRIX
10
122.8906
20
286.4141
40
18.3500
50
32.4233
51
137.5767
0
ARC
8
PARAMETRIX
10
139.2241
20
296.7890
40
1.0000
50
212.4233
51
295.0000
0
LINE
8
PARAMETRIX
10
139.6467
20
295.8827
11
150.2607
21
300.8320
0
ARC
8
PARAMETRIX
10
149.8380
20
301.7383
40
1.0000
50
295.0000
51
29.6257
0
ARC
8
PARAMETRIX
10
122.8906
20
286.4141
40
32.0000
50
29.6257
51
140.3743
0
ARC
8
PARAMETRIX
10
99.0135
20
306.1849
40
1.0000
50
140.3743
51
235.0000
0
LINE
8
PARAMETRIX
10
98.4399
20
305.3658
11
108.0332
21
298.6485
0
ARC
8
PARAMETRIX
10
108.6068
20
299.4676
40
1.0000
50
235.0000
51
317.5767
0
ARC
8
PARAMETRIX
10
122.8906
20
286.4141
40
35.0000
50
202.7186
51
27.6977
0
LINE
8
PARAMETRIX
10
153.8800
20
302.6823
11
47.0671
21
506.1306
0
ARC
8
PARAMETRIX
10
24.9318
20
494.5104
40
25.0000
50
27.6977
51
202.7186
0
LINE
8
PARAMETRIX
10
1.8715
20
484.8553
11
90.6061
21
272.8969
0
CIRCLE
8
PARAMETRIX
10
122.8906
20
286.4141
40
15.2000
0
CIRCLE
8
PARAMETRIX
10
24.9318
20
494.5104
40
10.2000
0
ENDSEC
0
EOF
