<svg width="648" height="410" viewBox="-32 -20 648 410" xmlns="http://www.w3.org/2000/svg"><path d="M 0.0000 348.7500 L 66.6500 348.7500 L 66.6500 363.7500 L 69.6500 363.7500 L 69.6500 340.7500 L 10.0000 340.7500 L 10.0000 241.2500 L 69.6500 241.2500 L 69.6500 218.2500 L 66.6500 218.2500 L 66.6500 233.2500 L 0.0000 233.2500 L 0.0000 348.7500 Z" stroke="green" stroke-width="1" fill="none" /><path d="M 120.3500 363.7500 L 123.3500 363.7500 L 123.3500 348.7500 L 137.0000 348.7500 L 137.0000 363.7500 L 140.0000 363.7500 L 140.0000 340.7500 L 120.3500 340.7500 L 120.3500 363.7500 Z" stroke="green" stroke-width="1" fill="none" /><path d="M 120.3500 241.2500 L 140.0000 241.2500 L 140.0000 218.2500 L 137.0000 218.2500 L 137.0000 233.2500 L 123.3500 233.2500 L 123.3500 218.2500 L 120.3500 218.2500 L 120.3500 241.2500 Z" stroke="green" stroke-width="1" fill="none" /><path d="M 70.0000 363.7500 L 74.0000 363.7500 L 74.0000 218.2500 L 70.0000 218.2500 L 70.0000 363.7500 Z" stroke="green" stroke-width="1" fill="none" /><path d="M 116.0000 363.7500 L 120.0000 363.7500 L 120.0000 218.2500 L 116.0000 218.2500 L 116.0000 363.7500 Z" stroke="green" stroke-width="1" fill="none" /><path d="M 50.0000 340.5000 L 350.0000 340.5000 L 350.0000 332.5000 L 50.0000 332.5000 L 50.0000 340.5000 Z" stroke="green" stroke-width="1" fill="none" /><path d="M 50.0000 249.5000 L 350.0000 249.5000 L 350.0000 241.5000 L 50.0000 241.5000 L 50.0000 249.5000 Z" stroke="green" stroke-width="1" fill="none" /><path d="M 285.5000 355.5000 L 289.5000 355.5000 L 289.5000 226.5000 L 285.5000 226.5000 L 285.5000 355.5000 Z" stroke="green" stroke-width="1" fill="none" /><path d="M 320.5000 355.5000 L 324.5000 355.5000 L 324.5000 226.5000 L 320.5000 226.5000 L 320.5000 355.5000 Z" stroke="green" stroke-width="1" fill="none" /><path d="M 260.0000 332.2500 L 580.0000 332.2500 L 580.0000 324.2500 L 260.0000 324.2500 L 260.0000 332.2500 Z" stroke="green" stroke-width="1" fill="none" /><path d="M 260.0000 257.7500 L 580.0000 257.7500 L 580.0000 249.7500 L 260.0000 249.7500 L 260.0000 257.7500 Z" stroke="green" stroke-width="1" fill="none" /><path d="M 545.0000 347.2500 L 549.0000 347.2500 L 549.0000 234.7500 L 545.0000 234.7500 L 545.0000 347.2500 Z" stroke="green" stroke-width="1" fill="none" /><path d="M 561.0000 347.2500 L 565.0000 347.2500 L 565.0000 234.7500 L 561.0000 234.7500 L 561.0000 347.2500 Z" stroke="green" stroke-width="1" fill="none" /><path d="M 0.0000 130.5000 L 66.6500 130.5000 L 66.6500 145.5000 L 69.6500 145.5000 L 69.6500 122.5000 L 10.0000 122.5000 L 10.0000 23.0000 L 69.6500 23.0000 L 69.6500 0.0000 L 66.6500 0.0000 L 66.6500 15.0000 L 0.0000 15.0000 L 0.0000 130.5000 Z" stroke="green" stroke-width="1" fill="none" /><path d="M 120.3500 145.5000 L 123.3500 145.5000 L 123.3500 130.5000 L 137.0000 130.5000 L 137.0000 145.5000 L 140.0000 145.5000 L 140.0000 122.5000 L 120.3500 122.5000 L 120.3500 145.5000 Z" stroke="green" stroke-width="1" fill="none" /><path d="M 120.3500 23.0000 L 140.0000 23.0000 L 140.0000 0.0000 L 137.0000 0.0000 L 137.0000 15.0000 L 123.3500 15.0000 L 123.3500 0.0000 L 120.3500 0.0000 L 120.3500 23.0000 Z" stroke="green" stroke-width="1" fill="none" /><path d="M 70.0000 145.5000 L 74.0000 145.5000 L 74.0000 0.0000 L 70.0000 0.0000 L 70.0000 145.5000 Z" stroke="green" stroke-width="1" fill="none" /><path d="M 116.0000 145.5000 L 120.0000 145.5000 L 120.0000 0.0000 L 116.0000 0.0000 L 116.0000 145.5000 Z" stroke="green" stroke-width="1" fill="none" /><path d="M 50.0000 122.2500 L 330.0000 122.2500 L 330.0000 114.2500 L 50.0000 114.2500 L 50.0000 122.2500 Z" stroke="green" stroke-width="1" fill="none" /><path d="M 50.0000 31.2500 L 330.0000 31.2500 L 330.0000 23.2500 L 50.0000 23.2500 L 50.0000 31.2500 Z" stroke="green" stroke-width="1" fill="none" /><path d="M 280.0000 137.2500 L 284.0000 137.2500 L 284.0000 8.2500 L 280.0000 8.2500 L 280.0000 137.2500 Z" stroke="green" stroke-width="1" fill="none" /><path d="M 306.0000 137.2500 L 310.0000 137.2500 L 310.0000 8.2500 L 306.0000 8.2500 L 306.0000 137.2500 Z" stroke="green" stroke-width="1" fill="none" /><path d="M 260.0000 105.7500 L 550.0000 105.7500 L 550.0000 97.7500 L 260.0000 97.7500 L 260.0000 105.7500 Z" stroke="green" stroke-width="1" fill="none" /><path d="M 260.0000 47.7500 L 550.0000 47.7500 L 550.0000 39.7500 L 260.0000 39.7500 L 260.0000 47.7500 Z" stroke="green" stroke-width="1" fill="none" /><path d="M 260.0000 114.0000 L 330.0000 114.0000 L 330.0000 105.7500 L 260.0000 105.7500 L 260.0000 114.0000 Z" stroke="green" stroke-width="1" fill="none" /><path d="M 260.0000 39.7500 L 330.0000 39.7500 L 330.0000 31.5000 L 260.0000 31.5000 L 260.0000 39.7500 Z" stroke="green" stroke-width="1" fill="none" /><path d="M 515.0000 129.0000 L 519.0000 129.0000 L 519.0000 16.5000 L 515.0000 16.5000 L 515.0000 129.0000 Z" stroke="green" stroke-width="1" fill="none" /><path d="M 531.0000 129.0000 L 535.0000 129.0000 L 535.0000 16.5000 L 531.0000 16.5000 L 531.0000 129.0000 Z" stroke="green" stroke-width="1" fill="none" /></svg>