0
SECTION
2
ENTITIES
0
LINE
8
PARAMETRIX
10
-40.0000
20
150.0000
11
-40.0000
21
90.3982
0
ARC
8
PARAMETRIX
10
-35.0000
20
90.3982
40
5.0000
50
180.0000
51
189.1062
0
LINE
8
PARAMETRIX
10
-39.9370
20
89.6068
11
-29.6219
21
25.2521
0
ARC
8
PARAMETRIX
10
0.0000
20
30.0000
40
30.0000
50
189.1062
51
350.8938
0
LINE
8
PARAMETRIX
10
29.6219
20
25.2521
11
39.9370
21
89.6068
0
ARC
8
PARAMETRIX
10
35.0000
20
90.3982
40
5.0000
50
350.8938
51
360.0000
0
LINE
8
PARAMETRIX
10
40.0000
20
90.3982
11
40.0000
21
150.0000
0
LINE
8
PARAMETRIX
10
40.0000
20
150.0000
11
-40.0000
21
150.0000
0
CIRCLE
8
PARAMETRIX
10
0.0000
20
30.0000
40
10.0000
0
ENDSEC
0
EOF
