0
SECTION
2
ENTITIES
0
LINE
8
PARAMETRIX
10
104.0000
20
40.0000
11
69.8179
21
40.0000
0
ARC
8
PARAMETRIX
10
69.8179
20
38.0000
40
2.0000
50
90.0000
51
120.0000
0
LINE
8
PARAMETRIX
10
68.8179
20
39.7321
11
45.0000
21
25.9808
0
ARC
8
PARAMETRIX
10
44.0000
20
27.7128
40
2.0000
50
212.2042
51
300.0000
0
ARC
8
PARAMETRIX
10
0.0000
20
0.0000
40
50.0000
50
32.2042
51
327.7958
0
ARC
8
PARAMETRIX
10
44.0000
20
-27.7128
40
2.0000
50
60.0000
51
147.7958
0
LINE
8
PARAMETRIX
10
45.0000
20
-25.9808
11
68.8179
21
-39.7321
0
ARC
8
PARAMETRIX
10
69.8179
20
-38.0000
40
2.0000
50
240.0000
51
270.0000
0
LINE
8
PARAMETRIX
10
69.8179
20
-40.0000
11
104.0000
21
-40.0000
0
LINE
8
PARAMETRIX
10
104.0000
20
-40.0000
11
104.0000
21
-38.0000
0
LINE
8
PARAMETRIX
10
104.0000
20
-38.0000
11
70.3511
21
-38.0000
0
ARC
8
PARAMETRIX
10
70.3511
20
-36.0000
40
2.0000
50
240.1483
51
270.0000
0
LINE
8
PARAMETRIX
10
69.3555
20
-37.7346
11
44.2586
21
-23.3314
0
ARC
8
PARAMETRIX
10
43.2631
20
-25.0660
40
2.0000
50
60.1483
51
149.9126
0
ARC
8
PARAMETRIX
10
0.0000
20
0.0000
40
48.0000
50
30.0874
51
329.9126
0
ARC
8
PARAMETRIX
10
43.2631
20
25.0660
40
2.0000
50
210.0874
51
299.8517
0
LINE
8
PARAMETRIX
10
44.2586
20
23.3314
11
69.3555
21
37.7346
0
ARC
8
PARAMETRIX
10
70.3511
20
36.0000
40
2.0000
50
90.0000
51
119.8517
0
LINE
8
PARAMETRIX
10
70.3511
20
38.0000
11
104.0000
21
38.0000
0
LINE
8
PARAMETRIX
10
104.0000
20
38.0000
11
104.0000
21
40.0000
0
CIRCLE
8
PARAMETRIX
10
0.0000
20
0.0000
40
35.0000
0
CIRCLE
8
PARAMETRIX
10
0.0000
20
0.0000
40
30.0000
0
ENDSEC
0
EOF
