0
SECTION
2
ENTITIES
0
LINE
8
PARAMETRIX
10
-2.0000
20
90.0000
11
6.8604
21
116.5811
0
ARC
8
PARAMETRIX
10
11.6038
20
115.0000
40
5.0000
50
90.0000
51
161.5651
0
LINE
8
PARAMETRIX
10
11.6038
20
120.0000
11
84.3962
21
120.0000
0
ARC
8
PARAMETRIX
10
84.3962
20
115.0000
40
5.0000
50
18.4349
51
90.0000
0
LINE
8
PARAMETRIX
10
89.1396
20
116.5811
11
98.0000
21
90.0000
0
LINE
8
PARAMETRIX
10
98.0000
20
90.0000
11
98.0000
21
150.0000
0
LINE
8
PARAMETRIX
10
98.0000
20
150.0000
11
-2.0000
21
150.0000
0
LINE
8
PARAMETRIX
10
-2.0000
20
150.0000
11
-2.0000
21
90.0000
0
ENDSEC
0
EOF
