<svg width="76" height="57" viewBox="-34 149 76 57" xmlns="http://www.w3.org/2000/svg"><path d="M -30.0222 194.5000 L 30.0222 194.5000 L 30.0222 151.5000 L -30.0222 151.5000 L -30.0222 194.5000 Z" stroke="green" stroke-width="1" fill="none" /><path d="M -17.1895 191.0000 L 17.1895 191.0000 A 2.0000 2.0000 0 0 0 18.3540 187.3740 L 1.1645 175.0639 A 2.0000 2.0000 0 0 0 -1.1645 175.0639 L -18.3540 187.3740 A 2.0000 2.0000 0 0 0 -17.1895 191.0000 Z" stroke="green" stroke-width="1" fill="none" /><path d="M -17.1895 155.0000 L 17.1895 155.0000 A 2.0000 2.0000 0 0 1 18.3540 158.6260 L 1.1645 170.9361 A 2.0000 2.0000 0 0 1 -1.1645 170.9361 L -18.3540 158.6260 A 2.0000 2.0000 0 0 1 -17.1895 155.0000 Z" stroke="green" stroke-width="1" fill="none" /><path d="M -24.8577 189.5716 L -3.9881 174.6260 A 2.0000 2.0000 0 0 0 -3.9881 171.3740 L -24.8577 156.4284 A 2.0000 2.0000 0 0 0 -28.0222 158.0545 L -28.0222 187.9455 A 2.0000 2.0000 0 0 0 -24.8577 189.5716 Z" stroke="green" stroke-width="1" fill="none" /><path d="M 24.8577 189.5716 L 3.9881 174.6260 A 2.0000 2.0000 0 0 1 3.9881 171.3740 L 24.8577 156.4284 A 2.0000 2.0000 0 0 1 28.0222 158.0545 L 28.0222 187.9455 A 2.0000 2.0000 0 0 1 24.8577 189.5716 Z" stroke="green" stroke-width="1" fill="none" /></svg>