0
SECTION
2
ENTITIES
0
LINE
8
PARAMETRIX
10
-30.0222
20
151.5000
11
30.0222
21
151.5000
0
LINE
8
PARAMETRIX
10
30.0222
20
151.5000
11
30.0222
21
194.5000
0
LINE
8
PARAMETRIX
10
30.0222
20
194.5000
11
-30.0222
21
194.5000
0
LINE
8
PARAMETRIX
10
-30.0222
20
194.5000
11
-30.0222
21
151.5000
0
LINE
8
PARAMETRIX
10
-17.1895
20
155.0000
11
17.1895
21
155.0000
0
ARC
8
PARAMETRIX
10
17.1895
20
157.0000
40
2.0000
50
270.0000
51
54.3922
0
LINE
8
PARAMETRIX
10
18.3540
20
158.6260
11
1.1645
21
170.9361
0
ARC
8
PARAMETRIX
10
-0.0000
20
169.3101
40
2.0000
50
54.3922
51
125.6078
0
LINE
8
PARAMETRIX
10
-1.1645
20
170.9361
11
-18.3540
21
158.6260
0
ARC
8
PARAMETRIX
10
-17.1895
20
157.0000
40
2.0000
50
125.6078
51
270.0000
0
LINE
8
PARAMETRIX
10
-17.1895
20
191.0000
11
17.1895
21
191.0000
0
ARC
8
PARAMETRIX
10
17.1895
20
189.0000
40
2.0000
50
305.6078
51
90.0000
0
LINE
8
PARAMETRIX
10
18.3540
20
187.3740
11
1.1645
21
175.0639
0
ARC
8
PARAMETRIX
10
0.0000
20
176.6899
40
2.0000
50
234.3922
51
305.6078
0
LINE
8
PARAMETRIX
10
-1.1645
20
175.0639
11
-18.3540
21
187.3740
0
ARC
8
PARAMETRIX
10
-17.1895
20
189.0000
40
2.0000
50
90.0000
51
234.3922
0
LINE
8
PARAMETRIX
10
-24.8577
20
156.4284
11
-3.9881
21
171.3740
0
ARC
8
PARAMETRIX
10
-5.1526
20
173.0000
40
2.0000
50
305.6078
51
54.3922
0
LINE
8
PARAMETRIX
10
-3.9881
20
174.6260
11
-24.8577
21
189.5716
0
ARC
8
PARAMETRIX
10
-26.0222
20
187.9455
40
2.0000
50
54.3922
51
180.0000
0
LINE
8
PARAMETRIX
10
-28.0222
20
187.9455
11
-28.0222
21
158.0545
0
ARC
8
PARAMETRIX
10
-26.0222
20
158.0545
40
2.0000
50
180.0000
51
305.6078
0
LINE
8
PARAMETRIX
10
24.8577
20
156.4284
11
3.9881
21
171.3740
0
ARC
8
PARAMETRIX
10
5.1526
20
173.0000
40
2.0000
50
125.6078
51
234.3922
0
LINE
8
PARAMETRIX
10
3.9881
20
174.6260
11
24.8577
21
189.5716
0
ARC
8
PARAMETRIX
10
26.0222
20
187.9455
40
2.0000
50
360.0000
51
125.6078
0
LINE
8
PARAMETRIX
10
28.0222
20
187.9455
11
28.0222
21
158.0545
0
ARC
8
PARAMETRIX
10
26.0222
20
158.0545
40
2.0000
50
234.3922
51
0.0000
0
ENDSEC
0
EOF
