0
SECTION
2
ENTITIES
0
LINE
8
PARAMETRIX
10
-40.0000
20
153.0000
11
-40.0000
21
90.3982
0
ARC
8
PARAMETRIX
10
-35.0000
20
90.3982
40
5.0000
50
180.0000
51
189.1062
0
LINE
8
PARAMETRIX
10
-39.9370
20
89.6068
11
-29.6219
21
25.2521
0
ARC
8
PARAMETRIX
10
0.0000
20
30.0000
40
30.0000
50
189.1062
51
350.8938
0
LINE
8
PARAMETRIX
10
29.6219
20
25.2521
11
39.9370
21
89.6068
0
ARC
8
PARAMETRIX
10
35.0000
20
90.3982
40
5.0000
50
350.8938
51
360.0000
0
LINE
8
PARAMETRIX
10
40.0000
20
90.3982
11
40.0000
21
153.0000
0
LINE
8
PARAMETRIX
10
40.0000
20
153.0000
11
-40.0000
21
153.0000
0
LINE
8
PARAMETRIX
10
-37.0000
20
144.0000
11
-37.0000
21
90.6371
0
ARC
8
PARAMETRIX
10
-32.0000
20
90.6371
40
5.0000
50
180.0000
51
189.1062
0
LINE
8
PARAMETRIX
10
-36.9370
20
89.8458
11
-26.6597
21
25.7269
0
ARC
8
PARAMETRIX
10
0.0000
20
30.0000
40
27.0000
50
189.1062
51
350.8938
0
LINE
8
PARAMETRIX
10
26.6597
20
25.7269
11
36.9370
21
89.8458
0
ARC
8
PARAMETRIX
10
32.0000
20
90.6371
40
5.0000
50
350.8938
51
360.0000
0
LINE
8
PARAMETRIX
10
37.0000
20
90.6371
11
37.0000
21
144.0000
0
ARC
8
PARAMETRIX
10
32.0000
20
144.0000
40
5.0000
50
0.0000
51
90.0000
0
LINE
8
PARAMETRIX
10
32.0000
20
149.0000
11
6.0000
21
149.0000
0
ARC
8
PARAMETRIX
10
6.0000
20
144.0000
40
5.0000
50
90.0000
51
180.0000
0
LINE
8
PARAMETRIX
10
1.0000
20
144.0000
11
1.0000
21
45.9060
0
ARC
8
PARAMETRIX
10
6.0000
20
45.9060
40
5.0000
50
180.0000
51
249.3327
0
ARC
8
PARAMETRIX
10
0.0000
20
30.0000
40
12.0000
50
110.6673
51
69.3327
0
ARC
8
PARAMETRIX
10
-6.0000
20
45.9060
40
5.0000
50
290.6673
51
0.0000
0
LINE
8
PARAMETRIX
10
-1.0000
20
45.9060
11
-1.0000
21
144.0000
0
ARC
8
PARAMETRIX
10
-6.0000
20
144.0000
40
5.0000
50
0.0000
51
90.0000
0
LINE
8
PARAMETRIX
10
-6.0000
20
149.0000
11
-32.0000
21
149.0000
0
ARC
8
PARAMETRIX
10
-32.0000
20
144.0000
40
5.0000
50
90.0000
51
180.0000
0
CIRCLE
8
PARAMETRIX
10
0.0000
20
30.0000
40
10.0000
0
ENDSEC
0
EOF
