0
SECTION
2
ENTITIES
0
LINE
8
PARAMETRIX
10
104.0000
20
40.0000
11
69.8179
21
40.0000
0
ARC
8
PARAMETRIX
10
69.8179
20
38.0000
40
2.0000
50
90.0000
51
120.0000
0
LINE
8
PARAMETRIX
10
68.8179
20
39.7321
11
45.0000
21
25.9808
0
ARC
8
PARAMETRIX
10
44.0000
20
27.7128
40
2.0000
50
212.2042
51
300.0000
0
ARC
8
PARAMETRIX
10
0.0000
20
0.0000
40
50.0000
50
32.2042
51
327.7958
0
ARC
8
PARAMETRIX
10
44.0000
20
-27.7128
40
2.0000
50
60.0000
51
147.7958
0
LINE
8
PARAMETRIX
10
45.0000
20
-25.9808
11
68.8179
21
-39.7321
0
ARC
8
PARAMETRIX
10
69.8179
20
-38.0000
40
2.0000
50
240.0000
51
270.0000
0
LINE
8
PARAMETRIX
10
69.8179
20
-40.0000
11
104.0000
21
-40.0000
0
LINE
8
PARAMETRIX
10
104.0000
20
-40.0000
11
104.0000
21
40.0000
0
CIRCLE
8
PARAMETRIX
10
0.0000
20
0.0000
40
30.0000
0
LINE
8
PARAMETRIX
10
93.0000
20
38.0000
11
70.3538
21
38.0000
0
ARC
8
PARAMETRIX
10
70.3538
20
36.0000
40
2.0000
50
90.0000
51
120.0000
0
LINE
8
PARAMETRIX
10
69.3538
20
37.7321
11
60.5000
21
32.6203
0
ARC
8
PARAMETRIX
10
63.0000
20
28.2902
40
5.0000
50
120.0000
51
180.0000
0
LINE
8
PARAMETRIX
10
58.0000
20
28.2902
11
58.0000
21
-28.2902
0
ARC
8
PARAMETRIX
10
63.0000
20
-28.2902
40
5.0000
50
180.0000
51
240.0000
0
LINE
8
PARAMETRIX
10
60.5000
20
-32.6203
11
69.3538
21
-37.7321
0
ARC
8
PARAMETRIX
10
70.3538
20
-36.0000
40
2.0000
50
240.0000
51
270.0000
0
LINE
8
PARAMETRIX
10
70.3538
20
-38.0000
11
93.0000
21
-38.0000
0
ARC
8
PARAMETRIX
10
93.0000
20
-33.0000
40
5.0000
50
270.0000
51
0.0000
0
LINE
8
PARAMETRIX
10
98.0000
20
-33.0000
11
98.0000
21
33.0000
0
ARC
8
PARAMETRIX
10
93.0000
20
33.0000
40
5.0000
50
0.0000
51
90.0000
0
ENDSEC
0
EOF
