0
SECTION
2
ENTITIES
0
ARC
8
PARAMETRIX
10
50.8893
20
-1.7850
40
3.5865
50
29.8490
51
72.3901
0
ARC
8
PARAMETRIX
10
53.0145
20
5.2446
40
3.7581
50
214.0663
51
253.9322
0
ARC
8
PARAMETRIX
10
53.2538
20
1.4412
40
3.7581
50
113.2678
51
153.1337
0
ARC
8
PARAMETRIX
10
50.2643
20
8.1491
40
3.5865
50
294.8099
51
337.3510
0
ARC
8
PARAMETRIX
10
50.7118
20
4.6072
40
3.5865
50
37.0490
51
79.5901
0
ARC
8
PARAMETRIX
10
51.9391
20
11.8477
40
3.7581
50
221.2663
51
261.1322
0
ARC
8
PARAMETRIX
10
52.6532
20
8.1043
40
3.7581
50
120.4678
51
160.3337
0
ARC
8
PARAMETRIX
10
48.8466
20
14.3846
40
3.5865
50
302.0099
51
344.5510
0
ARC
8
PARAMETRIX
10
49.7345
20
10.9267
40
3.5865
50
44.2490
51
86.7901
0
ARC
8
PARAMETRIX
10
50.0446
20
18.2640
40
3.7581
50
228.4663
51
268.3322
0
ARC
8
PARAMETRIX
10
51.2223
20
14.6396
40
3.7581
50
127.6678
51
167.5337
0
ARC
8
PARAMETRIX
10
46.6586
20
20.3933
40
3.5865
50
309.2099
51
351.7510
0
ARC
8
PARAMETRIX
10
47.9728
20
17.0739
40
3.5865
50
51.4490
51
93.9901
0
ARC
8
PARAMETRIX
10
47.3609
20
24.3922
40
3.7581
50
235.6663
51
275.5322
0
ARC
8
PARAMETRIX
10
48.9835
20
20.9440
40
3.7581
50
134.8678
51
174.7337
0
ARC
8
PARAMETRIX
10
43.7347
20
26.0804
40
3.5865
50
316.4099
51
358.9510
0
ARC
8
PARAMETRIX
10
45.4546
20
22.9519
40
3.5865
50
58.6490
51
101.1901
0
ARC
8
PARAMETRIX
10
43.9303
20
30.1358
40
3.7581
50
242.8663
51
282.7322
0
ARC
8
PARAMETRIX
10
45.9723
20
26.9181
40
3.7581
50
142.0678
51
181.9337
0
ARC
8
PARAMETRIX
10
40.1211
20
31.3561
40
3.5865
50
323.6099
51
6.1510
0
ARC
8
PARAMETRIX
10
42.2195
20
28.4679
40
3.5865
50
65.8490
51
108.3901
0
ARC
8
PARAMETRIX
10
39.8069
20
35.4041
40
3.7581
50
250.0663
51
289.9322
0
ARC
8
PARAMETRIX
10
42.2361
20
32.4677
40
3.7581
50
149.2678
51
189.1337
0
ARC
8
PARAMETRIX
10
35.8748
20
36.1374
40
3.5865
50
330.8099
51
13.3510
0
ARC
8
PARAMETRIX
10
38.3187
20
33.5349
40
3.5865
50
73.0490
51
115.5901
0
ARC
8
PARAMETRIX
10
35.0557
20
40.1141
40
3.7581
50
257.2663
51
297.1322
0
ARC
8
PARAMETRIX
10
37.8337
20
37.5053
40
3.7581
50
156.4678
51
196.3337
0
ARC
8
PARAMETRIX
10
31.0627
20
40.3487
40
3.5865
50
338.0099
51
20.5510
0
ARC
8
PARAMETRIX
10
33.8135
20
38.0731
40
3.5865
50
80.2490
51
122.7901
0
ARC
8
PARAMETRIX
10
29.7517
20
44.1914
40
3.7581
50
264.4663
51
304.3322
0
ARC
8
PARAMETRIX
10
32.8347
20
41.9514
40
3.7581
50
163.6678
51
203.5337
0
ARC
8
PARAMETRIX
10
25.7607
20
43.9237
40
3.5865
50
345.2099
51
27.7510
0
ARC
8
PARAMETRIX
10
28.7750
20
42.0108
40
3.5865
50
87.4490
51
129.9901
0
ARC
8
PARAMETRIX
10
23.9784
20
47.5718
40
3.7581
50
271.6663
51
311.5322
0
ARC
8
PARAMETRIX
10
27.3179
20
45.7359
40
3.7581
50
170.8678
51
210.7337
0
ARC
8
PARAMETRIX
10
20.0525
20
46.8061
40
3.5865
50
352.4099
51
34.9510
0
ARC
8
PARAMETRIX
10
23.2828
20
45.2860
40
3.5865
50
94.6490
51
137.1901
0
ARC
8
PARAMETRIX
10
17.8270
20
50.2020
40
3.7581
50
278.8663
51
318.7322
0
ARC
8
PARAMETRIX
10
21.3703
20
48.7991
40
3.7581
50
178.0678
51
217.9337
0
ARC
8
PARAMETRIX
10
14.0280
20
48.9502
40
3.5865
50
359.6099
51
42.1510
0
ARC
8
PARAMETRIX
10
17.4233
20
47.8470
40
3.5865
50
101.8490
51
144.3901
0
ARC
8
PARAMETRIX
10
11.3945
20
52.0404
40
3.7581
50
286.0663
51
325.9322
0
ARC
8
PARAMETRIX
10
15.0856
20
51.0927
40
3.7581
50
185.2678
51
225.1337
0
ARC
8
PARAMETRIX
10
7.7823
20
50.3224
40
3.5865
50
6.8099
51
49.3510
0
ARC
8
PARAMETRIX
10
11.2891
20
49.6534
40
3.5865
50
109.0490
51
151.5901
0
ARC
8
PARAMETRIX
10
4.7822
20
53.0582
40
3.7581
50
293.2663
51
333.1322
0
ARC
8
PARAMETRIX
10
8.5631
20
52.5806
40
3.7581
50
192.4678
51
232.3337
0
ARC
8
PARAMETRIX
10
1.4138
20
50.9010
40
3.5865
50
14.0099
51
56.5510
0
ARC
8
PARAMETRIX
10
4.9769
20
50.6768
40
3.5865
50
116.2490
51
158.7901
0
ARC
8
PARAMETRIX
10
-1.9055
20
53.2392
40
3.7581
50
300.4663
51
340.3322
0
ARC
8
PARAMETRIX
10
1.9055
20
53.2392
40
3.7581
50
199.6678
51
239.5337
0
ARC
8
PARAMETRIX
10
-4.9769
20
50.6768
40
3.5865
50
21.2099
51
63.7510
0
ARC
8
PARAMETRIX
10
-1.4138
20
50.9010
40
3.5865
50
123.4490
51
165.9901
0
ARC
8
PARAMETRIX
10
-8.5631
20
52.5806
40
3.7581
50
307.6663
51
347.5322
0
ARC
8
PARAMETRIX
10
-4.7822
20
53.0582
40
3.7581
50
206.8678
51
246.7337
0
ARC
8
PARAMETRIX
10
-11.2891
20
49.6534
40
3.5865
50
28.4099
51
70.9510
0
ARC
8
PARAMETRIX
10
-7.7823
20
50.3224
40
3.5865
50
130.6490
51
173.1901
0
ARC
8
PARAMETRIX
10
-15.0856
20
51.0927
40
3.7581
50
314.8663
51
354.7322
0
ARC
8
PARAMETRIX
10
-11.3945
20
52.0404
40
3.7581
50
214.0678
51
253.9337
0
ARC
8
PARAMETRIX
10
-17.4233
20
47.8470
40
3.5865
50
35.6099
51
78.1510
0
ARC
8
PARAMETRIX
10
-14.0280
20
48.9502
40
3.5865
50
137.8490
51
180.3901
0
ARC
8
PARAMETRIX
10
-21.3703
20
48.7991
40
3.7581
50
322.0663
51
1.9322
0
ARC
8
PARAMETRIX
10
-17.8270
20
50.2020
40
3.7581
50
221.2678
51
261.1337
0
ARC
8
PARAMETRIX
10
-23.2828
20
45.2860
40
3.5865
50
42.8099
51
85.3510
0
ARC
8
PARAMETRIX
10
-20.0525
20
46.8061
40
3.5865
50
145.0490
51
187.5901
0
ARC
8
PARAMETRIX
10
-27.3179
20
45.7359
40
3.7581
50
329.2663
51
9.1322
0
ARC
8
PARAMETRIX
10
-23.9784
20
47.5718
40
3.7581
50
228.4678
51
268.3337
0
ARC
8
PARAMETRIX
10
-28.7750
20
42.0108
40
3.5865
50
50.0099
51
92.5510
0
ARC
8
PARAMETRIX
10
-25.7607
20
43.9237
40
3.5865
50
152.2490
51
194.7901
0
ARC
8
PARAMETRIX
10
-32.8347
20
41.9514
40
3.7581
50
336.4663
51
16.3322
0
ARC
8
PARAMETRIX
10
-29.7517
20
44.1914
40
3.7581
50
235.6678
51
275.5337
0
ARC
8
PARAMETRIX
10
-33.8135
20
38.0731
40
3.5865
50
57.2099
51
99.7510
0
ARC
8
PARAMETRIX
10
-31.0627
20
40.3487
40
3.5865
50
159.4490
51
201.9901
0
ARC
8
PARAMETRIX
10
-37.8337
20
37.5053
40
3.7581
50
343.6663
51
23.5322
0
ARC
8
PARAMETRIX
10
-35.0557
20
40.1141
40
3.7581
50
242.8678
51
282.7337
0
ARC
8
PARAMETRIX
10
-38.3187
20
33.5349
40
3.5865
50
64.4099
51
106.9510
0
ARC
8
PARAMETRIX
10
-35.8748
20
36.1374
40
3.5865
50
166.6490
51
209.1901
0
ARC
8
PARAMETRIX
10
-42.2361
20
32.4677
40
3.7581
50
350.8663
51
30.7322
0
ARC
8
PARAMETRIX
10
-39.8069
20
35.4041
40
3.7581
50
250.0678
51
289.9337
0
ARC
8
PARAMETRIX
10
-42.2195
20
28.4679
40
3.5865
50
71.6099
51
114.1510
0
ARC
8
PARAMETRIX
10
-40.1211
20
31.3561
40
3.5865
50
173.8490
51
216.3901
0
ARC
8
PARAMETRIX
10
-45.9723
20
26.9181
40
3.7581
50
358.0663
51
37.9322
0
ARC
8
PARAMETRIX
10
-43.9303
20
30.1358
40
3.7581
50
257.2678
51
297.1337
0
ARC
8
PARAMETRIX
10
-45.4546
20
22.9519
40
3.5865
50
78.8099
51
121.3510
0
ARC
8
PARAMETRIX
10
-43.7347
20
26.0804
40
3.5865
50
181.0490
51
223.5901
0
ARC
8
PARAMETRIX
10
-48.9835
20
20.9440
40
3.7581
50
5.2663
51
45.1322
0
ARC
8
PARAMETRIX
10
-47.3609
20
24.3922
40
3.7581
50
264.4678
51
304.3337
0
ARC
8
PARAMETRIX
10
-47.9728
20
17.0739
40
3.5865
50
86.0099
51
128.5510
0
ARC
8
PARAMETRIX
10
-46.6586
20
20.3933
40
3.5865
50
188.2490
51
230.7901
0
ARC
8
PARAMETRIX
10
-51.2223
20
14.6396
40
3.7581
50
12.4663
51
52.3322
0
ARC
8
PARAMETRIX
10
-50.0446
20
18.2640
40
3.7581
50
271.6678
51
311.5337
0
ARC
8
PARAMETRIX
10
-49.7345
20
10.9267
40
3.5865
50
93.2099
51
135.7510
0
ARC
8
PARAMETRIX
10
-48.8466
20
14.3846
40
3.5865
50
195.4490
51
237.9901
0
ARC
8
PARAMETRIX
10
-52.6532
20
8.1043
40
3.7581
50
19.6663
51
59.5322
0
ARC
8
PARAMETRIX
10
-51.9391
20
11.8477
40
3.7581
50
278.8678
51
318.7337
0
ARC
8
PARAMETRIX
10
-50.7118
20
4.6072
40
3.5865
50
100.4099
51
142.9510
0
ARC
8
PARAMETRIX
10
-50.2643
20
8.1491
40
3.5865
50
202.6490
51
245.1901
0
ARC
8
PARAMETRIX
10
-53.2538
20
1.4412
40
3.7581
50
26.8663
51
66.7322
0
ARC
8
PARAMETRIX
10
-53.0145
20
5.2446
40
3.7581
50
286.0678
51
325.9337
0
ARC
8
PARAMETRIX
10
-50.8893
20
-1.7850
40
3.5865
50
107.6099
51
150.1510
0
ARC
8
PARAMETRIX
10
-50.8893
20
1.7850
40
3.5865
50
209.8490
51
252.3901
0
ARC
8
PARAMETRIX
10
-53.0145
20
-5.2446
40
3.7581
50
34.0663
51
73.9322
0
ARC
8
PARAMETRIX
10
-53.2538
20
-1.4412
40
3.7581
50
293.2678
51
333.1337
0
ARC
8
PARAMETRIX
10
-50.2643
20
-8.1491
40
3.5865
50
114.8099
51
157.3510
0
ARC
8
PARAMETRIX
10
-50.7118
20
-4.6072
40
3.5865
50
217.0490
51
259.5901
0
ARC
8
PARAMETRIX
10
-51.9391
20
-11.8477
40
3.7581
50
41.2663
51
81.1322
0
ARC
8
PARAMETRIX
10
-52.6532
20
-8.1043
40
3.7581
50
300.4678
51
340.3337
0
ARC
8
PARAMETRIX
10
-48.8466
20
-14.3846
40
3.5865
50
122.0099
51
164.5510
0
ARC
8
PARAMETRIX
10
-49.7345
20
-10.9267
40
3.5865
50
224.2490
51
266.7901
0
ARC
8
PARAMETRIX
10
-50.0446
20
-18.2640
40
3.7581
50
48.4663
51
88.3322
0
ARC
8
PARAMETRIX
10
-51.2223
20
-14.6396
40
3.7581
50
307.6678
51
347.5337
0
ARC
8
PARAMETRIX
10
-46.6586
20
-20.3933
40
3.5865
50
129.2099
51
171.7510
0
ARC
8
PARAMETRIX
10
-47.9728
20
-17.0739
40
3.5865
50
231.4490
51
273.9901
0
ARC
8
PARAMETRIX
10
-47.3609
20
-24.3922
40
3.7581
50
55.6663
51
95.5322
0
ARC
8
PARAMETRIX
10
-48.9835
20
-20.9440
40
3.7581
50
314.8678
51
354.7337
0
ARC
8
PARAMETRIX
10
-43.7347
20
-26.0804
40
3.5865
50
136.4099
51
178.9510
0
ARC
8
PARAMETRIX
10
-45.4546
20
-22.9519
40
3.5865
50
238.6490
51
281.1901
0
ARC
8
PARAMETRIX
10
-43.9303
20
-30.1358
40
3.7581
50
62.8663
51
102.7322
0
ARC
8
PARAMETRIX
10
-45.9723
20
-26.9181
40
3.7581
50
322.0678
51
1.9337
0
ARC
8
PARAMETRIX
10
-40.1211
20
-31.3561
40
3.5865
50
143.6099
51
186.1510
0
ARC
8
PARAMETRIX
10
-42.2195
20
-28.4679
40
3.5865
50
245.8490
51
288.3901
0
ARC
8
PARAMETRIX
10
-39.8069
20
-35.4041
40
3.7581
50
70.0663
51
109.9322
0
ARC
8
PARAMETRIX
10
-42.2361
20
-32.4677
40
3.7581
50
329.2678
51
9.1337
0
ARC
8
PARAMETRIX
10
-35.8748
20
-36.1374
40
3.5865
50
150.8099
51
193.3510
0
ARC
8
PARAMETRIX
10
-38.3187
20
-33.5349
40
3.5865
50
253.0490
51
295.5901
0
ARC
8
PARAMETRIX
10
-35.0557
20
-40.1141
40
3.7581
50
77.2663
51
117.1322
0
ARC
8
PARAMETRIX
10
-37.8337
20
-37.5053
40
3.7581
50
336.4678
51
16.3337
0
ARC
8
PARAMETRIX
10
-31.0627
20
-40.3487
40
3.5865
50
158.0099
51
200.5510
0
ARC
8
PARAMETRIX
10
-33.8135
20
-38.0731
40
3.5865
50
260.2490
51
302.7901
0
ARC
8
PARAMETRIX
10
-29.7517
20
-44.1914
40
3.7581
50
84.4663
51
124.3322
0
ARC
8
PARAMETRIX
10
-32.8347
20
-41.9514
40
3.7581
50
343.6678
51
23.5337
0
ARC
8
PARAMETRIX
10
-25.7607
20
-43.9237
40
3.5865
50
165.2099
51
207.7510
0
ARC
8
PARAMETRIX
10
-28.7750
20
-42.0108
40
3.5865
50
267.4490
51
309.9901
0
ARC
8
PARAMETRIX
10
-23.9784
20
-47.5718
40
3.7581
50
91.6663
51
131.5322
0
ARC
8
PARAMETRIX
10
-27.3179
20
-45.7359
40
3.7581
50
350.8678
51
30.7337
0
ARC
8
PARAMETRIX
10
-20.0525
20
-46.8061
40
3.5865
50
172.4099
51
214.9510
0
ARC
8
PARAMETRIX
10
-23.2828
20
-45.2860
40
3.5865
50
274.6490
51
317.1901
0
ARC
8
PARAMETRIX
10
-17.8270
20
-50.2020
40
3.7581
50
98.8663
51
138.7322
0
ARC
8
PARAMETRIX
10
-21.3703
20
-48.7991
40
3.7581
50
358.0678
51
37.9337
0
ARC
8
PARAMETRIX
10
-14.0280
20
-48.9502
40
3.5865
50
179.6099
51
222.1510
0
ARC
8
PARAMETRIX
10
-17.4233
20
-47.8470
40
3.5865
50
281.8490
51
324.3901
0
ARC
8
PARAMETRIX
10
-11.3945
20
-52.0404
40
3.7581
50
106.0663
51
145.9322
0
ARC
8
PARAMETRIX
10
-15.0856
20
-51.0927
40
3.7581
50
5.2678
51
45.1337
0
ARC
8
PARAMETRIX
10
-7.7823
20
-50.3224
40
3.5865
50
186.8099
51
229.3510
0
ARC
8
PARAMETRIX
10
-11.2891
20
-49.6534
40
3.5865
50
289.0490
51
331.5901
0
ARC
8
PARAMETRIX
10
-4.7822
20
-53.0582
40
3.7581
50
113.2663
51
153.1322
0
ARC
8
PARAMETRIX
10
-8.5631
20
-52.5806
40
3.7581
50
12.4678
51
52.3337
0
ARC
8
PARAMETRIX
10
-1.4138
20
-50.9010
40
3.5865
50
194.0099
51
236.5510
0
ARC
8
PARAMETRIX
10
-4.9769
20
-50.6768
40
3.5865
50
296.2490
51
338.7901
0
ARC
8
PARAMETRIX
10
1.9055
20
-53.2392
40
3.7581
50
120.4663
51
160.3322
0
ARC
8
PARAMETRIX
10
-1.9055
20
-53.2392
40
3.7581
50
19.6678
51
59.5337
0
ARC
8
PARAMETRIX
10
4.9769
20
-50.6768
40
3.5865
50
201.2099
51
243.7510
0
ARC
8
PARAMETRIX
10
1.4138
20
-50.9010
40
3.5865
50
303.4490
51
345.9901
0
ARC
8
PARAMETRIX
10
8.5631
20
-52.5806
40
3.7581
50
127.6663
51
167.5322
0
ARC
8
PARAMETRIX
10
4.7822
20
-53.0582
40
3.7581
50
26.8678
51
66.7337
0
ARC
8
PARAMETRIX
10
11.2891
20
-49.6534
40
3.5865
50
208.4099
51
250.9510
0
ARC
8
PARAMETRIX
10
7.7823
20
-50.3224
40
3.5865
50
310.6490
51
353.1901
0
ARC
8
PARAMETRIX
10
15.0856
20
-51.0927
40
3.7581
50
134.8663
51
174.7322
0
ARC
8
PARAMETRIX
10
11.3945
20
-52.0404
40
3.7581
50
34.0678
51
73.9337
0
ARC
8
PARAMETRIX
10
17.4233
20
-47.8470
40
3.5865
50
215.6099
51
258.1510
0
ARC
8
PARAMETRIX
10
14.0280
20
-48.9502
40
3.5865
50
317.8490
51
0.3901
0
ARC
8
PARAMETRIX
10
21.3703
20
-48.7991
40
3.7581
50
142.0663
51
181.9322
0
ARC
8
PARAMETRIX
10
17.8270
20
-50.2020
40
3.7581
50
41.2678
51
81.1337
0
ARC
8
PARAMETRIX
10
23.2828
20
-45.2860
40
3.5865
50
222.8099
51
265.3510
0
ARC
8
PARAMETRIX
10
20.0525
20
-46.8061
40
3.5865
50
325.0490
51
7.5901
0
ARC
8
PARAMETRIX
10
27.3179
20
-45.7359
40
3.7581
50
149.2663
51
189.1322
0
ARC
8
PARAMETRIX
10
23.9784
20
-47.5718
40
3.7581
50
48.4678
51
88.3337
0
ARC
8
PARAMETRIX
10
28.7750
20
-42.0108
40
3.5865
50
230.0099
51
272.5510
0
ARC
8
PARAMETRIX
10
25.7607
20
-43.9237
40
3.5865
50
332.2490
51
14.7901
0
ARC
8
PARAMETRIX
10
32.8347
20
-41.9514
40
3.7581
50
156.4663
51
196.3322
0
ARC
8
PARAMETRIX
10
29.7517
20
-44.1914
40
3.7581
50
55.6678
51
95.5337
0
ARC
8
PARAMETRIX
10
33.8135
20
-38.0731
40
3.5865
50
237.2099
51
279.7510
0
ARC
8
PARAMETRIX
10
31.0627
20
-40.3487
40
3.5865
50
339.4490
51
21.9901
0
ARC
8
PARAMETRIX
10
37.8337
20
-37.5053
40
3.7581
50
163.6663
51
203.5322
0
ARC
8
PARAMETRIX
10
35.0557
20
-40.1141
40
3.7581
50
62.8678
51
102.7337
0
ARC
8
PARAMETRIX
10
38.3187
20
-33.5349
40
3.5865
50
244.4099
51
286.9510
0
ARC
8
PARAMETRIX
10
35.8748
20
-36.1374
40
3.5865
50
346.6490
51
29.1901
0
ARC
8
PARAMETRIX
10
42.2361
20
-32.4677
40
3.7581
50
170.8663
51
210.7322
0
ARC
8
PARAMETRIX
10
39.8069
20
-35.4041
40
3.7581
50
70.0678
51
109.9337
0
ARC
8
PARAMETRIX
10
42.2195
20
-28.4679
40
3.5865
50
251.6099
51
294.1510
0
ARC
8
PARAMETRIX
10
40.1211
20
-31.3561
40
3.5865
50
353.8490
51
36.3901
0
ARC
8
PARAMETRIX
10
45.9723
20
-26.9181
40
3.7581
50
178.0663
51
217.9322
0
ARC
8
PARAMETRIX
10
43.9303
20
-30.1358
40
3.7581
50
77.2678
51
117.1337
0
ARC
8
PARAMETRIX
10
45.4546
20
-22.9519
40
3.5865
50
258.8099
51
301.3510
0
ARC
8
PARAMETRIX
10
43.7347
20
-26.0804
40
3.5865
50
1.0490
51
43.5901
0
ARC
8
PARAMETRIX
10
48.9835
20
-20.9440
40
3.7581
50
185.2663
51
225.1322
0
ARC
8
PARAMETRIX
10
47.3609
20
-24.3922
40
3.7581
50
84.4678
51
124.3337
0
ARC
8
PARAMETRIX
10
47.9728
20
-17.0739
40
3.5865
50
266.0099
51
308.5510
0
ARC
8
PARAMETRIX
10
46.6586
20
-20.3933
40
3.5865
50
8.2490
51
50.7901
0
ARC
8
PARAMETRIX
10
51.2223
20
-14.6396
40
3.7581
50
192.4663
51
232.3322
0
ARC
8
PARAMETRIX
10
50.0446
20
-18.2640
40
3.7581
50
91.6678
51
131.5337
0
ARC
8
PARAMETRIX
10
49.7345
20
-10.9267
40
3.5865
50
273.2099
51
315.7510
0
ARC
8
PARAMETRIX
10
48.8466
20
-14.3846
40
3.5865
50
15.4490
51
57.9901
0
ARC
8
PARAMETRIX
10
52.6532
20
-8.1043
40
3.7581
50
199.6663
51
239.5322
0
ARC
8
PARAMETRIX
10
51.9391
20
-11.8477
40
3.7581
50
98.8678
51
138.7337
0
ARC
8
PARAMETRIX
10
50.7118
20
-4.6072
40
3.5865
50
280.4099
51
322.9510
0
ARC
8
PARAMETRIX
10
50.2643
20
-8.1491
40
3.5865
50
22.6490
51
65.1901
0
ARC
8
PARAMETRIX
10
53.2538
20
-1.4412
40
3.7581
50
206.8663
51
246.7322
0
ARC
8
PARAMETRIX
10
53.0145
20
-5.2446
40
3.7581
50
106.0678
51
145.9337
0
ARC
8
PARAMETRIX
10
50.8893
20
1.7850
40
3.5865
50
287.6099
51
330.1510
0
CIRCLE
8
PARAMETRIX
10
0.0000
20
0.0000
40
10.0000
0
ENDSEC
0
EOF
