0
SECTION
2
ENTITIES
0
LINE
8
PARAMETRIX
10
0.0000
20
10.0000
11
0.0000
21
11.0000
0
LINE
8
PARAMETRIX
10
0.0000
20
11.0000
11
1.0000
21
11.0000
0
LINE
8
PARAMETRIX
10
1.0000
20
11.0000
11
1.0000
21
51.0000
0
LINE
8
PARAMETRIX
10
1.0000
20
51.0000
11
21.0000
21
51.0000
0
LINE
8
PARAMETRIX
10
21.0000
20
51.0000
11
21.0000
21
18.0000
0
LINE
8
PARAMETRIX
10
21.0000
20
18.0000
11
23.0000
21
18.0000
0
LINE
8
PARAMETRIX
10
23.0000
20
18.0000
11
23.0000
21
16.0000
0
LINE
8
PARAMETRIX
10
23.0000
20
16.0000
11
25.0000
21
16.0000
0
LINE
8
PARAMETRIX
10
25.0000
20
16.0000
11
25.0000
21
18.0000
0
LINE
8
PARAMETRIX
10
25.0000
20
18.0000
11
27.0000
21
18.0000
0
LINE
8
PARAMETRIX
10
27.0000
20
18.0000
11
27.0000
21
11.0000
0
LINE
8
PARAMETRIX
10
27.0000
20
11.0000
11
28.0000
21
11.0000
0
LINE
8
PARAMETRIX
10
28.0000
20
11.0000
11
28.0000
21
10.0000
0
LINE
8
PARAMETRIX
10
28.0000
20
10.0000
11
0.0000
21
10.0000
0
LINE
8
PARAMETRIX
10
0.0000
20
-10.0000
11
0.0000
21
-11.0000
0
LINE
8
PARAMETRIX
10
0.0000
20
-11.0000
11
1.0000
21
-11.0000
0
LINE
8
PARAMETRIX
10
1.0000
20
-11.0000
11
1.0000
21
-51.0000
0
LINE
8
PARAMETRIX
10
1.0000
20
-51.0000
11
21.0000
21
-51.0000
0
LINE
8
PARAMETRIX
10
21.0000
20
-51.0000
11
21.0000
21
-18.0000
0
LINE
8
PARAMETRIX
10
21.0000
20
-18.0000
11
23.0000
21
-18.0000
0
LINE
8
PARAMETRIX
10
23.0000
20
-18.0000
11
23.0000
21
-16.0000
0
LINE
8
PARAMETRIX
10
23.0000
20
-16.0000
11
25.0000
21
-16.0000
0
LINE
8
PARAMETRIX
10
25.0000
20
-16.0000
11
25.0000
21
-18.0000
0
LINE
8
PARAMETRIX
10
25.0000
20
-18.0000
11
27.0000
21
-18.0000
0
LINE
8
PARAMETRIX
10
27.0000
20
-18.0000
11
27.0000
21
-11.0000
0
LINE
8
PARAMETRIX
10
27.0000
20
-11.0000
11
28.0000
21
-11.0000
0
LINE
8
PARAMETRIX
10
28.0000
20
-11.0000
11
28.0000
21
-10.0000
0
LINE
8
PARAMETRIX
10
28.0000
20
-10.0000
11
0.0000
21
-10.0000
0
ENDSEC
0
EOF
