0
SECTION
2
ENTITIES
0
ARC
8
PARAMETRIX
10
52.3287
20
-0.0000
40
1.6713
50
0.0000
51
102.2391
0
ARC
8
PARAMETRIX
10
51.5609
20
3.2439
40
1.6628
50
183.6000
51
284.3985
0
ARC
8
PARAMETRIX
10
51.5609
20
3.2439
40
1.6628
50
82.8015
51
183.6000
0
ARC
8
PARAMETRIX
10
51.9160
20
6.5585
40
1.6713
50
264.9609
51
7.2000
0
ARC
8
PARAMETRIX
10
51.9160
20
6.5585
40
1.6713
50
7.2000
51
109.4391
0
ARC
8
PARAMETRIX
10
50.7477
20
9.6806
40
1.6628
50
190.8000
51
291.5985
0
ARC
8
PARAMETRIX
10
50.7477
20
9.6806
40
1.6628
50
90.0015
51
190.8000
0
ARC
8
PARAMETRIX
10
50.6847
20
13.0136
40
1.6713
50
272.1609
51
14.4000
0
ARC
8
PARAMETRIX
10
50.6847
20
13.0136
40
1.6713
50
14.4000
51
116.6391
0
ARC
8
PARAMETRIX
10
49.1342
20
15.9647
40
1.6628
50
198.0000
51
298.7985
0
ARC
8
PARAMETRIX
10
49.1342
20
15.9647
40
1.6628
50
97.2015
51
198.0000
0
ARC
8
PARAMETRIX
10
48.6540
20
19.2635
40
1.6713
50
279.3609
51
21.6000
0
ARC
8
PARAMETRIX
10
48.6540
20
19.2635
40
1.6713
50
21.6000
51
123.8391
0
ARC
8
PARAMETRIX
10
46.7459
20
21.9970
40
1.6628
50
205.2000
51
305.9985
0
ARC
8
PARAMETRIX
10
46.7459
20
21.9970
40
1.6628
50
104.4015
51
205.2000
0
ARC
8
PARAMETRIX
10
45.8559
20
25.2095
40
1.6713
50
286.5609
51
28.8000
0
ARC
8
PARAMETRIX
10
45.8559
20
25.2095
40
1.6713
50
28.8000
51
131.0391
0
ARC
8
PARAMETRIX
10
43.6203
20
27.6823
40
1.6628
50
212.4000
51
313.1985
0
ARC
8
PARAMETRIX
10
43.6203
20
27.6823
40
1.6628
50
111.6015
51
212.4000
0
ARC
8
PARAMETRIX
10
42.3348
20
30.7580
40
1.6713
50
293.7609
51
36.0000
0
ARC
8
PARAMETRIX
10
42.3348
20
30.7580
40
1.6713
50
36.0000
51
138.2391
0
ARC
8
PARAMETRIX
10
39.8069
20
32.9311
40
1.6628
50
219.6000
51
320.3985
0
ARC
8
PARAMETRIX
10
39.8069
20
32.9311
40
1.6628
50
118.8015
51
219.6000
0
ARC
8
PARAMETRIX
10
38.1459
20
35.8214
40
1.6713
50
300.9609
51
43.2000
0
ARC
8
PARAMETRIX
10
38.1459
20
35.8214
40
1.6713
50
43.2000
51
145.4391
0
ARC
8
PARAMETRIX
10
35.3656
20
37.6606
40
1.6628
50
226.8000
51
327.5985
0
ARC
8
PARAMETRIX
10
35.3656
20
37.6606
40
1.6628
50
126.0015
51
226.8000
0
ARC
8
PARAMETRIX
10
33.3555
20
40.3199
40
1.6713
50
308.1609
51
50.4000
0
ARC
8
PARAMETRIX
10
33.3555
20
40.3199
40
1.6713
50
50.4000
51
152.6391
0
ARC
8
PARAMETRIX
10
30.3666
20
41.7961
40
1.6628
50
234.0000
51
334.7985
0
ARC
8
PARAMETRIX
10
30.3666
20
41.7961
40
1.6628
50
133.2015
51
234.0000
0
ARC
8
PARAMETRIX
10
28.0391
20
44.1825
40
1.6713
50
315.3609
51
57.6000
0
ARC
8
PARAMETRIX
10
28.0391
20
44.1825
40
1.6713
50
57.6000
51
159.8391
0
ARC
8
PARAMETRIX
10
24.8887
20
45.2725
40
1.6628
50
241.2000
51
341.9985
0
ARC
8
PARAMETRIX
10
24.8887
20
45.2725
40
1.6628
50
140.4015
51
241.2000
0
ARC
8
PARAMETRIX
10
22.2805
20
47.3484
40
1.6713
50
322.5609
51
64.8000
0
ARC
8
PARAMETRIX
10
22.2805
20
47.3484
40
1.6713
50
64.8000
51
167.0391
0
ARC
8
PARAMETRIX
10
19.0183
20
48.0349
40
1.6628
50
248.4000
51
349.1985
0
ARC
8
PARAMETRIX
10
19.0183
20
48.0349
40
1.6628
50
147.6015
51
248.4000
0
ARC
8
PARAMETRIX
10
16.1704
20
49.7675
40
1.6713
50
329.7609
51
72.0000
0
ARC
8
PARAMETRIX
10
16.1704
20
49.7675
40
1.6713
50
72.0000
51
174.2391
0
ARC
8
PARAMETRIX
10
12.8480
20
50.0397
40
1.6628
50
255.6000
51
356.3985
0
ARC
8
PARAMETRIX
10
12.8480
20
50.0397
40
1.6628
50
154.8015
51
255.6000
0
ARC
8
PARAMETRIX
10
9.8054
20
51.4018
40
1.6713
50
336.9609
51
79.2000
0
ARC
8
PARAMETRIX
10
9.8054
20
51.4018
40
1.6713
50
79.2000
51
181.4391
0
ARC
8
PARAMETRIX
10
6.4751
20
51.2554
40
1.6628
50
262.8000
51
3.5985
0
ARC
8
PARAMETRIX
10
6.4751
20
51.2554
40
1.6628
50
162.0015
51
262.8000
0
ARC
8
PARAMETRIX
10
3.2857
20
52.2254
40
1.6713
50
344.1609
51
86.4000
0
ARC
8
PARAMETRIX
10
3.2857
20
52.2254
40
1.6713
50
86.4000
51
188.6391
0
ARC
8
PARAMETRIX
10
-0.0000
20
51.6628
40
1.6628
50
270.0000
51
10.7985
0
ARC
8
PARAMETRIX
10
-0.0000
20
51.6628
40
1.6628
50
169.2015
51
270.0000
0
ARC
8
PARAMETRIX
10
-3.2857
20
52.2254
40
1.6713
50
351.3609
51
93.6000
0
ARC
8
PARAMETRIX
10
-3.2857
20
52.2254
40
1.6713
50
93.6000
51
195.8391
0
ARC
8
PARAMETRIX
10
-6.4751
20
51.2554
40
1.6628
50
277.2000
51
17.9985
0
ARC
8
PARAMETRIX
10
-6.4751
20
51.2554
40
1.6628
50
176.4015
51
277.2000
0
ARC
8
PARAMETRIX
10
-9.8054
20
51.4018
40
1.6713
50
358.5609
51
100.8000
0
ARC
8
PARAMETRIX
10
-9.8054
20
51.4018
40
1.6713
50
100.8000
51
203.0391
0
ARC
8
PARAMETRIX
10
-12.8480
20
50.0397
40
1.6628
50
284.4000
51
25.1985
0
ARC
8
PARAMETRIX
10
-12.8480
20
50.0397
40
1.6628
50
183.6015
51
284.4000
0
ARC
8
PARAMETRIX
10
-16.1704
20
49.7675
40
1.6713
50
5.7609
51
108.0000
0
ARC
8
PARAMETRIX
10
-16.1704
20
49.7675
40
1.6713
50
108.0000
51
210.2391
0
ARC
8
PARAMETRIX
10
-19.0183
20
48.0349
40
1.6628
50
291.6000
51
32.3985
0
ARC
8
PARAMETRIX
10
-19.0183
20
48.0349
40
1.6628
50
190.8015
51
291.6000
0
ARC
8
PARAMETRIX
10
-22.2805
20
47.3484
40
1.6713
50
12.9609
51
115.2000
0
ARC
8
PARAMETRIX
10
-22.2805
20
47.3484
40
1.6713
50
115.2000
51
217.4391
0
ARC
8
PARAMETRIX
10
-24.8887
20
45.2725
40
1.6628
50
298.8000
51
39.5985
0
ARC
8
PARAMETRIX
10
-24.8887
20
45.2725
40
1.6628
50
198.0015
51
298.8000
0
ARC
8
PARAMETRIX
10
-28.0391
20
44.1825
40
1.6713
50
20.1609
51
122.4000
0
ARC
8
PARAMETRIX
10
-28.0391
20
44.1825
40
1.6713
50
122.4000
51
224.6391
0
ARC
8
PARAMETRIX
10
-30.3666
20
41.7961
40
1.6628
50
306.0000
51
46.7985
0
ARC
8
PARAMETRIX
10
-30.3666
20
41.7961
40
1.6628
50
205.2015
51
306.0000
0
ARC
8
PARAMETRIX
10
-33.3555
20
40.3199
40
1.6713
50
27.3609
51
129.6000
0
ARC
8
PARAMETRIX
10
-33.3555
20
40.3199
40
1.6713
50
129.6000
51
231.8391
0
ARC
8
PARAMETRIX
10
-35.3656
20
37.6606
40
1.6628
50
313.2000
51
53.9985
0
ARC
8
PARAMETRIX
10
-35.3656
20
37.6606
40
1.6628
50
212.4015
51
313.2000
0
ARC
8
PARAMETRIX
10
-38.1459
20
35.8214
40
1.6713
50
34.5609
51
136.8000
0
ARC
8
PARAMETRIX
10
-38.1459
20
35.8214
40
1.6713
50
136.8000
51
239.0391
0
ARC
8
PARAMETRIX
10
-39.8069
20
32.9311
40
1.6628
50
320.4000
51
61.1985
0
ARC
8
PARAMETRIX
10
-39.8069
20
32.9311
40
1.6628
50
219.6015
51
320.4000
0
ARC
8
PARAMETRIX
10
-42.3348
20
30.7580
40
1.6713
50
41.7609
51
144.0000
0
ARC
8
PARAMETRIX
10
-42.3348
20
30.7580
40
1.6713
50
144.0000
51
246.2391
0
ARC
8
PARAMETRIX
10
-43.6203
20
27.6823
40
1.6628
50
327.6000
51
68.3985
0
ARC
8
PARAMETRIX
10
-43.6203
20
27.6823
40
1.6628
50
226.8015
51
327.6000
0
ARC
8
PARAMETRIX
10
-45.8559
20
25.2095
40
1.6713
50
48.9609
51
151.2000
0
ARC
8
PARAMETRIX
10
-45.8559
20
25.2095
40
1.6713
50
151.2000
51
253.4391
0
ARC
8
PARAMETRIX
10
-46.7459
20
21.9970
40
1.6628
50
334.8000
51
75.5985
0
ARC
8
PARAMETRIX
10
-46.7459
20
21.9970
40
1.6628
50
234.0015
51
334.8000
0
ARC
8
PARAMETRIX
10
-48.6540
20
19.2635
40
1.6713
50
56.1609
51
158.4000
0
ARC
8
PARAMETRIX
10
-48.6540
20
19.2635
40
1.6713
50
158.4000
51
260.6391
0
ARC
8
PARAMETRIX
10
-49.1342
20
15.9647
40
1.6628
50
342.0000
51
82.7985
0
ARC
8
PARAMETRIX
10
-49.1342
20
15.9647
40
1.6628
50
241.2015
51
342.0000
0
ARC
8
PARAMETRIX
10
-50.6847
20
13.0136
40
1.6713
50
63.3609
51
165.6000
0
ARC
8
PARAMETRIX
10
-50.6847
20
13.0136
40
1.6713
50
165.6000
51
267.8391
0
ARC
8
PARAMETRIX
10
-50.7477
20
9.6806
40
1.6628
50
349.2000
51
89.9985
0
ARC
8
PARAMETRIX
10
-50.7477
20
9.6806
40
1.6628
50
248.4015
51
349.2000
0
ARC
8
PARAMETRIX
10
-51.9160
20
6.5585
40
1.6713
50
70.5609
51
172.8000
0
ARC
8
PARAMETRIX
10
-51.9160
20
6.5585
40
1.6713
50
172.8000
51
275.0391
0
ARC
8
PARAMETRIX
10
-51.5609
20
3.2439
40
1.6628
50
356.4000
51
97.1985
0
ARC
8
PARAMETRIX
10
-51.5609
20
3.2439
40
1.6628
50
255.6015
51
356.4000
0
ARC
8
PARAMETRIX
10
-52.3287
20
-0.0000
40
1.6713
50
77.7609
51
180.0000
0
ARC
8
PARAMETRIX
10
-52.3287
20
-0.0000
40
1.6713
50
180.0000
51
282.2391
0
ARC
8
PARAMETRIX
10
-51.5609
20
-3.2439
40
1.6628
50
3.6000
51
104.3985
0
ARC
8
PARAMETRIX
10
-51.5609
20
-3.2439
40
1.6628
50
262.8015
51
3.6000
0
ARC
8
PARAMETRIX
10
-51.9160
20
-6.5585
40
1.6713
50
84.9609
51
187.2000
0
ARC
8
PARAMETRIX
10
-51.9160
20
-6.5585
40
1.6713
50
187.2000
51
289.4391
0
ARC
8
PARAMETRIX
10
-50.7477
20
-9.6806
40
1.6628
50
10.8000
51
111.5985
0
ARC
8
PARAMETRIX
10
-50.7477
20
-9.6806
40
1.6628
50
270.0015
51
10.8000
0
ARC
8
PARAMETRIX
10
-50.6847
20
-13.0136
40
1.6713
50
92.1609
51
194.4000
0
ARC
8
PARAMETRIX
10
-50.6847
20
-13.0136
40
1.6713
50
194.4000
51
296.6391
0
ARC
8
PARAMETRIX
10
-49.1342
20
-15.9647
40
1.6628
50
18.0000
51
118.7985
0
ARC
8
PARAMETRIX
10
-49.1342
20
-15.9647
40
1.6628
50
277.2015
51
18.0000
0
ARC
8
PARAMETRIX
10
-48.6540
20
-19.2635
40
1.6713
50
99.3609
51
201.6000
0
ARC
8
PARAMETRIX
10
-48.6540
20
-19.2635
40
1.6713
50
201.6000
51
303.8391
0
ARC
8
PARAMETRIX
10
-46.7459
20
-21.9970
40
1.6628
50
25.2000
51
125.9985
0
ARC
8
PARAMETRIX
10
-46.7459
20
-21.9970
40
1.6628
50
284.4015
51
25.2000
0
ARC
8
PARAMETRIX
10
-45.8559
20
-25.2095
40
1.6713
50
106.5609
51
208.8000
0
ARC
8
PARAMETRIX
10
-45.8559
20
-25.2095
40
1.6713
50
208.8000
51
311.0391
0
ARC
8
PARAMETRIX
10
-43.6203
20
-27.6823
40
1.6628
50
32.4000
51
133.1985
0
ARC
8
PARAMETRIX
10
-43.6203
20
-27.6823
40
1.6628
50
291.6015
51
32.4000
0
ARC
8
PARAMETRIX
10
-42.3348
20
-30.7580
40
1.6713
50
113.7609
51
216.0000
0
ARC
8
PARAMETRIX
10
-42.3348
20
-30.7580
40
1.6713
50
216.0000
51
318.2391
0
ARC
8
PARAMETRIX
10
-39.8069
20
-32.9311
40
1.6628
50
39.6000
51
140.3985
0
ARC
8
PARAMETRIX
10
-39.8069
20
-32.9311
40
1.6628
50
298.8015
51
39.6000
0
ARC
8
PARAMETRIX
10
-38.1459
20
-35.8214
40
1.6713
50
120.9609
51
223.2000
0
ARC
8
PARAMETRIX
10
-38.1459
20
-35.8214
40
1.6713
50
223.2000
51
325.4391
0
ARC
8
PARAMETRIX
10
-35.3656
20
-37.6606
40
1.6628
50
46.8000
51
147.5985
0
ARC
8
PARAMETRIX
10
-35.3656
20
-37.6606
40
1.6628
50
306.0015
51
46.8000
0
ARC
8
PARAMETRIX
10
-33.3555
20
-40.3199
40
1.6713
50
128.1609
51
230.4000
0
ARC
8
PARAMETRIX
10
-33.3555
20
-40.3199
40
1.6713
50
230.4000
51
332.6391
0
ARC
8
PARAMETRIX
10
-30.3666
20
-41.7961
40
1.6628
50
54.0000
51
154.7985
0
ARC
8
PARAMETRIX
10
-30.3666
20
-41.7961
40
1.6628
50
313.2015
51
54.0000
0
ARC
8
PARAMETRIX
10
-28.0391
20
-44.1825
40
1.6713
50
135.3609
51
237.6000
0
ARC
8
PARAMETRIX
10
-28.0391
20
-44.1825
40
1.6713
50
237.6000
51
339.8391
0
ARC
8
PARAMETRIX
10
-24.8887
20
-45.2725
40
1.6628
50
61.2000
51
161.9985
0
ARC
8
PARAMETRIX
10
-24.8887
20
-45.2725
40
1.6628
50
320.4015
51
61.2000
0
ARC
8
PARAMETRIX
10
-22.2805
20
-47.3484
40
1.6713
50
142.5609
51
244.8000
0
ARC
8
PARAMETRIX
10
-22.2805
20
-47.3484
40
1.6713
50
244.8000
51
347.0391
0
ARC
8
PARAMETRIX
10
-19.0183
20
-48.0349
40
1.6628
50
68.4000
51
169.1985
0
ARC
8
PARAMETRIX
10
-19.0183
20
-48.0349
40
1.6628
50
327.6015
51
68.4000
0
ARC
8
PARAMETRIX
10
-16.1704
20
-49.7675
40
1.6713
50
149.7609
51
252.0000
0
ARC
8
PARAMETRIX
10
-16.1704
20
-49.7675
40
1.6713
50
252.0000
51
354.2391
0
ARC
8
PARAMETRIX
10
-12.8480
20
-50.0397
40
1.6628
50
75.6000
51
176.3985
0
ARC
8
PARAMETRIX
10
-12.8480
20
-50.0397
40
1.6628
50
334.8015
51
75.6000
0
ARC
8
PARAMETRIX
10
-9.8054
20
-51.4018
40
1.6713
50
156.9609
51
259.2000
0
ARC
8
PARAMETRIX
10
-9.8054
20
-51.4018
40
1.6713
50
259.2000
51
1.4391
0
ARC
8
PARAMETRIX
10
-6.4751
20
-51.2554
40
1.6628
50
82.8000
51
183.5985
0
ARC
8
PARAMETRIX
10
-6.4751
20
-51.2554
40
1.6628
50
342.0015
51
82.8000
0
ARC
8
PARAMETRIX
10
-3.2857
20
-52.2254
40
1.6713
50
164.1609
51
266.4000
0
ARC
8
PARAMETRIX
10
-3.2857
20
-52.2254
40
1.6713
50
266.4000
51
8.6391
0
ARC
8
PARAMETRIX
10
-0.0000
20
-51.6628
40
1.6628
50
90.0000
51
190.7985
0
ARC
8
PARAMETRIX
10
-0.0000
20
-51.6628
40
1.6628
50
349.2015
51
90.0000
0
ARC
8
PARAMETRIX
10
3.2857
20
-52.2254
40
1.6713
50
171.3609
51
273.6000
0
ARC
8
PARAMETRIX
10
3.2857
20
-52.2254
40
1.6713
50
273.6000
51
15.8391
0
ARC
8
PARAMETRIX
10
6.4751
20
-51.2554
40
1.6628
50
97.2000
51
197.9985
0
ARC
8
PARAMETRIX
10
6.4751
20
-51.2554
40
1.6628
50
356.4015
51
97.2000
0
ARC
8
PARAMETRIX
10
9.8054
20
-51.4018
40
1.6713
50
178.5609
51
280.8000
0
ARC
8
PARAMETRIX
10
9.8054
20
-51.4018
40
1.6713
50
280.8000
51
23.0391
0
ARC
8
PARAMETRIX
10
12.8480
20
-50.0397
40
1.6628
50
104.4000
51
205.1985
0
ARC
8
PARAMETRIX
10
12.8480
20
-50.0397
40
1.6628
50
3.6015
51
104.4000
0
ARC
8
PARAMETRIX
10
16.1704
20
-49.7675
40
1.6713
50
185.7609
51
288.0000
0
ARC
8
PARAMETRIX
10
16.1704
20
-49.7675
40
1.6713
50
288.0000
51
30.2391
0
ARC
8
PARAMETRIX
10
19.0183
20
-48.0349
40
1.6628
50
111.6000
51
212.3985
0
ARC
8
PARAMETRIX
10
19.0183
20
-48.0349
40
1.6628
50
10.8015
51
111.6000
0
ARC
8
PARAMETRIX
10
22.2805
20
-47.3484
40
1.6713
50
192.9609
51
295.2000
0
ARC
8
PARAMETRIX
10
22.2805
20
-47.3484
40
1.6713
50
295.2000
51
37.4391
0
ARC
8
PARAMETRIX
10
24.8887
20
-45.2725
40
1.6628
50
118.8000
51
219.5985
0
ARC
8
PARAMETRIX
10
24.8887
20
-45.2725
40
1.6628
50
18.0015
51
118.8000
0
ARC
8
PARAMETRIX
10
28.0391
20
-44.1825
40
1.6713
50
200.1609
51
302.4000
0
ARC
8
PARAMETRIX
10
28.0391
20
-44.1825
40
1.6713
50
302.4000
51
44.6391
0
ARC
8
PARAMETRIX
10
30.3666
20
-41.7961
40
1.6628
50
126.0000
51
226.7985
0
ARC
8
PARAMETRIX
10
30.3666
20
-41.7961
40
1.6628
50
25.2015
51
126.0000
0
ARC
8
PARAMETRIX
10
33.3555
20
-40.3199
40
1.6713
50
207.3609
51
309.6000
0
ARC
8
PARAMETRIX
10
33.3555
20
-40.3199
40
1.6713
50
309.6000
51
51.8391
0
ARC
8
PARAMETRIX
10
35.3656
20
-37.6606
40
1.6628
50
133.2000
51
233.9985
0
ARC
8
PARAMETRIX
10
35.3656
20
-37.6606
40
1.6628
50
32.4015
51
133.2000
0
ARC
8
PARAMETRIX
10
38.1459
20
-35.8214
40
1.6713
50
214.5609
51
316.8000
0
ARC
8
PARAMETRIX
10
38.1459
20
-35.8214
40
1.6713
50
316.8000
51
59.0391
0
ARC
8
PARAMETRIX
10
39.8069
20
-32.9311
40
1.6628
50
140.4000
51
241.1985
0
ARC
8
PARAMETRIX
10
39.8069
20
-32.9311
40
1.6628
50
39.6015
51
140.4000
0
ARC
8
PARAMETRIX
10
42.3348
20
-30.7580
40
1.6713
50
221.7609
51
324.0000
0
ARC
8
PARAMETRIX
10
42.3348
20
-30.7580
40
1.6713
50
324.0000
51
66.2391
0
ARC
8
PARAMETRIX
10
43.6203
20
-27.6823
40
1.6628
50
147.6000
51
248.3985
0
ARC
8
PARAMETRIX
10
43.6203
20
-27.6823
40
1.6628
50
46.8015
51
147.6000
0
ARC
8
PARAMETRIX
10
45.8559
20
-25.2095
40
1.6713
50
228.9609
51
331.2000
0
ARC
8
PARAMETRIX
10
45.8559
20
-25.2095
40
1.6713
50
331.2000
51
73.4391
0
ARC
8
PARAMETRIX
10
46.7459
20
-21.9970
40
1.6628
50
154.8000
51
255.5985
0
ARC
8
PARAMETRIX
10
46.7459
20
-21.9970
40
1.6628
50
54.0015
51
154.8000
0
ARC
8
PARAMETRIX
10
48.6540
20
-19.2635
40
1.6713
50
236.1609
51
338.4000
0
ARC
8
PARAMETRIX
10
48.6540
20
-19.2635
40
1.6713
50
338.4000
51
80.6391
0
ARC
8
PARAMETRIX
10
49.1342
20
-15.9647
40
1.6628
50
162.0000
51
262.7985
0
ARC
8
PARAMETRIX
10
49.1342
20
-15.9647
40
1.6628
50
61.2015
51
162.0000
0
ARC
8
PARAMETRIX
10
50.6847
20
-13.0136
40
1.6713
50
243.3609
51
345.6000
0
ARC
8
PARAMETRIX
10
50.6847
20
-13.0136
40
1.6713
50
345.6000
51
87.8391
0
ARC
8
PARAMETRIX
10
50.7477
20
-9.6806
40
1.6628
50
169.2000
51
269.9985
0
ARC
8
PARAMETRIX
10
50.7477
20
-9.6806
40
1.6628
50
68.4015
51
169.2000
0
ARC
8
PARAMETRIX
10
51.9160
20
-6.5585
40
1.6713
50
250.5609
51
352.8000
0
ARC
8
PARAMETRIX
10
51.9160
20
-6.5585
40
1.6713
50
352.8000
51
95.0391
0
ARC
8
PARAMETRIX
10
51.5609
20
-3.2439
40
1.6628
50
176.4000
51
277.1985
0
ARC
8
PARAMETRIX
10
51.5609
20
-3.2439
40
1.6628
50
75.6015
51
176.4000
0
ARC
8
PARAMETRIX
10
52.3287
20
-0.0000
40
1.6713
50
257.7609
51
360.0000
0
CIRCLE
8
PARAMETRIX
10
0.0000
20
0.0000
40
10.0000
0
ENDSEC
0
EOF
