<svg width="109" height="109" viewBox="-5 -5 109 109" xmlns="http://www.w3.org/2000/svg"><path d="M 0.0000 80.0000 L 47.0000 80.0000 L 47.0000 90.0000 L 50.0000 90.0000 L 50.0000 70.0000 L 10.0000 70.0000 L 10.0000 20.0000 L 50.0000 20.0000 L 50.0000 0.0000 L 47.0000 0.0000 L 47.0000 10.0000 L 0.0000 10.0000 L 0.0000 80.0000 Z" stroke="green" stroke-width="1" fill="none" /><path d="M 70.0000 90.0000 L 73.0000 90.0000 L 73.0000 80.0000 L 87.0000 80.0000 L 87.0000 90.0000 L 90.0000 90.0000 L 90.0000 70.0000 L 70.0000 70.0000 L 70.0000 90.0000 Z" stroke="green" stroke-width="1" fill="none" /><path d="M 70.0000 20.0000 L 90.0000 20.0000 L 90.0000 0.0000 L 87.0000 0.0000 L 87.0000 10.0000 L 73.0000 10.0000 L 73.0000 0.0000 L 70.0000 0.0000 L 70.0000 20.0000 Z" stroke="green" stroke-width="1" fill="none" /></svg>