solid OpenSCAD_Model
  facet normal 0 0 -1
    outer loop
      vertex 26.2119 0 0
      vertex 16 3 0
      vertex 26.2119 6 0
    endloop
  endfacet
  facet normal 0 0 -1
    outer loop
      vertex 26.2119 0 0
      vertex 15.9712 2.7074 0
      vertex 16 3 0
    endloop
  endfacet
  facet normal 0 0 -1
    outer loop
      vertex 26.2119 0 0
      vertex 15.8858 2.42599 0
      vertex 15.9712 2.7074 0
    endloop
  endfacet
  facet normal 0 0 -1
    outer loop
      vertex 26.2119 0 0
      vertex 15.7472 2.1666 0
      vertex 15.8858 2.42599 0
    endloop
  endfacet
  facet normal 0 0 -1
    outer loop
      vertex 26.2119 0 0
      vertex 15.5607 1.93929 0
      vertex 15.7472 2.1666 0
    endloop
  endfacet
  facet normal 0 0 -1
    outer loop
      vertex 26.2119 0 0
      vertex 15.3334 1.75279 0
      vertex 15.5607 1.93929 0
    endloop
  endfacet
  facet normal 0 0 -1
    outer loop
      vertex 13 0 0
      vertex 15.3334 1.75279 0
      vertex 26.2119 0 0
    endloop
  endfacet
  facet normal 0 0 -1
    outer loop
      vertex 15.3334 1.75279 0
      vertex 13 0 0
      vertex 15.074 1.6142 0
    endloop
  endfacet
  facet normal 0 0 -1
    outer loop
      vertex 15.074 1.6142 0
      vertex 13 0 0
      vertex 14.7926 1.52879 0
    endloop
  endfacet
  facet normal 0 0 -1
    outer loop
      vertex 14.7926 1.52879 0
      vertex 13 0 0
      vertex 14.5 1.5 0
    endloop
  endfacet
  facet normal -0 0 -1
    outer loop
      vertex 14.5 1.5 0
      vertex 13 0 0
      vertex 14.2074 1.52879 0
    endloop
  endfacet
  facet normal 0 0 -1
    outer loop
      vertex 13 0 0
      vertex 13.926 1.6142 0
      vertex 14.2074 1.52879 0
    endloop
  endfacet
  facet normal 0 0 -1
    outer loop
      vertex 13 0 0
      vertex 13.6666 1.75279 0
      vertex 13.926 1.6142 0
    endloop
  endfacet
  facet normal 0 0 -1
    outer loop
      vertex 13 0 0
      vertex 13.4393 1.93929 0
      vertex 13.6666 1.75279 0
    endloop
  endfacet
  facet normal 0 0 -1
    outer loop
      vertex 13 0 0
      vertex 13.2528 2.1666 0
      vertex 13.4393 1.93929 0
    endloop
  endfacet
  facet normal 0 0 -1
    outer loop
      vertex 13 0 0
      vertex 13.1142 2.42599 0
      vertex 13.2528 2.1666 0
    endloop
  endfacet
  facet normal 0 0 -1
    outer loop
      vertex 13 0 0
      vertex 13.0288 2.7074 0
      vertex 13.1142 2.42599 0
    endloop
  endfacet
  facet normal -0 0 -1
    outer loop
      vertex 13.0288 2.7074 0
      vertex 13 0 0
      vertex 13 3 0
    endloop
  endfacet
  facet normal 0 0 -1
    outer loop
      vertex 15.9712 3.29259 0
      vertex 26.2119 6 0
      vertex 16 3 0
    endloop
  endfacet
  facet normal 0 0 -1
    outer loop
      vertex 15.8858 3.57399 0
      vertex 26.2119 6 0
      vertex 15.9712 3.29259 0
    endloop
  endfacet
  facet normal 0 0 -1
    outer loop
      vertex 15.7472 3.83339 0
      vertex 26.2119 6 0
      vertex 15.8858 3.57399 0
    endloop
  endfacet
  facet normal 0 0 -1
    outer loop
      vertex 15.5607 4.0607 0
      vertex 26.2119 6 0
      vertex 15.7472 3.83339 0
    endloop
  endfacet
  facet normal 0 0 -1
    outer loop
      vertex 15.3334 4.24719 0
      vertex 26.2119 6 0
      vertex 15.5607 4.0607 0
    endloop
  endfacet
  facet normal 0 0 -1
    outer loop
      vertex 13 6 0
      vertex 15.3334 4.24719 0
      vertex 15.074 4.38579 0
    endloop
  endfacet
  facet normal 0 0 -1
    outer loop
      vertex 13 6 0
      vertex 15.074 4.38579 0
      vertex 14.7926 4.47119 0
    endloop
  endfacet
  facet normal 0 0 -1
    outer loop
      vertex 13 6 0
      vertex 14.7926 4.47119 0
      vertex 14.5 4.5 0
    endloop
  endfacet
  facet normal 0 0 -1
    outer loop
      vertex 13 6 0
      vertex 14.5 4.5 0
      vertex 14.2074 4.47119 0
    endloop
  endfacet
  facet normal 0 0 -1
    outer loop
      vertex 15.3334 4.24719 0
      vertex 13 6 0
      vertex 26.2119 6 0
    endloop
  endfacet
  facet normal 0 0 -1
    outer loop
      vertex 13.926 4.38579 0
      vertex 13 6 0
      vertex 14.2074 4.47119 0
    endloop
  endfacet
  facet normal 0 0 -1
    outer loop
      vertex 13.6666 4.24719 0
      vertex 13 6 0
      vertex 13.926 4.38579 0
    endloop
  endfacet
  facet normal 0 0 -1
    outer loop
      vertex 13.4393 4.0607 0
      vertex 13 6 0
      vertex 13.6666 4.24719 0
    endloop
  endfacet
  facet normal 0 0 -1
    outer loop
      vertex 13.2528 3.83339 0
      vertex 13 6 0
      vertex 13.4393 4.0607 0
    endloop
  endfacet
  facet normal 0 0 -1
    outer loop
      vertex 13.1142 3.57399 0
      vertex 13 6 0
      vertex 13.2528 3.83339 0
    endloop
  endfacet
  facet normal 0 0 -1
    outer loop
      vertex 13.0288 3.29259 0
      vertex 13 6 0
      vertex 13.1142 3.57399 0
    endloop
  endfacet
  facet normal 0 0 -1
    outer loop
      vertex 13 6 0
      vertex 13.0288 3.29259 0
      vertex 13 3 0
    endloop
  endfacet
  facet normal 0 0 -1
    outer loop
      vertex 57.6516 0 0
      vertex 57.6519 6 0
      vertex 59.3839 3 0
    endloop
  endfacet
  facet normal 0 0 -1
    outer loop
      vertex 35.8084 0 0
      vertex 57.6519 6 0
      vertex 57.6516 0 0
    endloop
  endfacet
  facet normal -0 0 -1
    outer loop
      vertex 57.6519 6 0
      vertex 35.8084 0 0
      vertex 35.8084 6 0
    endloop
  endfacet
  facet normal 0 0 1
    outer loop
      vertex 26.2119 6 8
      vertex 16 3 8
      vertex 26.2119 0 8
    endloop
  endfacet
  facet normal 0 0 1
    outer loop
      vertex 26.2119 6 8
      vertex 15.9712 3.29259 8
      vertex 16 3 8
    endloop
  endfacet
  facet normal 0 0 1
    outer loop
      vertex 26.2119 6 8
      vertex 15.8858 3.57399 8
      vertex 15.9712 3.29259 8
    endloop
  endfacet
  facet normal 0 0 1
    outer loop
      vertex 26.2119 6 8
      vertex 15.7472 3.83339 8
      vertex 15.8858 3.57399 8
    endloop
  endfacet
  facet normal 0 0 1
    outer loop
      vertex 26.2119 6 8
      vertex 15.5607 4.0607 8
      vertex 15.7472 3.83339 8
    endloop
  endfacet
  facet normal 0 0 1
    outer loop
      vertex 26.2119 6 8
      vertex 15.3334 4.24719 8
      vertex 15.5607 4.0607 8
    endloop
  endfacet
  facet normal -0 0 1
    outer loop
      vertex 13 6 8
      vertex 15.3334 4.24719 8
      vertex 26.2119 6 8
    endloop
  endfacet
  facet normal 0 0 1
    outer loop
      vertex 15.3334 4.24719 8
      vertex 13 6 8
      vertex 15.074 4.38579 8
    endloop
  endfacet
  facet normal 0 0 1
    outer loop
      vertex 15.074 4.38579 8
      vertex 13 6 8
      vertex 14.7926 4.47119 8
    endloop
  endfacet
  facet normal 0 0 1
    outer loop
      vertex 14.7926 4.47119 8
      vertex 13 6 8
      vertex 14.5 4.5 8
    endloop
  endfacet
  facet normal 0 0 1
    outer loop
      vertex 14.5 4.5 8
      vertex 13 6 8
      vertex 14.2074 4.47119 8
    endloop
  endfacet
  facet normal 0 0 1
    outer loop
      vertex 13 6 8
      vertex 13.926 4.38579 8
      vertex 14.2074 4.47119 8
    endloop
  endfacet
  facet normal 0 0 1
    outer loop
      vertex 13 6 8
      vertex 13.6666 4.24719 8
      vertex 13.926 4.38579 8
    endloop
  endfacet
  facet normal 0 0 1
    outer loop
      vertex 13 6 8
      vertex 13.4393 4.0607 8
      vertex 13.6666 4.24719 8
    endloop
  endfacet
  facet normal 0 0 1
    outer loop
      vertex 13 6 8
      vertex 13.2528 3.83339 8
      vertex 13.4393 4.0607 8
    endloop
  endfacet
  facet normal 0 0 1
    outer loop
      vertex 13 6 8
      vertex 13.1142 3.57399 8
      vertex 13.2528 3.83339 8
    endloop
  endfacet
  facet normal 0 0 1
    outer loop
      vertex 13 6 8
      vertex 13.0288 3.29259 8
      vertex 13.1142 3.57399 8
    endloop
  endfacet
  facet normal 0 0 1
    outer loop
      vertex 13.0288 3.29259 8
      vertex 13 6 8
      vertex 13 3 8
    endloop
  endfacet
  facet normal -0 0 1
    outer loop
      vertex 15.9712 2.7074 8
      vertex 26.2119 0 8
      vertex 16 3 8
    endloop
  endfacet
  facet normal -0 0 1
    outer loop
      vertex 15.8858 2.42599 8
      vertex 26.2119 0 8
      vertex 15.9712 2.7074 8
    endloop
  endfacet
  facet normal -0 0 1
    outer loop
      vertex 15.7472 2.1666 8
      vertex 26.2119 0 8
      vertex 15.8858 2.42599 8
    endloop
  endfacet
  facet normal -0 0 1
    outer loop
      vertex 15.5607 1.93929 8
      vertex 26.2119 0 8
      vertex 15.7472 2.1666 8
    endloop
  endfacet
  facet normal -0 0 1
    outer loop
      vertex 15.3334 1.75279 8
      vertex 26.2119 0 8
      vertex 15.5607 1.93929 8
    endloop
  endfacet
  facet normal 0 0 1
    outer loop
      vertex 13 0 8
      vertex 15.3334 1.75279 8
      vertex 15.074 1.6142 8
    endloop
  endfacet
  facet normal 0 0 1
    outer loop
      vertex 13 0 8
      vertex 15.074 1.6142 8
      vertex 14.7926 1.52879 8
    endloop
  endfacet
  facet normal 0 0 1
    outer loop
      vertex 13 0 8
      vertex 14.7926 1.52879 8
      vertex 14.5 1.5 8
    endloop
  endfacet
  facet normal 0 0 1
    outer loop
      vertex 13 0 8
      vertex 14.5 1.5 8
      vertex 14.2074 1.52879 8
    endloop
  endfacet
  facet normal 0 0 1
    outer loop
      vertex 15.3334 1.75279 8
      vertex 13 0 8
      vertex 26.2119 0 8
    endloop
  endfacet
  facet normal 0 0 1
    outer loop
      vertex 13.926 1.6142 8
      vertex 13 0 8
      vertex 14.2074 1.52879 8
    endloop
  endfacet
  facet normal 0 0 1
    outer loop
      vertex 13.6666 1.75279 8
      vertex 13 0 8
      vertex 13.926 1.6142 8
    endloop
  endfacet
  facet normal 0 0 1
    outer loop
      vertex 13.4393 1.93929 8
      vertex 13 0 8
      vertex 13.6666 1.75279 8
    endloop
  endfacet
  facet normal 0 0 1
    outer loop
      vertex 13.2528 2.1666 8
      vertex 13 0 8
      vertex 13.4393 1.93929 8
    endloop
  endfacet
  facet normal 0 0 1
    outer loop
      vertex 13.1142 2.42599 8
      vertex 13 0 8
      vertex 13.2528 2.1666 8
    endloop
  endfacet
  facet normal 0 0 1
    outer loop
      vertex 13.0288 2.7074 8
      vertex 13 0 8
      vertex 13.1142 2.42599 8
    endloop
  endfacet
  facet normal 0 0 1
    outer loop
      vertex 13 0 8
      vertex 13.0288 2.7074 8
      vertex 13 3 8
    endloop
  endfacet
  facet normal 0 0 1
    outer loop
      vertex 57.6519 6 8
      vertex 57.6516 0 8
      vertex 59.3839 3 8
    endloop
  endfacet
  facet normal -0 0 1
    outer loop
      vertex 35.8084 6 8
      vertex 57.6516 0 8
      vertex 57.6519 6 8
    endloop
  endfacet
  facet normal 0 0 1
    outer loop
      vertex 57.6516 0 8
      vertex 35.8084 6 8
      vertex 35.8084 0 8
    endloop
  endfacet
  facet normal 0 -1 0
    outer loop
      vertex 5.00099 1 1
      vertex 11.2682 1 7
      vertex 5.00099 1 7
    endloop
  endfacet
  facet normal 0 -1 -0
    outer loop
      vertex 11.2682 1 7
      vertex 5.00099 1 1
      vertex 11.2682 1 1
    endloop
  endfacet
  facet normal -1 0 0
    outer loop
      vertex 11.2682 0 1
      vertex 11.2682 1 7
      vertex 11.2682 1 1
    endloop
  endfacet
  facet normal -1 -0 0
    outer loop
      vertex 11.2682 1 7
      vertex 11.2682 0 1
      vertex 11.2682 0 7
    endloop
  endfacet
  facet normal 0 -1 0
    outer loop
      vertex 13 0 1
      vertex 13 0 7
      vertex 11.2682 0 7
    endloop
  endfacet
  facet normal 0 -1 0
    outer loop
      vertex 13 0 7
      vertex 13 0 1
      vertex 26.2119 0 7
    endloop
  endfacet
  facet normal 0 -1 0
    outer loop
      vertex 13 0 1
      vertex 11.2682 0 7
      vertex 11.2682 0 1
    endloop
  endfacet
  facet normal 0 -1 0
    outer loop
      vertex 13 0 7
      vertex 26.2119 0 8
      vertex 13 0 8
    endloop
  endfacet
  facet normal 0 -1 -0
    outer loop
      vertex 26.2119 0 8
      vertex 13 0 7
      vertex 26.2119 0 7
    endloop
  endfacet
  facet normal 0 -1 0
    outer loop
      vertex 35.8084 0 7
      vertex 57.6516 0 8
      vertex 35.8084 0 8
    endloop
  endfacet
  facet normal 0 -1 -0
    outer loop
      vertex 26.2119 0 7
      vertex 13 0 1
      vertex 26.2119 0 1
    endloop
  endfacet
  facet normal 0 -1 0
    outer loop
      vertex 26.2119 0 7
      vertex 26.2119 0 1
      vertex 35.8084 0 7
    endloop
  endfacet
  facet normal 0 -1 0
    outer loop
      vertex 35.8084 0 1
      vertex 35.8084 0 7
      vertex 26.2119 0 1
    endloop
  endfacet
  facet normal 0 -1 0
    outer loop
      vertex 35.8084 0 7
      vertex 35.8084 0 1
      vertex 57.6516 0 8
    endloop
  endfacet
  facet normal 0 -1 0
    outer loop
      vertex 57.6516 0 0
      vertex 35.8084 0 1
      vertex 35.8084 0 0
    endloop
  endfacet
  facet normal 0 -1 0
    outer loop
      vertex 35.8084 0 1
      vertex 57.6516 0 0
      vertex 57.6516 0 8
    endloop
  endfacet
  facet normal 0 -1 0
    outer loop
      vertex 13 0 0
      vertex 26.2119 0 1
      vertex 13 0 1
    endloop
  endfacet
  facet normal 0 -1 -0
    outer loop
      vertex 26.2119 0 1
      vertex 13 0 0
      vertex 26.2119 0 0
    endloop
  endfacet
  facet normal 0 -1 0
    outer loop
      vertex 0 0 1
      vertex 5.00099 0 7
      vertex 0 0 7
    endloop
  endfacet
  facet normal 0 -1 -0
    outer loop
      vertex 5.00099 0 7
      vertex 0 0 1
      vertex 5.00099 0 1
    endloop
  endfacet
  facet normal 0.865994 -0.500054 0
    outer loop
      vertex 57.6516 0 8
      vertex 59.3839 3 0
      vertex 59.3839 3 8
    endloop
  endfacet
  facet normal 0.865994 -0.500054 0
    outer loop
      vertex 59.3839 3 0
      vertex 57.6516 0 8
      vertex 57.6516 0 0
    endloop
  endfacet
  facet normal 0.866032 0.499989 0
    outer loop
      vertex 59.3839 3 8
      vertex 57.6519 6 0
      vertex 57.6519 6 8
    endloop
  endfacet
  facet normal 0.866032 0.499989 0
    outer loop
      vertex 57.6519 6 0
      vertex 59.3839 3 8
      vertex 59.3839 3 0
    endloop
  endfacet
  facet normal 0 1 -0
    outer loop
      vertex 26.2119 6 0
      vertex 13 6 1
      vertex 26.2119 6 1
    endloop
  endfacet
  facet normal 0 1 0
    outer loop
      vertex 13 6 1
      vertex 26.2119 6 0
      vertex 13 6 0
    endloop
  endfacet
  facet normal 0 1 0
    outer loop
      vertex 57.6519 6 8
      vertex 35.8084 6 7
      vertex 35.8084 6 8
    endloop
  endfacet
  facet normal 0 1 0
    outer loop
      vertex 26.2119 6 1
      vertex 26.2119 6 7
      vertex 35.8084 6 7
    endloop
  endfacet
  facet normal 0 1 0
    outer loop
      vertex 26.2119 6 7
      vertex 26.2119 6 1
      vertex 13 6 7
    endloop
  endfacet
  facet normal 0 1 0
    outer loop
      vertex 26.2119 6 1
      vertex 35.8084 6 7
      vertex 35.8084 6 1
    endloop
  endfacet
  facet normal 0 1 0
    outer loop
      vertex 57.6519 6 8
      vertex 35.8084 6 1
      vertex 35.8084 6 7
    endloop
  endfacet
  facet normal 0 1 -0
    outer loop
      vertex 57.6519 6 0
      vertex 35.8084 6 1
      vertex 57.6519 6 8
    endloop
  endfacet
  facet normal 0 1 0
    outer loop
      vertex 35.8084 6 1
      vertex 57.6519 6 0
      vertex 35.8084 6 0
    endloop
  endfacet
  facet normal 0 1 -0
    outer loop
      vertex 26.2119 6 7
      vertex 13 6 8
      vertex 26.2119 6 8
    endloop
  endfacet
  facet normal 0 1 0
    outer loop
      vertex 13 6 8
      vertex 26.2119 6 7
      vertex 13 6 7
    endloop
  endfacet
  facet normal 0 1 0
    outer loop
      vertex 13 6 1
      vertex 13 6 7
      vertex 26.2119 6 1
    endloop
  endfacet
  facet normal 0 1 0
    outer loop
      vertex 13 6 7
      vertex 13 6 1
      vertex 11.2679 6 7
    endloop
  endfacet
  facet normal 0 1 0
    outer loop
      vertex 11.2679 6 7
      vertex 13 6 1
      vertex 11.2679 6 1
    endloop
  endfacet
  facet normal 0 1 -0
    outer loop
      vertex 5 6 1
      vertex 0 6 7
      vertex 5 6 7
    endloop
  endfacet
  facet normal 0 1 0
    outer loop
      vertex 0 6 7
      vertex 5 6 1
      vertex 0 6 1
    endloop
  endfacet
  facet normal -1 0 0
    outer loop
      vertex 11.2679 5 1
      vertex 11.2679 6 7
      vertex 11.2679 6 1
    endloop
  endfacet
  facet normal -1 -0 0
    outer loop
      vertex 11.2679 6 7
      vertex 11.2679 5 1
      vertex 11.2679 5 7
    endloop
  endfacet
  facet normal 0 1 -0
    outer loop
      vertex 11.2679 5 1
      vertex 5 5 7
      vertex 11.2679 5 7
    endloop
  endfacet
  facet normal 0 1 0
    outer loop
      vertex 5 5 7
      vertex 11.2679 5 1
      vertex 5 5 1
    endloop
  endfacet
  facet normal 1 -0 0
    outer loop
      vertex 5 5 7
      vertex 5 6 1
      vertex 5 6 7
    endloop
  endfacet
  facet normal 1 0 0
    outer loop
      vertex 5 6 1
      vertex 5 5 7
      vertex 5 5 1
    endloop
  endfacet
  facet normal -1 0 0
    outer loop
      vertex 0 0 1
      vertex 0 6 7
      vertex 0 6 1
    endloop
  endfacet
  facet normal -1 -0 0
    outer loop
      vertex 0 6 7
      vertex 0 0 1
      vertex 0 0 7
    endloop
  endfacet
  facet normal 1 -0 0
    outer loop
      vertex 5.00099 0 7
      vertex 5.00099 1 1
      vertex 5.00099 1 7
    endloop
  endfacet
  facet normal 1 0 0
    outer loop
      vertex 5.00099 1 1
      vertex 5.00099 0 7
      vertex 5.00099 0 1
    endloop
  endfacet
  facet normal 0.290425 0.956898 -0
    outer loop
      vertex 7.7074 1.52879 1
      vertex 7.42599 1.6142 7
      vertex 7.7074 1.52879 7
    endloop
  endfacet
  facet normal 0.290425 0.956898 0
    outer loop
      vertex 7.42599 1.6142 7
      vertex 7.7074 1.52879 1
      vertex 7.42599 1.6142 1
    endloop
  endfacet
  facet normal 0.471246 0.882002 -0
    outer loop
      vertex 7.42599 1.6142 1
      vertex 7.1666 1.75279 7
      vertex 7.42599 1.6142 7
    endloop
  endfacet
  facet normal 0.471246 0.882002 0
    outer loop
      vertex 7.1666 1.75279 7
      vertex 7.42599 1.6142 1
      vertex 7.1666 1.75279 1
    endloop
  endfacet
  facet normal 0.634295 0.773091 -0
    outer loop
      vertex 7.1666 1.75279 1
      vertex 6.93929 1.93929 7
      vertex 7.1666 1.75279 7
    endloop
  endfacet
  facet normal 0.634295 0.773091 0
    outer loop
      vertex 6.93929 1.93929 7
      vertex 7.1666 1.75279 1
      vertex 6.93929 1.93929 1
    endloop
  endfacet
  facet normal 0.773091 0.634295 0
    outer loop
      vertex 6.93929 1.93929 7
      vertex 6.75279 2.1666 1
      vertex 6.75279 2.1666 7
    endloop
  endfacet
  facet normal 0.773091 0.634295 0
    outer loop
      vertex 6.75279 2.1666 1
      vertex 6.93929 1.93929 7
      vertex 6.93929 1.93929 1
    endloop
  endfacet
  facet normal 0.882002 0.471246 0
    outer loop
      vertex 6.75279 2.1666 7
      vertex 6.6142 2.42599 1
      vertex 6.6142 2.42599 7
    endloop
  endfacet
  facet normal 0.882002 0.471246 0
    outer loop
      vertex 6.6142 2.42599 1
      vertex 6.75279 2.1666 7
      vertex 6.75279 2.1666 1
    endloop
  endfacet
  facet normal 0.956898 0.290425 0
    outer loop
      vertex 6.6142 2.42599 7
      vertex 6.52879 2.7074 1
      vertex 6.52879 2.7074 7
    endloop
  endfacet
  facet normal 0.956898 0.290425 0
    outer loop
      vertex 6.52879 2.7074 1
      vertex 6.6142 2.42599 7
      vertex 6.6142 2.42599 1
    endloop
  endfacet
  facet normal 0.995194 0.0979209 0
    outer loop
      vertex 6.52879 2.7074 7
      vertex 6.5 3 1
      vertex 6.5 3 7
    endloop
  endfacet
  facet normal 0.995194 0.0979209 0
    outer loop
      vertex 6.5 3 1
      vertex 6.52879 2.7074 7
      vertex 6.52879 2.7074 1
    endloop
  endfacet
  facet normal 0.995194 -0.0979242 0
    outer loop
      vertex 6.5 3 7
      vertex 6.52879 3.29259 1
      vertex 6.52879 3.29259 7
    endloop
  endfacet
  facet normal 0.995194 -0.0979242 0
    outer loop
      vertex 6.52879 3.29259 1
      vertex 6.5 3 7
      vertex 6.5 3 1
    endloop
  endfacet
  facet normal 0.956895 -0.290435 0
    outer loop
      vertex 6.52879 3.29259 7
      vertex 6.6142 3.57399 1
      vertex 6.6142 3.57399 7
    endloop
  endfacet
  facet normal 0.956895 -0.290435 0
    outer loop
      vertex 6.6142 3.57399 1
      vertex 6.52879 3.29259 7
      vertex 6.52879 3.29259 1
    endloop
  endfacet
  facet normal 0.882009 -0.471232 0
    outer loop
      vertex 6.6142 3.57399 7
      vertex 6.75279 3.83339 1
      vertex 6.75279 3.83339 7
    endloop
  endfacet
  facet normal 0.882009 -0.471232 0
    outer loop
      vertex 6.75279 3.83339 1
      vertex 6.6142 3.57399 7
      vertex 6.6142 3.57399 1
    endloop
  endfacet
  facet normal 0.773091 -0.634295 0
    outer loop
      vertex 6.75279 3.83339 7
      vertex 6.93929 4.0607 1
      vertex 6.93929 4.0607 7
    endloop
  endfacet
  facet normal 0.773091 -0.634295 0
    outer loop
      vertex 6.93929 4.0607 1
      vertex 6.75279 3.83339 7
      vertex 6.75279 3.83339 1
    endloop
  endfacet
  facet normal 0.634274 -0.773108 0
    outer loop
      vertex 6.93929 4.0607 1
      vertex 7.1666 4.24719 7
      vertex 6.93929 4.0607 7
    endloop
  endfacet
  facet normal 0.634274 -0.773108 0
    outer loop
      vertex 7.1666 4.24719 7
      vertex 6.93929 4.0607 1
      vertex 7.1666 4.24719 1
    endloop
  endfacet
  facet normal 0.471273 -0.881987 0
    outer loop
      vertex 7.1666 4.24719 1
      vertex 7.42599 4.38579 7
      vertex 7.1666 4.24719 7
    endloop
  endfacet
  facet normal 0.471273 -0.881987 0
    outer loop
      vertex 7.42599 4.38579 7
      vertex 7.1666 4.24719 1
      vertex 7.42599 4.38579 1
    endloop
  endfacet
  facet normal 0.290394 -0.956907 0
    outer loop
      vertex 7.42599 4.38579 1
      vertex 7.7074 4.47119 7
      vertex 7.42599 4.38579 7
    endloop
  endfacet
  facet normal 0.290394 -0.956907 0
    outer loop
      vertex 7.7074 4.47119 7
      vertex 7.42599 4.38579 1
      vertex 7.7074 4.47119 1
    endloop
  endfacet
  facet normal 0.0979882 -0.995188 0
    outer loop
      vertex 7.7074 4.47119 1
      vertex 8 4.5 7
      vertex 7.7074 4.47119 7
    endloop
  endfacet
  facet normal 0.0979882 -0.995188 0
    outer loop
      vertex 8 4.5 7
      vertex 7.7074 4.47119 1
      vertex 8 4.5 1
    endloop
  endfacet
  facet normal -0.0979915 -0.995187 0
    outer loop
      vertex 8 4.5 1
      vertex 8.29259 4.47119 7
      vertex 8 4.5 7
    endloop
  endfacet
  facet normal -0.0979915 -0.995187 -0
    outer loop
      vertex 8.29259 4.47119 7
      vertex 8 4.5 1
      vertex 8.29259 4.47119 1
    endloop
  endfacet
  facet normal -0.290404 -0.956904 0
    outer loop
      vertex 8.29259 4.47119 1
      vertex 8.57399 4.38579 7
      vertex 8.29259 4.47119 7
    endloop
  endfacet
  facet normal -0.290404 -0.956904 -0
    outer loop
      vertex 8.57399 4.38579 7
      vertex 8.29259 4.47119 1
      vertex 8.57399 4.38579 1
    endloop
  endfacet
  facet normal -0.471259 -0.881995 0
    outer loop
      vertex 8.57399 4.38579 1
      vertex 8.83339 4.24719 7
      vertex 8.57399 4.38579 7
    endloop
  endfacet
  facet normal -0.471259 -0.881995 -0
    outer loop
      vertex 8.83339 4.24719 7
      vertex 8.57399 4.38579 1
      vertex 8.83339 4.24719 1
    endloop
  endfacet
  facet normal -0.634274 -0.773108 0
    outer loop
      vertex 8.83339 4.24719 1
      vertex 9.0607 4.0607 7
      vertex 8.83339 4.24719 7
    endloop
  endfacet
  facet normal -0.634274 -0.773108 -0
    outer loop
      vertex 9.0607 4.0607 7
      vertex 8.83339 4.24719 1
      vertex 9.0607 4.0607 1
    endloop
  endfacet
  facet normal -0.773108 -0.634274 0
    outer loop
      vertex 9.24719 3.83339 1
      vertex 9.0607 4.0607 7
      vertex 9.0607 4.0607 1
    endloop
  endfacet
  facet normal -0.773108 -0.634274 0
    outer loop
      vertex 9.0607 4.0607 7
      vertex 9.24719 3.83339 1
      vertex 9.24719 3.83339 7
    endloop
  endfacet
  facet normal -0.881995 -0.471259 0
    outer loop
      vertex 9.38579 3.57399 1
      vertex 9.24719 3.83339 7
      vertex 9.24719 3.83339 1
    endloop
  endfacet
  facet normal -0.881995 -0.471259 0
    outer loop
      vertex 9.24719 3.83339 7
      vertex 9.38579 3.57399 1
      vertex 9.38579 3.57399 7
    endloop
  endfacet
  facet normal -0.956904 -0.290404 0
    outer loop
      vertex 9.47119 3.29259 1
      vertex 9.38579 3.57399 7
      vertex 9.38579 3.57399 1
    endloop
  endfacet
  facet normal -0.956904 -0.290404 0
    outer loop
      vertex 9.38579 3.57399 7
      vertex 9.47119 3.29259 1
      vertex 9.47119 3.29259 7
    endloop
  endfacet
  facet normal -0.995187 -0.0979915 0
    outer loop
      vertex 9.5 3 1
      vertex 9.47119 3.29259 7
      vertex 9.47119 3.29259 1
    endloop
  endfacet
  facet normal -0.995187 -0.0979915 0
    outer loop
      vertex 9.47119 3.29259 7
      vertex 9.5 3 1
      vertex 9.5 3 7
    endloop
  endfacet
  facet normal -0.995188 0.0979882 0
    outer loop
      vertex 9.47119 2.7074 1
      vertex 9.5 3 7
      vertex 9.5 3 1
    endloop
  endfacet
  facet normal -0.995188 0.0979882 0
    outer loop
      vertex 9.5 3 7
      vertex 9.47119 2.7074 1
      vertex 9.47119 2.7074 7
    endloop
  endfacet
  facet normal -0.956907 0.290394 0
    outer loop
      vertex 9.38579 2.42599 1
      vertex 9.47119 2.7074 7
      vertex 9.47119 2.7074 1
    endloop
  endfacet
  facet normal -0.956907 0.290394 0
    outer loop
      vertex 9.47119 2.7074 7
      vertex 9.38579 2.42599 1
      vertex 9.38579 2.42599 7
    endloop
  endfacet
  facet normal -0.881987 0.471273 0
    outer loop
      vertex 9.24719 2.1666 1
      vertex 9.38579 2.42599 7
      vertex 9.38579 2.42599 1
    endloop
  endfacet
  facet normal -0.881987 0.471273 0
    outer loop
      vertex 9.38579 2.42599 7
      vertex 9.24719 2.1666 1
      vertex 9.24719 2.1666 7
    endloop
  endfacet
  facet normal -0.773108 0.634274 0
    outer loop
      vertex 9.0607 1.93929 1
      vertex 9.24719 2.1666 7
      vertex 9.24719 2.1666 1
    endloop
  endfacet
  facet normal -0.773108 0.634274 0
    outer loop
      vertex 9.24719 2.1666 7
      vertex 9.0607 1.93929 1
      vertex 9.0607 1.93929 7
    endloop
  endfacet
  facet normal -0.634295 0.773091 0
    outer loop
      vertex 9.0607 1.93929 1
      vertex 8.83339 1.75279 7
      vertex 9.0607 1.93929 7
    endloop
  endfacet
  facet normal -0.634295 0.773091 0
    outer loop
      vertex 8.83339 1.75279 7
      vertex 9.0607 1.93929 1
      vertex 8.83339 1.75279 1
    endloop
  endfacet
  facet normal -0.471232 0.882009 0
    outer loop
      vertex 8.83339 1.75279 1
      vertex 8.57399 1.6142 7
      vertex 8.83339 1.75279 7
    endloop
  endfacet
  facet normal -0.471232 0.882009 0
    outer loop
      vertex 8.57399 1.6142 7
      vertex 8.83339 1.75279 1
      vertex 8.57399 1.6142 1
    endloop
  endfacet
  facet normal -0.290435 0.956895 0
    outer loop
      vertex 8.57399 1.6142 1
      vertex 8.29259 1.52879 7
      vertex 8.57399 1.6142 7
    endloop
  endfacet
  facet normal -0.290435 0.956895 0
    outer loop
      vertex 8.29259 1.52879 7
      vertex 8.57399 1.6142 1
      vertex 8.29259 1.52879 1
    endloop
  endfacet
  facet normal -0.0979242 0.995194 0
    outer loop
      vertex 8.29259 1.52879 1
      vertex 8 1.5 7
      vertex 8.29259 1.52879 7
    endloop
  endfacet
  facet normal -0.0979242 0.995194 0
    outer loop
      vertex 8 1.5 7
      vertex 8.29259 1.52879 1
      vertex 8 1.5 1
    endloop
  endfacet
  facet normal 0.0979209 0.995194 -0
    outer loop
      vertex 8 1.5 1
      vertex 7.7074 1.52879 7
      vertex 8 1.5 7
    endloop
  endfacet
  facet normal 0.0979209 0.995194 0
    outer loop
      vertex 7.7074 1.52879 7
      vertex 8 1.5 1
      vertex 7.7074 1.52879 1
    endloop
  endfacet
  facet normal 0.290435 0.956895 -0
    outer loop
      vertex 14.2074 1.52879 0
      vertex 13.926 1.6142 8
      vertex 14.2074 1.52879 8
    endloop
  endfacet
  facet normal 0.290435 0.956895 0
    outer loop
      vertex 13.926 1.6142 8
      vertex 14.2074 1.52879 0
      vertex 13.926 1.6142 0
    endloop
  endfacet
  facet normal 0.471232 0.882009 -0
    outer loop
      vertex 13.926 1.6142 0
      vertex 13.6666 1.75279 8
      vertex 13.926 1.6142 8
    endloop
  endfacet
  facet normal 0.471232 0.882009 0
    outer loop
      vertex 13.6666 1.75279 8
      vertex 13.926 1.6142 0
      vertex 13.6666 1.75279 0
    endloop
  endfacet
  facet normal 0.634311 0.773078 -0
    outer loop
      vertex 13.6666 1.75279 0
      vertex 13.4393 1.93929 8
      vertex 13.6666 1.75279 8
    endloop
  endfacet
  facet normal 0.634311 0.773078 0
    outer loop
      vertex 13.4393 1.93929 8
      vertex 13.6666 1.75279 0
      vertex 13.4393 1.93929 0
    endloop
  endfacet
  facet normal 0.773091 0.634295 0
    outer loop
      vertex 13.4393 1.93929 8
      vertex 13.2528 2.1666 0
      vertex 13.2528 2.1666 8
    endloop
  endfacet
  facet normal 0.773091 0.634295 0
    outer loop
      vertex 13.2528 2.1666 0
      vertex 13.4393 1.93929 8
      vertex 13.4393 1.93929 0
    endloop
  endfacet
  facet normal 0.881987 0.471273 0
    outer loop
      vertex 13.2528 2.1666 8
      vertex 13.1142 2.42599 0
      vertex 13.1142 2.42599 8
    endloop
  endfacet
  facet normal 0.881987 0.471273 0
    outer loop
      vertex 13.1142 2.42599 0
      vertex 13.2528 2.1666 8
      vertex 13.2528 2.1666 0
    endloop
  endfacet
  facet normal 0.956907 0.290394 0
    outer loop
      vertex 13.1142 2.42599 8
      vertex 13.0288 2.7074 0
      vertex 13.0288 2.7074 8
    endloop
  endfacet
  facet normal 0.956907 0.290394 0
    outer loop
      vertex 13.0288 2.7074 0
      vertex 13.1142 2.42599 8
      vertex 13.1142 2.42599 0
    endloop
  endfacet
  facet normal 0.995191 0.0979545 0
    outer loop
      vertex 13.0288 2.7074 8
      vertex 13 3 7
      vertex 13 3 8
    endloop
  endfacet
  facet normal 0.995191 0.0979545 0
    outer loop
      vertex 13 3 7
      vertex 13.0288 2.7074 8
      vertex 13 3 1
    endloop
  endfacet
  facet normal 0.995191 0.0979545 -0
    outer loop
      vertex 13.0288 2.7074 0
      vertex 13 3 1
      vertex 13.0288 2.7074 8
    endloop
  endfacet
  facet normal 0.995191 0.0979545 0
    outer loop
      vertex 13 3 1
      vertex 13.0288 2.7074 0
      vertex 13 3 0
    endloop
  endfacet
  facet normal 0.995191 -0.0979579 0
    outer loop
      vertex 13 3 7
      vertex 13.0288 3.29259 8
      vertex 13 3 8
    endloop
  endfacet
  facet normal 0.995191 -0.0979579 0
    outer loop
      vertex 13.0288 3.29259 8
      vertex 13 3 7
      vertex 13.0288 3.29259 0
    endloop
  endfacet
  facet normal 0.995191 -0.0979579 0
    outer loop
      vertex 13 3 1
      vertex 13.0288 3.29259 0
      vertex 13 3 7
    endloop
  endfacet
  facet normal 0.995191 -0.0979579 0
    outer loop
      vertex 13.0288 3.29259 0
      vertex 13 3 1
      vertex 13 3 0
    endloop
  endfacet
  facet normal 0.956904 -0.290404 0
    outer loop
      vertex 13.0288 3.29259 8
      vertex 13.1142 3.57399 0
      vertex 13.1142 3.57399 8
    endloop
  endfacet
  facet normal 0.956904 -0.290404 0
    outer loop
      vertex 13.1142 3.57399 0
      vertex 13.0288 3.29259 8
      vertex 13.0288 3.29259 0
    endloop
  endfacet
  facet normal 0.881995 -0.471259 0
    outer loop
      vertex 13.1142 3.57399 8
      vertex 13.2528 3.83339 0
      vertex 13.2528 3.83339 8
    endloop
  endfacet
  facet normal 0.881995 -0.471259 0
    outer loop
      vertex 13.2528 3.83339 0
      vertex 13.1142 3.57399 8
      vertex 13.1142 3.57399 0
    endloop
  endfacet
  facet normal 0.773091 -0.634295 0
    outer loop
      vertex 13.2528 3.83339 8
      vertex 13.4393 4.0607 0
      vertex 13.4393 4.0607 8
    endloop
  endfacet
  facet normal 0.773091 -0.634295 0
    outer loop
      vertex 13.4393 4.0607 0
      vertex 13.2528 3.83339 8
      vertex 13.2528 3.83339 0
    endloop
  endfacet
  facet normal 0.634291 -0.773094 0
    outer loop
      vertex 13.4393 4.0607 0
      vertex 13.6666 4.24719 8
      vertex 13.4393 4.0607 8
    endloop
  endfacet
  facet normal 0.634291 -0.773094 0
    outer loop
      vertex 13.6666 4.24719 8
      vertex 13.4393 4.0607 0
      vertex 13.6666 4.24719 0
    endloop
  endfacet
  facet normal 0.471259 -0.881995 0
    outer loop
      vertex 13.6666 4.24719 0
      vertex 13.926 4.38579 8
      vertex 13.6666 4.24719 8
    endloop
  endfacet
  facet normal 0.471259 -0.881995 0
    outer loop
      vertex 13.926 4.38579 8
      vertex 13.6666 4.24719 0
      vertex 13.926 4.38579 0
    endloop
  endfacet
  facet normal 0.290404 -0.956904 0
    outer loop
      vertex 13.926 4.38579 0
      vertex 14.2074 4.47119 8
      vertex 13.926 4.38579 8
    endloop
  endfacet
  facet normal 0.290404 -0.956904 0
    outer loop
      vertex 14.2074 4.47119 8
      vertex 13.926 4.38579 0
      vertex 14.2074 4.47119 0
    endloop
  endfacet
  facet normal 0.0979882 -0.995188 0
    outer loop
      vertex 14.2074 4.47119 0
      vertex 14.5 4.5 8
      vertex 14.2074 4.47119 8
    endloop
  endfacet
  facet normal 0.0979882 -0.995188 0
    outer loop
      vertex 14.5 4.5 8
      vertex 14.2074 4.47119 0
      vertex 14.5 4.5 0
    endloop
  endfacet
  facet normal -0.0979882 -0.995188 0
    outer loop
      vertex 14.5 4.5 0
      vertex 14.7926 4.47119 8
      vertex 14.5 4.5 8
    endloop
  endfacet
  facet normal -0.0979882 -0.995188 -0
    outer loop
      vertex 14.7926 4.47119 8
      vertex 14.5 4.5 0
      vertex 14.7926 4.47119 0
    endloop
  endfacet
  facet normal -0.290404 -0.956904 0
    outer loop
      vertex 14.7926 4.47119 0
      vertex 15.074 4.38579 8
      vertex 14.7926 4.47119 8
    endloop
  endfacet
  facet normal -0.290404 -0.956904 -0
    outer loop
      vertex 15.074 4.38579 8
      vertex 14.7926 4.47119 0
      vertex 15.074 4.38579 0
    endloop
  endfacet
  facet normal -0.471259 -0.881995 0
    outer loop
      vertex 15.074 4.38579 0
      vertex 15.3334 4.24719 8
      vertex 15.074 4.38579 8
    endloop
  endfacet
  facet normal -0.471259 -0.881995 -0
    outer loop
      vertex 15.3334 4.24719 8
      vertex 15.074 4.38579 0
      vertex 15.3334 4.24719 0
    endloop
  endfacet
  facet normal -0.634291 -0.773094 0
    outer loop
      vertex 15.3334 4.24719 0
      vertex 15.5607 4.0607 8
      vertex 15.3334 4.24719 8
    endloop
  endfacet
  facet normal -0.634291 -0.773094 -0
    outer loop
      vertex 15.5607 4.0607 8
      vertex 15.3334 4.24719 0
      vertex 15.5607 4.0607 0
    endloop
  endfacet
  facet normal -0.773091 -0.634295 0
    outer loop
      vertex 15.7472 3.83339 0
      vertex 15.5607 4.0607 8
      vertex 15.5607 4.0607 0
    endloop
  endfacet
  facet normal -0.773091 -0.634295 0
    outer loop
      vertex 15.5607 4.0607 8
      vertex 15.7472 3.83339 0
      vertex 15.7472 3.83339 8
    endloop
  endfacet
  facet normal -0.881995 -0.471259 0
    outer loop
      vertex 15.8858 3.57399 0
      vertex 15.7472 3.83339 8
      vertex 15.7472 3.83339 0
    endloop
  endfacet
  facet normal -0.881995 -0.471259 0
    outer loop
      vertex 15.7472 3.83339 8
      vertex 15.8858 3.57399 0
      vertex 15.8858 3.57399 8
    endloop
  endfacet
  facet normal -0.956904 -0.290404 0
    outer loop
      vertex 15.9712 3.29259 0
      vertex 15.8858 3.57399 8
      vertex 15.8858 3.57399 0
    endloop
  endfacet
  facet normal -0.956904 -0.290404 0
    outer loop
      vertex 15.8858 3.57399 8
      vertex 15.9712 3.29259 0
      vertex 15.9712 3.29259 8
    endloop
  endfacet
  facet normal -0.995191 -0.0979579 0
    outer loop
      vertex 16 3 0
      vertex 15.9712 3.29259 8
      vertex 15.9712 3.29259 0
    endloop
  endfacet
  facet normal -0.995191 -0.0979579 0
    outer loop
      vertex 15.9712 3.29259 8
      vertex 16 3 0
      vertex 16 3 8
    endloop
  endfacet
  facet normal -0.995191 0.0979545 0
    outer loop
      vertex 15.9712 2.7074 0
      vertex 16 3 8
      vertex 16 3 0
    endloop
  endfacet
  facet normal -0.995191 0.0979545 0
    outer loop
      vertex 16 3 8
      vertex 15.9712 2.7074 0
      vertex 15.9712 2.7074 8
    endloop
  endfacet
  facet normal -0.956907 0.290394 0
    outer loop
      vertex 15.8858 2.42599 0
      vertex 15.9712 2.7074 8
      vertex 15.9712 2.7074 0
    endloop
  endfacet
  facet normal -0.956907 0.290394 0
    outer loop
      vertex 15.9712 2.7074 8
      vertex 15.8858 2.42599 0
      vertex 15.8858 2.42599 8
    endloop
  endfacet
  facet normal -0.881987 0.471273 0
    outer loop
      vertex 15.7472 2.1666 0
      vertex 15.8858 2.42599 8
      vertex 15.8858 2.42599 0
    endloop
  endfacet
  facet normal -0.881987 0.471273 0
    outer loop
      vertex 15.8858 2.42599 8
      vertex 15.7472 2.1666 0
      vertex 15.7472 2.1666 8
    endloop
  endfacet
  facet normal -0.773091 0.634295 0
    outer loop
      vertex 15.5607 1.93929 0
      vertex 15.7472 2.1666 8
      vertex 15.7472 2.1666 0
    endloop
  endfacet
  facet normal -0.773091 0.634295 0
    outer loop
      vertex 15.7472 2.1666 8
      vertex 15.5607 1.93929 0
      vertex 15.5607 1.93929 8
    endloop
  endfacet
  facet normal -0.634311 0.773078 0
    outer loop
      vertex 15.5607 1.93929 0
      vertex 15.3334 1.75279 8
      vertex 15.5607 1.93929 8
    endloop
  endfacet
  facet normal -0.634311 0.773078 0
    outer loop
      vertex 15.3334 1.75279 8
      vertex 15.5607 1.93929 0
      vertex 15.3334 1.75279 0
    endloop
  endfacet
  facet normal -0.471232 0.882009 0
    outer loop
      vertex 15.3334 1.75279 0
      vertex 15.074 1.6142 8
      vertex 15.3334 1.75279 8
    endloop
  endfacet
  facet normal -0.471232 0.882009 0
    outer loop
      vertex 15.074 1.6142 8
      vertex 15.3334 1.75279 0
      vertex 15.074 1.6142 0
    endloop
  endfacet
  facet normal -0.290435 0.956895 0
    outer loop
      vertex 15.074 1.6142 0
      vertex 14.7926 1.52879 8
      vertex 15.074 1.6142 8
    endloop
  endfacet
  facet normal -0.290435 0.956895 0
    outer loop
      vertex 14.7926 1.52879 8
      vertex 15.074 1.6142 0
      vertex 14.7926 1.52879 0
    endloop
  endfacet
  facet normal -0.0979209 0.995194 0
    outer loop
      vertex 14.7926 1.52879 0
      vertex 14.5 1.5 8
      vertex 14.7926 1.52879 8
    endloop
  endfacet
  facet normal -0.0979209 0.995194 0
    outer loop
      vertex 14.5 1.5 8
      vertex 14.7926 1.52879 0
      vertex 14.5 1.5 0
    endloop
  endfacet
  facet normal 0.0979209 0.995194 -0
    outer loop
      vertex 14.5 1.5 0
      vertex 14.2074 1.52879 8
      vertex 14.5 1.5 8
    endloop
  endfacet
  facet normal 0.0979209 0.995194 0
    outer loop
      vertex 14.2074 1.52879 8
      vertex 14.5 1.5 0
      vertex 14.2074 1.52879 0
    endloop
  endfacet
  facet normal 0 0 -1
    outer loop
      vertex 26.2119 0 1
      vertex 35.8084 6 1
      vertex 35.8084 0 1
    endloop
  endfacet
  facet normal -0 0 -1
    outer loop
      vertex 35.8084 6 1
      vertex 26.2119 0 1
      vertex 26.2119 6 1
    endloop
  endfacet
  facet normal -1 0 0
    outer loop
      vertex 35.8084 0 0
      vertex 35.8084 6 1
      vertex 35.8084 6 0
    endloop
  endfacet
  facet normal -1 -0 0
    outer loop
      vertex 35.8084 6 1
      vertex 35.8084 0 0
      vertex 35.8084 0 1
    endloop
  endfacet
  facet normal -1 0 0
    outer loop
      vertex 35.8084 0 7
      vertex 35.8084 6 8
      vertex 35.8084 6 7
    endloop
  endfacet
  facet normal -1 -0 0
    outer loop
      vertex 35.8084 6 8
      vertex 35.8084 0 7
      vertex 35.8084 0 8
    endloop
  endfacet
  facet normal -0 0 1
    outer loop
      vertex 26.2119 6 7
      vertex 35.8084 0 7
      vertex 35.8084 6 7
    endloop
  endfacet
  facet normal 0 0 1
    outer loop
      vertex 35.8084 0 7
      vertex 26.2119 6 7
      vertex 26.2119 0 7
    endloop
  endfacet
  facet normal 1 -0 0
    outer loop
      vertex 26.2119 0 8
      vertex 26.2119 6 7
      vertex 26.2119 6 8
    endloop
  endfacet
  facet normal 1 0 0
    outer loop
      vertex 26.2119 6 7
      vertex 26.2119 0 8
      vertex 26.2119 0 7
    endloop
  endfacet
  facet normal -1 0 0
    outer loop
      vertex 13 0 7
      vertex 13 3 8
      vertex 13 3 7
    endloop
  endfacet
  facet normal -1 -0 0
    outer loop
      vertex 13 3 8
      vertex 13 0 7
      vertex 13 0 8
    endloop
  endfacet
  facet normal -1 0 0
    outer loop
      vertex 13 3 7
      vertex 13 6 8
      vertex 13 6 7
    endloop
  endfacet
  facet normal -1 -0 0
    outer loop
      vertex 13 6 8
      vertex 13 3 7
      vertex 13 3 8
    endloop
  endfacet
  facet normal 0 0 1
    outer loop
      vertex 5 6 7
      vertex 0 6 7
      vertex 5 5 7
    endloop
  endfacet
  facet normal 0 0 1
    outer loop
      vertex 11.2679 5 7
      vertex 9.47119 3.29259 7
      vertex 9.5 3 7
    endloop
  endfacet
  facet normal 0 0 1
    outer loop
      vertex 11.2679 5 7
      vertex 9.38579 3.57399 7
      vertex 9.47119 3.29259 7
    endloop
  endfacet
  facet normal 0 0 1
    outer loop
      vertex 11.2679 5 7
      vertex 9.24719 3.83339 7
      vertex 9.38579 3.57399 7
    endloop
  endfacet
  facet normal 0 0 1
    outer loop
      vertex 11.2679 5 7
      vertex 9.0607 4.0607 7
      vertex 9.24719 3.83339 7
    endloop
  endfacet
  facet normal 0 0 1
    outer loop
      vertex 11.2679 5 7
      vertex 8.83339 4.24719 7
      vertex 9.0607 4.0607 7
    endloop
  endfacet
  facet normal 0 0 1
    outer loop
      vertex 11.2679 5 7
      vertex 8.57399 4.38579 7
      vertex 8.83339 4.24719 7
    endloop
  endfacet
  facet normal 0 0 1
    outer loop
      vertex 11.2679 5 7
      vertex 8.29259 4.47119 7
      vertex 8.57399 4.38579 7
    endloop
  endfacet
  facet normal 0 0 1
    outer loop
      vertex 11.2679 5 7
      vertex 8 4.5 7
      vertex 8.29259 4.47119 7
    endloop
  endfacet
  facet normal -0 0 1
    outer loop
      vertex 5 5 7
      vertex 8 4.5 7
      vertex 11.2679 5 7
    endloop
  endfacet
  facet normal 0 0 1
    outer loop
      vertex 5 5 7
      vertex 6.5 3 7
      vertex 6.52879 3.29259 7
    endloop
  endfacet
  facet normal 0 0 1
    outer loop
      vertex 5 5 7
      vertex 6.52879 3.29259 7
      vertex 6.6142 3.57399 7
    endloop
  endfacet
  facet normal 0 0 1
    outer loop
      vertex 5 5 7
      vertex 6.6142 3.57399 7
      vertex 6.75279 3.83339 7
    endloop
  endfacet
  facet normal 0 0 1
    outer loop
      vertex 8 4.5 7
      vertex 5 5 7
      vertex 7.7074 4.47119 7
    endloop
  endfacet
  facet normal 0 0 1
    outer loop
      vertex 5 5 7
      vertex 7.42599 4.38579 7
      vertex 7.7074 4.47119 7
    endloop
  endfacet
  facet normal 0 0 1
    outer loop
      vertex 5 5 7
      vertex 7.1666 4.24719 7
      vertex 7.42599 4.38579 7
    endloop
  endfacet
  facet normal 0 0 1
    outer loop
      vertex 5 5 7
      vertex 6.93929 4.0607 7
      vertex 7.1666 4.24719 7
    endloop
  endfacet
  facet normal 0 0 1
    outer loop
      vertex 5 5 7
      vertex 6.75279 3.83339 7
      vertex 6.93929 4.0607 7
    endloop
  endfacet
  facet normal 0 0 1
    outer loop
      vertex 6.5 3 7
      vertex 5 5 7
      vertex 5.00099 1 7
    endloop
  endfacet
  facet normal 0 0 1
    outer loop
      vertex 0 0 7
      vertex 5.00099 1 7
      vertex 5 5 7
    endloop
  endfacet
  facet normal 0 0 1
    outer loop
      vertex 0 0 7
      vertex 5 5 7
      vertex 0 6 7
    endloop
  endfacet
  facet normal 0 0 1
    outer loop
      vertex 5.00099 1 7
      vertex 0 0 7
      vertex 5.00099 0 7
    endloop
  endfacet
  facet normal -0 0 1
    outer loop
      vertex 11.2679 5 7
      vertex 13 3 7
      vertex 13 6 7
    endloop
  endfacet
  facet normal 0 0 1
    outer loop
      vertex 13 3 7
      vertex 11.2682 1 7
      vertex 13 0 7
    endloop
  endfacet
  facet normal 0 0 1
    outer loop
      vertex 11.2679 5 7
      vertex 13 6 7
      vertex 11.2679 6 7
    endloop
  endfacet
  facet normal 0 0 1
    outer loop
      vertex 9.5 3 7
      vertex 13 3 7
      vertex 11.2679 5 7
    endloop
  endfacet
  facet normal 0 0 1
    outer loop
      vertex 13 3 7
      vertex 9.5 3 7
      vertex 11.2682 1 7
    endloop
  endfacet
  facet normal -0 0 1
    outer loop
      vertex 9.47119 2.7074 7
      vertex 11.2682 1 7
      vertex 9.5 3 7
    endloop
  endfacet
  facet normal -0 0 1
    outer loop
      vertex 9.38579 2.42599 7
      vertex 11.2682 1 7
      vertex 9.47119 2.7074 7
    endloop
  endfacet
  facet normal -0 0 1
    outer loop
      vertex 9.24719 2.1666 7
      vertex 11.2682 1 7
      vertex 9.38579 2.42599 7
    endloop
  endfacet
  facet normal -0 0 1
    outer loop
      vertex 9.0607 1.93929 7
      vertex 11.2682 1 7
      vertex 9.24719 2.1666 7
    endloop
  endfacet
  facet normal -0 0 1
    outer loop
      vertex 8.83339 1.75279 7
      vertex 11.2682 1 7
      vertex 9.0607 1.93929 7
    endloop
  endfacet
  facet normal -0 0 1
    outer loop
      vertex 8.57399 1.6142 7
      vertex 11.2682 1 7
      vertex 8.83339 1.75279 7
    endloop
  endfacet
  facet normal -0 0 1
    outer loop
      vertex 8.29259 1.52879 7
      vertex 11.2682 1 7
      vertex 8.57399 1.6142 7
    endloop
  endfacet
  facet normal -0 0 1
    outer loop
      vertex 8 1.5 7
      vertex 11.2682 1 7
      vertex 8.29259 1.52879 7
    endloop
  endfacet
  facet normal 0 0 1
    outer loop
      vertex 5.00099 1 7
      vertex 8 1.5 7
      vertex 7.7074 1.52879 7
    endloop
  endfacet
  facet normal 0 0 1
    outer loop
      vertex 8 1.5 7
      vertex 5.00099 1 7
      vertex 11.2682 1 7
    endloop
  endfacet
  facet normal 0 0 1
    outer loop
      vertex 7.42599 1.6142 7
      vertex 5.00099 1 7
      vertex 7.7074 1.52879 7
    endloop
  endfacet
  facet normal 0 0 1
    outer loop
      vertex 7.1666 1.75279 7
      vertex 5.00099 1 7
      vertex 7.42599 1.6142 7
    endloop
  endfacet
  facet normal 0 0 1
    outer loop
      vertex 6.93929 1.93929 7
      vertex 5.00099 1 7
      vertex 7.1666 1.75279 7
    endloop
  endfacet
  facet normal 0 0 1
    outer loop
      vertex 6.75279 2.1666 7
      vertex 5.00099 1 7
      vertex 6.93929 1.93929 7
    endloop
  endfacet
  facet normal 0 0 1
    outer loop
      vertex 6.6142 2.42599 7
      vertex 5.00099 1 7
      vertex 6.75279 2.1666 7
    endloop
  endfacet
  facet normal 0 0 1
    outer loop
      vertex 6.52879 2.7074 7
      vertex 5.00099 1 7
      vertex 6.6142 2.42599 7
    endloop
  endfacet
  facet normal 0 0 1
    outer loop
      vertex 5.00099 1 7
      vertex 6.52879 2.7074 7
      vertex 6.5 3 7
    endloop
  endfacet
  facet normal 0 0 1
    outer loop
      vertex 13 0 7
      vertex 11.2682 1 7
      vertex 11.2682 0 7
    endloop
  endfacet
  facet normal 0 0 -1
    outer loop
      vertex 0 0 1
      vertex 5.00099 1 1
      vertex 5.00099 0 1
    endloop
  endfacet
  facet normal -0 0 -1
    outer loop
      vertex 5.00099 1 1
      vertex 0 0 1
      vertex 5 5 1
    endloop
  endfacet
  facet normal 0 0 -1
    outer loop
      vertex 0 6 1
      vertex 5 5 1
      vertex 0 0 1
    endloop
  endfacet
  facet normal 0 0 -1
    outer loop
      vertex 5 5 1
      vertex 0 6 1
      vertex 5 6 1
    endloop
  endfacet
  facet normal 0 0 -1
    outer loop
      vertex 13 3 1
      vertex 9.5 3 1
      vertex 11.2679 5 1
    endloop
  endfacet
  facet normal 0 0 -1
    outer loop
      vertex 11.2682 1 1
      vertex 9.47119 2.7074 1
      vertex 9.5 3 1
    endloop
  endfacet
  facet normal 0 0 -1
    outer loop
      vertex 11.2682 1 1
      vertex 9.38579 2.42599 1
      vertex 9.47119 2.7074 1
    endloop
  endfacet
  facet normal 0 0 -1
    outer loop
      vertex 11.2682 1 1
      vertex 9.24719 2.1666 1
      vertex 9.38579 2.42599 1
    endloop
  endfacet
  facet normal 0 0 -1
    outer loop
      vertex 11.2682 1 1
      vertex 9.0607 1.93929 1
      vertex 9.24719 2.1666 1
    endloop
  endfacet
  facet normal 0 0 -1
    outer loop
      vertex 11.2682 1 1
      vertex 8.83339 1.75279 1
      vertex 9.0607 1.93929 1
    endloop
  endfacet
  facet normal 0 0 -1
    outer loop
      vertex 11.2682 1 1
      vertex 8.57399 1.6142 1
      vertex 8.83339 1.75279 1
    endloop
  endfacet
  facet normal 0 0 -1
    outer loop
      vertex 11.2682 1 1
      vertex 8.29259 1.52879 1
      vertex 8.57399 1.6142 1
    endloop
  endfacet
  facet normal 0 0 -1
    outer loop
      vertex 11.2682 1 1
      vertex 8 1.5 1
      vertex 8.29259 1.52879 1
    endloop
  endfacet
  facet normal 0 0 -1
    outer loop
      vertex 5.00099 1 1
      vertex 8 1.5 1
      vertex 11.2682 1 1
    endloop
  endfacet
  facet normal -0 0 -1
    outer loop
      vertex 6.52879 2.7074 1
      vertex 5.00099 1 1
      vertex 6.5 3 1
    endloop
  endfacet
  facet normal -0 0 -1
    outer loop
      vertex 6.6142 2.42599 1
      vertex 5.00099 1 1
      vertex 6.52879 2.7074 1
    endloop
  endfacet
  facet normal -0 0 -1
    outer loop
      vertex 6.75279 2.1666 1
      vertex 5.00099 1 1
      vertex 6.6142 2.42599 1
    endloop
  endfacet
  facet normal -0 0 -1
    outer loop
      vertex 6.93929 1.93929 1
      vertex 5.00099 1 1
      vertex 6.75279 2.1666 1
    endloop
  endfacet
  facet normal -0 0 -1
    outer loop
      vertex 7.1666 1.75279 1
      vertex 5.00099 1 1
      vertex 6.93929 1.93929 1
    endloop
  endfacet
  facet normal -0 0 -1
    outer loop
      vertex 7.42599 1.6142 1
      vertex 5.00099 1 1
      vertex 7.1666 1.75279 1
    endloop
  endfacet
  facet normal -0 0 -1
    outer loop
      vertex 7.7074 1.52879 1
      vertex 5.00099 1 1
      vertex 7.42599 1.6142 1
    endloop
  endfacet
  facet normal -0 0 -1
    outer loop
      vertex 8 1.5 1
      vertex 5.00099 1 1
      vertex 7.7074 1.52879 1
    endloop
  endfacet
  facet normal 0 0 -1
    outer loop
      vertex 11.2682 1 1
      vertex 13 3 1
      vertex 13 0 1
    endloop
  endfacet
  facet normal 0 0 -1
    outer loop
      vertex 11.2682 1 1
      vertex 13 0 1
      vertex 11.2682 0 1
    endloop
  endfacet
  facet normal 0 0 -1
    outer loop
      vertex 9.5 3 1
      vertex 13 3 1
      vertex 11.2682 1 1
    endloop
  endfacet
  facet normal 0 0 -1
    outer loop
      vertex 13 3 1
      vertex 11.2679 5 1
      vertex 13 6 1
    endloop
  endfacet
  facet normal -0 0 -1
    outer loop
      vertex 13 6 1
      vertex 11.2679 5 1
      vertex 11.2679 6 1
    endloop
  endfacet
  facet normal 0 0 -1
    outer loop
      vertex 9.47119 3.29259 1
      vertex 11.2679 5 1
      vertex 9.5 3 1
    endloop
  endfacet
  facet normal 0 0 -1
    outer loop
      vertex 9.38579 3.57399 1
      vertex 11.2679 5 1
      vertex 9.47119 3.29259 1
    endloop
  endfacet
  facet normal 0 0 -1
    outer loop
      vertex 9.24719 3.83339 1
      vertex 11.2679 5 1
      vertex 9.38579 3.57399 1
    endloop
  endfacet
  facet normal 0 0 -1
    outer loop
      vertex 9.0607 4.0607 1
      vertex 11.2679 5 1
      vertex 9.24719 3.83339 1
    endloop
  endfacet
  facet normal 0 0 -1
    outer loop
      vertex 8.83339 4.24719 1
      vertex 11.2679 5 1
      vertex 9.0607 4.0607 1
    endloop
  endfacet
  facet normal 0 0 -1
    outer loop
      vertex 8.57399 4.38579 1
      vertex 11.2679 5 1
      vertex 8.83339 4.24719 1
    endloop
  endfacet
  facet normal 0 0 -1
    outer loop
      vertex 8.29259 4.47119 1
      vertex 11.2679 5 1
      vertex 8.57399 4.38579 1
    endloop
  endfacet
  facet normal 0 0 -1
    outer loop
      vertex 8 4.5 1
      vertex 11.2679 5 1
      vertex 8.29259 4.47119 1
    endloop
  endfacet
  facet normal 0 0 -1
    outer loop
      vertex 5 5 1
      vertex 8 4.5 1
      vertex 7.7074 4.47119 1
    endloop
  endfacet
  facet normal 0 0 -1
    outer loop
      vertex 5 5 1
      vertex 6.5 3 1
      vertex 5.00099 1 1
    endloop
  endfacet
  facet normal 0 0 -1
    outer loop
      vertex 6.5 3 1
      vertex 5 5 1
      vertex 6.52879 3.29259 1
    endloop
  endfacet
  facet normal 0 0 -1
    outer loop
      vertex 6.52879 3.29259 1
      vertex 5 5 1
      vertex 6.6142 3.57399 1
    endloop
  endfacet
  facet normal 0 0 -1
    outer loop
      vertex 8 4.5 1
      vertex 5 5 1
      vertex 11.2679 5 1
    endloop
  endfacet
  facet normal 0 0 -1
    outer loop
      vertex 7.42599 4.38579 1
      vertex 5 5 1
      vertex 7.7074 4.47119 1
    endloop
  endfacet
  facet normal 0 0 -1
    outer loop
      vertex 7.1666 4.24719 1
      vertex 5 5 1
      vertex 7.42599 4.38579 1
    endloop
  endfacet
  facet normal 0 0 -1
    outer loop
      vertex 6.93929 4.0607 1
      vertex 5 5 1
      vertex 7.1666 4.24719 1
    endloop
  endfacet
  facet normal 0 0 -1
    outer loop
      vertex 6.75279 3.83339 1
      vertex 5 5 1
      vertex 6.93929 4.0607 1
    endloop
  endfacet
  facet normal 0 0 -1
    outer loop
      vertex 6.6142 3.57399 1
      vertex 5 5 1
      vertex 6.75279 3.83339 1
    endloop
  endfacet
  facet normal -1 0 0
    outer loop
      vertex 13 0 0
      vertex 13 3 1
      vertex 13 3 0
    endloop
  endfacet
  facet normal -1 -0 0
    outer loop
      vertex 13 3 1
      vertex 13 0 0
      vertex 13 0 1
    endloop
  endfacet
  facet normal -1 0 0
    outer loop
      vertex 13 3 0
      vertex 13 6 1
      vertex 13 6 0
    endloop
  endfacet
  facet normal -1 -0 0
    outer loop
      vertex 13 6 1
      vertex 13 3 0
      vertex 13 3 1
    endloop
  endfacet
  facet normal 1 -0 0
    outer loop
      vertex 26.2119 0 1
      vertex 26.2119 6 0
      vertex 26.2119 6 1
    endloop
  endfacet
  facet normal 1 0 0
    outer loop
      vertex 26.2119 6 0
      vertex 26.2119 0 1
      vertex 26.2119 0 0
    endloop
  endfacet
endsolid OpenSCAD_Model
