solid OpenSCAD_Model
  facet normal 0 0 -1
    outer loop
      vertex 121.25 8 0
      vertex 129.408 5.49989 0
      vertex 121.25 7 0
    endloop
  endfacet
  facet normal 0 0 -1
    outer loop
      vertex 93.25 8 0
      vertex 102.75 8 0
      vertex 102.75 7 0
    endloop
  endfacet
  facet normal -0 0 -1
    outer loop
      vertex 102.75 7 0
      vertex 99.656 1 0
      vertex 93.25 7 0
    endloop
  endfacet
  facet normal -0 -0 -1
    outer loop
      vertex 129.408 5.49989 0
      vertex 129.696 0 0
      vertex 121.25 7 0
    endloop
  endfacet
  facet normal 0 0 -1
    outer loop
      vertex 129.408 5.49989 0
      vertex 132.006 4 0
      vertex 129.696 0 0
    endloop
  endfacet
  facet normal -0 0 -1
    outer loop
      vertex 130.851 8 0
      vertex 129.408 5.49989 0
      vertex 121.25 8 0
    endloop
  endfacet
  facet normal 0 0 -1
    outer loop
      vertex 129.696 0 0
      vertex 104.156 0 0
      vertex 116.75 7 0
    endloop
  endfacet
  facet normal 0 0 -1
    outer loop
      vertex 116.75 7 0
      vertex 104.156 0 0
      vertex 104.156 1 0
    endloop
  endfacet
  facet normal -0 -0 -1
    outer loop
      vertex 121.25 7 0
      vertex 129.696 0 0
      vertex 116.75 7 0
    endloop
  endfacet
  facet normal -0 -0 -1
    outer loop
      vertex 116.75 8 0
      vertex 116.75 7 0
      vertex 107.25 8 0
    endloop
  endfacet
  facet normal 0 0 -1
    outer loop
      vertex 107.25 8 0
      vertex 116.75 7 0
      vertex 107.25 7 0
    endloop
  endfacet
  facet normal 0 0 -1
    outer loop
      vertex 102.75 7 0
      vertex 107.25 7 0
      vertex 104.156 1 0
    endloop
  endfacet
  facet normal 0 -0 -1
    outer loop
      vertex 107.25 7 0
      vertex 116.75 7 0
      vertex 104.156 1 0
    endloop
  endfacet
  facet normal 0 0 -1
    outer loop
      vertex 99.656 1 0
      vertex 102.75 7 0
      vertex 104.156 1 0
    endloop
  endfacet
  facet normal 0 0 -1
    outer loop
      vertex 79.25 7 0
      vertex 79.25 8 0
      vertex 88.75 7 0
    endloop
  endfacet
  facet normal 0 0 -1
    outer loop
      vertex 93.25 7 0
      vertex 93.25 8 0
      vertex 102.75 7 0
    endloop
  endfacet
  facet normal 0 0 -1
    outer loop
      vertex 99.656 0 0
      vertex 93.25 7 0
      vertex 99.656 1 0
    endloop
  endfacet
  facet normal 0 0 -1
    outer loop
      vertex 65.25 7 0
      vertex 65.25 8 0
      vertex 74.75 7 0
    endloop
  endfacet
  facet normal 0 0 -1
    outer loop
      vertex 99.656 0 0
      vertex 88.75 7 0
      vertex 93.25 7 0
    endloop
  endfacet
  facet normal 0 0 -1
    outer loop
      vertex 88.75 7 0
      vertex 79.25 8 0
      vertex 88.75 8 0
    endloop
  endfacet
  facet normal 0 0 -1
    outer loop
      vertex 99.656 0 0
      vertex 79.25 7 0
      vertex 88.75 7 0
    endloop
  endfacet
  facet normal 0 0 -1
    outer loop
      vertex 51.25 7 0
      vertex 51.25 8 0
      vertex 60.75 7 0
    endloop
  endfacet
  facet normal 0 0 -1
    outer loop
      vertex 99.656 0 0
      vertex 74.75 7 0
      vertex 79.25 7 0
    endloop
  endfacet
  facet normal 0 0 -1
    outer loop
      vertex 74.75 7 0
      vertex 65.25 8 0
      vertex 74.75 8 0
    endloop
  endfacet
  facet normal 0 0 -1
    outer loop
      vertex 99.656 0 0
      vertex 65.25 7 0
      vertex 74.75 7 0
    endloop
  endfacet
  facet normal 0 0 -1
    outer loop
      vertex 37.25 7 0
      vertex 37.25 8 0
      vertex 46.75 7 0
    endloop
  endfacet
  facet normal 0 0 -1
    outer loop
      vertex 99.656 0 0
      vertex 60.75 7 0
      vertex 65.25 7 0
    endloop
  endfacet
  facet normal 0 0 -1
    outer loop
      vertex 60.75 7 0
      vertex 51.25 8 0
      vertex 60.75 8 0
    endloop
  endfacet
  facet normal 0 -0 -1
    outer loop
      vertex 46.75 7 0
      vertex 51.25 7 0
      vertex 33.8334 2.75279 0
    endloop
  endfacet
  facet normal 0 0 -1
    outer loop
      vertex 10 0 0
      vertex 20 2.5 0
      vertex 20.2926 2.52879 0
    endloop
  endfacet
  facet normal 0 0 -1
    outer loop
      vertex 46.75 7 0
      vertex 37.25 8 0
      vertex 46.75 8 0
    endloop
  endfacet
  facet normal 0 -0 -1
    outer loop
      vertex 32.1666 2.75279 0
      vertex 32.426 2.6142 0
      vertex 20.574 2.6142 0
    endloop
  endfacet
  facet normal 0 0 -1
    outer loop
      vertex 4.75 7 0
      vertex 9.25 7 0
      vertex 10 0 0
    endloop
  endfacet
  facet normal 0 0 -1
    outer loop
      vertex 23.25 7 0
      vertex 21.3858 4.57399 0
      vertex 21.2472 4.83339 0
    endloop
  endfacet
  facet normal 0 0 -1
    outer loop
      vertex 23.25 7 0
      vertex 31.7528 4.83339 0
      vertex 31.6142 4.57399 0
    endloop
  endfacet
  facet normal 0 0 -1
    outer loop
      vertex 31.5288 4.29259 0
      vertex 23.25 7 0
      vertex 31.6142 4.57399 0
    endloop
  endfacet
  facet normal 0 0 -1
    outer loop
      vertex 18.75 7 0
      vertex 19.7074 5.47119 0
      vertex 19.426 5.38579 0
    endloop
  endfacet
  facet normal 0 -0 -1
    outer loop
      vertex 19.1666 2.75279 0
      vertex 19.426 2.6142 0
      vertex 10 0 0
    endloop
  endfacet
  facet normal 0 0 -1
    outer loop
      vertex 18.75 7 0
      vertex 9.25 8 0
      vertex 18.75 8 0
    endloop
  endfacet
  facet normal 0 0 -1
    outer loop
      vertex 18.75 7 0
      vertex 9.25 7 0
      vertex 9.25 8 0
    endloop
  endfacet
  facet normal 0 0 -1
    outer loop
      vertex 0 5.7735 0
      vertex 4.75 7 0
      vertex 10 0 0
    endloop
  endfacet
  facet normal 0 0 -1
    outer loop
      vertex 4.75 7 0
      vertex 0 8 0
      vertex 4.75 8 0
    endloop
  endfacet
  facet normal -0 0 -1
    outer loop
      vertex 4.75 7 0
      vertex 0 5.7735 0
      vertex 0 8 0
    endloop
  endfacet
  facet normal 0 -0 -1
    outer loop
      vertex 20.2926 2.52879 0
      vertex 32.7074 2.52879 0
      vertex 10 0 0
    endloop
  endfacet
  facet normal 0 -0 -1
    outer loop
      vertex 19.7074 2.52879 0
      vertex 20 2.5 0
      vertex 10 0 0
    endloop
  endfacet
  facet normal 0 -0 -1
    outer loop
      vertex 19.426 2.6142 0
      vertex 19.7074 2.52879 0
      vertex 10 0 0
    endloop
  endfacet
  facet normal -0 0 -1
    outer loop
      vertex 19.1666 2.75279 0
      vertex 10 0 0
      vertex 18.9393 2.93929 0
    endloop
  endfacet
  facet normal -0 0 -1
    outer loop
      vertex 18.9393 2.93929 0
      vertex 10 0 0
      vertex 18.7528 3.1666 0
    endloop
  endfacet
  facet normal -0 0 -1
    outer loop
      vertex 18.7528 3.1666 0
      vertex 10 0 0
      vertex 18.6142 3.42599 0
    endloop
  endfacet
  facet normal -0 0 -1
    outer loop
      vertex 18.6142 3.42599 0
      vertex 10 0 0
      vertex 18.5288 3.7074 0
    endloop
  endfacet
  facet normal -0 0 -1
    outer loop
      vertex 18.5288 3.7074 0
      vertex 10 0 0
      vertex 18.5 4 0
    endloop
  endfacet
  facet normal -0 0 -1
    outer loop
      vertex 18.5288 4.29259 0
      vertex 18.5 4 0
      vertex 9.25 7 0
    endloop
  endfacet
  facet normal -0 0 -1
    outer loop
      vertex 18.5 4 0
      vertex 10 0 0
      vertex 9.25 7 0
    endloop
  endfacet
  facet normal -0 0 -1
    outer loop
      vertex 18.6142 4.57399 0
      vertex 18.5288 4.29259 0
      vertex 9.25 7 0
    endloop
  endfacet
  facet normal -0 0 -1
    outer loop
      vertex 18.75 7 0
      vertex 18.6142 4.57399 0
      vertex 9.25 7 0
    endloop
  endfacet
  facet normal 0 -0 -1
    outer loop
      vertex 18.75 7 0
      vertex 18.7528 4.83339 0
      vertex 18.6142 4.57399 0
    endloop
  endfacet
  facet normal 0 0 -1
    outer loop
      vertex 18.75 7 0
      vertex 18.9393 5.0607 0
      vertex 18.7528 4.83339 0
    endloop
  endfacet
  facet normal 0 0 -1
    outer loop
      vertex 18.75 7 0
      vertex 19.1666 5.24719 0
      vertex 18.9393 5.0607 0
    endloop
  endfacet
  facet normal 0 0 -1
    outer loop
      vertex 18.75 7 0
      vertex 19.426 5.38579 0
      vertex 19.1666 5.24719 0
    endloop
  endfacet
  facet normal -0 0 -1
    outer loop
      vertex 20 5.5 0
      vertex 19.7074 5.47119 0
      vertex 18.75 7 0
    endloop
  endfacet
  facet normal 0 0 -1
    outer loop
      vertex 20.2926 5.47119 0
      vertex 20 5.5 0
      vertex 18.75 7 0
    endloop
  endfacet
  facet normal -0 0 -1
    outer loop
      vertex 23.25 7 0
      vertex 20.2926 5.47119 0
      vertex 18.75 7 0
    endloop
  endfacet
  facet normal 0 0 -1
    outer loop
      vertex 23.25 7 0
      vertex 20.574 5.38579 0
      vertex 20.2926 5.47119 0
    endloop
  endfacet
  facet normal 0 0 -1
    outer loop
      vertex 23.25 7 0
      vertex 20.8334 5.24719 0
      vertex 20.574 5.38579 0
    endloop
  endfacet
  facet normal 0 0 -1
    outer loop
      vertex 23.25 7 0
      vertex 21.0607 5.0607 0
      vertex 20.8334 5.24719 0
    endloop
  endfacet
  facet normal 0 0 -1
    outer loop
      vertex 23.25 7 0
      vertex 21.2472 4.83339 0
      vertex 21.0607 5.0607 0
    endloop
  endfacet
  facet normal 0 0 -1
    outer loop
      vertex 21.4712 4.29259 0
      vertex 21.3858 4.57399 0
      vertex 23.25 7 0
    endloop
  endfacet
  facet normal 0 0 -1
    outer loop
      vertex 21.5 4 0
      vertex 21.4712 4.29259 0
      vertex 23.25 7 0
    endloop
  endfacet
  facet normal 0 0 -1
    outer loop
      vertex 21.4712 3.7074 0
      vertex 21.5 4 0
      vertex 23.25 7 0
    endloop
  endfacet
  facet normal 0 0 -1
    outer loop
      vertex 31.9393 2.93929 0
      vertex 21.0607 2.93929 0
      vertex 31.7528 3.1666 0
    endloop
  endfacet
  facet normal 0 0 -1
    outer loop
      vertex 32.1666 2.75279 0
      vertex 20.8334 2.75279 0
      vertex 31.9393 2.93929 0
    endloop
  endfacet
  facet normal -0 0 -1
    outer loop
      vertex 32.1666 2.75279 0
      vertex 20.574 2.6142 0
      vertex 20.8334 2.75279 0
    endloop
  endfacet
  facet normal -0 0 -1
    outer loop
      vertex 32.426 2.6142 0
      vertex 20.2926 2.52879 0
      vertex 20.574 2.6142 0
    endloop
  endfacet
  facet normal 0 -0 -1
    outer loop
      vertex 32.426 2.6142 0
      vertex 32.7074 2.52879 0
      vertex 20.2926 2.52879 0
    endloop
  endfacet
  facet normal 0 0 -1
    outer loop
      vertex 34.3858 4.57399 0
      vertex 37.25 7 0
      vertex 34.4712 4.29259 0
    endloop
  endfacet
  facet normal 0 0 -1
    outer loop
      vertex 10 0 0
      vertex 33 2.5 0
      vertex 99.656 0 0
    endloop
  endfacet
  facet normal 0 0 -1
    outer loop
      vertex 46.75 7 0
      vertex 34.0607 2.93929 0
      vertex 34.2472 3.1666 0
    endloop
  endfacet
  facet normal 0 -0 -1
    outer loop
      vertex 32.7074 2.52879 0
      vertex 33 2.5 0
      vertex 10 0 0
    endloop
  endfacet
  facet normal 0 -0 -1
    outer loop
      vertex 51.25 7 0
      vertex 60.75 7 0
      vertex 33.574 2.6142 0
    endloop
  endfacet
  facet normal -0 0 -1
    outer loop
      vertex 31.9393 2.93929 0
      vertex 20.8334 2.75279 0
      vertex 21.0607 2.93929 0
    endloop
  endfacet
  facet normal -0 0 -1
    outer loop
      vertex 31.7528 3.1666 0
      vertex 21.0607 2.93929 0
      vertex 21.2472 3.1666 0
    endloop
  endfacet
  facet normal 0 -0 -1
    outer loop
      vertex 31.6142 3.42599 0
      vertex 31.7528 3.1666 0
      vertex 21.2472 3.1666 0
    endloop
  endfacet
  facet normal 0 -0 -1
    outer loop
      vertex 21.3858 3.42599 0
      vertex 31.6142 3.42599 0
      vertex 21.2472 3.1666 0
    endloop
  endfacet
  facet normal 0 0 -1
    outer loop
      vertex 21.3858 3.42599 0
      vertex 31.5288 3.7074 0
      vertex 31.6142 3.42599 0
    endloop
  endfacet
  facet normal 0 0 -1
    outer loop
      vertex 21.3858 3.42599 0
      vertex 21.4712 3.7074 0
      vertex 31.5288 3.7074 0
    endloop
  endfacet
  facet normal 0 0 -1
    outer loop
      vertex 31.5288 3.7074 0
      vertex 21.4712 3.7074 0
      vertex 23.25 7 0
    endloop
  endfacet
  facet normal -0 -0 -1
    outer loop
      vertex 31.5 4 0
      vertex 31.5288 3.7074 0
      vertex 23.25 7 0
    endloop
  endfacet
  facet normal 0 0 -1
    outer loop
      vertex 31.7528 4.83339 0
      vertex 23.25 8 0
      vertex 32.75 8 0
    endloop
  endfacet
  facet normal -0 0 -1
    outer loop
      vertex 31.5288 4.29259 0
      vertex 31.5 4 0
      vertex 23.25 7 0
    endloop
  endfacet
  facet normal 0 0 -1
    outer loop
      vertex 23.25 7 0
      vertex 23.25 8 0
      vertex 31.7528 4.83339 0
    endloop
  endfacet
  facet normal 0 0 -1
    outer loop
      vertex 31.7528 4.83339 0
      vertex 32.75 8 0
      vertex 31.9393 5.0607 0
    endloop
  endfacet
  facet normal 0 0 -1
    outer loop
      vertex 31.9393 5.0607 0
      vertex 32.75 8 0
      vertex 32.75 7 0
    endloop
  endfacet
  facet normal -0 0 -1
    outer loop
      vertex 32.1666 5.24719 0
      vertex 31.9393 5.0607 0
      vertex 32.75 7 0
    endloop
  endfacet
  facet normal -0 0 -1
    outer loop
      vertex 32.7074 5.47119 0
      vertex 32.426 5.38579 0
      vertex 32.75 7 0
    endloop
  endfacet
  facet normal -0 0 -1
    outer loop
      vertex 32.426 5.38579 0
      vertex 32.1666 5.24719 0
      vertex 32.75 7 0
    endloop
  endfacet
  facet normal 0 0 -1
    outer loop
      vertex 32.7074 5.47119 0
      vertex 32.75 7 0
      vertex 33 5.5 0
    endloop
  endfacet
  facet normal 0 0 -1
    outer loop
      vertex 33 5.5 0
      vertex 32.75 7 0
      vertex 33.2926 5.47119 0
    endloop
  endfacet
  facet normal 0 0 -1
    outer loop
      vertex 33.2926 5.47119 0
      vertex 32.75 7 0
      vertex 33.574 5.38579 0
    endloop
  endfacet
  facet normal 0 0 -1
    outer loop
      vertex 33.574 5.38579 0
      vertex 32.75 7 0
      vertex 33.8334 5.24719 0
    endloop
  endfacet
  facet normal 0 0 -1
    outer loop
      vertex 33.8334 5.24719 0
      vertex 32.75 7 0
      vertex 37.25 7 0
    endloop
  endfacet
  facet normal 0 0 -1
    outer loop
      vertex 34.0607 5.0607 0
      vertex 33.8334 5.24719 0
      vertex 37.25 7 0
    endloop
  endfacet
  facet normal 0 0 -1
    outer loop
      vertex 34.2472 4.83339 0
      vertex 34.0607 5.0607 0
      vertex 37.25 7 0
    endloop
  endfacet
  facet normal 0 0 -1
    outer loop
      vertex 34.3858 4.57399 0
      vertex 34.2472 4.83339 0
      vertex 37.25 7 0
    endloop
  endfacet
  facet normal 0 0 -1
    outer loop
      vertex 34.4712 4.29259 0
      vertex 37.25 7 0
      vertex 34.5 4 0
    endloop
  endfacet
  facet normal 0 -0 -1
    outer loop
      vertex 34.5 4 0
      vertex 37.25 7 0
      vertex 34.4712 3.7074 0
    endloop
  endfacet
  facet normal 0 -0 -1
    outer loop
      vertex 34.4712 3.7074 0
      vertex 37.25 7 0
      vertex 34.3858 3.42599 0
    endloop
  endfacet
  facet normal 0 0 -1
    outer loop
      vertex 34.3858 3.42599 0
      vertex 37.25 7 0
      vertex 46.75 7 0
    endloop
  endfacet
  facet normal 0 0 -1
    outer loop
      vertex 34.2472 3.1666 0
      vertex 34.3858 3.42599 0
      vertex 46.75 7 0
    endloop
  endfacet
  facet normal 0 -0 -1
    outer loop
      vertex 34.0607 2.93929 0
      vertex 46.75 7 0
      vertex 33.8334 2.75279 0
    endloop
  endfacet
  facet normal 0 -0 -1
    outer loop
      vertex 33.8334 2.75279 0
      vertex 51.25 7 0
      vertex 33.574 2.6142 0
    endloop
  endfacet
  facet normal 0 0 -1
    outer loop
      vertex 33.574 2.6142 0
      vertex 60.75 7 0
      vertex 99.656 0 0
    endloop
  endfacet
  facet normal 0 0 -1
    outer loop
      vertex 33 2.5 0
      vertex 33.2926 2.52879 0
      vertex 99.656 0 0
    endloop
  endfacet
  facet normal 0 0 -1
    outer loop
      vertex 33.2926 2.52879 0
      vertex 33.574 2.6142 0
      vertex 99.656 0 0
    endloop
  endfacet
  facet normal -0 0 1
    outer loop
      vertex 121.25 7 6
      vertex 129.408 5.49989 6
      vertex 121.25 8 6
    endloop
  endfacet
  facet normal 0 -0 1
    outer loop
      vertex 102.75 7 6
      vertex 102.75 8 6
      vertex 93.25 8 6
    endloop
  endfacet
  facet normal -0 0 1
    outer loop
      vertex 93.25 7 6
      vertex 99.656 1 6
      vertex 102.75 7 6
    endloop
  endfacet
  facet normal 0 0 1
    outer loop
      vertex 121.25 7 6
      vertex 129.696 0 6
      vertex 129.408 5.49989 6
    endloop
  endfacet
  facet normal 0 -0 1
    outer loop
      vertex 129.696 0 6
      vertex 132.006 4 6
      vertex 129.408 5.49989 6
    endloop
  endfacet
  facet normal -0 0 1
    outer loop
      vertex 121.25 8 6
      vertex 129.408 5.49989 6
      vertex 130.851 8 6
    endloop
  endfacet
  facet normal 0 0 1
    outer loop
      vertex 116.75 7 6
      vertex 104.156 0 6
      vertex 129.696 0 6
    endloop
  endfacet
  facet normal -0 0 1
    outer loop
      vertex 104.156 1 6
      vertex 104.156 0 6
      vertex 116.75 7 6
    endloop
  endfacet
  facet normal -0 0 1
    outer loop
      vertex 116.75 7 6
      vertex 129.696 0 6
      vertex 121.25 7 6
    endloop
  endfacet
  facet normal -0 0 1
    outer loop
      vertex 107.25 8 6
      vertex 116.75 7 6
      vertex 116.75 8 6
    endloop
  endfacet
  facet normal 0 0 1
    outer loop
      vertex 107.25 7 6
      vertex 116.75 7 6
      vertex 107.25 8 6
    endloop
  endfacet
  facet normal 0 -0 1
    outer loop
      vertex 104.156 1 6
      vertex 107.25 7 6
      vertex 102.75 7 6
    endloop
  endfacet
  facet normal 0 0 1
    outer loop
      vertex 104.156 1 6
      vertex 116.75 7 6
      vertex 107.25 7 6
    endloop
  endfacet
  facet normal 0 0 1
    outer loop
      vertex 104.156 1 6
      vertex 102.75 7 6
      vertex 99.656 1 6
    endloop
  endfacet
  facet normal 0 0 1
    outer loop
      vertex 88.75 7 6
      vertex 79.25 8 6
      vertex 79.25 7 6
    endloop
  endfacet
  facet normal 0 0 1
    outer loop
      vertex 102.75 7 6
      vertex 93.25 8 6
      vertex 93.25 7 6
    endloop
  endfacet
  facet normal 0 0 1
    outer loop
      vertex 99.656 1 6
      vertex 93.25 7 6
      vertex 99.656 0 6
    endloop
  endfacet
  facet normal 0 0 1
    outer loop
      vertex 74.75 7 6
      vertex 65.25 8 6
      vertex 65.25 7 6
    endloop
  endfacet
  facet normal 0 0 1
    outer loop
      vertex 93.25 7 6
      vertex 88.75 7 6
      vertex 99.656 0 6
    endloop
  endfacet
  facet normal 0 0 1
    outer loop
      vertex 88.75 8 6
      vertex 79.25 8 6
      vertex 88.75 7 6
    endloop
  endfacet
  facet normal 0 0 1
    outer loop
      vertex 88.75 7 6
      vertex 79.25 7 6
      vertex 99.656 0 6
    endloop
  endfacet
  facet normal 0 0 1
    outer loop
      vertex 60.75 7 6
      vertex 51.25 8 6
      vertex 51.25 7 6
    endloop
  endfacet
  facet normal 0 0 1
    outer loop
      vertex 79.25 7 6
      vertex 74.75 7 6
      vertex 99.656 0 6
    endloop
  endfacet
  facet normal 0 0 1
    outer loop
      vertex 74.75 8 6
      vertex 65.25 8 6
      vertex 74.75 7 6
    endloop
  endfacet
  facet normal 0 0 1
    outer loop
      vertex 74.75 7 6
      vertex 65.25 7 6
      vertex 99.656 0 6
    endloop
  endfacet
  facet normal 0 0 1
    outer loop
      vertex 46.75 7 6
      vertex 37.25 8 6
      vertex 37.25 7 6
    endloop
  endfacet
  facet normal 0 0 1
    outer loop
      vertex 65.25 7 6
      vertex 60.75 7 6
      vertex 99.656 0 6
    endloop
  endfacet
  facet normal 0 0 1
    outer loop
      vertex 60.75 8 6
      vertex 51.25 8 6
      vertex 60.75 7 6
    endloop
  endfacet
  facet normal 0 0 1
    outer loop
      vertex 33.8334 2.75279 6
      vertex 51.25 7 6
      vertex 46.75 7 6
    endloop
  endfacet
  facet normal 0 0 1
    outer loop
      vertex 20.2926 2.52879 6
      vertex 20 2.5 6
      vertex 10 0 6
    endloop
  endfacet
  facet normal 0 0 1
    outer loop
      vertex 46.75 8 6
      vertex 37.25 8 6
      vertex 46.75 7 6
    endloop
  endfacet
  facet normal 0 0 1
    outer loop
      vertex 20.574 2.6142 6
      vertex 32.426 2.6142 6
      vertex 32.1666 2.75279 6
    endloop
  endfacet
  facet normal 0 0 1
    outer loop
      vertex 10 0 6
      vertex 9.25 7 6
      vertex 4.75 7 6
    endloop
  endfacet
  facet normal -0 0 1
    outer loop
      vertex 21.2472 4.83339 6
      vertex 21.3858 4.57399 6
      vertex 23.25 7 6
    endloop
  endfacet
  facet normal 0 -0 1
    outer loop
      vertex 31.6142 4.57399 6
      vertex 31.7528 4.83339 6
      vertex 23.25 7 6
    endloop
  endfacet
  facet normal 0 0 1
    outer loop
      vertex 31.6142 4.57399 6
      vertex 23.25 7 6
      vertex 31.5288 4.29259 6
    endloop
  endfacet
  facet normal 0 -0 1
    outer loop
      vertex 19.426 5.38579 6
      vertex 19.7074 5.47119 6
      vertex 18.75 7 6
    endloop
  endfacet
  facet normal 0 0 1
    outer loop
      vertex 10 0 6
      vertex 19.426 2.6142 6
      vertex 19.1666 2.75279 6
    endloop
  endfacet
  facet normal 0 0 1
    outer loop
      vertex 18.75 8 6
      vertex 9.25 8 6
      vertex 18.75 7 6
    endloop
  endfacet
  facet normal 0 0 1
    outer loop
      vertex 9.25 8 6
      vertex 9.25 7 6
      vertex 18.75 7 6
    endloop
  endfacet
  facet normal 0 0 1
    outer loop
      vertex 10 0 6
      vertex 4.75 7 6
      vertex 0 5.7735 6
    endloop
  endfacet
  facet normal 0 0 1
    outer loop
      vertex 4.75 8 6
      vertex 0 8 6
      vertex 4.75 7 6
    endloop
  endfacet
  facet normal 0 0 1
    outer loop
      vertex 0 8 6
      vertex 0 5.7735 6
      vertex 4.75 7 6
    endloop
  endfacet
  facet normal 0 0 1
    outer loop
      vertex 10 0 6
      vertex 32.7074 2.52879 6
      vertex 20.2926 2.52879 6
    endloop
  endfacet
  facet normal 0 0 1
    outer loop
      vertex 10 0 6
      vertex 20 2.5 6
      vertex 19.7074 2.52879 6
    endloop
  endfacet
  facet normal 0 0 1
    outer loop
      vertex 10 0 6
      vertex 19.7074 2.52879 6
      vertex 19.426 2.6142 6
    endloop
  endfacet
  facet normal 0 0 1
    outer loop
      vertex 18.9393 2.93929 6
      vertex 10 0 6
      vertex 19.1666 2.75279 6
    endloop
  endfacet
  facet normal 0 0 1
    outer loop
      vertex 18.7528 3.1666 6
      vertex 10 0 6
      vertex 18.9393 2.93929 6
    endloop
  endfacet
  facet normal 0 0 1
    outer loop
      vertex 18.6142 3.42599 6
      vertex 10 0 6
      vertex 18.7528 3.1666 6
    endloop
  endfacet
  facet normal 0 0 1
    outer loop
      vertex 18.5288 3.7074 6
      vertex 10 0 6
      vertex 18.6142 3.42599 6
    endloop
  endfacet
  facet normal 0 0 1
    outer loop
      vertex 18.5 4 6
      vertex 10 0 6
      vertex 18.5288 3.7074 6
    endloop
  endfacet
  facet normal 0 0 1
    outer loop
      vertex 9.25 7 6
      vertex 18.5 4 6
      vertex 18.5288 4.29259 6
    endloop
  endfacet
  facet normal 0 0 1
    outer loop
      vertex 9.25 7 6
      vertex 10 0 6
      vertex 18.5 4 6
    endloop
  endfacet
  facet normal 0 0 1
    outer loop
      vertex 9.25 7 6
      vertex 18.5288 4.29259 6
      vertex 18.6142 4.57399 6
    endloop
  endfacet
  facet normal -0 0 1
    outer loop
      vertex 9.25 7 6
      vertex 18.6142 4.57399 6
      vertex 18.75 7 6
    endloop
  endfacet
  facet normal 0 0 1
    outer loop
      vertex 18.6142 4.57399 6
      vertex 18.7528 4.83339 6
      vertex 18.75 7 6
    endloop
  endfacet
  facet normal 0 -0 1
    outer loop
      vertex 18.7528 4.83339 6
      vertex 18.9393 5.0607 6
      vertex 18.75 7 6
    endloop
  endfacet
  facet normal 0 -0 1
    outer loop
      vertex 18.9393 5.0607 6
      vertex 19.1666 5.24719 6
      vertex 18.75 7 6
    endloop
  endfacet
  facet normal 0 -0 1
    outer loop
      vertex 19.1666 5.24719 6
      vertex 19.426 5.38579 6
      vertex 18.75 7 6
    endloop
  endfacet
  facet normal 0 0 1
    outer loop
      vertex 18.75 7 6
      vertex 19.7074 5.47119 6
      vertex 20 5.5 6
    endloop
  endfacet
  facet normal 0 0 1
    outer loop
      vertex 18.75 7 6
      vertex 20 5.5 6
      vertex 20.2926 5.47119 6
    endloop
  endfacet
  facet normal -0 0 1
    outer loop
      vertex 18.75 7 6
      vertex 20.2926 5.47119 6
      vertex 23.25 7 6
    endloop
  endfacet
  facet normal -0 0 1
    outer loop
      vertex 20.2926 5.47119 6
      vertex 20.574 5.38579 6
      vertex 23.25 7 6
    endloop
  endfacet
  facet normal -0 0 1
    outer loop
      vertex 20.574 5.38579 6
      vertex 20.8334 5.24719 6
      vertex 23.25 7 6
    endloop
  endfacet
  facet normal -0 0 1
    outer loop
      vertex 20.8334 5.24719 6
      vertex 21.0607 5.0607 6
      vertex 23.25 7 6
    endloop
  endfacet
  facet normal -0 0 1
    outer loop
      vertex 21.0607 5.0607 6
      vertex 21.2472 4.83339 6
      vertex 23.25 7 6
    endloop
  endfacet
  facet normal 0 0 1
    outer loop
      vertex 23.25 7 6
      vertex 21.3858 4.57399 6
      vertex 21.4712 4.29259 6
    endloop
  endfacet
  facet normal 0 0 1
    outer loop
      vertex 23.25 7 6
      vertex 21.4712 4.29259 6
      vertex 21.5 4 6
    endloop
  endfacet
  facet normal 0 0 1
    outer loop
      vertex 23.25 7 6
      vertex 21.5 4 6
      vertex 21.4712 3.7074 6
    endloop
  endfacet
  facet normal 0 0 1
    outer loop
      vertex 31.7528 3.1666 6
      vertex 21.0607 2.93929 6
      vertex 31.9393 2.93929 6
    endloop
  endfacet
  facet normal 0 0 1
    outer loop
      vertex 31.9393 2.93929 6
      vertex 20.8334 2.75279 6
      vertex 32.1666 2.75279 6
    endloop
  endfacet
  facet normal -0 0 1
    outer loop
      vertex 20.8334 2.75279 6
      vertex 20.574 2.6142 6
      vertex 32.1666 2.75279 6
    endloop
  endfacet
  facet normal -0 0 1
    outer loop
      vertex 20.574 2.6142 6
      vertex 20.2926 2.52879 6
      vertex 32.426 2.6142 6
    endloop
  endfacet
  facet normal 0 0 1
    outer loop
      vertex 20.2926 2.52879 6
      vertex 32.7074 2.52879 6
      vertex 32.426 2.6142 6
    endloop
  endfacet
  facet normal 0 -0 1
    outer loop
      vertex 34.4712 4.29259 6
      vertex 37.25 7 6
      vertex 34.3858 4.57399 6
    endloop
  endfacet
  facet normal 0 0 1
    outer loop
      vertex 99.656 0 6
      vertex 33 2.5 6
      vertex 10 0 6
    endloop
  endfacet
  facet normal -0 0 1
    outer loop
      vertex 34.2472 3.1666 6
      vertex 34.0607 2.93929 6
      vertex 46.75 7 6
    endloop
  endfacet
  facet normal 0 0 1
    outer loop
      vertex 10 0 6
      vertex 33 2.5 6
      vertex 32.7074 2.52879 6
    endloop
  endfacet
  facet normal 0 0 1
    outer loop
      vertex 33.574 2.6142 6
      vertex 60.75 7 6
      vertex 51.25 7 6
    endloop
  endfacet
  facet normal -0 0 1
    outer loop
      vertex 21.0607 2.93929 6
      vertex 20.8334 2.75279 6
      vertex 31.9393 2.93929 6
    endloop
  endfacet
  facet normal -0 0 1
    outer loop
      vertex 21.2472 3.1666 6
      vertex 21.0607 2.93929 6
      vertex 31.7528 3.1666 6
    endloop
  endfacet
  facet normal 0 0 1
    outer loop
      vertex 21.2472 3.1666 6
      vertex 31.7528 3.1666 6
      vertex 31.6142 3.42599 6
    endloop
  endfacet
  facet normal 0 0 1
    outer loop
      vertex 21.2472 3.1666 6
      vertex 31.6142 3.42599 6
      vertex 21.3858 3.42599 6
    endloop
  endfacet
  facet normal 0 0 1
    outer loop
      vertex 31.6142 3.42599 6
      vertex 31.5288 3.7074 6
      vertex 21.3858 3.42599 6
    endloop
  endfacet
  facet normal 0 0 1
    outer loop
      vertex 31.5288 3.7074 6
      vertex 21.4712 3.7074 6
      vertex 21.3858 3.42599 6
    endloop
  endfacet
  facet normal 0 0 1
    outer loop
      vertex 23.25 7 6
      vertex 21.4712 3.7074 6
      vertex 31.5288 3.7074 6
    endloop
  endfacet
  facet normal 0 0 1
    outer loop
      vertex 23.25 7 6
      vertex 31.5288 3.7074 6
      vertex 31.5 4 6
    endloop
  endfacet
  facet normal 0 0 1
    outer loop
      vertex 32.75 8 6
      vertex 23.25 8 6
      vertex 31.7528 4.83339 6
    endloop
  endfacet
  facet normal 0 0 1
    outer loop
      vertex 23.25 7 6
      vertex 31.5 4 6
      vertex 31.5288 4.29259 6
    endloop
  endfacet
  facet normal 0 0 1
    outer loop
      vertex 31.7528 4.83339 6
      vertex 23.25 8 6
      vertex 23.25 7 6
    endloop
  endfacet
  facet normal 0 -0 1
    outer loop
      vertex 31.9393 5.0607 6
      vertex 32.75 8 6
      vertex 31.7528 4.83339 6
    endloop
  endfacet
  facet normal 0 -0 1
    outer loop
      vertex 32.75 7 6
      vertex 32.75 8 6
      vertex 31.9393 5.0607 6
    endloop
  endfacet
  facet normal 0 0 1
    outer loop
      vertex 32.75 7 6
      vertex 31.9393 5.0607 6
      vertex 32.1666 5.24719 6
    endloop
  endfacet
  facet normal 0 0 1
    outer loop
      vertex 32.75 7 6
      vertex 32.426 5.38579 6
      vertex 32.7074 5.47119 6
    endloop
  endfacet
  facet normal 0 0 1
    outer loop
      vertex 32.75 7 6
      vertex 32.1666 5.24719 6
      vertex 32.426 5.38579 6
    endloop
  endfacet
  facet normal 0 0 1
    outer loop
      vertex 33 5.5 6
      vertex 32.75 7 6
      vertex 32.7074 5.47119 6
    endloop
  endfacet
  facet normal 0 0 1
    outer loop
      vertex 33.2926 5.47119 6
      vertex 32.75 7 6
      vertex 33 5.5 6
    endloop
  endfacet
  facet normal 0 0 1
    outer loop
      vertex 33.574 5.38579 6
      vertex 32.75 7 6
      vertex 33.2926 5.47119 6
    endloop
  endfacet
  facet normal 0 0 1
    outer loop
      vertex 33.8334 5.24719 6
      vertex 32.75 7 6
      vertex 33.574 5.38579 6
    endloop
  endfacet
  facet normal 0 0 1
    outer loop
      vertex 37.25 7 6
      vertex 32.75 7 6
      vertex 33.8334 5.24719 6
    endloop
  endfacet
  facet normal 0 0 1
    outer loop
      vertex 37.25 7 6
      vertex 33.8334 5.24719 6
      vertex 34.0607 5.0607 6
    endloop
  endfacet
  facet normal 0 0 1
    outer loop
      vertex 37.25 7 6
      vertex 34.0607 5.0607 6
      vertex 34.2472 4.83339 6
    endloop
  endfacet
  facet normal 0 0 1
    outer loop
      vertex 37.25 7 6
      vertex 34.2472 4.83339 6
      vertex 34.3858 4.57399 6
    endloop
  endfacet
  facet normal 0 -0 1
    outer loop
      vertex 34.5 4 6
      vertex 37.25 7 6
      vertex 34.4712 4.29259 6
    endloop
  endfacet
  facet normal 0 0 1
    outer loop
      vertex 34.4712 3.7074 6
      vertex 37.25 7 6
      vertex 34.5 4 6
    endloop
  endfacet
  facet normal 0 0 1
    outer loop
      vertex 34.3858 3.42599 6
      vertex 37.25 7 6
      vertex 34.4712 3.7074 6
    endloop
  endfacet
  facet normal 0 0 1
    outer loop
      vertex 46.75 7 6
      vertex 37.25 7 6
      vertex 34.3858 3.42599 6
    endloop
  endfacet
  facet normal 0 0 1
    outer loop
      vertex 46.75 7 6
      vertex 34.3858 3.42599 6
      vertex 34.2472 3.1666 6
    endloop
  endfacet
  facet normal 0 0 1
    outer loop
      vertex 33.8334 2.75279 6
      vertex 46.75 7 6
      vertex 34.0607 2.93929 6
    endloop
  endfacet
  facet normal 0 0 1
    outer loop
      vertex 33.574 2.6142 6
      vertex 51.25 7 6
      vertex 33.8334 2.75279 6
    endloop
  endfacet
  facet normal 0 0 1
    outer loop
      vertex 99.656 0 6
      vertex 60.75 7 6
      vertex 33.574 2.6142 6
    endloop
  endfacet
  facet normal 0 0 1
    outer loop
      vertex 99.656 0 6
      vertex 33.2926 2.52879 6
      vertex 33 2.5 6
    endloop
  endfacet
  facet normal 0 0 1
    outer loop
      vertex 99.656 0 6
      vertex 33.574 2.6142 6
      vertex 33.2926 2.52879 6
    endloop
  endfacet
  facet normal 0 -1 0
    outer loop
      vertex 104.156 1 0
      vertex 99.656 1 6
      vertex 99.656 1 0
    endloop
  endfacet
  facet normal 0 -1 0
    outer loop
      vertex 104.156 1 0
      vertex 104.156 1 6
      vertex 99.656 1 6
    endloop
  endfacet
  facet normal -1 0 0
    outer loop
      vertex 104.156 0 0
      vertex 104.156 1 6
      vertex 104.156 1 0
    endloop
  endfacet
  facet normal -1 0 0
    outer loop
      vertex 104.156 0 0
      vertex 104.156 0 6
      vertex 104.156 1 6
    endloop
  endfacet
  facet normal 0 -1 0
    outer loop
      vertex 129.696 0 0
      vertex 104.156 0 6
      vertex 104.156 0 0
    endloop
  endfacet
  facet normal 0 -1 0
    outer loop
      vertex 129.696 0 0
      vertex 129.696 0 6
      vertex 104.156 0 6
    endloop
  endfacet
  facet normal 0.865969 -0.500097 0
    outer loop
      vertex 132.006 4 0
      vertex 129.696 0 6
      vertex 129.696 0 0
    endloop
  endfacet
  facet normal 0.865969 -0.500097 0
    outer loop
      vertex 132.006 4 0
      vertex 132.006 4 6
      vertex 129.696 0 6
    endloop
  endfacet
  facet normal 0.499983 0.866035 0
    outer loop
      vertex 129.408 5.49989 0
      vertex 132.006 4 6
      vertex 132.006 4 0
    endloop
  endfacet
  facet normal 0.499983 0.866035 -0
    outer loop
      vertex 129.408 5.49989 0
      vertex 129.408 5.49989 6
      vertex 132.006 4 6
    endloop
  endfacet
  facet normal 0.866091 -0.499886 0
    outer loop
      vertex 130.851 8 0
      vertex 129.408 5.49989 6
      vertex 129.408 5.49989 0
    endloop
  endfacet
  facet normal 0.866091 -0.499886 0
    outer loop
      vertex 130.851 8 0
      vertex 130.851 8 6
      vertex 129.408 5.49989 6
    endloop
  endfacet
  facet normal 0 1 0
    outer loop
      vertex 121.25 8 0
      vertex 130.851 8 6
      vertex 130.851 8 0
    endloop
  endfacet
  facet normal 0 1 0
    outer loop
      vertex 121.25 8 0
      vertex 121.25 8 6
      vertex 130.851 8 6
    endloop
  endfacet
  facet normal -1 0 0
    outer loop
      vertex 121.25 7 0
      vertex 121.25 8 6
      vertex 121.25 8 0
    endloop
  endfacet
  facet normal -1 0 0
    outer loop
      vertex 121.25 7 0
      vertex 121.25 7 6
      vertex 121.25 8 6
    endloop
  endfacet
  facet normal 0 1 0
    outer loop
      vertex 116.75 7 0
      vertex 121.25 7 6
      vertex 121.25 7 0
    endloop
  endfacet
  facet normal 0 1 0
    outer loop
      vertex 116.75 7 0
      vertex 116.75 7 6
      vertex 121.25 7 6
    endloop
  endfacet
  facet normal 1 0 0
    outer loop
      vertex 116.75 8 0
      vertex 116.75 7 6
      vertex 116.75 7 0
    endloop
  endfacet
  facet normal 1 0 -0
    outer loop
      vertex 116.75 8 0
      vertex 116.75 8 6
      vertex 116.75 7 6
    endloop
  endfacet
  facet normal 0 1 0
    outer loop
      vertex 107.25 8 0
      vertex 116.75 8 6
      vertex 116.75 8 0
    endloop
  endfacet
  facet normal 0 1 0
    outer loop
      vertex 107.25 8 0
      vertex 107.25 8 6
      vertex 116.75 8 6
    endloop
  endfacet
  facet normal -1 0 0
    outer loop
      vertex 107.25 7 0
      vertex 107.25 8 6
      vertex 107.25 8 0
    endloop
  endfacet
  facet normal -1 0 0
    outer loop
      vertex 107.25 7 0
      vertex 107.25 7 6
      vertex 107.25 8 6
    endloop
  endfacet
  facet normal 0 1 0
    outer loop
      vertex 102.75 7 0
      vertex 107.25 7 6
      vertex 107.25 7 0
    endloop
  endfacet
  facet normal 0 1 0
    outer loop
      vertex 102.75 7 0
      vertex 102.75 7 6
      vertex 107.25 7 6
    endloop
  endfacet
  facet normal 1 0 0
    outer loop
      vertex 102.75 8 0
      vertex 102.75 7 6
      vertex 102.75 7 0
    endloop
  endfacet
  facet normal 1 0 -0
    outer loop
      vertex 102.75 8 0
      vertex 102.75 8 6
      vertex 102.75 7 6
    endloop
  endfacet
  facet normal 0 1 0
    outer loop
      vertex 93.25 8 0
      vertex 102.75 8 6
      vertex 102.75 8 0
    endloop
  endfacet
  facet normal 0 1 0
    outer loop
      vertex 93.25 8 0
      vertex 93.25 8 6
      vertex 102.75 8 6
    endloop
  endfacet
  facet normal -1 0 0
    outer loop
      vertex 93.25 7 0
      vertex 93.25 8 6
      vertex 93.25 8 0
    endloop
  endfacet
  facet normal -1 0 0
    outer loop
      vertex 93.25 7 0
      vertex 93.25 7 6
      vertex 93.25 8 6
    endloop
  endfacet
  facet normal 0 1 0
    outer loop
      vertex 88.75 7 0
      vertex 93.25 7 6
      vertex 93.25 7 0
    endloop
  endfacet
  facet normal 0 1 0
    outer loop
      vertex 88.75 7 0
      vertex 88.75 7 6
      vertex 93.25 7 6
    endloop
  endfacet
  facet normal 1 0 0
    outer loop
      vertex 88.75 8 0
      vertex 88.75 7 6
      vertex 88.75 7 0
    endloop
  endfacet
  facet normal 1 0 -0
    outer loop
      vertex 88.75 8 0
      vertex 88.75 8 6
      vertex 88.75 7 6
    endloop
  endfacet
  facet normal 0 1 0
    outer loop
      vertex 79.25 8 0
      vertex 88.75 8 6
      vertex 88.75 8 0
    endloop
  endfacet
  facet normal 0 1 0
    outer loop
      vertex 79.25 8 0
      vertex 79.25 8 6
      vertex 88.75 8 6
    endloop
  endfacet
  facet normal -1 0 0
    outer loop
      vertex 79.25 7 0
      vertex 79.25 8 6
      vertex 79.25 8 0
    endloop
  endfacet
  facet normal -1 0 0
    outer loop
      vertex 79.25 7 0
      vertex 79.25 7 6
      vertex 79.25 8 6
    endloop
  endfacet
  facet normal 0 1 0
    outer loop
      vertex 74.75 7 0
      vertex 79.25 7 6
      vertex 79.25 7 0
    endloop
  endfacet
  facet normal 0 1 0
    outer loop
      vertex 74.75 7 0
      vertex 74.75 7 6
      vertex 79.25 7 6
    endloop
  endfacet
  facet normal 1 0 0
    outer loop
      vertex 74.75 8 0
      vertex 74.75 7 6
      vertex 74.75 7 0
    endloop
  endfacet
  facet normal 1 0 -0
    outer loop
      vertex 74.75 8 0
      vertex 74.75 8 6
      vertex 74.75 7 6
    endloop
  endfacet
  facet normal 0 1 0
    outer loop
      vertex 65.25 8 0
      vertex 74.75 8 6
      vertex 74.75 8 0
    endloop
  endfacet
  facet normal 0 1 0
    outer loop
      vertex 65.25 8 0
      vertex 65.25 8 6
      vertex 74.75 8 6
    endloop
  endfacet
  facet normal -1 0 0
    outer loop
      vertex 65.25 7 0
      vertex 65.25 8 6
      vertex 65.25 8 0
    endloop
  endfacet
  facet normal -1 0 0
    outer loop
      vertex 65.25 7 0
      vertex 65.25 7 6
      vertex 65.25 8 6
    endloop
  endfacet
  facet normal 0 1 0
    outer loop
      vertex 60.75 7 0
      vertex 65.25 7 6
      vertex 65.25 7 0
    endloop
  endfacet
  facet normal 0 1 0
    outer loop
      vertex 60.75 7 0
      vertex 60.75 7 6
      vertex 65.25 7 6
    endloop
  endfacet
  facet normal 1 0 0
    outer loop
      vertex 60.75 8 0
      vertex 60.75 7 6
      vertex 60.75 7 0
    endloop
  endfacet
  facet normal 1 0 -0
    outer loop
      vertex 60.75 8 0
      vertex 60.75 8 6
      vertex 60.75 7 6
    endloop
  endfacet
  facet normal 0 1 0
    outer loop
      vertex 51.25 8 0
      vertex 60.75 8 6
      vertex 60.75 8 0
    endloop
  endfacet
  facet normal 0 1 0
    outer loop
      vertex 51.25 8 0
      vertex 51.25 8 6
      vertex 60.75 8 6
    endloop
  endfacet
  facet normal -1 0 0
    outer loop
      vertex 51.25 7 0
      vertex 51.25 8 6
      vertex 51.25 8 0
    endloop
  endfacet
  facet normal -1 0 0
    outer loop
      vertex 51.25 7 0
      vertex 51.25 7 6
      vertex 51.25 8 6
    endloop
  endfacet
  facet normal 0 1 0
    outer loop
      vertex 46.75 7 0
      vertex 51.25 7 6
      vertex 51.25 7 0
    endloop
  endfacet
  facet normal 0 1 0
    outer loop
      vertex 46.75 7 0
      vertex 46.75 7 6
      vertex 51.25 7 6
    endloop
  endfacet
  facet normal 1 0 0
    outer loop
      vertex 46.75 8 0
      vertex 46.75 7 6
      vertex 46.75 7 0
    endloop
  endfacet
  facet normal 1 0 -0
    outer loop
      vertex 46.75 8 0
      vertex 46.75 8 6
      vertex 46.75 7 6
    endloop
  endfacet
  facet normal 0 1 0
    outer loop
      vertex 37.25 8 0
      vertex 46.75 8 6
      vertex 46.75 8 0
    endloop
  endfacet
  facet normal 0 1 0
    outer loop
      vertex 37.25 8 0
      vertex 37.25 8 6
      vertex 46.75 8 6
    endloop
  endfacet
  facet normal -1 0 0
    outer loop
      vertex 37.25 7 0
      vertex 37.25 8 6
      vertex 37.25 8 0
    endloop
  endfacet
  facet normal -1 0 0
    outer loop
      vertex 37.25 7 0
      vertex 37.25 7 6
      vertex 37.25 8 6
    endloop
  endfacet
  facet normal 0 1 0
    outer loop
      vertex 32.75 7 0
      vertex 37.25 7 6
      vertex 37.25 7 0
    endloop
  endfacet
  facet normal 0 1 0
    outer loop
      vertex 32.75 7 0
      vertex 32.75 7 6
      vertex 37.25 7 6
    endloop
  endfacet
  facet normal 1 0 0
    outer loop
      vertex 32.75 8 0
      vertex 32.75 7 6
      vertex 32.75 7 0
    endloop
  endfacet
  facet normal 1 0 -0
    outer loop
      vertex 32.75 8 0
      vertex 32.75 8 6
      vertex 32.75 7 6
    endloop
  endfacet
  facet normal 0 1 0
    outer loop
      vertex 23.25 8 0
      vertex 32.75 8 6
      vertex 32.75 8 0
    endloop
  endfacet
  facet normal 0 1 0
    outer loop
      vertex 23.25 8 0
      vertex 23.25 8 6
      vertex 32.75 8 6
    endloop
  endfacet
  facet normal -1 0 0
    outer loop
      vertex 23.25 7 0
      vertex 23.25 8 6
      vertex 23.25 8 0
    endloop
  endfacet
  facet normal -1 0 0
    outer loop
      vertex 23.25 7 0
      vertex 23.25 7 6
      vertex 23.25 8 6
    endloop
  endfacet
  facet normal 0 1 0
    outer loop
      vertex 18.75 7 0
      vertex 23.25 7 6
      vertex 23.25 7 0
    endloop
  endfacet
  facet normal 0 1 0
    outer loop
      vertex 18.75 7 0
      vertex 18.75 7 6
      vertex 23.25 7 6
    endloop
  endfacet
  facet normal 1 0 0
    outer loop
      vertex 18.75 8 0
      vertex 18.75 7 6
      vertex 18.75 7 0
    endloop
  endfacet
  facet normal 1 0 -0
    outer loop
      vertex 18.75 8 0
      vertex 18.75 8 6
      vertex 18.75 7 6
    endloop
  endfacet
  facet normal 0 1 0
    outer loop
      vertex 9.25 8 0
      vertex 18.75 8 6
      vertex 18.75 8 0
    endloop
  endfacet
  facet normal 0 1 0
    outer loop
      vertex 9.25 8 0
      vertex 9.25 8 6
      vertex 18.75 8 6
    endloop
  endfacet
  facet normal -1 0 0
    outer loop
      vertex 9.25 7 0
      vertex 9.25 8 6
      vertex 9.25 8 0
    endloop
  endfacet
  facet normal -1 0 0
    outer loop
      vertex 9.25 7 0
      vertex 9.25 7 6
      vertex 9.25 8 6
    endloop
  endfacet
  facet normal 0 1 0
    outer loop
      vertex 4.75 7 0
      vertex 9.25 7 6
      vertex 9.25 7 0
    endloop
  endfacet
  facet normal 0 1 0
    outer loop
      vertex 4.75 7 0
      vertex 4.75 7 6
      vertex 9.25 7 6
    endloop
  endfacet
  facet normal 1 0 0
    outer loop
      vertex 4.75 8 0
      vertex 4.75 7 6
      vertex 4.75 7 0
    endloop
  endfacet
  facet normal 1 0 -0
    outer loop
      vertex 4.75 8 0
      vertex 4.75 8 6
      vertex 4.75 7 6
    endloop
  endfacet
  facet normal 0 1 0
    outer loop
      vertex 0 8 0
      vertex 4.75 8 6
      vertex 4.75 8 0
    endloop
  endfacet
  facet normal 0 1 0
    outer loop
      vertex 0 8 0
      vertex 0 8 6
      vertex 4.75 8 6
    endloop
  endfacet
  facet normal -1 0 0
    outer loop
      vertex 0 5.7735 0
      vertex 0 8 6
      vertex 0 8 0
    endloop
  endfacet
  facet normal -1 0 0
    outer loop
      vertex 0 5.7735 0
      vertex 0 5.7735 6
      vertex 0 8 6
    endloop
  endfacet
  facet normal -0.5 -0.866026 0
    outer loop
      vertex 10 0 0
      vertex 0 5.7735 6
      vertex 0 5.7735 0
    endloop
  endfacet
  facet normal -0.5 -0.866026 0
    outer loop
      vertex 10 0 0
      vertex 10 0 6
      vertex 0 5.7735 6
    endloop
  endfacet
  facet normal 0 -1 0
    outer loop
      vertex 99.656 0 0
      vertex 10 0 6
      vertex 10 0 0
    endloop
  endfacet
  facet normal 0 -1 0
    outer loop
      vertex 99.656 0 0
      vertex 99.656 0 6
      vertex 10 0 6
    endloop
  endfacet
  facet normal 1 0 0
    outer loop
      vertex 99.656 1 0
      vertex 99.656 0 6
      vertex 99.656 0 0
    endloop
  endfacet
  facet normal 1 0 -0
    outer loop
      vertex 99.656 1 0
      vertex 99.656 1 6
      vertex 99.656 0 6
    endloop
  endfacet
  facet normal 0.290435 0.956895 -0
    outer loop
      vertex 19.426 2.6142 0
      vertex 19.426 2.6142 6
      vertex 19.7074 2.52879 0
    endloop
  endfacet
  facet normal 0.290435 0.956895 0
    outer loop
      vertex 19.7074 2.52879 6
      vertex 19.7074 2.52879 0
      vertex 19.426 2.6142 6
    endloop
  endfacet
  facet normal 0.471232 0.882009 -0
    outer loop
      vertex 19.1666 2.75279 0
      vertex 19.1666 2.75279 6
      vertex 19.426 2.6142 0
    endloop
  endfacet
  facet normal 0.471232 0.882009 0
    outer loop
      vertex 19.426 2.6142 6
      vertex 19.426 2.6142 0
      vertex 19.1666 2.75279 6
    endloop
  endfacet
  facet normal 0.634311 0.773078 -0
    outer loop
      vertex 18.9393 2.93929 0
      vertex 18.9393 2.93929 6
      vertex 19.1666 2.75279 0
    endloop
  endfacet
  facet normal 0.634311 0.773078 0
    outer loop
      vertex 19.1666 2.75279 6
      vertex 19.1666 2.75279 0
      vertex 18.9393 2.93929 6
    endloop
  endfacet
  facet normal 0.773091 0.634295 -0
    outer loop
      vertex 18.7528 3.1666 0
      vertex 18.7528 3.1666 6
      vertex 18.9393 2.93929 0
    endloop
  endfacet
  facet normal 0.773091 0.634295 0
    outer loop
      vertex 18.9393 2.93929 6
      vertex 18.9393 2.93929 0
      vertex 18.7528 3.1666 6
    endloop
  endfacet
  facet normal 0.881987 0.471273 -0
    outer loop
      vertex 18.6142 3.42599 0
      vertex 18.6142 3.42599 6
      vertex 18.7528 3.1666 0
    endloop
  endfacet
  facet normal 0.881987 0.471273 0
    outer loop
      vertex 18.7528 3.1666 6
      vertex 18.7528 3.1666 0
      vertex 18.6142 3.42599 6
    endloop
  endfacet
  facet normal 0.956907 0.290394 -0
    outer loop
      vertex 18.5288 3.7074 0
      vertex 18.5288 3.7074 6
      vertex 18.6142 3.42599 0
    endloop
  endfacet
  facet normal 0.956907 0.290394 0
    outer loop
      vertex 18.6142 3.42599 6
      vertex 18.6142 3.42599 0
      vertex 18.5288 3.7074 6
    endloop
  endfacet
  facet normal 0.995191 0.0979545 -0
    outer loop
      vertex 18.5 4 0
      vertex 18.5 4 6
      vertex 18.5288 3.7074 0
    endloop
  endfacet
  facet normal 0.995191 0.0979545 0
    outer loop
      vertex 18.5288 3.7074 6
      vertex 18.5288 3.7074 0
      vertex 18.5 4 6
    endloop
  endfacet
  facet normal 0.995191 -0.0979579 0
    outer loop
      vertex 18.5288 4.29259 0
      vertex 18.5288 4.29259 6
      vertex 18.5 4 0
    endloop
  endfacet
  facet normal 0.995191 -0.0979579 0
    outer loop
      vertex 18.5 4 6
      vertex 18.5 4 0
      vertex 18.5288 4.29259 6
    endloop
  endfacet
  facet normal 0.956904 -0.290404 0
    outer loop
      vertex 18.6142 4.57399 0
      vertex 18.6142 4.57399 6
      vertex 18.5288 4.29259 0
    endloop
  endfacet
  facet normal 0.956904 -0.290404 0
    outer loop
      vertex 18.5288 4.29259 6
      vertex 18.5288 4.29259 0
      vertex 18.6142 4.57399 6
    endloop
  endfacet
  facet normal 0.881995 -0.471259 0
    outer loop
      vertex 18.7528 4.83339 0
      vertex 18.7528 4.83339 6
      vertex 18.6142 4.57399 0
    endloop
  endfacet
  facet normal 0.881995 -0.471259 0
    outer loop
      vertex 18.6142 4.57399 6
      vertex 18.6142 4.57399 0
      vertex 18.7528 4.83339 6
    endloop
  endfacet
  facet normal 0.773091 -0.634295 0
    outer loop
      vertex 18.9393 5.0607 0
      vertex 18.9393 5.0607 6
      vertex 18.7528 4.83339 0
    endloop
  endfacet
  facet normal 0.773091 -0.634295 0
    outer loop
      vertex 18.7528 4.83339 6
      vertex 18.7528 4.83339 0
      vertex 18.9393 5.0607 6
    endloop
  endfacet
  facet normal 0.634291 -0.773094 0
    outer loop
      vertex 19.1666 5.24719 0
      vertex 19.1666 5.24719 6
      vertex 18.9393 5.0607 0
    endloop
  endfacet
  facet normal 0.634291 -0.773094 0
    outer loop
      vertex 18.9393 5.0607 6
      vertex 18.9393 5.0607 0
      vertex 19.1666 5.24719 6
    endloop
  endfacet
  facet normal 0.471259 -0.881995 0
    outer loop
      vertex 19.426 5.38579 0
      vertex 19.426 5.38579 6
      vertex 19.1666 5.24719 0
    endloop
  endfacet
  facet normal 0.471259 -0.881995 0
    outer loop
      vertex 19.1666 5.24719 6
      vertex 19.1666 5.24719 0
      vertex 19.426 5.38579 6
    endloop
  endfacet
  facet normal 0.290404 -0.956904 0
    outer loop
      vertex 19.7074 5.47119 0
      vertex 19.7074 5.47119 6
      vertex 19.426 5.38579 0
    endloop
  endfacet
  facet normal 0.290404 -0.956904 0
    outer loop
      vertex 19.426 5.38579 6
      vertex 19.426 5.38579 0
      vertex 19.7074 5.47119 6
    endloop
  endfacet
  facet normal 0.0979882 -0.995188 0
    outer loop
      vertex 20 5.5 0
      vertex 20 5.5 6
      vertex 19.7074 5.47119 0
    endloop
  endfacet
  facet normal 0.0979882 -0.995188 0
    outer loop
      vertex 19.7074 5.47119 6
      vertex 19.7074 5.47119 0
      vertex 20 5.5 6
    endloop
  endfacet
  facet normal -0.0979882 -0.995188 0
    outer loop
      vertex 20.2926 5.47119 0
      vertex 20.2926 5.47119 6
      vertex 20 5.5 0
    endloop
  endfacet
  facet normal -0.0979882 -0.995188 -0
    outer loop
      vertex 20 5.5 6
      vertex 20 5.5 0
      vertex 20.2926 5.47119 6
    endloop
  endfacet
  facet normal -0.290404 -0.956904 0
    outer loop
      vertex 20.574 5.38579 0
      vertex 20.574 5.38579 6
      vertex 20.2926 5.47119 0
    endloop
  endfacet
  facet normal -0.290404 -0.956904 -0
    outer loop
      vertex 20.2926 5.47119 6
      vertex 20.2926 5.47119 0
      vertex 20.574 5.38579 6
    endloop
  endfacet
  facet normal -0.471259 -0.881995 0
    outer loop
      vertex 20.8334 5.24719 0
      vertex 20.8334 5.24719 6
      vertex 20.574 5.38579 0
    endloop
  endfacet
  facet normal -0.471259 -0.881995 -0
    outer loop
      vertex 20.574 5.38579 6
      vertex 20.574 5.38579 0
      vertex 20.8334 5.24719 6
    endloop
  endfacet
  facet normal -0.634291 -0.773094 0
    outer loop
      vertex 21.0607 5.0607 0
      vertex 21.0607 5.0607 6
      vertex 20.8334 5.24719 0
    endloop
  endfacet
  facet normal -0.634291 -0.773094 -0
    outer loop
      vertex 20.8334 5.24719 6
      vertex 20.8334 5.24719 0
      vertex 21.0607 5.0607 6
    endloop
  endfacet
  facet normal -0.773091 -0.634295 0
    outer loop
      vertex 21.2472 4.83339 0
      vertex 21.2472 4.83339 6
      vertex 21.0607 5.0607 0
    endloop
  endfacet
  facet normal -0.773091 -0.634295 -0
    outer loop
      vertex 21.0607 5.0607 6
      vertex 21.0607 5.0607 0
      vertex 21.2472 4.83339 6
    endloop
  endfacet
  facet normal -0.881995 -0.471259 0
    outer loop
      vertex 21.3858 4.57399 0
      vertex 21.3858 4.57399 6
      vertex 21.2472 4.83339 0
    endloop
  endfacet
  facet normal -0.881995 -0.471259 -0
    outer loop
      vertex 21.2472 4.83339 6
      vertex 21.2472 4.83339 0
      vertex 21.3858 4.57399 6
    endloop
  endfacet
  facet normal -0.956904 -0.290404 0
    outer loop
      vertex 21.4712 4.29259 0
      vertex 21.4712 4.29259 6
      vertex 21.3858 4.57399 0
    endloop
  endfacet
  facet normal -0.956904 -0.290404 -0
    outer loop
      vertex 21.3858 4.57399 6
      vertex 21.3858 4.57399 0
      vertex 21.4712 4.29259 6
    endloop
  endfacet
  facet normal -0.995191 -0.0979579 0
    outer loop
      vertex 21.5 4 0
      vertex 21.5 4 6
      vertex 21.4712 4.29259 0
    endloop
  endfacet
  facet normal -0.995191 -0.0979579 -0
    outer loop
      vertex 21.4712 4.29259 6
      vertex 21.4712 4.29259 0
      vertex 21.5 4 6
    endloop
  endfacet
  facet normal -0.995191 0.0979545 0
    outer loop
      vertex 21.4712 3.7074 0
      vertex 21.4712 3.7074 6
      vertex 21.5 4 0
    endloop
  endfacet
  facet normal -0.995191 0.0979545 0
    outer loop
      vertex 21.5 4 6
      vertex 21.5 4 0
      vertex 21.4712 3.7074 6
    endloop
  endfacet
  facet normal -0.956907 0.290394 0
    outer loop
      vertex 21.3858 3.42599 0
      vertex 21.3858 3.42599 6
      vertex 21.4712 3.7074 0
    endloop
  endfacet
  facet normal -0.956907 0.290394 0
    outer loop
      vertex 21.4712 3.7074 6
      vertex 21.4712 3.7074 0
      vertex 21.3858 3.42599 6
    endloop
  endfacet
  facet normal -0.881987 0.471273 0
    outer loop
      vertex 21.2472 3.1666 0
      vertex 21.2472 3.1666 6
      vertex 21.3858 3.42599 0
    endloop
  endfacet
  facet normal -0.881987 0.471273 0
    outer loop
      vertex 21.3858 3.42599 6
      vertex 21.3858 3.42599 0
      vertex 21.2472 3.1666 6
    endloop
  endfacet
  facet normal -0.773091 0.634295 0
    outer loop
      vertex 21.0607 2.93929 0
      vertex 21.0607 2.93929 6
      vertex 21.2472 3.1666 0
    endloop
  endfacet
  facet normal -0.773091 0.634295 0
    outer loop
      vertex 21.2472 3.1666 6
      vertex 21.2472 3.1666 0
      vertex 21.0607 2.93929 6
    endloop
  endfacet
  facet normal -0.634311 0.773078 0
    outer loop
      vertex 20.8334 2.75279 0
      vertex 20.8334 2.75279 6
      vertex 21.0607 2.93929 0
    endloop
  endfacet
  facet normal -0.634311 0.773078 0
    outer loop
      vertex 21.0607 2.93929 6
      vertex 21.0607 2.93929 0
      vertex 20.8334 2.75279 6
    endloop
  endfacet
  facet normal -0.471232 0.882009 0
    outer loop
      vertex 20.574 2.6142 0
      vertex 20.574 2.6142 6
      vertex 20.8334 2.75279 0
    endloop
  endfacet
  facet normal -0.471232 0.882009 0
    outer loop
      vertex 20.8334 2.75279 6
      vertex 20.8334 2.75279 0
      vertex 20.574 2.6142 6
    endloop
  endfacet
  facet normal -0.290435 0.956895 0
    outer loop
      vertex 20.2926 2.52879 0
      vertex 20.2926 2.52879 6
      vertex 20.574 2.6142 0
    endloop
  endfacet
  facet normal -0.290435 0.956895 0
    outer loop
      vertex 20.574 2.6142 6
      vertex 20.574 2.6142 0
      vertex 20.2926 2.52879 6
    endloop
  endfacet
  facet normal -0.0979209 0.995194 0
    outer loop
      vertex 20 2.5 0
      vertex 20 2.5 6
      vertex 20.2926 2.52879 0
    endloop
  endfacet
  facet normal -0.0979209 0.995194 0
    outer loop
      vertex 20.2926 2.52879 6
      vertex 20.2926 2.52879 0
      vertex 20 2.5 6
    endloop
  endfacet
  facet normal 0.0979209 0.995194 -0
    outer loop
      vertex 19.7074 2.52879 0
      vertex 19.7074 2.52879 6
      vertex 20 2.5 0
    endloop
  endfacet
  facet normal 0.0979209 0.995194 0
    outer loop
      vertex 20 2.5 6
      vertex 20 2.5 0
      vertex 19.7074 2.52879 6
    endloop
  endfacet
  facet normal 0.290435 0.956895 -0
    outer loop
      vertex 32.426 2.6142 0
      vertex 32.426 2.6142 6
      vertex 32.7074 2.52879 0
    endloop
  endfacet
  facet normal 0.290435 0.956895 0
    outer loop
      vertex 32.7074 2.52879 6
      vertex 32.7074 2.52879 0
      vertex 32.426 2.6142 6
    endloop
  endfacet
  facet normal 0.471232 0.882009 -0
    outer loop
      vertex 32.1666 2.75279 0
      vertex 32.1666 2.75279 6
      vertex 32.426 2.6142 0
    endloop
  endfacet
  facet normal 0.471232 0.882009 0
    outer loop
      vertex 32.426 2.6142 6
      vertex 32.426 2.6142 0
      vertex 32.1666 2.75279 6
    endloop
  endfacet
  facet normal 0.634311 0.773078 -0
    outer loop
      vertex 31.9393 2.93929 0
      vertex 31.9393 2.93929 6
      vertex 32.1666 2.75279 0
    endloop
  endfacet
  facet normal 0.634311 0.773078 0
    outer loop
      vertex 32.1666 2.75279 6
      vertex 32.1666 2.75279 0
      vertex 31.9393 2.93929 6
    endloop
  endfacet
  facet normal 0.773091 0.634295 -0
    outer loop
      vertex 31.7528 3.1666 0
      vertex 31.7528 3.1666 6
      vertex 31.9393 2.93929 0
    endloop
  endfacet
  facet normal 0.773091 0.634295 0
    outer loop
      vertex 31.9393 2.93929 6
      vertex 31.9393 2.93929 0
      vertex 31.7528 3.1666 6
    endloop
  endfacet
  facet normal 0.881987 0.471273 -0
    outer loop
      vertex 31.6142 3.42599 0
      vertex 31.6142 3.42599 6
      vertex 31.7528 3.1666 0
    endloop
  endfacet
  facet normal 0.881987 0.471273 0
    outer loop
      vertex 31.7528 3.1666 6
      vertex 31.7528 3.1666 0
      vertex 31.6142 3.42599 6
    endloop
  endfacet
  facet normal 0.956907 0.290394 -0
    outer loop
      vertex 31.5288 3.7074 0
      vertex 31.5288 3.7074 6
      vertex 31.6142 3.42599 0
    endloop
  endfacet
  facet normal 0.956907 0.290394 0
    outer loop
      vertex 31.6142 3.42599 6
      vertex 31.6142 3.42599 0
      vertex 31.5288 3.7074 6
    endloop
  endfacet
  facet normal 0.995191 0.0979545 -0
    outer loop
      vertex 31.5 4 0
      vertex 31.5 4 6
      vertex 31.5288 3.7074 0
    endloop
  endfacet
  facet normal 0.995191 0.0979545 0
    outer loop
      vertex 31.5288 3.7074 6
      vertex 31.5288 3.7074 0
      vertex 31.5 4 6
    endloop
  endfacet
  facet normal 0.995191 -0.0979579 0
    outer loop
      vertex 31.5288 4.29259 0
      vertex 31.5288 4.29259 6
      vertex 31.5 4 0
    endloop
  endfacet
  facet normal 0.995191 -0.0979579 0
    outer loop
      vertex 31.5 4 6
      vertex 31.5 4 0
      vertex 31.5288 4.29259 6
    endloop
  endfacet
  facet normal 0.956904 -0.290404 0
    outer loop
      vertex 31.6142 4.57399 0
      vertex 31.6142 4.57399 6
      vertex 31.5288 4.29259 0
    endloop
  endfacet
  facet normal 0.956904 -0.290404 0
    outer loop
      vertex 31.5288 4.29259 6
      vertex 31.5288 4.29259 0
      vertex 31.6142 4.57399 6
    endloop
  endfacet
  facet normal 0.881995 -0.471259 0
    outer loop
      vertex 31.7528 4.83339 0
      vertex 31.7528 4.83339 6
      vertex 31.6142 4.57399 0
    endloop
  endfacet
  facet normal 0.881995 -0.471259 0
    outer loop
      vertex 31.6142 4.57399 6
      vertex 31.6142 4.57399 0
      vertex 31.7528 4.83339 6
    endloop
  endfacet
  facet normal 0.773091 -0.634295 0
    outer loop
      vertex 31.9393 5.0607 0
      vertex 31.9393 5.0607 6
      vertex 31.7528 4.83339 0
    endloop
  endfacet
  facet normal 0.773091 -0.634295 0
    outer loop
      vertex 31.7528 4.83339 6
      vertex 31.7528 4.83339 0
      vertex 31.9393 5.0607 6
    endloop
  endfacet
  facet normal 0.634291 -0.773094 0
    outer loop
      vertex 32.1666 5.24719 0
      vertex 32.1666 5.24719 6
      vertex 31.9393 5.0607 0
    endloop
  endfacet
  facet normal 0.634291 -0.773094 0
    outer loop
      vertex 31.9393 5.0607 6
      vertex 31.9393 5.0607 0
      vertex 32.1666 5.24719 6
    endloop
  endfacet
  facet normal 0.471259 -0.881995 0
    outer loop
      vertex 32.426 5.38579 0
      vertex 32.426 5.38579 6
      vertex 32.1666 5.24719 0
    endloop
  endfacet
  facet normal 0.471259 -0.881995 0
    outer loop
      vertex 32.1666 5.24719 6
      vertex 32.1666 5.24719 0
      vertex 32.426 5.38579 6
    endloop
  endfacet
  facet normal 0.290404 -0.956904 0
    outer loop
      vertex 32.7074 5.47119 0
      vertex 32.7074 5.47119 6
      vertex 32.426 5.38579 0
    endloop
  endfacet
  facet normal 0.290404 -0.956904 0
    outer loop
      vertex 32.426 5.38579 6
      vertex 32.426 5.38579 0
      vertex 32.7074 5.47119 6
    endloop
  endfacet
  facet normal 0.0979882 -0.995188 0
    outer loop
      vertex 33 5.5 0
      vertex 33 5.5 6
      vertex 32.7074 5.47119 0
    endloop
  endfacet
  facet normal 0.0979882 -0.995188 0
    outer loop
      vertex 32.7074 5.47119 6
      vertex 32.7074 5.47119 0
      vertex 33 5.5 6
    endloop
  endfacet
  facet normal -0.0979882 -0.995188 0
    outer loop
      vertex 33.2926 5.47119 0
      vertex 33.2926 5.47119 6
      vertex 33 5.5 0
    endloop
  endfacet
  facet normal -0.0979882 -0.995188 -0
    outer loop
      vertex 33 5.5 6
      vertex 33 5.5 0
      vertex 33.2926 5.47119 6
    endloop
  endfacet
  facet normal -0.290404 -0.956904 0
    outer loop
      vertex 33.574 5.38579 0
      vertex 33.574 5.38579 6
      vertex 33.2926 5.47119 0
    endloop
  endfacet
  facet normal -0.290404 -0.956904 -0
    outer loop
      vertex 33.2926 5.47119 6
      vertex 33.2926 5.47119 0
      vertex 33.574 5.38579 6
    endloop
  endfacet
  facet normal -0.471259 -0.881995 0
    outer loop
      vertex 33.8334 5.24719 0
      vertex 33.8334 5.24719 6
      vertex 33.574 5.38579 0
    endloop
  endfacet
  facet normal -0.471259 -0.881995 -0
    outer loop
      vertex 33.574 5.38579 6
      vertex 33.574 5.38579 0
      vertex 33.8334 5.24719 6
    endloop
  endfacet
  facet normal -0.634291 -0.773094 0
    outer loop
      vertex 34.0607 5.0607 0
      vertex 34.0607 5.0607 6
      vertex 33.8334 5.24719 0
    endloop
  endfacet
  facet normal -0.634291 -0.773094 -0
    outer loop
      vertex 33.8334 5.24719 6
      vertex 33.8334 5.24719 0
      vertex 34.0607 5.0607 6
    endloop
  endfacet
  facet normal -0.773091 -0.634295 0
    outer loop
      vertex 34.2472 4.83339 0
      vertex 34.2472 4.83339 6
      vertex 34.0607 5.0607 0
    endloop
  endfacet
  facet normal -0.773091 -0.634295 -0
    outer loop
      vertex 34.0607 5.0607 6
      vertex 34.0607 5.0607 0
      vertex 34.2472 4.83339 6
    endloop
  endfacet
  facet normal -0.881995 -0.471259 0
    outer loop
      vertex 34.3858 4.57399 0
      vertex 34.3858 4.57399 6
      vertex 34.2472 4.83339 0
    endloop
  endfacet
  facet normal -0.881995 -0.471259 -0
    outer loop
      vertex 34.2472 4.83339 6
      vertex 34.2472 4.83339 0
      vertex 34.3858 4.57399 6
    endloop
  endfacet
  facet normal -0.956904 -0.290404 0
    outer loop
      vertex 34.4712 4.29259 0
      vertex 34.4712 4.29259 6
      vertex 34.3858 4.57399 0
    endloop
  endfacet
  facet normal -0.956904 -0.290404 -0
    outer loop
      vertex 34.3858 4.57399 6
      vertex 34.3858 4.57399 0
      vertex 34.4712 4.29259 6
    endloop
  endfacet
  facet normal -0.995191 -0.0979579 0
    outer loop
      vertex 34.5 4 0
      vertex 34.5 4 6
      vertex 34.4712 4.29259 0
    endloop
  endfacet
  facet normal -0.995191 -0.0979579 -0
    outer loop
      vertex 34.4712 4.29259 6
      vertex 34.4712 4.29259 0
      vertex 34.5 4 6
    endloop
  endfacet
  facet normal -0.995191 0.0979545 0
    outer loop
      vertex 34.4712 3.7074 0
      vertex 34.4712 3.7074 6
      vertex 34.5 4 0
    endloop
  endfacet
  facet normal -0.995191 0.0979545 0
    outer loop
      vertex 34.5 4 6
      vertex 34.5 4 0
      vertex 34.4712 3.7074 6
    endloop
  endfacet
  facet normal -0.956907 0.290394 0
    outer loop
      vertex 34.3858 3.42599 0
      vertex 34.3858 3.42599 6
      vertex 34.4712 3.7074 0
    endloop
  endfacet
  facet normal -0.956907 0.290394 0
    outer loop
      vertex 34.4712 3.7074 6
      vertex 34.4712 3.7074 0
      vertex 34.3858 3.42599 6
    endloop
  endfacet
  facet normal -0.881987 0.471273 0
    outer loop
      vertex 34.2472 3.1666 0
      vertex 34.2472 3.1666 6
      vertex 34.3858 3.42599 0
    endloop
  endfacet
  facet normal -0.881987 0.471273 0
    outer loop
      vertex 34.3858 3.42599 6
      vertex 34.3858 3.42599 0
      vertex 34.2472 3.1666 6
    endloop
  endfacet
  facet normal -0.773091 0.634295 0
    outer loop
      vertex 34.0607 2.93929 0
      vertex 34.0607 2.93929 6
      vertex 34.2472 3.1666 0
    endloop
  endfacet
  facet normal -0.773091 0.634295 0
    outer loop
      vertex 34.2472 3.1666 6
      vertex 34.2472 3.1666 0
      vertex 34.0607 2.93929 6
    endloop
  endfacet
  facet normal -0.634311 0.773078 0
    outer loop
      vertex 33.8334 2.75279 0
      vertex 33.8334 2.75279 6
      vertex 34.0607 2.93929 0
    endloop
  endfacet
  facet normal -0.634311 0.773078 0
    outer loop
      vertex 34.0607 2.93929 6
      vertex 34.0607 2.93929 0
      vertex 33.8334 2.75279 6
    endloop
  endfacet
  facet normal -0.471232 0.882009 0
    outer loop
      vertex 33.574 2.6142 0
      vertex 33.574 2.6142 6
      vertex 33.8334 2.75279 0
    endloop
  endfacet
  facet normal -0.471232 0.882009 0
    outer loop
      vertex 33.8334 2.75279 6
      vertex 33.8334 2.75279 0
      vertex 33.574 2.6142 6
    endloop
  endfacet
  facet normal -0.290435 0.956895 0
    outer loop
      vertex 33.2926 2.52879 0
      vertex 33.2926 2.52879 6
      vertex 33.574 2.6142 0
    endloop
  endfacet
  facet normal -0.290435 0.956895 0
    outer loop
      vertex 33.574 2.6142 6
      vertex 33.574 2.6142 0
      vertex 33.2926 2.52879 6
    endloop
  endfacet
  facet normal -0.0979209 0.995194 0
    outer loop
      vertex 33 2.5 0
      vertex 33 2.5 6
      vertex 33.2926 2.52879 0
    endloop
  endfacet
  facet normal -0.0979209 0.995194 0
    outer loop
      vertex 33.2926 2.52879 6
      vertex 33.2926 2.52879 0
      vertex 33 2.5 6
    endloop
  endfacet
  facet normal 0.0979209 0.995194 -0
    outer loop
      vertex 32.7074 2.52879 0
      vertex 32.7074 2.52879 6
      vertex 33 2.5 0
    endloop
  endfacet
  facet normal 0.0979209 0.995194 0
    outer loop
      vertex 33 2.5 6
      vertex 33 2.5 0
      vertex 32.7074 2.52879 6
    endloop
  endfacet
endsolid OpenSCAD_Model
