solid OpenSCAD_Model
  facet normal 0 -0 -1
    outer loop
      vertex 135.47 8 0
      vertex 135.47 5.7737 0
      vertex 130.72 7 0
    endloop
  endfacet
  facet normal 0 0 -1
    outer loop
      vertex 18.7201 7 0
      vertex 18.7201 8 0
      vertex 28.2201 7 0
    endloop
  endfacet
  facet normal -0 -0 -1
    outer loop
      vertex 28.2201 7 0
      vertex 31.3163 1 0
      vertex 18.7201 7 0
    endloop
  endfacet
  facet normal 0 0 -1
    outer loop
      vertex 116.303 5.24719 0
      vertex 116.044 5.38579 0
      vertex 116.72 7 0
    endloop
  endfacet
  facet normal -0 0 -1
    outer loop
      vertex 135.47 8 0
      vertex 130.72 7 0
      vertex 130.72 8 0
    endloop
  endfacet
  facet normal -0 0 -1
    outer loop
      vertex 130.72 7 0
      vertex 125.471 0 0
      vertex 126.22 7 0
    endloop
  endfacet
  facet normal 0 0 -1
    outer loop
      vertex 126.22 7 0
      vertex 116.72 7 0
      vertex 116.72 8 0
    endloop
  endfacet
  facet normal 0 -0 -1
    outer loop
      vertex 130.72 7 0
      vertex 135.47 5.7737 0
      vertex 125.471 0 0
    endloop
  endfacet
  facet normal 0 0 -1
    outer loop
      vertex 126.22 7 0
      vertex 116.72 8 0
      vertex 126.22 8 0
    endloop
  endfacet
  facet normal 0 0 -1
    outer loop
      vertex 102.72 7 0
      vertex 103.532 5.0607 0
      vertex 103.305 5.24719 0
    endloop
  endfacet
  facet normal 0 0 -1
    outer loop
      vertex 103.532 5.0607 0
      vertex 102.72 7 0
      vertex 102.72 8 0
    endloop
  endfacet
  facet normal 0 0 -1
    outer loop
      vertex 88.7201 7 0
      vertex 101.086 3.42599 0
      vertex 101.224 3.1666 0
    endloop
  endfacet
  facet normal 0 0 -1
    outer loop
      vertex 114.637 2.75279 0
      vertex 103.305 2.75279 0
      vertex 114.409 2.93929 0
    endloop
  endfacet
  facet normal -0 -0 -1
    outer loop
      vertex 98.2201 8 0
      vertex 98.2201 7 0
      vertex 88.7201 8 0
    endloop
  endfacet
  facet normal 0 0 -1
    outer loop
      vertex 98.2201 7 0
      vertex 101.411 5.0607 0
      vertex 101.224 4.83339 0
    endloop
  endfacet
  facet normal 0 0 -1
    outer loop
      vertex 125.471 0 0
      vertex 115.177 2.52879 0
      vertex 115.47 2.5 0
    endloop
  endfacet
  facet normal -0 -0 -1
    outer loop
      vertex 84.2201 8 0
      vertex 84.2201 7 0
      vertex 74.7201 8 0
    endloop
  endfacet
  facet normal 0 0 -1
    outer loop
      vertex 125.471 0 0
      vertex 115.47 2.5 0
      vertex 115.763 2.52879 0
    endloop
  endfacet
  facet normal 0 0 -1
    outer loop
      vertex 88.7201 7 0
      vertex 88.7201 8 0
      vertex 98.2201 7 0
    endloop
  endfacet
  facet normal 0 0 -1
    outer loop
      vertex 74.7201 8 0
      vertex 84.2201 7 0
      vertex 74.7201 7 0
    endloop
  endfacet
  facet normal -0 0 -1
    outer loop
      vertex 74.7201 7 0
      vertex 35.8163 0 0
      vertex 70.2201 7 0
    endloop
  endfacet
  facet normal -0 -0 -1
    outer loop
      vertex 70.2201 8 0
      vertex 70.2201 7 0
      vertex 60.7201 8 0
    endloop
  endfacet
  facet normal 0 0 -1
    outer loop
      vertex 125.471 0 0
      vertex 102.472 2.5 0
      vertex 102.764 2.52879 0
    endloop
  endfacet
  facet normal -0 0 -1
    outer loop
      vertex 70.2201 7 0
      vertex 35.8163 0 0
      vertex 60.7201 7 0
    endloop
  endfacet
  facet normal -0 0 -1
    outer loop
      vertex 60.7201 7 0
      vertex 35.8163 0 0
      vertex 56.2201 7 0
    endloop
  endfacet
  facet normal -0 0 -1
    outer loop
      vertex 56.2201 7 0
      vertex 35.8163 0 0
      vertex 46.7201 7 0
    endloop
  endfacet
  facet normal 0 0 -1
    outer loop
      vertex 70.2201 7 0
      vertex 60.7201 7 0
      vertex 60.7201 8 0
    endloop
  endfacet
  facet normal -0 -0 -1
    outer loop
      vertex 56.2201 8 0
      vertex 56.2201 7 0
      vertex 46.7201 8 0
    endloop
  endfacet
  facet normal -0 0 -1
    outer loop
      vertex 46.7201 7 0
      vertex 35.8163 0 0
      vertex 42.2201 7 0
    endloop
  endfacet
  facet normal 0 0 -1
    outer loop
      vertex 42.2201 7 0
      vertex 35.8163 0 0
      vertex 35.8163 1 0
    endloop
  endfacet
  facet normal 0 0 -1
    outer loop
      vertex 56.2201 7 0
      vertex 46.7201 7 0
      vertex 46.7201 8 0
    endloop
  endfacet
  facet normal -0 -0 -1
    outer loop
      vertex 42.2201 8 0
      vertex 42.2201 7 0
      vertex 32.7201 8 0
    endloop
  endfacet
  facet normal 0 0 -1
    outer loop
      vertex 32.7201 8 0
      vertex 42.2201 7 0
      vertex 32.7201 7 0
    endloop
  endfacet
  facet normal 0 0 -1
    outer loop
      vertex 31.3163 1 0
      vertex 32.7201 7 0
      vertex 35.8163 1 0
    endloop
  endfacet
  facet normal 0 0 -1
    outer loop
      vertex 32.7201 7 0
      vertex 42.2201 7 0
      vertex 35.8163 1 0
    endloop
  endfacet
  facet normal 0 0 -1
    outer loop
      vertex 31.3163 1 0
      vertex 28.2201 7 0
      vertex 32.7201 7 0
    endloop
  endfacet
  facet normal 0 0 -1
    outer loop
      vertex 6.06259 5.50029 0
      vertex 14.2201 8 0
      vertex 14.2201 7 0
    endloop
  endfacet
  facet normal 0 0 -1
    outer loop
      vertex 28.2201 7 0
      vertex 18.7201 8 0
      vertex 28.2201 8 0
    endloop
  endfacet
  facet normal 0 0 -1
    outer loop
      vertex 31.3163 0 0
      vertex 18.7201 7 0
      vertex 31.3163 1 0
    endloop
  endfacet
  facet normal 0 0 -1
    outer loop
      vertex 5.77399 0 0
      vertex 14.2201 7 0
      vertex 18.7201 7 0
    endloop
  endfacet
  facet normal 0 0 -1
    outer loop
      vertex 6.06259 5.50029 0
      vertex 4.61909 8 0
      vertex 14.2201 8 0
    endloop
  endfacet
  facet normal 0 0 -1
    outer loop
      vertex 3.46439 4 0
      vertex 6.06259 5.50029 0
      vertex 5.77399 0 0
    endloop
  endfacet
  facet normal 0 0 -1
    outer loop
      vertex 5.77399 0 0
      vertex 6.06259 5.50029 0
      vertex 14.2201 7 0
    endloop
  endfacet
  facet normal 0 0 -1
    outer loop
      vertex 31.3163 0 0
      vertex 5.77399 0 0
      vertex 18.7201 7 0
    endloop
  endfacet
  facet normal 0 0 -1
    outer loop
      vertex 84.2201 7 0
      vertex 101.638 2.75279 0
      vertex 101.898 2.6142 0
    endloop
  endfacet
  facet normal -0 0 -1
    outer loop
      vertex 114.896 2.6142 0
      vertex 102.764 2.52879 0
      vertex 103.046 2.6142 0
    endloop
  endfacet
  facet normal -0 -0 -1
    outer loop
      vertex 115.177 2.52879 0
      vertex 125.471 0 0
      vertex 102.764 2.52879 0
    endloop
  endfacet
  facet normal -0 0 -1
    outer loop
      vertex 114.223 3.1666 0
      vertex 103.532 2.93929 0
      vertex 103.719 3.1666 0
    endloop
  endfacet
  facet normal 0 0 -1
    outer loop
      vertex 114.084 3.42599 0
      vertex 103.857 3.42599 0
      vertex 103.943 3.7074 0
    endloop
  endfacet
  facet normal 0 0 -1
    outer loop
      vertex 103.943 3.7074 0
      vertex 103.972 4 0
      vertex 112.22 7 0
    endloop
  endfacet
  facet normal 0 0 -1
    outer loop
      vertex 112.22 7 0
      vertex 103.857 4.57399 0
      vertex 103.719 4.83339 0
    endloop
  endfacet
  facet normal -0 0 -1
    outer loop
      vertex 112.22 8 0
      vertex 103.719 4.83339 0
      vertex 102.72 8 0
    endloop
  endfacet
  facet normal 0 0 -1
    outer loop
      vertex 102.472 5.5 0
      vertex 102.72 7 0
      vertex 102.764 5.47119 0
    endloop
  endfacet
  facet normal -0 -0 -1
    outer loop
      vertex 113.97 4 0
      vertex 113.999 3.7074 0
      vertex 112.22 7 0
    endloop
  endfacet
  facet normal -0 0 -1
    outer loop
      vertex 113.999 4.29259 0
      vertex 113.97 4 0
      vertex 112.22 7 0
    endloop
  endfacet
  facet normal -0 0 -1
    outer loop
      vertex 114.084 4.57399 0
      vertex 113.999 4.29259 0
      vertex 112.22 7 0
    endloop
  endfacet
  facet normal -0 0 -1
    outer loop
      vertex 114.223 4.83339 0
      vertex 114.084 4.57399 0
      vertex 112.22 7 0
    endloop
  endfacet
  facet normal -0 0 -1
    outer loop
      vertex 114.637 5.24719 0
      vertex 114.409 5.0607 0
      vertex 112.22 7 0
    endloop
  endfacet
  facet normal -0 0 -1
    outer loop
      vertex 114.409 5.0607 0
      vertex 114.223 4.83339 0
      vertex 112.22 7 0
    endloop
  endfacet
  facet normal -0 0 -1
    outer loop
      vertex 114.896 5.38579 0
      vertex 114.637 5.24719 0
      vertex 112.22 7 0
    endloop
  endfacet
  facet normal -0 0 -1
    outer loop
      vertex 115.177 5.47119 0
      vertex 114.896 5.38579 0
      vertex 112.22 7 0
    endloop
  endfacet
  facet normal -0 0 -1
    outer loop
      vertex 116.72 7 0
      vertex 115.177 5.47119 0
      vertex 112.22 7 0
    endloop
  endfacet
  facet normal 0 0 -1
    outer loop
      vertex 116.72 7 0
      vertex 115.47 5.5 0
      vertex 115.177 5.47119 0
    endloop
  endfacet
  facet normal 0 0 -1
    outer loop
      vertex 116.72 7 0
      vertex 115.763 5.47119 0
      vertex 115.47 5.5 0
    endloop
  endfacet
  facet normal 0 0 -1
    outer loop
      vertex 116.72 7 0
      vertex 116.044 5.38579 0
      vertex 115.763 5.47119 0
    endloop
  endfacet
  facet normal 0 0 -1
    outer loop
      vertex 116.531 5.0607 0
      vertex 116.72 7 0
      vertex 116.717 4.83339 0
    endloop
  endfacet
  facet normal 0 0 -1
    outer loop
      vertex 116.303 5.24719 0
      vertex 116.72 7 0
      vertex 116.531 5.0607 0
    endloop
  endfacet
  facet normal 0 0 -1
    outer loop
      vertex 116.717 4.83339 0
      vertex 116.72 7 0
      vertex 116.856 4.57399 0
    endloop
  endfacet
  facet normal 0 0 -1
    outer loop
      vertex 116.856 4.57399 0
      vertex 116.72 7 0
      vertex 126.22 7 0
    endloop
  endfacet
  facet normal 0 0 -1
    outer loop
      vertex 116.941 4.29259 0
      vertex 116.856 4.57399 0
      vertex 126.22 7 0
    endloop
  endfacet
  facet normal 0 0 -1
    outer loop
      vertex 116.97 4 0
      vertex 116.941 4.29259 0
      vertex 126.22 7 0
    endloop
  endfacet
  facet normal 0 0 -1
    outer loop
      vertex 125.471 0 0
      vertex 116.97 4 0
      vertex 126.22 7 0
    endloop
  endfacet
  facet normal 0 0 -1
    outer loop
      vertex 125.471 0 0
      vertex 116.941 3.7074 0
      vertex 116.97 4 0
    endloop
  endfacet
  facet normal 0 0 -1
    outer loop
      vertex 125.471 0 0
      vertex 116.856 3.42599 0
      vertex 116.941 3.7074 0
    endloop
  endfacet
  facet normal 0 0 -1
    outer loop
      vertex 125.471 0 0
      vertex 116.717 3.1666 0
      vertex 116.856 3.42599 0
    endloop
  endfacet
  facet normal 0 0 -1
    outer loop
      vertex 125.471 0 0
      vertex 116.531 2.93929 0
      vertex 116.717 3.1666 0
    endloop
  endfacet
  facet normal 0 0 -1
    outer loop
      vertex 125.471 0 0
      vertex 116.303 2.75279 0
      vertex 116.531 2.93929 0
    endloop
  endfacet
  facet normal 0 0 -1
    outer loop
      vertex 125.471 0 0
      vertex 116.044 2.6142 0
      vertex 116.303 2.75279 0
    endloop
  endfacet
  facet normal 0 0 -1
    outer loop
      vertex 125.471 0 0
      vertex 115.763 2.52879 0
      vertex 116.044 2.6142 0
    endloop
  endfacet
  facet normal -0 0 -1
    outer loop
      vertex 101.898 2.6142 0
      vertex 35.8163 0 0
      vertex 74.7201 7 0
    endloop
  endfacet
  facet normal 0 -0 -1
    outer loop
      vertex 102.472 2.5 0
      vertex 125.471 0 0
      vertex 35.8163 0 0
    endloop
  endfacet
  facet normal 0 -0 -1
    outer loop
      vertex 101.898 2.6142 0
      vertex 102.179 2.52879 0
      vertex 35.8163 0 0
    endloop
  endfacet
  facet normal 0 -0 -1
    outer loop
      vertex 102.179 2.52879 0
      vertex 102.472 2.5 0
      vertex 35.8163 0 0
    endloop
  endfacet
  facet normal -0 -0 -1
    outer loop
      vertex 84.2201 7 0
      vertex 101.898 2.6142 0
      vertex 74.7201 7 0
    endloop
  endfacet
  facet normal -0 -0 -1
    outer loop
      vertex 88.7201 7 0
      vertex 101.638 2.75279 0
      vertex 84.2201 7 0
    endloop
  endfacet
  facet normal 0 0 -1
    outer loop
      vertex 88.7201 7 0
      vertex 101.411 2.93929 0
      vertex 101.638 2.75279 0
    endloop
  endfacet
  facet normal 0 0 -1
    outer loop
      vertex 88.7201 7 0
      vertex 101.224 3.1666 0
      vertex 101.411 2.93929 0
    endloop
  endfacet
  facet normal -0 -0 -1
    outer loop
      vertex 98.2201 7 0
      vertex 101.086 3.42599 0
      vertex 88.7201 7 0
    endloop
  endfacet
  facet normal 0 0 -1
    outer loop
      vertex 98.2201 7 0
      vertex 101 3.7074 0
      vertex 101.086 3.42599 0
    endloop
  endfacet
  facet normal 0 0 -1
    outer loop
      vertex 98.2201 7 0
      vertex 100.972 4 0
      vertex 101 3.7074 0
    endloop
  endfacet
  facet normal 0 0 -1
    outer loop
      vertex 98.2201 7 0
      vertex 101 4.29259 0
      vertex 100.972 4 0
    endloop
  endfacet
  facet normal 0 0 -1
    outer loop
      vertex 98.2201 7 0
      vertex 101.086 4.57399 0
      vertex 101 4.29259 0
    endloop
  endfacet
  facet normal 0 0 -1
    outer loop
      vertex 98.2201 7 0
      vertex 101.224 4.83339 0
      vertex 101.086 4.57399 0
    endloop
  endfacet
  facet normal -0 0 -1
    outer loop
      vertex 101.638 5.24719 0
      vertex 101.411 5.0607 0
      vertex 98.2201 7 0
    endloop
  endfacet
  facet normal -0 0 -1
    outer loop
      vertex 102.72 7 0
      vertex 101.638 5.24719 0
      vertex 98.2201 7 0
    endloop
  endfacet
  facet normal 0 0 -1
    outer loop
      vertex 102.72 7 0
      vertex 101.898 5.38579 0
      vertex 101.638 5.24719 0
    endloop
  endfacet
  facet normal 0 0 -1
    outer loop
      vertex 102.72 7 0
      vertex 102.179 5.47119 0
      vertex 101.898 5.38579 0
    endloop
  endfacet
  facet normal 0 0 -1
    outer loop
      vertex 102.72 7 0
      vertex 102.472 5.5 0
      vertex 102.179 5.47119 0
    endloop
  endfacet
  facet normal 0 0 -1
    outer loop
      vertex 103.046 5.38579 0
      vertex 102.764 5.47119 0
      vertex 102.72 7 0
    endloop
  endfacet
  facet normal 0 0 -1
    outer loop
      vertex 103.305 5.24719 0
      vertex 103.046 5.38579 0
      vertex 102.72 7 0
    endloop
  endfacet
  facet normal 0 0 -1
    outer loop
      vertex 103.532 5.0607 0
      vertex 102.72 8 0
      vertex 103.719 4.83339 0
    endloop
  endfacet
  facet normal 0 0 -1
    outer loop
      vertex 103.719 4.83339 0
      vertex 112.22 8 0
      vertex 112.22 7 0
    endloop
  endfacet
  facet normal 0 0 -1
    outer loop
      vertex 103.857 4.57399 0
      vertex 112.22 7 0
      vertex 103.943 4.29259 0
    endloop
  endfacet
  facet normal 0 0 -1
    outer loop
      vertex 103.943 4.29259 0
      vertex 112.22 7 0
      vertex 103.972 4 0
    endloop
  endfacet
  facet normal 0 -0 -1
    outer loop
      vertex 112.22 7 0
      vertex 113.999 3.7074 0
      vertex 103.943 3.7074 0
    endloop
  endfacet
  facet normal 0 0 -1
    outer loop
      vertex 103.943 3.7074 0
      vertex 113.999 3.7074 0
      vertex 114.084 3.42599 0
    endloop
  endfacet
  facet normal 0 -0 -1
    outer loop
      vertex 103.857 3.42599 0
      vertex 114.084 3.42599 0
      vertex 103.719 3.1666 0
    endloop
  endfacet
  facet normal 0 0 -1
    outer loop
      vertex 103.719 3.1666 0
      vertex 114.084 3.42599 0
      vertex 114.223 3.1666 0
    endloop
  endfacet
  facet normal 0 0 -1
    outer loop
      vertex 103.532 2.93929 0
      vertex 114.223 3.1666 0
      vertex 114.409 2.93929 0
    endloop
  endfacet
  facet normal 0 0 -1
    outer loop
      vertex 103.305 2.75279 0
      vertex 103.532 2.93929 0
      vertex 114.409 2.93929 0
    endloop
  endfacet
  facet normal 0 0 -1
    outer loop
      vertex 103.046 2.6142 0
      vertex 103.305 2.75279 0
      vertex 114.637 2.75279 0
    endloop
  endfacet
  facet normal 0 0 -1
    outer loop
      vertex 114.896 2.6142 0
      vertex 103.046 2.6142 0
      vertex 114.637 2.75279 0
    endloop
  endfacet
  facet normal 0 0 -1
    outer loop
      vertex 115.177 2.52879 0
      vertex 102.764 2.52879 0
      vertex 114.896 2.6142 0
    endloop
  endfacet
  facet normal -0 0 1
    outer loop
      vertex 130.72 7 6
      vertex 135.47 5.7737 6
      vertex 135.47 8 6
    endloop
  endfacet
  facet normal 0 0 1
    outer loop
      vertex 28.2201 7 6
      vertex 18.7201 8 6
      vertex 18.7201 7 6
    endloop
  endfacet
  facet normal -0 0 1
    outer loop
      vertex 18.7201 7 6
      vertex 31.3163 1 6
      vertex 28.2201 7 6
    endloop
  endfacet
  facet normal 0 0 1
    outer loop
      vertex 116.72 7 6
      vertex 116.044 5.38579 6
      vertex 116.303 5.24719 6
    endloop
  endfacet
  facet normal -0 0 1
    outer loop
      vertex 130.72 8 6
      vertex 130.72 7 6
      vertex 135.47 8 6
    endloop
  endfacet
  facet normal -0 0 1
    outer loop
      vertex 126.22 7 6
      vertex 125.471 0 6
      vertex 130.72 7 6
    endloop
  endfacet
  facet normal 0 0 1
    outer loop
      vertex 116.72 8 6
      vertex 116.72 7 6
      vertex 126.22 7 6
    endloop
  endfacet
  facet normal 0 0 1
    outer loop
      vertex 125.471 0 6
      vertex 135.47 5.7737 6
      vertex 130.72 7 6
    endloop
  endfacet
  facet normal 0 0 1
    outer loop
      vertex 126.22 8 6
      vertex 116.72 8 6
      vertex 126.22 7 6
    endloop
  endfacet
  facet normal -0 -0 1
    outer loop
      vertex 103.305 5.24719 6
      vertex 103.532 5.0607 6
      vertex 102.72 7 6
    endloop
  endfacet
  facet normal 0 0 1
    outer loop
      vertex 102.72 8 6
      vertex 102.72 7 6
      vertex 103.532 5.0607 6
    endloop
  endfacet
  facet normal 0 0 1
    outer loop
      vertex 101.224 3.1666 6
      vertex 101.086 3.42599 6
      vertex 88.7201 7 6
    endloop
  endfacet
  facet normal 0 0 1
    outer loop
      vertex 114.409 2.93929 6
      vertex 103.305 2.75279 6
      vertex 114.637 2.75279 6
    endloop
  endfacet
  facet normal -0 0 1
    outer loop
      vertex 88.7201 8 6
      vertex 98.2201 7 6
      vertex 98.2201 8 6
    endloop
  endfacet
  facet normal 0 -0 1
    outer loop
      vertex 101.224 4.83339 6
      vertex 101.411 5.0607 6
      vertex 98.2201 7 6
    endloop
  endfacet
  facet normal 0 0 1
    outer loop
      vertex 115.47 2.5 6
      vertex 115.177 2.52879 6
      vertex 125.471 0 6
    endloop
  endfacet
  facet normal -0 0 1
    outer loop
      vertex 74.7201 8 6
      vertex 84.2201 7 6
      vertex 84.2201 8 6
    endloop
  endfacet
  facet normal 0 0 1
    outer loop
      vertex 115.763 2.52879 6
      vertex 115.47 2.5 6
      vertex 125.471 0 6
    endloop
  endfacet
  facet normal 0 0 1
    outer loop
      vertex 98.2201 7 6
      vertex 88.7201 8 6
      vertex 88.7201 7 6
    endloop
  endfacet
  facet normal 0 0 1
    outer loop
      vertex 74.7201 7 6
      vertex 84.2201 7 6
      vertex 74.7201 8 6
    endloop
  endfacet
  facet normal -0 0 1
    outer loop
      vertex 70.2201 7 6
      vertex 35.8163 0 6
      vertex 74.7201 7 6
    endloop
  endfacet
  facet normal -0 0 1
    outer loop
      vertex 60.7201 8 6
      vertex 70.2201 7 6
      vertex 70.2201 8 6
    endloop
  endfacet
  facet normal 0 0 1
    outer loop
      vertex 102.764 2.52879 6
      vertex 102.472 2.5 6
      vertex 125.471 0 6
    endloop
  endfacet
  facet normal -0 0 1
    outer loop
      vertex 60.7201 7 6
      vertex 35.8163 0 6
      vertex 70.2201 7 6
    endloop
  endfacet
  facet normal -0 0 1
    outer loop
      vertex 56.2201 7 6
      vertex 35.8163 0 6
      vertex 60.7201 7 6
    endloop
  endfacet
  facet normal -0 0 1
    outer loop
      vertex 46.7201 7 6
      vertex 35.8163 0 6
      vertex 56.2201 7 6
    endloop
  endfacet
  facet normal 0 0 1
    outer loop
      vertex 60.7201 8 6
      vertex 60.7201 7 6
      vertex 70.2201 7 6
    endloop
  endfacet
  facet normal -0 0 1
    outer loop
      vertex 46.7201 8 6
      vertex 56.2201 7 6
      vertex 56.2201 8 6
    endloop
  endfacet
  facet normal -0 0 1
    outer loop
      vertex 42.2201 7 6
      vertex 35.8163 0 6
      vertex 46.7201 7 6
    endloop
  endfacet
  facet normal -0 0 1
    outer loop
      vertex 35.8163 1 6
      vertex 35.8163 0 6
      vertex 42.2201 7 6
    endloop
  endfacet
  facet normal 0 0 1
    outer loop
      vertex 46.7201 8 6
      vertex 46.7201 7 6
      vertex 56.2201 7 6
    endloop
  endfacet
  facet normal -0 0 1
    outer loop
      vertex 32.7201 8 6
      vertex 42.2201 7 6
      vertex 42.2201 8 6
    endloop
  endfacet
  facet normal 0 0 1
    outer loop
      vertex 32.7201 7 6
      vertex 42.2201 7 6
      vertex 32.7201 8 6
    endloop
  endfacet
  facet normal 0 0 1
    outer loop
      vertex 35.8163 1 6
      vertex 32.7201 7 6
      vertex 31.3163 1 6
    endloop
  endfacet
  facet normal 0 -0 1
    outer loop
      vertex 35.8163 1 6
      vertex 42.2201 7 6
      vertex 32.7201 7 6
    endloop
  endfacet
  facet normal 0 0 1
    outer loop
      vertex 32.7201 7 6
      vertex 28.2201 7 6
      vertex 31.3163 1 6
    endloop
  endfacet
  facet normal 0 -0 1
    outer loop
      vertex 14.2201 7 6
      vertex 14.2201 8 6
      vertex 6.06259 5.50029 6
    endloop
  endfacet
  facet normal 0 0 1
    outer loop
      vertex 28.2201 8 6
      vertex 18.7201 8 6
      vertex 28.2201 7 6
    endloop
  endfacet
  facet normal 0 0 1
    outer loop
      vertex 31.3163 1 6
      vertex 18.7201 7 6
      vertex 31.3163 0 6
    endloop
  endfacet
  facet normal 0 0 1
    outer loop
      vertex 18.7201 7 6
      vertex 14.2201 7 6
      vertex 5.77399 0 6
    endloop
  endfacet
  facet normal 0 0 1
    outer loop
      vertex 14.2201 8 6
      vertex 4.61909 8 6
      vertex 6.06259 5.50029 6
    endloop
  endfacet
  facet normal 0 -0 1
    outer loop
      vertex 5.77399 0 6
      vertex 6.06259 5.50029 6
      vertex 3.46439 4 6
    endloop
  endfacet
  facet normal 0 0 1
    outer loop
      vertex 14.2201 7 6
      vertex 6.06259 5.50029 6
      vertex 5.77399 0 6
    endloop
  endfacet
  facet normal 0 0 1
    outer loop
      vertex 18.7201 7 6
      vertex 5.77399 0 6
      vertex 31.3163 0 6
    endloop
  endfacet
  facet normal 0 0 1
    outer loop
      vertex 101.898 2.6142 6
      vertex 101.638 2.75279 6
      vertex 84.2201 7 6
    endloop
  endfacet
  facet normal -0 0 1
    outer loop
      vertex 103.046 2.6142 6
      vertex 102.764 2.52879 6
      vertex 114.896 2.6142 6
    endloop
  endfacet
  facet normal -0 0 1
    outer loop
      vertex 102.764 2.52879 6
      vertex 125.471 0 6
      vertex 115.177 2.52879 6
    endloop
  endfacet
  facet normal -0 0 1
    outer loop
      vertex 103.719 3.1666 6
      vertex 103.532 2.93929 6
      vertex 114.223 3.1666 6
    endloop
  endfacet
  facet normal 0 0 1
    outer loop
      vertex 103.943 3.7074 6
      vertex 103.857 3.42599 6
      vertex 114.084 3.42599 6
    endloop
  endfacet
  facet normal 0 0 1
    outer loop
      vertex 112.22 7 6
      vertex 103.972 4 6
      vertex 103.943 3.7074 6
    endloop
  endfacet
  facet normal -0 0 1
    outer loop
      vertex 103.719 4.83339 6
      vertex 103.857 4.57399 6
      vertex 112.22 7 6
    endloop
  endfacet
  facet normal -0 0 1
    outer loop
      vertex 102.72 8 6
      vertex 103.719 4.83339 6
      vertex 112.22 8 6
    endloop
  endfacet
  facet normal 0 0 1
    outer loop
      vertex 102.764 5.47119 6
      vertex 102.72 7 6
      vertex 102.472 5.5 6
    endloop
  endfacet
  facet normal 0 0 1
    outer loop
      vertex 112.22 7 6
      vertex 113.999 3.7074 6
      vertex 113.97 4 6
    endloop
  endfacet
  facet normal 0 0 1
    outer loop
      vertex 112.22 7 6
      vertex 113.97 4 6
      vertex 113.999 4.29259 6
    endloop
  endfacet
  facet normal 0 0 1
    outer loop
      vertex 112.22 7 6
      vertex 113.999 4.29259 6
      vertex 114.084 4.57399 6
    endloop
  endfacet
  facet normal 0 0 1
    outer loop
      vertex 112.22 7 6
      vertex 114.084 4.57399 6
      vertex 114.223 4.83339 6
    endloop
  endfacet
  facet normal 0 0 1
    outer loop
      vertex 112.22 7 6
      vertex 114.409 5.0607 6
      vertex 114.637 5.24719 6
    endloop
  endfacet
  facet normal 0 0 1
    outer loop
      vertex 112.22 7 6
      vertex 114.223 4.83339 6
      vertex 114.409 5.0607 6
    endloop
  endfacet
  facet normal 0 0 1
    outer loop
      vertex 112.22 7 6
      vertex 114.637 5.24719 6
      vertex 114.896 5.38579 6
    endloop
  endfacet
  facet normal 0 0 1
    outer loop
      vertex 112.22 7 6
      vertex 114.896 5.38579 6
      vertex 115.177 5.47119 6
    endloop
  endfacet
  facet normal -0 0 1
    outer loop
      vertex 112.22 7 6
      vertex 115.177 5.47119 6
      vertex 116.72 7 6
    endloop
  endfacet
  facet normal 0 0 1
    outer loop
      vertex 115.177 5.47119 6
      vertex 115.47 5.5 6
      vertex 116.72 7 6
    endloop
  endfacet
  facet normal -0 0 1
    outer loop
      vertex 115.47 5.5 6
      vertex 115.763 5.47119 6
      vertex 116.72 7 6
    endloop
  endfacet
  facet normal -0 0 1
    outer loop
      vertex 115.763 5.47119 6
      vertex 116.044 5.38579 6
      vertex 116.72 7 6
    endloop
  endfacet
  facet normal 0 -0 1
    outer loop
      vertex 116.717 4.83339 6
      vertex 116.72 7 6
      vertex 116.531 5.0607 6
    endloop
  endfacet
  facet normal 0 -0 1
    outer loop
      vertex 116.531 5.0607 6
      vertex 116.72 7 6
      vertex 116.303 5.24719 6
    endloop
  endfacet
  facet normal 0 0 1
    outer loop
      vertex 116.856 4.57399 6
      vertex 116.72 7 6
      vertex 116.717 4.83339 6
    endloop
  endfacet
  facet normal 0 0 1
    outer loop
      vertex 126.22 7 6
      vertex 116.72 7 6
      vertex 116.856 4.57399 6
    endloop
  endfacet
  facet normal 0 0 1
    outer loop
      vertex 126.22 7 6
      vertex 116.856 4.57399 6
      vertex 116.941 4.29259 6
    endloop
  endfacet
  facet normal 0 0 1
    outer loop
      vertex 126.22 7 6
      vertex 116.941 4.29259 6
      vertex 116.97 4 6
    endloop
  endfacet
  facet normal 0 0 1
    outer loop
      vertex 126.22 7 6
      vertex 116.97 4 6
      vertex 125.471 0 6
    endloop
  endfacet
  facet normal 0 0 1
    outer loop
      vertex 116.97 4 6
      vertex 116.941 3.7074 6
      vertex 125.471 0 6
    endloop
  endfacet
  facet normal 0 0 1
    outer loop
      vertex 116.941 3.7074 6
      vertex 116.856 3.42599 6
      vertex 125.471 0 6
    endloop
  endfacet
  facet normal 0 0 1
    outer loop
      vertex 116.856 3.42599 6
      vertex 116.717 3.1666 6
      vertex 125.471 0 6
    endloop
  endfacet
  facet normal 0 0 1
    outer loop
      vertex 116.717 3.1666 6
      vertex 116.531 2.93929 6
      vertex 125.471 0 6
    endloop
  endfacet
  facet normal 0 0 1
    outer loop
      vertex 116.531 2.93929 6
      vertex 116.303 2.75279 6
      vertex 125.471 0 6
    endloop
  endfacet
  facet normal 0 0 1
    outer loop
      vertex 116.303 2.75279 6
      vertex 116.044 2.6142 6
      vertex 125.471 0 6
    endloop
  endfacet
  facet normal 0 0 1
    outer loop
      vertex 116.044 2.6142 6
      vertex 115.763 2.52879 6
      vertex 125.471 0 6
    endloop
  endfacet
  facet normal 0 0 1
    outer loop
      vertex 74.7201 7 6
      vertex 35.8163 0 6
      vertex 101.898 2.6142 6
    endloop
  endfacet
  facet normal 0 0 1
    outer loop
      vertex 35.8163 0 6
      vertex 125.471 0 6
      vertex 102.472 2.5 6
    endloop
  endfacet
  facet normal 0 0 1
    outer loop
      vertex 35.8163 0 6
      vertex 102.179 2.52879 6
      vertex 101.898 2.6142 6
    endloop
  endfacet
  facet normal 0 0 1
    outer loop
      vertex 35.8163 0 6
      vertex 102.472 2.5 6
      vertex 102.179 2.52879 6
    endloop
  endfacet
  facet normal -0 0 1
    outer loop
      vertex 74.7201 7 6
      vertex 101.898 2.6142 6
      vertex 84.2201 7 6
    endloop
  endfacet
  facet normal -0 0 1
    outer loop
      vertex 84.2201 7 6
      vertex 101.638 2.75279 6
      vertex 88.7201 7 6
    endloop
  endfacet
  facet normal 0 0 1
    outer loop
      vertex 101.638 2.75279 6
      vertex 101.411 2.93929 6
      vertex 88.7201 7 6
    endloop
  endfacet
  facet normal 0 0 1
    outer loop
      vertex 101.411 2.93929 6
      vertex 101.224 3.1666 6
      vertex 88.7201 7 6
    endloop
  endfacet
  facet normal -0 0 1
    outer loop
      vertex 88.7201 7 6
      vertex 101.086 3.42599 6
      vertex 98.2201 7 6
    endloop
  endfacet
  facet normal 0 0 1
    outer loop
      vertex 101.086 3.42599 6
      vertex 101 3.7074 6
      vertex 98.2201 7 6
    endloop
  endfacet
  facet normal 0 0 1
    outer loop
      vertex 101 3.7074 6
      vertex 100.972 4 6
      vertex 98.2201 7 6
    endloop
  endfacet
  facet normal 0 -0 1
    outer loop
      vertex 100.972 4 6
      vertex 101 4.29259 6
      vertex 98.2201 7 6
    endloop
  endfacet
  facet normal 0 -0 1
    outer loop
      vertex 101 4.29259 6
      vertex 101.086 4.57399 6
      vertex 98.2201 7 6
    endloop
  endfacet
  facet normal 0 -0 1
    outer loop
      vertex 101.086 4.57399 6
      vertex 101.224 4.83339 6
      vertex 98.2201 7 6
    endloop
  endfacet
  facet normal 0 0 1
    outer loop
      vertex 98.2201 7 6
      vertex 101.411 5.0607 6
      vertex 101.638 5.24719 6
    endloop
  endfacet
  facet normal -0 0 1
    outer loop
      vertex 98.2201 7 6
      vertex 101.638 5.24719 6
      vertex 102.72 7 6
    endloop
  endfacet
  facet normal 0 0 1
    outer loop
      vertex 101.638 5.24719 6
      vertex 101.898 5.38579 6
      vertex 102.72 7 6
    endloop
  endfacet
  facet normal 0 0 1
    outer loop
      vertex 101.898 5.38579 6
      vertex 102.179 5.47119 6
      vertex 102.72 7 6
    endloop
  endfacet
  facet normal 0 0 1
    outer loop
      vertex 102.179 5.47119 6
      vertex 102.472 5.5 6
      vertex 102.72 7 6
    endloop
  endfacet
  facet normal 0 0 1
    outer loop
      vertex 102.72 7 6
      vertex 102.764 5.47119 6
      vertex 103.046 5.38579 6
    endloop
  endfacet
  facet normal 0 0 1
    outer loop
      vertex 102.72 7 6
      vertex 103.046 5.38579 6
      vertex 103.305 5.24719 6
    endloop
  endfacet
  facet normal 0 0 1
    outer loop
      vertex 103.719 4.83339 6
      vertex 102.72 8 6
      vertex 103.532 5.0607 6
    endloop
  endfacet
  facet normal 0 -0 1
    outer loop
      vertex 112.22 7 6
      vertex 112.22 8 6
      vertex 103.719 4.83339 6
    endloop
  endfacet
  facet normal 0 -0 1
    outer loop
      vertex 103.943 4.29259 6
      vertex 112.22 7 6
      vertex 103.857 4.57399 6
    endloop
  endfacet
  facet normal 0 -0 1
    outer loop
      vertex 103.972 4 6
      vertex 112.22 7 6
      vertex 103.943 4.29259 6
    endloop
  endfacet
  facet normal 0 0 1
    outer loop
      vertex 103.943 3.7074 6
      vertex 113.999 3.7074 6
      vertex 112.22 7 6
    endloop
  endfacet
  facet normal 0 0 1
    outer loop
      vertex 114.084 3.42599 6
      vertex 113.999 3.7074 6
      vertex 103.943 3.7074 6
    endloop
  endfacet
  facet normal 0 0 1
    outer loop
      vertex 103.719 3.1666 6
      vertex 114.084 3.42599 6
      vertex 103.857 3.42599 6
    endloop
  endfacet
  facet normal 0 0 1
    outer loop
      vertex 114.223 3.1666 6
      vertex 114.084 3.42599 6
      vertex 103.719 3.1666 6
    endloop
  endfacet
  facet normal 0 0 1
    outer loop
      vertex 114.409 2.93929 6
      vertex 114.223 3.1666 6
      vertex 103.532 2.93929 6
    endloop
  endfacet
  facet normal 0 0 1
    outer loop
      vertex 114.409 2.93929 6
      vertex 103.532 2.93929 6
      vertex 103.305 2.75279 6
    endloop
  endfacet
  facet normal 0 0 1
    outer loop
      vertex 114.637 2.75279 6
      vertex 103.305 2.75279 6
      vertex 103.046 2.6142 6
    endloop
  endfacet
  facet normal 0 0 1
    outer loop
      vertex 114.637 2.75279 6
      vertex 103.046 2.6142 6
      vertex 114.896 2.6142 6
    endloop
  endfacet
  facet normal 0 0 1
    outer loop
      vertex 114.896 2.6142 6
      vertex 102.764 2.52879 6
      vertex 115.177 2.52879 6
    endloop
  endfacet
  facet normal 0 -1 0
    outer loop
      vertex 35.8163 1 0
      vertex 31.3163 1 6
      vertex 31.3163 1 0
    endloop
  endfacet
  facet normal 0 -1 0
    outer loop
      vertex 35.8163 1 0
      vertex 35.8163 1 6
      vertex 31.3163 1 6
    endloop
  endfacet
  facet normal -1 0 0
    outer loop
      vertex 35.8163 0 0
      vertex 35.8163 1 6
      vertex 35.8163 1 0
    endloop
  endfacet
  facet normal -1 0 0
    outer loop
      vertex 35.8163 0 0
      vertex 35.8163 0 6
      vertex 35.8163 1 6
    endloop
  endfacet
  facet normal 0 -1 0
    outer loop
      vertex 125.471 0 0
      vertex 35.8163 0 6
      vertex 35.8163 0 0
    endloop
  endfacet
  facet normal 0 -1 0
    outer loop
      vertex 125.471 0 0
      vertex 125.471 0 6
      vertex 35.8163 0 6
    endloop
  endfacet
  facet normal 0.50005 -0.865996 0
    outer loop
      vertex 135.47 5.7737 0
      vertex 125.471 0 6
      vertex 125.471 0 0
    endloop
  endfacet
  facet normal 0.50005 -0.865996 0
    outer loop
      vertex 135.47 5.7737 0
      vertex 135.47 5.7737 6
      vertex 125.471 0 6
    endloop
  endfacet
  facet normal 1 0 0
    outer loop
      vertex 135.47 8 0
      vertex 135.47 5.7737 6
      vertex 135.47 5.7737 0
    endloop
  endfacet
  facet normal 1 0 -0
    outer loop
      vertex 135.47 8 0
      vertex 135.47 8 6
      vertex 135.47 5.7737 6
    endloop
  endfacet
  facet normal 0 1 0
    outer loop
      vertex 130.72 8 0
      vertex 135.47 8 6
      vertex 135.47 8 0
    endloop
  endfacet
  facet normal 0 1 0
    outer loop
      vertex 130.72 8 0
      vertex 130.72 8 6
      vertex 135.47 8 6
    endloop
  endfacet
  facet normal -1 0 0
    outer loop
      vertex 130.72 7 0
      vertex 130.72 8 6
      vertex 130.72 8 0
    endloop
  endfacet
  facet normal -1 0 0
    outer loop
      vertex 130.72 7 0
      vertex 130.72 7 6
      vertex 130.72 8 6
    endloop
  endfacet
  facet normal 0 1 0
    outer loop
      vertex 126.22 7 0
      vertex 130.72 7 6
      vertex 130.72 7 0
    endloop
  endfacet
  facet normal 0 1 0
    outer loop
      vertex 126.22 7 0
      vertex 126.22 7 6
      vertex 130.72 7 6
    endloop
  endfacet
  facet normal 1 0 0
    outer loop
      vertex 126.22 8 0
      vertex 126.22 7 6
      vertex 126.22 7 0
    endloop
  endfacet
  facet normal 1 0 -0
    outer loop
      vertex 126.22 8 0
      vertex 126.22 8 6
      vertex 126.22 7 6
    endloop
  endfacet
  facet normal 0 1 0
    outer loop
      vertex 116.72 8 0
      vertex 126.22 8 6
      vertex 126.22 8 0
    endloop
  endfacet
  facet normal 0 1 0
    outer loop
      vertex 116.72 8 0
      vertex 116.72 8 6
      vertex 126.22 8 6
    endloop
  endfacet
  facet normal -1 0 0
    outer loop
      vertex 116.72 7 0
      vertex 116.72 8 6
      vertex 116.72 8 0
    endloop
  endfacet
  facet normal -1 0 0
    outer loop
      vertex 116.72 7 0
      vertex 116.72 7 6
      vertex 116.72 8 6
    endloop
  endfacet
  facet normal 0 1 0
    outer loop
      vertex 112.22 7 0
      vertex 116.72 7 6
      vertex 116.72 7 0
    endloop
  endfacet
  facet normal 0 1 0
    outer loop
      vertex 112.22 7 0
      vertex 112.22 7 6
      vertex 116.72 7 6
    endloop
  endfacet
  facet normal 1 0 0
    outer loop
      vertex 112.22 8 0
      vertex 112.22 7 6
      vertex 112.22 7 0
    endloop
  endfacet
  facet normal 1 0 -0
    outer loop
      vertex 112.22 8 0
      vertex 112.22 8 6
      vertex 112.22 7 6
    endloop
  endfacet
  facet normal 0 1 0
    outer loop
      vertex 102.72 8 0
      vertex 112.22 8 6
      vertex 112.22 8 0
    endloop
  endfacet
  facet normal 0 1 0
    outer loop
      vertex 102.72 8 0
      vertex 102.72 8 6
      vertex 112.22 8 6
    endloop
  endfacet
  facet normal -1 0 0
    outer loop
      vertex 102.72 7 0
      vertex 102.72 8 6
      vertex 102.72 8 0
    endloop
  endfacet
  facet normal -1 0 0
    outer loop
      vertex 102.72 7 0
      vertex 102.72 7 6
      vertex 102.72 8 6
    endloop
  endfacet
  facet normal 0 1 0
    outer loop
      vertex 98.2201 7 0
      vertex 102.72 7 6
      vertex 102.72 7 0
    endloop
  endfacet
  facet normal 0 1 0
    outer loop
      vertex 98.2201 7 0
      vertex 98.2201 7 6
      vertex 102.72 7 6
    endloop
  endfacet
  facet normal 1 0 0
    outer loop
      vertex 98.2201 8 0
      vertex 98.2201 7 6
      vertex 98.2201 7 0
    endloop
  endfacet
  facet normal 1 0 -0
    outer loop
      vertex 98.2201 8 0
      vertex 98.2201 8 6
      vertex 98.2201 7 6
    endloop
  endfacet
  facet normal 0 1 0
    outer loop
      vertex 88.7201 8 0
      vertex 98.2201 8 6
      vertex 98.2201 8 0
    endloop
  endfacet
  facet normal 0 1 0
    outer loop
      vertex 88.7201 8 0
      vertex 88.7201 8 6
      vertex 98.2201 8 6
    endloop
  endfacet
  facet normal -1 0 0
    outer loop
      vertex 88.7201 7 0
      vertex 88.7201 8 6
      vertex 88.7201 8 0
    endloop
  endfacet
  facet normal -1 0 0
    outer loop
      vertex 88.7201 7 0
      vertex 88.7201 7 6
      vertex 88.7201 8 6
    endloop
  endfacet
  facet normal 0 1 0
    outer loop
      vertex 84.2201 7 0
      vertex 88.7201 7 6
      vertex 88.7201 7 0
    endloop
  endfacet
  facet normal 0 1 0
    outer loop
      vertex 84.2201 7 0
      vertex 84.2201 7 6
      vertex 88.7201 7 6
    endloop
  endfacet
  facet normal 1 0 0
    outer loop
      vertex 84.2201 8 0
      vertex 84.2201 7 6
      vertex 84.2201 7 0
    endloop
  endfacet
  facet normal 1 0 -0
    outer loop
      vertex 84.2201 8 0
      vertex 84.2201 8 6
      vertex 84.2201 7 6
    endloop
  endfacet
  facet normal 0 1 0
    outer loop
      vertex 74.7201 8 0
      vertex 84.2201 8 6
      vertex 84.2201 8 0
    endloop
  endfacet
  facet normal 0 1 0
    outer loop
      vertex 74.7201 8 0
      vertex 74.7201 8 6
      vertex 84.2201 8 6
    endloop
  endfacet
  facet normal -1 0 0
    outer loop
      vertex 74.7201 7 0
      vertex 74.7201 8 6
      vertex 74.7201 8 0
    endloop
  endfacet
  facet normal -1 0 0
    outer loop
      vertex 74.7201 7 0
      vertex 74.7201 7 6
      vertex 74.7201 8 6
    endloop
  endfacet
  facet normal 0 1 0
    outer loop
      vertex 70.2201 7 0
      vertex 74.7201 7 6
      vertex 74.7201 7 0
    endloop
  endfacet
  facet normal 0 1 0
    outer loop
      vertex 70.2201 7 0
      vertex 70.2201 7 6
      vertex 74.7201 7 6
    endloop
  endfacet
  facet normal 1 0 0
    outer loop
      vertex 70.2201 8 0
      vertex 70.2201 7 6
      vertex 70.2201 7 0
    endloop
  endfacet
  facet normal 1 0 -0
    outer loop
      vertex 70.2201 8 0
      vertex 70.2201 8 6
      vertex 70.2201 7 6
    endloop
  endfacet
  facet normal 0 1 0
    outer loop
      vertex 60.7201 8 0
      vertex 70.2201 8 6
      vertex 70.2201 8 0
    endloop
  endfacet
  facet normal 0 1 0
    outer loop
      vertex 60.7201 8 0
      vertex 60.7201 8 6
      vertex 70.2201 8 6
    endloop
  endfacet
  facet normal -1 0 0
    outer loop
      vertex 60.7201 7 0
      vertex 60.7201 8 6
      vertex 60.7201 8 0
    endloop
  endfacet
  facet normal -1 0 0
    outer loop
      vertex 60.7201 7 0
      vertex 60.7201 7 6
      vertex 60.7201 8 6
    endloop
  endfacet
  facet normal 0 1 0
    outer loop
      vertex 56.2201 7 0
      vertex 60.7201 7 6
      vertex 60.7201 7 0
    endloop
  endfacet
  facet normal 0 1 0
    outer loop
      vertex 56.2201 7 0
      vertex 56.2201 7 6
      vertex 60.7201 7 6
    endloop
  endfacet
  facet normal 1 0 0
    outer loop
      vertex 56.2201 8 0
      vertex 56.2201 7 6
      vertex 56.2201 7 0
    endloop
  endfacet
  facet normal 1 0 -0
    outer loop
      vertex 56.2201 8 0
      vertex 56.2201 8 6
      vertex 56.2201 7 6
    endloop
  endfacet
  facet normal 0 1 0
    outer loop
      vertex 46.7201 8 0
      vertex 56.2201 8 6
      vertex 56.2201 8 0
    endloop
  endfacet
  facet normal 0 1 0
    outer loop
      vertex 46.7201 8 0
      vertex 46.7201 8 6
      vertex 56.2201 8 6
    endloop
  endfacet
  facet normal -1 0 0
    outer loop
      vertex 46.7201 7 0
      vertex 46.7201 8 6
      vertex 46.7201 8 0
    endloop
  endfacet
  facet normal -1 0 0
    outer loop
      vertex 46.7201 7 0
      vertex 46.7201 7 6
      vertex 46.7201 8 6
    endloop
  endfacet
  facet normal 0 1 0
    outer loop
      vertex 42.2201 7 0
      vertex 46.7201 7 6
      vertex 46.7201 7 0
    endloop
  endfacet
  facet normal 0 1 0
    outer loop
      vertex 42.2201 7 0
      vertex 42.2201 7 6
      vertex 46.7201 7 6
    endloop
  endfacet
  facet normal 1 0 0
    outer loop
      vertex 42.2201 8 0
      vertex 42.2201 7 6
      vertex 42.2201 7 0
    endloop
  endfacet
  facet normal 1 0 -0
    outer loop
      vertex 42.2201 8 0
      vertex 42.2201 8 6
      vertex 42.2201 7 6
    endloop
  endfacet
  facet normal 0 1 0
    outer loop
      vertex 32.7201 8 0
      vertex 42.2201 8 6
      vertex 42.2201 8 0
    endloop
  endfacet
  facet normal 0 1 0
    outer loop
      vertex 32.7201 8 0
      vertex 32.7201 8 6
      vertex 42.2201 8 6
    endloop
  endfacet
  facet normal -1 0 0
    outer loop
      vertex 32.7201 7 0
      vertex 32.7201 8 6
      vertex 32.7201 8 0
    endloop
  endfacet
  facet normal -1 0 0
    outer loop
      vertex 32.7201 7 0
      vertex 32.7201 7 6
      vertex 32.7201 8 6
    endloop
  endfacet
  facet normal 0 1 0
    outer loop
      vertex 28.2201 7 0
      vertex 32.7201 7 6
      vertex 32.7201 7 0
    endloop
  endfacet
  facet normal 0 1 0
    outer loop
      vertex 28.2201 7 0
      vertex 28.2201 7 6
      vertex 32.7201 7 6
    endloop
  endfacet
  facet normal 1 0 0
    outer loop
      vertex 28.2201 8 0
      vertex 28.2201 7 6
      vertex 28.2201 7 0
    endloop
  endfacet
  facet normal 1 0 -0
    outer loop
      vertex 28.2201 8 0
      vertex 28.2201 8 6
      vertex 28.2201 7 6
    endloop
  endfacet
  facet normal 0 1 0
    outer loop
      vertex 18.7201 8 0
      vertex 28.2201 8 6
      vertex 28.2201 8 0
    endloop
  endfacet
  facet normal 0 1 0
    outer loop
      vertex 18.7201 8 0
      vertex 18.7201 8 6
      vertex 28.2201 8 6
    endloop
  endfacet
  facet normal -1 0 0
    outer loop
      vertex 18.7201 7 0
      vertex 18.7201 8 6
      vertex 18.7201 8 0
    endloop
  endfacet
  facet normal -1 0 0
    outer loop
      vertex 18.7201 7 0
      vertex 18.7201 7 6
      vertex 18.7201 8 6
    endloop
  endfacet
  facet normal 0 1 0
    outer loop
      vertex 14.2201 7 0
      vertex 18.7201 7 6
      vertex 18.7201 7 0
    endloop
  endfacet
  facet normal 0 1 0
    outer loop
      vertex 14.2201 7 0
      vertex 14.2201 7 6
      vertex 18.7201 7 6
    endloop
  endfacet
  facet normal 1 0 0
    outer loop
      vertex 14.2201 8 0
      vertex 14.2201 7 6
      vertex 14.2201 7 0
    endloop
  endfacet
  facet normal 1 0 -0
    outer loop
      vertex 14.2201 8 0
      vertex 14.2201 8 6
      vertex 14.2201 7 6
    endloop
  endfacet
  facet normal 0 1 0
    outer loop
      vertex 4.61909 8 0
      vertex 14.2201 8 6
      vertex 14.2201 8 0
    endloop
  endfacet
  facet normal 0 1 0
    outer loop
      vertex 4.61909 8 0
      vertex 4.61909 8 6
      vertex 14.2201 8 6
    endloop
  endfacet
  facet normal -0.865982 -0.500076 0
    outer loop
      vertex 6.06259 5.50029 0
      vertex 4.61909 8 6
      vertex 4.61909 8 0
    endloop
  endfacet
  facet normal -0.865982 -0.500076 0
    outer loop
      vertex 6.06259 5.50029 0
      vertex 6.06259 5.50029 6
      vertex 4.61909 8 6
    endloop
  endfacet
  facet normal -0.500055 0.865994 0
    outer loop
      vertex 3.46439 4 0
      vertex 6.06259 5.50029 6
      vertex 6.06259 5.50029 0
    endloop
  endfacet
  facet normal -0.500055 0.865994 0
    outer loop
      vertex 3.46439 4 0
      vertex 3.46439 4 6
      vertex 6.06259 5.50029 6
    endloop
  endfacet
  facet normal -0.866007 -0.500032 0
    outer loop
      vertex 5.77399 0 0
      vertex 3.46439 4 6
      vertex 3.46439 4 0
    endloop
  endfacet
  facet normal -0.866007 -0.500032 0
    outer loop
      vertex 5.77399 0 0
      vertex 5.77399 0 6
      vertex 3.46439 4 6
    endloop
  endfacet
  facet normal 0 -1 0
    outer loop
      vertex 31.3163 0 0
      vertex 5.77399 0 6
      vertex 5.77399 0 0
    endloop
  endfacet
  facet normal 0 -1 0
    outer loop
      vertex 31.3163 0 0
      vertex 31.3163 0 6
      vertex 5.77399 0 6
    endloop
  endfacet
  facet normal 1 0 0
    outer loop
      vertex 31.3163 1 0
      vertex 31.3163 0 6
      vertex 31.3163 0 0
    endloop
  endfacet
  facet normal 1 0 -0
    outer loop
      vertex 31.3163 1 0
      vertex 31.3163 1 6
      vertex 31.3163 0 6
    endloop
  endfacet
  facet normal 0.290813 0.95678 -0
    outer loop
      vertex 114.896 2.6142 0
      vertex 114.896 2.6142 6
      vertex 115.177 2.52879 0
    endloop
  endfacet
  facet normal 0.290813 0.95678 0
    outer loop
      vertex 115.177 2.52879 6
      vertex 115.177 2.52879 0
      vertex 114.896 2.6142 6
    endloop
  endfacet
  facet normal 0.471798 0.881707 -0
    outer loop
      vertex 114.637 2.75279 0
      vertex 114.637 2.75279 6
      vertex 114.896 2.6142 0
    endloop
  endfacet
  facet normal 0.471798 0.881707 0
    outer loop
      vertex 114.896 2.6142 6
      vertex 114.896 2.6142 0
      vertex 114.637 2.75279 6
    endloop
  endfacet
  facet normal 0.633145 0.774033 -0
    outer loop
      vertex 114.409 2.93929 0
      vertex 114.409 2.93929 6
      vertex 114.637 2.75279 0
    endloop
  endfacet
  facet normal 0.633145 0.774033 0
    outer loop
      vertex 114.637 2.75279 6
      vertex 114.637 2.75279 0
      vertex 114.409 2.93929 6
    endloop
  endfacet
  facet normal 0.773925 0.633277 -0
    outer loop
      vertex 114.223 3.1666 0
      vertex 114.223 3.1666 6
      vertex 114.409 2.93929 0
    endloop
  endfacet
  facet normal 0.773925 0.633277 0
    outer loop
      vertex 114.409 2.93929 6
      vertex 114.409 2.93929 0
      vertex 114.223 3.1666 6
    endloop
  endfacet
  facet normal 0.881422 0.47233 -0
    outer loop
      vertex 114.084 3.42599 0
      vertex 114.084 3.42599 6
      vertex 114.223 3.1666 0
    endloop
  endfacet
  facet normal 0.881422 0.47233 0
    outer loop
      vertex 114.223 3.1666 6
      vertex 114.223 3.1666 0
      vertex 114.084 3.42599 6
    endloop
  endfacet
  facet normal 0.957284 0.289148 -0
    outer loop
      vertex 113.999 3.7074 0
      vertex 113.999 3.7074 6
      vertex 114.084 3.42599 0
    endloop
  endfacet
  facet normal 0.957284 0.289148 0
    outer loop
      vertex 114.084 3.42599 6
      vertex 114.084 3.42599 0
      vertex 113.999 3.7074 6
    endloop
  endfacet
  facet normal 0.995124 0.0986282 -0
    outer loop
      vertex 113.97 4 0
      vertex 113.97 4 6
      vertex 113.999 3.7074 0
    endloop
  endfacet
  facet normal 0.995124 0.0986282 0
    outer loop
      vertex 113.999 3.7074 6
      vertex 113.999 3.7074 0
      vertex 113.97 4 6
    endloop
  endfacet
  facet normal 0.995124 -0.0986315 0
    outer loop
      vertex 113.999 4.29259 0
      vertex 113.999 4.29259 6
      vertex 113.97 4 0
    endloop
  endfacet
  facet normal 0.995124 -0.0986315 0
    outer loop
      vertex 113.97 4 6
      vertex 113.97 4 0
      vertex 113.999 4.29259 6
    endloop
  endfacet
  facet normal 0.957282 -0.289158 0
    outer loop
      vertex 114.084 4.57399 0
      vertex 114.084 4.57399 6
      vertex 113.999 4.29259 0
    endloop
  endfacet
  facet normal 0.957282 -0.289158 0
    outer loop
      vertex 113.999 4.29259 6
      vertex 113.999 4.29259 0
      vertex 114.084 4.57399 6
    endloop
  endfacet
  facet normal 0.881429 -0.472316 0
    outer loop
      vertex 114.223 4.83339 0
      vertex 114.223 4.83339 6
      vertex 114.084 4.57399 0
    endloop
  endfacet
  facet normal 0.881429 -0.472316 0
    outer loop
      vertex 114.084 4.57399 6
      vertex 114.084 4.57399 0
      vertex 114.223 4.83339 6
    endloop
  endfacet
  facet normal 0.773925 -0.633277 0
    outer loop
      vertex 114.409 5.0607 0
      vertex 114.409 5.0607 6
      vertex 114.223 4.83339 0
    endloop
  endfacet
  facet normal 0.773925 -0.633277 0
    outer loop
      vertex 114.223 4.83339 6
      vertex 114.223 4.83339 0
      vertex 114.409 5.0607 6
    endloop
  endfacet
  facet normal 0.633125 -0.77405 0
    outer loop
      vertex 114.637 5.24719 0
      vertex 114.637 5.24719 6
      vertex 114.409 5.0607 0
    endloop
  endfacet
  facet normal 0.633125 -0.77405 0
    outer loop
      vertex 114.409 5.0607 6
      vertex 114.409 5.0607 0
      vertex 114.637 5.24719 6
    endloop
  endfacet
  facet normal 0.471825 -0.881692 0
    outer loop
      vertex 114.896 5.38579 0
      vertex 114.896 5.38579 6
      vertex 114.637 5.24719 0
    endloop
  endfacet
  facet normal 0.471825 -0.881692 0
    outer loop
      vertex 114.637 5.24719 6
      vertex 114.637 5.24719 0
      vertex 114.896 5.38579 6
    endloop
  endfacet
  facet normal 0.290782 -0.956789 0
    outer loop
      vertex 115.177 5.47119 0
      vertex 115.177 5.47119 6
      vertex 114.896 5.38579 0
    endloop
  endfacet
  facet normal 0.290782 -0.956789 0
    outer loop
      vertex 114.896 5.38579 6
      vertex 114.896 5.38579 0
      vertex 115.177 5.47119 6
    endloop
  endfacet
  facet normal 0.0978557 -0.995201 0
    outer loop
      vertex 115.47 5.5 0
      vertex 115.47 5.5 6
      vertex 115.177 5.47119 0
    endloop
  endfacet
  facet normal 0.0978557 -0.995201 0
    outer loop
      vertex 115.177 5.47119 6
      vertex 115.177 5.47119 0
      vertex 115.47 5.5 6
    endloop
  endfacet
  facet normal -0.0978557 -0.995201 0
    outer loop
      vertex 115.763 5.47119 0
      vertex 115.763 5.47119 6
      vertex 115.47 5.5 0
    endloop
  endfacet
  facet normal -0.0978557 -0.995201 -0
    outer loop
      vertex 115.47 5.5 6
      vertex 115.47 5.5 0
      vertex 115.763 5.47119 6
    endloop
  endfacet
  facet normal -0.290782 -0.956789 0
    outer loop
      vertex 116.044 5.38579 0
      vertex 116.044 5.38579 6
      vertex 115.763 5.47119 0
    endloop
  endfacet
  facet normal -0.290782 -0.956789 -0
    outer loop
      vertex 115.763 5.47119 6
      vertex 115.763 5.47119 0
      vertex 116.044 5.38579 6
    endloop
  endfacet
  facet normal -0.471825 -0.881692 0
    outer loop
      vertex 116.303 5.24719 0
      vertex 116.303 5.24719 6
      vertex 116.044 5.38579 0
    endloop
  endfacet
  facet normal -0.471825 -0.881692 -0
    outer loop
      vertex 116.044 5.38579 6
      vertex 116.044 5.38579 0
      vertex 116.303 5.24719 6
    endloop
  endfacet
  facet normal -0.633125 -0.77405 0
    outer loop
      vertex 116.531 5.0607 0
      vertex 116.531 5.0607 6
      vertex 116.303 5.24719 0
    endloop
  endfacet
  facet normal -0.633125 -0.77405 -0
    outer loop
      vertex 116.303 5.24719 6
      vertex 116.303 5.24719 0
      vertex 116.531 5.0607 6
    endloop
  endfacet
  facet normal -0.773925 -0.633277 0
    outer loop
      vertex 116.717 4.83339 0
      vertex 116.717 4.83339 6
      vertex 116.531 5.0607 0
    endloop
  endfacet
  facet normal -0.773925 -0.633277 -0
    outer loop
      vertex 116.531 5.0607 6
      vertex 116.531 5.0607 0
      vertex 116.717 4.83339 6
    endloop
  endfacet
  facet normal -0.881429 -0.472316 0
    outer loop
      vertex 116.856 4.57399 0
      vertex 116.856 4.57399 6
      vertex 116.717 4.83339 0
    endloop
  endfacet
  facet normal -0.881429 -0.472316 -0
    outer loop
      vertex 116.717 4.83339 6
      vertex 116.717 4.83339 0
      vertex 116.856 4.57399 6
    endloop
  endfacet
  facet normal -0.957282 -0.289158 0
    outer loop
      vertex 116.941 4.29259 0
      vertex 116.941 4.29259 6
      vertex 116.856 4.57399 0
    endloop
  endfacet
  facet normal -0.957282 -0.289158 -0
    outer loop
      vertex 116.856 4.57399 6
      vertex 116.856 4.57399 0
      vertex 116.941 4.29259 6
    endloop
  endfacet
  facet normal -0.995124 -0.0986315 0
    outer loop
      vertex 116.97 4 0
      vertex 116.97 4 6
      vertex 116.941 4.29259 0
    endloop
  endfacet
  facet normal -0.995124 -0.0986315 -0
    outer loop
      vertex 116.941 4.29259 6
      vertex 116.941 4.29259 0
      vertex 116.97 4 6
    endloop
  endfacet
  facet normal -0.995124 0.0986282 0
    outer loop
      vertex 116.941 3.7074 0
      vertex 116.941 3.7074 6
      vertex 116.97 4 0
    endloop
  endfacet
  facet normal -0.995124 0.0986282 0
    outer loop
      vertex 116.97 4 6
      vertex 116.97 4 0
      vertex 116.941 3.7074 6
    endloop
  endfacet
  facet normal -0.957284 0.289148 0
    outer loop
      vertex 116.856 3.42599 0
      vertex 116.856 3.42599 6
      vertex 116.941 3.7074 0
    endloop
  endfacet
  facet normal -0.957284 0.289148 0
    outer loop
      vertex 116.941 3.7074 6
      vertex 116.941 3.7074 0
      vertex 116.856 3.42599 6
    endloop
  endfacet
  facet normal -0.881422 0.47233 0
    outer loop
      vertex 116.717 3.1666 0
      vertex 116.717 3.1666 6
      vertex 116.856 3.42599 0
    endloop
  endfacet
  facet normal -0.881422 0.47233 0
    outer loop
      vertex 116.856 3.42599 6
      vertex 116.856 3.42599 0
      vertex 116.717 3.1666 6
    endloop
  endfacet
  facet normal -0.773925 0.633277 0
    outer loop
      vertex 116.531 2.93929 0
      vertex 116.531 2.93929 6
      vertex 116.717 3.1666 0
    endloop
  endfacet
  facet normal -0.773925 0.633277 0
    outer loop
      vertex 116.717 3.1666 6
      vertex 116.717 3.1666 0
      vertex 116.531 2.93929 6
    endloop
  endfacet
  facet normal -0.633145 0.774033 0
    outer loop
      vertex 116.303 2.75279 0
      vertex 116.303 2.75279 6
      vertex 116.531 2.93929 0
    endloop
  endfacet
  facet normal -0.633145 0.774033 0
    outer loop
      vertex 116.531 2.93929 6
      vertex 116.531 2.93929 0
      vertex 116.303 2.75279 6
    endloop
  endfacet
  facet normal -0.471798 0.881707 0
    outer loop
      vertex 116.044 2.6142 0
      vertex 116.044 2.6142 6
      vertex 116.303 2.75279 0
    endloop
  endfacet
  facet normal -0.471798 0.881707 0
    outer loop
      vertex 116.303 2.75279 6
      vertex 116.303 2.75279 0
      vertex 116.044 2.6142 6
    endloop
  endfacet
  facet normal -0.290813 0.95678 0
    outer loop
      vertex 115.763 2.52879 0
      vertex 115.763 2.52879 6
      vertex 116.044 2.6142 0
    endloop
  endfacet
  facet normal -0.290813 0.95678 0
    outer loop
      vertex 116.044 2.6142 6
      vertex 116.044 2.6142 0
      vertex 115.763 2.52879 6
    endloop
  endfacet
  facet normal -0.0977885 0.995207 0
    outer loop
      vertex 115.47 2.5 0
      vertex 115.47 2.5 6
      vertex 115.763 2.52879 0
    endloop
  endfacet
  facet normal -0.0977885 0.995207 0
    outer loop
      vertex 115.763 2.52879 6
      vertex 115.763 2.52879 0
      vertex 115.47 2.5 6
    endloop
  endfacet
  facet normal 0.0977885 0.995207 -0
    outer loop
      vertex 115.177 2.52879 0
      vertex 115.177 2.52879 6
      vertex 115.47 2.5 0
    endloop
  endfacet
  facet normal 0.0977885 0.995207 0
    outer loop
      vertex 115.47 2.5 6
      vertex 115.47 2.5 0
      vertex 115.177 2.52879 6
    endloop
  endfacet
  facet normal 0.290813 0.95678 -0
    outer loop
      vertex 101.898 2.6142 0
      vertex 101.898 2.6142 6
      vertex 102.179 2.52879 0
    endloop
  endfacet
  facet normal 0.290813 0.95678 0
    outer loop
      vertex 102.179 2.52879 6
      vertex 102.179 2.52879 0
      vertex 101.898 2.6142 6
    endloop
  endfacet
  facet normal 0.470386 0.882461 -0
    outer loop
      vertex 101.638 2.75279 0
      vertex 101.638 2.75279 6
      vertex 101.898 2.6142 0
    endloop
  endfacet
  facet normal 0.470386 0.882461 0
    outer loop
      vertex 101.898 2.6142 6
      vertex 101.898 2.6142 0
      vertex 101.638 2.75279 6
    endloop
  endfacet
  facet normal 0.634812 0.772667 -0
    outer loop
      vertex 101.411 2.93929 0
      vertex 101.411 2.93929 6
      vertex 101.638 2.75279 0
    endloop
  endfacet
  facet normal 0.634812 0.772667 0
    outer loop
      vertex 101.638 2.75279 6
      vertex 101.638 2.75279 0
      vertex 101.411 2.93929 6
    endloop
  endfacet
  facet normal 0.772258 0.635309 -0
    outer loop
      vertex 101.224 3.1666 0
      vertex 101.224 3.1666 6
      vertex 101.411 2.93929 0
    endloop
  endfacet
  facet normal 0.772258 0.635309 0
    outer loop
      vertex 101.411 2.93929 6
      vertex 101.411 2.93929 0
      vertex 101.224 3.1666 6
    endloop
  endfacet
  facet normal 0.882835 0.469684 -0
    outer loop
      vertex 101.086 3.42599 0
      vertex 101.086 3.42599 6
      vertex 101.224 3.1666 0
    endloop
  endfacet
  facet normal 0.882835 0.469684 0
    outer loop
      vertex 101.224 3.1666 6
      vertex 101.224 3.1666 0
      vertex 101.086 3.42599 6
    endloop
  endfacet
  facet normal 0.956339 0.292261 -0
    outer loop
      vertex 101 3.7074 0
      vertex 101 3.7074 6
      vertex 101.086 3.42599 0
    endloop
  endfacet
  facet normal 0.956339 0.292261 0
    outer loop
      vertex 101.086 3.42599 6
      vertex 101.086 3.42599 0
      vertex 101 3.7074 6
    endloop
  endfacet
  facet normal 0.995453 0.0952586 -0
    outer loop
      vertex 100.972 4 0
      vertex 100.972 4 6
      vertex 101 3.7074 0
    endloop
  endfacet
  facet normal 0.995453 0.0952586 0
    outer loop
      vertex 101 3.7074 6
      vertex 101 3.7074 0
      vertex 100.972 4 6
    endloop
  endfacet
  facet normal 0.995452 -0.0952618 0
    outer loop
      vertex 101 4.29259 0
      vertex 101 4.29259 6
      vertex 100.972 4 0
    endloop
  endfacet
  facet normal 0.995452 -0.0952618 0
    outer loop
      vertex 100.972 4 6
      vertex 100.972 4 0
      vertex 101 4.29259 6
    endloop
  endfacet
  facet normal 0.956336 -0.29227 0
    outer loop
      vertex 101.086 4.57399 0
      vertex 101.086 4.57399 6
      vertex 101 4.29259 0
    endloop
  endfacet
  facet normal 0.956336 -0.29227 0
    outer loop
      vertex 101 4.29259 6
      vertex 101 4.29259 0
      vertex 101.086 4.57399 6
    endloop
  endfacet
  facet normal 0.882842 -0.469669 0
    outer loop
      vertex 101.224 4.83339 0
      vertex 101.224 4.83339 6
      vertex 101.086 4.57399 0
    endloop
  endfacet
  facet normal 0.882842 -0.469669 0
    outer loop
      vertex 101.086 4.57399 6
      vertex 101.086 4.57399 0
      vertex 101.224 4.83339 6
    endloop
  endfacet
  facet normal 0.772258 -0.635309 0
    outer loop
      vertex 101.411 5.0607 0
      vertex 101.411 5.0607 6
      vertex 101.224 4.83339 0
    endloop
  endfacet
  facet normal 0.772258 -0.635309 0
    outer loop
      vertex 101.224 4.83339 6
      vertex 101.224 4.83339 0
      vertex 101.411 5.0607 6
    endloop
  endfacet
  facet normal 0.634792 -0.772683 0
    outer loop
      vertex 101.638 5.24719 0
      vertex 101.638 5.24719 6
      vertex 101.411 5.0607 0
    endloop
  endfacet
  facet normal 0.634792 -0.772683 0
    outer loop
      vertex 101.411 5.0607 6
      vertex 101.411 5.0607 0
      vertex 101.638 5.24719 6
    endloop
  endfacet
  facet normal 0.470412 -0.882447 0
    outer loop
      vertex 101.898 5.38579 0
      vertex 101.898 5.38579 6
      vertex 101.638 5.24719 0
    endloop
  endfacet
  facet normal 0.470412 -0.882447 0
    outer loop
      vertex 101.638 5.24719 6
      vertex 101.638 5.24719 0
      vertex 101.898 5.38579 6
    endloop
  endfacet
  facet normal 0.290782 -0.956789 0
    outer loop
      vertex 102.179 5.47119 0
      vertex 102.179 5.47119 6
      vertex 101.898 5.38579 0
    endloop
  endfacet
  facet normal 0.290782 -0.956789 0
    outer loop
      vertex 101.898 5.38579 6
      vertex 101.898 5.38579 0
      vertex 102.179 5.47119 6
    endloop
  endfacet
  facet normal 0.0978557 -0.995201 0
    outer loop
      vertex 102.472 5.5 0
      vertex 102.472 5.5 6
      vertex 102.179 5.47119 0
    endloop
  endfacet
  facet normal 0.0978557 -0.995201 0
    outer loop
      vertex 102.179 5.47119 6
      vertex 102.179 5.47119 0
      vertex 102.472 5.5 6
    endloop
  endfacet
  facet normal -0.0981876 -0.995168 0
    outer loop
      vertex 102.764 5.47119 0
      vertex 102.764 5.47119 6
      vertex 102.472 5.5 0
    endloop
  endfacet
  facet normal -0.0981876 -0.995168 -0
    outer loop
      vertex 102.472 5.5 6
      vertex 102.472 5.5 0
      vertex 102.764 5.47119 6
    endloop
  endfacet
  facet normal -0.289838 -0.957076 0
    outer loop
      vertex 103.046 5.38579 0
      vertex 103.046 5.38579 6
      vertex 102.764 5.47119 0
    endloop
  endfacet
  facet normal -0.289838 -0.957076 -0
    outer loop
      vertex 102.764 5.47119 6
      vertex 102.764 5.47119 0
      vertex 103.046 5.38579 6
    endloop
  endfacet
  facet normal -0.471825 -0.881692 0
    outer loop
      vertex 103.305 5.24719 0
      vertex 103.305 5.24719 6
      vertex 103.046 5.38579 0
    endloop
  endfacet
  facet normal -0.471825 -0.881692 -0
    outer loop
      vertex 103.046 5.38579 6
      vertex 103.046 5.38579 0
      vertex 103.305 5.24719 6
    endloop
  endfacet
  facet normal -0.634792 -0.772683 0
    outer loop
      vertex 103.532 5.0607 0
      vertex 103.532 5.0607 6
      vertex 103.305 5.24719 0
    endloop
  endfacet
  facet normal -0.634792 -0.772683 -0
    outer loop
      vertex 103.305 5.24719 6
      vertex 103.305 5.24719 0
      vertex 103.532 5.0607 6
    endloop
  endfacet
  facet normal -0.772258 -0.635309 0
    outer loop
      vertex 103.719 4.83339 0
      vertex 103.719 4.83339 6
      vertex 103.532 5.0607 0
    endloop
  endfacet
  facet normal -0.772258 -0.635309 -0
    outer loop
      vertex 103.532 5.0607 6
      vertex 103.532 5.0607 0
      vertex 103.719 4.83339 6
    endloop
  endfacet
  facet normal -0.882842 -0.469669 0
    outer loop
      vertex 103.857 4.57399 0
      vertex 103.857 4.57399 6
      vertex 103.719 4.83339 0
    endloop
  endfacet
  facet normal -0.882842 -0.469669 -0
    outer loop
      vertex 103.719 4.83339 6
      vertex 103.719 4.83339 0
      vertex 103.857 4.57399 6
    endloop
  endfacet
  facet normal -0.956336 -0.29227 0
    outer loop
      vertex 103.943 4.29259 0
      vertex 103.943 4.29259 6
      vertex 103.857 4.57399 0
    endloop
  endfacet
  facet normal -0.956336 -0.29227 -0
    outer loop
      vertex 103.857 4.57399 6
      vertex 103.857 4.57399 0
      vertex 103.943 4.29259 6
    endloop
  endfacet
  facet normal -0.995124 -0.0986315 0
    outer loop
      vertex 103.972 4 0
      vertex 103.972 4 6
      vertex 103.943 4.29259 0
    endloop
  endfacet
  facet normal -0.995124 -0.0986315 -0
    outer loop
      vertex 103.943 4.29259 6
      vertex 103.943 4.29259 0
      vertex 103.972 4 6
    endloop
  endfacet
  facet normal -0.995124 0.0986282 0
    outer loop
      vertex 103.943 3.7074 0
      vertex 103.943 3.7074 6
      vertex 103.972 4 0
    endloop
  endfacet
  facet normal -0.995124 0.0986282 0
    outer loop
      vertex 103.972 4 6
      vertex 103.972 4 0
      vertex 103.943 3.7074 6
    endloop
  endfacet
  facet normal -0.956339 0.292261 0
    outer loop
      vertex 103.857 3.42599 0
      vertex 103.857 3.42599 6
      vertex 103.943 3.7074 0
    endloop
  endfacet
  facet normal -0.956339 0.292261 0
    outer loop
      vertex 103.943 3.7074 6
      vertex 103.943 3.7074 0
      vertex 103.857 3.42599 6
    endloop
  endfacet
  facet normal -0.882835 0.469684 0
    outer loop
      vertex 103.719 3.1666 0
      vertex 103.719 3.1666 6
      vertex 103.857 3.42599 0
    endloop
  endfacet
  facet normal -0.882835 0.469684 0
    outer loop
      vertex 103.857 3.42599 6
      vertex 103.857 3.42599 0
      vertex 103.719 3.1666 6
    endloop
  endfacet
  facet normal -0.772258 0.635309 0
    outer loop
      vertex 103.532 2.93929 0
      vertex 103.532 2.93929 6
      vertex 103.719 3.1666 0
    endloop
  endfacet
  facet normal -0.772258 0.635309 0
    outer loop
      vertex 103.719 3.1666 6
      vertex 103.719 3.1666 0
      vertex 103.532 2.93929 6
    endloop
  endfacet
  facet normal -0.634812 0.772667 0
    outer loop
      vertex 103.305 2.75279 0
      vertex 103.305 2.75279 6
      vertex 103.532 2.93929 0
    endloop
  endfacet
  facet normal -0.634812 0.772667 0
    outer loop
      vertex 103.532 2.93929 6
      vertex 103.532 2.93929 0
      vertex 103.305 2.75279 6
    endloop
  endfacet
  facet normal -0.471798 0.881707 0
    outer loop
      vertex 103.046 2.6142 0
      vertex 103.046 2.6142 6
      vertex 103.305 2.75279 0
    endloop
  endfacet
  facet normal -0.471798 0.881707 0
    outer loop
      vertex 103.305 2.75279 6
      vertex 103.305 2.75279 0
      vertex 103.046 2.6142 6
    endloop
  endfacet
  facet normal -0.289869 0.957066 0
    outer loop
      vertex 102.764 2.52879 0
      vertex 102.764 2.52879 6
      vertex 103.046 2.6142 0
    endloop
  endfacet
  facet normal -0.289869 0.957066 0
    outer loop
      vertex 103.046 2.6142 6
      vertex 103.046 2.6142 0
      vertex 102.764 2.52879 6
    endloop
  endfacet
  facet normal -0.0981201 0.995175 0
    outer loop
      vertex 102.472 2.5 0
      vertex 102.472 2.5 6
      vertex 102.764 2.52879 0
    endloop
  endfacet
  facet normal -0.0981201 0.995175 0
    outer loop
      vertex 102.764 2.52879 6
      vertex 102.764 2.52879 0
      vertex 102.472 2.5 6
    endloop
  endfacet
  facet normal 0.0977885 0.995207 -0
    outer loop
      vertex 102.179 2.52879 0
      vertex 102.179 2.52879 6
      vertex 102.472 2.5 0
    endloop
  endfacet
  facet normal 0.0977885 0.995207 0
    outer loop
      vertex 102.472 2.5 6
      vertex 102.472 2.5 0
      vertex 102.179 2.52879 6
    endloop
  endfacet
endsolid OpenSCAD_Model
