solid OpenSCAD_Model
  facet normal 0 0 -1
    outer loop
      vertex 41.6757 0 0
      vertex 46.603 4 0
      vertex 47.1031 3.13399 0
    endloop
  endfacet
  facet normal 0 0 -1
    outer loop
      vertex 41.6757 0 0
      vertex 41.1756 0.865997 0
      vertex 46.603 4 0
    endloop
  endfacet
  facet normal 0 0 -1
    outer loop
      vertex 0 4 0
      vertex 41.1756 0.865997 0
      vertex 39.6759 0 0
    endloop
  endfacet
  facet normal -0 0 -1
    outer loop
      vertex 46.603 4 0
      vertex 41.1756 0.865997 0
      vertex 0 4 0
    endloop
  endfacet
  facet normal 0 0 -1
    outer loop
      vertex 0 4 0
      vertex 39.6759 0 0
      vertex 0 0 0
    endloop
  endfacet
  facet normal 0 0 1
    outer loop
      vertex 47.1031 3.13399 6
      vertex 46.603 4 6
      vertex 41.6757 0 6
    endloop
  endfacet
  facet normal 0 0 1
    outer loop
      vertex 46.603 4 6
      vertex 41.1756 0.865997 6
      vertex 41.6757 0 6
    endloop
  endfacet
  facet normal 0 -0 1
    outer loop
      vertex 39.6759 0 6
      vertex 41.1756 0.865997 6
      vertex 0 4 6
    endloop
  endfacet
  facet normal -0 0 1
    outer loop
      vertex 0 4 6
      vertex 41.1756 0.865997 6
      vertex 46.603 4 6
    endloop
  endfacet
  facet normal 0 0 1
    outer loop
      vertex 0 0 6
      vertex 39.6759 0 6
      vertex 0 4 6
    endloop
  endfacet
  facet normal -0.865975 -0.500087 0
    outer loop
      vertex 41.6757 0 0
      vertex 41.1756 0.865997 6
      vertex 41.1756 0.865997 0
    endloop
  endfacet
  facet normal -0.865975 -0.500087 0
    outer loop
      vertex 41.6757 0 0
      vertex 41.6757 0 6
      vertex 41.1756 0.865997 6
    endloop
  endfacet
  facet normal 0.500057 -0.865992 0
    outer loop
      vertex 47.1031 3.13399 0
      vertex 41.6757 0 6
      vertex 41.6757 0 0
    endloop
  endfacet
  facet normal 0.500057 -0.865992 0
    outer loop
      vertex 47.1031 3.13399 0
      vertex 47.1031 3.13399 6
      vertex 41.6757 0 6
    endloop
  endfacet
  facet normal 0.865978 0.500082 0
    outer loop
      vertex 46.603 4 0
      vertex 47.1031 3.13399 6
      vertex 47.1031 3.13399 0
    endloop
  endfacet
  facet normal 0.865978 0.500082 -0
    outer loop
      vertex 46.603 4 0
      vertex 46.603 4 6
      vertex 47.1031 3.13399 6
    endloop
  endfacet
  facet normal 0 1 0
    outer loop
      vertex 0 4 0
      vertex 46.603 4 6
      vertex 46.603 4 0
    endloop
  endfacet
  facet normal 0 1 0
    outer loop
      vertex 0 4 0
      vertex 0 4 6
      vertex 46.603 4 6
    endloop
  endfacet
  facet normal -1 0 0
    outer loop
      vertex 0 0 0
      vertex 0 4 6
      vertex 0 4 0
    endloop
  endfacet
  facet normal -1 0 0
    outer loop
      vertex 0 0 0
      vertex 0 0 6
      vertex 0 4 6
    endloop
  endfacet
  facet normal 0 -1 0
    outer loop
      vertex 39.6759 0 0
      vertex 0 0 6
      vertex 0 0 0
    endloop
  endfacet
  facet normal 0 -1 0
    outer loop
      vertex 39.6759 0 0
      vertex 39.6759 0 6
      vertex 0 0 6
    endloop
  endfacet
  facet normal 0.500063 -0.865989 0
    outer loop
      vertex 41.1756 0.865997 0
      vertex 39.6759 0 6
      vertex 39.6759 0 0
    endloop
  endfacet
  facet normal 0.500063 -0.865989 0
    outer loop
      vertex 41.1756 0.865997 0
      vertex 41.1756 0.865997 6
      vertex 39.6759 0 6
    endloop
  endfacet
endsolid OpenSCAD_Model
