solid OpenSCAD_Model
  facet normal 0 1 -0
    outer loop
      vertex 35.4423 6 0
      vertex 16.25 6 1
      vertex 35.4423 6 1
    endloop
  endfacet
  facet normal 0 1 0
    outer loop
      vertex 16.25 6 1
      vertex 35.4423 6 0
      vertex 16.25 6 0
    endloop
  endfacet
  facet normal 0 1 -0
    outer loop
      vertex 53.4524 6 0
      vertex 42.5476 6 1
      vertex 53.4524 6 1
    endloop
  endfacet
  facet normal 0 1 0
    outer loop
      vertex 42.5476 6 1
      vertex 53.4524 6 0
      vertex 42.5476 6 0
    endloop
  endfacet
  facet normal 0 1 -0
    outer loop
      vertex 79.75 6 0
      vertex 60.5577 6 1
      vertex 79.75 6 1
    endloop
  endfacet
  facet normal 0 1 0
    outer loop
      vertex 60.5577 6 1
      vertex 79.75 6 0
      vertex 60.5577 6 0
    endloop
  endfacet
  facet normal 0 1 -0
    outer loop
      vertex 105.442 6 0
      vertex 86.25 6 1
      vertex 105.442 6 1
    endloop
  endfacet
  facet normal 0 1 0
    outer loop
      vertex 86.25 6 1
      vertex 105.442 6 0
      vertex 86.25 6 0
    endloop
  endfacet
  facet normal 0 1 -0
    outer loop
      vertex 123.452 6 0
      vertex 112.548 6 1
      vertex 123.452 6 1
    endloop
  endfacet
  facet normal 0 1 0
    outer loop
      vertex 112.548 6 1
      vertex 123.452 6 0
      vertex 112.548 6 0
    endloop
  endfacet
  facet normal 0 1 -0
    outer loop
      vertex 149.75 6 0
      vertex 130.558 6 1
      vertex 149.75 6 1
    endloop
  endfacet
  facet normal 0 1 0
    outer loop
      vertex 130.558 6 1
      vertex 149.75 6 0
      vertex 130.558 6 0
    endloop
  endfacet
  facet normal 0 1 0
    outer loop
      vertex 149.75 6 1
      vertex 166 6 6.19629
      vertex 156.25 6 1
    endloop
  endfacet
  facet normal 0 1 -0
    outer loop
      vertex 166 6 0
      vertex 156.25 6 1
      vertex 166 6 6.19629
    endloop
  endfacet
  facet normal 0 1 0
    outer loop
      vertex 156.25 6 1
      vertex 166 6 0
      vertex 156.25 6 0
    endloop
  endfacet
  facet normal 0 1 0
    outer loop
      vertex 130.558 6 1
      vertex 166 6 6.19629
      vertex 149.75 6 1
    endloop
  endfacet
  facet normal 0 1 0
    outer loop
      vertex 123.452 6 1
      vertex 166 6 6.19629
      vertex 130.558 6 1
    endloop
  endfacet
  facet normal 0 1 0
    outer loop
      vertex 112.548 6 1
      vertex 166 6 6.19629
      vertex 123.452 6 1
    endloop
  endfacet
  facet normal 0 1 0
    outer loop
      vertex 105.442 6 1
      vertex 166 6 6.19629
      vertex 112.548 6 1
    endloop
  endfacet
  facet normal 0 1 0
    outer loop
      vertex 86.25 6 1
      vertex 166 6 6.19629
      vertex 105.442 6 1
    endloop
  endfacet
  facet normal 0 1 0
    outer loop
      vertex 166 6 6.19629
      vertex 86.25 6 1
      vertex 0 6 6.19629
    endloop
  endfacet
  facet normal 0 1 -0
    outer loop
      vertex 79.75 6 1
      vertex 0 6 6.19629
      vertex 86.25 6 1
    endloop
  endfacet
  facet normal 0 1 -0
    outer loop
      vertex 60.5577 6 1
      vertex 0 6 6.19629
      vertex 79.75 6 1
    endloop
  endfacet
  facet normal 0 1 -0
    outer loop
      vertex 53.4524 6 1
      vertex 0 6 6.19629
      vertex 60.5577 6 1
    endloop
  endfacet
  facet normal 0 1 -0
    outer loop
      vertex 42.5476 6 1
      vertex 0 6 6.19629
      vertex 53.4524 6 1
    endloop
  endfacet
  facet normal 0 1 -0
    outer loop
      vertex 35.4423 6 1
      vertex 0 6 6.19629
      vertex 42.5476 6 1
    endloop
  endfacet
  facet normal 0 1 -0
    outer loop
      vertex 16.25 6 1
      vertex 0 6 6.19629
      vertex 35.4423 6 1
    endloop
  endfacet
  facet normal 0 1 -0
    outer loop
      vertex 9.75 6 1
      vertex 0 6 6.19629
      vertex 16.25 6 1
    endloop
  endfacet
  facet normal 0 1 0
    outer loop
      vertex 0 6 0
      vertex 9.75 6 1
      vertex 9.75 6 0
    endloop
  endfacet
  facet normal 0 1 0
    outer loop
      vertex 9.75 6 1
      vertex 0 6 0
      vertex 0 6 6.19629
    endloop
  endfacet
  facet normal 0 -1 0
    outer loop
      vertex 130.558 0 0
      vertex 149.75 0 1
      vertex 130.558 0 1
    endloop
  endfacet
  facet normal 0 -1 -0
    outer loop
      vertex 149.75 0 1
      vertex 130.558 0 0
      vertex 149.75 0 0
    endloop
  endfacet
  facet normal 0 -1 0
    outer loop
      vertex 112.548 0 0
      vertex 123.452 0 1
      vertex 112.548 0 1
    endloop
  endfacet
  facet normal 0 -1 -0
    outer loop
      vertex 123.452 0 1
      vertex 112.548 0 0
      vertex 123.452 0 0
    endloop
  endfacet
  facet normal 0 -1 0
    outer loop
      vertex 86.25 0 0
      vertex 105.442 0 1
      vertex 86.25 0 1
    endloop
  endfacet
  facet normal 0 -1 -0
    outer loop
      vertex 105.442 0 1
      vertex 86.25 0 0
      vertex 105.442 0 0
    endloop
  endfacet
  facet normal 0 -1 0
    outer loop
      vertex 60.5577 0 0
      vertex 79.75 0 1
      vertex 60.5577 0 1
    endloop
  endfacet
  facet normal 0 -1 -0
    outer loop
      vertex 79.75 0 1
      vertex 60.5577 0 0
      vertex 79.75 0 0
    endloop
  endfacet
  facet normal 0 -1 0
    outer loop
      vertex 42.5476 0 0
      vertex 53.4524 0 1
      vertex 42.5476 0 1
    endloop
  endfacet
  facet normal 0 -1 -0
    outer loop
      vertex 53.4524 0 1
      vertex 42.5476 0 0
      vertex 53.4524 0 0
    endloop
  endfacet
  facet normal 0 -1 0
    outer loop
      vertex 16.25 0 0
      vertex 35.4423 0 1
      vertex 16.25 0 1
    endloop
  endfacet
  facet normal 0 -1 -0
    outer loop
      vertex 35.4423 0 1
      vertex 16.25 0 0
      vertex 35.4423 0 0
    endloop
  endfacet
  facet normal 0 -1 0
    outer loop
      vertex 16.25 0 1
      vertex 0 0 6.196
      vertex 9.75 0 1
    endloop
  endfacet
  facet normal 0 -1 0
    outer loop
      vertex 0 0 0
      vertex 9.75 0 1
      vertex 0 0 6.196
    endloop
  endfacet
  facet normal 0 -1 -0
    outer loop
      vertex 9.75 0 1
      vertex 0 0 0
      vertex 9.75 0 0
    endloop
  endfacet
  facet normal 0 -1 0
    outer loop
      vertex 35.4423 0 1
      vertex 0 0 6.196
      vertex 16.25 0 1
    endloop
  endfacet
  facet normal 0 -1 0
    outer loop
      vertex 42.5476 0 1
      vertex 0 0 6.196
      vertex 35.4423 0 1
    endloop
  endfacet
  facet normal 0 -1 0
    outer loop
      vertex 53.4524 0 1
      vertex 0 0 6.196
      vertex 42.5476 0 1
    endloop
  endfacet
  facet normal 0 -1 0
    outer loop
      vertex 60.5577 0 1
      vertex 0 0 6.196
      vertex 53.4524 0 1
    endloop
  endfacet
  facet normal 0 -1 0
    outer loop
      vertex 79.75 0 1
      vertex 0 0 6.196
      vertex 60.5577 0 1
    endloop
  endfacet
  facet normal 0 -1 0
    outer loop
      vertex 0 0 6.196
      vertex 79.75 0 1
      vertex 166 0 6.196
    endloop
  endfacet
  facet normal 0 -1 0
    outer loop
      vertex 86.25 0 1
      vertex 166 0 6.196
      vertex 79.75 0 1
    endloop
  endfacet
  facet normal 0 -1 0
    outer loop
      vertex 105.442 0 1
      vertex 166 0 6.196
      vertex 86.25 0 1
    endloop
  endfacet
  facet normal 0 -1 0
    outer loop
      vertex 112.548 0 1
      vertex 166 0 6.196
      vertex 105.442 0 1
    endloop
  endfacet
  facet normal 0 -1 0
    outer loop
      vertex 123.452 0 1
      vertex 166 0 6.196
      vertex 112.548 0 1
    endloop
  endfacet
  facet normal 0 -1 0
    outer loop
      vertex 130.558 0 1
      vertex 166 0 6.196
      vertex 123.452 0 1
    endloop
  endfacet
  facet normal 0 -1 0
    outer loop
      vertex 149.75 0 1
      vertex 166 0 6.196
      vertex 130.558 0 1
    endloop
  endfacet
  facet normal 0 -1 0
    outer loop
      vertex 156.25 0 1
      vertex 166 0 6.196
      vertex 149.75 0 1
    endloop
  endfacet
  facet normal 0 -1 0
    outer loop
      vertex 166 0 0
      vertex 156.25 0 1
      vertex 156.25 0 0
    endloop
  endfacet
  facet normal 0 -1 0
    outer loop
      vertex 156.25 0 1
      vertex 166 0 0
      vertex 166 0 6.196
    endloop
  endfacet
  facet normal 0 0 -1
    outer loop
      vertex 9.75 0 1
      vertex 16.25 6 1
      vertex 16.25 0 1
    endloop
  endfacet
  facet normal -0 0 -1
    outer loop
      vertex 16.25 6 1
      vertex 9.75 0 1
      vertex 9.75 6 1
    endloop
  endfacet
  facet normal -1 0 0
    outer loop
      vertex 16.25 0 0
      vertex 16.25 6 1
      vertex 16.25 6 0
    endloop
  endfacet
  facet normal -1 -0 0
    outer loop
      vertex 16.25 6 1
      vertex 16.25 0 0
      vertex 16.25 0 1
    endloop
  endfacet
  facet normal 0 0 -1
    outer loop
      vertex 0 0 0
      vertex 9.75 6 0
      vertex 9.75 0 0
    endloop
  endfacet
  facet normal -0 0 -1
    outer loop
      vertex 9.75 6 0
      vertex 0 0 0
      vertex 0 6 0
    endloop
  endfacet
  facet normal 0 0 -1
    outer loop
      vertex 16.25 0 0
      vertex 35.4423 6 0
      vertex 35.4423 0 0
    endloop
  endfacet
  facet normal -0 0 -1
    outer loop
      vertex 35.4423 6 0
      vertex 16.25 0 0
      vertex 16.25 6 0
    endloop
  endfacet
  facet normal 0 0 -1
    outer loop
      vertex 42.5476 0 0
      vertex 53.4524 6 0
      vertex 53.4524 0 0
    endloop
  endfacet
  facet normal -0 0 -1
    outer loop
      vertex 53.4524 6 0
      vertex 42.5476 0 0
      vertex 42.5476 6 0
    endloop
  endfacet
  facet normal 0 0 -1
    outer loop
      vertex 60.5577 0 0
      vertex 79.75 6 0
      vertex 79.75 0 0
    endloop
  endfacet
  facet normal -0 0 -1
    outer loop
      vertex 79.75 6 0
      vertex 60.5577 0 0
      vertex 60.5577 6 0
    endloop
  endfacet
  facet normal 0 0 -1
    outer loop
      vertex 86.25 0 0
      vertex 105.442 6 0
      vertex 105.442 0 0
    endloop
  endfacet
  facet normal -0 0 -1
    outer loop
      vertex 105.442 6 0
      vertex 86.25 0 0
      vertex 86.25 6 0
    endloop
  endfacet
  facet normal 0 0 -1
    outer loop
      vertex 112.548 0 0
      vertex 123.452 6 0
      vertex 123.452 0 0
    endloop
  endfacet
  facet normal -0 0 -1
    outer loop
      vertex 123.452 6 0
      vertex 112.548 0 0
      vertex 112.548 6 0
    endloop
  endfacet
  facet normal 0 0 -1
    outer loop
      vertex 130.558 0 0
      vertex 149.75 6 0
      vertex 149.75 0 0
    endloop
  endfacet
  facet normal -0 0 -1
    outer loop
      vertex 149.75 6 0
      vertex 130.558 0 0
      vertex 130.558 6 0
    endloop
  endfacet
  facet normal 0 0 -1
    outer loop
      vertex 156.25 0 0
      vertex 166 6 0
      vertex 166 0 0
    endloop
  endfacet
  facet normal -0 0 -1
    outer loop
      vertex 166 6 0
      vertex 156.25 0 0
      vertex 156.25 6 0
    endloop
  endfacet
  facet normal 1 -0 0
    outer loop
      vertex 35.4423 0 1
      vertex 35.4423 6 0
      vertex 35.4423 6 1
    endloop
  endfacet
  facet normal 1 0 0
    outer loop
      vertex 35.4423 6 0
      vertex 35.4423 0 1
      vertex 35.4423 0 0
    endloop
  endfacet
  facet normal 0 0 -1
    outer loop
      vertex 35.4423 0 1
      vertex 42.5476 6 1
      vertex 42.5476 0 1
    endloop
  endfacet
  facet normal -0 0 -1
    outer loop
      vertex 42.5476 6 1
      vertex 35.4423 0 1
      vertex 35.4423 6 1
    endloop
  endfacet
  facet normal -1 0 0
    outer loop
      vertex 42.5476 0 0
      vertex 42.5476 6 1
      vertex 42.5476 6 0
    endloop
  endfacet
  facet normal -1 -0 0
    outer loop
      vertex 42.5476 6 1
      vertex 42.5476 0 0
      vertex 42.5476 0 1
    endloop
  endfacet
  facet normal 1 -0 0
    outer loop
      vertex 53.4524 0 1
      vertex 53.4524 6 0
      vertex 53.4524 6 1
    endloop
  endfacet
  facet normal 1 0 0
    outer loop
      vertex 53.4524 6 0
      vertex 53.4524 0 1
      vertex 53.4524 0 0
    endloop
  endfacet
  facet normal 0 0 -1
    outer loop
      vertex 53.4524 0 1
      vertex 60.5577 6 1
      vertex 60.5577 0 1
    endloop
  endfacet
  facet normal -0 0 -1
    outer loop
      vertex 60.5577 6 1
      vertex 53.4524 0 1
      vertex 53.4524 6 1
    endloop
  endfacet
  facet normal -1 0 0
    outer loop
      vertex 60.5577 0 0
      vertex 60.5577 6 1
      vertex 60.5577 6 0
    endloop
  endfacet
  facet normal -1 -0 0
    outer loop
      vertex 60.5577 6 1
      vertex 60.5577 0 0
      vertex 60.5577 0 1
    endloop
  endfacet
  facet normal 1 -0 0
    outer loop
      vertex 79.75 0 1
      vertex 79.75 6 0
      vertex 79.75 6 1
    endloop
  endfacet
  facet normal 1 0 0
    outer loop
      vertex 79.75 6 0
      vertex 79.75 0 1
      vertex 79.75 0 0
    endloop
  endfacet
  facet normal 0 0 -1
    outer loop
      vertex 79.75 0 1
      vertex 86.25 6 1
      vertex 86.25 0 1
    endloop
  endfacet
  facet normal -0 0 -1
    outer loop
      vertex 86.25 6 1
      vertex 79.75 0 1
      vertex 79.75 6 1
    endloop
  endfacet
  facet normal -1 0 0
    outer loop
      vertex 86.25 0 0
      vertex 86.25 6 1
      vertex 86.25 6 0
    endloop
  endfacet
  facet normal -1 -0 0
    outer loop
      vertex 86.25 6 1
      vertex 86.25 0 0
      vertex 86.25 0 1
    endloop
  endfacet
  facet normal 1 -0 0
    outer loop
      vertex 105.442 0 1
      vertex 105.442 6 0
      vertex 105.442 6 1
    endloop
  endfacet
  facet normal 1 0 0
    outer loop
      vertex 105.442 6 0
      vertex 105.442 0 1
      vertex 105.442 0 0
    endloop
  endfacet
  facet normal 0 0 -1
    outer loop
      vertex 105.442 0 1
      vertex 112.548 6 1
      vertex 112.548 0 1
    endloop
  endfacet
  facet normal -0 0 -1
    outer loop
      vertex 112.548 6 1
      vertex 105.442 0 1
      vertex 105.442 6 1
    endloop
  endfacet
  facet normal -1 0 0
    outer loop
      vertex 112.548 0 0
      vertex 112.548 6 1
      vertex 112.548 6 0
    endloop
  endfacet
  facet normal -1 -0 0
    outer loop
      vertex 112.548 6 1
      vertex 112.548 0 0
      vertex 112.548 0 1
    endloop
  endfacet
  facet normal 1 -0 0
    outer loop
      vertex 123.452 0 1
      vertex 123.452 6 0
      vertex 123.452 6 1
    endloop
  endfacet
  facet normal 1 0 0
    outer loop
      vertex 123.452 6 0
      vertex 123.452 0 1
      vertex 123.452 0 0
    endloop
  endfacet
  facet normal 0 0 -1
    outer loop
      vertex 123.452 0 1
      vertex 130.558 6 1
      vertex 130.558 0 1
    endloop
  endfacet
  facet normal -0 0 -1
    outer loop
      vertex 130.558 6 1
      vertex 123.452 0 1
      vertex 123.452 6 1
    endloop
  endfacet
  facet normal -1 0 0
    outer loop
      vertex 130.558 0 0
      vertex 130.558 6 1
      vertex 130.558 6 0
    endloop
  endfacet
  facet normal -1 -0 0
    outer loop
      vertex 130.558 6 1
      vertex 130.558 0 0
      vertex 130.558 0 1
    endloop
  endfacet
  facet normal 1 -0 0
    outer loop
      vertex 149.75 0 1
      vertex 149.75 6 0
      vertex 149.75 6 1
    endloop
  endfacet
  facet normal 1 0 0
    outer loop
      vertex 149.75 6 0
      vertex 149.75 0 1
      vertex 149.75 0 0
    endloop
  endfacet
  facet normal 0 0 -1
    outer loop
      vertex 149.75 0 1
      vertex 156.25 6 1
      vertex 156.25 0 1
    endloop
  endfacet
  facet normal -0 0 -1
    outer loop
      vertex 156.25 6 1
      vertex 149.75 0 1
      vertex 149.75 6 1
    endloop
  endfacet
  facet normal -1 0 0
    outer loop
      vertex 156.25 0 0
      vertex 156.25 6 1
      vertex 156.25 6 0
    endloop
  endfacet
  facet normal -1 -0 0
    outer loop
      vertex 156.25 6 1
      vertex 156.25 0 0
      vertex 156.25 0 1
    endloop
  endfacet
  facet normal 1 0 0
    outer loop
      vertex 166 0 6.196
      vertex 166 6 6.19629
      vertex 166 3 7.9283
    endloop
  endfacet
  facet normal 1 0 0
    outer loop
      vertex 166 6 6.19629
      vertex 166 0 6.196
      vertex 166 6 0
    endloop
  endfacet
  facet normal 1 0 0
    outer loop
      vertex 166 6 0
      vertex 166 0 6.196
      vertex 166 0 0
    endloop
  endfacet
  facet normal -1 0 0
    outer loop
      vertex 0 0 6.196
      vertex 0 6 6.19629
      vertex 0 6 0
    endloop
  endfacet
  facet normal -1 0 0
    outer loop
      vertex 0 0 6.196
      vertex 0 6 0
      vertex 0 0 0
    endloop
  endfacet
  facet normal -1 -0 0
    outer loop
      vertex 0 6 6.19629
      vertex 0 0 6.196
      vertex 0 3 7.9283
    endloop
  endfacet
  facet normal 1 -0 0
    outer loop
      vertex 9.75 0 1
      vertex 9.75 6 0
      vertex 9.75 6 1
    endloop
  endfacet
  facet normal 1 0 0
    outer loop
      vertex 9.75 6 0
      vertex 9.75 0 1
      vertex 9.75 0 0
    endloop
  endfacet
  facet normal -0 0.499991 0.866031
    outer loop
      vertex 0 6 6.19629
      vertex 166 3 7.9283
      vertex 166 6 6.19629
    endloop
  endfacet
  facet normal 0 0.499991 0.866031
    outer loop
      vertex 166 3 7.9283
      vertex 0 6 6.19629
      vertex 0 3 7.9283
    endloop
  endfacet
  facet normal 0 -0.500054 0.865994
    outer loop
      vertex 0 3 7.9283
      vertex 166 0 6.196
      vertex 166 3 7.9283
    endloop
  endfacet
  facet normal 0 -0.500054 0.865994
    outer loop
      vertex 166 0 6.196
      vertex 0 3 7.9283
      vertex 0 0 6.196
    endloop
  endfacet
endsolid OpenSCAD_Model
