solid OpenSCAD_Model
  facet normal 0 0 -1
    outer loop
      vertex 41.6697 4 0
      vertex 47.0979 0.865997 0
      vertex 46.5979 0 0
    endloop
  endfacet
  facet normal 0 0 -1
    outer loop
      vertex 0 0 0
      vertex 0 4 0
      vertex 39.6697 4 0
    endloop
  endfacet
  facet normal 0 -0 -1
    outer loop
      vertex 41.6697 4 0
      vertex 46.5979 0 0
      vertex 41.1697 3.13399 0
    endloop
  endfacet
  facet normal -0 0 -1
    outer loop
      vertex 41.1697 3.13399 0
      vertex 0 0 0
      vertex 39.6697 4 0
    endloop
  endfacet
  facet normal 0 -0 -1
    outer loop
      vertex 41.1697 3.13399 0
      vertex 46.5979 0 0
      vertex 0 0 0
    endloop
  endfacet
  facet normal 0 -0 1
    outer loop
      vertex 46.5979 0 6
      vertex 47.0979 0.865997 6
      vertex 41.6697 4 6
    endloop
  endfacet
  facet normal 0 0 1
    outer loop
      vertex 39.6697 4 6
      vertex 0 4 6
      vertex 0 0 6
    endloop
  endfacet
  facet normal -0 0 1
    outer loop
      vertex 41.1697 3.13399 6
      vertex 46.5979 0 6
      vertex 41.6697 4 6
    endloop
  endfacet
  facet normal 0 0 1
    outer loop
      vertex 39.6697 4 6
      vertex 0 0 6
      vertex 41.1697 3.13399 6
    endloop
  endfacet
  facet normal 0 0 1
    outer loop
      vertex 0 0 6
      vertex 46.5979 0 6
      vertex 41.1697 3.13399 6
    endloop
  endfacet
  facet normal 0.500004 0.866023 0
    outer loop
      vertex 41.6697 4 0
      vertex 47.0979 0.865997 6
      vertex 47.0979 0.865997 0
    endloop
  endfacet
  facet normal 0.500004 0.866023 -0
    outer loop
      vertex 41.6697 4 0
      vertex 41.6697 4 6
      vertex 47.0979 0.865997 6
    endloop
  endfacet
  facet normal -0.866022 0.500007 0
    outer loop
      vertex 41.1697 3.13399 0
      vertex 41.6697 4 6
      vertex 41.6697 4 0
    endloop
  endfacet
  facet normal -0.866022 0.500007 0
    outer loop
      vertex 41.1697 3.13399 0
      vertex 41.1697 3.13399 6
      vertex 41.6697 4 6
    endloop
  endfacet
  facet normal 0.499993 0.866029 0
    outer loop
      vertex 39.6697 4 0
      vertex 41.1697 3.13399 6
      vertex 41.1697 3.13399 0
    endloop
  endfacet
  facet normal 0.499993 0.866029 -0
    outer loop
      vertex 39.6697 4 0
      vertex 39.6697 4 6
      vertex 41.1697 3.13399 6
    endloop
  endfacet
  facet normal 0 1 0
    outer loop
      vertex 0 4 0
      vertex 39.6697 4 6
      vertex 39.6697 4 0
    endloop
  endfacet
  facet normal 0 1 0
    outer loop
      vertex 0 4 0
      vertex 0 4 6
      vertex 39.6697 4 6
    endloop
  endfacet
  facet normal -1 0 0
    outer loop
      vertex 0 0 0
      vertex 0 4 6
      vertex 0 4 0
    endloop
  endfacet
  facet normal -1 0 0
    outer loop
      vertex 0 0 0
      vertex 0 0 6
      vertex 0 4 6
    endloop
  endfacet
  facet normal 0 -1 0
    outer loop
      vertex 46.5979 0 0
      vertex 0 0 6
      vertex 0 0 0
    endloop
  endfacet
  facet normal 0 -1 0
    outer loop
      vertex 46.5979 0 0
      vertex 46.5979 0 6
      vertex 0 0 6
    endloop
  endfacet
  facet normal 0.866018 -0.500012 0
    outer loop
      vertex 47.0979 0.865997 0
      vertex 46.5979 0 6
      vertex 46.5979 0 0
    endloop
  endfacet
  facet normal 0.866018 -0.500012 0
    outer loop
      vertex 47.0979 0.865997 0
      vertex 47.0979 0.865997 6
      vertex 46.5979 0 6
    endloop
  endfacet
endsolid OpenSCAD_Model
